<svg xmlns="http://www.w3.org/2000/svg" viewBox="0 0 2500 1400"><defs><style>.cls-1{fill:#d9dada;}.cls-2{fill:#7ad5c3;}.cls-3,.cls-41,.cls-45,.cls-46{fill:#fff;}.cls-3{opacity:0.37;}.cls-3,.cls-41,.cls-46{isolation:isolate;}.cls-4{fill:#637f3e;}.cls-5{fill:#b8c76c;}.cls-6{fill:#8ba451;}.cls-7{fill:#4b3a35;}.cls-8{fill:#bec65a;}.cls-9{fill:#9eadb1;}.cls-10{fill:#2b9d62;}.cls-11{fill:#3cb97f;}.cls-12{fill:#7b6a5b;}.cls-13{fill:#a47b65;}.cls-14{fill:#c29e6a;}.cls-15{fill:#b98c58;}.cls-16{fill:#b68d61;}.cls-17{fill:#a78259;}.cls-18,.cls-20,.cls-54,.cls-55{fill:none;}.cls-18{stroke:#a78259;}.cls-18,.cls-20,.cls-23,.cls-31,.cls-32,.cls-42,.cls-44,.cls-54{stroke-miterlimit:10;}.cls-19{fill:#cff0f8;}.cls-20{stroke:#f37139;stroke-width:7px;}.cls-21{fill:#191818;}.cls-22{fill:#1e1e1e;}.cls-23{fill:#141414;stroke:#000;}.cls-24,.cls-44{fill:#282828;}.cls-25,.cls-32{fill:#505050;}.cls-26{fill:#bfbfbf;}.cls-27{fill:#a61f24;}.cls-28,.cls-31{fill:#c1272d;}.cls-29{fill:#969696;}.cls-30{fill:#b4bbc0;}.cls-31{stroke:#ab272d;}.cls-32,.cls-42{stroke:#505050;}.cls-33{fill:#868b8e;}.cls-34{fill:#982021;}.cls-35{fill:#d6842b;}.cls-36{fill:#ebeceb;}.cls-37{fill:#8d99a5;}.cls-38{fill:#585d66;}.cls-39{fill:#871a1a;}.cls-40{fill:#c27826;}.cls-41{opacity:0.13;}.cls-42{fill:#cdd8e0;}.cls-43{fill:#28211f;}.cls-44{stroke:#282828;}.cls-46{opacity:0.19;}.cls-47{fill:#c29e6c;}.cls-48{fill:#907156;}.cls-49{fill:#979a9e;}.cls-50{fill:#aeb1b7;}.cls-51{fill:#efa500;}.cls-52{fill:#ce8a02;}.cls-53{fill:#3b56a3;}.cls-54{stroke:#f27139;stroke-width:2px;}.cls-56{fill:#88c348;}.cls-57{fill:#f27139;}</style></defs><title>Artboard 2</title><g id="Layer_1" data-name="Layer 1"><ellipse class="cls-1" cx="1723.75" cy="1224.55" rx="529.87" ry="33.44"/><path class="cls-2" d="M2508.75-53.29H1.46v1344.7c0,28.14,26.95,51,60.14,51H2508.75Z"/><path class="cls-3" d="M1.46-5.29-1.68,388.49,310.94,342a1186.77,1186.77,0,0,1,343.19-1l237,33.91a717.79,717.79,0,0,0,106.27,7.24l404-38.75a939.47,939.47,0,0,1,152.81-2.18l430.11,28.94a1006.35,1006.35,0,0,0,155.44-1.57l353.16-30.94c10.13-.89,17.92-10.38,17.85-21.75l-2-321.19Z"/><path class="cls-4" d="M2661.43,765.22a67.94,67.94,0,0,0-39.09-61.41,127.15,127.15,0,0,0-107.2-184.39,131.77,131.77,0,0,0,2.64-25.82c0-70.35-56.74-127.29-126.83-127.29s-126.83,56.94-126.83,127.29a129.26,129.26,0,0,0,9.07,47.34,125.75,125.75,0,0,0-34.47-5c-65.31,0-119.24,49.66-126,113.55a42.39,42.39,0,0,0,2.31,79.12,94,94,0,0,0-11.55,44.86c0,51.48,41.56,93.35,93,93.35,44.2,0,81.15-31.12,90.55-72.66a109.48,109.48,0,0,0,95.33,55.62q5.2,0,10.39-.5a126.69,126.69,0,0,0,116.44,76.8c63.17,0,115.45-46.51,125-107.09A66.68,66.68,0,0,0,2661.43,765.22Z"/><path class="cls-5" d="M2636,646.38a126.89,126.89,0,0,0-120.89-127,131.77,131.77,0,0,0,2.64-25.82c0-70.35-56.74-127.29-126.83-127.29s-126.83,56.94-126.83,127.29a129.26,129.26,0,0,0,9.07,47.34,125.75,125.75,0,0,0-34.47-5c-64.32,0-117.26,48.17-125.51,110.4-.49,0-.82-.17-1.32-.17a25.49,25.49,0,0,0,0,51,20.79,20.79,0,0,0,4.62-.5c14.68,54,63.66,93.69,122.21,93.69a126.41,126.41,0,0,0,81-29.3A126.77,126.77,0,0,0,2374,773.5a123.41,123.41,0,0,0,24.9-2.48c18.8,32.11,51.62,53.3,89.23,53.3,46.84,0,86.59-33.1,100.44-79A125.78,125.78,0,0,0,2636,646.38Z"/><path class="cls-6" d="M2497.16,571.89a114.53,114.53,0,0,0,20.62-65.55c0-63.23-51.13-114.54-114.13-114.54s-114.13,51.31-114.13,114.54a113.89,113.89,0,0,0,8.91,44.36,125,125,0,0,0-18.8,19.7,110.82,110.82,0,0,0-38.59-7c-51.79,0-95.33,35.42-108.19,83.42a31.91,31.91,0,0,0-4-.33,25.49,25.49,0,0,0,0,51c.66,0,1.32-.17,2-.17,9.9,52.14,55.42,91.53,110.17,91.53a111.32,111.32,0,0,0,77.85-31.61,123.4,123.4,0,0,0,59.21,15.06,127.68,127.68,0,0,0,16-1.16,125,125,0,0,0,65,46,97.7,97.7,0,0,0,31.17,5.13c.66,0,1.32-.17,2-.17s1.48.17,2.14.17c68.78,0,124.69-55.95,124.69-125.13A124.71,124.71,0,0,0,2497.16,571.89Z"/><polygon class="cls-7" points="2205.07 799.15 2340.32 934.88 2340.32 1036.68 2339.68 1181.18 2373.24 1200.88 2374.13 1036.68 2374.13 951.77 2526.19 833.09 2374.13 917.84 2374.13 883.9 2458.57 782.11 2374.13 849.64 2374.13 680.31 2357.14 765.22 2306.51 714.24 2357.14 782.11 2340.32 900.95 2306.51 867.02 2292.16 802.3 2289.52 849.97 2205.07 799.15"/><ellipse class="cls-8" cx="591.42" cy="671.87" rx="25.4" ry="25.49"/><ellipse class="cls-4" cx="685.25" cy="663.43" rx="16.82" ry="16.88"/><ellipse class="cls-8" cx="591.42" cy="604" rx="8.41" ry="8.44"/><path class="cls-4" d="M1144.79,684.73a57.13,57.13,0,0,0-32.87-51.64A106.93,106.93,0,0,0,1021.76,478a110.81,110.81,0,0,0,2.22-21.71c0-59.16-47.71-107-106.66-107s-106.66,47.88-106.66,107a108.7,108.7,0,0,0,7.63,39.81,105.75,105.75,0,0,0-29-4.18c-54.92,0-100.28,41.76-106,95.49A35.65,35.65,0,0,0,685.28,654,78.43,78.43,0,0,0,753.8,770.19c37.17,0,68.24-26.17,76.14-61.11a92.07,92.07,0,0,0,80.17,46.77q4.37,0,8.74-.42A106.54,106.54,0,0,0,1016.77,820c53.12,0,97.09-39.11,105.13-90.06A55.88,55.88,0,0,0,1144.79,684.73Z"/><path class="cls-5" d="M1123.57,584.92A106.71,106.71,0,0,0,1021.9,478.16a110.81,110.81,0,0,0,2.22-21.71c0-59.16-47.71-107-106.66-107s-106.66,47.88-106.66,107a108.7,108.7,0,0,0,7.63,39.81,105.75,105.75,0,0,0-29-4.18c-54.09,0-98.61,40.51-105.55,92.84-.42,0-.69-.14-1.11-.14a21.44,21.44,0,0,0,0,42.87,17.49,17.49,0,0,0,3.88-.42,106.43,106.43,0,0,0,170.87,54.15,106.61,106.61,0,0,0,45.63,10.44,103.78,103.78,0,0,0,20.94-2.09c15.81,27,43.41,44.82,75,44.82,39.39,0,72.82-27.84,84.47-66.4A106.19,106.19,0,0,0,1123.57,584.92Z"/><path class="cls-6" d="M1006.78,522.28a96.31,96.31,0,0,0,17.34-55.12c0-53.17-43-96.32-96-96.32s-96,43.15-96,96.32a95.78,95.78,0,0,0,7.49,37.3A105.13,105.13,0,0,0,823.84,521a93.19,93.19,0,0,0-32.45-5.85c-43.55,0-80.17,29.79-91,70.15a26.84,26.84,0,0,0-3.33-.28,21.44,21.44,0,0,0,0,42.87c.55,0,1.11-.14,1.66-.14,8.32,43.85,46.6,77,92.65,77a93.61,93.61,0,0,0,65.46-26.59,103.78,103.78,0,0,0,49.79,12.67,107.38,107.38,0,0,0,13.45-1,105.16,105.16,0,0,0,54.65,38.7,82.16,82.16,0,0,0,26.21,4.32c.55,0,1.11-.14,1.66-.14s1.25.14,1.8.14c57.84,0,104.85-47,104.85-105.23C1109.28,570,1063.51,523.54,1006.78,522.28Z"/><polygon class="cls-7" points="761.01 713.26 874.74 827.4 874.74 913.01 855.55 1183.18 902.76 1182.7 903.18 913.01 903.18 841.74 1031.06 741.8 903.18 813.2 903.18 784.67 974.33 699.06 903.18 755.86 903.18 613.46 889.03 684.73 846.31 641.99 889.03 699.06 874.74 798.87 846.31 770.33 834.25 715.9 832.16 756.13 761.01 713.26"/><path class="cls-6" d="M2508.75,1342.4H57.1c-32.46,0-58.77-22.53-58.77-50.32v-76.14c0-27.79,26.31-50.32,58.77-50.32H2508.75Z"/><path class="cls-9" d="M2508.75,1413.91H-1.68V1267.58H2508.75Z"/><path class="cls-10" d="M1856.09,1165.13a27.47,27.47,0,0,0,14.84,12.25,23.17,23.17,0,0,0-1.48-20.69,27.47,27.47,0,0,0-14.84-12.25A23.17,23.17,0,0,0,1856.09,1165.13Z"/><path class="cls-10" d="M1888.25,1166.28a25.9,25.9,0,0,1-15.5,11.09,23.14,23.14,0,0,1,2.64-20.52,25.9,25.9,0,0,1,15.5-11.09A23.14,23.14,0,0,1,1888.25,1166.28Z"/><path class="cls-11" d="M1863.51,1158.84a31.5,31.5,0,0,0,8.25,19.53c5.11-5,8.25-12.75,7.75-21.68a31.5,31.5,0,0,0-8.25-19.53C1866.15,1142.12,1863,1150.06,1863.51,1158.84Z"/><path class="cls-10" d="M1869.28,1168.93a30.78,30.78,0,0,0,2.64,9.43,28.46,28.46,0,0,0,.16-10.76,30.78,30.78,0,0,0-2.64-9.43A28.32,28.32,0,0,0,1869.28,1168.93Z"/><path class="cls-10" d="M1848,1180.52a15.09,15.09,0,0,0,7.75,4.47c1.32-2.15,1.15-5-.82-7.45a15.09,15.09,0,0,0-7.75-4.47C1845.86,1175.22,1846,1178,1848,1180.52Z"/><path class="cls-10" d="M1864.5,1180.85a13.46,13.46,0,0,1-7.92,4c-1.15-2.32-.82-5,1.32-7.45a13.46,13.46,0,0,1,7.92-4C1867.14,1175.88,1866.81,1178.53,1864.5,1180.85Z"/><path class="cls-11" d="M1851.8,1178.2a9.7,9.7,0,0,0,4.29,7.12,8.43,8.43,0,0,0,4-7.78,9.7,9.7,0,0,0-4.29-7.12A8.43,8.43,0,0,0,1851.8,1178.2Z"/><path class="cls-10" d="M1854.77,1181.84a13.91,13.91,0,0,0,1.32,3.48,10.05,10.05,0,0,0,.16-4,13.91,13.91,0,0,0-1.32-3.48A6.35,6.35,0,0,0,1854.77,1181.84Z"/><path class="cls-10" d="M2039.12,1316.66a13.83,13.83,0,0,0,7.75,4.3c1.32-2.15,1.15-5-.82-7.45a13.83,13.83,0,0,0-7.75-4.3A6.34,6.34,0,0,0,2039.12,1316.66Z"/><path class="cls-10" d="M2055.78,1317a14.68,14.68,0,0,1-7.92,4.14c-1.15-2.32-.82-5,1.32-7.45a14.68,14.68,0,0,1,7.92-4.14A6.47,6.47,0,0,1,2055.78,1317Z"/><path class="cls-11" d="M2043.08,1314.51a9.59,9.59,0,0,0,4.29,7,8.43,8.43,0,0,0,4-7.78,9.59,9.59,0,0,0-4.29-7A7.83,7.83,0,0,0,2043.08,1314.51Z"/><path class="cls-10" d="M2045.88,1318a13.91,13.91,0,0,0,1.32,3.48,8,8,0,0,0,0-4,13.91,13.91,0,0,0-1.32-3.48A10.64,10.64,0,0,0,2045.88,1318Z"/><path class="cls-10" d="M1183.34,1206.34c4,4.63,10.06,7.95,17,9.6,3.13-4.8,2.8-10.76-1.65-16.06-4-4.63-10.06-7.95-17-9.6C1178.56,1195.08,1178.89,1201,1183.34,1206.34Z"/><path class="cls-10" d="M1220,1207.33c-4.29,4.47-10.72,7.45-17.65,8.61-2.64-5-1.81-10.92,3-16.06,4.29-4.47,10.72-7.45,17.65-8.61C1225.73,1196.24,1224.9,1202.2,1220,1207.33Z"/><path class="cls-11" d="M1191.92,1201.54c.49,6,4.12,11.42,9.4,15.23,5.94-3.81,9.4-9.93,8.74-16.88-.49-6-4.12-11.42-9.4-15.23C1194.72,1188.63,1191.26,1194.75,1191.92,1201.54Z"/><path class="cls-10" d="M1198.35,1209.32a20.64,20.64,0,0,0,3,7.45c.82-2,.82-5,.16-8.44a20.65,20.65,0,0,0-3-7.45C1197.69,1202.86,1197.69,1206,1198.35,1209.32Z"/><polygon class="cls-12" points="644.53 267.66 -1.1 267.66 -3.05 -235.63 644.53 267.66"/><polygon class="cls-13" points="598.18 267.66 -1.1 267.66 -3.05 -199.49 598.18 267.66"/><polygon class="cls-14" points="534.36 267.66 -1.1 267.66 -3.05 -149.83 489.33 232.74 534.36 267.66"/><polygon class="cls-15" points="534.36 267.66 -1.1 267.66 -3.05 232.74 489.33 232.74 534.36 267.66"/><polygon class="cls-13" points="644.53 267.66 633.98 296.8 621.44 331.72 -1.68 340.49 -1.1 267.66 644.53 267.66"/><polygon class="cls-14" points="633.98 296.8 621.44 331.72 -1.68 340.49 -1.33 296.8 633.98 296.8"/><rect class="cls-16" x="-1.68" y="331.72" width="623.12" height="966.82"/><rect class="cls-14" x="-3.05" y="751.15" width="624.49" height="55.28"/><rect class="cls-17" x="-1.68" y="331.72" width="623.12" height="17.55"/><line class="cls-18" x1="-1.68" y1="838.55" x2="621.44" y2="838.55"/><line class="cls-18" x1="-1.68" y1="873.47" x2="621.44" y2="873.47"/><line class="cls-18" x1="-1.68" y1="902.61" x2="621.44" y2="902.61"/><line class="cls-18" x1="-1.68" y1="931.74" x2="621.44" y2="931.74"/><line class="cls-18" x1="-3.05" y1="378.4" x2="621.44" y2="378.4"/><line class="cls-18" x1="-3.05" y1="413.32" x2="621.44" y2="413.32"/><line class="cls-18" x1="-3.05" y1="442.45" x2="621.44" y2="442.45"/><line class="cls-18" x1="-3.05" y1="471.59" x2="621.44" y2="471.59"/><line class="cls-18" x1="-3.05" y1="506.51" x2="621.44" y2="506.51"/><line class="cls-18" x1="-3.05" y1="541.44" x2="621.44" y2="541.44"/><line class="cls-18" x1="-3.05" y1="570.57" x2="621.44" y2="570.57"/><line class="cls-18" x1="-3.05" y1="599.7" x2="621.44" y2="599.7"/><line class="cls-18" x1="-3.05" y1="634.63" x2="621.44" y2="634.63"/><line class="cls-18" x1="-1.68" y1="669.55" x2="621.44" y2="669.55"/><line class="cls-18" x1="-1.68" y1="698.68" x2="621.44" y2="698.68"/><line class="cls-18" x1="-1.68" y1="727.82" x2="621.44" y2="727.82"/><line class="cls-18" x1="-3.05" y1="966.66" x2="621.44" y2="966.66"/><line class="cls-18" x1="-3.05" y1="995.8" x2="621.44" y2="995.8"/><line class="cls-18" x1="-3.05" y1="1030.72" x2="621.44" y2="1030.72"/><line class="cls-18" x1="-3.05" y1="1065.65" x2="621.44" y2="1065.65"/><line class="cls-18" x1="-3.05" y1="1094.78" x2="621.44" y2="1094.78"/><line class="cls-18" x1="-3.05" y1="1129.7" x2="621.44" y2="1129.7"/><line class="cls-18" x1="-3.05" y1="1164.63" x2="621.44" y2="1164.63"/><line class="cls-18" x1="-3.05" y1="1193.76" x2="621.44" y2="1193.76"/><line class="cls-18" x1="-3.05" y1="1228.69" x2="621.44" y2="1228.69"/><line class="cls-18" x1="-3.05" y1="1263.61" x2="621.44" y2="1263.61"/><line class="cls-18" x1="284.82" y1="1292.74" x2="621.44" y2="1292.74"/><rect class="cls-17" x="284.82" y="378.4" width="168.23" height="221.3"/><rect class="cls-19" x="302.14" y="413.32" width="52.28" height="46.68"/><rect class="cls-19" x="365.97" y="524.06" width="52.28" height="46.68"/><rect class="cls-19" x="302.14" y="471.59" width="52.28" height="98.98"/><rect class="cls-19" x="365.97" y="413.32" width="52.28" height="98.98"/><path class="cls-10" d="M2016.69,1299.78c4,10.92,10.06,18.54,17,22.18,3.13-11.09,2.8-24.83-1.65-37.41-4-10.92-10.06-18.54-17-22.18C2011.91,1273.46,2012.24,1287.36,2016.69,1299.78Z"/><path class="cls-10" d="M2053.3,1301.93c-4.29,10.43-10.72,17.38-17.65,20a64,64,0,0,1,3-37.08c4.29-10.43,10.72-17.38,17.65-20A64,64,0,0,1,2053.3,1301.93Z"/><path class="cls-11" d="M2025.1,1288.52c.49,13.9,4.12,26.48,9.4,35.26,5.94-8.94,9.4-23.17,8.74-39.06-.49-13.9-4.12-26.48-9.4-35.26C2028.07,1258.23,2024.6,1272.47,2025.1,1288.52Z"/><path class="cls-10" d="M2031.53,1306.56a91.6,91.6,0,0,0,3,17.21c.82-4.63.82-11.75.16-19.53a91.6,91.6,0,0,0-3-17.21A93.37,93.37,0,0,0,2031.53,1306.56Z"/><path class="cls-10" d="M1809,1317.07a27.47,27.47,0,0,0,14.84,12.25,23.17,23.17,0,0,0-1.48-20.69,27.47,27.47,0,0,0-14.84-12.25A23.17,23.17,0,0,0,1809,1317.07Z"/><path class="cls-10" d="M1841.2,1318.23a25.9,25.9,0,0,1-15.5,11.09,23.14,23.14,0,0,1,2.64-20.52,25.9,25.9,0,0,1,15.5-11.09A23.14,23.14,0,0,1,1841.2,1318.23Z"/><path class="cls-11" d="M1816.46,1310.78a31.5,31.5,0,0,0,8.25,19.53c5.11-5,8.25-12.75,7.75-21.68a31.5,31.5,0,0,0-8.25-19.53C1819.1,1294.06,1816,1302,1816.46,1310.78Z"/><path class="cls-10" d="M1822.23,1320.88a30.78,30.78,0,0,0,2.64,9.43,28.46,28.46,0,0,0,.16-10.76,30.78,30.78,0,0,0-2.64-9.43A28.32,28.32,0,0,0,1822.23,1320.88Z"/><path class="cls-10" d="M1801,1332.46a15.09,15.09,0,0,0,7.75,4.47c1.32-2.15,1.15-5-.82-7.45a15.09,15.09,0,0,0-7.75-4.47C1798.81,1327.17,1799,1330,1801,1332.46Z"/><path class="cls-10" d="M1817.45,1333a13.46,13.46,0,0,1-7.92,4c-1.15-2.32-.82-5,1.32-7.45a13.46,13.46,0,0,1,7.92-4C1820.09,1327.83,1819.76,1330.48,1817.45,1333Z"/><path class="cls-11" d="M1804.75,1330.15a9.7,9.7,0,0,0,4.29,7.12,8.43,8.43,0,0,0,4-7.78,9.7,9.7,0,0,0-4.29-7.12A8.43,8.43,0,0,0,1804.75,1330.15Z"/><path class="cls-20" d="M495.83,1178.2s-13.22,146.88,31,146.87c210.71-.08,171.08-13,272.58-50.7,134.12-49.82,27.78,164.59,280.4-6.79,22.42-15.21,83.46-22.68,162.79-25.39,69-2.36,152.07-6.33,235,1.75,144.89,14.12,163.57-82.38,220.34-40.09,32.22,24,253.09,25.66,277.39,25.66,140,0,45-87.13,88.51-149.47"/><path class="cls-10" d="M1521.67,1312.1c4,10.92,10.06,18.54,17,22.18,3.13-11.09,2.8-24.83-1.65-37.41-4-10.92-10.06-18.54-17-22.18A63.44,63.44,0,0,0,1521.67,1312.1Z"/><path class="cls-10" d="M1558.29,1314.25c-4.29,10.43-10.72,17.38-17.65,20a64,64,0,0,1,3-37.08c4.29-10.43,10.72-17.38,17.65-20A64,64,0,0,1,1558.29,1314.25Z"/><path class="cls-11" d="M1530.08,1300.84c.49,13.9,4.12,26.48,9.4,35.26,5.94-8.94,9.4-23.17,8.74-39.06-.49-13.9-4.12-26.48-9.4-35.26C1533.05,1270.72,1529.59,1285,1530.08,1300.84Z"/><path class="cls-10" d="M1536.51,1319.05a91.61,91.61,0,0,0,3,17.21c.82-4.63.82-11.75.16-19.53a91.61,91.61,0,0,0-3-17.21A92.88,92.88,0,0,0,1536.51,1319.05Z"/><path class="cls-10" d="M1544.1,1329.15a13.83,13.83,0,0,0,7.75,4.3c1.32-2.15,1.15-5-.82-7.45a13.83,13.83,0,0,0-7.75-4.3C1542,1323.85,1542.12,1326.67,1544.1,1329.15Z"/><path class="cls-10" d="M1560.76,1329.48a14.68,14.68,0,0,1-7.92,4.14c-1.15-2.32-.82-5,1.32-7.45a14.68,14.68,0,0,1,7.92-4.14C1563.23,1324.35,1562.9,1327,1560.76,1329.48Z"/><path class="cls-11" d="M1548.06,1326.83a9.6,9.6,0,0,0,4.29,7,8.43,8.43,0,0,0,4-7.78,9.6,9.6,0,0,0-4.29-7A8,8,0,0,0,1548.06,1326.83Z"/><path class="cls-10" d="M1550.86,1330.47a13.92,13.92,0,0,0,1.32,3.48,8,8,0,0,0,0-4,13.92,13.92,0,0,0-1.32-3.48A10.56,10.56,0,0,0,1550.86,1330.47Z"/><path class="cls-10" d="M926.6,1281.66c4,10.92,10.06,18.54,17,22.18,3.13-11.09,2.8-24.83-1.65-37.41-4-10.92-10.06-18.54-17-22.18A63.44,63.44,0,0,0,926.6,1281.66Z"/><path class="cls-10" d="M963.21,1283.81c-4.29,10.43-10.72,17.38-17.65,20a64,64,0,0,1,3-37.08c4.29-10.43,10.72-17.38,17.65-20A64,64,0,0,1,963.21,1283.81Z"/><path class="cls-11" d="M935,1270.41c.49,13.9,4.12,26.48,9.4,35.26,5.94-8.94,9.4-23.17,8.74-39.06-.49-13.9-4.12-26.48-9.4-35.26C938,1240.28,934.52,1254.52,935,1270.41Z"/><path class="cls-10" d="M941.44,1288.61a91.61,91.61,0,0,0,3,17.21c.82-4.63.82-11.75.16-19.53a91.61,91.61,0,0,0-3-17.21A92.89,92.89,0,0,0,941.44,1288.61Z"/><path class="cls-10" d="M949,1298.71a13.83,13.83,0,0,0,7.75,4.3c1.32-2.15,1.15-5-.82-7.45a13.83,13.83,0,0,0-7.75-4.3C946.89,1293.41,947.05,1296.23,949,1298.71Z"/><path class="cls-10" d="M965.69,1299a14.68,14.68,0,0,1-7.92,4.14c-1.15-2.32-.82-5,1.32-7.45a14.68,14.68,0,0,1,7.92-4.14C968.16,1293.91,967.83,1296.56,965.69,1299Z"/><path class="cls-11" d="M953,1296.39a9.6,9.6,0,0,0,4.29,7,8.43,8.43,0,0,0,4-7.78,9.6,9.6,0,0,0-4.29-7A8,8,0,0,0,953,1296.39Z"/><path class="cls-10" d="M955.79,1300a13.92,13.92,0,0,0,1.32,3.48,8,8,0,0,0,0-4,13.92,13.92,0,0,0-1.32-3.48A10.56,10.56,0,0,0,955.79,1300Z"/><path class="cls-21" d="M1982,1181.84h108.14a17.3,17.3,0,0,0,17.23-17.38v-1.16a17.3,17.3,0,0,0-17.23-17.38H1982a17.3,17.3,0,0,0-17.23,17.38v1.32A17.27,17.27,0,0,0,1982,1181.84Z"/><path class="cls-22" d="M1956.11,1080c-5.74-18.54-14.93-31.78-25.44-35.26h0a16.77,16.77,0,0,0-5.74-1c-1.15,0-31-2.65-33.31-2.65a16.8,16.8,0,0,0-4.92.66,26,26,0,0,0-10.67,6.79c-13.13,13.41-22.32,43-22.32,77.63s9.19,64.22,22.32,77.63c4.76,4.8,10,7.45,15.59,7.45h33.31c13,0,24.29-14.4,31.18-36.25,4.27-13.57,6.73-30,6.73-47.5C1962.67,1110,1960.21,1093.62,1956.11,1080Z"/><path class="cls-23" d="M1840.09,1159.83l-.82.66-.16.17-127.5,8.44h-.49l-12.64-1.66a135,135,0,0,1,8.37-34.59c1.48-3.81,3.12-7.45,4.76-10.76,13.13-26,34.3-42.87,58.25-42.87,22,0,41.84,14.4,55,37.24a86.32,86.32,0,0,1,5.25,10.26A129.62,129.62,0,0,1,1840.09,1159.83Z"/><path d="M2234.25,1126.89a13.27,13.27,0,0,1-1.48,7.12,35.7,35.7,0,0,1-13,14.07,44,44,0,0,1-6.24,3.14L2163.2,1166l-140.8-.66,90.42-7.78c25.11-27.48,33.48-71.84,33.48-71.84,8.37-29.63,31.51-29.63,31.51-29.63h10.5c18.87,0,21,14.73,21,14.73l1.31,10.59a5.41,5.41,0,0,0,6.89,4.47l8.86-2.65a7.64,7.64,0,0,0,5.42-6.29l1.15,13.57Z"/><path class="cls-24" d="M2211.28,1117.45c-5.42-15.23-13.95-26-24-29h0a20.47,20.47,0,0,0-5.42-.83c-1.15,0-29.21-2.15-31.51-2.15a21.69,21.69,0,0,0-4.59.5,22.63,22.63,0,0,0-10,5.63c-12.31,10.92-21,35.26-21,63.73s8.53,52.64,21,63.73c4.43,4,9.52,6.12,14.6,6.12h31.51c12.14,0,23-11.75,29.37-29.79a125,125,0,0,0,0-78Z"/><ellipse class="cls-25" cx="2181.91" cy="1156.52" rx="35.61" ry="68.69"/><ellipse class="cls-26" cx="2186.34" cy="1156.52" rx="24.12" ry="46.51"/><path class="cls-27" d="M2231.63,1075.08a7.86,7.86,0,0,1-5.42,8.11l-8.86,2.65a5.41,5.41,0,0,1-6.89-4.47l-1.31-10.59s-2.13-14.73-21-14.73h-10.5s-23.14,0-31.51,29.63c0,0-8.37,44.36-33.48,71.84l-92.06,7.95a6.1,6.1,0,0,1-6.56-6.12V848.65h28.55c13.78,0,26.75,10.59,35.12,21.52L2152.37,967l64.16,35.26a19.3,19.3,0,0,1,10,15.56l.16,2.15,4.1,48.5Z"/><path class="cls-22" d="M1528.8,1135c-7.06-18.54-18.38-31.78-31.18-35.26h0a25.07,25.07,0,0,0-7.06-1c-1.48,0-38.23-2.65-41-2.65a25.28,25.28,0,0,0-6.07.66,34.43,34.43,0,0,0-13.13,6.79c-16.08,13.41-27.4,43-27.4,77.63s11.16,64.22,27.4,77.63c5.91,4.8,12.31,7.45,19.2,7.45h41c15.92,0,29.87-14.4,38.4-36.25,5.25-13.57,8.2-30,8.2-47.5C1537,1165,1534,1148.57,1528.8,1135Z"/><path class="cls-28" d="M2231.63,1075.08a7.86,7.86,0,0,1-5.42,8.11l-8.86,2.65a5.41,5.41,0,0,1-6.89-4.47l-1.31-10.59s-2.13-14.73-21-14.73h-10.5s-23.14,0-31.51,29.63c0,0-8.37,44.36-33.48,71.84l-92.06,7.95a6.1,6.1,0,0,1-6.56-6.12V852.95h28.55a44.26,44.26,0,0,1,35.12,17.38l74.66,96.83,64.16,35.26a19.3,19.3,0,0,1,10,15.56l.16,2.15,4.1,48.5Z"/><path class="cls-29" d="M2231.13,1068.46l-6.4-7a12.79,12.79,0,0,1-3.28-7.95l-1.81-32.11A1.35,1.35,0,0,1,2221,1020h5.91l.16,1.16,3.45,40.06Z"/><polygon class="cls-30" points="1179.43 1172.41 1483.51 1184.99 1483.51 647.7 1179.43 690.08 1179.43 1172.41"/><path class="cls-31" d="M2138.91,963.35l3.12,105.44s-1,5.13-10.5,33.77c-6.24,19-18.87,40.22-18.87,40.22l-86,6.29s-2.13-78.29-8.37-287.68Z"/><rect class="cls-32" x="2171.4" y="958.72" width="4.27" height="8.44"/><polygon class="cls-33" points="1210.94 728.48 1210.94 1173.07 1196.34 1172.41 1196.34 730.3 1210.94 728.48"/><polygon class="cls-33" points="1461.08 692.04 1461.08 1184.06 1446.47 1183.46 1446.47 694.87 1461.08 692.04"/><path class="cls-21" d="M2021.91,1164l-2-27.48L1483.51,1185l-1.48-1.16-135.54-4.63,136.86,23.34v.17h.49l2.79-.17,46.11-3.31.33,5.13a13.45,13.45,0,0,0,14.28,12.58L1685,1207a14,14,0,0,0,6.89,1.49L1898,1193.76a13.48,13.48,0,0,0,12.47-14.4l-.49-7.12,94.52-6.79Z"/><path class="cls-24" d="M1821.38,1160.49c-8-18.54-20.68-31.78-35.12-35.26h0a32.1,32.1,0,0,0-7.88-1c-1.64,0-43-2.65-46.28-2.65a29.94,29.94,0,0,0-6.73.66,39.91,39.91,0,0,0-14.77,6.79c-18.21,13.41-30.85,43-30.85,77.63s12.64,64.22,30.85,77.63a36.41,36.41,0,0,0,21.5,7.45h46.28c17.89,0,33.64-14.4,43.16-36.25a123,123,0,0,0,9.19-47.5C1830.57,1190.28,1827.29,1173.9,1821.38,1160.49Z"/><ellipse class="cls-25" cx="1778.23" cy="1208" rx="52.35" ry="83.92"/><ellipse class="cls-26" cx="1783.64" cy="1209.98" rx="34.79" ry="55.78"/><path class="cls-34" d="M1184.19,1018.47h0a4.78,4.78,0,0,1-4.76-4.8V983.55a4.78,4.78,0,0,1,4.76-4.8h0a4.78,4.78,0,0,1,4.76,4.8v30.13A4.78,4.78,0,0,1,1184.19,1018.47Z"/><path class="cls-35" d="M1184.19,1081.37h0a4.78,4.78,0,0,1-4.76-4.8v-30.13a4.78,4.78,0,0,1,4.76-4.8h0a4.78,4.78,0,0,1,4.76,4.8v30.13A4.78,4.78,0,0,1,1184.19,1081.37Z"/><path class="cls-36" d="M2021.42,717.55v431.52l-181.16,12.08h-1a121.59,121.59,0,0,0-12-34.43,90.15,90.15,0,0,0-6.4-10.26c-11.81-16.55-27.57-26.81-44.8-26.81-18.87,0-35.94,12.08-48.08,31.61a115.31,115.31,0,0,0-5.91,10.92,131.72,131.72,0,0,0-10.83,37.57l-13.29.83-12.14.83-57.6,3.81-41.68,2.81-103.05,7V647.7l197.41,25.66,120.45,15.72,38.4,5,53,7Z"/><path class="cls-37" d="M1711.6,1122.25l16.41-.83a115.31,115.31,0,0,0-5.91,10.92l-15.43.83-189.7,9.77v-10.59Z"/><path class="cls-37" d="M2014.2,1106.86v10.59l-184,9.43-2.79.17a90.15,90.15,0,0,0-6.4-10.26l3.94-.17Z"/><path class="cls-38" d="M1840.25,1161.15h-1c0-.17-.16-.5-.16-.66a121,121,0,0,0-11.81-33.6,90.15,90.15,0,0,0-6.4-10.26c-11.81-16.55-27.57-26.81-44.8-26.81-18.87,0-35.94,12.08-48.08,31.61a115.31,115.31,0,0,0-5.91,10.92,127.16,127.16,0,0,0-10.67,36.91c0,.17-.16.5-.16.66l-13.29.83c.16-1,.16-2.15.33-3.14a135,135,0,0,1,8.37-34.59c1.48-3.81,3.12-7.45,4.76-10.76,13.13-26,34.3-42.87,58.25-42.87,22,0,41.84,14.4,55,37.24a86.32,86.32,0,0,1,5.25,10.26,129.47,129.47,0,0,1,9.85,33.1A1.51,1.51,0,0,1,1840.25,1161.15Z"/><polygon class="cls-3" points="1801.36 689.08 1586.56 1178.2 1483.51 1184.99 1483.51 1122.59 1680.92 673.36 1801.36 689.08"/><polygon class="cls-3" points="1892.6 700.84 1686 1171.58 1628.4 1175.39 1839.76 694.05 1892.6 700.84"/><path class="cls-34" d="M1509.76,980.4v24.17a11.13,11.13,0,0,1-10.17,11.09h-17.72a11,11,0,0,1-11-11.09V980.4a11,11,0,0,1,11-11.09h16.74a10.5,10.5,0,0,1,3.28.5,10,10,0,0,1,2,.83,11.58,11.58,0,0,1,3.61,3.31A10,10,0,0,1,1509.76,980.4Z"/><path class="cls-35" d="M1509.76,1054.39v24.17a11.21,11.21,0,0,1-9.68,11.09,3.58,3.58,0,0,1-1.31.17H1482a11,11,0,0,1-11-11.09v-24.17a11,11,0,0,1,11-11.09h16.74a8.76,8.76,0,0,1,3.61.66,5.53,5.53,0,0,1,2,1,10.38,10.38,0,0,1,3.61,3.48A9.72,9.72,0,0,1,1509.76,1054.39Z"/><path class="cls-39" d="M1477.27,1015.82h0a6.26,6.26,0,0,1-6.24-6.29V975.77a6.26,6.26,0,0,1,6.24-6.29h0a6.26,6.26,0,0,1,6.24,6.29v33.77A6.26,6.26,0,0,1,1477.27,1015.82Z"/><path class="cls-40" d="M1477.27,1089.81h0a6.26,6.26,0,0,1-6.24-6.29v-33.77a6.26,6.26,0,0,1,6.24-6.29h0a6.26,6.26,0,0,1,6.24,6.29v33.77A6.26,6.26,0,0,1,1477.27,1089.81Z"/><path class="cls-41" d="M1502.05,969.81l-8.86,46h-8.53l8.86-46.51h5.09A10.83,10.83,0,0,1,1502.05,969.81Z"/><path class="cls-41" d="M1507.63,973.95l-8,41.88h-4.27l8.7-45.19A11.58,11.58,0,0,1,1507.63,973.95Z"/><path class="cls-41" d="M1502.38,1044l-8.7,45.85h-8.53l8.86-46.51h4.76A12.7,12.7,0,0,1,1502.38,1044Z"/><path class="cls-41" d="M1508,1048.43l-7.88,41.38a3.58,3.58,0,0,1-1.31.17h-3l8.53-45A9.16,9.16,0,0,1,1508,1048.43Z"/><path class="cls-32" d="M2167.79,963H2155a4.43,4.43,0,0,1-4.43-4.47v-46a4.43,4.43,0,0,1,4.43-4.47h12a13,13,0,0,1,13,13.08v29.79A12.35,12.35,0,0,1,2167.79,963Z"/><path class="cls-42" d="M2164.84,963H2155a4.61,4.61,0,0,1-4.59-4.63V912.54a4.61,4.61,0,0,1,4.59-4.63h9.85a4.61,4.61,0,0,1,4.59,4.63v45.85A4.83,4.83,0,0,1,2164.84,963Z"/><path class="cls-43" d="M2124.14,978.75l-50.21-2-13.95-.5-10.83-.5-22.74-.17V861.39c42,0,44.24,10.59,44.24,10.59l15.26,19.7,7.06,8.94,9,11.75,33.64,43.2C2143.18,965.17,2136.12,979.08,2124.14,978.75Z"/><path class="cls-35" d="M2230.48,1061.34h-.33a6.69,6.69,0,0,1-7.06-6.46l-.82-14.4-.66-12.25a7,7,0,0,1,5.58-7.12l1.64,19Z"/><path class="cls-44" d="M2175.67,967.16h-4.43a1.9,1.9,0,0,0-2,2v.17H2139.9v4.3h35.77a1.9,1.9,0,0,0,2-2v-2.32A2,2,0,0,0,2175.67,967.16Z"/><path class="cls-24" d="M2239.5,1124.08a16.83,16.83,0,0,1-2.46,9.6c-3.28,5.13-5.42,8.77-17.23,14.57l-2.13-42.37c0-25.32-15.92-28.14-15.92-28.14l26.26-1.49c4.92-.33,9.19,2.81,9.52,7Z"/><path class="cls-45" d="M2230.48,1061.34h-.33a6.69,6.69,0,0,1-7.06-6.46l-.82-14.4,6.56-.33Z"/><path class="cls-46" d="M2086.07,891.68l-36.92,84.09-22.74-.17V861.39c42,0,44.24,10.59,44.24,10.59Z"/><polygon class="cls-46" points="2102.15 912.37 2073.93 976.76 2059.98 976.26 2093.13 900.79 2102.15 912.37"/><polygon class="cls-47" points="453.79 601.69 286.42 601.69 240.14 601.69 257.53 639.76 286.42 639.76 453.79 639.76 482.68 639.76 500.07 601.69 453.79 601.69"/><polygon class="cls-17" points="286.61 960.37 286.42 960.37 197.67 960.37 197.67 1298.7 286.42 1298.7 286.61 1298.7 375.36 1298.7 375.36 960.37 286.61 960.37"/><path class="cls-19" d="M336,1044c.16-36.66-21.4-66.69-48.51-68.13v-.07c-.34,0-.68,0-1,0s-.67,0-1,0v.07c-27.11,1.44-48.67,31.46-48.51,68.13,0,36.74,21.47,66.57,48.35,68.12v.07h.16c.34,0,.68,0,1,0s.67,0,1,0h.16v-.07C314.49,1110.53,336,1080.71,336,1044Z"/><circle class="cls-48" cx="343.19" cy="1127.61" r="13.02"/><path class="cls-48" d="M289.7,1198.06h53.82c-.16-29.3-23.63-53-52.68-53H289.7Z"/><rect class="cls-48" x="290.03" y="1204.19" width="53.17" height="74.15"/><path class="cls-48" d="M283.16,1145.1H282c-29,0-52.51,23.67-52.68,53h53.82Z"/><rect class="cls-48" x="229.67" y="1204.19" width="53.17" height="74.15"/></g><g id="Layer_2" data-name="Layer 2"><path class="cls-49" d="M407.27,1125.4a32.77,32.77,0,0,0-4.55,16.39c0,28.73,40.16,52,89.69,52,45.48,0,83.05-19.63,88.9-45.08"/><path class="cls-49" d="M581.31,1148.73c-59.66,64.29-178.79,28-174-23.33"/><path class="cls-50" d="M581.31,1148.73a30.9,30.9,0,0,0,.8-6.93c0-28.73-40.16-52-89.69-52-39.66,0-73.3,14.93-85.14,35.62C402.53,1176.74,521.65,1213,581.31,1148.73Z"/><path class="cls-51" d="M474.41,1140.63l-1.89,31.74,13,26v17.42h21v-17.42l13.93-26-1.95-30.42C504.69,1145.95,490,1146.45,474.41,1140.63Z"/><path class="cls-52" d="M518.5,1141.95l-1.09-14-42.08.18-.93,12.54C489.87,1150.49,504.59,1149.79,518.5,1141.95Z"/><circle class="cls-53" cx="494.62" cy="1129.7" r="32.78"/><path class="cls-54" d="M510.08,1132.67c11.86-11.86-12.74-34-21.5-25.23"/><path class="cls-55" d="M503.66,1130.13a1.72,1.72,0,0,0-1.34-.64h-15.4a1.72,1.72,0,0,0-1.34.64l-2.43,3h22.95Z"/><path class="cls-56" d="M477.08,1147.27l.62,4.18a1.12,1.12,0,0,0,1.15.79h4a1.12,1.12,0,0,0,1.15-.79l.49-3.33q-3.64-.3-7.27-.82Z"/><path class="cls-56" d="M504.71,1148.13l.49,3.33a1.12,1.12,0,0,0,1.15.79h4a1.12,1.12,0,0,0,1.15-.79l.62-4.18-.17,0Q508.35,1147.83,504.71,1148.13Z"/><path class="cls-56" d="M514.58,1132.06l-1.07-.37a1,1,0,0,0-.69,0l-2.74,1-4.5-5.57a2.08,2.08,0,0,0-1.62-.77H485.29a2.09,2.09,0,0,0-1.63.78l-4.5,5.57-2.74-1a1,1,0,0,0-.69,0l-1.07.37a1,1,0,0,0-.7,1,.71.71,0,0,0,.3.58l1.27.88a1,1,0,0,0,.6.19H477a21.3,21.3,0,0,0-1.51,10.79,2.09,2.09,0,0,0,1.59,1.78l.17,0q3.64.52,7.27.82a121.25,121.25,0,0,0,20.19,0q3.64-.3,7.27-.82l.17,0a2.09,2.09,0,0,0,1.59-1.79,21.3,21.3,0,0,0-1.51-10.79h.87a1,1,0,0,0,.59-.19l1.27-.88a.71.71,0,0,0,.31-.59A1,1,0,0,0,514.58,1132.06Zm-31.43,1.08,2.43-3a1.72,1.72,0,0,1,1.34-.64h15.4a1.72,1.72,0,0,1,1.34.64l2.44,3Z"/><path class="cls-57" d="M490.78,1109.84l-4.07-4.43c-.81-.88-6.6,3.1-7.48,3.91l-.79.73-.36-.39a.42.42,0,0,0-.6,0l-1.93,1.77a.42.42,0,0,0,0,.6l1.17,1.28-2.23,2a.19.19,0,0,0,0,.27l.79.86a.19.19,0,0,0,.27,0l2.21-2L481,1118l-2.21,2a.19.19,0,0,0,0,.27l.79.86a.19.19,0,0,0,.27,0l2.23-2,1.17,1.28a.42.42,0,0,0,.6,0l1.93-1.77a.42.42,0,0,0,0-.6l-.36-.39.79-.73C487.12,1116.15,491.59,1110.72,490.78,1109.84Z"/></g></svg>