<svg xmlns="http://www.w3.org/2000/svg" xmlns:xlink="http://www.w3.org/1999/xlink" viewBox="0 0 2500 1400"><defs><style>.cls-1,.cls-42,.cls-46{fill:none;}.cls-2{fill:#f5bda7;}.cls-3{fill:#f0866c;}.cls-37,.cls-4{isolation:isolate;}.cls-5{fill:#bde6f5;}.cls-6{fill:#484f59;}.cls-7{fill:#ffe182;}.cls-8{fill:#f5ebdc;}.cls-9{fill:#9edcf3;}.cls-10{fill:#f27cac;}.cls-11{fill:#fafafa;}.cls-12{fill:#e3dad4;}.cls-13{fill:#2b0d32;}.cls-14{fill:#1d535f;}.cls-15{fill:#bababa;}.cls-16{fill:#88c348;}.cls-17{fill:#ede4f0;}.cls-18,.cls-37,.cls-64{fill:#fff;}.cls-19{fill:#f27139;}.cls-20{fill:#276b39;}.cls-21{fill:url(#Unnamed_Pattern);}.cls-22{fill:#fedf70;}.cls-23{fill:#f15b3d;}.cls-24{fill:#f68e4f;}.cls-25{fill:#3c6459;}.cls-26{fill:#f37865;}.cls-27{fill:url(#Unnamed_Pattern_4);}.cls-28{fill:#3db375;}.cls-29{fill:#baa48b;}.cls-30{fill:#ffa290;}.cls-31{fill:#09763e;}.cls-32{fill:#ff876c;}.cls-33{fill:#e66c54;}.cls-34{fill:#7eb0c2;}.cls-35{fill:#075e32;}.cls-36{fill:#c4bcb0;}.cls-37{opacity:0.37;}.cls-38{fill:#566068;}.cls-39{fill:#f6f6f6;}.cls-40{fill:#a5a5a5;opacity:0.75;}.cls-40,.cls-48,.cls-49,.cls-50,.cls-54,.cls-61{mix-blend-mode:multiply;}.cls-41{fill:#848484;}.cls-42{stroke:#f37139;stroke-width:7px;}.cls-42,.cls-46{stroke-miterlimit:10;}.cls-43{fill:#efa500;}.cls-44{fill:#ce8a02;}.cls-45{fill:#3b56a3;}.cls-46{stroke:#f27139;stroke-width:2px;}.cls-47{fill:#e0dcdc;}.cls-48,.cls-49,.cls-54,.cls-62{fill:#bcbcbc;}.cls-48{opacity:0.79;}.cls-49{opacity:0.46;}.cls-51{fill:#bdbdbd;}.cls-52{fill:#2f302d;}.cls-53{fill:#1c1c1c;}.cls-54{opacity:0.77;}.cls-55{fill:#ffcf8f;}.cls-56{fill:#d14e4e;}.cls-57{fill:#231f20;}.cls-58{fill:#9e9e9e;}.cls-59{fill:#e6e7e8;}.cls-60{fill:#333;}.cls-61{opacity:0.67;}.cls-63{fill:#d1d3d4;}.cls-64{mix-blend-mode:soft-light;}.cls-65{fill:#88c449;}.cls-66{fill:#7da84c;}</style><pattern id="Unnamed_Pattern" data-name="Unnamed Pattern" width="38.73" height="38.73" patternTransform="translate(-12.33 5492.85) rotate(-180) scale(0.36)" patternUnits="userSpaceOnUse" viewBox="0 0 38.73 38.73"><rect class="cls-1" width="38.73" height="38.73"/><rect class="cls-2" width="38.73" height="38.73"/></pattern><pattern id="Unnamed_Pattern_4" data-name="Unnamed Pattern 4" width="14.25" height="14.5" patternTransform="translate(-2.15 5919.36) rotate(-180) scale(0.18 0.39)" patternUnits="userSpaceOnUse" viewBox="0 0 14.25 14.5"><rect class="cls-1" width="14.25" height="14.5"/><rect class="cls-3" width="14.25" height="14.5"/></pattern></defs><title>Artboard 4</title><g class="cls-4"><g id="Layer_2" data-name="Layer 2"><polyline class="cls-5" points="-0.5 -5.29 2504 -5.29 2500 1400 -0.5 1400 -0.5 -5.29"/><polyline class="cls-6" points="2500.31 955.13 -0.5 955.13 -0.5 1009.47 2500.31 1009.47 2500.31 955.13"/><polyline class="cls-7" points="2500 1006.48 -0.5 1006.48 -0.5 983.76 2500 983.76 2500 1006.48"/><polyline class="cls-8" points="2500 1128.03 -0.5 1128.03 -0.5 1006.48 2500 1006.48 2500 1128.03"/><path class="cls-9" d="M389.67,481.31v-94.4h38.75V256.26h74V435.67h145V558.21H752.64l-44.51,49.56v55.31H608.44V603.57h-97.6v101.8H408V602.52H-.5V961.43H2503.13L2500,404.16H2213.21V326.48l45.66-80.22H2500l-205.7-2.85h-37.09l-46.86,82.32v78.44h-74.88V324.39H2013.74V413.6h-91.31V435.2H1852.7V559.49h-61.46l-5.08-3.34V411.56H1595.84V530.34h-215V481.82h-98.65v77.91h-70.49V372.19h-87.87V559.75h-33.41V510.57L1055.85,474l-34.51,39.09v49.53h-8.85v19H964.8v-210h-71V474.71H753.14v80.64H650.35V432.83h-145V253.41H425.57V384.06H386.81v94.4H349.66V397.81H-.5v2.85H346.81v80.64h42.86m1532.76-24.68h-66.88V438.06h66.88v18.58M1380.88,585.72V533.2h217.82V414.42h184.62V554.27l-32-21-37.78,26.24v27.28H1591.83v24.14H1480.58V585.72h-49.33l-25.95-29.38-24.43,29.38"/><polyline class="cls-10" points="1208.46 961.96 1208.46 703.87 682.28 703.87 682.28 961.96 843.13 961.96 1208.46 961.96"/><rect class="cls-11" x="816.34" y="757.11" width="69.82" height="56.85"/><rect class="cls-11" x="724.7" y="757.11" width="69.82" height="56.85"/><rect class="cls-12" x="908.27" y="757.11" width="69.83" height="56.85"/><rect class="cls-11" x="1000.2" y="757.11" width="69.82" height="56.85"/><rect class="cls-11" x="1092.13" y="757.11" width="69.83" height="56.85"/><polygon class="cls-13" points="1207.73 703.87 649.85 703.87 690.52 603.47 1207.73 602.42 1207.73 703.87"/><path class="cls-14" d="M980.9,962H891.74V892.9c0-25.54,20-46.24,44.59-46.24s44.58,20.7,44.58,46.24Z"/><polyline class="cls-15" points="1737.59 961.43 1181.46 961.43 1181.46 730.31 1737.59 730.31 1737.59 961.43"/><polyline class="cls-16" points="1737.59 961.43 1181.46 961.43 1181.46 801.08 1737.59 801.08 1737.59 961.43"/><polyline class="cls-17" points="1451.57 810.48 1389.83 810.48 1389.83 948.08 1451.57 948.08 1451.57 810.48"/><polyline class="cls-17" points="1533.77 810.48 1472.01 810.48 1472.01 948.08 1533.77 948.08 1533.77 810.48"/><rect class="cls-18" x="1198.06" y="810.48" width="167.92" height="111.58"/><rect class="cls-18" x="1555.57" y="810.48" width="167.92" height="111.58"/><rect x="1157.98" y="714.06" width="602.35" height="16.25"/><rect class="cls-6" x="1181.46" y="691.31" width="550.71" height="22.76"/><rect class="cls-16" x="1246.3" y="486.25" width="423.2" height="164.67"/><rect class="cls-6" x="1300.47" y="650.92" width="13.01" height="40.45"/><rect class="cls-6" x="1603.06" y="650.92" width="13" height="40.45"/><rect class="cls-19" x="1282.03" y="514.14" width="348.44" height="107.84"/><rect class="cls-18" x="1322.44" y="542.54" width="268.68" height="10.24"/><rect class="cls-18" x="1322.44" y="569.12" width="268.68" height="10.24"/><path class="cls-20" d="M461,780.62c-10-21.19,7.48-30.74,18.69-31.58-10.8-35.31,15.79-39.87,25.34-39.87-13-32.44,17-43.9,21.07-42.46,4.85-1.31,36.6,10,23.54,42.46,9.57,0,36.15,4.56,25.34,39.87,11.22.85,28.67,10.39,18.71,31.58,10.4,3.73,45.68,24.92,22,66.89-20.35,24.09-54,9.55-54,9.55s-13.79,13.46-26.55,16.44l-11.63.52c-13.66-.5-30.53-17-30.53-17s-33.63,14.54-54-9.55C415.33,805.54,450.61,784.35,461,780.62Z"/><rect class="cls-21" x="521.78" y="874.01" width="11.15" height="85.96"/><polygon class="cls-22" points="1742.76 409.33 1742.76 587.88 1742.76 914.19 1879.46 914.19 1879.46 587.88 1879.46 409.33 1742.76 409.33"/><rect class="cls-23" x="1742.76" y="751.71" width="136.7" height="21.78"/><rect class="cls-23" x="1742.76" y="529.97" width="136.7" height="21.78"/><rect class="cls-23" x="1742.76" y="644.35" width="136.7" height="21.78"/><rect class="cls-14" x="1725.66" y="914.19" width="170.39" height="48.45"/><path class="cls-24" d="M1856.29,914.19h-90.36V846.69a45.18,45.18,0,1,1,90.36,0Z"/><path class="cls-25" d="M1831.14,530h-40.05V500.07a20,20,0,1,1,40.05,0Z"/><rect class="cls-21" x="1765.93" y="914.19" width="90.36" height="12.11"/><rect class="cls-26" x="1754.16" y="926.3" width="113.79" height="12.11"/><rect class="cls-26" x="1742.76" y="950.52" width="136.7" height="12.11"/><rect class="cls-21" x="1742.76" y="938.41" width="136.7" height="12.11"/><rect class="cls-27" x="401.72" y="875.12" width="10.61" height="85.56"/><path class="cls-28" d="M407,874a41.3,41.3,0,0,1-34.2,10.94c-18.79-2.73-33.14-18-36.75-36.88-15.68-2-27.86-16.33-27.86-33.72,0-12.89,6.66-24.09,16.5-29.85a35.68,35.68,0,0,1-4.64-17.72c0-18.77,14.14-34,31.59-34A29.62,29.62,0,0,1,365.13,736c5.94-18.2,22.05-31.25,41-31.25h1.81c19,0,35.08,13.06,41,31.25a29.63,29.63,0,0,1,13.45-3.23c17.46,0,31.6,15.21,31.6,34a35.74,35.74,0,0,1-4.64,17.72c9.83,5.76,16.49,17,16.49,29.85,0,17.39-12.17,31.73-27.85,33.72-3.61,18.89-18,34.15-36.75,36.88A41.31,41.31,0,0,1,407.05,874"/><rect class="cls-29" x="292.67" y="885.69" width="386.23" height="11.45"/><rect class="cls-29" x="292.67" y="922.94" width="386.23" height="11.45"/><rect class="cls-29" x="320.98" y="885.69" width="10.46" height="74.28"/><rect class="cls-29" x="360.79" y="885.69" width="10.46" height="74.28"/><rect class="cls-29" x="400.61" y="885.69" width="10.46" height="74.28"/><rect class="cls-29" x="440.43" y="885.69" width="10.46" height="74.28"/><rect class="cls-29" x="480.26" y="885.69" width="10.46" height="74.28"/><rect class="cls-29" x="520.07" y="885.69" width="10.46" height="74.28"/><rect class="cls-29" x="559.88" y="885.69" width="10.46" height="74.28"/><rect class="cls-29" x="599.7" y="885.69" width="10.46" height="74.28"/><polyline class="cls-29" points="649.99 959.97 639.52 959.97 639.52 885.69 649.99 885.69 649.99 959.97"/><rect class="cls-30" x="2357.81" y="999.18" width="9.32" height="75.1"/><path class="cls-31" d="M2362.47,998.2a36.24,36.24,0,0,1-30,9.59c-16.49-2.39-29.08-15.78-32.26-32.36-13.76-1.76-24.44-14.34-24.44-29.62a30.2,30.2,0,0,1,14.47-26.19,31.37,31.37,0,0,1-4.07-15.56c0-16.48,12.41-29.83,27.74-29.83a26,26,0,0,1,11.81,2.83c5.21-16,19.35-27.44,36-27.44h1.58c16.64,0,30.79,11.46,36,27.44a26,26,0,0,1,11.8-2.83c15.32,0,27.74,13.35,27.74,29.83a31.36,31.36,0,0,1-4.07,15.56,30.17,30.17,0,0,1,14.47,26.19c0,15.27-10.68,27.86-24.44,29.62-3.18,16.58-15.77,30-32.26,32.36a36.25,36.25,0,0,1-30-9.59"/><rect class="cls-32" x="-0.5" y="1128.03" width="406.23" height="31.42"/><rect class="cls-33" x="405.73" y="1128.03" width="110.88" height="31.42"/><rect class="cls-32" x="516.62" y="1128.03" width="110.89" height="31.42"/><rect class="cls-33" x="627.5" y="1128.03" width="110.89" height="31.42"/><rect class="cls-32" x="738.39" y="1128.03" width="110.89" height="31.42"/><rect class="cls-33" x="849.28" y="1128.03" width="110.88" height="31.42"/><rect class="cls-32" x="960.16" y="1128.03" width="110.89" height="31.42"/><rect class="cls-33" x="1071.05" y="1128.03" width="110.89" height="31.42"/><rect class="cls-32" x="1181.94" y="1128.03" width="110.89" height="31.42"/><rect class="cls-33" x="1292.82" y="1128.03" width="110.89" height="31.42"/><rect class="cls-32" x="1403.71" y="1128.03" width="110.89" height="31.42"/><rect class="cls-33" x="1514.6" y="1128.03" width="110.89" height="31.42"/><rect class="cls-32" x="1625.49" y="1128.03" width="110.88" height="31.42"/><rect class="cls-33" x="1736.37" y="1128.03" width="110.88" height="31.42"/><rect class="cls-32" x="1847.25" y="1128.03" width="110.89" height="31.42"/><rect class="cls-33" x="1958.14" y="1128.03" width="110.88" height="31.42"/><rect class="cls-32" x="2069.02" y="1128.03" width="110.9" height="31.42"/><rect class="cls-33" x="2179.92" y="1128.03" width="320.08" height="31.42"/><path class="cls-31" d="M1899.38,727.66c-14.05-29.86,10.56-43.33,26.35-44.51-15.23-49.77,22.26-56.21,35.71-56.21-18.4-45.72,24-61.88,29.68-59.85,6.83-1.84,51.6,14.12,33.19,59.85,13.49,0,51,6.43,35.71,56.21,15.81,1.18,40.42,14.64,26.37,44.51,14.65,5.26,64.39,35.12,31,94.26-28.68,34-76.12,13.47-76.12,13.47s-19.43,19-37.41,23.16l-16.39.75c-19.26-.73-43-23.91-43-23.91s-47.41,20.5-76.12-13.47c-33.36-59.14,16.38-89,31-94.26"/><polyline class="cls-34" points="2003.89 858.56 1994.39 858.99 1994.39 859 2003.89 858.56"/><path class="cls-35" d="M1992.45,567a5.22,5.22,0,0,0-1.33.14l3.27,291.9,9.5-.44c18-4.19,37.41-23.16,37.41-23.16a88.74,88.74,0,0,0,31.74,6.13c14.54,0,31.39-4.21,44.38-19.6,8.08-14.32,11.29-26.93,11.3-37.89,0-34.28-31.22-52.4-42.33-56.38h0c2.92-6.21,4.17-11.71,4.18-16.54,0-18.39-18-27-30.54-28h0a72.89,72.89,0,0,0,3.58-21.16c0-30.55-28-35-39.3-35h0a55.23,55.23,0,0,0,4.41-20.66A36.57,36.57,0,0,0,2022.8,586h0a39.34,39.34,0,0,0-4.47-5.64c-8.89-9.33-21-13.38-25.88-13.38"/><rect class="cls-32" x="1985.03" y="858.9" width="15.72" height="121.14"/><path class="cls-31" d="M612.21,1017.28c-5.68-12.06,4.27-17.5,10.65-18-6.15-20.11,9-22.71,14.43-22.71-7.43-18.47,9.7-25,12-24.18,2.76-.75,20.84,5.7,13.41,24.18,5.45,0,20.58,2.6,14.43,22.71,6.39.48,16.33,5.92,10.65,18,5.92,2.12,26,14.19,12.54,38.08-11.59,13.72-30.75,5.44-30.75,5.44s-7.85,7.67-15.11,9.36l-6.62.3c-7.78-.29-17.38-9.66-17.38-9.66s-19.15,8.28-30.75-5.44c-13.48-23.89,6.62-36,12.54-38.08"/><path class="cls-36" d="M688.6,1006.48h0a10,10,0,0,1,.85,4.08,10,10,0,0,0-.85-4.08"/><path class="cls-35" d="M649.81,952.36a2.11,2.11,0,0,0-.54.06l1.32,117.92,3.84-.18c7.26-1.69,15.11-9.36,15.11-9.36a35.85,35.85,0,0,0,12.82,2.48c5.87,0,12.68-1.7,17.93-7.92,3.26-5.79,4.56-10.88,4.56-15.3,0-13.85-12.61-21.17-17.1-22.77h0a15.78,15.78,0,0,0,1.69-6.71,10,10,0,0,0-.85-4.08c-2.06-4.63-7.48-6.89-11.49-7.18h0a29.45,29.45,0,0,0,1.45-8.55,14.5,14.5,0,0,0-1.59-7c-3.28-6.1-10.78-7.17-14.28-7.17h0a22.31,22.31,0,0,0,1.78-8.34,14.9,14.9,0,0,0-1.59-6.81c-3.24-6.4-10.54-9.08-13.07-9.08"/><rect class="cls-32" x="646.81" y="1070.29" width="6.35" height="48.94"/><path class="cls-37" d="M4.48-5.29,1.36,388.49,312.4,342a1174.89,1174.89,0,0,1,341.45-1l235.78,33.91a710.63,710.63,0,0,0,105.74,7.24l402-38.75a930,930,0,0,1,152-2.18l427.94,28.94A996.24,996.24,0,0,0,2132,368.6l351.38-30.94c10.08-.89,17.83-10.38,17.76-21.75l-2-321.19Z"/><path class="cls-31" d="M1035,945.53c-8-17.09,6-24.79,15.08-25.46-8.71-28.48,12.73-32.16,20.43-32.16-10.52-26.16,13.73-35.4,17-34.24,3.91-1.06,29.52,8.08,19,34.24,7.72,0,29.15,3.68,20.43,32.16,9,.67,23.12,8.38,15.08,25.46,8.38,3,36.84,20.09,17.75,53.93-16.41,19.44-43.55,7.71-43.55,7.71s-11.12,10.86-21.4,13.25l-9.38.43c-11-.41-24.62-13.68-24.62-13.68s-27.13,11.73-43.55-7.71c-19.09-33.84,9.37-50.92,17.75-53.93"/><polyline class="cls-36" points="1094.84 1020.42 1089.4 1020.67 1089.4 1020.67 1094.84 1020.42"/><path class="cls-35" d="M1088.29,853.59a3,3,0,0,0-.76.08l1.87,167,5.44-.25c10.29-2.4,21.4-13.25,21.4-13.25a50.77,50.77,0,0,0,18.16,3.51c8.32,0,18-2.41,25.39-11.21,4.62-8.19,6.46-15.41,6.46-21.67,0-19.61-17.86-30-24.22-32.25h0a22.38,22.38,0,0,0,2.39-9.47c0-10.52-10.31-15.46-17.47-16h0A41.71,41.71,0,0,0,1129,908c0-17.48-16-20.05-22.48-20.05h0a31.6,31.6,0,0,0,2.52-11.82c0-16.08-16.09-22.5-20.75-22.5"/><rect class="cls-32" x="1084.05" y="1020.62" width="8.99" height="69.31"/><path class="cls-31" d="M62.91,1117.15A24.4,24.4,0,0,1,59.75,1105c0-12.81,9.66-23.2,21.58-23.2a20.28,20.28,0,0,1,9.18,2.2c4.05-12.43,15.07-21.34,28-21.34h1.23c12.95,0,24,8.91,28,21.34a20.29,20.29,0,0,1,9.19-2.2c11.92,0,21.58,10.39,21.58,23.2a24.33,24.33,0,0,1-3.17,12.11Z"/><path class="cls-28" d="M766.14,1015.2a18,18,0,0,1-2.34-8.93c0-9.45,7.12-17.11,15.91-17.11a15,15,0,0,1,6.78,1.62c3-9.17,11.11-15.73,20.66-15.73H808c9.55,0,17.66,6.57,20.65,15.73a15,15,0,0,1,6.78-1.62c8.79,0,15.91,7.66,15.91,17.11a17.94,17.94,0,0,1-2.34,8.93Z"/><path class="cls-31" d="M2073.19,1007.37s-5.29-28,39.08-24.29c4.22-6.86,30.08-17.15,39.07,7.21,10.56-.31,24.61.86,24.61,17.08Z"/><rect class="cls-32" x="866.12" y="1049.54" width="8.55" height="25.42"/><rect class="cls-32" x="807.59" y="1049.54" width="8.55" height="25.42"/><rect class="cls-33" x="777.64" y="1035.79" width="126.98" height="18.31"/><rect class="cls-32" x="119.14" y="1004.91" width="8.55" height="25.42"/><rect class="cls-32" x="60.61" y="1004.91" width="8.55" height="25.42"/><rect class="cls-33" x="30.66" y="991.16" width="126.98" height="18.31"/><rect class="cls-32" x="2097.98" y="1049.43" width="8.56" height="25.42"/><rect class="cls-32" x="2039.45" y="1049.43" width="8.55" height="25.42"/><rect class="cls-33" x="2009.51" y="1035.68" width="126.98" height="18.31"/><rect class="cls-38" x="-0.5" y="1159.45" width="2500.5" height="240.55"/><rect class="cls-39" x="94.15" y="1260.47" width="293.67" height="18.96"/><rect class="cls-39" x="587.82" y="1260.47" width="293.67" height="18.96"/><rect class="cls-39" x="1081.49" y="1260.47" width="293.67" height="18.96"/><rect class="cls-39" x="1575.15" y="1260.47" width="293.67" height="18.96"/><rect class="cls-39" x="2068.82" y="1260.47" width="293.67" height="18.96"/><polygon class="cls-25" points="1742.76 409.33 1811.11 275.08 1879.46 409.33 1742.76 409.33"/><circle class="cls-12" cx="1810.86" cy="366.45" r="33.33"/><path class="cls-14" d="M1794.68,379.3l16.18-10c.76-.47,1.76-.24,15.88,22.52l-13.65-22c14.12,22.75,13.89,23.75,13.13,24.22a1.62,1.62,0,0,1-2.23-.52l-12.8-20.62-14.8,9.19a1.62,1.62,0,0,1-1.71-2.75Z"/></g><g id="Layer_3" data-name="Layer 3"><path class="cls-40" d="M2083.17,1235h-818a11.68,11.68,0,0,1-10.5-16.8l22.16-45.43a11.68,11.68,0,0,1,10.5-6.56H2061a11.68,11.68,0,0,1,10.5,6.56l22.16,45.43A11.68,11.68,0,0,1,2083.17,1235Z"/></g><g id="lamppost_and_chargwr" data-name="lamppost and chargwr"><path class="cls-41" d="M2116.27,941.92h0a4.73,4.73,0,0,0-4.73,4.73v27a4.73,4.73,0,0,1-4.73,4.73H2104a4.73,4.73,0,0,1-4.73-4.73v-27a4.73,4.73,0,0,0-4.73-4.73h-12.27a4.73,4.73,0,0,0-4.73,4.73v148.81a4.73,4.73,0,0,0,4.73,4.73h12.27a4.73,4.73,0,0,0,4.73-4.73v-20a4.73,4.73,0,0,1,4.73-4.73h2.8a4.73,4.73,0,0,1,4.73,4.73v20a4.73,4.73,0,0,0,4.73,4.73h0a4.73,4.73,0,0,0,4.73-4.73V946.66A4.73,4.73,0,0,0,2116.27,941.92Z"/><path class="cls-14" d="M2053.41,895a6.79,6.79,0,0,0,.44-1.52V684.65c0-4.23-5-7.71-11.18-7.71s-11.14,3.48-11.14,7.71l.41,210.35c0,.51-.14-.54,0,0l-38.63,44.27v169.54H2092V939.27Z"/><polygon class="cls-11" points="1995.02 564.74 2011.64 684.65 2073.7 684.65 2090.32 564.74 1995.02 564.74"/><circle cx="2042.67" cy="944.18" r="23"/><path class="cls-42" d="M2043.45,997.47s-11.22,126,49.49,111.34c29,0,7.23-135.16,7.23-135.16v101.86l4.73-97.13,2.8,92.4,4.73-97.13v101.86"/><path class="cls-43" d="M2020.6,959.9l-1.89,31.74,13,26V1035h21v-17.42l13.93-26-1.95-30.42C2050.88,965.21,2036.17,965.72,2020.6,959.9Z"/><path class="cls-44" d="M2064.69,961.21l-1.09-17-42.08.18-.93,15.54C2036.06,969.76,2050.78,969.05,2064.69,961.21Z"/><path class="cls-1" d="M1294.34,941.79a1.5,1.5,0,0,0-1.17-.56h-13.47a1.51,1.51,0,0,0-1.17.56l-2.13,2.63h20.07Z"/><path class="cls-16" d="M1271.1,956.78l.54,3.66a1,1,0,0,0,1,.69h3.53a1,1,0,0,0,1-.69l.43-2.91q-3.18-.27-6.36-.72Z"/><circle class="cls-45" cx="2043.65" cy="944.98" r="28.67"/><path class="cls-46" d="M2057.17,947.58c10.37-10.37-11.14-29.74-18.81-22.07"/><path class="cls-1" d="M2051.55,945.35a1.5,1.5,0,0,0-1.17-.56h-13.47a1.51,1.51,0,0,0-1.17.56l-2.13,2.63h20.07Z"/><path class="cls-16" d="M2028.31,960.35l.54,3.66a1,1,0,0,0,1,.69h3.53a1,1,0,0,0,1-.69l.43-2.91q-3.18-.27-6.36-.72Z"/><path class="cls-16" d="M2052.48,961.1l.43,2.91a1,1,0,0,0,1,.69h3.53a1,1,0,0,0,1-.69l.54-3.66-.15,0Q2055.66,960.83,2052.48,961.1Z"/><path class="cls-16" d="M2061.1,947l-.93-.32a.91.91,0,0,0-.61,0l-2.39.86-3.94-4.88a1.82,1.82,0,0,0-1.42-.68h-16.32a1.83,1.83,0,0,0-1.42.68l-3.94,4.87-2.39-.86a.91.91,0,0,0-.61,0l-.93.32a.92.92,0,0,0-.62.87.62.62,0,0,0,.27.51l1.11.77a.92.92,0,0,0,.52.16h.76a18.63,18.63,0,0,0-1.32,9.44,1.82,1.82,0,0,0,1.39,1.56l.15,0q3.18.46,6.36.72a106.06,106.06,0,0,0,17.66,0q3.18-.27,6.36-.72l.15,0a1.83,1.83,0,0,0,1.39-1.56,18.63,18.63,0,0,0-1.32-9.44h.76a.91.91,0,0,0,.52-.16l1.11-.77a.62.62,0,0,0,.27-.51A.91.91,0,0,0,2061.1,947Zm-27.49.95,2.13-2.63a1.51,1.51,0,0,1,1.17-.56h13.47a1.5,1.5,0,0,1,1.17.56l2.13,2.64Z"/><path class="cls-16" d="M2055.79,953.52V954c0,.32-.51.57-1.14.57h-2.57c-.51,0-.71-.33-.29-.47l2.71-.91C2055.06,953,2055.79,953.19,2055.79,953.52Z"/><path class="cls-16" d="M2032.78,953.18l2.71.91c.42.14.22.47-.28.47h-2.58c-.63,0-1.14-.25-1.14-.57v-.47C2031.5,953.19,2032.23,953,2032.78,953.18Z"/><path class="cls-19" d="M2040.29,927.61l-3.56-3.88c-.71-.77-5.77,2.72-6.54,3.42l-.69.64-.32-.34a.37.37,0,0,0-.52,0L2027,929a.37.37,0,0,0,0,.52l1,1.12L2026,932.4a.17.17,0,0,0,0,.23l.69.76a.17.17,0,0,0,.23,0l1.93-1.77,2.87,3.13-1.93,1.77a.17.17,0,0,0,0,.23l.69.76a.17.17,0,0,0,.23,0l1.95-1.79,1,1.12a.37.37,0,0,0,.52,0l1.69-1.55a.37.37,0,0,0,0-.52l-.32-.34.69-.64C2037.09,933.13,2041,928.38,2040.29,927.61Z"/><path class="cls-41" d="M367.34,937.47h0a4.73,4.73,0,0,0-4.73,4.73v27a4.73,4.73,0,0,1-4.73,4.73h-2.8a4.73,4.73,0,0,1-4.73-4.73v-27a4.73,4.73,0,0,0-4.73-4.73H333.34a4.73,4.73,0,0,0-4.73,4.73V1091a4.73,4.73,0,0,0,4.73,4.73h12.27a4.73,4.73,0,0,0,4.73-4.73v-20a4.73,4.73,0,0,1,4.73-4.73h2.8a4.73,4.73,0,0,1,4.73,4.73v20a4.73,4.73,0,0,0,4.73,4.73h0a4.73,4.73,0,0,0,4.73-4.73V942.21A4.73,4.73,0,0,0,367.34,937.47Z"/><path class="cls-14" d="M304.48,890.54a6.79,6.79,0,0,0,.44-1.52V680.2c0-4.23-5-7.71-11.18-7.71S282.6,676,282.6,680.2L283,890.54c0,.51-.14-.54,0,0l-38.63,44.27v169.54h98.74V934.82Z"/><polygon class="cls-11" points="246.09 560.29 262.71 680.2 324.77 680.2 341.39 560.29 246.09 560.29"/><path class="cls-42" d="M293.62,993s-11.22,126,49.49,111.34c29,0,7.23-135.16,7.23-135.16v101.86l4.73-97.13,2.8,92.4,4.73-97.13v101.86"/><path class="cls-43" d="M271.67,955.45l-1.89,31.74,13,26v17.42h21v-17.42l13.93-26-1.95-30.42C301.95,960.76,287.24,961.27,271.67,955.45Z"/><path class="cls-44" d="M315.76,956.76l-1.09-17-42.08.18-.93,15.54C287.13,965.31,301.85,964.6,315.76,956.76Z"/><circle class="cls-45" cx="293.74" cy="936.96" r="28.67"/><path class="cls-46" d="M307.26,939.56c10.37-10.37-11.14-29.74-18.81-22.07"/><path class="cls-16" d="M278.4,952.33l.54,3.66a1,1,0,0,0,1,.69h3.53a1,1,0,0,0,1-.69l.43-2.91q-3.18-.27-6.36-.72Z"/><path class="cls-16" d="M302.57,953.08,303,956a1,1,0,0,0,1,.69h3.53a1,1,0,0,0,1-.69l.54-3.66-.15,0Q305.75,952.81,302.57,953.08Z"/><path class="cls-16" d="M311.2,939l-.93-.32a.91.91,0,0,0-.61,0l-2.39.86-3.94-4.88a1.82,1.82,0,0,0-1.42-.68H285.58a1.83,1.83,0,0,0-1.42.68l-3.94,4.87-2.39-.86a.91.91,0,0,0-.61,0l-.93.32a.92.92,0,0,0-.62.87.62.62,0,0,0,.27.51l1.11.77a.92.92,0,0,0,.52.16h.76a18.63,18.63,0,0,0-1.32,9.44,1.82,1.82,0,0,0,1.39,1.56l.15,0q3.18.46,6.36.72a106.06,106.06,0,0,0,17.66,0q3.18-.27,6.36-.72l.15,0a1.83,1.83,0,0,0,1.39-1.56,18.63,18.63,0,0,0-1.32-9.44h.76a.91.91,0,0,0,.52-.16l1.11-.77a.62.62,0,0,0,.27-.51A.91.91,0,0,0,311.2,939Zm-27.49.95,2.13-2.63a1.51,1.51,0,0,1,1.17-.56h13.47a1.5,1.5,0,0,1,1.17.56l2.13,2.64Z"/><path class="cls-16" d="M305.89,945.51V946c0,.31-.51.57-1.14.57h-2.57c-.51,0-.71-.33-.29-.47l2.71-.91C305.15,945,305.89,945.18,305.89,945.51Z"/><path class="cls-16" d="M282.88,945.16l2.71.91c.42.14.22.47-.29.47h-2.57c-.63,0-1.14-.25-1.14-.57v-.47C281.59,945.18,282.33,945,282.88,945.16Z"/><path class="cls-19" d="M290.38,919.59l-3.56-3.88c-.71-.77-5.77,2.72-6.54,3.42l-.69.64-.32-.34a.37.37,0,0,0-.52,0L277.07,921a.37.37,0,0,0,0,.52l1,1.12-1.95,1.79a.17.17,0,0,0,0,.23l.69.76a.17.17,0,0,0,.23,0l1.93-1.77,2.87,3.13-1.93,1.77a.17.17,0,0,0,0,.23l.69.76a.17.17,0,0,0,.23,0l1.95-1.79,1,1.12a.37.37,0,0,0,.52,0l1.69-1.55a.37.37,0,0,0,0-.52l-.32-.34.69-.64C287.18,925.11,291.09,920.36,290.38,919.59Z"/><polyline class="cls-36" points="1530.43 1063.82 1526.59 1064 1526.59 1064 1530.43 1063.82"/><polygon points="2023.68 1182.36 2060.09 1182.36 2071.67 1136.27 2023.68 1136.27 2023.68 1182.36"/><path class="cls-47" d="M2049.84,1154.2c-3.73,5.71-8.2,21.33-2,21.33h20.07c4.72,0,4.47,7.21,1,13.89s-7.93,7-15.62,7H1471.15c-26,0-103.29-20.27-113-20.27h-58.54c-8.44,0-24.65-6.6-30.94-25.95-.34-1.07-.67-2.13-1-3.17-5.2-17.76-4.4-30.9-3.31-34,1.15-3.32,8.94-4.31,8.94-13.55,0-.49,0-1.1.05-1.81.13-3.12.56-8.26,1.14-14.33.24-2.35.49-4.85.75-7.43.37-3.73,2.42-7.07,2.83-11,.78-7,0-14.53.66-20.29.75-6.25,1.36-11.06,1.67-13,.44-2.78.57-6.39,1.68-9.81,1.82-5.67,6.28-10.86,19-10.86,20.35,0,46.14.67,56.39-2.14,6.6-1.81,43.72-19.41,74.69-33.83,17.11-8,32.35-15,39.53-17.79,20.17-7.95,58.26-8.48,76-8.48l99.72.05c16.53,0,54.23-2.31,95.57,20.84s95.5,62.89,112.07,67.34c7,1.88,25,3.15,46.46,5q5.28.44,10.76,1c26.65,2.46,56.53,6,77.11,12.69,22.68,7.38,44,14.35,59.55,24.33,1.69,1.07,3.52,2.34,5.42,3.77a53,53,0,0,1,13,13.92,40.71,40.71,0,0,1,5.34,13.4c.42,2,.82,4,1.15,5.77,4.73,25,1.72,28.13-4.46,29.08-1.94.3-4.11.66-6.29,1.16C2057.8,1148.17,2052.46,1150.18,2049.84,1154.2Z"/><path class="cls-48" d="M1274.48,1083.25h33a13.08,13.08,0,0,0,13.08-13.08v-35.32a13.08,13.08,0,0,0-13.08-13.08h-25.4c-1.11,3.43-1.25,7-1.69,9.82-.3,1.92-.91,6.73-1.67,13-.69,5.75.12,13.26-.65,20.28-.42,3.89-2.46,7.24-2.84,11C1275,1078.4,1274.72,1080.91,1274.48,1083.25Z"/><path class="cls-49" d="M1263.87,1127.34a104.72,104.72,0,0,0,4.78,22.82,41.26,41.26,0,0,0,5.93,11.71c7.62,10.4,18.57,14.25,25,14.25h58.54c9.74,0,87,20.26,113,20.26h582.16c7.68,0,12.14-.24,15.62-6.95s3.73-13.89-1-13.89h-20.08c-4.23,0-3.51-7.24-1.43-13.67a33.25,33.25,0,0,1,3.41-7.66c3.71-5.7,12.9-7.34,19.51-8.37,5.16-.81,8.12-3.16,6.17-18.49Z"/><g class="cls-50"><path class="cls-51" d="M1436.51,1032.88c-4.12,5.33-5.72,17.31-3.35,25.13,1.8,5.93,11.15,15,24.1,27.5,4.35,4.21,9.28,9,14.42,14.11,17.41,17.4,27.17,45.82,31.34,57.95.76,2.21,1.36,4,1.8,5.06,3,7.42,6.63,8.94,11.21,8.94h125c-.06-70.22-7.85-124.6-7.93-125.14l1.47-.21c.08.54,7.89,55,7.94,125.35h184.8a7.11,7.11,0,0,0,7-5.2c.72-3,6.69-46.15,8.17-68.83,1.44-22.1-.9-29.24-13.15-40.24-12-10.74-57.47-38.33-57.93-38.61l.77-1.28c.46.28,46.09,27.94,58.16,38.78,12.69,11.4,15.11,18.76,13.64,41.45s-7.47,66.08-8.21,69.09a8.61,8.61,0,0,1-8.41,6.34H1516c-6.14,0-9.79-2.86-12.6-9.87-.45-1.14-1.06-2.9-1.83-5.13-4.13-12-13.82-40.22-31-57.38-5.13-5.13-10.06-9.89-14.41-14.09-13.11-12.68-22.58-21.83-24.49-28.14-2.53-8.35-.85-20.71,3.6-26.47Z"/><path class="cls-52" d="M1342,1058.22a13.64,13.64,0,1,0,13.64-13.64A13.66,13.66,0,0,0,1342,1058.22Zm1.49,0a12.15,12.15,0,1,1,12.15,12.15A12.17,12.17,0,0,1,1343.48,1058.22Z"/></g><path class="cls-53" d="M1449.57,1050.6h339.33c9.27,0,12.9-6,12.24-10.24s-39.37-35.06-65.82-50.6c-2.86-1.69-5.75-3.29-8.73-4.8v0h0a218.73,218.73,0,0,0-48.88-18.32c-3.35-.77-6.49-1.37-9.29-1.77a53,53,0,0,0-7.16-.58h-126c-29.11,0-98.72,37-109.3,52.27C1418.83,1026.75,1441.29,1050.6,1449.57,1050.6Z"/><path class="cls-47" d="M1654.52,1050.61h-35.66l-10.25-86.32h19.2Z"/><path class="cls-53" d="M1855,1036.91c-6.81,1.76-12.18,3.7-16,3.7-6.7,0-12.9-1.74-15.13-3.47s-81.36-57.05-88.55-61.76-3.47-9.43,0-9.43h.71c2.29,1.14,4.59,2.34,6.9,3.64,41.34,23.15,95.5,62.88,112.08,67.32Z"/><path class="cls-53" d="M1470.44,957.65c1.22,1.34,1.06,3.5-1.86,5.81-4.79,3.8-70.44,35.88-78.22,39.85-7.4,3.78-16.79,4.1-29.22,4.13C1380,1000,1450.11,965.91,1470.44,957.65Z"/><path class="cls-54" d="M1998.41,1099.5c11.41,8.69,31.29,13.81,48.9,15.76,11.33,1.27,20.8,2.52,26.51,1.49-.34-1.81-.73-3.71-1.15-5.75-2.34-11.33-8.93-20.08-18.38-27.32-1.9-1.43-3.73-2.7-5.42-3.77a32.69,32.69,0,0,0-4.5-2.44c-10.76-4.56-42.45-9.33-56.06-11.41C1964.33,1062.39,1987,1090.81,1998.41,1099.5Z"/><path class="cls-55" d="M1989.32,1072.11c10.37,1.58,34.48,5.21,42.66,8.68s28,21.66,26.79,26.71-11.16,3.56-24.56,2.07-28.53-5.38-37.21-12S1971.09,1069.33,1989.32,1072.11Z"/><path class="cls-18" d="M1314.13,1039.12v26.79a9.92,9.92,0,0,1-9.92,9.92h-27.62c1.09-10.51,1.07-22.35,2.14-31.26.75-6.25,1.37-11.06,1.66-13,.12-.75.21-1.55.31-2.4h23.5A9.92,9.92,0,0,1,1314.13,1039.12Z"/><path class="cls-56" d="M1314.13,1065.91a9.92,9.92,0,0,1-9.92,9.92h-29c1.09-10.52,2.43-22.34,3.5-31.25h35.4Z"/><path class="cls-49" d="M1274.58,1161.87c7.62,10.4,18.57,14.25,25,14.25h58.54c9.74,0,87,20.26,113,20.26h582.16c7.68,0,12.14-.24,15.62-6.95s3.73-13.89-1-13.89h-20.08c-4.23,0-3.51-7.24-1.43-13.67Z"/><path d="M1350.19,1166.53a69,69,0,0,1,137.91,0v29.85h-16.95c-26,0-103.28-20.26-113-20.26h-7.93Z"/><path class="cls-54" d="M1848,1170.3v26.07h164.47V1170.3a82.23,82.23,0,0,0-164.47,0Z"/><path class="cls-54" d="M1457.48,1097.58H1380.8a82,82,0,0,1,76.67,0Z"/><path class="cls-54" d="M1501.38,1170.3v26.08h-30.23c-26,0-103.28-20.26-113-20.26h-21.21v-5.82a81.79,81.79,0,0,1,3.37-23.31H1498A81.79,81.79,0,0,1,1501.38,1170.3Z"/><path d="M1999.25,1166.53v29.86H1861.32v-29.86a68.68,68.68,0,0,1,2.83-19.55h132.27A68.68,68.68,0,0,1,1999.25,1166.53Z"/><path class="cls-57" d="M1930.54,1203.65a36,36,0,1,1,36-36A36,36,0,0,1,1930.54,1203.65Z"/><path class="cls-58" d="M1893.52,1175.25a37.5,37.5,0,0,0,4.88,12.27l4.85-2.57,19.07-10.06a11.67,11.67,0,0,0,5.34,3.67l-2.79,20.91-.72,5.44a37.49,37.49,0,0,0,6.4.55,38,38,0,0,0,6.66-.6l-.49-5.48-1.87-20.73a11.72,11.72,0,0,0,5.53-3.66l17.82,9.4L1963,1187a37.58,37.58,0,0,0,4.6-12.07l-5.31-1.44-19.2-5.17c0-.28,0-.57,0-.86a11.71,11.71,0,0,0-2.54-7.29l12.1-15.9,3.34-4.39a38.14,38.14,0,0,0-11-7l-2.27,5-8.34,18.26a11.32,11.32,0,0,0-3.1-.43,11.65,11.65,0,0,0-4,.7l-9.81-18.24-2.61-4.84a37.74,37.74,0,0,0-10.88,7.45l3.6,4.14,13.91,16a11.72,11.72,0,0,0-2,6.57c0,.27,0,.53,0,.8l-20.83,5.61Z"/><path class="cls-59" d="M1898.82,1173.82a32,32,0,0,0,4.43,11.14l19.07-10.06a11.67,11.67,0,0,0,5.34,3.67l-2.79,20.91a32,32,0,0,0,5.68.51,31.41,31.41,0,0,0,6.17-.6l-1.87-20.73a11.72,11.72,0,0,0,5.53-3.66l17.82,9.4a31.91,31.91,0,0,0,4.14-11l-19.2-5.17c0-.28,0-.57,0-.86a11.71,11.71,0,0,0-2.54-7.29l12.1-15.9a32.32,32.32,0,0,0-9.89-6.41l-8.34,18.26a11.32,11.32,0,0,0-3.1-.43,11.65,11.65,0,0,0-4,.7l-9.81-18.24a32.43,32.43,0,0,0-9.88,6.74l13.91,16a11.72,11.72,0,0,0-2,6.57c0,.27,0,.53,0,.8Z"/><circle class="cls-49" cx="1931.02" cy="1167.43" r="7.75"/><circle class="cls-60" cx="1931.02" cy="1161.61" r="2.28"/><circle class="cls-60" cx="1931.02" cy="1173.25" r="2.28"/><circle class="cls-60" cx="1936.84" cy="1167.43" r="2.28"/><circle class="cls-60" cx="1925.2" cy="1167.43" r="2.28"/><path class="cls-60" d="M1870,1167.69a60.5,60.5,0,1,0,60.51-60.51A60.5,60.5,0,0,0,1870,1167.69Zm21.78,0a38.72,38.72,0,1,1,38.73,38.72A38.72,38.72,0,0,1,1891.82,1167.69Z"/><g class="cls-61"><path class="cls-62" d="M1883.73,1167.69a46.81,46.81,0,1,0,46.81-46.81A46.81,46.81,0,0,0,1883.73,1167.69Zm8.08,0a38.72,38.72,0,1,1,38.73,38.72A38.72,38.72,0,0,1,1891.82,1167.69Z"/></g><path class="cls-63" d="M1888.21,1167.69a42.33,42.33,0,1,0,42.33-42.33A42.33,42.33,0,0,0,1888.21,1167.69Zm6.37,0a36,36,0,1,1,36,36A36,36,0,0,1,1894.58,1167.69Z"/><path class="cls-49" d="M1891.26,1167.69a39.28,39.28,0,1,0,39.29-39.29A39.29,39.29,0,0,0,1891.26,1167.69Zm3.32,0a36,36,0,1,1,36,36A36,36,0,0,1,1894.58,1167.69Z"/><path class="cls-57" d="M1419.15,1203.65a36,36,0,1,1,36-36A36,36,0,0,1,1419.15,1203.65Z"/><path class="cls-58" d="M1382.13,1175.25a37.5,37.5,0,0,0,4.88,12.27l4.85-2.57,19.07-10.06a11.67,11.67,0,0,0,5.34,3.67l-2.79,20.91-.72,5.44a37.5,37.5,0,0,0,6.4.55,38,38,0,0,0,6.66-.6l-.49-5.48-1.87-20.73A11.72,11.72,0,0,0,1429,1175l17.82,9.4,4.84,2.55a37.58,37.58,0,0,0,4.6-12.07l-5.31-1.44-19.2-5.17c0-.28,0-.57,0-.86a11.71,11.71,0,0,0-2.54-7.29l12.1-15.9,3.34-4.39a38.14,38.14,0,0,0-11-7l-2.27,5-8.34,18.26a11.32,11.32,0,0,0-3.1-.43,11.65,11.65,0,0,0-4,.7l-9.81-18.24-2.61-4.84a37.74,37.74,0,0,0-10.88,7.45l3.6,4.14,13.91,16a11.72,11.72,0,0,0-2,6.57c0,.27,0,.53,0,.8l-20.83,5.61Z"/><path class="cls-59" d="M1387.43,1173.82a32,32,0,0,0,4.43,11.14l19.07-10.06a11.67,11.67,0,0,0,5.34,3.67l-2.79,20.91a32,32,0,0,0,5.68.51,31.41,31.41,0,0,0,6.17-.6l-1.87-20.73A11.72,11.72,0,0,0,1429,1175l17.82,9.4a31.91,31.91,0,0,0,4.13-11l-19.2-5.17c0-.28,0-.57,0-.86a11.71,11.71,0,0,0-2.54-7.29l12.1-15.9a32.32,32.32,0,0,0-9.89-6.41l-8.34,18.26a11.32,11.32,0,0,0-3.1-.43,11.65,11.65,0,0,0-4,.7l-9.81-18.24a32.43,32.43,0,0,0-9.88,6.74l13.91,16a11.72,11.72,0,0,0-2,6.57c0,.27,0,.53,0,.8Z"/><circle class="cls-49" cx="1419.63" cy="1167.43" r="7.75"/><circle class="cls-60" cx="1419.63" cy="1161.61" r="2.28"/><circle class="cls-60" cx="1419.63" cy="1173.25" r="2.28"/><circle class="cls-60" cx="1425.45" cy="1167.43" r="2.28"/><circle class="cls-60" cx="1413.81" cy="1167.43" r="2.28"/><path class="cls-60" d="M1358.65,1167.69a60.5,60.5,0,1,0,60.51-60.51A60.5,60.5,0,0,0,1358.65,1167.69Zm21.78,0a38.72,38.72,0,1,1,38.73,38.72A38.72,38.72,0,0,1,1380.43,1167.69Z"/><g class="cls-61"><path class="cls-62" d="M1372.34,1167.69a46.81,46.81,0,1,0,46.81-46.81A46.81,46.81,0,0,0,1372.34,1167.69Zm8.08,0a38.72,38.72,0,1,1,38.73,38.72A38.72,38.72,0,0,1,1380.43,1167.69Z"/></g><path class="cls-63" d="M1376.82,1167.69a42.33,42.33,0,1,0,42.33-42.33A42.33,42.33,0,0,0,1376.82,1167.69Zm6.37,0a36,36,0,1,1,36,36A36,36,0,0,1,1383.19,1167.69Z"/><path class="cls-49" d="M1379.87,1167.69a39.28,39.28,0,1,0,39.29-39.29A39.29,39.29,0,0,0,1379.87,1167.69Zm3.32,0a36,36,0,1,1,36,36A36,36,0,0,1,1383.19,1167.69Z"/><path class="cls-64" d="M1273.35,1097.58H1380.8a82.55,82.55,0,0,0-40.52,49.4h-72.63c-5.2-17.76-4.4-30.9-3.31-34,1.15-3.32,8.94-4.31,8.94-13.55C1273.29,1098.9,1273.31,1098.29,1273.35,1097.58Z"/><path class="cls-64" d="M1930.28,1097.58a69.08,69.08,0,0,0-66.13,49.4H1498a82.57,82.57,0,0,0-40.53-49.4"/><path class="cls-64" d="M2070.43,1103.7l.19.47Z"/><path class="cls-64" d="M2071.71,1107.29l.07.24Z"/><path class="cls-64" d="M2067.35,1097.64l0-.06h0Z"/><path class="cls-64" d="M2068.9,1100.4l.23.43Z"/><path class="cls-64" d="M2073.8,1116.74c-5.72,1-15.18-.22-26.5-1.49-17.6-1.94-37.49-7.06-48.9-15.76-.74-.56-1.52-1.21-2.34-1.92h-65.78a69.08,69.08,0,0,1,66.13,49.4h66.63c2.18-.5,4.35-.86,6.29-1.16C2075.52,1144.87,2078.54,1141.69,2073.8,1116.74Z"/><path class="cls-41" d="M1237.4,935.6h0a4.73,4.73,0,0,0-4.73,4.73v27a4.73,4.73,0,0,1-4.73,4.73h-2.8a4.73,4.73,0,0,1-4.73-4.73v-27a4.73,4.73,0,0,0-4.73-4.73H1203.4a4.73,4.73,0,0,0-4.73,4.73v148.81a4.73,4.73,0,0,0,4.73,4.73h12.27a4.73,4.73,0,0,0,4.73-4.73v-20a4.73,4.73,0,0,1,4.73-4.73h2.8a4.73,4.73,0,0,1,4.73,4.73v20a4.73,4.73,0,0,0,4.73,4.73h0a4.73,4.73,0,0,0,4.73-4.73V940.33A4.73,4.73,0,0,0,1237.4,935.6Z"/><path class="cls-14" d="M1174.54,888.67a6.79,6.79,0,0,0,.44-1.52V678.32c0-4.23-5-7.71-11.18-7.71s-11.14,3.48-11.14,7.71l.41,210.35c0,.51-.14-.54,0,0l-38.63,44.27v169.54h98.74V932.94Z"/><polygon class="cls-11" points="1116.15 558.41 1132.77 678.32 1194.83 678.32 1211.45 558.41 1116.15 558.41"/><circle cx="1163.8" cy="937.86" r="23"/><path class="cls-42" d="M1163.68,991.14s-3,57.81,5.44,73.3,64,72.08,50.45,113.53-100.8,34-105.14,79,35.36,60,62.84,60c244.64,0,133.22-255.7,166.22-258.7"/><path class="cls-43" d="M1141.73,953.57l-1.89,31.74,13,26v17.42h21v-17.42l13.93-26-1.95-30.42C1172,958.88,1157.3,959.39,1141.73,953.57Z"/><path class="cls-44" d="M1185.82,954.89l-1.09-17-42.08.18-.93,15.54C1157.19,963.43,1171.91,962.73,1185.82,954.89Z"/><path class="cls-65" d="M1368.36,1044.12a14.12,14.12,0,0,0-10.73-5.15c-8.26,0-15,7.59-15,17a17.35,17.35,0,0,0,8,15C1358.92,1070.9,1365.93,1059.67,1368.36,1044.12Z"/><path class="cls-66" d="M1368.36,1044.12c-2.43,15.55-9.44,26.77-17.72,26.78a13.51,13.51,0,0,0,7,2c8.26,0,15-7.59,15-17A18.12,18.12,0,0,0,1368.36,1044.12Z"/><circle class="cls-45" cx="1163.8" cy="937.86" r="28.67"/><path class="cls-46" d="M1177.32,940.45c10.37-10.37-11.14-29.74-18.81-22.07"/><path class="cls-1" d="M1171.71,938.23a1.5,1.5,0,0,0-1.17-.56h-13.47a1.51,1.51,0,0,0-1.17.56l-2.13,2.63h20.07Z"/><path class="cls-16" d="M1148.46,953.22l.54,3.66a1,1,0,0,0,1,.69h3.53a1,1,0,0,0,1-.69L1155,954q-3.18-.27-6.36-.72Z"/><path class="cls-16" d="M1172.63,954l.43,2.91a1,1,0,0,0,1,.69h3.53a1,1,0,0,0,1-.69l.54-3.66-.15,0Q1175.81,953.71,1172.63,954Z"/><path class="cls-16" d="M1181.26,939.92l-.93-.32a.91.91,0,0,0-.61,0l-2.39.86-3.94-4.88a1.82,1.82,0,0,0-1.42-.68h-16.32a1.83,1.83,0,0,0-1.42.68l-3.94,4.87-2.39-.86a.91.91,0,0,0-.61,0l-.93.32a.92.92,0,0,0-.62.87.62.62,0,0,0,.27.51l1.11.77a.92.92,0,0,0,.52.16h.76a18.63,18.63,0,0,0-1.32,9.44,1.82,1.82,0,0,0,1.39,1.56l.15,0q3.18.46,6.36.72a106.06,106.06,0,0,0,17.66,0q3.18-.27,6.36-.72l.15,0a1.83,1.83,0,0,0,1.39-1.56,18.63,18.63,0,0,0-1.32-9.44h.76a.91.91,0,0,0,.52-.16l1.11-.77a.62.62,0,0,0,.27-.51A.91.91,0,0,0,1181.26,939.92Zm-27.49.95,2.13-2.63a1.51,1.51,0,0,1,1.17-.56h13.47a1.5,1.5,0,0,1,1.17.56l2.13,2.64Z"/><path class="cls-16" d="M1175.95,946.4v.47c0,.31-.51.57-1.14.57h-2.57c-.51,0-.71-.33-.28-.47l2.71-.91C1175.21,945.87,1175.95,946.07,1175.95,946.4Z"/><path class="cls-16" d="M1152.94,946.06l2.71.91c.42.14.22.47-.28.47h-2.57c-.63,0-1.14-.25-1.14-.57v-.47C1151.65,946.07,1152.39,945.87,1152.94,946.06Z"/><path class="cls-19" d="M1160.44,920.49l-3.56-3.88c-.71-.77-5.77,2.72-6.54,3.42l-.69.64-.32-.34a.37.37,0,0,0-.52,0l-1.69,1.55a.37.37,0,0,0,0,.52l1,1.12-1.95,1.79a.17.17,0,0,0,0,.23l.69.76a.17.17,0,0,0,.23,0l1.93-1.77,2.87,3.13L1150,929.4a.17.17,0,0,0,0,.23l.69.76a.17.17,0,0,0,.23,0l1.95-1.79,1,1.12a.37.37,0,0,0,.52,0l1.69-1.55a.37.37,0,0,0,0-.52l-.32-.34.69-.64C1157.24,926,1161.15,921.25,1160.44,920.49Z"/></g></g></svg>