<svg xmlns="http://www.w3.org/2000/svg" viewBox="0 0 2500 1400"><defs><style>.cls-1{fill:#7ad5c3;}.cls-2,.cls-44,.cls-48,.cls-49{fill:#fff;}.cls-2{opacity:0.37;}.cls-2,.cls-44,.cls-49{isolation:isolate;}.cls-3{fill:#637f3e;}.cls-4{fill:#b8c76c;}.cls-5{fill:#8ba451;}.cls-6{fill:#4b3a35;}.cls-7{fill:#bec65a;}.cls-8{fill:#9eadb1;}.cls-9{fill:#f5b576;}.cls-10{fill:#2b9d62;}.cls-11{fill:#3cb97f;}.cls-12{fill:#d9dada;}.cls-13{fill:#7b6a5b;}.cls-14{fill:#a47b65;}.cls-15{fill:#c29e6a;}.cls-16{fill:#b98c58;}.cls-17{fill:#b68d61;}.cls-18{fill:#a78259;}.cls-19,.cls-23,.cls-56{fill:none;}.cls-19{stroke:#a78259;}.cls-19,.cls-23,.cls-26,.cls-34,.cls-35,.cls-45,.cls-47,.cls-56{stroke-miterlimit:10;}.cls-20{fill:#c29e6c;}.cls-21{fill:#cff0f8;}.cls-22{fill:#907156;}.cls-23{stroke:#f37139;stroke-width:7px;}.cls-24{fill:#191818;}.cls-25{fill:#1e1e1e;}.cls-26{fill:#141414;stroke:#000;}.cls-27,.cls-47{fill:#282828;}.cls-28,.cls-35{fill:#505050;}.cls-29{fill:#bfbfbf;}.cls-30{fill:#a61f24;}.cls-31,.cls-34{fill:#c1272d;}.cls-32{fill:#969696;}.cls-33{fill:#b4bbc0;}.cls-34{stroke:#ab272d;}.cls-35,.cls-45{stroke:#505050;}.cls-36{fill:#868b8e;}.cls-37{fill:#982021;}.cls-38{fill:#d6842b;}.cls-39{fill:#ebeceb;}.cls-40{fill:#8d99a5;}.cls-41{fill:#585d66;}.cls-42{fill:#871a1a;}.cls-43{fill:#c27826;}.cls-44{opacity:0.13;}.cls-45{fill:#cdd8e0;}.cls-46{fill:#28211f;}.cls-47{stroke:#282828;}.cls-49{opacity:0.19;}.cls-50{fill:#979a9e;}.cls-51{fill:#aeb1b7;}.cls-52{fill:#efa500;}.cls-53{fill:#ce8a02;}.cls-54{fill:#3b56a3;}.cls-55{fill:#88c348;}.cls-56{stroke:#f27139;stroke-width:2px;}.cls-57{fill:#f27139;}</style></defs><title>qc-bg3</title><g id="Layer_1" data-name="Layer 1"><path class="cls-1" d="M2499.13-5.29H4.48v1344.7c0,28.14,26.81,51,59.84,51H2499.13Z"/><path class="cls-2" d="M923.21,180.85c-96.93,76.73-132,134.81-335,117.35-395.45-34-554.49,19.31-586.87,23.71v22.89L2501.5,330.62v-82.7c-224.69,48.15-739.12,111.23-904.3-52.77C1480.2,79,1049.53,80.85,923.21,180.85Z"/><path class="cls-3" d="M769,813.22a68,68,0,0,0-38.89-61.41,127.07,127.07,0,0,0,13.62-57.44c0-68.36-53.33-123.81-120.28-127a132.42,132.42,0,0,0,2.63-25.82c0-70.35-56.45-127.29-126.19-127.29S373.7,471.25,373.7,541.6a129.84,129.84,0,0,0,9,47.34,124.53,124.53,0,0,0-34.3-5c-65,0-118.64,49.66-125.37,113.55a42.47,42.47,0,0,0,2.3,79.12,94.33,94.33,0,0,0-11.49,44.86c0,51.48,41.35,93.35,92.55,93.35,44,0,80.74-31.12,90.09-72.66,18.87,33.27,54.15,55.62,94.85,55.62q5.17,0,10.34-.5c19.36,45.19,63.83,76.8,115.85,76.8,62.85,0,114.87-46.51,124.39-107.09A66.79,66.79,0,0,0,769,813.22Z"/><path class="cls-4" d="M743.74,694.38c0-68.36-53.33-123.81-120.28-127a132.42,132.42,0,0,0,2.63-25.82c0-70.35-56.45-127.29-126.19-127.29S373.7,471.25,373.7,541.6a129.84,129.84,0,0,0,9,47.34,124.53,124.53,0,0,0-34.3-5c-64,0-116.67,48.17-124.88,110.4-.49,0-.82-.17-1.31-.17a25.49,25.49,0,0,0,0,51,20.59,20.59,0,0,0,4.59-.5c14.6,54,63.34,93.69,121.6,93.69A125.39,125.39,0,0,0,429,809.09a125.61,125.61,0,0,0,54,12.41A122.19,122.19,0,0,0,507.77,819c18.71,32.11,51.36,53.3,88.78,53.3,46.6,0,86.15-33.1,99.94-79A126,126,0,0,0,743.74,694.38Z"/><path class="cls-5" d="M605.57,619.89a114.93,114.93,0,0,0,20.51-65.55c0-63.23-50.87-114.54-113.56-114.54S399,491.12,399,554.35a114.39,114.39,0,0,0,8.86,44.36,124.74,124.74,0,0,0-18.71,19.7,109.77,109.77,0,0,0-38.4-7c-51.53,0-94.85,35.42-107.65,83.42a31.6,31.6,0,0,0-3.94-.33,25.49,25.49,0,0,0,0,51c.66,0,1.31-.17,2-.17,9.85,52.14,55.14,91.53,109.62,91.53a110.47,110.47,0,0,0,77.45-31.61,122.29,122.29,0,0,0,58.91,15.06A126.41,126.41,0,0,0,503,819.18a124.43,124.43,0,0,0,64.65,46,96.76,96.76,0,0,0,31,5.13c.66,0,1.31-.17,2-.17s1.48.17,2.13.17c68.43,0,124.06-55.95,124.06-125.13C727,676.67,672.85,621.38,605.57,619.89Z"/><polygon class="cls-6" points="314.95 847.15 449.51 982.88 449.51 1084.68 448.88 1229.18 482.27 1248.88 483.15 1084.68 483.15 999.77 634.45 881.09 483.15 965.84 483.15 931.9 567.17 830.11 483.15 897.64 483.15 728.31 466.25 813.22 415.87 762.24 466.25 830.11 449.51 948.95 415.87 915.02 401.6 850.3 398.97 897.97 314.95 847.15"/><ellipse class="cls-7" cx="306.42" cy="719.87" rx="25.27" ry="25.49"/><ellipse class="cls-3" cx="684.83" cy="711.43" rx="16.74" ry="16.88"/><ellipse class="cls-7" cx="306.42" cy="652" rx="8.37" ry="8.44"/><path class="cls-3" d="M1201.74,649a68,68,0,0,0-38.89-61.41,127.07,127.07,0,0,0,13.62-57.44c0-68.36-53.33-123.81-120.28-127a132.42,132.42,0,0,0,2.63-25.82c0-70.35-56.45-127.29-126.19-127.29S806.42,307.06,806.42,377.4a129.84,129.84,0,0,0,9,47.34,124.53,124.53,0,0,0-34.3-5c-65,0-118.64,49.66-125.37,113.55a42.47,42.47,0,0,0,2.3,79.12,94.33,94.33,0,0,0-11.49,44.86c0,51.48,41.35,93.35,92.55,93.35,44,0,80.74-31.12,90.09-72.66,18.87,33.27,54.15,55.62,94.85,55.62q5.17,0,10.34-.5c19.36,45.19,63.83,76.8,115.85,76.8,62.85,0,114.87-46.51,124.39-107.09A66.55,66.55,0,0,0,1201.74,649Z"/><path class="cls-4" d="M1176.63,530.35c0-68.36-53.33-123.81-120.28-127a132.42,132.42,0,0,0,2.63-25.82c0-70.35-56.45-127.29-126.19-127.29S806.59,307.22,806.59,377.57a129.84,129.84,0,0,0,9,47.34,124.53,124.53,0,0,0-34.3-5c-64,0-116.67,48.17-124.88,110.4-.49,0-.82-.17-1.31-.17a25.49,25.49,0,0,0,0,51,20.59,20.59,0,0,0,4.59-.5c14.6,54,63.34,93.69,121.6,93.69a125.39,125.39,0,0,0,80.57-29.3,125.61,125.61,0,0,0,54,12.41A122.19,122.19,0,0,0,940.66,655c18.71,32.11,51.36,53.3,88.78,53.3,46.6,0,86.15-33.1,99.94-79A126.51,126.51,0,0,0,1176.63,530.35Z"/><path class="cls-5" d="M1038.46,455.86A114.93,114.93,0,0,0,1059,390.31c0-63.23-50.87-114.54-113.56-114.54S831.86,327.08,831.86,390.31a114.39,114.39,0,0,0,8.86,44.36A124.74,124.74,0,0,0,822,454.37a109.77,109.77,0,0,0-38.4-7c-51.53,0-94.85,35.42-107.65,83.42a31.6,31.6,0,0,0-3.94-.33,25.49,25.49,0,0,0,0,51c.66,0,1.31-.17,2-.17,9.85,52.14,55.14,91.53,109.62,91.53a110.47,110.47,0,0,0,77.45-31.61A122.29,122.29,0,0,0,920,656.31a126.41,126.41,0,0,0,15.92-1.16,124.43,124.43,0,0,0,64.65,46,96.76,96.76,0,0,0,31,5.13c.66,0,1.31-.17,2-.17s1.48.17,2.13.17c68.43,0,124.06-55.95,124.06-125.13C1159.73,512.63,1105.57,457.35,1038.46,455.86Z"/><polygon class="cls-6" points="747.68 682.96 882.24 818.68 882.24 920.48 859.53 1241.76 915.38 1241.18 915.88 920.48 915.88 835.73 1067.17 716.89 915.88 801.8 915.88 767.87 1000.06 666.07 915.88 733.61 915.88 564.28 899.14 649.02 848.6 598.21 899.14 666.07 882.24 784.75 848.6 750.82 834.32 686.1 831.86 733.94 747.68 682.96"/><path class="cls-5" d="M2499.13,1390.4H59.84c-32.3,0-58.48-22.53-58.48-50.32v-76.14c0-27.79,26.18-50.32,58.48-50.32H2499.13Z"/><path class="cls-8" d="M2499.13,1400H1.36v-84.42H2499.13Z"/><path class="cls-9" d="M1586.21,1261.46H1398.49a10.62,10.62,0,0,1-10.5-10.59v-.17a10.62,10.62,0,0,1,10.5-10.59h187.73a10.62,10.62,0,0,1,10.5,10.59v.17A10.62,10.62,0,0,1,1586.21,1261.46Z"/><path class="cls-9" d="M1699.93,1251.86H1512.21a10.62,10.62,0,0,1-10.5-10.59v-.17a10.62,10.62,0,0,1,10.5-10.59h187.73a10.62,10.62,0,0,1,10.5,10.59v.17A10.62,10.62,0,0,1,1699.93,1251.86Z"/><path class="cls-10" d="M1849.75,1213.13a27.36,27.36,0,0,0,14.77,12.25,23.28,23.28,0,0,0-1.48-20.69,27.36,27.36,0,0,0-14.77-12.25A23.28,23.28,0,0,0,1849.75,1213.13Z"/><path class="cls-10" d="M1881.75,1214.28a25.77,25.77,0,0,1-15.43,11.09,23.24,23.24,0,0,1,2.63-20.52,25.77,25.77,0,0,1,15.43-11.09A23.24,23.24,0,0,1,1881.75,1214.28Z"/><path class="cls-11" d="M1857.14,1206.84a31.58,31.58,0,0,0,8.2,19.53c5.09-5,8.2-12.75,7.71-21.68a31.58,31.58,0,0,0-8.2-19.53C1859.76,1190.12,1856.65,1198.06,1857.14,1206.84Z"/><path class="cls-10" d="M1862.88,1216.93a30.9,30.9,0,0,0,2.63,9.43,28.6,28.6,0,0,0,.16-10.76,30.9,30.9,0,0,0-2.63-9.43A28.46,28.46,0,0,0,1862.88,1216.93Z"/><path class="cls-10" d="M1841.71,1228.52a15,15,0,0,0,7.71,4.47c1.31-2.15,1.15-5-.82-7.45a15,15,0,0,0-7.71-4.47C1839.58,1223.22,1839.75,1226,1841.71,1228.52Z"/><path class="cls-10" d="M1858.12,1228.85a13.37,13.37,0,0,1-7.88,4c-1.15-2.32-.82-5,1.31-7.45a13.37,13.37,0,0,1,7.88-4C1860.75,1223.88,1860.42,1226.53,1858.12,1228.85Z"/><path class="cls-11" d="M1845.49,1226.2a9.71,9.71,0,0,0,4.27,7.12,8.44,8.44,0,0,0,3.94-7.78,9.71,9.71,0,0,0-4.27-7.12A8.44,8.44,0,0,0,1845.49,1226.2Z"/><path class="cls-10" d="M1848.44,1229.84a14,14,0,0,0,1.31,3.48,10.1,10.1,0,0,0,.16-4,14,14,0,0,0-1.31-3.48A6.38,6.38,0,0,0,1848.44,1229.84Z"/><path class="cls-10" d="M2006.8,1326.18a13.75,13.75,0,0,0,7.71,4.3c1.31-2.15,1.15-5-.82-7.45a13.75,13.75,0,0,0-7.71-4.3A6.37,6.37,0,0,0,2006.8,1326.18Z"/><path class="cls-10" d="M2023.37,1326.51a14.58,14.58,0,0,1-7.88,4.14c-1.15-2.32-.82-5,1.31-7.45a14.58,14.58,0,0,1,7.88-4.14A6.49,6.49,0,0,1,2023.37,1326.51Z"/><path class="cls-11" d="M2010.73,1324a9.6,9.6,0,0,0,4.27,7,8.44,8.44,0,0,0,3.94-7.78,9.6,9.6,0,0,0-4.27-7A7.84,7.84,0,0,0,2010.73,1324Z"/><path class="cls-10" d="M2013.52,1327.5a14,14,0,0,0,1.31,3.48,8,8,0,0,0,0-4,14,14,0,0,0-1.31-3.48A10.69,10.69,0,0,0,2013.52,1327.5Z"/><path class="cls-10" d="M1532.72,1312.44c3.94,10.92,10,18.54,16.9,22.18,3.12-11.09,2.79-24.83-1.64-37.41-3.94-10.92-10-18.54-16.9-22.18A63.74,63.74,0,0,0,1532.72,1312.44Z"/><path class="cls-10" d="M1569.15,1314.59c-4.27,10.43-10.67,17.38-17.56,20a64.33,64.33,0,0,1,3-37.08c4.27-10.43,10.67-17.38,17.56-20A64.33,64.33,0,0,1,1569.15,1314.59Z"/><path class="cls-11" d="M1541.09,1301.18c.49,13.9,4.1,26.48,9.35,35.26,5.91-8.94,9.35-23.17,8.7-39.06-.49-13.9-4.1-26.48-9.35-35.26C1544,1271.06,1540.6,1285.29,1541.09,1301.18Z"/><path class="cls-10" d="M1547.49,1319.39a92,92,0,0,0,3,17.21c.82-4.63.82-11.75.16-19.53a92,92,0,0,0-3-17.21A93.35,93.35,0,0,0,1547.49,1319.39Z"/><path class="cls-10" d="M1555,1329.49a13.75,13.75,0,0,0,7.71,4.3c1.31-2.15,1.15-5-.82-7.45a13.75,13.75,0,0,0-7.71-4.3C1552.9,1324.19,1553.07,1327,1555,1329.49Z"/><path class="cls-10" d="M1571.61,1329.82a14.58,14.58,0,0,1-7.88,4.14c-1.15-2.32-.82-5,1.31-7.45a14.58,14.58,0,0,1,7.88-4.14C1574.07,1324.69,1573.74,1327.34,1571.61,1329.82Z"/><path class="cls-11" d="M1559,1327.17a9.6,9.6,0,0,0,4.27,7,8.44,8.44,0,0,0,3.94-7.78,9.6,9.6,0,0,0-4.27-7A8,8,0,0,0,1559,1327.17Z"/><path class="cls-10" d="M1561.76,1330.81a14,14,0,0,0,1.31,3.48,8,8,0,0,0,0-4,14,14,0,0,0-1.31-3.48A10.61,10.61,0,0,0,1561.76,1330.81Z"/><path class="cls-10" d="M1180.4,1254.34c3.94,4.63,10,7.95,16.9,9.6,3.12-4.8,2.79-10.76-1.64-16.06-3.94-4.63-10-7.95-16.9-9.6C1175.64,1243.08,1176,1249,1180.4,1254.34Z"/><path class="cls-10" d="M1216.83,1255.33c-4.27,4.47-10.67,7.45-17.56,8.61-2.63-5-1.81-10.92,3-16.06,4.27-4.47,10.67-7.45,17.56-8.61C1222.58,1244.24,1221.75,1250.2,1216.83,1255.33Z"/><path class="cls-11" d="M1188.94,1249.54c.49,6,4.1,11.42,9.35,15.23,5.91-3.81,9.35-9.93,8.7-16.88-.49-6-4.1-11.42-9.35-15.23C1191.73,1236.63,1188.28,1242.75,1188.94,1249.54Z"/><path class="cls-10" d="M1195.34,1257.32a20.7,20.7,0,0,0,3,7.45c.82-2,.82-5,.16-8.44a20.7,20.7,0,0,0-3-7.45C1194.68,1250.86,1194.68,1254,1195.34,1257.32Z"/><path class="cls-10" d="M1202.88,1261.79a18.92,18.92,0,0,0,7.71,1.82c1.31-1,1.15-2.15-.82-3.14a18.92,18.92,0,0,0-7.71-1.82C1200.59,1259.47,1200.91,1260.63,1202.88,1261.79Z"/><path class="cls-10" d="M1219.29,1262a29.22,29.22,0,0,1-7.88,1.82c-1.15-1-.82-2.15,1.31-3.14a29.22,29.22,0,0,1,7.88-1.82C1221.92,1259.64,1221.59,1260.8,1219.29,1262Z"/><path class="cls-11" d="M1206.66,1260.8c.33,1.16,1.81,2.32,4.27,3,2.63-.83,4.27-2,3.94-3.31-.33-1.16-1.81-2.32-4.27-3C1208,1258.15,1206.33,1259.31,1206.66,1260.8Z"/><path class="cls-10" d="M1209.61,1262.29a3.9,3.9,0,0,0,1.31,1.49,1.49,1.49,0,0,0,0-1.66,3.9,3.9,0,0,0-1.31-1.49A1.49,1.49,0,0,0,1209.61,1262.29Z"/><ellipse class="cls-12" cx="1538.95" cy="1272.55" rx="529.87" ry="33.44"/><polygon class="cls-13" points="359.26 315.66 1.36 315.66 1.36 36.09 359.26 315.66"/><polygon class="cls-14" points="313.15 315.66 1.36 315.66 1.36 72.18 313.15 315.66"/><polygon class="cls-15" points="249.64 315.66 1.36 315.66 1.36 121.84 204.84 280.74 249.64 315.66"/><polygon class="cls-16" points="249.64 315.66 1.36 315.66 1.36 280.74 204.84 280.74 249.64 315.66"/><polygon class="cls-14" points="359.26 315.66 348.76 344.8 336.29 379.72 1.36 379.72 1.36 315.66 359.26 315.66"/><polygon class="cls-15" points="348.76 344.8 336.29 379.72 1.36 379.72 1.36 344.8 348.76 344.8"/><rect class="cls-17" x="1.36" y="379.72" width="334.92" height="966.82"/><rect class="cls-15" x="1.36" y="799.15" width="334.92" height="55.28"/><rect class="cls-18" x="1.36" y="379.72" width="334.92" height="17.55"/><line class="cls-19" x1="1.36" y1="886.55" x2="336.29" y2="886.55"/><line class="cls-19" x1="1.36" y1="921.47" x2="336.29" y2="921.47"/><line class="cls-19" x1="1.36" y1="950.61" x2="336.29" y2="950.61"/><line class="cls-19" x1="1.36" y1="979.74" x2="336.29" y2="979.74"/><line class="cls-19" x1="1.36" y1="426.4" x2="336.29" y2="426.4"/><line class="cls-19" x1="1.36" y1="461.32" x2="336.29" y2="461.32"/><line class="cls-19" x1="1.36" y1="490.45" x2="336.29" y2="490.45"/><line class="cls-19" x1="1.36" y1="519.59" x2="336.29" y2="519.59"/><line class="cls-19" x1="1.36" y1="554.51" x2="336.29" y2="554.51"/><line class="cls-19" x1="1.36" y1="589.44" x2="336.29" y2="589.44"/><line class="cls-19" x1="1.36" y1="618.57" x2="336.29" y2="618.57"/><line class="cls-19" x1="1.36" y1="647.7" x2="336.29" y2="647.7"/><line class="cls-19" x1="1.36" y1="682.63" x2="336.29" y2="682.63"/><line class="cls-19" x1="1.36" y1="717.55" x2="336.29" y2="717.55"/><line class="cls-19" x1="1.36" y1="746.68" x2="336.29" y2="746.68"/><line class="cls-19" x1="1.36" y1="775.82" x2="336.29" y2="775.82"/><line class="cls-19" x1="1.36" y1="1014.66" x2="336.29" y2="1014.66"/><line class="cls-19" x1="1.36" y1="1043.8" x2="336.29" y2="1043.8"/><line class="cls-19" x1="1.36" y1="1078.72" x2="336.29" y2="1078.72"/><line class="cls-19" x1="1.36" y1="1113.65" x2="336.29" y2="1113.65"/><line class="cls-19" x1="1.36" y1="1142.78" x2="336.29" y2="1142.78"/><line class="cls-19" x1="1.36" y1="1177.7" x2="336.29" y2="1177.7"/><line class="cls-19" x1="1.36" y1="1212.63" x2="336.29" y2="1212.63"/><line class="cls-19" x1="1.36" y1="1241.76" x2="336.29" y2="1241.76"/><line class="cls-19" x1="1.36" y1="1276.69" x2="336.29" y2="1276.69"/><line class="cls-19" x1="1.36" y1="1311.61" x2="336.29" y2="1311.61"/><line class="cls-19" x1="1.36" y1="1340.74" x2="336.29" y2="1340.74"/><polygon class="cls-20" points="197.62 687.76 1.36 687.76 1.36 649.69 215.02 649.69 197.62 687.76"/><rect class="cls-18" x="1.36" y="426.4" width="167.38" height="221.3"/><rect class="cls-21" x="18.59" y="461.32" width="52.02" height="46.68"/><rect class="cls-21" x="82.1" y="572.06" width="52.02" height="46.68"/><rect class="cls-21" x="18.59" y="519.59" width="52.02" height="98.98"/><rect class="cls-21" x="82.1" y="461.32" width="52.02" height="98.98"/><rect class="cls-18" x="1.36" y="1008.37" width="88.94" height="338.33"/><path class="cls-22" d="M4.65,1246.06H58.47c-.16-29.3-23.63-53-52.68-53H4.65Z"/><rect class="cls-22" x="4.97" y="1252.19" width="53.17" height="74.15"/><path class="cls-21" d="M1.36,1023.77h0L1.2,1160.16h.16c27.9,0,50.54-30.46,50.54-68.2C52.07,1054.39,29.42,1023.77,1.36,1023.77Z"/><path class="cls-10" d="M979.88,1337.93c3.94,10.92,10,18.54,16.9,22.18,3.12-11.09,2.79-24.83-1.64-37.41-3.94-10.92-10-18.54-16.9-22.18A63.74,63.74,0,0,0,979.88,1337.93Z"/><path class="cls-10" d="M1016.31,1340.08c-4.27,10.43-10.67,17.38-17.56,20a64.33,64.33,0,0,1,3-37.08c4.27-10.43,10.67-17.38,17.56-20A64.33,64.33,0,0,1,1016.31,1340.08Z"/><path class="cls-11" d="M988.24,1326.67c.49,13.9,4.1,26.48,9.35,35.26,5.91-8.94,9.35-23.17,8.7-39.06-.49-13.9-4.1-26.48-9.35-35.26C991.2,1296.55,987.75,1310.78,988.24,1326.67Z"/><path class="cls-10" d="M994.64,1344.88a92,92,0,0,0,3,17.21c.82-4.63.82-11.75.16-19.53a92,92,0,0,0-3-17.21A93.36,93.36,0,0,0,994.64,1344.88Z"/><path class="cls-10" d="M1002.19,1355a13.75,13.75,0,0,0,7.71,4.3c1.31-2.15,1.15-5-.82-7.45a13.75,13.75,0,0,0-7.71-4.3C1000.06,1349.68,1000.22,1352.5,1002.19,1355Z"/><path class="cls-10" d="M1018.77,1355.31a14.58,14.58,0,0,1-7.88,4.14c-1.15-2.32-.82-5,1.31-7.45a14.58,14.58,0,0,1,7.88-4.14C1021.23,1350.18,1020.9,1352.83,1018.77,1355.31Z"/><path class="cls-11" d="M1006.13,1352.66a9.6,9.6,0,0,0,4.27,7,8.44,8.44,0,0,0,3.94-7.78,9.6,9.6,0,0,0-4.27-7A8,8,0,0,0,1006.13,1352.66Z"/><path class="cls-10" d="M1008.92,1356.3a14,14,0,0,0,1.31,3.48,8,8,0,0,0,0-4,14,14,0,0,0-1.31-3.48A10.61,10.61,0,0,0,1008.92,1356.3Z"/><path class="cls-23" d="M211.31,1226.2s-13.15,146.88,30.8,146.87c209.65-.08,170.22-13,271.21-50.7,133.44-49.82,27.64,164.59,279-6.79,22.3-15.21,83-22.68,162-25.39,68.6-2.36,151.3-6.33,233.77,1.75,144.15,14.12,162.75-82.38,219.23-40.09,32.05,24,251.81,25.66,276,25.66,139.31,0,44.75-87.13,88.06-149.47"/><path class="cls-24" d="M1797.24,1229.84h108.14a17.3,17.3,0,0,0,17.23-17.38v-1.16a17.3,17.3,0,0,0-17.23-17.38H1797.24A17.3,17.3,0,0,0,1780,1211.3v1.32A17.27,17.27,0,0,0,1797.24,1229.84Z"/><path class="cls-25" d="M1771.32,1128c-5.74-18.54-14.93-31.78-25.44-35.26h0a16.77,16.77,0,0,0-5.74-1c-1.15,0-31-2.65-33.31-2.65a16.8,16.8,0,0,0-4.92.66,26,26,0,0,0-10.67,6.79c-13.13,13.41-22.32,43-22.32,77.63s9.19,64.22,22.32,77.63c4.76,4.8,10,7.45,15.59,7.45h33.31c13,0,24.29-14.4,31.18-36.25,4.27-13.57,6.73-30,6.73-47.5C1777.88,1158,1775.42,1141.62,1771.32,1128Z"/><path class="cls-26" d="M1655.3,1207.83l-.82.66-.16.17-127.5,8.44h-.49l-12.64-1.66a135,135,0,0,1,8.37-34.59c1.48-3.81,3.12-7.45,4.76-10.76,13.13-26,34.3-42.87,58.25-42.87,22,0,41.84,14.4,55,37.24a86.32,86.32,0,0,1,5.25,10.26A129.62,129.62,0,0,1,1655.3,1207.83Z"/><path d="M2049.46,1174.89A13.27,13.27,0,0,1,2048,1182a35.7,35.7,0,0,1-13,14.07,44,44,0,0,1-6.24,3.14L1978.41,1214l-140.8-.66,90.42-7.78c25.11-27.48,33.48-71.84,33.48-71.84C1969.87,1104,1993,1104,1993,1104h10.5c18.87,0,21,14.73,21,14.73l1.31,10.59a5.41,5.41,0,0,0,6.89,4.47l8.86-2.65a7.64,7.64,0,0,0,5.42-6.29l1.15,13.57Z"/><path class="cls-27" d="M2026.49,1165.45c-5.42-15.23-13.95-26-24-29h0a20.47,20.47,0,0,0-5.42-.83c-1.15,0-29.21-2.15-31.51-2.15a21.69,21.69,0,0,0-4.59.5,22.63,22.63,0,0,0-10,5.63c-12.31,10.92-21,35.26-21,63.73s8.53,52.64,21,63.73c4.43,4,9.52,6.12,14.6,6.12h31.51c12.14,0,23-11.75,29.37-29.79a125,125,0,0,0,0-78Z"/><ellipse class="cls-28" cx="1997.11" cy="1204.52" rx="35.61" ry="68.69"/><ellipse class="cls-29" cx="2001.54" cy="1204.52" rx="24.12" ry="46.51"/><path class="cls-30" d="M2046.84,1123.08a7.86,7.86,0,0,1-5.42,8.11l-8.86,2.65a5.41,5.41,0,0,1-6.89-4.47l-1.31-10.59s-2.13-14.73-21-14.73h-10.5s-23.14,0-31.51,29.63c0,0-8.37,44.36-33.48,71.84l-92.06,7.95a6.1,6.1,0,0,1-6.56-6.12V896.65h28.55c13.78,0,26.75,10.59,35.12,21.52l74.66,96.83,64.16,35.26a19.3,19.3,0,0,1,10,15.56l.16,2.15,4.1,48.5Z"/><path class="cls-25" d="M1344,1183c-7.06-18.54-18.38-31.78-31.18-35.26h0a25.07,25.07,0,0,0-7.06-1c-1.48,0-38.23-2.65-41-2.65a25.28,25.28,0,0,0-6.07.66,34.43,34.43,0,0,0-13.13,6.79c-16.08,13.41-27.4,43-27.4,77.63s11.16,64.22,27.4,77.63c5.91,4.8,12.31,7.45,19.2,7.45h41c15.92,0,29.87-14.4,38.4-36.25,5.25-13.57,8.2-30,8.2-47.5C1352.21,1213,1349.26,1196.57,1344,1183Z"/><path class="cls-31" d="M2046.84,1123.08a7.86,7.86,0,0,1-5.42,8.11l-8.86,2.65a5.41,5.41,0,0,1-6.89-4.47l-1.31-10.59s-2.13-14.73-21-14.73h-10.5s-23.14,0-31.51,29.63c0,0-8.37,44.36-33.48,71.84l-92.06,7.95a6.1,6.1,0,0,1-6.56-6.12V900.95h28.55a44.26,44.26,0,0,1,35.12,17.38l74.66,96.83,64.16,35.26a19.3,19.3,0,0,1,10,15.56l.16,2.15,4.1,48.5Z"/><path class="cls-32" d="M2046.34,1116.46l-6.4-7a12.79,12.79,0,0,1-3.28-7.95l-1.81-32.11a1.35,1.35,0,0,1,1.31-1.49h5.91l.16,1.16,3.45,40.06Z"/><polygon class="cls-33" points="994.64 1220.41 1298.72 1232.99 1298.72 695.7 994.64 738.08 994.64 1220.41"/><path class="cls-34" d="M1954.12,1011.35l3.12,105.44s-1,5.13-10.5,33.77c-6.24,19-18.87,40.22-18.87,40.22l-86,6.29s-2.13-78.29-8.37-287.68Z"/><rect class="cls-35" x="1986.61" y="1006.72" width="4.27" height="8.44"/><polygon class="cls-36" points="1026.15 776.48 1026.15 1221.07 1011.55 1220.41 1011.55 778.3 1026.15 776.48"/><polygon class="cls-36" points="1276.29 740.04 1276.29 1232.06 1261.68 1231.46 1261.68 742.87 1276.29 740.04"/><path class="cls-24" d="M1837.12,1212l-2-27.48-538.57,38.73.66,8.61-135.54-4.63,136.86,23.34v.17h.49l2.79-.17,46.11-3.31.33,5.13a13.45,13.45,0,0,0,14.28,12.58l137.68-9.93a14,14,0,0,0,6.89,1.49l206.11-14.73a13.48,13.48,0,0,0,12.47-14.4l-.49-7.12,94.52-6.79Z"/><path class="cls-27" d="M1636.59,1208.49c-8-18.54-20.68-31.78-35.12-35.26h0a32.1,32.1,0,0,0-7.88-1c-1.64,0-43-2.65-46.28-2.65a29.94,29.94,0,0,0-6.73.66,39.91,39.91,0,0,0-14.77,6.79c-18.21,13.41-30.85,43-30.85,77.63s12.64,64.22,30.85,77.63a36.41,36.41,0,0,0,21.5,7.45h46.28c17.89,0,33.64-14.4,43.16-36.25a123,123,0,0,0,9.19-47.5C1645.78,1238.28,1642.5,1221.9,1636.59,1208.49Z"/><ellipse class="cls-28" cx="1593.44" cy="1256" rx="52.35" ry="83.92"/><ellipse class="cls-29" cx="1598.85" cy="1257.98" rx="34.79" ry="55.78"/><path class="cls-37" d="M999.4,1066.47h0a4.78,4.78,0,0,1-4.76-4.8v-30.13a4.78,4.78,0,0,1,4.76-4.8h0a4.78,4.78,0,0,1,4.76,4.8v30.13A4.78,4.78,0,0,1,999.4,1066.47Z"/><path class="cls-38" d="M999.4,1129.37h0a4.78,4.78,0,0,1-4.76-4.8v-30.13a4.78,4.78,0,0,1,4.76-4.8h0a4.78,4.78,0,0,1,4.76,4.8v30.13A4.78,4.78,0,0,1,999.4,1129.37Z"/><path class="cls-39" d="M1836.63,765.55v431.52l-181.16,12.08h-1a121.59,121.59,0,0,0-12-34.43,90.15,90.15,0,0,0-6.4-10.26c-11.81-16.55-27.57-26.81-44.8-26.81-18.87,0-35.94,12.08-48.08,31.61a115.31,115.31,0,0,0-5.91,10.92,131.72,131.72,0,0,0-10.83,37.57l-13.29.83-12.14.83-57.6,3.81-41.68,2.81-103.05,7V695.7l197.41,25.66,120.45,15.72,38.4,5,53,7Z"/><path class="cls-40" d="M1526.81,1170.25l16.41-.83a115.31,115.31,0,0,0-5.91,10.92l-15.43.83-189.7,9.77v-10.59Z"/><path class="cls-40" d="M1829.41,1154.86v10.59l-184,9.43-2.79.17a90.15,90.15,0,0,0-6.4-10.26l3.94-.17Z"/><path class="cls-41" d="M1655.46,1209.15h-1c0-.17-.16-.5-.16-.66a121,121,0,0,0-11.81-33.6,90.15,90.15,0,0,0-6.4-10.26c-11.81-16.55-27.57-26.81-44.8-26.81-18.87,0-35.94,12.08-48.08,31.61a115.31,115.31,0,0,0-5.91,10.92,127.16,127.16,0,0,0-10.67,36.91c0,.17-.16.5-.16.66l-13.29.83c.16-1,.16-2.15.33-3.14a135,135,0,0,1,8.37-34.59c1.48-3.81,3.12-7.45,4.76-10.76,13.13-26,34.3-42.87,58.25-42.87,22,0,41.84,14.4,55,37.24a86.32,86.32,0,0,1,5.25,10.26A129.47,129.47,0,0,1,1655,1208,1.51,1.51,0,0,1,1655.46,1209.15Z"/><polygon class="cls-2" points="1616.57 737.08 1401.77 1226.2 1298.72 1232.99 1298.72 1170.59 1496.13 721.36 1616.57 737.08"/><polygon class="cls-2" points="1707.81 748.84 1501.21 1219.58 1443.61 1223.39 1654.97 742.05 1707.81 748.84"/><path class="cls-37" d="M1325,1028.4v24.17a11.13,11.13,0,0,1-10.17,11.09h-17.72a11,11,0,0,1-11-11.09V1028.4a11,11,0,0,1,11-11.09h16.74a10.5,10.5,0,0,1,3.28.5,10,10,0,0,1,2,.83,11.58,11.58,0,0,1,3.61,3.31A10,10,0,0,1,1325,1028.4Z"/><path class="cls-38" d="M1325,1102.39v24.17a11.21,11.21,0,0,1-9.68,11.09,3.58,3.58,0,0,1-1.31.17h-16.74a11,11,0,0,1-11-11.09v-24.17a11,11,0,0,1,11-11.09H1314a8.76,8.76,0,0,1,3.61.66,5.53,5.53,0,0,1,2,1,10.38,10.38,0,0,1,3.61,3.48A9.72,9.72,0,0,1,1325,1102.39Z"/><path class="cls-42" d="M1292.48,1063.82h0a6.26,6.26,0,0,1-6.24-6.29v-33.77a6.26,6.26,0,0,1,6.24-6.29h0a6.26,6.26,0,0,1,6.24,6.29v33.77A6.26,6.26,0,0,1,1292.48,1063.82Z"/><path class="cls-43" d="M1292.48,1137.81h0a6.26,6.26,0,0,1-6.24-6.29v-33.77a6.26,6.26,0,0,1,6.24-6.29h0a6.26,6.26,0,0,1,6.24,6.29v33.77A6.26,6.26,0,0,1,1292.48,1137.81Z"/><path class="cls-44" d="M1317.26,1017.81l-8.86,46h-8.53l8.86-46.51h5.09A10.83,10.83,0,0,1,1317.26,1017.81Z"/><path class="cls-44" d="M1322.84,1021.95l-8,41.88h-4.27l8.7-45.19A11.58,11.58,0,0,1,1322.84,1021.95Z"/><path class="cls-44" d="M1317.59,1092l-8.7,45.85h-8.53l8.86-46.51H1314A12.7,12.7,0,0,1,1317.59,1092Z"/><path class="cls-44" d="M1323.17,1096.43l-7.88,41.38a3.58,3.58,0,0,1-1.31.17h-3l8.53-45A9.16,9.16,0,0,1,1323.17,1096.43Z"/><path class="cls-35" d="M1983,1011h-12.8a4.43,4.43,0,0,1-4.43-4.47v-46a4.43,4.43,0,0,1,4.43-4.47h12a13,13,0,0,1,13,13.08v29.79A12.35,12.35,0,0,1,1983,1011Z"/><path class="cls-45" d="M1980,1011h-9.85a4.61,4.61,0,0,1-4.59-4.63V960.54a4.61,4.61,0,0,1,4.59-4.63H1980a4.61,4.61,0,0,1,4.59,4.63v45.85A4.83,4.83,0,0,1,1980,1011Z"/><path class="cls-46" d="M1939.35,1026.75l-50.21-2-13.95-.5-10.83-.5-3.61-.17-27.24-114.21c42,0,52.35,10.59,52.35,10.59l15.26,19.7,7.06,8.94,9,11.75,33.64,43.2C1958.39,1013.17,1951.33,1027.08,1939.35,1026.75Z"/><path class="cls-38" d="M2045.69,1109.34h-.33a6.69,6.69,0,0,1-7.06-6.46l-.82-14.4-.66-12.25a7,7,0,0,1,5.58-7.12l1.64,19Z"/><path class="cls-47" d="M1990.88,1015.16h-4.43a1.9,1.9,0,0,0-2,2v.17h-29.37v4.3h35.77a1.9,1.9,0,0,0,2-2v-2.32A2,2,0,0,0,1990.88,1015.16Z"/><path class="cls-27" d="M2054.71,1172.08a16.83,16.83,0,0,1-2.46,9.6c-3.28,5.13-5.42,8.77-17.23,14.57l-2.13-42.37c0-25.32-15.92-28.14-15.92-28.14l26.26-1.49c4.92-.33,9.19,2.81,9.52,7Z"/><path class="cls-48" d="M2045.69,1109.34h-.33a6.69,6.69,0,0,1-7.06-6.46l-.82-14.4,6.56-.33Z"/><path class="cls-49" d="M1901.28,939.68l-36.92,84.09-3.61-.17-27.24-114.21c42,0,52.35,10.59,52.35,10.59Z"/><polygon class="cls-49" points="1917.36 960.37 1889.14 1024.76 1875.19 1024.26 1908.34 948.79 1917.36 960.37"/><path class="cls-10" d="M1984.48,1309.29c3.94,10.92,10,18.54,16.9,22.18,3.12-11.09,2.79-24.83-1.64-37.41-3.94-10.92-10-18.54-16.9-22.18C1979.72,1283,1980,1296.88,1984.48,1309.29Z"/><path class="cls-10" d="M2020.91,1311.45c-4.27,10.43-10.67,17.38-17.56,20a64.33,64.33,0,0,1,3-37.08c4.27-10.43,10.67-17.38,17.56-20A64.33,64.33,0,0,1,2020.91,1311.45Z"/><path class="cls-11" d="M1992.85,1298c.49,13.9,4.1,26.48,9.35,35.26,5.91-8.94,9.35-23.17,8.7-39.06-.49-13.9-4.1-26.48-9.35-35.26C1995.8,1267.75,1992.36,1282,1992.85,1298Z"/><path class="cls-10" d="M1999.25,1316.08a92,92,0,0,0,3,17.21c.82-4.63.82-11.75.16-19.53a92,92,0,0,0-3-17.21A93.84,93.84,0,0,0,1999.25,1316.08Z"/><path class="cls-10" d="M1799.21,1340.58a27.36,27.36,0,0,0,14.77,12.25,23.28,23.28,0,0,0-1.48-20.69,27.36,27.36,0,0,0-14.77-12.25A23.28,23.28,0,0,0,1799.21,1340.58Z"/><path class="cls-10" d="M1831.21,1341.74a25.77,25.77,0,0,1-15.43,11.09,23.24,23.24,0,0,1,2.63-20.52,25.77,25.77,0,0,1,15.43-11.09A23.24,23.24,0,0,1,1831.21,1341.74Z"/><path class="cls-11" d="M1806.6,1334.29a31.58,31.58,0,0,0,8.2,19.53c5.09-5,8.2-12.75,7.71-21.68a31.58,31.58,0,0,0-8.2-19.53C1809.22,1317.57,1806.11,1325.51,1806.6,1334.29Z"/><path class="cls-10" d="M1812.34,1344.38a30.9,30.9,0,0,0,2.63,9.43,28.6,28.6,0,0,0,.16-10.76,30.9,30.9,0,0,0-2.63-9.43A28.46,28.46,0,0,0,1812.34,1344.38Z"/><path class="cls-10" d="M1791.17,1356a15,15,0,0,0,7.71,4.47c1.31-2.15,1.15-5-.82-7.45a15,15,0,0,0-7.71-4.47C1789,1350.67,1789.2,1353.49,1791.17,1356Z"/><path class="cls-10" d="M1807.58,1356.47a13.37,13.37,0,0,1-7.88,4c-1.15-2.32-.82-5,1.31-7.45a13.37,13.37,0,0,1,7.88-4C1810.21,1351.34,1809.88,1354,1807.58,1356.47Z"/><path class="cls-11" d="M1794.95,1353.65a9.71,9.71,0,0,0,4.27,7.12,8.44,8.44,0,0,0,3.94-7.78,9.71,9.71,0,0,0-4.27-7.12A8.44,8.44,0,0,0,1794.95,1353.65Z"/></g><g id="Layer_2" data-name="Layer 2"><path class="cls-50" d="M122.22,1173.4a32.77,32.77,0,0,0-4.55,16.39c0,28.73,40.16,52,89.69,52,45.48,0,83.05-19.63,88.9-45.08"/><path class="cls-50" d="M296.26,1196.73c-59.66,64.29-178.79,28-174-23.33"/><path class="cls-51" d="M296.26,1196.73a30.9,30.9,0,0,0,.8-6.93c0-28.73-40.16-52-89.69-52-39.66,0-73.3,14.93-85.14,35.62C117.48,1224.74,236.6,1261,296.26,1196.73Z"/><path class="cls-52" d="M189.36,1188.63l-1.89,31.74,13,26v17.42h21v-17.42l13.93-26-1.95-30.42C219.63,1193.95,204.92,1194.45,189.36,1188.63Z"/><path class="cls-53" d="M233.45,1189.95l-1.09-14-42.08.18-.93,12.54C204.82,1198.49,219.54,1197.79,233.45,1189.95Z"/><ellipse class="cls-54" cx="211.43" cy="1164.28" rx="30.68" ry="21.26"/><path class="cls-55" d="M199.83,1177.19h-3.95c-.56,0-1.06-.2-1.13-.45l-.76-3c-.1-.4.42-.75,1.18-.75h5.36c.75,0,1.28.35,1.18.75l-.76,3C200.89,1177,200.39,1177.19,199.83,1177.19Z"/><path class="cls-55" d="M226.74,1177.19h-3.95c-.56,0-1.06-.2-1.13-.45l-.76-3c-.1-.4.42-.75,1.18-.75h5.36c.75,0,1.28.35,1.18.75l-.76,3C227.8,1177,227.3,1177.19,226.74,1177.19Z"/><path class="cls-56" d="M226,1167.1c11.6-6.68-13-19.67-21.62-14.73"/><path class="cls-55" d="M230.83,1165.82l-.19,0a6,6,0,0,0-2.38,0h0a4.27,4.27,0,0,1-3.34-.7L222,1163a2.81,2.81,0,0,0-1.59-.44H202.18a2.82,2.82,0,0,0-1.59.44l-2.89,2.06a4.27,4.27,0,0,1-3.34.7h0a6,6,0,0,0-2.38,0l-.19,0c-.41.08-.69.31-.69.56s.11.25.3.33l1.24.49a1.6,1.6,0,0,0,.58.11h.85a7.74,7.74,0,0,0-1.48,6.08c.11.53.82.95,1.73,1a206,206,0,0,0,34,0c.91-.08,1.62-.5,1.73-1a7.74,7.74,0,0,0-1.48-6.08h.85a1.59,1.59,0,0,0,.58-.1l1.24-.49c.19-.08.3-.2.3-.33S231.24,1165.9,230.83,1165.82Zm-30.75.61,2.38-1.7a2.33,2.33,0,0,1,1.31-.36h15.07a2.32,2.32,0,0,1,1.31.36l2.38,1.7Z"/><path class="cls-57" d="M198.38,1158.15l-4-2.5c-.79-.5-.73-1.27.13-1.73l1.73-.91c.86-.45,6.53-2.7,7.32-2.2l4,2.5c.79.5-3.58,3.55-4.44,4l-1.73.91A3.33,3.33,0,0,1,198.38,1158.15Z"/><path class="cls-57" d="M196.22,1159.44h0c-.28-.18-.26-.46,0-.62l2.77-1.46a1.19,1.19,0,0,1,1.07,0h0c.28.18.26.46,0,.62l-2.77,1.46A1.19,1.19,0,0,1,196.22,1159.44Z"/><path class="cls-57" d="M192,1156.78h0c-.28-.18-.26-.46,0-.62l2.77-1.46a1.19,1.19,0,0,1,1.07,0h0c.28.18.26.46,0,.62l-2.77,1.46A1.19,1.19,0,0,1,192,1156.78Z"/><path class="cls-57" d="M201.82,1157.4l-5.83-3.66a2.66,2.66,0,0,0-2.39-.06h0c-.69.36-.73,1-.1,1.38l5.83,3.66a2.66,2.66,0,0,0,2.39.06h0C202.41,1158.42,202.45,1157.8,201.82,1157.4Z"/></g></svg>