<svg xmlns="http://www.w3.org/2000/svg" viewBox="0 0 2500 1400"><defs><style>.cls-1{fill:#d9dada;}.cls-2{fill:#7ad5c3;}.cls-3,.cls-41,.cls-45,.cls-46{fill:#fff;}.cls-3{opacity:0.37;}.cls-3,.cls-41,.cls-46{isolation:isolate;}.cls-4{fill:#637f3e;}.cls-5{fill:#b8c76c;}.cls-6{fill:#8ba451;}.cls-7{fill:#4b3a35;}.cls-8{fill:#bec65a;}.cls-9{fill:#9eadb1;}.cls-10{fill:#2b9d62;}.cls-11{fill:#3cb97f;}.cls-12{fill:#7b6a5b;}.cls-13{fill:#a47b65;}.cls-14{fill:#c29e6a;}.cls-15{fill:#b98c58;}.cls-16{fill:#b68d61;}.cls-17{fill:#a78259;}.cls-18,.cls-20,.cls-54,.cls-55{fill:none;}.cls-18{stroke:#a78259;}.cls-18,.cls-20,.cls-23,.cls-31,.cls-32,.cls-42,.cls-44,.cls-54{stroke-miterlimit:10;}.cls-19{fill:#cff0f8;}.cls-20{stroke:#f37139;stroke-width:7px;}.cls-21{fill:#191818;}.cls-22{fill:#1e1e1e;}.cls-23{fill:#141414;stroke:#000;}.cls-24,.cls-44{fill:#282828;}.cls-25,.cls-32{fill:#505050;}.cls-26{fill:#bfbfbf;}.cls-27{fill:#a61f24;}.cls-28,.cls-31{fill:#c1272d;}.cls-29{fill:#969696;}.cls-30{fill:#b4bbc0;}.cls-31{stroke:#ab272d;}.cls-32,.cls-42{stroke:#505050;}.cls-33{fill:#868b8e;}.cls-34{fill:#982021;}.cls-35{fill:#d6842b;}.cls-36{fill:#ebeceb;}.cls-37{fill:#8d99a5;}.cls-38{fill:#585d66;}.cls-39{fill:#871a1a;}.cls-40{fill:#c27826;}.cls-41{opacity:0.13;}.cls-42{fill:#cdd8e0;}.cls-43{fill:#28211f;}.cls-44{stroke:#282828;}.cls-46{opacity:0.19;}.cls-47{fill:#c29e6c;}.cls-48{fill:#907156;}.cls-49{fill:#979a9e;}.cls-50{fill:#aeb1b7;}.cls-51{fill:#efa500;}.cls-52{fill:#ce8a02;}.cls-53{fill:#3b56a3;}.cls-54{stroke:#f27139;stroke-width:2px;}.cls-56{fill:#88c348;}.cls-57{fill:#f27139;}</style></defs><title>qc-bg-home-02</title><g id="Layer_1" data-name="Layer 1"><ellipse class="cls-1" cx="1723.75" cy="1272.55" rx="529.87" ry="33.44"/><path class="cls-2" d="M2499.13-5.29H4.48v1344.7c0,28.14,26.81,51,59.84,51H2499.13Z"/><path class="cls-3" d="M4.48-5.29,1.36,388.49,312.4,342a1174.89,1174.89,0,0,1,341.45-1l235.78,33.91a710.63,710.63,0,0,0,105.74,7.24l402-38.75a930,930,0,0,1,152-2.18l427.94,28.94A996.24,996.24,0,0,0,2132,368.6l351.38-30.94c10.08-.89,17.83-10.38,17.76-21.75l-2-321.19Z"/><path class="cls-4" d="M2651,813.22a68,68,0,0,0-38.89-61.41,127.07,127.07,0,0,0,13.62-57.44c0-68.36-53.33-123.81-120.28-127a132.42,132.42,0,0,0,2.63-25.82c0-70.35-56.45-127.29-126.19-127.29s-126.19,56.94-126.19,127.29a129.84,129.84,0,0,0,9,47.34,124.53,124.53,0,0,0-34.3-5c-65,0-118.64,49.66-125.37,113.55a42.47,42.47,0,0,0,2.3,79.12,94.33,94.33,0,0,0-11.49,44.86c0,51.48,41.35,93.35,92.55,93.35,44,0,80.74-31.12,90.09-72.66,18.87,33.27,54.15,55.62,94.85,55.62q5.17,0,10.34-.5c19.36,45.19,63.83,76.8,115.85,76.8,62.85,0,114.87-46.51,124.39-107.09A66.79,66.79,0,0,0,2651,813.22Z"/><path class="cls-5" d="M2625.77,694.38c0-68.36-53.33-123.81-120.28-127a132.42,132.42,0,0,0,2.63-25.82c0-70.35-56.45-127.29-126.19-127.29s-126.19,56.94-126.19,127.29a129.84,129.84,0,0,0,9,47.34,124.53,124.53,0,0,0-34.3-5c-64,0-116.67,48.17-124.88,110.4-.49,0-.82-.17-1.31-.17a25.49,25.49,0,0,0,0,51,20.59,20.59,0,0,0,4.59-.5c14.6,54,63.34,93.69,121.6,93.69a125.39,125.39,0,0,0,80.57-29.3,125.61,125.61,0,0,0,54,12.41A122.19,122.19,0,0,0,2389.8,819c18.71,32.11,51.36,53.3,88.78,53.3,46.6,0,86.15-33.1,99.94-79A126,126,0,0,0,2625.77,694.38Z"/><path class="cls-6" d="M2487.6,619.89a114.93,114.93,0,0,0,20.51-65.55c0-63.23-50.87-114.54-113.56-114.54S2281,491.12,2281,554.35a114.39,114.39,0,0,0,8.86,44.36,124.74,124.74,0,0,0-18.71,19.7,109.77,109.77,0,0,0-38.4-7c-51.53,0-94.85,35.42-107.65,83.42a31.6,31.6,0,0,0-3.94-.33,25.49,25.49,0,0,0,0,51c.66,0,1.31-.17,2-.17,9.85,52.14,55.14,91.53,109.62,91.53a110.47,110.47,0,0,0,77.45-31.61,122.29,122.29,0,0,0,58.91,15.06,126.41,126.41,0,0,0,15.92-1.16,124.43,124.43,0,0,0,64.65,46,96.76,96.76,0,0,0,31,5.13c.66,0,1.31-.17,2-.17s1.48.17,2.13.17c68.43,0,124.06-55.95,124.06-125.13C2609,676.67,2554.88,621.38,2487.6,619.89Z"/><polygon class="cls-7" points="2196.98 847.15 2331.54 982.88 2331.54 1084.68 2330.91 1229.18 2364.3 1248.88 2365.18 1084.68 2365.18 999.77 2516.48 881.09 2365.18 965.84 2365.18 931.9 2449.2 830.11 2365.18 897.64 2365.18 728.31 2348.28 813.22 2297.9 762.24 2348.28 830.11 2331.54 948.95 2297.9 915.02 2283.63 850.3 2281 897.97 2196.98 847.15"/><ellipse class="cls-8" cx="591.47" cy="719.87" rx="25.27" ry="25.49"/><ellipse class="cls-4" cx="684.83" cy="711.43" rx="16.74" ry="16.88"/><ellipse class="cls-8" cx="591.47" cy="652" rx="8.37" ry="8.44"/><path class="cls-4" d="M1201.74,649a68,68,0,0,0-38.89-61.41,127.07,127.07,0,0,0,13.62-57.44c0-68.36-53.33-123.81-120.28-127a132.42,132.42,0,0,0,2.63-25.82c0-70.35-56.45-127.29-126.19-127.29S806.42,307.06,806.42,377.4a129.84,129.84,0,0,0,9,47.34,124.53,124.53,0,0,0-34.3-5c-65,0-118.64,49.66-125.37,113.55a42.47,42.47,0,0,0,2.3,79.12,94.33,94.33,0,0,0-11.49,44.86c0,51.48,41.35,93.35,92.55,93.35,44,0,80.74-31.12,90.09-72.66,18.87,33.27,54.15,55.62,94.85,55.62q5.17,0,10.34-.5c19.36,45.19,63.83,76.8,115.85,76.8,62.85,0,114.87-46.51,124.39-107.09A66.55,66.55,0,0,0,1201.74,649Z"/><path class="cls-5" d="M1176.63,530.35c0-68.36-53.33-123.81-120.28-127a132.42,132.42,0,0,0,2.63-25.82c0-70.35-56.45-127.29-126.19-127.29S806.59,307.22,806.59,377.57a129.84,129.84,0,0,0,9,47.34,124.53,124.53,0,0,0-34.3-5c-64,0-116.67,48.17-124.88,110.4-.49,0-.82-.17-1.31-.17a25.49,25.49,0,0,0,0,51,20.59,20.59,0,0,0,4.59-.5c14.6,54,63.34,93.69,121.6,93.69a125.39,125.39,0,0,0,80.57-29.3,125.61,125.61,0,0,0,54,12.41A122.19,122.19,0,0,0,940.66,655c18.71,32.11,51.36,53.3,88.78,53.3,46.6,0,86.15-33.1,99.94-79A126.51,126.51,0,0,0,1176.63,530.35Z"/><path class="cls-6" d="M1038.46,455.86A114.93,114.93,0,0,0,1059,390.31c0-63.23-50.87-114.54-113.56-114.54S831.86,327.08,831.86,390.31a114.39,114.39,0,0,0,8.86,44.36A124.74,124.74,0,0,0,822,454.37a109.77,109.77,0,0,0-38.4-7c-51.53,0-94.85,35.42-107.65,83.42a31.6,31.6,0,0,0-3.94-.33,25.49,25.49,0,0,0,0,51c.66,0,1.31-.17,2-.17,9.85,52.14,55.14,91.53,109.62,91.53a110.47,110.47,0,0,0,77.45-31.61A122.29,122.29,0,0,0,920,656.31a126.41,126.41,0,0,0,15.92-1.16,124.43,124.43,0,0,0,64.65,46,96.76,96.76,0,0,0,31,5.13c.66,0,1.31-.17,2-.17s1.48.17,2.13.17c68.43,0,124.06-55.95,124.06-125.13C1159.73,512.63,1105.57,457.35,1038.46,455.86Z"/><polygon class="cls-7" points="747.68 682.96 882.24 818.68 882.24 920.48 859.53 1241.76 915.38 1241.18 915.88 920.48 915.88 835.73 1067.17 716.89 915.88 801.8 915.88 767.87 1000.06 666.07 915.88 733.61 915.88 564.28 899.14 649.02 848.6 598.21 899.14 666.07 882.24 784.75 848.6 750.82 834.32 686.1 831.86 733.94 747.68 682.96"/><path class="cls-6" d="M2499.13,1390.4H59.84c-32.3,0-58.48-22.53-58.48-50.32v-76.14c0-27.79,26.18-50.32,58.48-50.32H2499.13Z"/><path class="cls-9" d="M2499.13,1400H1.36v-84.42H2499.13Z"/><path class="cls-10" d="M1849.75,1213.13a27.36,27.36,0,0,0,14.77,12.25,23.28,23.28,0,0,0-1.48-20.69,27.36,27.36,0,0,0-14.77-12.25A23.28,23.28,0,0,0,1849.75,1213.13Z"/><path class="cls-10" d="M1881.75,1214.28a25.77,25.77,0,0,1-15.43,11.09,23.24,23.24,0,0,1,2.63-20.52,25.77,25.77,0,0,1,15.43-11.09A23.24,23.24,0,0,1,1881.75,1214.28Z"/><path class="cls-11" d="M1857.14,1206.84a31.58,31.58,0,0,0,8.2,19.53c5.09-5,8.2-12.75,7.71-21.68a31.58,31.58,0,0,0-8.2-19.53C1859.76,1190.12,1856.65,1198.06,1857.14,1206.84Z"/><path class="cls-10" d="M1862.88,1216.93a30.9,30.9,0,0,0,2.63,9.43,28.6,28.6,0,0,0,.16-10.76,30.9,30.9,0,0,0-2.63-9.43A28.46,28.46,0,0,0,1862.88,1216.93Z"/><path class="cls-10" d="M1841.71,1228.52a15,15,0,0,0,7.71,4.47c1.31-2.15,1.15-5-.82-7.45a15,15,0,0,0-7.71-4.47C1839.58,1223.22,1839.75,1226,1841.71,1228.52Z"/><path class="cls-10" d="M1858.12,1228.85a13.37,13.37,0,0,1-7.88,4c-1.15-2.32-.82-5,1.31-7.45a13.37,13.37,0,0,1,7.88-4C1860.75,1223.88,1860.42,1226.53,1858.12,1228.85Z"/><path class="cls-11" d="M1845.49,1226.2a9.71,9.71,0,0,0,4.27,7.12,8.44,8.44,0,0,0,3.94-7.78,9.71,9.71,0,0,0-4.27-7.12A8.44,8.44,0,0,0,1845.49,1226.2Z"/><path class="cls-10" d="M1848.44,1229.84a14,14,0,0,0,1.31,3.48,10.1,10.1,0,0,0,.16-4,14,14,0,0,0-1.31-3.48A6.38,6.38,0,0,0,1848.44,1229.84Z"/><path class="cls-10" d="M2031.86,1364.66a13.75,13.75,0,0,0,7.71,4.3c1.31-2.15,1.15-5-.82-7.45a13.75,13.75,0,0,0-7.71-4.3A6.37,6.37,0,0,0,2031.86,1364.66Z"/><path class="cls-10" d="M2048.44,1365a14.58,14.58,0,0,1-7.88,4.14c-1.15-2.32-.82-5,1.31-7.45a14.58,14.58,0,0,1,7.88-4.14A6.49,6.49,0,0,1,2048.44,1365Z"/><path class="cls-11" d="M2035.8,1362.51a9.6,9.6,0,0,0,4.27,7,8.44,8.44,0,0,0,3.94-7.78,9.6,9.6,0,0,0-4.27-7A7.84,7.84,0,0,0,2035.8,1362.51Z"/><path class="cls-10" d="M2038.59,1366a14,14,0,0,0,1.31,3.48,8,8,0,0,0,0-4,14,14,0,0,0-1.31-3.48A10.69,10.69,0,0,0,2038.59,1366Z"/><path class="cls-10" d="M1180.4,1254.34c3.94,4.63,10,7.95,16.9,9.6,3.12-4.8,2.79-10.76-1.64-16.06-3.94-4.63-10-7.95-16.9-9.6C1175.64,1243.08,1176,1249,1180.4,1254.34Z"/><path class="cls-10" d="M1216.83,1255.33c-4.27,4.47-10.67,7.45-17.56,8.61-2.63-5-1.81-10.92,3-16.06,4.27-4.47,10.67-7.45,17.56-8.61C1222.58,1244.24,1221.75,1250.2,1216.83,1255.33Z"/><path class="cls-11" d="M1188.94,1249.54c.49,6,4.1,11.42,9.35,15.23,5.91-3.81,9.35-9.93,8.7-16.88-.49-6-4.1-11.42-9.35-15.23C1191.73,1236.63,1188.28,1242.75,1188.94,1249.54Z"/><path class="cls-10" d="M1195.34,1257.32a20.7,20.7,0,0,0,3,7.45c.82-2,.82-5,.16-8.44a20.7,20.7,0,0,0-3-7.45C1194.68,1250.86,1194.68,1254,1195.34,1257.32Z"/><polygon class="cls-12" points="644.31 315.66 1.94 315.66 0 -187.63 644.31 315.66"/><polygon class="cls-13" points="598.2 315.66 1.94 315.66 0 -151.49 598.2 315.66"/><polygon class="cls-14" points="534.69 315.66 1.94 315.66 0 -101.83 489.89 280.74 534.69 315.66"/><polygon class="cls-15" points="534.69 315.66 1.94 315.66 0 280.74 489.89 280.74 534.69 315.66"/><polygon class="cls-13" points="644.31 315.66 633.81 344.8 621.34 379.72 1.36 388.49 1.94 315.66 644.31 315.66"/><polygon class="cls-14" points="633.81 344.8 621.34 379.72 1.36 388.49 1.71 344.8 633.81 344.8"/><rect class="cls-16" x="1.36" y="379.72" width="619.97" height="966.82"/><rect class="cls-14" y="799.15" width="621.34" height="55.28"/><rect class="cls-17" x="1.36" y="379.72" width="619.97" height="17.55"/><line class="cls-18" x1="1.36" y1="886.55" x2="621.34" y2="886.55"/><line class="cls-18" x1="1.36" y1="921.47" x2="621.34" y2="921.47"/><line class="cls-18" x1="1.36" y1="950.61" x2="621.34" y2="950.61"/><line class="cls-18" x1="1.36" y1="979.74" x2="621.34" y2="979.74"/><line class="cls-18" y1="426.4" x2="621.34" y2="426.4"/><line class="cls-18" y1="461.32" x2="621.34" y2="461.32"/><line class="cls-18" y1="490.45" x2="621.34" y2="490.45"/><line class="cls-18" y1="519.59" x2="621.34" y2="519.59"/><line class="cls-18" y1="554.51" x2="621.34" y2="554.51"/><line class="cls-18" y1="589.44" x2="621.34" y2="589.44"/><line class="cls-18" y1="618.57" x2="621.34" y2="618.57"/><line class="cls-18" y1="647.7" x2="621.34" y2="647.7"/><line class="cls-18" y1="682.63" x2="621.34" y2="682.63"/><line class="cls-18" x1="1.36" y1="717.55" x2="621.34" y2="717.55"/><line class="cls-18" x1="1.36" y1="746.68" x2="621.34" y2="746.68"/><line class="cls-18" x1="1.36" y1="775.82" x2="621.34" y2="775.82"/><line class="cls-18" y1="1014.66" x2="621.34" y2="1014.66"/><line class="cls-18" y1="1043.8" x2="621.34" y2="1043.8"/><line class="cls-18" y1="1078.72" x2="621.34" y2="1078.72"/><line class="cls-18" y1="1113.65" x2="621.34" y2="1113.65"/><line class="cls-18" y1="1142.78" x2="621.34" y2="1142.78"/><line class="cls-18" y1="1177.7" x2="621.34" y2="1177.7"/><line class="cls-18" y1="1212.63" x2="621.34" y2="1212.63"/><line class="cls-18" y1="1241.76" x2="621.34" y2="1241.76"/><line class="cls-18" y1="1276.69" x2="621.34" y2="1276.69"/><line class="cls-18" y1="1311.61" x2="621.34" y2="1311.61"/><line class="cls-18" x1="286.41" y1="1340.74" x2="621.34" y2="1340.74"/><rect class="cls-17" x="286.41" y="426.4" width="167.38" height="221.3"/><rect class="cls-19" x="303.65" y="461.32" width="52.02" height="46.68"/><rect class="cls-19" x="367.15" y="572.06" width="52.02" height="46.68"/><rect class="cls-19" x="303.65" y="519.59" width="52.02" height="98.98"/><rect class="cls-19" x="367.15" y="461.32" width="52.02" height="98.98"/><path class="cls-10" d="M2009.55,1347.78c3.94,10.92,10,18.54,16.9,22.18,3.12-11.09,2.79-24.83-1.64-37.41-3.94-10.92-10-18.54-16.9-22.18C2004.79,1321.46,2005.12,1335.36,2009.55,1347.78Z"/><path class="cls-10" d="M2046,1349.93c-4.27,10.43-10.67,17.38-17.56,20a64.33,64.33,0,0,1,3-37.08c4.27-10.43,10.67-17.38,17.56-20A64.33,64.33,0,0,1,2046,1349.93Z"/><path class="cls-11" d="M2017.92,1336.52c.49,13.9,4.1,26.48,9.35,35.26,5.91-8.94,9.35-23.17,8.7-39.06-.49-13.9-4.1-26.48-9.35-35.26C2020.87,1306.23,2017.42,1320.47,2017.92,1336.52Z"/><path class="cls-10" d="M2024.32,1354.56a92,92,0,0,0,3,17.21c.82-4.63.82-11.75.16-19.53a92,92,0,0,0-3-17.21A93.84,93.84,0,0,0,2024.32,1354.56Z"/><path class="cls-10" d="M1802.94,1365.07a27.36,27.36,0,0,0,14.77,12.25,23.28,23.28,0,0,0-1.48-20.69,27.36,27.36,0,0,0-14.77-12.25A23.28,23.28,0,0,0,1802.94,1365.07Z"/><path class="cls-10" d="M1834.94,1366.23a25.77,25.77,0,0,1-15.43,11.09,23.24,23.24,0,0,1,2.63-20.52,25.77,25.77,0,0,1,15.43-11.09A23.24,23.24,0,0,1,1834.94,1366.23Z"/><path class="cls-11" d="M1810.33,1358.78a31.58,31.58,0,0,0,8.2,19.53c5.09-5,8.2-12.75,7.71-21.68a31.58,31.58,0,0,0-8.2-19.53C1813,1342.06,1809.84,1350,1810.33,1358.78Z"/><path class="cls-10" d="M1816.07,1368.88a30.9,30.9,0,0,0,2.63,9.43,28.6,28.6,0,0,0,.16-10.76,30.9,30.9,0,0,0-2.63-9.43A28.46,28.46,0,0,0,1816.07,1368.88Z"/><path class="cls-10" d="M1794.9,1380.46a15,15,0,0,0,7.71,4.47c1.31-2.15,1.15-5-.82-7.45a15,15,0,0,0-7.71-4.47C1792.77,1375.17,1792.93,1378,1794.9,1380.46Z"/><path class="cls-10" d="M1811.31,1381a13.37,13.37,0,0,1-7.88,4c-1.15-2.32-.82-5,1.31-7.45a13.37,13.37,0,0,1,7.88-4C1813.94,1375.83,1813.61,1378.48,1811.31,1381Z"/><path class="cls-11" d="M1798.68,1378.15a9.71,9.71,0,0,0,4.27,7.12,8.44,8.44,0,0,0,3.94-7.78,9.71,9.71,0,0,0-4.27-7.12A8.44,8.44,0,0,0,1798.68,1378.15Z"/><path class="cls-20" d="M496.36,1226.2s-13.15,146.88,30.8,146.87c209.65-.08,170.22-13,271.21-50.7,133.44-49.82,27.64,164.59,279-6.79,22.3-15.21,83-22.68,162-25.39,68.6-2.36,151.3-6.33,233.77,1.75,144.15,14.12,162.75-82.38,219.23-40.09,32.05,24,251.81,25.66,276,25.66,139.31,0,44.75-87.13,88.06-149.47"/><path class="cls-10" d="M1517,1360.1c3.94,10.92,10,18.54,16.9,22.18,3.12-11.09,2.79-24.83-1.64-37.41-3.94-10.92-10-18.54-16.9-22.18A63.74,63.74,0,0,0,1517,1360.1Z"/><path class="cls-10" d="M1553.46,1362.25c-4.27,10.43-10.67,17.38-17.56,20a64.33,64.33,0,0,1,3-37.08c4.27-10.43,10.67-17.38,17.56-20A64.33,64.33,0,0,1,1553.46,1362.25Z"/><path class="cls-11" d="M1525.4,1348.84c.49,13.9,4.1,26.48,9.35,35.26,5.91-8.94,9.35-23.17,8.7-39.06-.49-13.9-4.1-26.48-9.35-35.26C1528.35,1318.72,1524.9,1333,1525.4,1348.84Z"/><path class="cls-10" d="M1531.8,1367.05a92,92,0,0,0,3,17.21c.82-4.63.82-11.75.16-19.53a92,92,0,0,0-3-17.21A93.35,93.35,0,0,0,1531.8,1367.05Z"/><path class="cls-10" d="M1539.34,1377.15a13.75,13.75,0,0,0,7.71,4.3c1.31-2.15,1.15-5-.82-7.45a13.75,13.75,0,0,0-7.71-4.3C1537.21,1371.85,1537.37,1374.67,1539.34,1377.15Z"/><path class="cls-10" d="M1555.92,1377.48a14.58,14.58,0,0,1-7.88,4.14c-1.15-2.32-.82-5,1.31-7.45a14.58,14.58,0,0,1,7.88-4.14C1558.38,1372.35,1558.05,1375,1555.92,1377.48Z"/><path class="cls-11" d="M1543.28,1374.83a9.6,9.6,0,0,0,4.27,7,8.44,8.44,0,0,0,3.94-7.78,9.6,9.6,0,0,0-4.27-7A8,8,0,0,0,1543.28,1374.83Z"/><path class="cls-10" d="M1546.07,1378.47a14,14,0,0,0,1.31,3.48,8,8,0,0,0,0-4,14,14,0,0,0-1.31-3.48A10.61,10.61,0,0,0,1546.07,1378.47Z"/><path class="cls-10" d="M925,1329.66c3.94,10.92,10,18.54,16.9,22.18,3.12-11.09,2.79-24.83-1.64-37.41-3.94-10.92-10-18.54-16.9-22.18A63.74,63.74,0,0,0,925,1329.66Z"/><path class="cls-10" d="M961.39,1331.81c-4.27,10.43-10.67,17.38-17.56,20a64.33,64.33,0,0,1,3-37.08c4.27-10.43,10.67-17.38,17.56-20A64.33,64.33,0,0,1,961.39,1331.81Z"/><path class="cls-11" d="M933.33,1318.41c.49,13.9,4.1,26.48,9.35,35.26,5.91-8.94,9.35-23.17,8.7-39.06-.49-13.9-4.1-26.48-9.35-35.26C936.28,1288.28,932.83,1302.52,933.33,1318.41Z"/><path class="cls-10" d="M939.73,1336.61a92,92,0,0,0,3,17.21c.82-4.63.82-11.75.16-19.53a92,92,0,0,0-3-17.21A93.36,93.36,0,0,0,939.73,1336.61Z"/><path class="cls-10" d="M947.27,1346.71A13.75,13.75,0,0,0,955,1351c1.31-2.15,1.15-5-.82-7.45a13.75,13.75,0,0,0-7.71-4.3C945.14,1341.41,945.31,1344.23,947.27,1346.71Z"/><path class="cls-10" d="M963.85,1347a14.58,14.58,0,0,1-7.88,4.14c-1.15-2.32-.82-5,1.31-7.45a14.58,14.58,0,0,1,7.88-4.14C966.31,1341.91,966,1344.56,963.85,1347Z"/><path class="cls-11" d="M951.21,1344.39a9.6,9.6,0,0,0,4.27,7,8.44,8.44,0,0,0,3.94-7.78,9.6,9.6,0,0,0-4.27-7A8,8,0,0,0,951.21,1344.39Z"/><path class="cls-10" d="M954,1348a14,14,0,0,0,1.31,3.48,8,8,0,0,0,0-4,14,14,0,0,0-1.31-3.48A10.61,10.61,0,0,0,954,1348Z"/><path class="cls-21" d="M1982,1229.84h108.14a17.3,17.3,0,0,0,17.23-17.38v-1.16a17.3,17.3,0,0,0-17.23-17.38H1982a17.3,17.3,0,0,0-17.23,17.38v1.32A17.27,17.27,0,0,0,1982,1229.84Z"/><path class="cls-22" d="M1956.11,1128c-5.74-18.54-14.93-31.78-25.44-35.26h0a16.77,16.77,0,0,0-5.74-1c-1.15,0-31-2.65-33.31-2.65a16.8,16.8,0,0,0-4.92.66,26,26,0,0,0-10.67,6.79c-13.13,13.41-22.32,43-22.32,77.63s9.19,64.22,22.32,77.63c4.76,4.8,10,7.45,15.59,7.45h33.31c13,0,24.29-14.4,31.18-36.25,4.27-13.57,6.73-30,6.73-47.5C1962.67,1158,1960.21,1141.62,1956.11,1128Z"/><path class="cls-23" d="M1840.09,1207.83l-.82.66-.16.17-127.5,8.44h-.49l-12.64-1.66a135,135,0,0,1,8.37-34.59c1.48-3.81,3.12-7.45,4.76-10.76,13.13-26,34.3-42.87,58.25-42.87,22,0,41.84,14.4,55,37.24a86.32,86.32,0,0,1,5.25,10.26A129.62,129.62,0,0,1,1840.09,1207.83Z"/><path d="M2234.25,1174.89a13.27,13.27,0,0,1-1.48,7.12,35.7,35.7,0,0,1-13,14.07,44,44,0,0,1-6.24,3.14L2163.2,1214l-140.8-.66,90.42-7.78c25.11-27.48,33.48-71.84,33.48-71.84,8.37-29.63,31.51-29.63,31.51-29.63h10.5c18.87,0,21,14.73,21,14.73l1.31,10.59a5.41,5.41,0,0,0,6.89,4.47l8.86-2.65a7.64,7.64,0,0,0,5.42-6.29l1.15,13.57Z"/><path class="cls-24" d="M2211.28,1165.45c-5.42-15.23-13.95-26-24-29h0a20.47,20.47,0,0,0-5.42-.83c-1.15,0-29.21-2.15-31.51-2.15a21.69,21.69,0,0,0-4.59.5,22.63,22.63,0,0,0-10,5.63c-12.31,10.92-21,35.26-21,63.73s8.53,52.64,21,63.73c4.43,4,9.52,6.12,14.6,6.12h31.51c12.14,0,23-11.75,29.37-29.79a125,125,0,0,0,0-78Z"/><ellipse class="cls-25" cx="2181.91" cy="1204.52" rx="35.61" ry="68.69"/><ellipse class="cls-26" cx="2186.34" cy="1204.52" rx="24.12" ry="46.51"/><path class="cls-27" d="M2231.63,1123.08a7.86,7.86,0,0,1-5.42,8.11l-8.86,2.65a5.41,5.41,0,0,1-6.89-4.47l-1.31-10.59s-2.13-14.73-21-14.73h-10.5s-23.14,0-31.51,29.63c0,0-8.37,44.36-33.48,71.84l-92.06,7.95a6.1,6.1,0,0,1-6.56-6.12V896.65h28.55c13.78,0,26.75,10.59,35.12,21.52l74.66,96.83,64.16,35.26a19.3,19.3,0,0,1,10,15.56l.16,2.15,4.1,48.5Z"/><path class="cls-22" d="M1528.8,1183c-7.06-18.54-18.38-31.78-31.18-35.26h0a25.07,25.07,0,0,0-7.06-1c-1.48,0-38.23-2.65-41-2.65a25.28,25.28,0,0,0-6.07.66,34.43,34.43,0,0,0-13.13,6.79c-16.08,13.41-27.4,43-27.4,77.63s11.16,64.22,27.4,77.63c5.91,4.8,12.31,7.45,19.2,7.45h41c15.92,0,29.87-14.4,38.4-36.25,5.25-13.57,8.2-30,8.2-47.5C1537,1213,1534,1196.57,1528.8,1183Z"/><path class="cls-28" d="M2231.63,1123.08a7.86,7.86,0,0,1-5.42,8.11l-8.86,2.65a5.41,5.41,0,0,1-6.89-4.47l-1.31-10.59s-2.13-14.73-21-14.73h-10.5s-23.14,0-31.51,29.63c0,0-8.37,44.36-33.48,71.84l-92.06,7.95a6.1,6.1,0,0,1-6.56-6.12V900.95h28.55a44.26,44.26,0,0,1,35.12,17.38l74.66,96.83,64.16,35.26a19.3,19.3,0,0,1,10,15.56l.16,2.15,4.1,48.5Z"/><path class="cls-29" d="M2231.13,1116.46l-6.4-7a12.79,12.79,0,0,1-3.28-7.95l-1.81-32.11A1.35,1.35,0,0,1,2221,1068h5.91l.16,1.16,3.45,40.06Z"/><polygon class="cls-30" points="1179.43 1220.41 1483.51 1232.99 1483.51 695.7 1179.43 738.08 1179.43 1220.41"/><path class="cls-31" d="M2138.91,1011.35l3.12,105.44s-1,5.13-10.5,33.77c-6.24,19-18.87,40.22-18.87,40.22l-86,6.29s-2.13-78.29-8.37-287.68Z"/><rect class="cls-32" x="2171.4" y="1006.72" width="4.27" height="8.44"/><polygon class="cls-33" points="1210.94 776.48 1210.94 1221.07 1196.34 1220.41 1196.34 778.3 1210.94 776.48"/><polygon class="cls-33" points="1461.08 740.04 1461.08 1232.06 1446.47 1231.46 1446.47 742.87 1461.08 740.04"/><path class="cls-21" d="M2021.91,1212l-2-27.48L1483.51,1233l-1.48-1.16-135.54-4.63,136.86,23.34v.17h.49l2.79-.17,46.11-3.31.33,5.13a13.45,13.45,0,0,0,14.28,12.58L1685,1255a14,14,0,0,0,6.89,1.49L1898,1241.76a13.48,13.48,0,0,0,12.47-14.4l-.49-7.12,94.52-6.79Z"/><path class="cls-24" d="M1821.38,1208.49c-8-18.54-20.68-31.78-35.12-35.26h0a32.1,32.1,0,0,0-7.88-1c-1.64,0-43-2.65-46.28-2.65a29.94,29.94,0,0,0-6.73.66,39.91,39.91,0,0,0-14.77,6.79c-18.21,13.41-30.85,43-30.85,77.63s12.64,64.22,30.85,77.63a36.41,36.41,0,0,0,21.5,7.45h46.28c17.89,0,33.64-14.4,43.16-36.25a123,123,0,0,0,9.19-47.5C1830.57,1238.28,1827.29,1221.9,1821.38,1208.49Z"/><ellipse class="cls-25" cx="1778.23" cy="1256" rx="52.35" ry="83.92"/><ellipse class="cls-26" cx="1783.64" cy="1257.98" rx="34.79" ry="55.78"/><path class="cls-34" d="M1184.19,1066.47h0a4.78,4.78,0,0,1-4.76-4.8v-30.13a4.78,4.78,0,0,1,4.76-4.8h0a4.78,4.78,0,0,1,4.76,4.8v30.13A4.78,4.78,0,0,1,1184.19,1066.47Z"/><path class="cls-35" d="M1184.19,1129.37h0a4.78,4.78,0,0,1-4.76-4.8v-30.13a4.78,4.78,0,0,1,4.76-4.8h0a4.78,4.78,0,0,1,4.76,4.8v30.13A4.78,4.78,0,0,1,1184.19,1129.37Z"/><path class="cls-36" d="M2021.42,765.55v431.52l-181.16,12.08h-1a121.59,121.59,0,0,0-12-34.43,90.15,90.15,0,0,0-6.4-10.26c-11.81-16.55-27.57-26.81-44.8-26.81-18.87,0-35.94,12.08-48.08,31.61a115.31,115.31,0,0,0-5.91,10.92,131.72,131.72,0,0,0-10.83,37.57l-13.29.83-12.14.83-57.6,3.81-41.68,2.81-103.05,7V695.7l197.41,25.66,120.45,15.72,38.4,5,53,7Z"/><path class="cls-37" d="M1711.6,1170.25l16.41-.83a115.31,115.31,0,0,0-5.91,10.92l-15.43.83-189.7,9.77v-10.59Z"/><path class="cls-37" d="M2014.2,1154.86v10.59l-184,9.43-2.79.17a90.15,90.15,0,0,0-6.4-10.26l3.94-.17Z"/><path class="cls-38" d="M1840.25,1209.15h-1c0-.17-.16-.5-.16-.66a121,121,0,0,0-11.81-33.6,90.15,90.15,0,0,0-6.4-10.26c-11.81-16.55-27.57-26.81-44.8-26.81-18.87,0-35.94,12.08-48.08,31.61a115.31,115.31,0,0,0-5.91,10.92,127.16,127.16,0,0,0-10.67,36.91c0,.17-.16.5-.16.66l-13.29.83c.16-1,.16-2.15.33-3.14a135,135,0,0,1,8.37-34.59c1.48-3.81,3.12-7.45,4.76-10.76,13.13-26,34.3-42.87,58.25-42.87,22,0,41.84,14.4,55,37.24a86.32,86.32,0,0,1,5.25,10.26,129.47,129.47,0,0,1,9.85,33.1A1.51,1.51,0,0,1,1840.25,1209.15Z"/><polygon class="cls-3" points="1801.36 737.08 1586.56 1226.2 1483.51 1232.99 1483.51 1170.59 1680.92 721.36 1801.36 737.08"/><polygon class="cls-3" points="1892.6 748.84 1686 1219.58 1628.4 1223.39 1839.76 742.05 1892.6 748.84"/><path class="cls-34" d="M1509.76,1028.4v24.17a11.13,11.13,0,0,1-10.17,11.09h-17.72a11,11,0,0,1-11-11.09V1028.4a11,11,0,0,1,11-11.09h16.74a10.5,10.5,0,0,1,3.28.5,10,10,0,0,1,2,.83,11.58,11.58,0,0,1,3.61,3.31A10,10,0,0,1,1509.76,1028.4Z"/><path class="cls-35" d="M1509.76,1102.39v24.17a11.21,11.21,0,0,1-9.68,11.09,3.58,3.58,0,0,1-1.31.17H1482a11,11,0,0,1-11-11.09v-24.17a11,11,0,0,1,11-11.09h16.74a8.76,8.76,0,0,1,3.61.66,5.53,5.53,0,0,1,2,1,10.38,10.38,0,0,1,3.61,3.48A9.72,9.72,0,0,1,1509.76,1102.39Z"/><path class="cls-39" d="M1477.27,1063.82h0a6.26,6.26,0,0,1-6.24-6.29v-33.77a6.26,6.26,0,0,1,6.24-6.29h0a6.26,6.26,0,0,1,6.24,6.29v33.77A6.26,6.26,0,0,1,1477.27,1063.82Z"/><path class="cls-40" d="M1477.27,1137.81h0a6.26,6.26,0,0,1-6.24-6.29v-33.77a6.26,6.26,0,0,1,6.24-6.29h0a6.26,6.26,0,0,1,6.24,6.29v33.77A6.26,6.26,0,0,1,1477.27,1137.81Z"/><path class="cls-41" d="M1502.05,1017.81l-8.86,46h-8.53l8.86-46.51h5.09A10.83,10.83,0,0,1,1502.05,1017.81Z"/><path class="cls-41" d="M1507.63,1021.95l-8,41.88h-4.27l8.7-45.19A11.58,11.58,0,0,1,1507.63,1021.95Z"/><path class="cls-41" d="M1502.38,1092l-8.7,45.85h-8.53l8.86-46.51h4.76A12.7,12.7,0,0,1,1502.38,1092Z"/><path class="cls-41" d="M1508,1096.43l-7.88,41.38a3.58,3.58,0,0,1-1.31.17h-3l8.53-45A9.16,9.16,0,0,1,1508,1096.43Z"/><path class="cls-32" d="M2167.79,1011H2155a4.43,4.43,0,0,1-4.43-4.47v-46a4.43,4.43,0,0,1,4.43-4.47h12a13,13,0,0,1,13,13.08v29.79A12.35,12.35,0,0,1,2167.79,1011Z"/><path class="cls-42" d="M2164.84,1011H2155a4.61,4.61,0,0,1-4.59-4.63V960.54a4.61,4.61,0,0,1,4.59-4.63h9.85a4.61,4.61,0,0,1,4.59,4.63v45.85A4.83,4.83,0,0,1,2164.84,1011Z"/><path class="cls-43" d="M2124.14,1026.75l-50.21-2-13.95-.5-10.83-.5-22.74-.17V909.39c42,0,44.24,10.59,44.24,10.59l15.26,19.7,7.06,8.94,9,11.75,33.64,43.2C2143.18,1013.17,2136.12,1027.08,2124.14,1026.75Z"/><path class="cls-35" d="M2230.48,1109.34h-.33a6.69,6.69,0,0,1-7.06-6.46l-.82-14.4-.66-12.25a7,7,0,0,1,5.58-7.12l1.64,19Z"/><path class="cls-44" d="M2175.67,1015.16h-4.43a1.9,1.9,0,0,0-2,2v.17H2139.9v4.3h35.77a1.9,1.9,0,0,0,2-2v-2.32A2,2,0,0,0,2175.67,1015.16Z"/><path class="cls-24" d="M2239.5,1172.08a16.83,16.83,0,0,1-2.46,9.6c-3.28,5.13-5.42,8.77-17.23,14.57l-2.13-42.37c0-25.32-15.92-28.14-15.92-28.14l26.26-1.49c4.92-.33,9.19,2.81,9.52,7Z"/><path class="cls-45" d="M2230.48,1109.34h-.33a6.69,6.69,0,0,1-7.06-6.46l-.82-14.4,6.56-.33Z"/><path class="cls-46" d="M2086.07,939.68l-36.92,84.09-22.74-.17V909.39c42,0,44.24,10.59,44.24,10.59Z"/><polygon class="cls-46" points="2102.15 960.37 2073.93 1024.76 2059.98 1024.26 2093.13 948.79 2102.15 960.37"/><polygon class="cls-47" points="453.79 649.69 286.42 649.69 240.14 649.69 257.53 687.76 286.42 687.76 453.79 687.76 482.68 687.76 500.07 649.69 453.79 649.69"/><polygon class="cls-17" points="286.61 1008.37 286.42 1008.37 197.67 1008.37 197.67 1346.7 286.42 1346.7 286.61 1346.7 375.36 1346.7 375.36 1008.37 286.61 1008.37"/><path class="cls-19" d="M336,1092c.16-36.66-21.4-66.69-48.51-68.13v-.07c-.34,0-.68,0-1,0s-.67,0-1,0v.07c-27.11,1.44-48.67,31.46-48.51,68.13,0,36.74,21.47,66.57,48.35,68.12v.07h.16c.34,0,.68,0,1,0s.67,0,1,0h.16v-.07C314.49,1158.53,336,1128.71,336,1092Z"/><circle class="cls-48" cx="343.19" cy="1175.61" r="13.02"/><path class="cls-48" d="M289.7,1246.06h53.82c-.16-29.3-23.63-53-52.68-53H289.7Z"/><rect class="cls-48" x="290.03" y="1252.19" width="53.17" height="74.15"/><path class="cls-48" d="M283.16,1193.1H282c-29,0-52.51,23.67-52.68,53h53.82Z"/><rect class="cls-48" x="229.67" y="1252.19" width="53.17" height="74.15"/></g><g id="Layer_2" data-name="Layer 2"><path class="cls-49" d="M407.27,1173.4a32.77,32.77,0,0,0-4.55,16.39c0,28.73,40.16,52,89.69,52,45.48,0,83.05-19.63,88.9-45.08"/><path class="cls-49" d="M581.31,1196.73c-59.66,64.29-178.79,28-174-23.33"/><path class="cls-50" d="M581.31,1196.73a30.9,30.9,0,0,0,.8-6.93c0-28.73-40.16-52-89.69-52-39.66,0-73.3,14.93-85.14,35.62C402.53,1224.74,521.65,1261,581.31,1196.73Z"/><path class="cls-51" d="M474.41,1188.63l-1.89,31.74,13,26v17.42h21v-17.42l13.93-26-1.95-30.42C504.69,1193.95,490,1194.45,474.41,1188.63Z"/><path class="cls-52" d="M518.5,1189.95l-1.09-14-42.08.18-.93,12.54C489.87,1198.49,504.59,1197.79,518.5,1189.95Z"/><circle class="cls-53" cx="494.62" cy="1177.7" r="32.78"/><path class="cls-54" d="M510.08,1180.67c11.86-11.86-12.74-34-21.5-25.23"/><path class="cls-55" d="M503.66,1178.13a1.72,1.72,0,0,0-1.34-.64h-15.4a1.72,1.72,0,0,0-1.34.64l-2.43,3h22.95Z"/><path class="cls-56" d="M477.08,1195.27l.62,4.18a1.12,1.12,0,0,0,1.15.79h4a1.12,1.12,0,0,0,1.15-.79l.49-3.33q-3.64-.3-7.27-.82Z"/><path class="cls-56" d="M504.71,1196.13l.49,3.33a1.12,1.12,0,0,0,1.15.79h4a1.12,1.12,0,0,0,1.15-.79l.62-4.18-.17,0Q508.35,1195.83,504.71,1196.13Z"/><path class="cls-56" d="M514.58,1180.06l-1.07-.37a1,1,0,0,0-.69,0l-2.74,1-4.5-5.57a2.08,2.08,0,0,0-1.62-.77H485.29a2.09,2.09,0,0,0-1.63.78l-4.5,5.57-2.74-1a1,1,0,0,0-.69,0l-1.07.37a1,1,0,0,0-.7,1,.71.71,0,0,0,.3.58l1.27.88a1,1,0,0,0,.6.19H477a21.3,21.3,0,0,0-1.51,10.79,2.09,2.09,0,0,0,1.59,1.78l.17,0q3.64.52,7.27.82a121.25,121.25,0,0,0,20.19,0q3.64-.3,7.27-.82l.17,0a2.09,2.09,0,0,0,1.59-1.79,21.3,21.3,0,0,0-1.51-10.79h.87a1,1,0,0,0,.59-.19l1.27-.88a.71.71,0,0,0,.31-.59A1,1,0,0,0,514.58,1180.06Zm-31.43,1.08,2.43-3a1.72,1.72,0,0,1,1.34-.64h15.4a1.72,1.72,0,0,1,1.34.64l2.44,3Z"/><path class="cls-57" d="M490.78,1157.84l-4.07-4.43c-.81-.88-6.6,3.1-7.48,3.91l-.79.73-.36-.39a.42.42,0,0,0-.6,0l-1.93,1.77a.42.42,0,0,0,0,.6l1.17,1.28-2.23,2a.19.19,0,0,0,0,.27l.79.86a.19.19,0,0,0,.27,0l2.21-2L481,1166l-2.21,2a.19.19,0,0,0,0,.27l.79.86a.19.19,0,0,0,.27,0l2.23-2,1.17,1.28a.42.42,0,0,0,.6,0l1.93-1.77a.42.42,0,0,0,0-.6l-.36-.39.79-.73C487.12,1164.15,491.59,1158.72,490.78,1157.84Z"/></g></svg>