<svg xmlns="http://www.w3.org/2000/svg" xmlns:xlink="http://www.w3.org/1999/xlink" viewBox="0 0 2500 1400"><defs><style>.cls-1,.cls-3{isolation:isolate;}.cls-2{fill:url(#linear-gradient);}.cls-15,.cls-3,.cls-78{fill:#fff;}.cls-3{opacity:0.37;}.cls-4{mix-blend-mode:hard-light;}.cls-5{fill:#455063;}.cls-6{fill:#556077;}.cls-7{fill:#454956;}.cls-8{fill:#565454;}.cls-10,.cls-14,.cls-22,.cls-9{fill:#bbb;}.cls-69,.cls-9{opacity:0.79;}.cls-10,.cls-11,.cls-14,.cls-21,.cls-32,.cls-36,.cls-40,.cls-41,.cls-44,.cls-46,.cls-55,.cls-67,.cls-69,.cls-70,.cls-73,.cls-81,.cls-9{mix-blend-mode:multiply;}.cls-10,.cls-70{opacity:0.46;}.cls-12,.cls-69,.cls-70,.cls-73{fill:#bcbcbc;}.cls-13{fill:#1c1c1c;}.cls-14,.cls-73{opacity:0.77;}.cls-16{fill:#ffa31f;}.cls-17{fill:#231f20;}.cls-18{fill:#9d9d9d;}.cls-19{fill:#e5e6e7;}.cls-20{fill:#333;}.cls-21{opacity:0.67;}.cls-23,.cls-32{fill:#d0d2d3;}.cls-24{fill:#3d3d3d;}.cls-25{fill:#bebebe;}.cls-26{fill:#545454;}.cls-27{fill:#fbbf2e;}.cls-28{fill:#dc4747;}.cls-29{fill:#9a4e4e;}.cls-30{fill:#bbbdbf;}.cls-31{fill:#010101;}.cls-33{fill:#818181;}.cls-34{fill:#28211f;}.cls-35{fill:#dfdbdb;}.cls-36,.cls-40,.cls-41,.cls-44,.cls-46,.cls-49{fill:#a4a4a4;}.cls-36,.cls-67{opacity:0.51;}.cls-37{fill:#383838;}.cls-38{fill:#7c7c7c;}.cls-39{fill:#686868;}.cls-40{opacity:0.32;}.cls-41,.cls-81{opacity:0.38;}.cls-42{fill:#565656;}.cls-43{fill:#3f3f3f;}.cls-44,.cls-55{opacity:0.75;}.cls-45{fill:#7c7b7a;}.cls-47{fill:#00a451;}.cls-48{fill:#161616;}.cls-50{fill:#88c348;}.cls-51{fill:none;stroke:#f27139;stroke-width:2px;}.cls-51,.cls-62{stroke-miterlimit:10;}.cls-52{fill:#f27139;}.cls-53{fill:#e66c54;}.cls-54{fill:#ff876c;}.cls-55,.cls-67,.cls-81{fill:#a5a5a5;}.cls-56{fill:#c4bcb0;}.cls-57{fill:#bfbfbf;}.cls-58{fill:#f1f2f2;}.cls-59{fill:#8d99a5;}.cls-60{fill:#fcc02e;}.cls-61{fill:#dd4747;}.cls-62{fill:#c1272d;stroke:#ab272d;}.cls-63{fill:#ab272d;}.cls-64{fill:#d1d3d4;}.cls-65{fill:#828282;}.cls-66{opacity:0.19;}.cls-68{fill:#e0dcdc;}.cls-71{fill:#bdbdbd;}.cls-72{fill:#2f302d;}.cls-74{fill:#ffcf8f;}.cls-75{fill:#d14e4e;}.cls-76{fill:#9e9e9e;}.cls-77{fill:#e6e7e8;}.cls-78{mix-blend-mode:soft-light;}.cls-79{fill:#88c449;}.cls-80{fill:#7da84c;}</style><linearGradient id="linear-gradient" x1="1247.75" y1="1070.1" x2="1247.75" y2="176.94" gradientTransform="translate(-0.02 0.03)" gradientUnits="userSpaceOnUse"><stop offset="0" stop-color="#fff"/><stop offset="0.15" stop-color="#cfe3f3"/><stop offset="0.38" stop-color="#86b9e0"/><stop offset="0.59" stop-color="#4c98d1"/><stop offset="0.77" stop-color="#2380c7"/><stop offset="0.92" stop-color="#0971c0"/><stop offset="1" stop-color="#006cbe"/></linearGradient></defs><title>qc-bg1.svg</title><g class="cls-1"><g id="Layer_1" data-name="Layer 1"><rect id="_Path_" data-name="&lt;Path&gt;" class="cls-2" x="-4.5" y="-11.78" width="2504.5" height="1411.78"/><path class="cls-3" d="M-1.4-17.08-4.52,380l311.77-46.92a1170.64,1170.64,0,0,1,342.26-1L885.84,366.3a708.09,708.09,0,0,0,106,7.29l402.95-39.09a926.63,926.63,0,0,1,152.4-2.2l428.95,29.17a992.59,992.59,0,0,0,155-1.59l352.2-31.21c10.1-.89,17.87-10.47,17.8-21.93l-2-323.89Z"/><g class="cls-4"><polygon class="cls-5" points="2372.1 1031.02 2372.1 805.25 2362.45 805.25 2362.45 833.75 2334.18 833.75 2334.18 823.06 2327.29 823.06 2327.29 815.33 2305.23 815.33 2305.23 833.75 2294.55 833.75 2294.55 815.67 2278 815.67 2278 828.88 2272.83 828.88 2272.83 833.75 2263.18 833.75 2263.18 634.59 2240.43 634.59 2240.43 608.87 2193.2 608.87 2193.21 630.07 2184.59 630.07 2184.59 605.39 2136.68 605.39 2136.68 532.4 1949.17 532.4 1949.17 655.45 1923.66 655.45 1923.67 703.76 1874.03 703.76 1874.03 519.54 1865.07 519.54 1865.07 510.86 1859.9 510.86 1859.89 476.1 1837.49 476.1 1837.49 497.3 1837.49 510.51 1829.22 510.51 1829.22 527.54 1759.25 527.54 1751.32 527.54 1751.32 510.16 1706.86 510.16 1706.86 671.79 1691.7 671.79 1691.69 630.77 1674.12 630.77 1674.12 616.52 1649.99 616.52 1649.99 630.43 1636.55 630.43 1636.55 652.33 1614.14 652.33 1614.14 625.22 1481.1 625.22 1370.11 625.22 1370.11 603.67 1312.55 603.67 1312.54 542.5 1280.49 542.5 1280.49 620.7 1265.32 620.71 1265.33 695.43 1258.09 695.43 1258.09 717.68 1252.57 717.68 1252.58 768.08 1216.38 768.08 1216.38 712.82 1216.38 510.87 1096.08 510.87 1096.09 594.64 1073.68 594.64 1073.68 723.59 1067.48 723.59 1067.48 646.43 1036.11 646.43 1036.11 725.68 1026.81 725.68 1026.8 401.74 924.77 401.74 924.78 629.4 911.68 629.4 911.68 562.67 855.84 562.67 855.85 735.76 821.72 735.76 821.72 701.01 803.8 701.01 803.8 714.56 750.37 714.56 750.37 529.65 672.82 529.65 672.81 231.08 647.3 231.08 647.3 212.31 617.66 212.31 614.55 37.83 611.46 212.31 611.11 212.31 581.81 212.31 581.81 228.3 559.06 228.3 559.07 663.47 460.15 663.48 460.15 690.59 398.8 690.59 398.8 550.51 394.66 550.51 394.66 542.87 363.98 516.8 331.24 541.13 331.24 549.13 325.72 549.13 325.72 560.6 314.69 560.6 314.7 737.17 277.47 737.17 235.42 737.17 235.42 656.53 228.53 656.53 228.53 645.41 219.22 645.41 219.22 624.9 158.21 624.9 158.21 645.76 152.69 645.76 152.69 654.45 142.7 654.45 142.7 704.5 132.71 704.5 132.71 786.53 123.4 786.53 123.4 823.11 123.41 1031.08 2372.1 1031.02"/><path class="cls-6" d="M2458.24,1031V910.78H2440V883.55H2335s1.25,25.68,0,24.42-136.1,0-136.1,0V837h-79.32V650.9h-36.46v-21H2023v18.52h-37V812.56h-7.79V789.26H1954.3V578.77h9.18V563.9H1787.31v13.75h7.24V693c0,1.4-42.3,0-42.3,0V675.6h-38.69v17.12H1691v80.55H1656.5V508.33h-4.73v-14H1499V708.45h-42V611.34h-54.83V751.95h-13.36V689.08h-5.84v-7h-6.4v-9l-8.91-14.31V643.62h-7.79v14.59L1350.35,672v9.54h-5.84v5.61h-8.07v62.59h-13.92v15.16h-12.8v16.56h-5.84V704h-17.53v14.31h-7.79v50.52h-11.41V879.37h-8.63v-53h-10.76v-43.5H1241V696.1h-4.45V672.81h-32v7.58h-10.58v-14h-24.49v6.46h-3.9V658.22h-11.69v15.16h-34.79V743h-6.4V754.2h-35.9V870.39h-13.92V735.12h-73.2v39.29h-3.9V761.78h-8.07V752h-6.4v-53h-7.79V681H930.37V668h-7V640.82h-6.12v-5.61h-5.57V618.37H891.41v16.84h-8.35v38.17h-19.2V780.87H844.1v83.07h-4.17V728.39H816.54v17.12h-2.78v-5.33h-3.34v-4.49h-10.3v3.93h-2.78v4.77h-1.95v8.14h-10.3v94.86c0,1.4-18.65,0-18.65,0V682.92H748.08V668.61l-36.74-13.75H699.65v54.45H681.84V692.47H643.15v72.69H631.46v-8.42H602.8v92.62H600V705.1h-5V690.22h-6.12V679.28h-6.4v-8.7H561.6v9.26h-7v8.7h-7v14.87h-7V851h-8.63V741h-7.79V643.36h-6.68v-9.82H511v-9.26L497.87,606.5h-43.7l-15,15v10.95H433.3v9.26H423v96h-7.79V840.1h-5.29V740.18H379.59V619.78h-10.3V606.5H359.2a37,37,0,0,0-71.69,0h-9.05v12.16H264.73V823.36h-44.9V744H91.44V865.74H37.26v165.34Z"/><polygon class="cls-7" points="2500.01 1031.02 2500.01 999.54 2293.86 999.54 2293.86 975.93 2187.13 975.93 2187.13 960.06 2059.3 960.06 2059.3 946.13 1886.16 946.13 1886.16 992.2 1780.59 992.2 1780.59 979.04 1731.46 979.04 1731.46 972.07 1706.5 972.07 1706.5 977.88 1700.36 977.88 1700.36 724.32 1672.33 724.32 1672.33 706.9 1635.86 706.9 1635.86 723.16 1581.73 723.16 1581.73 666.25 1560.04 666.25 1560.04 650.57 1509.75 650.57 1509.75 667.22 1481.34 667.22 1481.35 694.51 1424.72 694.51 1424.73 908.98 1326.64 908.98 1314.74 920.6 1314.74 986.21 1051.01 986.22 1051.01 977.31 1029.32 977.31 1020.11 970.93 964.25 970.93 953.31 977.32 854.46 977.32 854.46 958.74 842.37 951.19 826.82 951.19 826.82 923.9 803.78 923.9 803.78 953.32 799.18 953.32 799.18 924.28 783.82 924.28 783.82 957.19 707.62 957.19 707.62 946.93 702.05 934.74 695.33 946.35 695.34 961.64 682.67 961.64 682.67 969.97 669.42 969.97 669.42 894.28 603.58 894.29 603.58 918.29 590.53 918.29 590.53 890.61 571.91 890.61 571.91 959.52 523.93 959.52 523.93 917.32 512.99 917.32 512.98 847.06 434.48 847.06 434.48 859.45 430.26 859.45 430.26 869.71 416.05 869.71 416.05 943.46 375.75 943.46 375.75 913.65 298.77 913.65 298.77 904.36 275.74 904.36 275.74 912.49 266.91 912.49 266.91 827.52 245.8 827.52 245.79 804.87 238.5 804.87 238.5 792.68 234.76 792.68 234.76 782.22 225.26 782.22 225.26 792.68 221.8 792.68 221.8 804.58 216.04 804.58 216.04 813 214.03 813 214.03 821.13 200.5 821.13 200.5 804.58 185.24 804.58 185.24 816.78 155.87 816.78 155.87 873.68 139.17 873.68 139.17 883.85 133.99 883.85 133.99 965.43 -4.5 965.43 -4.5 967.47 -4.5 1023.18 -4.5 1031.08 2500.01 1031.02"/></g><polygon points="246.69 529.74 254.71 529.74 257.25 519.52 246.69 519.52 246.69 529.74"/><path class="cls-8" d="M80.5,522.6a7.82,7.82,0,0,0,6.81,5.75h12.89c2.14,0,19.15,4.49,24.88,4.49H253.21c1.69,0,2.67-.05,3.44-1.54s.82-3.08-.22-3.08H252c-1.37,0-.38-3.46.44-4.73s2.84-1.63,4.29-1.86,2-.91,1-6.45c-.07-.4-.16-.82-.25-1.28a10.14,10.14,0,0,0-4-6.05c-.42-.32-.82-.6-1.19-.84-3.42-2.21-8.12-3.75-13.11-5.39-4.53-1.48-11.11-2.27-17-2.81l-2.37-.21a95.52,95.52,0,0,1-10.23-1.11c-3.65-1-15.57-9.79-24.67-14.92s-17.4-4.62-21-4.62H141.9c-3.9,0-12.28.12-16.72,1.88S102.3,490.65,100,491.28s-7.93.48-12.41.48c-2.8,0-3.78,1.15-4.18,2.41a13.29,13.29,0,0,0-.37,2.18c-.07.43-.2,1.49-.37,2.88s0,2.94-.14,4.49c-.09.86-.54,1.6-.62,2.43l-.17,1.64c-.16,1.65-.26,3-.26,3.58,0,2-1.71,2.27-2,3S79.12,518.32,80.5,522.6Z"/><path class="cls-9" d="M81.78,507.78H89a2.89,2.89,0,0,0,2.88-2.9v-7.83a2.89,2.89,0,0,0-2.88-2.9H83.45a13.29,13.29,0,0,0-.37,2.18c-.07.43-.2,1.49-.37,2.88s0,2.94-.14,4.49c-.09.86-.54,1.6-.62,2.43Z"/><path class="cls-10" d="M79.44,517.55a23.33,23.33,0,0,0,1.05,5.06,9.16,9.16,0,0,0,1.31,2.59,7.36,7.36,0,0,0,5.5,3.16h12.89c2.14,0,19.15,4.49,24.88,4.49H253.21c1.69,0,2.67-.05,3.44-1.54s.82-3.08-.22-3.08H252c-.93,0-.77-1.6-.31-3a7.4,7.4,0,0,1,.75-1.7c.82-1.26,2.84-1.63,4.29-1.86,1.14-.18,1.79-.7,1.36-4.1Z"/><g class="cls-11"><path class="cls-12" d="M117.44,496.62a7.33,7.33,0,0,0-.74,5.57c.4,1.31,2.45,3.32,5.31,6.09,1,.93,2,2,3.17,3.13,3.83,3.85,6,10.15,6.9,12.84.17.49.3.88.4,1.12.65,1.64,1.46,2,2.47,2h27.52a218.55,218.55,0,0,0-1.75-27.73l.32,0a218.84,218.84,0,0,1,1.75,27.77h40.68a1.57,1.57,0,0,0,1.53-1.15c.16-.66,1.47-10.22,1.8-15.25s-.2-6.48-2.89-8.92-12.65-8.49-12.75-8.55l.17-.28c.1.06,10.14,6.19,12.8,8.59s3.33,4.16,3,9.18-1.64,14.64-1.81,15.31a1.9,1.9,0,0,1-1.85,1.4H135c-1.35,0-2.16-.63-2.77-2.19-.1-.25-.23-.64-.4-1.14-.91-2.67-3-8.91-6.82-12.71-1.13-1.14-2.21-2.19-3.17-3.12-2.89-2.81-5-4.84-5.39-6.23a7.59,7.59,0,0,1,.79-5.86Z"/><path class="cls-12" d="M96.64,502.23a3,3,0,1,0,3-3A3,3,0,0,0,96.64,502.23Zm.33,0a2.68,2.68,0,1,1,2.68,2.69A2.69,2.69,0,0,1,97,502.23Z"/></g><path class="cls-13" d="M120.32,500.55H195c2,0,2.84-1.32,2.69-2.27s-8.67-7.77-14.49-11.21c-.63-.37-1.27-.73-1.92-1.06h0a48,48,0,0,0-10.76-4.06c-.74-.17-1.43-.3-2-.39a11.59,11.59,0,0,0-1.58-.13H139.17c-6.41,0-21.73,8.21-24.06,11.58C113.55,495.26,118.5,500.55,120.32,500.55Z"/><path class="cls-8" d="M165.43,500.55h-7.85l-2.26-19.13h4.23Z"/><path class="cls-13" d="M209.56,497.51a18.53,18.53,0,0,1-3.52.82,6.42,6.42,0,0,1-3.33-.77c-.49-.38-17.91-12.64-19.49-13.68s-.76-2.09,0-2.09h.16c.5.25,1,.52,1.52.81,9.1,5.13,21,13.93,24.67,14.92Z"/><path class="cls-13" d="M124.91,480c.27.3.23.77-.41,1.29-1.06.84-15.51,8-17.22,8.83s-3.69.91-6.43.91C105,489.33,120.44,481.78,124.91,480Z"/><path class="cls-14" d="M241.13,511.38c2.51,1.93,6.89,3.06,10.76,3.49a25.32,25.32,0,0,0,5.84.33c-.07-.4-.16-.82-.25-1.28a10.14,10.14,0,0,0-4-6.05c-.42-.32-.82-.6-1.19-.84a7.18,7.18,0,0,0-1-.54c-2.37-1-9.34-2.07-12.34-2.53C233.63,503.16,238.62,509.45,241.13,511.38Z"/><path class="cls-15" d="M239.13,505.31c2.28.35,7.59,1.15,9.39,1.92s6.17,4.8,5.9,5.92-2.46.79-5.41.46-6.28-1.19-8.19-2.66S235.11,504.69,239.13,505.31Z"/><path class="cls-16" d="M240.82,511c-1.91-1.47-5.71-6.26-1.69-5.64l2.56.4c1.47,1.09,5,4,6.11,7.73A16.35,16.35,0,0,1,240.82,511Z"/><path class="cls-15" d="M90.51,498v5.94a2.19,2.19,0,0,1-2.18,2.2H82.24c.24-2.33.23-5,.47-6.93.16-1.38.3-2.45.37-2.87,0-.17,0-.34.07-.53h5.17A2.19,2.19,0,0,1,90.51,498Z"/><path class="cls-16" d="M90.51,503.94a2.19,2.19,0,0,1-2.18,2.2H81.94c.24-2.33.53-4.95.77-6.92h7.79Z"/><path class="cls-10" d="M81.8,525.2a7.36,7.36,0,0,0,5.5,3.16h12.89c2.14,0,19.15,4.49,24.88,4.49H253.21c1.69,0,2.67-.05,3.44-1.54s.82-3.08-.22-3.08H252c-.93,0-.77-1.6-.31-3Z"/><path d="M98.45,526.23a15.18,15.18,0,1,1,30.36,0v6.61h-3.73c-5.73,0-22.73-4.49-24.88-4.49H98.45Z"/><path class="cls-14" d="M208,527.07v5.78h36.2v-5.78a18.1,18.1,0,1,0-36.2,0Z"/><path class="cls-14" d="M95.52,527.07v1.29h4.67c2.14,0,19.15,4.49,24.88,4.49h6.65v-5.78a18.1,18.1,0,1,0-36.2,0Z"/><path d="M211,526.23a15.18,15.18,0,1,1,30.36,0v6.61H211Z"/><path class="cls-17" d="M226.19,534.45a8,8,0,1,1,7.92-8A7.94,7.94,0,0,1,226.19,534.45Z"/><path class="cls-18" d="M218,528.16a8.34,8.34,0,0,0,1.07,2.72l1.07-.57,4.2-2.23a2.57,2.57,0,0,0,1.18.81l-.61,4.63-.16,1.2a8.2,8.2,0,0,0,1.41.12,8.3,8.3,0,0,0,1.47-.13l-.11-1.21-.41-4.59a2.58,2.58,0,0,0,1.22-.81l3.92,2.08,1.07.57a8.36,8.36,0,0,0,1-2.67l-1.17-.32L229,526.62c0-.06,0-.13,0-.19a2.6,2.6,0,0,0-.56-1.61l2.66-3.52.73-1a8.39,8.39,0,0,0-2.41-1.55l-.5,1.1-1.83,4a2.48,2.48,0,0,0-.68-.09,2.55,2.55,0,0,0-.88.16l-2.16-4-.57-1.07a8.31,8.31,0,0,0-2.39,1.65l.79.92,3.06,3.54a2.61,2.61,0,0,0-.44,1.46c0,.06,0,.12,0,.18l-4.59,1.24Z"/><path class="cls-19" d="M219.21,527.84a7.12,7.12,0,0,0,1,2.47l4.2-2.23a2.57,2.57,0,0,0,1.18.81l-.61,4.63a7,7,0,0,0,1.25.11,6.87,6.87,0,0,0,1.36-.13l-.41-4.59a2.58,2.58,0,0,0,1.22-.81l3.92,2.08a7.1,7.1,0,0,0,.91-2.43L229,526.62c0-.06,0-.13,0-.19a2.6,2.6,0,0,0-.56-1.61l2.66-3.52a7.11,7.11,0,0,0-2.18-1.42l-1.83,4a2.48,2.48,0,0,0-.68-.09,2.55,2.55,0,0,0-.88.16l-2.16-4a7.14,7.14,0,0,0-2.17,1.49l3.06,3.54a2.61,2.61,0,0,0-.44,1.46c0,.06,0,.12,0,.18Z"/><ellipse class="cls-10" cx="226.29" cy="526.43" rx="1.71" ry="1.72"/><circle class="cls-20" cx="226.29" cy="525.14" r="0.5"/><circle class="cls-20" cx="226.29" cy="527.72" r="0.5"/><circle class="cls-20" cx="227.58" cy="526.43" r="0.5"/><circle class="cls-20" cx="225.01" cy="526.43" r="0.5"/><path class="cls-20" d="M212.87,526.49a13.32,13.32,0,1,0,13.32-13.41A13.36,13.36,0,0,0,212.87,526.49Zm4.79,0a8.52,8.52,0,1,1,8.53,8.58A8.55,8.55,0,0,1,217.67,526.49Z"/><g class="cls-21"><path class="cls-22" d="M215.89,526.49a10.3,10.3,0,1,0,10.3-10.37A10.34,10.34,0,0,0,215.89,526.49Zm1.78,0a8.52,8.52,0,1,1,8.53,8.58A8.55,8.55,0,0,1,217.67,526.49Z"/></g><path class="cls-23" d="M216.87,526.49a9.32,9.32,0,1,0,9.32-9.38A9.35,9.35,0,0,0,216.87,526.49Zm1.4,0a7.92,7.92,0,1,1,7.92,8A7.94,7.94,0,0,1,218.27,526.49Z"/><path class="cls-10" d="M217.54,526.49a8.65,8.65,0,1,0,8.65-8.71A8.68,8.68,0,0,0,217.54,526.49Zm.73,0a7.92,7.92,0,1,1,7.92,8A7.94,7.94,0,0,1,218.27,526.49Z"/><path class="cls-17" d="M113.62,534.46a8,8,0,1,1,7.92-8A7.94,7.94,0,0,1,113.62,534.46Z"/><path class="cls-18" d="M105.47,528.16a8.34,8.34,0,0,0,1.07,2.72l1.07-.57,4.2-2.23a2.57,2.57,0,0,0,1.18.81l-.61,4.63-.16,1.2a8.2,8.2,0,0,0,1.41.12,8.3,8.3,0,0,0,1.47-.13l-.11-1.21-.41-4.59a2.58,2.58,0,0,0,1.22-.81l3.92,2.08,1.07.57a8.36,8.36,0,0,0,1-2.67l-1.17-.32-4.23-1.15c0-.06,0-.13,0-.19a2.6,2.6,0,0,0-.56-1.61l2.66-3.52.73-1a8.39,8.39,0,0,0-2.41-1.55l-.5,1.1-1.83,4a2.48,2.48,0,0,0-.68-.09,2.55,2.55,0,0,0-.88.16l-2.16-4-.57-1.07a8.31,8.31,0,0,0-2.39,1.65l.79.92,3.06,3.54a2.61,2.61,0,0,0-.44,1.46c0,.06,0,.12,0,.18l-4.59,1.24Z"/><path class="cls-19" d="M106.64,527.85a7.12,7.12,0,0,0,1,2.47l4.2-2.23a2.57,2.57,0,0,0,1.18.81l-.61,4.63a7,7,0,0,0,1.25.11,6.87,6.87,0,0,0,1.36-.13l-.41-4.59a2.58,2.58,0,0,0,1.22-.81l3.92,2.08a7.1,7.1,0,0,0,.91-2.43l-4.23-1.15c0-.06,0-.13,0-.19a2.6,2.6,0,0,0-.56-1.61l2.66-3.52a7.11,7.11,0,0,0-2.18-1.42l-1.83,4a2.48,2.48,0,0,0-.68-.09,2.55,2.55,0,0,0-.88.16l-2.16-4a7.14,7.14,0,0,0-2.17,1.49l3.06,3.54a2.61,2.61,0,0,0-.44,1.46c0,.06,0,.12,0,.18Z"/><ellipse class="cls-10" cx="113.73" cy="526.43" rx="1.71" ry="1.72"/><circle class="cls-20" cx="113.73" cy="525.14" r="0.5"/><circle class="cls-20" cx="113.73" cy="527.72" r="0.5"/><circle class="cls-20" cx="115.01" cy="526.43" r="0.5"/><circle class="cls-20" cx="112.45" cy="526.43" r="0.5"/><path class="cls-20" d="M100.31,526.49a13.32,13.32,0,1,0,13.32-13.41A13.36,13.36,0,0,0,100.31,526.49Zm4.79,0a8.52,8.52,0,1,1,8.53,8.58A8.55,8.55,0,0,1,105.1,526.49Z"/><g class="cls-21"><path class="cls-22" d="M103.32,526.49a10.3,10.3,0,1,0,10.3-10.37A10.34,10.34,0,0,0,103.32,526.49Zm1.78,0a8.52,8.52,0,1,1,8.53,8.58A8.55,8.55,0,0,1,105.1,526.49Z"/></g><path class="cls-23" d="M104.31,526.49a9.32,9.32,0,1,0,9.32-9.38A9.35,9.35,0,0,0,104.31,526.49Zm1.4,0a7.92,7.92,0,1,1,7.92,8A7.94,7.94,0,0,1,105.71,526.49Z"/><path class="cls-10" d="M105,526.49a8.65,8.65,0,1,0,8.65-8.71A8.68,8.68,0,0,0,105,526.49Zm.73,0a7.92,7.92,0,1,1,7.92,8A7.94,7.94,0,0,1,105.71,526.49Z"/><path class="cls-24" d="M1166.62,506.89v13.88a3,3,0,0,1-3,3.05H1045.78a3,3,0,0,1-1.88-.66l-9.5-7.56a3,3,0,0,0-1.88-.66H997.73a3,3,0,0,1-1.48-.39,3.05,3.05,0,0,1,1.48-5.72h115a3,3,0,0,0,1.79-.59l1.51-1.11,3.68-2.71a3,3,0,0,1,1.79-.59h42.1A3,3,0,0,1,1166.62,506.89Z"/><rect class="cls-25" x="999.66" y="508.84" width="15.44" height="12.77" transform="translate(2014.76 1030.42) rotate(180)"/><path class="cls-26" d="M1116,433.26v74.18a3.6,3.6,0,0,1-3.59,3.62H997.48l-1.24,3.49-2.11,5.94h-8.83V433.27a4.91,4.91,0,0,1,4.89-4.92h120.93A4.91,4.91,0,0,1,1116,433.26Z"/><rect class="cls-20" x="997.45" y="519.94" width="19.85" height="5" rx="1.08" ry="1.08" transform="translate(2014.76 1044.85) rotate(180)"/><rect class="cls-20" x="991.93" y="504.92" width="119.67" height="2.53" rx="0.98" ry="0.98" transform="translate(2103.55 1012.35) rotate(180)"/><rect class="cls-20" x="1054.91" y="516.61" width="62.21" height="12.09" rx="2.54" ry="2.54" transform="translate(2172.04 1045.28) rotate(180)"/><rect class="cls-20" x="984.77" y="517.72" width="9.91" height="7.22" rx="1.36" ry="1.36" transform="translate(1979.45 1042.63) rotate(180)"/><path class="cls-24" d="M985.31,433.27v1.19H1116v-1.19a4.91,4.91,0,0,0-4.89-4.92H990.2A4.91,4.91,0,0,0,985.31,433.27Z"/><rect class="cls-27" x="990.13" y="430.29" width="5.51" height="2.22" rx="0.86" ry="0.86" transform="translate(1985.79 862.78) rotate(180)"/><rect class="cls-28" x="986.96" y="514.11" width="5.51" height="2.22" rx="0.86" ry="0.86" transform="translate(1979.45 1030.42) rotate(180)"/><rect class="cls-27" x="1105.84" y="430.29" width="5.51" height="2.22" rx="0.86" ry="0.86" transform="translate(2217.21 862.77) rotate(180)"/><path class="cls-29" d="M1200.47,502.67v20.78a4.68,4.68,0,0,1-2.72,4.25,4.58,4.58,0,0,1-1.92.42h-.4l-.23-2-.59-5.08a10.78,10.78,0,0,0-10.44-9.84h-10.05a10.18,10.18,0,0,0-7.49,3.35,11.38,11.38,0,0,0-2.65,4.91,10.91,10.91,0,0,0-.23,1.08l-.52,3.26-.24,1.48a3.34,3.34,0,0,1-3.3,2.83h-35.05V469.42a2.3,2.3,0,0,1,2.34-2.31l19.53.38a6.75,6.75,0,0,1,4.4,1.75l17.45,15.86,6.47,5.88,21.77,6.73a5.07,5.07,0,0,1,3.48,3l0,0A5.08,5.08,0,0,1,1200.47,502.67Z"/><path d="M1174.12,511.22h10.06a10.78,10.78,0,0,1,10.44,9.84l.51,4.37H1163s0-.09,0-.13l.76-4.74A10.74,10.74,0,0,1,1174.12,511.22Z"/><rect class="cls-30" x="1123.31" y="468.69" height="56.74"/><path class="cls-24" d="M1123.31,525.43h0c-.73,0-1.33-.44-1.33-1V469.67c0-.54.6-1,1.33-1h0c.73,0,1.33.44,1.33,1v54.79C1124.64,525,1124,525.43,1123.31,525.43Z"/><g class="cls-11"><path class="cls-23" d="M1155.35,524h-26.71a2.48,2.48,0,0,1-1.78-.74,2.51,2.51,0,0,1-.73-1.79c0-6.37.15-27.29.13-29.1l-.15-18.91a4.41,4.41,0,0,1,1.1-3,4.17,4.17,0,0,1,3.12-1.38h16.26a4.19,4.19,0,0,1,2.9,1.16l20.17,19.23a4.17,4.17,0,0,1,1.28,3c0,1.79-1.8,16.64-4,17.5-5.32,2-7.42,8-8.2,11.37A3.44,3.44,0,0,1,1155.35,524Zm-25-54.4a3.63,3.63,0,0,0-2.72,1.21,3.87,3.87,0,0,0-1,2.65l.15,18.91c0,1.76-.09,20.94-.13,29.1a2,2,0,0,0,.57,1.4,1.94,1.94,0,0,0,1.39.58h26.71a2.9,2.9,0,0,0,2.84-2.26c.8-3.48,3-9.63,8.53-11.76,1.66-.64,3.68-14.24,3.68-17a3.61,3.61,0,0,0-1.11-2.61l-20.17-19.23a3.65,3.65,0,0,0-2.53-1Z"/></g><path class="cls-31" d="M1130.35,470.36h16.26a2.94,2.94,0,0,1,2,.81l20.17,19.23a2.86,2.86,0,0,1,.89,2.07h0a2.85,2.85,0,0,1-2.84,2.86h-36.35a3,3,0,0,1-2.95-2.94l-.15-19A3,3,0,0,1,1130.35,470.36Z"/><path class="cls-17" d="M1171.06,526.29a8,8,0,1,1,8,8.07A8,8,0,0,1,1171.06,526.29Z"/><path class="cls-19" d="M1176.28,526.42c0-.06,0-.13,0-.2a2.64,2.64,0,0,1,.57-1.64l-3.44-4.55a8.42,8.42,0,0,1,2.44-1.57l2.37,5.22a2.56,2.56,0,0,1,1.58.06l2.77-5.18a8.44,8.44,0,0,1,2.43,1.67l-3.91,4.52a2.64,2.64,0,0,1,.45,1.47c0,.06,0,.12,0,.18l5.83,1.58a8.46,8.46,0,0,1-1.09,2.76l-5.34-2.84a2.63,2.63,0,0,1-1.19.82l.78,5.92a8.3,8.3,0,0,1-2.91,0l.53-5.88a2.62,2.62,0,0,1-1.24-.82l-5.05,2.69a8.46,8.46,0,0,1-1-2.71Z"/><circle class="cls-20" cx="1178.98" cy="524.92" r="0.51"/><circle class="cls-20" cx="1178.98" cy="527.53" r="0.51"/><circle class="cls-20" cx="1177.68" cy="526.23" r="0.51"/><circle class="cls-20" cx="1180.28" cy="526.23" r="0.51"/><path class="cls-20" d="M1165.59,526.29a13.5,13.5,0,1,0,13.5-13.59A13.54,13.54,0,0,0,1165.59,526.29Zm4.86,0a8.64,8.64,0,1,1,8.64,8.69A8.67,8.67,0,0,1,1170.45,526.29Z"/><path class="cls-23" d="M1169.64,526.29a9.44,9.44,0,1,0,9.44-9.5A9.47,9.47,0,0,0,1169.64,526.29Zm1.42,0a8,8,0,1,1,8,8.07A8,8,0,0,1,1171.06,526.29Z"/><path class="cls-17" d="M1024.8,526.29a8,8,0,1,1,8,8.07A8,8,0,0,1,1024.8,526.29Z"/><path class="cls-19" d="M1030,526.42c0-.06,0-.13,0-.2a2.64,2.64,0,0,1,.57-1.64l-3.44-4.55a8.42,8.42,0,0,1,2.44-1.57l2.37,5.22a2.56,2.56,0,0,1,1.58.06l2.77-5.18a8.44,8.44,0,0,1,2.43,1.67l-3.91,4.52a2.64,2.64,0,0,1,.45,1.47c0,.06,0,.12,0,.18l5.83,1.58a8.46,8.46,0,0,1-1.09,2.76l-5.34-2.84a2.63,2.63,0,0,1-1.19.82l.78,5.92a8.3,8.3,0,0,1-2.91,0l.53-5.88a2.62,2.62,0,0,1-1.24-.82l-5.05,2.69a8.46,8.46,0,0,1-1-2.71Z"/><circle class="cls-20" cx="1032.72" cy="524.92" r="0.51"/><circle class="cls-20" cx="1032.72" cy="527.54" r="0.51"/><circle class="cls-20" cx="1031.42" cy="526.23" r="0.51"/><circle class="cls-20" cx="1034.01" cy="526.23" r="0.51"/><path class="cls-20" d="M1019.33,526.29a13.5,13.5,0,1,0,13.5-13.59A13.54,13.54,0,0,0,1019.33,526.29Zm4.86,0a8.64,8.64,0,1,1,8.64,8.69A8.67,8.67,0,0,1,1024.19,526.29Z"/><path class="cls-23" d="M1023.38,526.29a9.44,9.44,0,1,0,9.44-9.5A9.47,9.47,0,0,0,1023.38,526.29Zm1.42,0a8,8,0,1,1,8,8.07A8,8,0,0,1,1024.8,526.29Z"/><path class="cls-23" d="M1166.91,497.87h-37.58a.27.27,0,0,1-.27-.27h0a.27.27,0,0,1,.27-.27h37.58a.27.27,0,0,1,.27.27h0A.27.27,0,0,1,1166.91,497.87Z"/><path class="cls-24" d="M1171.21,498.47h-3.36a.81.81,0,0,1-.67-1L1168,492a.74.74,0,0,1,.67-.69h2.52a3.7,3.7,0,0,1,3.81,3.58h0A3.7,3.7,0,0,1,1171.21,498.47Z"/><path class="cls-32" d="M1171.21,496.32h-3.36a.61.61,0,0,1-.46-.22l-.21,1.37a.81.81,0,0,0,.67,1h3.36a3.7,3.7,0,0,0,3.81-3.58h0a3.38,3.38,0,0,0-.17-1.07A3.79,3.79,0,0,1,1171.21,496.32Z"/><path class="cls-33" d="M1195.46,511.8l5,2V502.67h-4.38a1.74,1.74,0,0,0-1.73,1.74v5.78A1.74,1.74,0,0,0,1195.46,511.8Z"/><path class="cls-15" d="M1195.36,504.4v5.78a.77.77,0,0,0,.62.69l1.12.33,2.41.71a1.05,1.05,0,0,0,1.35-1v-6.17a1.05,1.05,0,0,0-1-1.06h-3.47C1195.8,503.67,1195.36,504,1195.36,504.4Z"/><path class="cls-17" d="M1204.66,528.13h-9.94l-.14-7.49,6,.14a4.05,4.05,0,0,1,4,4.06Z"/><path class="cls-34" d="M1145.78,472.1h-7.35l-9,18.87V491a2.54,2.54,0,0,0,2.54,2.53h3.74L1146,472.11Z"/><polygon class="cls-34" points="1152.08 477.14 1148.29 473.53 1138.68 493.58 1144.2 493.58 1152.08 477.14"/><path class="cls-28" d="M1195.36,504.4v5.78a.77.77,0,0,0,.62.69l1.12.33v-7.53h-.76C1195.8,503.67,1195.36,504,1195.36,504.4Z"/><path class="cls-20" d="M1129.67,502.66h11A2.63,2.63,0,0,0,1138,500h-5.74a2.63,2.63,0,0,0-2.62,2.64Z"/><path class="cls-32" d="M991.8,442.78h116.86a2.18,2.18,0,0,0,2.17-2.19h0a2.18,2.18,0,0,0-2.17-2.19H991.8a2.18,2.18,0,0,0-2.17,2.19h0A2.18,2.18,0,0,0,991.8,442.78Z"/><path class="cls-32" d="M991.8,450.13h116.86a2.18,2.18,0,0,0,2.17-2.19h0a2.18,2.18,0,0,0-2.17-2.19H991.8a2.18,2.18,0,0,0-2.17,2.19h0A2.18,2.18,0,0,0,991.8,450.13Z"/><path class="cls-32" d="M991.8,457.47h116.86a2.18,2.18,0,0,0,2.17-2.19h0a2.18,2.18,0,0,0-2.17-2.19H991.8a2.18,2.18,0,0,0-2.17,2.19h0A2.18,2.18,0,0,0,991.8,457.47Z"/><path class="cls-32" d="M991.8,464.81h116.86a2.18,2.18,0,0,0,2.17-2.19h0a2.18,2.18,0,0,0-2.17-2.19H991.8a2.18,2.18,0,0,0-2.17,2.19h0A2.18,2.18,0,0,0,991.8,464.81Z"/><path class="cls-32" d="M991.8,472.16h116.86a2.18,2.18,0,0,0,2.17-2.19h0a2.18,2.18,0,0,0-2.17-2.19H991.8a2.18,2.18,0,0,0-2.17,2.19h0A2.18,2.18,0,0,0,991.8,472.16Z"/><path class="cls-32" d="M991.8,479.5h116.86a2.18,2.18,0,0,0,2.17-2.19h0a2.18,2.18,0,0,0-2.17-2.19H991.8a2.18,2.18,0,0,0-2.17,2.19h0A2.18,2.18,0,0,0,991.8,479.5Z"/><path class="cls-32" d="M991.8,486.84h116.86a2.18,2.18,0,0,0,2.17-2.19h0a2.18,2.18,0,0,0-2.17-2.19H991.8a2.18,2.18,0,0,0-2.17,2.19h0A2.18,2.18,0,0,0,991.8,486.84Z"/><path class="cls-32" d="M991.8,494.19h116.86a2.18,2.18,0,0,0,2.17-2.19h0a2.18,2.18,0,0,0-2.17-2.19H991.8a2.18,2.18,0,0,0-2.17,2.19h0A2.18,2.18,0,0,0,991.8,494.19Z"/><path class="cls-32" d="M991.8,501.53h116.86a2.18,2.18,0,0,0,2.17-2.19h0a2.18,2.18,0,0,0-2.17-2.19H991.8a2.18,2.18,0,0,0-2.17,2.19h0A2.18,2.18,0,0,0,991.8,501.53Z"/><path class="cls-32" d="M1168.35,485.1l8.1,7.76s15.51,4.68,19.36,5.6c3.49.83,4.17,2,4.27,2.24a5.08,5.08,0,0,0-3.48-3L1174.83,491Z"/><rect class="cls-35" x="-4.51" y="514.79" width="2504.5" height="68.57"/><rect class="cls-36" x="-4.51" y="549.08" width="2504.5" height="34.29"/><rect class="cls-37" x="75.97" y="583.4" width="133.37" height="4.91"/><rect class="cls-38" x="75.97" y="588.31" width="133.37" height="10.12"/><polygon class="cls-39" points="209.34 598.43 171.09 621.23 114.22 621.23 75.97 598.43 209.34 598.43"/><rect class="cls-35" x="114.22" y="621.23" width="56.87" height="145.9"/><polygon class="cls-40" points="142.66 583.4 142.66 767.13 114.22 767.13 114.22 621.23 75.97 598.43 75.97 583.4 142.66 583.4"/><rect class="cls-37" x="450.36" y="583.39" width="133.37" height="4.91"/><rect class="cls-38" x="450.36" y="588.3" width="133.37" height="10.12"/><polygon class="cls-39" points="583.73 598.42 545.48 621.22 488.61 621.22 450.36 598.42 583.73 598.42"/><rect class="cls-35" x="488.61" y="621.22" width="56.87" height="145.9"/><polygon class="cls-40" points="517.05 583.39 517.05 767.12 488.61 767.12 488.61 621.22 450.36 598.42 450.36 583.39 517.05 583.39"/><rect class="cls-37" x="824.74" y="583.38" width="133.37" height="4.91"/><rect class="cls-38" x="824.74" y="588.3" width="133.37" height="10.12"/><polygon class="cls-39" points="958.11 598.42 919.87 621.22 862.99 621.22 824.74 598.42 958.11 598.42"/><rect class="cls-35" x="863" y="621.22" width="56.87" height="145.9"/><polygon class="cls-40" points="891.44 583.38 891.44 767.11 863 767.11 863 621.22 824.75 598.42 824.75 583.38 891.44 583.38"/><polygon class="cls-41" points="919.87 650.18 919.87 767.12 863 767.12 862.99 621.22 824.74 598.42 824.74 583.39 857.1 583.38 861.71 588.3 871.23 598.42 892.66 621.22 919.87 650.18"/><rect class="cls-37" x="1199.14" y="583.37" width="133.37" height="4.91"/><rect class="cls-38" x="1199.14" y="588.28" width="133.37" height="10.12"/><polygon class="cls-39" points="1332.51 598.4 1294.26 621.21 1237.39 621.21 1199.14 598.41 1332.51 598.4"/><rect class="cls-35" x="1237.39" y="621.21" width="56.87" height="145.9"/><polygon class="cls-40" points="1265.83 583.37 1265.83 767.1 1237.39 767.1 1237.39 621.21 1199.14 598.41 1199.14 583.37 1265.83 583.37"/><rect class="cls-37" x="1573.53" y="583.36" width="133.37" height="4.91"/><rect class="cls-38" x="1573.53" y="588.27" width="133.37" height="10.12"/><polygon class="cls-39" points="1706.9 598.4 1668.65 621.2 1611.78 621.2 1573.53 598.4 1706.9 598.4"/><rect class="cls-35" x="1611.78" y="621.2" width="56.87" height="145.9"/><polygon class="cls-40" points="1640.22 583.36 1640.22 767.1 1611.78 767.1 1611.78 621.2 1573.53 598.4 1573.53 583.36 1640.22 583.36"/><rect class="cls-37" x="1947.92" y="583.35" width="133.37" height="4.91"/><rect class="cls-38" x="1947.92" y="588.26" width="133.37" height="10.12"/><polygon class="cls-39" points="2081.29 598.39 2043.04 621.19 1986.17 621.19 1947.92 598.39 2081.29 598.39"/><rect class="cls-35" x="1986.17" y="621.19" width="56.87" height="145.9"/><polygon class="cls-40" points="2014.61 583.35 2014.61 767.09 1986.17 767.09 1986.17 621.19 1947.92 598.39 1947.92 583.36 2014.61 583.35"/><rect class="cls-37" x="2322.31" y="583.34" width="133.37" height="4.91"/><rect class="cls-38" x="2322.31" y="588.26" width="133.37" height="10.12"/><polygon class="cls-39" points="2455.68 598.38 2417.43 621.18 2360.56 621.18 2322.31 598.38 2455.68 598.38"/><rect class="cls-35" x="2360.56" y="621.18" width="56.87" height="145.9"/><polygon class="cls-40" points="2389 583.35 2389 767.08 2360.56 767.08 2360.56 621.18 2322.31 598.38 2322.31 583.35 2389 583.35"/><rect class="cls-42" x="-4.49" y="847.92" width="2504.5" height="551.6"/><rect class="cls-43" x="-4.49" y="1210.95" width="2504.5" height="188.57"/><rect class="cls-20" x="-4.49" y="1305.24" width="2504.5" height="94.76"/><rect class="cls-15" x="-4.5" y="870.11" width="2504.5" height="10.08"/><rect class="cls-15" x="-4.49" y="1087.67" width="2504.5" height="10.08"/><polygon class="cls-15" points="82.54 926.61 2.03 926.61 -2.75 936.69 77.76 936.69 82.54 926.61"/><polygon class="cls-15" points="1199.42 926.58 555.02 926.59 550.24 936.68 1194.64 936.66 1199.42 926.58"/><polygon class="cls-15" points="1382.11 926.58 1296.08 926.58 1300.86 936.66 1386.89 936.66 1382.11 926.58"/><polygon class="cls-15" points="1568.44 926.57 1485.92 926.57 1490.7 936.66 1573.22 936.65 1568.44 926.57"/><polygon class="cls-15" points="1754.78 926.57 1672.26 926.57 1677.04 936.65 1759.56 936.65 1754.78 926.57"/><polygon class="cls-15" points="1941.11 926.56 1858.59 926.56 1863.37 936.65 1945.89 936.65 1941.11 926.56"/><polygon class="cls-15" points="2127.45 926.56 2044.93 926.56 2049.71 936.64 2132.23 936.64 2127.45 926.56"/><polygon class="cls-15" points="2313.78 926.55 2231.26 926.56 2236.04 936.64 2318.56 936.64 2313.78 926.55"/><polygon class="cls-15" points="2417.6 926.55 2422.38 936.64 2500 936.63 2500 926.55 2417.6 926.55"/><rect class="cls-44" x="-2.75" y="899.97" width="2501.88" height="86.34"/><rect class="cls-44" x="-2.75" y="1123.72" width="2501.88" height="53.97"/><rect class="cls-45" x="-4.5" y="760.02" width="2504.5" height="87.9"/><rect class="cls-36" x="-4.5" y="803.97" width="2504.5" height="43.96"/><rect class="cls-35" x="1491.12" y="626.47" width="9.83" height="133.54"/><rect class="cls-35" x="1308.3" y="626.47" width="9.83" height="133.54"/><rect class="cls-46" x="1308.29" y="626.47" width="9.83" height="19.23"/><rect class="cls-46" x="1491.12" y="626.47" width="9.83" height="19.23"/><path class="cls-47" d="M1598.36,606.83l-24,16-20.56,13.68a7.31,7.31,0,0,1-4,1.22h-281a7.34,7.34,0,0,1-7.31-7.37V571a7.34,7.34,0,0,1,7.31-7.36h281a7.31,7.31,0,0,1,4,1.22l44.53,29.65A7.39,7.39,0,0,1,1598.36,606.83Z"/><path class="cls-15" d="M1543.28,633.36H1273.5c-4.43,0-8-3.28-8-7.31V575.33c0-4,3.6-7.31,8-7.31h269.78a8.59,8.59,0,0,1,4.38,1.19l42.76,25.37a7,7,0,0,1,0,12.25l-42.75,25.37A8.59,8.59,0,0,1,1543.28,633.36ZM1273.5,570c-3.32,0-6,2.38-6,5.29v50.73c0,2.92,2.7,5.29,6,5.29h269.78a6.6,6.6,0,0,0,3.37-.91l42.75-25.37a5,5,0,0,0,0-8.78l-42.76-25.37a6.6,6.6,0,0,0-3.37-.91Z"/><path class="cls-36" d="M1574.39,622.8l-20.56,13.68a7.31,7.31,0,0,1-4,1.22h-281a7.34,7.34,0,0,1-7.31-7.37V622.8Z"/><rect class="cls-43" x="-4.5" y="685.03" width="2504.5" height="5.74"/><rect class="cls-43" x="-4.5" y="705.26" width="2504.5" height="5.74"/><rect class="cls-43" x="-4.5" y="725.48" width="2504.5" height="5.74"/><rect class="cls-43" x="-4.5" y="745.71" width="2504.63" height="5.74"/><rect class="cls-43" x="163.8" y="685.06" width="5.01" height="74.98"/><rect class="cls-43" x="907.14" y="685.04" width="5.01" height="74.98"/><rect class="cls-43" x="1278.8" y="685.03" width="5.01" height="74.98"/><rect class="cls-43" x="1650.47" y="685.03" width="5.01" height="74.98"/><rect class="cls-43" x="2022.14" y="685.02" width="5.01" height="74.98"/><rect class="cls-43" x="2393.81" y="685.01" width="5.01" height="74.98"/><rect class="cls-48" x="-9" y="1222.5" width="2509.01" height="20.84"/><rect class="cls-48" x="-9" y="1279.58" width="2509.01" height="20.84"/><rect class="cls-48" x="-9" y="1336.66" width="2509.01" height="20.84"/><rect class="cls-48" x="130.22" y="1222.53" width="20.57" height="177.02"/><rect class="cls-48" x="605.98" y="1222.51" width="20.57" height="177.02"/><rect class="cls-48" x="1081.73" y="1222.5" width="20.57" height="177.02"/><rect class="cls-48" x="1557.49" y="1222.49" width="20.57" height="177.02"/><rect class="cls-48" x="2033.25" y="1222.48" width="20.57" height="177.02"/><rect class="cls-43" x="-4.51" y="496.49" width="2504.5" height="2.02"/><rect class="cls-43" x="-4.51" y="501.78" width="2504.5" height="2.02"/><rect class="cls-43" x="-4.51" y="507.08" width="2504.5" height="2.02"/><rect class="cls-43" x="42.24" y="496.52" width="1.84" height="18.31"/><rect class="cls-43" x="142.76" y="496.52" width="1.84" height="18.31"/><rect class="cls-43" x="243.27" y="496.51" width="1.84" height="18.31"/><rect class="cls-43" x="343.78" y="496.51" width="1.84" height="18.31"/><rect class="cls-43" x="444.3" y="496.51" width="1.84" height="18.31"/><rect class="cls-43" x="544.81" y="496.51" width="1.84" height="18.31"/><rect class="cls-43" x="645.33" y="496.5" width="1.84" height="18.31"/><rect class="cls-43" x="745.84" y="496.5" width="1.84" height="18.31"/><rect class="cls-43" x="846.35" y="496.5" width="1.84" height="18.31"/><rect class="cls-43" x="946.87" y="496.5" width="1.84" height="18.31"/><rect class="cls-43" x="1047.38" y="496.49" width="1.84" height="18.31"/><rect class="cls-43" x="1147.9" y="496.49" width="1.84" height="18.31"/><rect class="cls-43" x="1248.41" y="496.49" width="1.84" height="18.31"/><rect class="cls-43" x="1348.92" y="496.49" width="1.84" height="18.31"/><rect class="cls-43" x="1449.44" y="496.49" width="1.84" height="18.31"/><rect class="cls-43" x="1549.95" y="496.48" width="1.84" height="18.31"/><rect class="cls-43" x="1650.47" y="496.48" width="1.84" height="18.31"/><rect class="cls-43" x="1750.98" y="496.48" width="1.84" height="18.31"/><rect class="cls-43" x="1851.49" y="496.48" width="1.84" height="18.31"/><rect class="cls-43" x="1952.01" y="496.47" width="1.84" height="18.31"/><rect class="cls-43" x="2052.52" y="496.47" width="1.84" height="18.31"/><rect class="cls-43" x="2153.04" y="496.47" width="1.84" height="18.31"/><rect class="cls-43" x="2253.55" y="496.47" width="1.84" height="18.31"/><rect class="cls-43" x="2354.06" y="496.46" width="1.84" height="18.31"/><rect class="cls-43" x="2454.58" y="496.46" width="1.84" height="18.31"/><polygon class="cls-41" points="857.09 583.38 -4.51 583.39 -4.51 514.82 792.65 514.8 857.09 583.38"/><rect class="cls-43" x="725.53" y="691" width="5" height="74.36"/><polygon class="cls-49" points="301 940.87 152.33 940.87 155.39 930.89 304.09 930.89 301 940.87"/><path class="cls-50" d="M1515.11,621.43h-3.64a1,1,0,0,1-1-.71l-.7-4.75a1.05,1.05,0,0,1,1.09-1.21h4.94a1.05,1.05,0,0,1,1.09,1.21l-.7,4.75A1,1,0,0,1,1515.11,621.43Z"/><path class="cls-50" d="M1539.92,621.43h-3.64a1,1,0,0,1-1-.71l-.7-4.75a1.05,1.05,0,0,1,1.09-1.21h4.94a1.05,1.05,0,0,1,1.09,1.21l-.7,4.75A1,1,0,0,1,1539.92,621.43Z"/><path class="cls-51" d="M1539.64,603.78c10.7-10.7-11.49-30.67-19.39-22.76"/><path class="cls-50" d="M1543.69,603.22l-1-.33a.94.94,0,0,0-.63,0l-2.47.88-4.06-5a1.88,1.88,0,0,0-1.46-.7h-16.83a1.88,1.88,0,0,0-1.47.7l-4.06,5-2.47-.88a.94.94,0,0,0-.63,0l-1,.33a.94.94,0,0,0-.63.89.64.64,0,0,0,.27.52l1.14.79a.94.94,0,0,0,.54.17h.78a19.21,19.21,0,0,0-1.36,9.73A1.88,1.88,0,0,0,1510,617a109.73,109.73,0,0,0,31.33,0,1.88,1.88,0,0,0,1.59-1.64,19.21,19.21,0,0,0-1.36-9.73h.78a.94.94,0,0,0,.54-.17l1.14-.79a.64.64,0,0,0,.28-.53A.94.94,0,0,0,1543.69,603.22Zm-28.35,1,2.19-2.72a1.56,1.56,0,0,1,1.21-.58h13.89a1.55,1.55,0,0,1,1.21.58l2.2,2.72Z"/><path class="cls-52" d="M1513.77,590.94l-3.67-4a2,2,0,0,1,.12-2.77l1.59-1.46c.79-.73,6-4.32,6.74-3.53l3.67,4c.73.79-3.3,5.69-4.1,6.41l-1.59,1.46A2,2,0,0,1,1513.77,590.94Z"/><rect class="cls-52" x="1511.14" y="590.67" width="4.86" height="1.4" rx="0.66" ry="0.66" transform="translate(-1.67 1178.43) rotate(-42.52)"/><rect class="cls-52" x="1507.24" y="586.41" width="4.86" height="1.4" rx="0.66" ry="0.66" transform="translate(0.18 1174.68) rotate(-42.52)"/><rect class="cls-52" x="1511.55" y="582.33" width="3.12" height="11.07" rx="1.47" ry="1.47" transform="translate(0.57 1177.21) rotate(-42.52)"/><rect class="cls-15" x="1289.94" y="609.48" width="196.29" height="5.9"/><rect class="cls-15" x="1289.94" y="591.12" width="196.29" height="5.9"/><path class="cls-41" d="M1382.75,644.07H1271a7.3,7.3,0,0,1-7.3-7.31V578a7.3,7.3,0,0,1,7.3-7.3h60.54Z"/><rect class="cls-53" x="959.76" y="1120.74" width="84.2" height="23.86"/><rect class="cls-54" x="1043.96" y="1120.74" width="84.2" height="23.86"/><rect class="cls-53" x="1128.16" y="1120.74" width="84.2" height="23.86"/><rect class="cls-54" x="1212.36" y="1120.74" width="84.19" height="23.86"/><rect class="cls-53" x="1296.55" y="1120.74" width="84.2" height="23.86"/><rect class="cls-54" x="1380.75" y="1120.74" width="84.2" height="23.86"/><path class="cls-55" d="M1559.89,1202H938.73a8.87,8.87,0,0,1-8-12.76l16.83-34.49a8.87,8.87,0,0,1,8-5h587.5a8.87,8.87,0,0,1,8,5l16.83,34.49A8.87,8.87,0,0,1,1559.89,1202Z"/><polyline class="cls-56" points="1140.18 1071.98 1137.27 1072.11 1137.27 1072.11 1140.18 1071.98"/><path class="cls-55" d="M1554.92,1073.55H653.53c-9.51,0-15.74-6.84-11.57-12.7l24.42-34.35c2.16-3,6.65-5,11.57-5H1530.5c4.92,0,9.41,1.93,11.57,5l24.42,34.35C1570.65,1066.71,1564.43,1073.55,1554.92,1073.55Z"/><path class="cls-24" d="M1388.35,922.62v55a12.09,12.09,0,0,1-12.1,12.09H906.51a12.11,12.11,0,0,1-7.51-2.61l-37.87-30a12.08,12.08,0,0,0-7.5-2.61H714.91a12.1,12.1,0,1,1,0-24.19h458.51a12.07,12.07,0,0,0,7.14-2.33l6-4.39,14.69-10.74a12.11,12.11,0,0,1,7.13-2.33h167.86A12.1,12.1,0,0,1,1388.35,922.62Z"/><rect class="cls-57" x="722.61" y="930.31" width="61.57" height="50.58" transform="translate(1506.79 1911.2) rotate(180)"/><polygon class="cls-58" points="1187.11 612.43 1187.11 939.77 1187.11 939.77 713.96 939.12 709.01 952.96 700.62 976.5 665.42 976.5 665.42 611.46 1187.11 612.43 1187.11 612.43"/><rect class="cls-20" x="713.81" y="974.29" width="79.16" height="19.79" rx="4.33" ry="4.33" transform="translate(1506.79 1968.37) rotate(180)"/><rect class="cls-59" x="691.82" y="914.8" width="477.16" height="10.02" rx="3.9" ry="3.9" transform="translate(1860.81 1839.61) rotate(180)"/><rect class="cls-20" x="942.92" y="961.1" width="248.06" height="47.9" rx="10.13" ry="10.13" transform="translate(2133.9 1970.09) rotate(180)"/><rect class="cls-20" x="663.24" y="965.49" width="39.5" height="28.59" rx="5.45" ry="5.45" transform="translate(1365.98 1959.57) rotate(180)"/><path class="cls-60" d="M679.66,865.12H664.51c-1.89,0-1.89,29.82,0,29.82h15.15a3.42,3.42,0,0,0,3.42-3.42v-23A3.42,3.42,0,0,0,679.66,865.12Z"/><path class="cls-61" d="M679.66,822.69H664.51c-1.89,0-1.89,29.82,0,29.82h15.15a3.42,3.42,0,0,0,3.42-3.42v-23A3.42,3.42,0,0,0,679.66,822.69Z"/><path class="cls-62" d="M1523.32,905.9v82.33a18.49,18.49,0,0,1-18.5,18.51h-1.6l-.92-7.84-2.36-20.14c-2.61-22.28-20.46-39-41.62-39h-40.09A40.72,40.72,0,0,0,1388.35,953a45,45,0,0,0-10.57,19.44,42.92,42.92,0,0,0-.9,4.29l-2.07,12.91-.94,5.86a13.3,13.3,0,0,1-13.14,11.2H1221V774.18a9.16,9.16,0,0,1,9.32-9.16l77.86,1.5a27,27,0,0,1,17.55,6.94l69.57,62.83,25.81,23.31,86.79,26.66a20.18,20.18,0,0,1,13.88,11.84l.06.14A20,20,0,0,1,1523.32,905.9Z"/><path d="M1418.23,939.77h40.09c21.16,0,39,16.72,41.62,39l2,17.31H1373.77c0-.18.08-.35.11-.53l3-18.76C1380.33,955.4,1397.79,939.77,1418.23,939.77Z"/><path class="cls-63" d="M1215.66,996.06h0c-2.93,0-5.3-1.73-5.3-3.86v-217c0-2.13,2.37-3.86,5.3-3.86h0c2.93,0,5.3,1.73,5.3,3.86v217C1221,994.33,1218.59,996.06,1215.66,996.06Z"/><path class="cls-63" d="M1343.42,990.48H1236.93a10,10,0,0,1-10-10c.14-25.23.59-108.09.53-115.26l-.58-74.89a17.42,17.42,0,0,1,4.4-12,16.67,16.67,0,0,1,12.43-5.48h64.82a16.76,16.76,0,0,1,11.57,4.61l80.42,76.17a16.45,16.45,0,0,1,5.12,11.9c0,7.09-7.16,65.91-16.08,69.32-21.22,8.1-29.58,31.71-32.68,45.06A13.71,13.71,0,0,1,1343.42,990.48ZM1243.71,775a14.52,14.52,0,0,0-10.83,4.78,15.26,15.26,0,0,0-3.83,10.51l.58,74.89c.06,7-.35,83-.53,115.29a7.82,7.82,0,0,0,7.83,7.86h106.49a11.55,11.55,0,0,0,11.34-8.93c3.19-13.77,11.86-38.13,34-46.59,6.62-2.53,14.69-56.42,14.69-67.29a14.27,14.27,0,0,0-4.44-10.32L1318.61,779a14.59,14.59,0,0,0-10.08-4Z"/><path class="cls-34" d="M1243.71,777.89h64.82a11.75,11.75,0,0,1,8.08,3.22L1397,857.27a11.31,11.31,0,0,1,3.53,8.21h0a11.31,11.31,0,0,1-11.31,11.31h-145a11.75,11.75,0,0,1-11.75-11.66l-.59-75.4A11.75,11.75,0,0,1,1243.71,777.89Z"/><path class="cls-64" d="M1406.05,999.44a32,32,0,1,1,32,32A32,32,0,0,1,1406.05,999.44Z"/><path class="cls-20" d="M1384.22,999.44A53.82,53.82,0,1,0,1438,945.62,53.82,53.82,0,0,0,1384.22,999.44Zm19.38,0a34.44,34.44,0,1,1,34.44,34.44A34.44,34.44,0,0,1,1403.6,999.44Z"/><path class="cls-64" d="M1400.39,999.44A37.65,37.65,0,1,0,1438,961.79,37.65,37.65,0,0,0,1400.39,999.44Zm5.67,0a32,32,0,1,1,32,32A32,32,0,0,1,1406.05,999.44Z"/><path class="cls-64" d="M822.87,999.44a32,32,0,1,1,32,32A32,32,0,0,1,822.87,999.44Z"/><path class="cls-20" d="M801,999.44a53.82,53.82,0,1,0,53.82-53.82A53.82,53.82,0,0,0,801,999.44Zm19.38,0a34.44,34.44,0,1,1,34.44,34.44A34.44,34.44,0,0,1,820.42,999.44Z"/><path class="cls-64" d="M817.21,999.44a37.65,37.65,0,1,0,37.65-37.65A37.65,37.65,0,0,0,817.21,999.44Zm5.67,0a32,32,0,1,1,32,32A32,32,0,0,1,822.87,999.44Z"/><path class="cls-63" d="M1389.49,886.87H1239.65a1.09,1.09,0,0,1-1.09-1.09h0a1.09,1.09,0,0,1,1.09-1.09h149.84a1.09,1.09,0,0,1,1.09,1.09h0A1.09,1.09,0,0,1,1389.49,886.87Z"/><path class="cls-15" d="M1406.66,889.24h-13.38c-1.69,0-3-1.91-2.65-4l3.32-21.67a2.93,2.93,0,0,1,2.65-2.73h10.07c8.39,0,15.2,6.35,15.2,14.19h0C1421.86,882.89,1415.05,889.24,1406.66,889.24Z"/><path class="cls-64" d="M1406.66,880.74h-13.38a2.43,2.43,0,0,1-1.83-.89l-.83,5.41c-.32,2.07,1,4,2.65,4h13.38c8.39,0,15.2-6.35,15.2-14.19h0a13.32,13.32,0,0,0-.69-4.25A15.12,15.12,0,0,1,1406.66,880.74Z"/><path class="cls-65" d="M1503.32,942.05l20,7.85v-44s0,0,0,0h-17.47a6.9,6.9,0,0,0-6.9,6.9v22.88A6.9,6.9,0,0,0,1503.32,942.05Z"/><path class="cls-15" d="M1502.93,912.75v22.88a3.05,3.05,0,0,0,2.48,2.72l4.45,1.31,9.62,2.82a4.19,4.19,0,0,0,5.37-4V914a4.19,4.19,0,0,0-4.19-4.19h-13.84C1504.68,909.84,1502.93,911.14,1502.93,912.75Z"/><path class="cls-17" d="M1540,1006.73h-39.63l-.55-29.67,24.08.55a16.1,16.1,0,0,1,16.1,16.1Z"/><g class="cls-66"><path class="cls-15" d="M1305.26,784.81H1276l-36.07,74.74v.3a10.11,10.11,0,0,0,10.11,10h14.92l41-85C1305.73,784.82,1305.5,784.81,1305.26,784.81Z"/><polygon class="cls-15" points="1330.37 804.78 1315.26 790.47 1276.95 869.88 1298.96 869.88 1330.37 804.78"/></g><path class="cls-61" d="M1502.93,912.75v22.88a3.05,3.05,0,0,0,2.48,2.72l4.45,1.31V909.84h-3C1504.68,909.84,1502.93,911.14,1502.93,912.75Z"/><path class="cls-63" d="M1395.26,836.29,1427.55,867s61.84,18.55,77.17,22.2c13.9,3.3,16.64,8,17,8.86a20.21,20.21,0,0,0-13.88-11.84l-86.79-26.65Z"/><path class="cls-67" d="M1509.35,1002.92c-2.2-1.41-4.56-2.75-7-4l.92,7.84h1.6a18.37,18.37,0,0,0,7.67-1.66C1511.39,1004.28,1510.34,1003.56,1509.35,1002.92Z"/><polygon points="1514.72 1161.99 1542.36 1161.99 1551.15 1126.99 1514.72 1126.99 1514.72 1161.99"/><path class="cls-68" d="M1534.58,1140.61c-2.83,4.34-6.23,16.2-1.51,16.2h15.24c3.58,0,3.39,5.47.75,10.54s-6,5.28-11.86,5.28h-442c-19.75,0-78.43-15.39-85.82-15.39H964.89c-6.41,0-18.72-5-23.5-19.7-.26-.81-.51-1.62-.74-2.41-3.95-13.49-3.34-23.47-2.51-25.85s6.79-3.27,6.79-10.29c0-.37,0-.83,0-1.38.1-2.37.42-6.28.86-10.88.18-1.79.37-3.69.57-5.64.28-2.83,1.84-5.37,2.15-8.32.59-5.34,0-11,.5-15.4.57-4.75,1-8.39,1.27-9.86a45.09,45.09,0,0,1,1.28-7.45c1.39-4.31,4.77-8.24,14.42-8.24,15.45,0,35,.51,42.82-1.63,5-1.38,33.2-14.74,56.71-25.69,13-6.05,24.56-11.37,30-13.51,15.31-6,44.24-6.44,57.68-6.44l75.72,0c12.55,0,41.18-1.76,72.57,15.82s72.52,47.76,85.1,51.13c5.35,1.43,19,2.39,35.27,3.8q4,.33,8.17.72c20.23,1.87,42.93,4.57,58.55,9.64,17.22,5.6,33.42,10.89,45.22,18.48,1.29.81,2.67,1.78,4.12,2.86a40.28,40.28,0,0,1,9.89,10.57,30.92,30.92,0,0,1,4.06,10.17c.32,1.56.62,3,.87,4.38,3.59,18.95,1.31,21.36-3.38,22.08-1.48.23-3.12.5-4.78.88C1540.62,1136,1536.57,1137.55,1534.58,1140.61Z"/><path class="cls-69" d="M945.83,1086.73h25.06a9.93,9.93,0,0,0,9.93-9.93V1050a9.93,9.93,0,0,0-9.93-9.93H951.61a45.33,45.33,0,0,0-1.28,7.46c-.23,1.46-.69,5.11-1.27,9.85-.53,4.37.09,10.07-.5,15.4-.32,3-1.87,5.5-2.15,8.33C946.21,1083.05,946,1085,945.83,1086.73Z"/><path class="cls-70" d="M937.77,1120.21a79.51,79.51,0,0,0,3.63,17.33,31.33,31.33,0,0,0,4.51,8.89c5.79,7.9,14.1,10.82,19,10.82h44.45c7.4,0,66.07,15.38,85.83,15.38h442c5.83,0,9.22-.18,11.86-5.27s2.83-10.55-.75-10.55h-15.25c-3.21,0-2.67-5.5-1.08-10.38a25.25,25.25,0,0,1,2.59-5.82c2.82-4.32,9.79-5.58,14.81-6.36,3.92-.62,6.16-2.4,4.69-14Z"/><g class="cls-11"><path class="cls-71" d="M1068.87,1048.48c-3.13,4-4.34,13.14-2.54,19.08,1.37,4.51,8.47,11.37,18.3,20.88,3.3,3.19,7,6.81,11,10.71,13.22,13.21,20.63,34.79,23.8,44,.58,1.68,1,3,1.37,3.84,2.25,5.63,5,6.79,8.52,6.79h94.93a744.08,744.08,0,0,0-6-95l1.12-.16a745.17,745.17,0,0,1,6,95.18h140.32a5.4,5.4,0,0,0,5.29-3.95c.55-2.26,5.08-35,6.2-52.26,1.09-16.78-.68-22.2-10-30.56-9.08-8.16-43.64-29.11-44-29.32l.59-1c.35.21,35,21.22,44.16,29.45,9.64,8.66,11.48,14.24,10.36,31.47s-5.68,50.18-6.23,52.46a6.54,6.54,0,0,1-6.39,4.81H1129.25c-4.66,0-7.44-2.17-9.57-7.5-.34-.87-.8-2.2-1.39-3.89-3.14-9.14-10.49-30.54-23.53-43.57-3.9-3.9-7.64-7.51-10.94-10.7-10-9.62-17.15-16.58-18.6-21.37-1.92-6.34-.64-15.73,2.73-20.1Z"/><path class="cls-72" d="M997.1,1067.72a10.36,10.36,0,1,0,10.36-10.36A10.37,10.37,0,0,0,997.1,1067.72Zm1.13,0a9.23,9.23,0,1,1,9.23,9.23A9.24,9.24,0,0,1,998.23,1067.72Z"/></g><path class="cls-13" d="M1078.78,1061.94h257.66c7,0,9.79-4.52,9.3-7.77s-29.89-26.62-50-38.42c-2.17-1.28-4.37-2.5-6.63-3.65v0h0A166.09,166.09,0,0,0,1252,998.17c-2.55-.59-4.93-1-7.05-1.34a40.27,40.27,0,0,0-5.44-.44h-95.68c-22.1,0-75,28.13-83,39.69C1055.44,1043.83,1072.49,1061.94,1078.78,1061.94Z"/><path class="cls-68" d="M1234.4,1061.95h-27.07l-7.79-65.54h14.58Z"/><path class="cls-13" d="M1386.63,1051.54c-5.17,1.33-9.25,2.81-12.15,2.81-5.09,0-9.79-1.32-11.49-2.64s-61.78-43.32-67.24-46.9-2.64-7.16,0-7.16h.54c1.74.87,3.48,1.78,5.24,2.76,31.39,17.58,72.52,47.74,85.1,51.12Z"/><path class="cls-13" d="M1094.63,991.36c.92,1,.81,2.65-1.41,4.41-3.64,2.89-53.49,27.25-59.39,30.26-5.62,2.87-12.75,3.12-22.19,3.13C1025.92,1023.49,1079.19,997.63,1094.63,991.36Z"/><path class="cls-73" d="M1495.52,1099.07c8.66,6.6,23.76,10.49,37.13,12,8.6,1,15.79,1.91,20.13,1.13-.26-1.37-.56-2.82-.87-4.37-1.78-8.6-6.78-15.25-14-20.75-1.45-1.08-2.83-2-4.11-2.86a24.82,24.82,0,0,0-3.42-1.85c-8.17-3.47-32.23-7.08-42.57-8.66C1469.65,1070.89,1486.86,1092.47,1495.52,1099.07Z"/><path class="cls-74" d="M1488.62,1078.27c7.88,1.2,26.18,4,32.4,6.59s21.28,16.45,20.34,20.28-8.48,2.7-18.65,1.57-21.66-4.08-28.25-9.1S1474.78,1076.16,1488.62,1078.27Z"/><path class="cls-15" d="M975.94,1053.22v20.34a7.53,7.53,0,0,1-7.53,7.53h-21c.82-8,.81-17,1.62-23.74.57-4.74,1-8.4,1.26-9.85.09-.57.16-1.18.24-1.82h17.84A7.53,7.53,0,0,1,975.94,1053.22Z"/><path class="cls-75" d="M975.94,1073.56a7.53,7.53,0,0,1-7.53,7.53h-22c.82-8,1.85-17,2.66-23.73h26.88Z"/><path class="cls-70" d="M945.91,1146.43c5.79,7.9,14.1,10.82,19,10.82h44.45c7.4,0,66.07,15.38,85.83,15.38h442c5.83,0,9.22-.18,11.86-5.27s2.83-10.55-.75-10.55h-15.25c-3.21,0-2.67-5.5-1.08-10.38Z"/><path d="M1003.32,1150a52.36,52.36,0,1,1,104.72,0v22.67h-12.87c-19.76,0-78.43-15.38-85.84-15.38h-6Z"/><path class="cls-73" d="M1381.35,1152.83v19.8h124.88v-19.8a62.44,62.44,0,0,0-124.88,0Z"/><path class="cls-73" d="M1084.78,1097.61h-58.22a62.29,62.29,0,0,1,58.22,0Z"/><path class="cls-73" d="M1118.12,1152.83v19.8h-23c-19.75,0-78.42-15.38-85.82-15.38H993.24v-4.42a62.1,62.1,0,0,1,2.56-17.7h119.76A62.11,62.11,0,0,1,1118.12,1152.83Z"/><path d="M1496.16,1150v22.67H1391.43V1150a52.15,52.15,0,0,1,2.15-14.84H1494A52.15,52.15,0,0,1,1496.16,1150Z"/><path class="cls-17" d="M1444,1178.15a27.31,27.31,0,1,1,27.31-27.31A27.31,27.31,0,0,1,1444,1178.15Z"/><path class="cls-76" d="M1415.88,1156.59a28.47,28.47,0,0,0,3.71,9.32l3.68-1.95,14.48-7.64a8.86,8.86,0,0,0,4.06,2.79l-2.12,15.88-.55,4.13a28.47,28.47,0,0,0,4.86.41,28.83,28.83,0,0,0,5.06-.45l-.37-4.16-1.42-15.74a8.9,8.9,0,0,0,4.2-2.78l13.53,7.14,3.67,1.94a28.53,28.53,0,0,0,3.49-9.17l-4-1.09-14.58-3.93c0-.21,0-.43,0-.66a8.89,8.89,0,0,0-1.93-5.53l9.19-12.07,2.53-3.33a29,29,0,0,0-8.32-5.32l-1.73,3.79L1447,1142a8.59,8.59,0,0,0-2.35-.32,8.85,8.85,0,0,0-3,.54l-7.45-13.85-2-3.67a28.66,28.66,0,0,0-8.26,5.65l2.74,3.14,10.56,12.15a8.9,8.9,0,0,0-1.52,5c0,.2,0,.4,0,.61l-15.82,4.26Z"/><path class="cls-77" d="M1419.91,1155.5a24.3,24.3,0,0,0,3.36,8.46l14.48-7.64a8.86,8.86,0,0,0,4.06,2.79l-2.12,15.88a24.28,24.28,0,0,0,4.31.38,23.85,23.85,0,0,0,4.68-.45l-1.42-15.74a8.9,8.9,0,0,0,4.2-2.78l13.53,7.14a24.23,24.23,0,0,0,3.14-8.32l-14.58-3.93c0-.21,0-.43,0-.66a8.89,8.89,0,0,0-1.93-5.53l9.19-12.07a24.54,24.54,0,0,0-7.51-4.87L1447,1142a8.59,8.59,0,0,0-2.35-.32,8.85,8.85,0,0,0-3,.54l-7.45-13.85a24.62,24.62,0,0,0-7.5,5.12l10.56,12.15a8.9,8.9,0,0,0-1.52,5c0,.2,0,.4,0,.61Z"/><circle class="cls-70" cx="1444.35" cy="1150.65" r="5.88"/><circle class="cls-20" cx="1444.35" cy="1146.23" r="1.73"/><circle class="cls-20" cx="1444.35" cy="1155.07" r="1.73"/><circle class="cls-20" cx="1448.77" cy="1150.65" r="1.73"/><circle class="cls-20" cx="1439.93" cy="1150.65" r="1.73"/><path class="cls-20" d="M1398,1150.84A45.94,45.94,0,1,0,1444,1104.9,45.94,45.94,0,0,0,1398,1150.84Zm16.54,0a29.4,29.4,0,1,1,29.41,29.4A29.4,29.4,0,0,1,1414.59,1150.84Z"/><g class="cls-21"><path class="cls-12" d="M1408.45,1150.84A35.54,35.54,0,1,0,1444,1115.3,35.54,35.54,0,0,0,1408.45,1150.84Zm6.14,0a29.4,29.4,0,1,1,29.41,29.4A29.4,29.4,0,0,1,1414.59,1150.84Z"/></g><path class="cls-64" d="M1411.85,1150.84A32.14,32.14,0,1,0,1444,1118.7,32.14,32.14,0,0,0,1411.85,1150.84Zm4.84,0a27.3,27.3,0,1,1,27.31,27.31A27.3,27.3,0,0,1,1416.69,1150.84Z"/><path class="cls-70" d="M1414.16,1150.84A29.83,29.83,0,1,0,1444,1121,29.83,29.83,0,0,0,1414.16,1150.84Zm2.52,0a27.3,27.3,0,1,1,27.31,27.31A27.3,27.3,0,0,1,1416.69,1150.84Z"/><path class="cls-17" d="M1055.68,1178.15a27.31,27.31,0,1,1,27.31-27.31A27.31,27.31,0,0,1,1055.68,1178.15Z"/><path class="cls-76" d="M1027.57,1156.59a28.47,28.47,0,0,0,3.71,9.32L1035,1164l14.48-7.64a8.86,8.86,0,0,0,4.06,2.79l-2.12,15.88-.55,4.13a28.47,28.47,0,0,0,4.86.41,28.83,28.83,0,0,0,5.06-.45l-.37-4.16-1.42-15.74a8.9,8.9,0,0,0,4.2-2.78l13.53,7.14,3.67,1.94a28.54,28.54,0,0,0,3.49-9.17l-4-1.09-14.58-3.93c0-.21,0-.43,0-.66a8.89,8.89,0,0,0-1.93-5.53l9.19-12.07,2.53-3.33a29,29,0,0,0-8.32-5.32l-1.73,3.79-6.33,13.86a8.59,8.59,0,0,0-2.35-.32,8.85,8.85,0,0,0-3,.54l-7.45-13.85-2-3.67a28.65,28.65,0,0,0-8.26,5.65l2.74,3.14,10.56,12.15a8.9,8.9,0,0,0-1.52,5c0,.2,0,.4,0,.61l-15.82,4.26Z"/><path class="cls-77" d="M1031.6,1155.5A24.3,24.3,0,0,0,1035,1164l14.48-7.64a8.86,8.86,0,0,0,4.06,2.79l-2.12,15.88a24.29,24.29,0,0,0,4.31.38,23.85,23.85,0,0,0,4.68-.45l-1.42-15.74a8.9,8.9,0,0,0,4.2-2.78l13.53,7.14a24.23,24.23,0,0,0,3.14-8.32l-14.58-3.93c0-.21,0-.43,0-.66a8.89,8.89,0,0,0-1.93-5.53l9.19-12.07a24.54,24.54,0,0,0-7.51-4.87l-6.33,13.86a8.59,8.59,0,0,0-2.35-.32,8.85,8.85,0,0,0-3,.54l-7.45-13.85a24.62,24.62,0,0,0-7.5,5.12l10.56,12.15a8.9,8.9,0,0,0-1.52,5c0,.2,0,.4,0,.61Z"/><circle class="cls-70" cx="1056.04" cy="1150.65" r="5.88"/><circle class="cls-20" cx="1056.04" cy="1146.23" r="1.73"/><circle class="cls-20" cx="1056.04" cy="1155.07" r="1.73"/><circle class="cls-20" cx="1060.46" cy="1150.65" r="1.73"/><circle class="cls-20" cx="1051.63" cy="1150.65" r="1.73"/><path class="cls-20" d="M1009.74,1150.84a45.94,45.94,0,1,0,45.95-45.95A45.94,45.94,0,0,0,1009.74,1150.84Zm16.54,0a29.4,29.4,0,1,1,29.41,29.4A29.4,29.4,0,0,1,1026.28,1150.84Z"/><g class="cls-21"><path class="cls-12" d="M1020.14,1150.84a35.54,35.54,0,1,0,35.55-35.55A35.54,35.54,0,0,0,1020.14,1150.84Zm6.14,0a29.4,29.4,0,1,1,29.41,29.4A29.4,29.4,0,0,1,1026.28,1150.84Z"/></g><path class="cls-64" d="M1023.54,1150.84a32.14,32.14,0,1,0,32.15-32.15A32.14,32.14,0,0,0,1023.54,1150.84Zm4.84,0a27.3,27.3,0,1,1,27.31,27.31A27.3,27.3,0,0,1,1028.38,1150.84Z"/><path class="cls-70" d="M1025.86,1150.84a29.83,29.83,0,1,0,29.83-29.83A29.83,29.83,0,0,0,1025.86,1150.84Zm2.52,0a27.3,27.3,0,1,1,27.31,27.31A27.3,27.3,0,0,1,1028.38,1150.84Z"/><path class="cls-78" d="M945,1097.61h81.59a62.68,62.68,0,0,0-30.77,37.51H940.65c-3.95-13.49-3.34-23.47-2.51-25.85s6.79-3.27,6.79-10.29C944.93,1098.61,944.94,1098.15,945,1097.61Z"/><path class="cls-78" d="M1443.8,1097.61a52.45,52.45,0,0,0-50.22,37.51h-278a62.7,62.7,0,0,0-30.78-37.51"/><path class="cls-78" d="M1550.21,1102.26l.15.36Z"/><path class="cls-78" d="M1551.18,1105l.05.18Z"/><path class="cls-78" d="M1547.87,1097.66l0,0h0Z"/><path class="cls-78" d="M1549.05,1099.75l.17.32Z"/><path class="cls-78" d="M1552.77,1112.16c-4.34.78-11.52-.17-20.12-1.13-13.37-1.48-28.46-5.36-37.13-12-.56-.43-1.16-.92-1.78-1.46h-50a52.45,52.45,0,0,1,50.22,37.51h50.6c1.66-.38,3.3-.65,4.78-.88C1554.08,1133.52,1556.37,1131.11,1552.77,1112.16Z"/><path class="cls-79" d="M1016.7,1057a12.85,12.85,0,1,0-15.22,20.34C1008.59,1077.35,1014.61,1068.83,1016.7,1057Z"/><path class="cls-80" d="M1016.7,1057c-2.09,11.81-8.11,20.33-15.22,20.34A12.86,12.86,0,0,0,1016.7,1057Z"/><path class="cls-67" d="M1378.35,972.7c-6.84-.65-12.15-1.29-15-2.06-12.53-3.36-53.48-33.4-84.76-50.91a120.8,120.8,0,0,0-20.1-9,128.91,128.91,0,0,0-36.92-6.67v6.67H1209a12.11,12.11,0,0,0-7.13,2.33l-14.69,10.74V904l-56.26,0c-13.39,0-42.2.41-57.44,6.41-7.41,2.91-26.15,11.69-44.35,20.2-6.57,3.07-13.07,6.1-19,8.81-11.4,5.25-20.44,9.29-23.08,10-7.74,2.13-27.25,1.62-42.63,1.62-9.62,0-13,3.92-14.36,8.21a45.29,45.29,0,0,0-1.28,7.43c-.22,1.46-.69,5.09-1.26,9.81a.76.76,0,0,1,0,.15c-.47,3.91-1,8.56-1.53,13.32h295.54V1007H1361.3a13.3,13.3,0,0,0,13.14-11.2l.94-5.86h1.44a12.09,12.09,0,0,0,12.1-12.09v-4.19C1385.12,973.3,1381.57,973,1378.35,972.7Z"/><path class="cls-81" d="M1191.73,1172.57h-97.79c-19.67,0-78.11-15.33-85.47-15.33H964.2c-6.38,0-18.64-5-23.4-19.62-.26-.81-.51-1.61-.74-2.4-3.93-13.43-3.33-23.37-2.5-25.74s6.76-3.26,6.76-10.25c0-.37,0-.83,0-1.37.1-2.36.42-6.25.86-10.84.18-1.78.37-3.67.57-5.62.28-2.82,1.83-5.35,2.14-8.29.59-5.32,0-11,.5-15.34.57-4.73,1-8.36,1.26-9.82a44.91,44.91,0,0,1,1.27-7.42c1.38-4.29,4.75-8.21,14.36-8.21,15.39,0,34.89.51,42.64-1.62,5-1.37,33.06-14.68,56.48-25.58Z"/></g></g></svg>