<svg xmlns="http://www.w3.org/2000/svg" xmlns:xlink="http://www.w3.org/1999/xlink" viewBox="0 0 2506.13 1405.34"><defs><style>.cls-1,.cls-3{isolation:isolate;}.cls-2{fill:url(#linear-gradient);}.cls-15,.cls-3{fill:#fff;}.cls-3{opacity:0.37;}.cls-4{mix-blend-mode:hard-light;}.cls-5{fill:#455063;}.cls-6{fill:#556077;}.cls-7{fill:#454956;}.cls-8{fill:#565454;}.cls-10,.cls-14,.cls-22,.cls-9{fill:#bbb;}.cls-9{opacity:0.79;}.cls-10,.cls-11,.cls-14,.cls-21,.cls-32,.cls-36,.cls-40,.cls-41,.cls-44,.cls-46,.cls-53,.cls-9{mix-blend-mode:multiply;}.cls-10{opacity:0.46;}.cls-12{fill:#bcbcbc;}.cls-13{fill:#1c1c1c;}.cls-14{opacity:0.77;}.cls-16{fill:#ffa31f;}.cls-17{fill:#231f20;}.cls-18{fill:#9d9d9d;}.cls-19{fill:#e5e6e7;}.cls-20{fill:#333;}.cls-21{opacity:0.67;}.cls-23,.cls-32{fill:#d0d2d3;}.cls-24{fill:#3d3d3d;}.cls-25{fill:#bebebe;}.cls-26{fill:#545454;}.cls-27{fill:#fbbf2e;}.cls-28{fill:#dc4747;}.cls-29{fill:#9a4e4e;}.cls-30{fill:#bbbdbf;}.cls-31{fill:#010101;}.cls-33{fill:#818181;}.cls-34{fill:#28211f;}.cls-35{fill:#dfdbdb;}.cls-36,.cls-40,.cls-41,.cls-44,.cls-46,.cls-52{fill:#a4a4a4;}.cls-36{opacity:0.51;}.cls-37{fill:#383838;}.cls-38{fill:#7c7c7c;}.cls-39{fill:#686868;}.cls-40{opacity:0.32;}.cls-41,.cls-53{opacity:0.38;}.cls-42{fill:#565656;}.cls-43{fill:#3f3f3f;}.cls-44{opacity:0.75;}.cls-45{fill:#7c7b7a;}.cls-47{fill:#00a451;}.cls-48{fill:#161616;}.cls-49{fill:#f0f1f1;}.cls-50{fill:#e1e1e1;}.cls-51{fill:#d04e4e;}.cls-53{fill:#a5a5a5;}.cls-54{fill:#88c348;}.cls-55{fill:none;stroke:#f27139;stroke-miterlimit:10;stroke-width:2px;}.cls-56{fill:#f27139;}</style><linearGradient id="linear-gradient" x1="1249.74" y1="1072.86" x2="1249.74" y2="187.14" gradientTransform="translate(4.98 5.34)" gradientUnits="userSpaceOnUse"><stop offset="0" stop-color="#fff"/><stop offset="0.15" stop-color="#cfe3f3"/><stop offset="0.38" stop-color="#86b9e0"/><stop offset="0.59" stop-color="#4c98d1"/><stop offset="0.77" stop-color="#2380c7"/><stop offset="0.92" stop-color="#0971c0"/><stop offset="1" stop-color="#006cbe"/></linearGradient></defs><title>qc-bg-road</title><g class="cls-1"><g id="Layer_1" data-name="Layer 1"><rect id="_Path_" data-name="&lt;Path&gt;" class="cls-2" x="4.49" y="5.31" width="2500.51" height="1400"/><path class="cls-3" d="M4-5.26.85,388.52,311.94,342a1175.36,1175.36,0,0,1,341.52-1l235.83,33.91a710.92,710.92,0,0,0,105.76,7.23l402.09-38.76a930.41,930.41,0,0,1,152.07-2.18l428,28.93a996.64,996.64,0,0,0,154.68-1.58l351.45-30.95c10.08-.89,17.83-10.38,17.76-21.75l-2-321.19Z" transform="translate(5 5.31)"/><g class="cls-4"><polygon class="cls-5" points="2377.31 1039.42 2377.3 815.52 2367.67 815.52 2367.67 843.78 2339.45 843.79 2339.45 833.19 2332.57 833.19 2332.57 825.52 2310.54 825.52 2310.54 843.79 2299.88 843.79 2299.88 825.86 2283.36 825.86 2283.36 838.96 2278.2 838.96 2278.2 843.79 2268.56 843.79 2268.55 646.28 2245.84 646.29 2245.84 620.78 2198.7 620.78 2198.7 641.81 2190.09 641.81 2190.09 617.33 2142.26 617.34 2142.26 544.95 1955.05 544.96 1955.05 666.97 1929.59 666.97 1929.59 714.88 1880.03 714.89 1880.03 532.21 1871.08 532.21 1871.08 523.59 1865.92 523.59 1865.92 489.12 1843.55 489.12 1843.55 510.15 1843.55 523.24 1835.29 523.24 1835.29 540.13 1765.43 540.13 1757.52 540.13 1757.52 522.9 1713.12 522.9 1713.13 683.18 1697.98 683.18 1697.98 642.51 1680.43 642.51 1680.43 628.38 1656.34 628.38 1656.35 642.16 1642.92 642.16 1642.92 663.88 1620.56 663.88 1620.56 636.99 1487.72 637 1376.91 637 1376.91 615.63 1319.44 615.63 1319.44 554.97 1287.43 554.97 1287.43 632.52 1272.29 632.52 1272.3 706.63 1265.07 706.63 1265.07 728.69 1259.56 728.69 1259.56 778.67 1223.43 778.67 1223.43 723.86 1223.42 523.6 1103.32 523.61 1103.32 606.67 1080.96 606.67 1080.96 734.55 1074.76 734.55 1074.76 658.03 1043.45 658.03 1043.45 736.62 1034.16 736.62 1034.15 415.38 932.29 415.38 932.29 641.15 919.22 641.15 919.21 574.97 863.46 574.97 863.47 746.62 829.4 746.62 829.4 712.15 811.5 712.15 811.5 725.6 758.16 725.6 758.16 542.23 680.73 542.23 680.72 246.15 655.26 246.15 655.26 227.53 625.66 227.54 622.56 54.51 619.47 227.54 619.12 227.54 589.87 227.54 589.87 243.39 567.16 243.39 567.17 674.93 468.4 674.93 468.4 701.82 407.15 701.82 407.14 562.91 403.02 562.91 403.02 555.33 372.39 529.48 339.69 553.61 339.69 561.54 334.19 561.54 334.19 572.91 323.18 572.91 323.18 748.01 286.01 748.01 244.03 748.01 244.03 668.05 237.15 668.05 237.15 657.02 227.85 657.02 227.85 636.68 166.94 636.68 166.94 657.36 161.44 657.36 161.44 665.98 151.46 665.98 151.46 715.62 141.48 715.62 141.48 796.96 132.19 796.96 132.19 833.24 132.19 1039.47 2377.31 1039.42"/><path class="cls-6" d="M2458.31,1034.1V914.86h-18.25v-27H2335.3s1.25,25.47,0,24.21-135.88,0-135.88,0V841.67h-79.19V657.15h-36.4V636.27h-60v18.37h-37V817.46h-7.78v-23.1h-23.9V585.62h9.17V570.87H1788.44v13.64h7.22V698.9c0,1.39-42.24,0-42.24,0V681.65h-38.62v17H1692.3V778.5h-34.46V515.77h-4.72V501.86H1500.57V714.22h-42v-96.3h-54.74V757.36h-13.34V695h-5.84v-7h-6.39v-8.91L1369.41,665v-15h-7.78V664.4L1352.19,678v9.46h-5.84v5.57h-8.06v62.06H1324.4v15h-12.78v16.42h-5.84V709.77h-17.51V724h-7.78v50.1H1269.1V883.72h-8.61v-52.6h-10.74V788H1243V702h-4.45v-23.1h-32v7.51H1196V672.48h-24.45v6.4h-3.89V664.41H1156v15h-34.73v69h-6.39v11.13H1079V874.81h-13.89V740.67H992.06v39h-3.89V767.11h-8.06v-9.74h-6.39v-52.6h-7.78V687H932.88v-12.8h-6.95v-27h-6.11v-5.57h-5.56v-16.7H894v16.7h-8.34v37.85H866.46V786H846.74v82.38h-4.17V734H819.23v17h-2.78v-5.29h-3.33v-4.45H802.83v3.9h-2.78v4.73h-1.95v8.07H787.83V852c0,1.39-18.62,0-18.62,0V688.91H750.87V674.71l-36.68-13.64H702.52v54H684.74v-16.7H646.11v72.08H634.44v-8.35H605.82V854H603V710.9h-5V696.15h-6.11V685.29h-6.39v-8.63H564.7v9.18h-6.95v8.63H550.8v14.75h-6.95V855.62h-8.61V746.52h-7.78V649.67h-6.67v-9.74h-6.67v-9.18l-13.06-17.63H457.43l-15,14.84v10.85h-5.84V648H426.31v95.18h-7.78V844.77h-5.28V745.69H383V626.29H372.68V613.12H362.62a37,37,0,0,0-71.58,0h-9v12.06H268.3v203H223.47V749.5H95.28V870.2H41.19v164Z" transform="translate(5 5.31)"/><polygon class="cls-7" points="2505.01 1039.41 2505.01 1008.2 2299.19 1008.2 2299.19 984.78 2192.63 984.78 2192.63 969.05 2065 969.05 2065 955.23 1892.14 955.23 1892.14 1000.91 1786.74 1000.92 1786.74 987.87 1737.68 987.87 1737.68 980.96 1712.77 980.96 1712.77 986.72 1706.64 986.72 1706.63 735.27 1678.65 735.27 1678.65 717.99 1642.24 717.99 1642.24 734.12 1588.2 734.12 1588.2 677.69 1566.54 677.69 1566.54 662.14 1516.33 662.14 1516.33 678.65 1487.97 678.65 1487.97 705.71 1431.44 705.71 1431.44 918.39 1333.51 918.39 1321.63 929.91 1321.63 994.98 1058.32 994.98 1058.32 986.15 1036.66 986.15 1027.47 979.82 971.7 979.82 960.78 986.16 862.08 986.16 862.08 967.73 850.01 960.25 834.49 960.25 834.48 933.18 811.49 933.18 811.49 962.36 806.89 962.36 806.89 933.57 791.56 933.57 791.56 966.2 715.48 966.2 715.48 956.03 709.92 943.93 703.21 955.45 703.21 970.62 690.56 970.62 690.56 978.87 677.34 978.87 677.34 903.82 611.61 903.82 611.61 927.62 598.58 927.62 598.58 900.17 579.99 900.17 579.99 968.51 532.08 968.51 532.08 926.66 521.15 926.66 521.15 856.99 442.77 856.99 442.77 869.27 438.56 869.27 438.56 879.45 424.38 879.45 424.38 952.58 384.13 952.58 384.13 923.02 307.28 923.02 307.28 913.81 284.29 913.81 284.29 921.87 275.47 921.87 275.47 837.61 254.39 837.61 254.39 815.15 247.11 815.15 247.11 803.06 243.37 803.06 243.37 792.69 233.88 792.69 233.88 803.06 230.43 803.06 230.43 814.86 224.69 814.86 224.69 823.21 222.67 823.21 222.67 831.27 209.16 831.27 209.16 814.86 193.93 814.86 193.93 826.96 164.61 826.96 164.61 883.39 147.94 883.39 147.94 893.47 142.76 893.47 142.76 974.37 4.5 974.37 4.5 976.39 4.5 1031.64 4.5 1039.47 2505.01 1039.41"/></g><polygon points="255.28 542.31 263.29 542.31 265.83 532.18 255.28 532.18 255.28 542.31"/><path class="cls-8" d="M84.35,529.92a7.8,7.8,0,0,0,6.8,5.7H104c2.14,0,19.12,4.45,24.84,4.45H256.8c1.69,0,2.67-.05,3.43-1.53s.82-3.05-.22-3.05H255.6c-1.37,0-.38-3.43.44-4.69s2.83-1.61,4.29-1.84,2-.91,1-6.39c-.07-.4-.16-.82-.25-1.26a10,10,0,0,0-4-6c-.42-.31-.82-.59-1.19-.83-3.41-2.19-8.1-3.72-13.09-5.35-4.52-1.47-11.09-2.25-16.95-2.79l-2.36-.21a96,96,0,0,1-10.21-1.1c-3.64-1-15.54-9.71-24.63-14.79s-17.37-4.58-21-4.58H145.66c-3.89,0-12.26.12-16.69,1.86s-22.85,10.72-25.1,11.34-7.92.47-12.39.47c-2.8,0-3.77,1.14-4.17,2.39a13.1,13.1,0,0,0-.37,2.16c-.07.42-.2,1.48-.37,2.85s0,2.91-.14,4.46c-.09.85-.54,1.59-.62,2.41l-.17,1.63c-.16,1.64-.26,3-.26,3.55,0,2-1.71,2.25-2,3S83,525.67,84.35,529.92Z" transform="translate(5 5.31)"/><path class="cls-9" d="M85.64,515.22h7.25a2.87,2.87,0,0,0,2.87-2.87v-7.76a2.87,2.87,0,0,0-2.87-2.87H87.31a13.1,13.1,0,0,0-.37,2.16c-.07.42-.2,1.48-.37,2.85s0,2.91-.14,4.46c-.09.85-.54,1.59-.62,2.41Z" transform="translate(5 5.31)"/><path class="cls-10" d="M83.3,524.91a23,23,0,0,0,1.05,5,9.06,9.06,0,0,0,1.3,2.57,7.36,7.36,0,0,0,5.49,3.13H104c2.14,0,19.12,4.45,24.84,4.45H256.8c1.69,0,2.67-.05,3.43-1.53s.82-3.05-.22-3.05H255.6c-.93,0-.77-1.59-.31-3a7.31,7.31,0,0,1,.75-1.68c.82-1.25,2.83-1.61,4.29-1.84,1.13-.18,1.78-.69,1.36-4.06Z" transform="translate(5 5.31)"/><g class="cls-11"><path class="cls-12" d="M121.24,504.16a7.22,7.22,0,0,0-.74,5.52c.4,1.3,2.45,3.29,5.3,6,1,.92,2,2,3.17,3.1,3.83,3.82,6,10.07,6.89,12.73.17.49.3.87.4,1.11.65,1.63,1.46,2,2.46,2H166.2a215.29,215.29,0,0,0-1.74-27.5l.32,0a215.57,215.57,0,0,1,1.75,27.54h40.61a1.56,1.56,0,0,0,1.53-1.14c.16-.66,1.47-10.14,1.79-15.12s-.2-6.43-2.89-8.84-12.63-8.42-12.73-8.48l.17-.28c.1.06,10.13,6.14,12.78,8.52s3.32,4.12,3,9.11-1.64,14.52-1.8,15.18a1.89,1.89,0,0,1-1.85,1.39H138.72c-1.35,0-2.15-.63-2.77-2.17-.1-.25-.23-.64-.4-1.13-.91-2.64-3-8.84-6.81-12.61-1.13-1.13-2.21-2.17-3.17-3.1-2.88-2.79-5-4.8-5.38-6.18A7.48,7.48,0,0,1,121,504Z" transform="translate(5 5.31)"/><path class="cls-12" d="M100.47,509.73a3,3,0,1,0,3-3A3,3,0,0,0,100.47,509.73Zm.33,0a2.67,2.67,0,1,1,2.67,2.67A2.67,2.67,0,0,1,100.8,509.73Z" transform="translate(5 5.31)"/></g><path class="cls-13" d="M124.11,508.05h74.57c2,0,2.83-1.31,2.69-2.25s-8.65-7.7-14.47-11.12c-.63-.37-1.26-.72-1.92-1.06h0a48.07,48.07,0,0,0-10.74-4c-.74-.17-1.43-.3-2-.39a11.65,11.65,0,0,0-1.57-.13H142.94c-6.4,0-21.7,8.14-24,11.49C117.36,502.81,122.29,508.05,124.11,508.05Z" transform="translate(5 5.31)"/><path class="cls-8" d="M169.15,508.05h-7.84l-2.25-19h4.22Z" transform="translate(5 5.31)"/><path class="cls-13" d="M213.21,505a18.61,18.61,0,0,1-3.52.81,6.44,6.44,0,0,1-3.33-.76c-.49-.38-17.88-12.53-19.46-13.57s-.76-2.07,0-2.07h.16c.5.25,1,.52,1.52.8,9.09,5.09,21,13.82,24.63,14.79Z" transform="translate(5 5.31)"/><path class="cls-13" d="M128.7,487.63c.27.29.23.77-.41,1.28-1.05.84-15.48,7.88-17.19,8.76s-3.69.9-6.42.91C108.81,496.93,124.23,489.44,128.7,487.63Z" transform="translate(5 5.31)"/><path class="cls-14" d="M244.73,518.79c2.51,1.91,6.88,3,10.75,3.46a25.45,25.45,0,0,0,5.83.33c-.07-.4-.16-.82-.25-1.26a10,10,0,0,0-4-6c-.42-.31-.82-.59-1.19-.83a7.18,7.18,0,0,0-1-.54c-2.36-1-9.33-2-12.32-2.51C237.24,510.64,242.22,516.88,244.73,518.79Z" transform="translate(5 5.31)"/><path class="cls-15" d="M242.73,512.77c2.28.35,7.58,1.14,9.38,1.91s6.16,4.76,5.89,5.87-2.45.78-5.4.45-6.27-1.18-8.18-2.63S238.73,512.16,242.73,512.77Z" transform="translate(5 5.31)"/><path class="cls-16" d="M244.42,518.37c-1.91-1.45-5.7-6.21-1.69-5.6l2.56.4c1.47,1.08,5,4,6.1,7.67A16.4,16.4,0,0,1,244.42,518.37Z" transform="translate(5 5.31)"/><path class="cls-15" d="M94.35,505.53v5.89a2.18,2.18,0,0,1-2.18,2.18H86.1c.24-2.31.23-4.91.47-6.87.16-1.37.3-2.43.37-2.85,0-.16,0-.34.07-.53h5.16A2.18,2.18,0,0,1,94.35,505.53Z" transform="translate(5 5.31)"/><path class="cls-16" d="M94.35,511.41a2.18,2.18,0,0,1-2.18,2.18H85.8c.24-2.31.53-4.91.77-6.87h7.78Z" transform="translate(5 5.31)"/><path class="cls-10" d="M85.66,532.5a7.36,7.36,0,0,0,5.49,3.13H104c2.14,0,19.12,4.45,24.84,4.45H256.8c1.69,0,2.67-.05,3.43-1.53s.82-3.05-.22-3.05H255.6c-.93,0-.77-1.59-.31-3Z" transform="translate(5 5.31)"/><path d="M102.27,533.52a15.15,15.15,0,0,1,30.31,0v6.56h-3.72c-5.72,0-22.7-4.45-24.84-4.45h-1.74Z" transform="translate(5 5.31)"/><path class="cls-14" d="M211.69,534.35v5.73h36.14v-5.73a18.07,18.07,0,0,0-36.14,0Z" transform="translate(5 5.31)"/><path class="cls-14" d="M99.36,534.35v1.28H104c2.14,0,19.12,4.45,24.84,4.45h6.64v-5.73a18.07,18.07,0,0,0-36.14,0Z" transform="translate(5 5.31)"/><path d="M214.6,533.52a15.15,15.15,0,0,1,30.31,0v6.56H214.6Z" transform="translate(5 5.31)"/><path class="cls-17" d="M229.81,541.68a7.9,7.9,0,1,1,7.9-7.9A7.9,7.9,0,0,1,229.81,541.68Z" transform="translate(5 5.31)"/><path class="cls-18" d="M221.68,535.44a8.24,8.24,0,0,0,1.07,2.7l1.07-.56,4.19-2.21a2.56,2.56,0,0,0,1.17.81l-.61,4.6-.16,1.19a8.24,8.24,0,0,0,1.41.12,8.35,8.35,0,0,0,1.46-.13l-.11-1.2-.41-4.55a2.58,2.58,0,0,0,1.22-.8l3.92,2.07L237,538a8.25,8.25,0,0,0,1-2.65L236.8,535l-4.22-1.14c0-.06,0-.13,0-.19a2.57,2.57,0,0,0-.56-1.6l2.66-3.49.73-1a8.38,8.38,0,0,0-2.41-1.54l-.5,1.1-1.83,4a2.49,2.49,0,0,0-.68-.09,2.56,2.56,0,0,0-.88.15l-2.16-4-.57-1.06a8.29,8.29,0,0,0-2.39,1.64l.79.91,3.06,3.51a2.58,2.58,0,0,0-.44,1.44c0,.06,0,.12,0,.18l-4.58,1.23Z" transform="translate(5 5.31)"/><path class="cls-19" d="M222.84,535.12a7,7,0,0,0,1,2.45l4.19-2.21a2.56,2.56,0,0,0,1.17.81l-.61,4.6a7,7,0,0,0,1.25.11,6.9,6.9,0,0,0,1.36-.13l-.41-4.55a2.58,2.58,0,0,0,1.22-.8l3.92,2.07a7,7,0,0,0,.91-2.41l-4.22-1.14c0-.06,0-.13,0-.19a2.57,2.57,0,0,0-.56-1.6l2.66-3.49a7.1,7.1,0,0,0-2.17-1.41l-1.83,4a2.49,2.49,0,0,0-.68-.09,2.56,2.56,0,0,0-.88.15l-2.16-4a7.13,7.13,0,0,0-2.17,1.48l3.06,3.51a2.58,2.58,0,0,0-.44,1.44c0,.06,0,.12,0,.18Z" transform="translate(5 5.31)"/><circle class="cls-10" cx="234.92" cy="539.03" r="1.7"/><circle class="cls-20" cx="234.92" cy="537.75" r="0.5"/><circle class="cls-20" cx="234.92" cy="540.31" r="0.5"/><circle class="cls-20" cx="236.2" cy="539.03" r="0.5"/><circle class="cls-20" cx="233.64" cy="539.03" r="0.5"/><path class="cls-20" d="M216.52,533.77a13.3,13.3,0,1,0,13.3-13.3A13.29,13.29,0,0,0,216.52,533.77Zm4.79,0a8.51,8.51,0,1,1,8.51,8.51A8.51,8.51,0,0,1,221.3,533.77Z" transform="translate(5 5.31)"/><g class="cls-21"><path class="cls-22" d="M219.53,533.77a10.29,10.29,0,1,0,10.29-10.29A10.29,10.29,0,0,0,219.53,533.77Zm1.78,0a8.51,8.51,0,1,1,8.51,8.51A8.51,8.51,0,0,1,221.3,533.77Z" transform="translate(5 5.31)"/></g><path class="cls-23" d="M220.51,533.77a9.3,9.3,0,1,0,9.3-9.3A9.3,9.3,0,0,0,220.51,533.77Zm1.4,0a7.9,7.9,0,1,1,7.9,7.9A7.9,7.9,0,0,1,221.91,533.77Z" transform="translate(5 5.31)"/><path class="cls-10" d="M221.18,533.77a8.63,8.63,0,1,0,8.63-8.63A8.63,8.63,0,0,0,221.18,533.77Zm.73,0a7.9,7.9,0,1,1,7.9,7.9A7.9,7.9,0,0,1,221.91,533.77Z" transform="translate(5 5.31)"/><path class="cls-17" d="M117.43,541.68a7.9,7.9,0,1,1,7.9-7.9A7.9,7.9,0,0,1,117.43,541.68Z" transform="translate(5 5.31)"/><path class="cls-18" d="M109.29,535.44a8.24,8.24,0,0,0,1.07,2.7l1.07-.56,4.19-2.21a2.56,2.56,0,0,0,1.17.81l-.61,4.6L116,542a8.24,8.24,0,0,0,1.41.12,8.35,8.35,0,0,0,1.46-.13l-.11-1.2-.41-4.55a2.58,2.58,0,0,0,1.22-.8l3.92,2.07,1.06.56a8.26,8.26,0,0,0,1-2.65l-1.17-.32-4.22-1.14c0-.06,0-.13,0-.19a2.57,2.57,0,0,0-.56-1.6l2.66-3.49.73-1a8.38,8.38,0,0,0-2.41-1.54l-.5,1.1-1.83,4a2.49,2.49,0,0,0-.68-.09,2.56,2.56,0,0,0-.88.15l-2.16-4-.57-1.06a8.3,8.3,0,0,0-2.39,1.64l.79.91,3.06,3.51a2.58,2.58,0,0,0-.44,1.44c0,.06,0,.12,0,.18l-4.58,1.23Z" transform="translate(5 5.31)"/><path class="cls-19" d="M110.46,535.12a7,7,0,0,0,1,2.45l4.19-2.21a2.56,2.56,0,0,0,1.17.81l-.61,4.6a7,7,0,0,0,1.25.11,6.9,6.9,0,0,0,1.36-.13l-.41-4.55a2.58,2.58,0,0,0,1.22-.8l3.92,2.07a7,7,0,0,0,.91-2.41l-4.22-1.14c0-.06,0-.13,0-.19a2.57,2.57,0,0,0-.56-1.6l2.66-3.49a7.1,7.1,0,0,0-2.17-1.41l-1.83,4a2.49,2.49,0,0,0-.68-.09,2.56,2.56,0,0,0-.88.15l-2.16-4a7.13,7.13,0,0,0-2.17,1.48l3.06,3.51a2.58,2.58,0,0,0-.44,1.44c0,.06,0,.12,0,.18Z" transform="translate(5 5.31)"/><circle class="cls-10" cx="122.53" cy="539.04" r="1.7"/><circle class="cls-20" cx="122.53" cy="537.76" r="0.5"/><circle class="cls-20" cx="122.53" cy="540.31" r="0.5"/><circle class="cls-20" cx="123.81" cy="539.04" r="0.5"/><circle class="cls-20" cx="121.25" cy="539.04" r="0.5"/><path class="cls-20" d="M104.13,533.78a13.3,13.3,0,1,0,13.3-13.3A13.29,13.29,0,0,0,104.13,533.78Zm4.79,0a8.51,8.51,0,1,1,8.51,8.51A8.51,8.51,0,0,1,108.92,533.78Z" transform="translate(5 5.31)"/><g class="cls-21"><path class="cls-22" d="M107.14,533.78a10.29,10.29,0,1,0,10.29-10.29A10.29,10.29,0,0,0,107.14,533.78Zm1.78,0a8.51,8.51,0,1,1,8.51,8.51A8.51,8.51,0,0,1,108.92,533.78Z" transform="translate(5 5.31)"/></g><path class="cls-23" d="M108.13,533.78a9.3,9.3,0,1,0,9.3-9.3A9.3,9.3,0,0,0,108.13,533.78Zm1.4,0a7.9,7.9,0,1,1,7.9,7.9A7.9,7.9,0,0,1,109.53,533.78Z" transform="translate(5 5.31)"/><path class="cls-10" d="M108.8,533.78a8.63,8.63,0,1,0,8.63-8.63A8.63,8.63,0,0,0,108.8,533.78Zm.73,0a7.9,7.9,0,1,1,7.9,7.9A7.9,7.9,0,0,1,109.53,533.78Z" transform="translate(5 5.31)"/><path class="cls-24" d="M1168.75,514.34v13.76a3,3,0,0,1-3,3H1048.1a3,3,0,0,1-1.88-.65l-9.48-7.5a3,3,0,0,0-1.88-.65h-34.74a3,3,0,1,1,0-6.06h114.81a3,3,0,0,0,1.79-.58l1.5-1.1,3.68-2.69a3,3,0,0,1,1.79-.58h42A3,3,0,0,1,1168.75,514.34Z" transform="translate(5 5.31)"/><rect class="cls-25" x="1002.05" y="516.27" width="15.42" height="12.66" transform="translate(2024.52 1050.5) rotate(180)"/><path class="cls-26" d="M1118.22,441.33v73.56a3.58,3.58,0,0,1-3.58,3.59H999.88l-1.24,3.46-2.1,5.89h-8.81v-86.5a4.88,4.88,0,0,1,4.88-4.88h120.73A4.88,4.88,0,0,1,1118.22,441.33Z" transform="translate(5 5.31)"/><rect class="cls-20" x="999.85" y="527.28" width="19.82" height="4.95" rx="1.08" ry="1.08" transform="translate(2024.53 1064.81) rotate(180)"/><rect class="cls-20" x="994.34" y="512.39" width="119.48" height="2.51" rx="0.98" ry="0.98" transform="translate(2113.17 1032.57) rotate(180)"/><rect class="cls-20" x="1057.21" y="523.98" width="62.11" height="11.99" rx="2.54" ry="2.54" transform="translate(2181.55 1065.24) rotate(180)"/><rect class="cls-20" x="987.18" y="525.08" width="9.89" height="7.16" rx="1.36" ry="1.36" transform="translate(1989.27 1062.61) rotate(180)"/><path class="cls-24" d="M987.73,441.33v1.18h130.49v-1.18a4.88,4.88,0,0,0-4.88-4.88H992.61A4.88,4.88,0,0,0,987.73,441.33Z" transform="translate(5 5.31)"/><rect class="cls-27" x="992.54" y="438.38" width="5.51" height="2.2" rx="0.86" ry="0.86" transform="translate(1995.59 884.26) rotate(180)"/><rect class="cls-28" x="989.37" y="521.5" width="5.51" height="2.2" rx="0.86" ry="0.86" transform="translate(1989.27 1050.5) rotate(180)"/><rect class="cls-27" x="1108.06" y="438.38" width="5.51" height="2.2" rx="0.86" ry="0.86" transform="translate(2226.64 884.25) rotate(180)"/><path class="cls-29" d="M1202.55,510.16v20.61a4.63,4.63,0,0,1-4.63,4.63h-.4l-.23-2-.59-5a10.73,10.73,0,0,0-10.42-9.76h-10a10.2,10.2,0,0,0-7.48,3.32,11.27,11.27,0,0,0-2.65,4.87,10.76,10.76,0,0,0-.23,1.07l-.52,3.23-.24,1.47a3.33,3.33,0,0,1-3.29,2.8h-35V477.18a2.29,2.29,0,0,1,2.33-2.29l19.5.38a6.77,6.77,0,0,1,4.39,1.74l17.42,15.73,6.46,5.84,21.73,6.67a5.05,5.05,0,0,1,3.48,3l0,0A5,5,0,0,1,1202.55,510.16Z" transform="translate(5 5.31)"/><path d="M1176.23,518.64h10a10.73,10.73,0,0,1,10.42,9.76l.51,4.33h-32.1s0-.09,0-.13l.76-4.7A10.7,10.7,0,0,1,1176.23,518.64Z" transform="translate(5 5.31)"/><rect class="cls-30" x="1130.51" y="481.78" height="56.27"/><path class="cls-24" d="M1125.51,532.73h0c-.73,0-1.33-.43-1.33-1V477.43c0-.53.59-1,1.33-1h0c.73,0,1.33.43,1.33,1v54.33C1126.84,532.3,1126.24,532.73,1125.51,532.73Z" transform="translate(5 5.31)"/><g class="cls-11"><path class="cls-23" d="M1157.5,531.33h-26.67a2.5,2.5,0,0,1-2.5-2.51c0-6.32.15-27.06.13-28.85l-.15-18.75a4.36,4.36,0,0,1,1.1-3,4.17,4.17,0,0,1,3.11-1.37h16.23a4.2,4.2,0,0,1,2.9,1.15l20.14,19.07a4.12,4.12,0,0,1,1.28,3c0,1.78-1.79,16.5-4,17.35-5.31,2-7.41,7.94-8.18,11.28A3.43,3.43,0,0,1,1157.5,531.33Zm-25-53.95a3.64,3.64,0,0,0-2.71,1.2,3.82,3.82,0,0,0-1,2.63L1129,500c0,1.75-.09,20.77-.13,28.86a2,2,0,0,0,2,2h26.67a2.89,2.89,0,0,0,2.84-2.24c.8-3.45,3-9.55,8.52-11.66,1.66-.63,3.68-14.12,3.68-16.85a3.57,3.57,0,0,0-1.11-2.58l-20.14-19.07a3.65,3.65,0,0,0-2.52-1Z" transform="translate(5 5.31)"/></g><path class="cls-31" d="M1132.53,478.11h16.23a2.94,2.94,0,0,1,2,.81L1170.92,498a2.83,2.83,0,0,1,.88,2.06h0a2.83,2.83,0,0,1-2.83,2.83h-36.3a2.94,2.94,0,0,1-2.94-2.92l-.15-18.88A2.94,2.94,0,0,1,1132.53,478.11Z" transform="translate(5 5.31)"/><path class="cls-17" d="M1173.18,533.58a8,8,0,1,1,8,8A8,8,0,0,1,1173.18,533.58Z" transform="translate(5 5.31)"/><path class="cls-19" d="M1178.39,533.71c0-.06,0-.13,0-.19a2.61,2.61,0,0,1,.57-1.62l-3.44-4.52a8.42,8.42,0,0,1,2.44-1.56l2.36,5.17a2.57,2.57,0,0,1,1.58.06l2.77-5.14a8.43,8.43,0,0,1,2.42,1.66l-3.9,4.48a2.61,2.61,0,0,1,.45,1.46c0,.06,0,.12,0,.18l5.82,1.57a8.35,8.35,0,0,1-1.08,2.73l-5.33-2.81a2.62,2.62,0,0,1-1.19.81l.78,5.87a8.35,8.35,0,0,1-2.91,0l.53-5.84a2.62,2.62,0,0,1-1.23-.81l-5,2.66a8.36,8.36,0,0,1-1-2.69Z" transform="translate(5 5.31)"/><circle class="cls-20" cx="1186.08" cy="537.54" r="0.51"/><circle class="cls-20" cx="1186.08" cy="540.13" r="0.51"/><circle class="cls-20" cx="1184.79" cy="538.83" r="0.51"/><circle class="cls-20" cx="1187.38" cy="538.83" r="0.51"/><path class="cls-20" d="M1167.71,533.58a13.48,13.48,0,1,0,13.48-13.47A13.47,13.47,0,0,0,1167.71,533.58Zm4.85,0a8.62,8.62,0,1,1,8.62,8.62A8.62,8.62,0,0,1,1172.57,533.58Z" transform="translate(5 5.31)"/><path class="cls-23" d="M1171.76,533.58a9.43,9.43,0,1,0,9.43-9.43A9.43,9.43,0,0,0,1171.76,533.58Zm1.42,0a8,8,0,1,1,8,8A8,8,0,0,1,1173.18,533.58Z" transform="translate(5 5.31)"/><path class="cls-17" d="M1027.15,533.58a8,8,0,1,1,8,8A8,8,0,0,1,1027.15,533.58Z" transform="translate(5 5.31)"/><path class="cls-19" d="M1032.36,533.71c0-.06,0-.13,0-.19a2.61,2.61,0,0,1,.57-1.62l-3.44-4.52a8.42,8.42,0,0,1,2.44-1.56l2.36,5.17a2.57,2.57,0,0,1,1.58.06l2.77-5.14a8.43,8.43,0,0,1,2.42,1.66l-3.9,4.48a2.61,2.61,0,0,1,.45,1.46c0,.06,0,.12,0,.18l5.82,1.57a8.36,8.36,0,0,1-1.08,2.73l-5.33-2.81a2.62,2.62,0,0,1-1.19.81l.78,5.87a8.35,8.35,0,0,1-2.91,0l.53-5.84a2.62,2.62,0,0,1-1.23-.81l-5,2.66a8.36,8.36,0,0,1-1-2.69Z" transform="translate(5 5.31)"/><circle class="cls-20" cx="1040.06" cy="537.54" r="0.51"/><circle class="cls-20" cx="1040.06" cy="540.13" r="0.51"/><circle class="cls-20" cx="1038.76" cy="538.84" r="0.51"/><circle class="cls-20" cx="1041.35" cy="538.84" r="0.51"/><path class="cls-20" d="M1021.69,533.58a13.48,13.48,0,1,0,13.48-13.47A13.47,13.47,0,0,0,1021.69,533.58Zm4.85,0a8.62,8.62,0,1,1,8.62,8.62A8.62,8.62,0,0,1,1026.54,533.58Z" transform="translate(5 5.31)"/><path class="cls-23" d="M1025.74,533.58a9.43,9.43,0,1,0,9.43-9.43A9.43,9.43,0,0,0,1025.74,533.58Zm1.42,0a8,8,0,1,1,8,8A8,8,0,0,1,1027.15,533.58Z" transform="translate(5 5.31)"/><path class="cls-23" d="M1169,505.4h-37.52a.27.27,0,0,1-.27-.27h0a.27.27,0,0,1,.27-.27H1169a.27.27,0,0,1,.27.27h0A.27.27,0,0,1,1169,505.4Z" transform="translate(5 5.31)"/><path class="cls-24" d="M1173.33,506H1170a.81.81,0,0,1-.66-1l.83-5.42a.73.73,0,0,1,.66-.68h2.52a3.69,3.69,0,0,1,3.81,3.55h0A3.69,3.69,0,0,1,1173.33,506Z" transform="translate(5 5.31)"/><path class="cls-32" d="M1173.33,503.86H1170a.61.61,0,0,1-.46-.22l-.21,1.35a.81.81,0,0,0,.66,1h3.35a3.69,3.69,0,0,0,3.81-3.55h0a3.33,3.33,0,0,0-.17-1.06A3.79,3.79,0,0,1,1173.33,503.86Z" transform="translate(5 5.31)"/><path class="cls-33" d="M1197.54,519.21l5,2v-11h-4.37a1.73,1.73,0,0,0-1.73,1.73v5.73A1.73,1.73,0,0,0,1197.54,519.21Z" transform="translate(5 5.31)"/><path class="cls-15" d="M1197.44,511.87v5.73a.76.76,0,0,0,.62.68l1.12.33,2.41.71a1,1,0,0,0,1.35-1v-6.12a1,1,0,0,0-1-1h-3.47C1197.88,511.14,1197.44,511.47,1197.44,511.87Z" transform="translate(5 5.31)"/><path class="cls-17" d="M1206.72,535.4h-9.92l-.14-7.43,6,.14a4,4,0,0,1,4,4Z" transform="translate(5 5.31)"/><path class="cls-34" d="M1147.94,479.84h-7.33l-9,18.71v.07a2.53,2.53,0,0,0,2.53,2.51h3.74l10.27-21.29Z" transform="translate(5 5.31)"/><polygon class="cls-34" points="1159.23 490.16 1155.45 486.58 1145.85 506.45 1151.37 506.45 1159.23 490.16"/><path class="cls-28" d="M1197.44,511.87v5.73a.76.76,0,0,0,.62.68l1.12.33v-7.47h-.76C1197.88,511.14,1197.44,511.47,1197.44,511.87Z" transform="translate(5 5.31)"/><path class="cls-20" d="M1131.86,510.15h11a2.62,2.62,0,0,0-2.62-2.62h-5.73a2.62,2.62,0,0,0-2.62,2.62Z" transform="translate(5 5.31)"/><path class="cls-32" d="M994.21,450.77h116.67a2.17,2.17,0,0,0,2.17-2.17h0a2.17,2.17,0,0,0-2.17-2.17H994.21A2.17,2.17,0,0,0,992,448.6h0A2.17,2.17,0,0,0,994.21,450.77Z" transform="translate(5 5.31)"/><path class="cls-32" d="M994.21,458.05h116.67a2.17,2.17,0,0,0,2.17-2.17h0a2.17,2.17,0,0,0-2.17-2.17H994.21a2.17,2.17,0,0,0-2.17,2.17h0A2.17,2.17,0,0,0,994.21,458.05Z" transform="translate(5 5.31)"/><path class="cls-32" d="M994.21,465.34h116.67a2.17,2.17,0,0,0,2.17-2.17h0a2.17,2.17,0,0,0-2.17-2.17H994.21a2.17,2.17,0,0,0-2.17,2.17h0A2.17,2.17,0,0,0,994.21,465.34Z" transform="translate(5 5.31)"/><path class="cls-32" d="M994.21,472.62h116.67a2.17,2.17,0,0,0,2.17-2.17h0a2.17,2.17,0,0,0-2.17-2.17H994.21a2.17,2.17,0,0,0-2.17,2.17h0A2.17,2.17,0,0,0,994.21,472.62Z" transform="translate(5 5.31)"/><path class="cls-32" d="M994.21,479.9h116.67a2.17,2.17,0,0,0,2.17-2.17h0a2.17,2.17,0,0,0-2.17-2.17H994.21a2.17,2.17,0,0,0-2.17,2.17h0A2.17,2.17,0,0,0,994.21,479.9Z" transform="translate(5 5.31)"/><path class="cls-32" d="M994.21,487.18h116.67A2.17,2.17,0,0,0,1113,485h0a2.17,2.17,0,0,0-2.17-2.17H994.21A2.17,2.17,0,0,0,992,485h0A2.17,2.17,0,0,0,994.21,487.18Z" transform="translate(5 5.31)"/><path class="cls-32" d="M994.21,494.46h116.67a2.17,2.17,0,0,0,2.17-2.17h0a2.17,2.17,0,0,0-2.17-2.17H994.21A2.17,2.17,0,0,0,992,492.3h0A2.17,2.17,0,0,0,994.21,494.46Z" transform="translate(5 5.31)"/><path class="cls-32" d="M994.21,501.74h116.67a2.17,2.17,0,0,0,2.17-2.17h0a2.17,2.17,0,0,0-2.17-2.17H994.21a2.17,2.17,0,0,0-2.17,2.17h0A2.17,2.17,0,0,0,994.21,501.74Z" transform="translate(5 5.31)"/><path class="cls-32" d="M994.21,509h116.67a2.17,2.17,0,0,0,2.17-2.17h0a2.17,2.17,0,0,0-2.17-2.17H994.21a2.17,2.17,0,0,0-2.17,2.17h0A2.17,2.17,0,0,0,994.21,509Z" transform="translate(5 5.31)"/><path class="cls-32" d="M1170.48,492.73l8.08,7.7s15.48,4.64,19.32,5.56c3.48.83,4.17,2,4.26,2.22a5.06,5.06,0,0,0-3.48-3l-21.73-6.67Z" transform="translate(5 5.31)"/><rect class="cls-35" x="4.49" y="527.49" width="2500.51" height="68"/><rect class="cls-36" x="4.49" y="561.49" width="2500.51" height="34"/><rect class="cls-37" x="84.83" y="595.52" width="133.16" height="4.87"/><rect class="cls-38" x="84.83" y="600.39" width="133.16" height="10.04"/><polygon class="cls-39" points="217.99 610.43 179.8 633.04 123.02 633.04 84.83 610.44 217.99 610.43"/><rect class="cls-35" x="123.02" y="633.04" width="56.78" height="144.68"/><polygon class="cls-40" points="151.42 595.52 151.42 777.72 123.03 777.73 123.02 633.04 84.83 610.44 84.83 595.53 151.42 595.52"/><rect class="cls-37" x="458.63" y="595.52" width="133.16" height="4.87"/><rect class="cls-38" x="458.63" y="600.39" width="133.16" height="10.04"/><polygon class="cls-39" points="591.78 610.42 553.6 633.03 496.81 633.04 458.63 610.43 591.78 610.42"/><rect class="cls-35" x="496.82" y="633.04" width="56.78" height="144.68"/><polygon class="cls-40" points="525.21 595.51 525.21 777.72 496.82 777.72 496.81 633.04 458.63 610.43 458.63 595.52 525.21 595.51"/><rect class="cls-37" x="832.42" y="595.51" width="133.16" height="4.87"/><rect class="cls-38" x="832.42" y="600.38" width="133.16" height="10.04"/><polygon class="cls-39" points="965.57 610.42 927.39 633.03 870.6 633.03 832.42 610.42 965.57 610.42"/><rect class="cls-35" x="870.61" y="633.03" width="56.78" height="144.68"/><polygon class="cls-40" points="899 595.51 899.01 777.71 870.61 777.71 870.61 633.03 832.42 610.42 832.42 595.51 899 595.51"/><polygon class="cls-41" points="927.39 661.75 927.39 777.71 870.61 777.71 870.6 633.03 832.42 610.42 832.42 595.51 864.72 595.51 869.32 600.38 878.83 610.42 900.22 633.03 927.39 661.75"/><rect class="cls-37" x="1206.21" y="595.5" width="133.16" height="4.87"/><rect class="cls-38" x="1206.21" y="600.37" width="133.16" height="10.04"/><polygon class="cls-39" points="1339.37 610.41 1301.18 633.02 1244.4 633.02 1206.21 610.41 1339.37 610.41"/><rect class="cls-35" x="1244.4" y="633.02" width="56.78" height="144.68"/><polygon class="cls-40" points="1272.8 595.5 1272.8 777.7 1244.4 777.7 1244.4 633.02 1206.21 610.41 1206.21 595.5 1272.8 595.5"/><rect class="cls-37" x="1580.01" y="595.49" width="133.16" height="4.87"/><rect class="cls-38" x="1580.01" y="600.36" width="133.16" height="10.04"/><polygon class="cls-39" points="1713.16 610.4 1674.98 633.01 1618.19 633.01 1580.01 610.4 1713.16 610.4"/><rect class="cls-35" x="1618.2" y="633.01" width="56.78" height="144.68"/><polygon class="cls-40" points="1646.59 595.49 1646.59 777.69 1618.2 777.69 1618.19 633.01 1580.01 610.4 1580.01 595.49 1646.59 595.49"/><rect class="cls-37" x="1953.8" y="595.48" width="133.16" height="4.87"/><rect class="cls-38" x="1953.8" y="600.35" width="133.16" height="10.04"/><polygon class="cls-39" points="2086.96 610.39 2048.77 633 1991.99 633 1953.8 610.39 2086.96 610.39"/><rect class="cls-35" x="1991.99" y="633" width="56.78" height="144.68"/><polygon class="cls-40" points="2020.38 595.48 2020.39 777.68 1991.99 777.68 1991.99 633 1953.8 610.39 1953.8 595.48 2020.38 595.48"/><rect class="cls-37" x="2327.59" y="595.47" width="133.16" height="4.87"/><rect class="cls-38" x="2327.59" y="600.34" width="133.16" height="10.04"/><polygon class="cls-39" points="2460.75 610.38 2422.56 632.99 2365.78 632.99 2327.59 610.38 2460.75 610.38"/><rect class="cls-35" x="2365.78" y="632.99" width="56.78" height="144.68"/><polygon class="cls-40" points="2394.18 595.47 2394.18 777.67 2365.78 777.67 2365.78 632.99 2327.59 610.38 2327.59 595.47 2394.18 595.47"/><rect class="cls-42" x="4.5" y="857.84" width="2500.51" height="547"/><rect class="cls-43" x="4.5" y="1217.84" width="2500.51" height="187"/><rect class="cls-20" x="4.5" y="1311.34" width="2500.51" height="93.97"/><rect class="cls-15" x="4.49" y="879.84" width="2500.51" height="10"/><rect class="cls-15" x="4.5" y="1095.59" width="2500.51" height="10"/><polygon class="cls-15" points="91.4 935.87 11.01 935.87 6.24 945.87 86.63 945.87 91.4 935.87"/><polygon class="cls-15" points="1206.5 935.84 563.12 935.86 558.35 945.86 1201.73 945.84 1206.5 935.84"/><polygon class="cls-15" points="1388.89 935.84 1303 935.84 1307.77 945.84 1393.66 945.84 1388.89 935.84"/><polygon class="cls-15" points="1574.93 935.84 1492.54 935.84 1497.31 945.84 1579.7 945.84 1574.93 935.84"/><polygon class="cls-15" points="1760.97 935.83 1678.58 935.83 1683.35 945.83 1765.74 945.83 1760.97 935.83"/><polygon class="cls-15" points="1947.01 935.83 1864.62 935.83 1869.39 945.83 1951.78 945.83 1947.01 935.83"/><polygon class="cls-15" points="2133.04 935.82 2050.66 935.82 2055.43 945.82 2137.81 945.82 2133.04 935.82"/><polygon class="cls-15" points="2319.08 935.82 2236.69 935.82 2241.46 945.82 2323.85 945.82 2319.08 935.82"/><polygon class="cls-15" points="2422.73 935.82 2427.5 945.82 2505.01 945.81 2505.01 935.81 2422.73 935.82"/><rect class="cls-44" x="6.24" y="909.45" width="2497.9" height="85.61"/><rect class="cls-44" x="6.24" y="1131.34" width="2497.9" height="53.52"/><rect class="cls-45" x="4.49" y="770.67" width="2500.51" height="87.17"/><rect class="cls-36" x="4.49" y="814.25" width="2500.51" height="43.59"/><rect class="cls-35" x="1497.73" y="638.24" width="9.81" height="132.43"/><rect class="cls-35" x="1315.2" y="638.24" width="9.81" height="132.43"/><rect class="cls-46" x="1315.2" y="638.24" width="9.81" height="19.07"/><rect class="cls-46" x="1497.73" y="638.24" width="9.81" height="19.07"/><path class="cls-47" d="M1599.79,613.45l-23.93,15.83-20.52,13.57a7.33,7.33,0,0,1-4,1.21H1270.75a7.31,7.31,0,0,1-7.3-7.31V578a7.3,7.3,0,0,1,7.3-7.3H1551.3a7.33,7.33,0,0,1,4,1.21l44.46,29.4A7.31,7.31,0,0,1,1599.79,613.45Z" transform="translate(5 5.31)"/><path class="cls-15" d="M1544.81,639.76H1275.46c-4.42,0-8-3.25-8-7.25V582.21c0-4,3.6-7.25,8-7.25h269.35a8.62,8.62,0,0,1,4.38,1.18l42.69,25.15a6.89,6.89,0,0,1,0,12.15l-42.69,25.16A8.62,8.62,0,0,1,1544.81,639.76ZM1275.46,577c-3.32,0-6,2.36-6,5.25v50.31c0,2.89,2.7,5.25,6,5.25h269.35a6.62,6.62,0,0,0,3.36-.9l42.69-25.16a4.9,4.9,0,0,0,0-8.7l-42.69-25.15a6.62,6.62,0,0,0-3.36-.9Z" transform="translate(5 5.31)"/><path class="cls-36" d="M1575.86,629.28l-20.52,13.57a7.33,7.33,0,0,1-4,1.21H1270.75a7.3,7.3,0,0,1-7.3-7.31v-7.47Z" transform="translate(5 5.31)"/><rect class="cls-43" x="4.49" y="696.31" width="2500.51" height="5.69"/><rect class="cls-43" x="4.49" y="716.37" width="2500.51" height="5.69"/><rect class="cls-43" x="4.49" y="736.43" width="2500.51" height="5.69"/><rect class="cls-43" x="4.49" y="756.48" width="2500.64" height="5.69"/><rect class="cls-43" x="172.52" y="696.34" width="5" height="74.36"/><rect class="cls-43" x="914.68" y="696.32" width="5" height="74.36"/><rect class="cls-43" x="1285.75" y="696.31" width="5" height="74.36"/><rect class="cls-43" x="1656.83" y="696.3" width="5" height="74.36"/><rect class="cls-43" x="2027.9" y="696.3" width="5" height="74.36"/><rect class="cls-43" x="2398.98" y="696.29" width="5" height="74.36"/><rect class="cls-48" y="1229.3" width="2505.01" height="20.67"/><rect class="cls-48" y="1285.9" width="2505.01" height="20.67"/><rect class="cls-48" y="1342.5" width="2505.01" height="20.67"/><rect class="cls-48" x="139" y="1229.32" width="20.54" height="175.55"/><rect class="cls-48" x="614" y="1229.31" width="20.54" height="175.55"/><rect class="cls-48" x="1089" y="1229.3" width="20.54" height="175.55"/><rect class="cls-48" x="1563.99" y="1229.29" width="20.54" height="175.55"/><rect class="cls-48" x="2038.99" y="1229.28" width="20.54" height="175.55"/><rect class="cls-43" x="4.48" y="509.34" width="2500.51" height="2"/><rect class="cls-43" x="4.48" y="514.59" width="2500.51" height="2"/><rect class="cls-43" x="4.48" y="519.84" width="2500.51" height="2"/><rect class="cls-43" x="51.16" y="509.37" width="1.83" height="18.15"/><rect class="cls-43" x="151.51" y="509.37" width="1.83" height="18.15"/><rect class="cls-43" x="251.87" y="509.37" width="1.83" height="18.15"/><rect class="cls-43" x="352.22" y="509.36" width="1.83" height="18.15"/><rect class="cls-43" x="452.58" y="509.36" width="1.83" height="18.15"/><rect class="cls-43" x="552.93" y="509.36" width="1.83" height="18.15"/><rect class="cls-43" x="653.28" y="509.36" width="1.83" height="18.15"/><rect class="cls-43" x="753.64" y="509.35" width="1.83" height="18.15"/><rect class="cls-43" x="853.99" y="509.35" width="1.83" height="18.15"/><rect class="cls-43" x="954.35" y="509.35" width="1.83" height="18.15"/><rect class="cls-43" x="1054.7" y="509.35" width="1.83" height="18.15"/><rect class="cls-43" x="1155.05" y="509.34" width="1.83" height="18.15"/><rect class="cls-43" x="1255.41" y="509.34" width="1.83" height="18.15"/><rect class="cls-43" x="1355.76" y="509.34" width="1.83" height="18.15"/><rect class="cls-43" x="1456.11" y="509.34" width="1.83" height="18.15"/><rect class="cls-43" x="1556.47" y="509.34" width="1.83" height="18.15"/><rect class="cls-43" x="1656.82" y="509.33" width="1.83" height="18.15"/><rect class="cls-43" x="1757.18" y="509.33" width="1.83" height="18.15"/><rect class="cls-43" x="1857.53" y="509.33" width="1.83" height="18.15"/><rect class="cls-43" x="1957.88" y="509.33" width="1.83" height="18.15"/><rect class="cls-43" x="2058.24" y="509.32" width="1.83" height="18.15"/><rect class="cls-43" x="2158.59" y="509.32" width="1.83" height="18.15"/><rect class="cls-43" x="2258.95" y="509.32" width="1.83" height="18.15"/><rect class="cls-43" x="2359.3" y="509.32" width="1.83" height="18.15"/><rect class="cls-43" x="2459.65" y="509.31" width="1.83" height="18.15"/><polygon class="cls-41" points="864.71 595.5 4.49 595.52 4.49 527.52 800.38 527.5 864.71 595.5"/><rect class="cls-20" x="638.61" y="970.51" width="556.27" height="52.02" rx="10.13" ry="10.13" transform="translate(1838.48 1998.36) rotate(180)"/><rect class="cls-43" x="730.53" y="696.31" width="5" height="74.36"/><polygon class="cls-15" points="649.02 937.75 568.65 937.75 563.88 947.75 644.25 947.75 649.02 937.75"/><rect class="cls-25" x="442.26" y="950.48" width="61.57" height="50.58" transform="translate(951.08 1956.85) rotate(180)"/><rect class="cls-20" x="433.46" y="994.46" width="79.16" height="19.79" rx="4.33" ry="4.33" transform="translate(951.08 2014.03) rotate(180)"/><rect class="cls-20" x="382.89" y="985.67" width="39.5" height="28.59" rx="5.45" ry="5.45" transform="translate(810.28 2005.23) rotate(-180)"/><rect class="cls-28" x="391.64" y="971.37" width="21.99" height="8.8" rx="3.42" ry="3.42" transform="translate(810.28 1956.85) rotate(-180)"/><path class="cls-17" d="M542.52,1019.61a32,32,0,1,1,32,32A32,32,0,0,1,542.52,1019.61Z" transform="translate(5 5.31)"/><path class="cls-19" d="M563.32,1020.13c0-.26,0-.51,0-.77a10.42,10.42,0,0,1,2.26-6.48l-13.73-18a33.63,33.63,0,0,1,9.74-6.23l9.44,20.67a10.27,10.27,0,0,1,6.3.25L588.34,989a33.65,33.65,0,0,1,9.67,6.62l-15.58,17.9a10.42,10.42,0,0,1,1.78,5.84c0,.24,0,.47,0,.71l23.25,6.27a33.38,33.38,0,0,1-4.33,10.92L581.82,1026a10.48,10.48,0,0,1-4.75,3.26l3.12,23.44a33.31,33.31,0,0,1-11.61,0l2.1-23.31a10.47,10.47,0,0,1-4.92-3.26l-20.15,10.64a33.38,33.38,0,0,1-4.08-10.74Z" transform="translate(5 5.31)"/><circle class="cls-20" cx="579.08" cy="1019.52" r="2.03"/><circle class="cls-20" cx="579.08" cy="1029.87" r="2.03"/><circle class="cls-20" cx="573.91" cy="1024.7" r="2.03"/><circle class="cls-20" cx="584.26" cy="1024.7" r="2.03"/><path class="cls-20" d="M520.69,1019.61a53.82,53.82,0,1,0,53.82-53.82A53.82,53.82,0,0,0,520.69,1019.61Zm19.38,0A34.44,34.44,0,1,1,574.5,1054,34.44,34.44,0,0,1,540.07,1019.61Z" transform="translate(5 5.31)"/><path class="cls-23" d="M536.86,1019.61A37.65,37.65,0,1,0,574.5,982,37.65,37.65,0,0,0,536.86,1019.61Zm5.67,0a32,32,0,1,1,32,32A32,32,0,0,1,542.52,1019.61Z" transform="translate(5 5.31)"/><path class="cls-49" d="M1518,926.07v82.33a18.49,18.49,0,0,1-18.5,18.51h-1.6l-.92-7.84-2.36-20.14c-2.61-22.28-20.46-39-41.62-39h-40.09a40.72,40.72,0,0,0-29.88,13.27,45,45,0,0,0-10.57,19.44,42.92,42.92,0,0,0-.9,4.29l-2.07,12.91-.94,5.86a13.3,13.3,0,0,1-13.14,11.2H1215.66V794.35a9.16,9.16,0,0,1,9.32-9.16l77.86,1.5a27,27,0,0,1,17.55,6.94L1390,856.46l25.81,23.31,86.79,26.66a20.18,20.18,0,0,1,13.88,11.84l.06.14A20,20,0,0,1,1518,926.07Z" transform="translate(5 5.31)"/><path d="M1412.93,959.94H1453c21.16,0,39,16.72,41.62,39l2,17.31H1368.46c0-.18.08-.35.11-.53l3-18.76C1375,975.57,1392.49,959.94,1412.93,959.94Z" transform="translate(5 5.31)"/><rect class="cls-30" x="1215.36" y="796.79" height="224.76"/><path class="cls-23" d="M1210.36,1016.24h0c-2.93,0-5.3-1.73-5.3-3.86v-217c0-2.13,2.37-3.86,5.3-3.86h0c2.93,0,5.3,1.73,5.3,3.86v217C1215.66,1014.51,1213.29,1016.24,1210.36,1016.24Z" transform="translate(5 5.31)"/><path class="cls-23" d="M1338.12,1010.65H1231.63a10,10,0,0,1-10-10c.14-25.23.59-108.09.53-115.26l-.58-74.89a17.42,17.42,0,0,1,4.4-12,16.67,16.67,0,0,1,12.43-5.48h64.82a16.76,16.76,0,0,1,11.57,4.61l80.42,76.17a16.45,16.45,0,0,1,5.12,11.9c0,7.09-7.16,65.91-16.08,69.32-21.22,8.1-29.58,31.71-32.68,45.06A13.71,13.71,0,0,1,1338.12,1010.65Zm-99.71-215.49a14.52,14.52,0,0,0-10.83,4.78,15.26,15.26,0,0,0-3.83,10.51l.58,74.89c.06,7-.35,83-.53,115.29a7.82,7.82,0,0,0,7.83,7.86h106.49a11.55,11.55,0,0,0,11.34-8.93c3.19-13.77,11.86-38.13,34-46.59,6.62-2.53,14.69-56.42,14.69-67.29a14.27,14.27,0,0,0-4.44-10.32l-80.42-76.17a14.59,14.59,0,0,0-10.08-4Z" transform="translate(5 5.31)"/><path class="cls-31" d="M1238.41,798.06h64.82a11.75,11.75,0,0,1,8.08,3.22l80.42,76.17a11.31,11.31,0,0,1,3.53,8.21h0A11.31,11.31,0,0,1,1383.95,897H1239a11.75,11.75,0,0,1-11.75-11.66l-.59-75.4A11.75,11.75,0,0,1,1238.41,798.06Z" transform="translate(5 5.31)"/><path class="cls-17" d="M1400.75,1019.61a32,32,0,1,1,32,32A32,32,0,0,1,1400.75,1019.61Z" transform="translate(5 5.31)"/><path class="cls-19" d="M1421.55,1020.13c0-.26,0-.51,0-.77a10.41,10.41,0,0,1,2.26-6.48l-13.73-18a33.63,33.63,0,0,1,9.74-6.23l9.44,20.67a10.27,10.27,0,0,1,6.3.25L1446.57,989a33.65,33.65,0,0,1,9.67,6.62l-15.58,17.9a10.42,10.42,0,0,1,1.78,5.84c0,.24,0,.47,0,.71l23.25,6.27a33.38,33.38,0,0,1-4.33,10.92L1440,1026a10.48,10.48,0,0,1-4.75,3.26l3.12,23.44a33.31,33.31,0,0,1-11.61,0l2.1-23.31a10.47,10.47,0,0,1-4.92-3.26l-20.15,10.64a33.38,33.38,0,0,1-4.08-10.74Z" transform="translate(5 5.31)"/><circle class="cls-20" cx="1437.31" cy="1019.52" r="2.03"/><circle class="cls-20" cx="1437.31" cy="1029.87" r="2.03"/><circle class="cls-20" cx="1432.13" cy="1024.7" r="2.03"/><circle class="cls-20" cx="1442.49" cy="1024.7" r="2.03"/><path class="cls-20" d="M1378.92,1019.61a53.82,53.82,0,1,0,53.82-53.82A53.82,53.82,0,0,0,1378.92,1019.61Zm19.38,0a34.44,34.44,0,1,1,34.44,34.44A34.44,34.44,0,0,1,1398.29,1019.61Z" transform="translate(5 5.31)"/><path class="cls-23" d="M1395.08,1019.61A37.65,37.65,0,1,0,1432.73,982,37.65,37.65,0,0,0,1395.08,1019.61Zm5.67,0a32,32,0,1,1,32,32A32,32,0,0,1,1400.75,1019.61Z" transform="translate(5 5.31)"/><path class="cls-23" d="M1384.19,907H1234.34a1.09,1.09,0,0,1-1.09-1.09h0a1.09,1.09,0,0,1,1.09-1.09h149.84a1.09,1.09,0,0,1,1.09,1.09h0A1.09,1.09,0,0,1,1384.19,907Z" transform="translate(5 5.31)"/><path class="cls-15" d="M1401.36,909.41H1388c-1.69,0-3-1.91-2.65-4l3.32-21.67a2.93,2.93,0,0,1,2.65-2.73h10.07c8.39,0,15.2,6.35,15.2,14.19h0C1416.55,903.06,1409.75,909.41,1401.36,909.41Z" transform="translate(5 5.31)"/><path class="cls-23" d="M1401.36,900.91H1388a2.43,2.43,0,0,1-1.83-.89l-.83,5.41c-.32,2.07,1,4,2.65,4h13.38c8.39,0,15.2-6.35,15.2-14.19h0a13.32,13.32,0,0,0-.69-4.25A15.12,15.12,0,0,1,1401.36,900.91Z" transform="translate(5 5.31)"/><path class="cls-33" d="M1498,962.23l20,7.85v-44s0,0,0,0h-17.47a6.9,6.9,0,0,0-6.9,6.9V955.8A6.9,6.9,0,0,0,1498,962.23Z" transform="translate(5 5.31)"/><path class="cls-15" d="M1497.63,932.92V955.8a3.05,3.05,0,0,0,2.48,2.72l4.45,1.31,9.62,2.82a4.19,4.19,0,0,0,5.37-4V934.2a4.19,4.19,0,0,0-4.19-4.19h-13.84C1499.38,930,1497.63,931.31,1497.63,932.92Z" transform="translate(5 5.31)"/><path class="cls-17" d="M1534.71,1026.9h-39.63l-.55-29.67,24.08.55a16.1,16.1,0,0,1,16.1,16.1Z" transform="translate(5 5.31)"/><path class="cls-34" d="M1300,805h-29.29l-36.07,74.74v.3a10.11,10.11,0,0,0,10.11,10h14.92l41-85C1300.43,805,1300.19,805,1300,805Z" transform="translate(5 5.31)"/><polygon class="cls-34" points="1330.07 830.27 1314.96 815.96 1276.64 895.36 1298.66 895.36 1330.07 830.27"/><path class="cls-28" d="M1497.63,932.92V955.8a3.05,3.05,0,0,0,2.48,2.72l4.45,1.31V930h-3C1499.38,930,1497.63,931.31,1497.63,932.92Z" transform="translate(5 5.31)"/><path class="cls-20" d="M1235.73,926h43.79a10.45,10.45,0,0,0-10.45-10.45h-22.9A10.45,10.45,0,0,0,1235.73,926Z" transform="translate(5 5.31)"/><path class="cls-23" d="M1390,856.46l32.28,30.75s61.84,18.55,77.17,22.2c13.9,3.3,16.64,8,17,8.86a20.21,20.21,0,0,0-13.88-11.84l-86.79-26.65Z" transform="translate(5 5.31)"/><path class="cls-41" d="M789.93,959.29H433.6l-4.94,13.84-8.4,23.54H385.07V651.13a19.5,19.5,0,0,1,19.5-19.5H505.3l21,24.23Z" transform="translate(5 5.31)"/><path class="cls-24" d="M386.1,644.92a19.39,19.39,0,0,0-2,8.49v4.73h.93v-7A19.44,19.44,0,0,1,386.1,644.92Z" transform="translate(5 5.31)"/><path class="cls-49" d="M403.64,633.9H851.11v-2.27H404.57a19.49,19.49,0,0,0-18.47,13.28A19.48,19.48,0,0,1,403.64,633.9Z" transform="translate(5 5.31)"/><path class="cls-49" d="M1175.39,631.7h-384V634h383.06a19.5,19.5,0,0,1,19.48,19.5v4.73H791.39v13.39h374.15a8.66,8.66,0,0,1,0,17.31H791.39v11.77h374.15a8.66,8.66,0,1,1,0,17.31H791.39v11.77h374.15a8.66,8.66,0,1,1,0,17.31H791.39v11.77h374.15a8.66,8.66,0,1,1,0,17.31H791.39v11.77h374.15a8.66,8.66,0,1,1,0,17.31H791.39V817h374.15a8.66,8.66,0,1,1,0,17.31H791.39v11.77h374.15a8.66,8.66,0,1,1,0,17.31H791.39V875.2h374.15a8.66,8.66,0,1,1,0,17.31H791.39v11.77h374.15a8.66,8.66,0,1,1,0,17.31H791.39v37.76h389.18a14.31,14.31,0,0,0,14.3-14.32V651.2A19.5,19.5,0,0,0,1175.39,631.7Z" transform="translate(5 5.31)"/><path class="cls-49" d="M415.37,945a3.9,3.9,0,0,1-3.9-3.9v-2.22a3.9,3.9,0,0,1,3.9-3.9H851.11V921.53H410.94a8.66,8.66,0,1,1,0-17.31H851.11V892.45H410.94a8.66,8.66,0,1,1,0-17.31H851.11V863.36H410.94a8.66,8.66,0,1,1,0-17.31H851.11V834.27H410.94a8.66,8.66,0,1,1,0-17.31H851.11V805.18H410.94a8.66,8.66,0,1,1,0-17.31H851.11V776.1H410.94a8.66,8.66,0,1,1,0-17.31H851.11V747H410.94a8.66,8.66,0,1,1,0-17.31H851.11V717.92H410.94a8.66,8.66,0,1,1,0-17.31H851.11V688.84H410.94a8.66,8.66,0,0,1-8.66-8.66h0a8.66,8.66,0,0,1,8.66-8.66H851.11V658.13h-466V996.67h35.19l8.4-23.54,4.94-13.84H851.11V945Z" transform="translate(5 5.31)"/><path class="cls-49" d="M1193.94,658.2v-4.73a19.5,19.5,0,0,0-19.48-19.5H791.39V658.2Zm-36.21-18.78h15.15a3.42,3.42,0,0,1,3.42,3.42v2a3.42,3.42,0,0,1-3.42,3.42h-15.15a3.42,3.42,0,0,1-3.42-3.42v-2A3.42,3.42,0,0,1,1157.73,639.41Z" transform="translate(5 5.31)"/><path class="cls-49" d="M851.11,633.9H403.64a16.92,16.92,0,0,0-18.57,17.23v7h466Z" transform="translate(5 5.31)"/><path class="cls-20" d="M411.47,938.87v2.22a3.9,3.9,0,0,0,3.9,3.9H851.11V935H415.37A3.9,3.9,0,0,0,411.47,938.87Z" transform="translate(5 5.31)"/><rect class="cls-27" x="1159.3" y="644.73" width="21.99" height="8.8" rx="3.42" ry="3.42"/><path class="cls-50" d="M1165.55,688.9a8.66,8.66,0,0,0,0-17.31H791.39V688.9Z" transform="translate(5 5.31)"/><path class="cls-50" d="M402.29,680.18h0a8.66,8.66,0,0,0,8.66,8.66H851.11V671.52H410.94A8.66,8.66,0,0,0,402.29,680.18Z" transform="translate(5 5.31)"/><path class="cls-50" d="M402.29,709.27a8.66,8.66,0,0,0,8.66,8.66H851.11V700.61H410.94A8.66,8.66,0,0,0,402.29,709.27Z" transform="translate(5 5.31)"/><path class="cls-50" d="M1165.55,718a8.66,8.66,0,1,0,0-17.31H791.39V718Z" transform="translate(5 5.31)"/><path class="cls-50" d="M1165.55,747.08a8.66,8.66,0,1,0,0-17.31H791.39v17.31Z" transform="translate(5 5.31)"/><path class="cls-50" d="M402.29,738.35a8.66,8.66,0,0,0,8.66,8.66H851.11V729.7H410.94A8.66,8.66,0,0,0,402.29,738.35Z" transform="translate(5 5.31)"/><path class="cls-50" d="M402.29,767.44a8.66,8.66,0,0,0,8.66,8.66H851.11V758.78H410.94A8.66,8.66,0,0,0,402.29,767.44Z" transform="translate(5 5.31)"/><path class="cls-50" d="M1165.55,776.16a8.66,8.66,0,1,0,0-17.31H791.39v17.31Z" transform="translate(5 5.31)"/><path class="cls-50" d="M402.29,796.53a8.66,8.66,0,0,0,8.66,8.66H851.11V787.87H410.94A8.66,8.66,0,0,0,402.29,796.53Z" transform="translate(5 5.31)"/><path class="cls-50" d="M1165.55,805.25a8.66,8.66,0,1,0,0-17.31H791.39v17.31Z" transform="translate(5 5.31)"/><path class="cls-50" d="M1165.55,834.34a8.66,8.66,0,1,0,0-17.31H791.39v17.31Z" transform="translate(5 5.31)"/><path class="cls-50" d="M402.29,825.61a8.66,8.66,0,0,0,8.66,8.66H851.11V817H410.94A8.66,8.66,0,0,0,402.29,825.61Z" transform="translate(5 5.31)"/><path class="cls-50" d="M1165.55,863.42a8.66,8.66,0,1,0,0-17.31H791.39v17.31Z" transform="translate(5 5.31)"/><path class="cls-50" d="M402.29,854.7a8.66,8.66,0,0,0,8.66,8.66H851.11V846H410.94A8.66,8.66,0,0,0,402.29,854.7Z" transform="translate(5 5.31)"/><path class="cls-50" d="M402.29,883.79a8.66,8.66,0,0,0,8.66,8.66H851.11V875.13H410.94A8.66,8.66,0,0,0,402.29,883.79Z" transform="translate(5 5.31)"/><path class="cls-50" d="M1165.55,892.51a8.66,8.66,0,1,0,0-17.31H791.39v17.31Z" transform="translate(5 5.31)"/><path class="cls-50" d="M402.29,912.88a8.66,8.66,0,0,0,8.66,8.66H851.11V904.22H410.94A8.66,8.66,0,0,0,402.29,912.88Z" transform="translate(5 5.31)"/><path class="cls-50" d="M1165.55,921.6a8.66,8.66,0,1,0,0-17.31H791.39V921.6Z" transform="translate(5 5.31)"/><path class="cls-44" d="M1607.66,1204.65H989a8.83,8.83,0,0,1-7.94-12.7l16.76-34.35a8.83,8.83,0,0,1,7.94-5H1590.9a8.83,8.83,0,0,1,7.94,5l16.76,34.35A8.83,8.83,0,0,1,1607.66,1204.65Z" transform="translate(5 5.31)"/><polygon points="1571.77 1164.99 1599.3 1164.99 1608.05 1130.14 1571.77 1130.14 1571.77 1164.99"/><path class="cls-51" d="M1586.54,1138.38c-2.82,4.32-6.2,16.13-1.5,16.13h15.18c3.58,0,3.38,5.45.75,10.51s-6,5.25-11.81,5.25H1148.94c-19.67,0-78.1-15.32-85.47-15.32H1019.2c-6.38,0-18.64-5-23.39-19.63s-4.13-25.63-3.25-28.14,6.76-3.25,6.76-10.25c0-2,.36-6.57.9-12.21.18-1.77.37-3.66.57-5.61.28-2.82,1.83-5.36,2.14-8.3.59-5.31,0-11,.5-15.34.57-4.72,1-8.36,1.26-9.81a45.19,45.19,0,0,1,1.27-7.43c1.38-4.29,4.75-8.21,14.36-8.21,15.39,0,34.89.51,42.64-1.62,6.38-1.75,50.3-22.93,74.22-33.75,5.19-2.35,9.43-4.21,12.15-5.28,15.25-6,44.06-6.41,57.45-6.41l75.4,0c12.5,0,41-1.76,72.27,15.75s72.22,47.56,84.75,50.92c5.33,1.43,18.93,2.39,35.13,3.78l8.14.72c20.15,1.86,42.75,4.55,58.31,9.61,17.15,5.58,33.28,10.85,45,18.39,1.28.81,2.66,1.77,4.1,2.85,7.14,5.48,12.12,12.1,13.9,20.67.31,1.54.61,3,.87,4.35,3.57,18.88,1.29,21.28-3.38,22C1596.29,1132.83,1589.35,1134.07,1586.54,1138.38Z" transform="translate(5 5.31)"/><path class="cls-9" d="M1000.22,1084.73h25a9.89,9.89,0,0,0,9.89-9.89v-26.71a9.89,9.89,0,0,0-9.89-9.89H1006a45.14,45.14,0,0,0-1.28,7.43c-.23,1.46-.69,5.09-1.26,9.81-.53,4.35.09,10-.5,15.34-.32,2.94-1.86,5.48-2.15,8.3C1000.59,1081.06,1000.4,1083,1000.22,1084.73Z" transform="translate(5 5.31)"/><path class="cls-10" d="M992.19,1118.07a79.19,79.19,0,0,0,3.62,17.26,31.2,31.2,0,0,0,4.49,8.85c5.76,7.86,14,10.77,18.91,10.77h44.27c7.37,0,65.8,15.32,85.47,15.32h440.23c5.81,0,9.18-.18,11.81-5.25s2.82-10.5-.75-10.5H1585c-3.2,0-2.66-5.48-1.08-10.34a25.15,25.15,0,0,1,2.58-5.79c2.81-4.31,9.75-5.55,14.75-6.33,3.9-.62,6.14-2.39,4.67-14Z" transform="translate(5 5.31)"/><g class="cls-11"><path class="cls-12" d="M1122.74,1046.64c-3.12,4-4.32,13.09-2.53,19,1.36,4.49,8.43,11.33,18.23,20.79,3.29,3.18,7,6.79,10.91,10.67,13.17,13.16,20.55,34.65,23.7,43.82.57,1.67,1,3,1.36,3.82,2.24,5.61,5,6.76,8.48,6.76h94.54a741,741,0,0,0-6-94.63l1.11-.16a742.12,742.12,0,0,1,6,94.79h139.75a5.37,5.37,0,0,0,5.27-3.93c.55-2.26,5.06-34.9,6.18-52,1.09-16.71-.68-22.11-9.94-30.43-9-8.12-43.46-29-43.81-29.2l.58-1c.35.21,34.85,21.13,44,29.32,9.6,8.62,11.43,14.18,10.31,31.34s-5.65,50-6.2,52.24a6.51,6.51,0,0,1-6.36,4.79H1182.88c-4.65,0-7.4-2.16-9.53-7.47-.34-.86-.8-2.19-1.38-3.88-3.13-9.1-10.45-30.42-23.43-43.39-3.88-3.88-7.61-7.48-10.89-10.66-9.91-9.59-17.08-16.51-18.52-21.28-1.91-6.31-.64-15.66,2.72-20Z" transform="translate(5 5.31)"/><path class="cls-12" d="M1051.27,1065.8a10.32,10.32,0,1,0,10.32-10.32A10.33,10.33,0,0,0,1051.27,1065.8Zm1.13,0a9.19,9.19,0,1,1,9.19,9.19A9.2,9.2,0,0,1,1052.39,1065.8Z" transform="translate(5 5.31)"/></g><path class="cls-13" d="M1132.61,1060h256.6c7,0,9.75-4.5,9.26-7.74s-29.77-26.52-49.78-38.27c-2.16-1.28-4.35-2.49-6.6-3.63h0a165.41,165.41,0,0,0-37-13.85c-2.54-.59-4.91-1-7-1.34a40.1,40.1,0,0,0-5.42-.44h-95.29c-22,0-74.66,28-82.65,39.53C1109.37,1042,1126.36,1060,1132.61,1060Z" transform="translate(5 5.31)"/><path class="cls-51" d="M1287.6,1060h-27l-7.75-65.28h14.52Z" transform="translate(5 5.31)"/><path class="cls-13" d="M1439.21,1049.68c-5.15,1.33-9.21,2.8-12.1,2.8-5.06,0-9.75-1.31-11.44-2.63s-61.52-43.14-67-46.71-2.63-7.13,0-7.13h.53c1.73.86,3.47,1.77,5.22,2.75,31.26,17.51,72.22,47.55,84.75,50.91Z" transform="translate(5 5.31)"/><path class="cls-13" d="M1148.4,989.75c.92,1,.8,2.64-1.4,4.39-3.63,2.88-53.27,27.14-59.15,30.14-5.6,2.86-12.69,3.1-22.1,3.12C1080,1021.75,1133,996,1148.4,989.75Z" transform="translate(5 5.31)"/><path class="cls-14" d="M1547.65,1097c8.63,6.57,23.66,10.44,37,11.91,8.57,1,15.73,1.91,20,1.13-.26-1.37-.56-2.81-.87-4.35-1.77-8.57-6.75-15.19-13.9-20.66-1.44-1.08-2.82-2-4.1-2.85a24.73,24.73,0,0,0-3.41-1.85c-8.13-3.45-32.1-7.05-42.39-8.63C1521.89,1069,1539,1090.44,1547.65,1097Z" transform="translate(5 5.31)"/><path class="cls-15" d="M1540.78,1076.3c7.84,1.2,26.07,3.94,32.26,6.57s21.2,16.38,20.26,20.2-8.44,2.69-18.57,1.56-21.57-4.07-28.14-9.07S1527,1074.2,1540.78,1076.3Z" transform="translate(5 5.31)"/><path class="cls-16" d="M1546.59,1095.56c-6.57-5-19.6-21.36-5.81-19.26,2.25.34,5.36.82,8.79,1.37,5,3.71,17.23,13.73,21,26.39C1561.58,1102.66,1552.27,1099.88,1546.59,1095.56Z" transform="translate(5 5.31)"/><path class="cls-15" d="M1030.2,1051.36v20.26a7.5,7.5,0,0,1-7.5,7.5h-20.88c.82-8,.81-16.9,1.62-23.64.57-4.72,1-8.36,1.26-9.81.09-.56.16-1.17.24-1.81h17.77A7.5,7.5,0,0,1,1030.2,1051.36Z" transform="translate(5 5.31)"/><path class="cls-16" d="M1030.2,1071.61a7.5,7.5,0,0,1-7.5,7.5h-21.91c.82-8,1.84-16.89,2.65-23.63h26.77Z" transform="translate(5 5.31)"/><path class="cls-10" d="M1000.29,1144.18c5.76,7.86,14,10.77,18.91,10.77h44.27c7.37,0,65.8,15.32,85.47,15.32h440.23c5.81,0,9.18-.18,11.81-5.25s2.82-10.5-.75-10.5H1585c-3.2,0-2.66-5.48-1.08-10.34Z" transform="translate(5 5.31)"/><path d="M1057.47,1147.71a52.15,52.15,0,1,1,104.29,0v22.57h-12.82c-19.68,0-78.1-15.32-85.48-15.32h-6Z" transform="translate(5 5.31)"/><path class="cls-14" d="M1433.95,1150.56v19.72h124.37v-19.72a62.19,62.19,0,0,0-124.37,0Z" transform="translate(5 5.31)"/><path class="cls-14" d="M1047.42,1150.56v4.4h16c7.37,0,65.8,15.32,85.47,15.32h22.85v-19.72a62.18,62.18,0,1,0-124.37,0Z" transform="translate(5 5.31)"/><path d="M1444,1147.71a52.15,52.15,0,0,1,104.29,0v22.57H1444Z" transform="translate(5 5.31)"/><path class="cls-17" d="M1496.33,1175.78a27.19,27.19,0,1,1,27.19-27.19A27.19,27.19,0,0,1,1496.33,1175.78Z" transform="translate(5 5.31)"/><path class="cls-18" d="M1468.33,1154.3a28.36,28.36,0,0,0,3.69,9.28l3.67-1.94,14.42-7.61a8.82,8.82,0,0,0,4,2.78l-2.11,15.82-.54,4.11a28.35,28.35,0,0,0,4.84.41,28.71,28.71,0,0,0,5-.45l-.37-4.14-1.42-15.67a8.87,8.87,0,0,0,4.18-2.77l13.47,7.11,3.66,1.93a28.42,28.42,0,0,0,3.48-9.13l-4-1.09-14.52-3.91c0-.21,0-.43,0-.65a8.85,8.85,0,0,0-1.92-5.51l9.15-12,2.52-3.32a28.84,28.84,0,0,0-8.28-5.3l-1.72,3.77-6.3,13.8a8.55,8.55,0,0,0-2.34-.32,8.81,8.81,0,0,0-3,.53l-7.42-13.79-2-3.66a28.54,28.54,0,0,0-8.22,5.63l2.72,3.13,10.52,12.1a8.86,8.86,0,0,0-1.52,5c0,.2,0,.4,0,.6l-15.76,4.24Z" transform="translate(5 5.31)"/><path class="cls-19" d="M1472.34,1153.21a24.2,24.2,0,0,0,3.35,8.43l14.42-7.61a8.82,8.82,0,0,0,4,2.78l-2.11,15.82a24.18,24.18,0,0,0,4.29.38,23.75,23.75,0,0,0,4.67-.45l-1.42-15.67a8.87,8.87,0,0,0,4.18-2.77l13.47,7.11a24.13,24.13,0,0,0,3.13-8.29l-14.52-3.91c0-.21,0-.43,0-.65a8.85,8.85,0,0,0-1.92-5.51l9.15-12a24.44,24.44,0,0,0-7.48-4.85l-6.3,13.8a8.55,8.55,0,0,0-2.34-.32,8.81,8.81,0,0,0-3,.53l-7.42-13.79a24.52,24.52,0,0,0-7.47,5.1l10.52,12.1a8.86,8.86,0,0,0-1.52,5c0,.2,0,.4,0,.6Z" transform="translate(5 5.31)"/><circle class="cls-10" cx="1501.69" cy="1153.7" r="5.86"/><circle class="cls-20" cx="1501.69" cy="1149.3" r="1.72"/><circle class="cls-20" cx="1501.69" cy="1158.1" r="1.72"/><circle class="cls-20" cx="1506.09" cy="1153.7" r="1.72"/><circle class="cls-20" cx="1497.29" cy="1153.7" r="1.72"/><path class="cls-20" d="M1450.58,1148.58a45.75,45.75,0,1,0,45.76-45.76A45.75,45.75,0,0,0,1450.58,1148.58Zm16.47,0a29.28,29.28,0,1,1,29.29,29.28A29.28,29.28,0,0,1,1467,1148.58Z" transform="translate(5 5.31)"/><g class="cls-21"><path class="cls-22" d="M1460.93,1148.58a35.4,35.4,0,1,0,35.4-35.4A35.4,35.4,0,0,0,1460.93,1148.58Zm6.11,0a29.28,29.28,0,1,1,29.29,29.28A29.28,29.28,0,0,1,1467,1148.58Z" transform="translate(5 5.31)"/></g><path class="cls-23" d="M1464.32,1148.58a32,32,0,1,0,32-32A32,32,0,0,0,1464.32,1148.58Zm4.82,0a27.19,27.19,0,1,1,27.2,27.2A27.19,27.19,0,0,1,1469.14,1148.58Z" transform="translate(5 5.31)"/><path class="cls-10" d="M1466.62,1148.58a29.71,29.71,0,1,0,29.71-29.71A29.71,29.71,0,0,0,1466.62,1148.58Zm2.51,0a27.19,27.19,0,1,1,27.2,27.2A27.19,27.19,0,0,1,1469.14,1148.58Z" transform="translate(5 5.31)"/><path class="cls-17" d="M1109.61,1175.78a27.19,27.19,0,1,1,27.19-27.19A27.19,27.19,0,0,1,1109.61,1175.78Z" transform="translate(5 5.31)"/><path class="cls-18" d="M1081.62,1154.3a28.36,28.36,0,0,0,3.69,9.28l3.67-1.94,14.42-7.61a8.82,8.82,0,0,0,4,2.78l-2.11,15.82-.54,4.11a28.35,28.35,0,0,0,4.84.41,28.71,28.71,0,0,0,5-.45l-.37-4.14-1.42-15.67a8.87,8.87,0,0,0,4.18-2.77l13.47,7.11,3.66,1.93a28.42,28.42,0,0,0,3.48-9.13l-4-1.09-14.52-3.91c0-.21,0-.43,0-.65a8.85,8.85,0,0,0-1.92-5.51l9.15-12,2.52-3.32a28.84,28.84,0,0,0-8.28-5.3l-1.72,3.77-6.3,13.8a8.55,8.55,0,0,0-2.34-.32,8.81,8.81,0,0,0-3,.53l-7.42-13.79-2-3.66a28.54,28.54,0,0,0-8.22,5.63l2.72,3.13,10.52,12.1a8.86,8.86,0,0,0-1.52,5c0,.2,0,.4,0,.6l-15.76,4.24Z" transform="translate(5 5.31)"/><path class="cls-19" d="M1085.63,1153.21a24.2,24.2,0,0,0,3.35,8.43l14.42-7.61a8.82,8.82,0,0,0,4,2.78l-2.11,15.82a24.18,24.18,0,0,0,4.29.38,23.75,23.75,0,0,0,4.67-.45l-1.42-15.67a8.87,8.87,0,0,0,4.18-2.77l13.47,7.11a24.13,24.13,0,0,0,3.13-8.29l-14.52-3.91c0-.21,0-.43,0-.65a8.85,8.85,0,0,0-1.92-5.51l9.15-12a24.44,24.44,0,0,0-7.48-4.85l-6.3,13.8a8.55,8.55,0,0,0-2.34-.32,8.81,8.81,0,0,0-3,.53l-7.42-13.79a24.52,24.52,0,0,0-7.47,5.1l10.52,12.1a8.86,8.86,0,0,0-1.52,5c0,.2,0,.4,0,.6Z" transform="translate(5 5.31)"/><circle class="cls-10" cx="1114.97" cy="1153.7" r="5.86"/><circle class="cls-20" cx="1114.97" cy="1149.3" r="1.72"/><circle class="cls-20" cx="1114.97" cy="1158.1" r="1.72"/><circle class="cls-20" cx="1119.37" cy="1153.7" r="1.72"/><circle class="cls-20" cx="1110.57" cy="1153.7" r="1.72"/><path class="cls-20" d="M1063.86,1148.58a45.75,45.75,0,1,0,45.76-45.76A45.75,45.75,0,0,0,1063.86,1148.58Zm16.47,0a29.28,29.28,0,1,1,29.29,29.28A29.28,29.28,0,0,1,1080.33,1148.58Z" transform="translate(5 5.31)"/><g class="cls-21"><path class="cls-22" d="M1074.22,1148.58a35.4,35.4,0,1,0,35.4-35.4A35.4,35.4,0,0,0,1074.22,1148.58Zm6.11,0a29.28,29.28,0,1,1,29.29,29.28A29.28,29.28,0,0,1,1080.33,1148.58Z" transform="translate(5 5.31)"/></g><path class="cls-23" d="M1077.6,1148.58a32,32,0,1,0,32-32A32,32,0,0,0,1077.6,1148.58Zm4.82,0a27.19,27.19,0,1,1,27.2,27.2A27.19,27.19,0,0,1,1082.42,1148.58Z" transform="translate(5 5.31)"/><path class="cls-10" d="M1079.91,1148.58a29.71,29.71,0,1,0,29.71-29.71A29.71,29.71,0,0,0,1079.91,1148.58Zm2.51,0a27.19,27.19,0,1,1,27.2,27.2A27.19,27.19,0,0,1,1082.42,1148.58Z" transform="translate(5 5.31)"/><path class="cls-41" d="M1320.21,1170.27H1148.94c-19.67,0-78.1-15.32-85.47-15.32H1019.2c-6.38,0-18.64-5-23.39-19.63s-4.13-25.63-3.25-28.14,6.76-3.25,6.76-10.25c0-2,.36-6.57.9-12.21.18-1.77.37-3.66.57-5.61.28-2.82,1.83-5.36,2.14-8.3.59-5.31,0-11,.5-15.34.57-4.72,1-8.36,1.26-9.81a45.19,45.19,0,0,1,1.27-7.43c1.38-4.29,4.75-8.21,14.36-8.21,15.39,0,34.89.51,42.64-1.62,6.38-1.75,50.3-22.93,74.22-33.75Z" transform="translate(5 5.31)"/><polygon class="cls-52" points="306 946.18 157.33 946.18 160.39 936.2 309.09 936.2 306 946.18"/><rect class="cls-27" x="404.29" y="640.41" width="21.99" height="8.8" rx="3.42" ry="3.42" transform="translate(835.57 1294.94) rotate(180)"/><path class="cls-20" d="M1165.32,938.87v2.22a3.9,3.9,0,0,1-3.9,3.9H725.68V935h435.74A3.9,3.9,0,0,1,1165.32,938.87Z" transform="translate(5 5.31)"/><path class="cls-53" d="M789.93,959.29H433.6l-4.94,13.84-8.4,23.54H385.07V651.13a19.5,19.5,0,0,1,19.5-19.5h116Z" transform="translate(5 5.31)"/><path class="cls-54" d="M1522.11,627.43h-3.64a1,1,0,0,1-1-.71l-.7-4.75a1.05,1.05,0,0,1,1.09-1.21h4.94a1.05,1.05,0,0,1,1.09,1.21l-.7,4.75A1,1,0,0,1,1522.11,627.43Z" transform="translate(5 5.31)"/><path class="cls-54" d="M1546.92,627.43h-3.64a1,1,0,0,1-1-.71l-.7-4.75a1.05,1.05,0,0,1,1.09-1.21h4.94a1.05,1.05,0,0,1,1.09,1.21l-.7,4.75A1,1,0,0,1,1546.92,627.43Z" transform="translate(5 5.31)"/><path class="cls-55" d="M1546.64,609.78c10.7-10.7-11.49-30.67-19.39-22.76" transform="translate(5 5.31)"/><path class="cls-54" d="M1550.69,609.22l-1-.33a.94.94,0,0,0-.63,0l-2.47.88-4.06-5a1.88,1.88,0,0,0-1.46-.7h-16.83a1.88,1.88,0,0,0-1.47.7l-4.06,5-2.47-.88a.94.94,0,0,0-.63,0l-1,.33a.94.94,0,0,0-.63.89.64.64,0,0,0,.27.52l1.14.79a.94.94,0,0,0,.54.17h.78a19.21,19.21,0,0,0-1.36,9.73A1.88,1.88,0,0,0,1517,623a109.73,109.73,0,0,0,31.33,0,1.88,1.88,0,0,0,1.59-1.64,19.21,19.21,0,0,0-1.36-9.73h.78a.94.94,0,0,0,.54-.17l1.14-.79a.64.64,0,0,0,.28-.53A.94.94,0,0,0,1550.69,609.22Zm-28.35,1,2.19-2.72a1.56,1.56,0,0,1,1.21-.58h13.89a1.55,1.55,0,0,1,1.21.58l2.2,2.72Z" transform="translate(5 5.31)"/><path class="cls-54" d="M1536.39,618.11v.48c0,.32-.52.59-1.17.59h-2.65c-.52,0-.73-.34-.29-.49l2.8-.94C1535.63,617.57,1536.39,617.77,1536.39,618.11Z" transform="translate(5 5.31)"/><path class="cls-56" d="M1520.77,596.94l-3.67-4a2,2,0,0,1,.12-2.77l1.59-1.46c.79-.73,6-4.32,6.74-3.53l3.67,4c.73.79-3.3,5.69-4.1,6.41l-1.59,1.46A2,2,0,0,1,1520.77,596.94Z" transform="translate(5 5.31)"/><rect class="cls-56" x="1518.14" y="596.67" width="4.86" height="1.4" rx="0.66" ry="0.66" transform="translate(1.11 1190.06) rotate(-42.52)"/><rect class="cls-56" x="1514.24" y="592.41" width="4.86" height="1.4" rx="0.66" ry="0.66" transform="translate(2.96 1186.3) rotate(-42.52)"/><rect class="cls-56" x="1518.55" y="588.33" width="3.12" height="11.07" rx="1.47" ry="1.47" transform="matrix(0.74, -0.68, 0.68, 0.74, 3.36, 1188.83)"/><rect class="cls-15" x="1301.94" y="620.79" width="196.29" height="5.9"/><rect class="cls-15" x="1301.94" y="602.44" width="196.29" height="5.9"/><path class="cls-41" d="M1382.75,644.07H1271a7.3,7.3,0,0,1-7.3-7.31V578a7.3,7.3,0,0,1,7.3-7.3h60.54Z" transform="translate(5 5.31)"/></g></g></svg>