<svg xmlns="http://www.w3.org/2000/svg" xmlns:xlink="http://www.w3.org/1999/xlink" viewBox="0 0 2507.13 1417.17"><defs><style>.cls-1,.cls-3{isolation:isolate;}.cls-2{fill:url(#linear-gradient);}.cls-15,.cls-3{fill:#fff;}.cls-3{opacity:0.37;}.cls-4{mix-blend-mode:hard-light;}.cls-5{fill:#455063;}.cls-6{fill:#556077;}.cls-7{fill:#454956;}.cls-8{fill:#565454;}.cls-10,.cls-14,.cls-22,.cls-9{fill:#bbb;}.cls-9{opacity:0.79;}.cls-10,.cls-11,.cls-14,.cls-21,.cls-32,.cls-36,.cls-40,.cls-41,.cls-44,.cls-46,.cls-53,.cls-9{mix-blend-mode:multiply;}.cls-10{opacity:0.46;}.cls-12{fill:#bcbcbc;}.cls-13{fill:#1c1c1c;}.cls-14{opacity:0.77;}.cls-16{fill:#ffa31f;}.cls-17{fill:#231f20;}.cls-18{fill:#9d9d9d;}.cls-19{fill:#e5e6e7;}.cls-20{fill:#333;}.cls-21{opacity:0.67;}.cls-23,.cls-32{fill:#d0d2d3;}.cls-24{fill:#3d3d3d;}.cls-25{fill:#bebebe;}.cls-26{fill:#545454;}.cls-27{fill:#fbbf2e;}.cls-28{fill:#dc4747;}.cls-29{fill:#9a4e4e;}.cls-30{fill:#bbbdbf;}.cls-31{fill:#010101;}.cls-33{fill:#818181;}.cls-34{fill:#28211f;}.cls-35{fill:#dfdbdb;}.cls-36,.cls-40,.cls-41,.cls-44,.cls-46,.cls-52{fill:#a4a4a4;}.cls-36{opacity:0.51;}.cls-37{fill:#383838;}.cls-38{fill:#7c7c7c;}.cls-39{fill:#686868;}.cls-40{opacity:0.32;}.cls-41,.cls-53{opacity:0.38;}.cls-42{fill:#565656;}.cls-43{fill:#3f3f3f;}.cls-44{opacity:0.75;}.cls-45{fill:#7c7b7a;}.cls-47{fill:#00a451;}.cls-48{fill:#161616;}.cls-49{fill:#f0f1f1;}.cls-50{fill:#e1e1e1;}.cls-51{fill:#d04e4e;}.cls-53{fill:#a5a5a5;}.cls-54{fill:#88c348;}.cls-55{fill:none;stroke:#f27139;stroke-miterlimit:10;stroke-width:2px;}.cls-56{fill:#f27139;}</style><linearGradient id="linear-gradient" x1="1249.25" y1="1070.1" x2="1249.25" y2="176.94" gradientTransform="translate(5.98 17.17)" gradientUnits="userSpaceOnUse"><stop offset="0" stop-color="#fff"/><stop offset="0.15" stop-color="#cfe3f3"/><stop offset="0.38" stop-color="#86b9e0"/><stop offset="0.59" stop-color="#4c98d1"/><stop offset="0.77" stop-color="#2380c7"/><stop offset="0.92" stop-color="#0971c0"/><stop offset="1" stop-color="#006cbe"/></linearGradient></defs><title>qerbcharge-roadSign</title><g class="cls-1"><g id="Layer_1" data-name="Layer 1"><rect id="_Path_" data-name="&lt;Path&gt;" class="cls-2" x="4.49" y="5.36" width="2501.51" height="1411.78"/><path class="cls-3" d="M3-17.08-.15,380l311.22-46.92a1166.59,1166.59,0,0,1,341.66-1L888.65,366.3a705.64,705.64,0,0,0,105.8,7.29l402.25-39.09a923.42,923.42,0,0,1,152.14-2.2L1977,361.49a989.14,989.14,0,0,0,154.74-1.59l351.59-31.21c10.08-.89,17.84-10.47,17.77-21.93l-2-323.89Z" transform="translate(6 17.14)"/><g class="cls-4"><polygon class="cls-5" points="2378.26 1048.16 2378.25 822.38 2368.61 822.38 2368.61 850.88 2340.38 850.88 2340.38 840.2 2333.5 840.2 2333.5 832.46 2311.47 832.46 2311.47 850.89 2300.79 850.89 2300.79 832.81 2284.27 832.81 2284.27 846.02 2279.1 846.02 2279.1 850.89 2269.47 850.89 2269.46 651.72 2246.74 651.72 2246.74 626 2199.57 626 2199.57 647.21 2190.97 647.21 2190.97 622.53 2143.11 622.53 2143.11 549.54 1955.83 549.54 1955.83 672.59 1930.36 672.59 1930.36 720.9 1880.78 720.9 1880.78 536.68 1871.83 536.68 1871.83 527.99 1866.66 527.99 1866.66 493.24 1844.28 493.24 1844.29 514.44 1844.29 527.65 1836.02 527.65 1836.02 544.68 1766.14 544.68 1758.22 544.68 1758.22 527.3 1713.81 527.3 1713.81 688.93 1698.66 688.93 1698.66 647.91 1681.1 647.91 1681.1 633.66 1657.01 633.66 1657.01 647.57 1643.58 647.57 1643.58 669.46 1621.2 669.47 1621.2 642.35 1488.31 642.36 1377.46 642.36 1377.46 620.81 1319.97 620.81 1319.96 559.64 1287.95 559.64 1287.95 637.84 1272.8 637.84 1272.8 712.57 1265.57 712.57 1265.57 734.82 1260.07 734.82 1260.07 785.22 1223.92 785.22 1223.92 729.95 1223.91 528.01 1103.76 528.01 1103.77 611.78 1081.39 611.78 1081.39 740.73 1075.19 740.73 1075.19 663.57 1043.86 663.57 1043.87 742.82 1034.57 742.82 1034.56 418.87 932.66 418.88 932.66 646.54 919.58 646.54 919.58 579.8 863.81 579.81 863.81 752.9 829.73 752.9 829.73 718.14 811.83 718.14 811.83 731.7 758.47 731.7 758.46 546.79 681 546.79 680.99 248.22 655.52 248.22 655.52 229.45 625.91 229.45 622.81 54.97 619.71 229.45 619.37 229.45 590.11 229.45 590.11 245.44 567.38 245.44 567.39 680.61 468.59 680.61 468.59 707.73 407.31 707.73 407.31 567.65 403.18 567.65 403.18 560 372.54 533.94 339.83 558.27 339.83 566.26 334.32 566.26 334.32 577.73 323.31 577.73 323.31 754.3 286.13 754.3 244.13 754.31 244.13 673.67 237.24 673.67 237.24 662.54 227.95 662.54 227.94 642.04 167.01 642.04 167.01 662.89 161.5 662.89 161.5 671.58 151.52 671.58 151.52 721.64 141.54 721.64 141.54 803.66 132.24 803.66 132.24 840.25 132.25 1048.21 2378.26 1048.16"/><path class="cls-6" d="M2458.3,1031V910.78H2440V883.55h-104.8s1.25,25.68,0,24.42-135.93,0-135.93,0V837h-79.23V650.9h-36.42v-21h-60v18.52h-37V812.56h-7.78V789.26H1955V578.77h9.17V563.9h-176v13.75h7.23V693c0,1.4-42.25,0-42.25,0V675.6H1714.5v17.12H1692v80.55h-34.47V508.33h-4.73v-14H1500.17V708.45h-42V611.34h-54.76V751.95h-13.34V689.08h-5.84v-7h-6.39v-9l-8.9-14.31V643.62h-7.78v14.59L1351.73,672v9.54h-5.84v5.61h-8.06v62.59h-13.9v15.16h-12.79v16.56h-5.84V704h-17.51v14.31H1280v50.52h-11.4V879.37H1260v-53h-10.75v-43.5h-6.76V696.1H1238V672.81h-32v7.58H1195.5v-14H1171v6.46h-3.89V658.22h-11.68v15.16h-34.75V743h-6.39V754.2h-35.86V870.39h-13.9V735.12H991.46v39.29h-3.89V761.78h-8.06V752h-6.39v-53h-7.78V681H932.25V668H925.3V640.82h-6.12v-5.61h-5.56V618.37H893.33v16.84H885v38.17H865.81V780.87H846.08v83.07h-4.17V728.39H818.56v17.12h-2.78v-5.33h-3.34v-4.49H802.16v3.93h-2.78v4.77h-1.95v8.14H787.15v94.86c0,1.4-18.63,0-18.63,0V682.92H750.17V668.61l-36.69-13.75H701.8v54.45H684V692.47H645.37v72.69H633.7v-8.42H605.07v92.62h-2.78V705.1h-5V690.22h-6.12V679.28h-6.39v-8.7H563.92v9.26H557v8.7H550v14.87h-6.95V851h-8.62V741h-7.78V643.36H520v-9.82h-6.67v-9.26L500.26,606.5H456.62l-15,15v10.95h-5.84v9.26H425.49v96H417.7V840.1h-5.28V740.18h-30.3V619.78H371.83V606.5H361.76a36.9,36.9,0,0,0-71.61,0h-9v12.16H267.41V823.36H222.56V744H94.32V865.74H40.21v165.34Z" transform="translate(6 17.14)"/><polygon class="cls-7" points="2506.01 1048.16 2506.01 1016.68 2300.1 1016.68 2300.1 993.07 2193.51 993.07 2193.51 977.2 2065.83 977.2 2065.83 963.27 1892.9 963.27 1892.9 1009.34 1787.45 1009.34 1787.45 996.18 1738.38 996.18 1738.38 989.21 1713.45 989.21 1713.45 995.02 1707.32 995.02 1707.31 741.45 1679.32 741.46 1679.32 724.03 1642.89 724.03 1642.89 740.29 1588.83 740.29 1588.83 683.39 1567.17 683.39 1567.17 667.71 1516.94 667.71 1516.94 684.36 1488.56 684.36 1488.56 711.65 1432.01 711.65 1432.01 926.12 1334.05 926.12 1322.16 937.73 1322.16 1003.35 1058.74 1003.36 1058.74 994.45 1037.08 994.45 1027.88 988.07 972.09 988.07 961.16 994.45 862.43 994.46 862.42 975.88 850.35 968.33 834.82 968.33 834.82 941.03 811.81 941.03 811.81 970.46 807.21 970.46 807.21 941.42 791.87 941.42 791.87 974.33 715.76 974.33 715.76 964.07 710.2 951.88 703.49 963.49 703.49 978.78 690.84 978.78 690.84 987.11 677.61 987.11 677.61 911.42 611.85 911.42 611.85 935.43 598.82 935.43 598.81 907.75 580.22 907.75 580.22 976.66 532.29 976.66 532.29 934.46 521.36 934.46 521.36 864.2 442.95 864.2 442.95 876.59 438.73 876.59 438.73 886.85 424.54 886.85 424.55 960.59 384.29 960.59 384.29 930.79 307.41 930.79 307.41 921.5 284.4 921.5 284.4 929.63 275.58 929.63 275.58 844.65 254.49 844.65 254.49 822.01 247.21 822.01 247.21 809.81 243.47 809.81 243.47 799.36 233.98 799.36 233.98 809.82 230.53 809.82 230.53 821.72 224.78 821.72 224.78 830.14 222.76 830.14 222.76 838.27 209.25 838.27 209.25 821.72 194 821.72 194 833.91 164.67 833.91 164.67 890.82 147.99 890.82 147.99 900.98 142.82 900.98 142.82 982.57 4.5 982.57 4.5 984.61 4.5 1040.32 4.5 1048.22 2506.01 1048.16"/></g><polygon points="255.39 546.88 263.39 546.88 265.94 536.66 255.39 536.66 255.39 546.88"/><path class="cls-8" d="M83.39,522.6a7.81,7.81,0,0,0,6.8,5.75h12.87c2.14,0,19.13,4.49,24.85,4.49h128c1.69,0,2.67-.05,3.43-1.54s.82-3.08-.22-3.08H254.7c-1.37,0-.38-3.46.44-4.73s2.84-1.63,4.29-1.86,2-.91,1-6.45c-.07-.4-.16-.82-.25-1.28a10.14,10.14,0,0,0-4-6.05c-.42-.32-.82-.6-1.19-.84-3.42-2.21-8.11-3.75-13.09-5.39-4.52-1.48-11.09-2.27-17-2.81l-2.36-.21a95.3,95.3,0,0,1-10.21-1.11c-3.64-1-15.55-9.79-24.64-14.92s-17.38-4.62-21-4.62H144.72c-3.89,0-12.27.12-16.7,1.88s-22.86,10.81-25.11,11.44-7.92.48-12.39.48c-2.8,0-3.77,1.15-4.18,2.41a13.31,13.31,0,0,0-.37,2.18c-.07.43-.2,1.49-.37,2.88s0,2.94-.14,4.49c-.09.86-.54,1.6-.62,2.43l-.17,1.64c-.16,1.65-.26,3-.26,3.58,0,2-1.71,2.27-2,3S82,518.32,83.39,522.6Z" transform="translate(6 17.14)"/><path class="cls-9" d="M84.67,507.78h7.26a2.89,2.89,0,0,0,2.87-2.9v-7.83a2.89,2.89,0,0,0-2.88-2.9H86.34a13.3,13.3,0,0,0-.37,2.18c-.07.43-.2,1.49-.37,2.88s0,2.94-.14,4.49c-.09.86-.54,1.6-.62,2.43Z" transform="translate(6 17.14)"/><path class="cls-10" d="M82.34,517.55a23.36,23.36,0,0,0,1.05,5.06,9.17,9.17,0,0,0,1.3,2.59,7.35,7.35,0,0,0,5.5,3.16h12.87c2.14,0,19.13,4.49,24.85,4.49h128c1.69,0,2.67-.05,3.43-1.54s.82-3.08-.22-3.08H254.7c-.93,0-.77-1.6-.31-3a7.4,7.4,0,0,1,.75-1.7c.82-1.26,2.84-1.63,4.29-1.86,1.13-.18,1.78-.7,1.36-4.1Z" transform="translate(6 17.14)"/><g class="cls-11"><path class="cls-12" d="M120.29,496.62a7.33,7.33,0,0,0-.74,5.57c.4,1.31,2.45,3.32,5.3,6.09,1,.93,2,2,3.17,3.13,3.83,3.85,6,10.15,6.89,12.84.17.49.3.88.4,1.12.65,1.64,1.46,2,2.47,2h27.48a218.81,218.81,0,0,0-1.74-27.73l.32,0a219.09,219.09,0,0,1,1.75,27.77h40.63a1.56,1.56,0,0,0,1.53-1.15c.16-.66,1.47-10.22,1.8-15.25s-.2-6.48-2.89-8.92-12.64-8.49-12.74-8.55l.17-.28c.1.06,10.13,6.19,12.79,8.59s3.32,4.16,3,9.18-1.64,14.64-1.8,15.31a1.9,1.9,0,0,1-1.85,1.4H137.78c-1.35,0-2.15-.63-2.77-2.19-.1-.25-.23-.64-.4-1.14-.91-2.67-3-8.91-6.81-12.71-1.13-1.14-2.21-2.19-3.17-3.12-2.88-2.81-5-4.84-5.38-6.23a7.6,7.6,0,0,1,.79-5.86Z" transform="translate(6 17.14)"/><path class="cls-12" d="M99.51,502.23a3,3,0,1,0,3-3A3,3,0,0,0,99.51,502.23Zm.33,0a2.67,2.67,0,1,1,2.67,2.69A2.69,2.69,0,0,1,99.84,502.23Z" transform="translate(6 17.14)"/></g><path class="cls-13" d="M123.16,500.55h74.6c2,0,2.84-1.32,2.69-2.27s-8.66-7.77-14.47-11.21c-.63-.37-1.27-.73-1.92-1.06h0a47.85,47.85,0,0,0-10.75-4.06c-.74-.17-1.43-.3-2-.39a11.56,11.56,0,0,0-1.57-.13H142c-6.4,0-21.7,8.21-24,11.58C116.41,495.26,121.34,500.55,123.16,500.55Z" transform="translate(6 17.14)"/><path class="cls-8" d="M168.22,500.55h-7.84l-2.25-19.13h4.22Z" transform="translate(6 17.14)"/><path class="cls-13" d="M212.3,497.51a18.49,18.49,0,0,1-3.52.82,6.4,6.4,0,0,1-3.33-.77c-.49-.38-17.89-12.64-19.47-13.68s-.76-2.09,0-2.09h.16c.5.25,1,.52,1.52.81,9.09,5.13,21,13.93,24.64,14.92Z" transform="translate(6 17.14)"/><path class="cls-13" d="M127.75,480c.27.3.23.77-.41,1.29-1.05.84-15.49,8-17.2,8.83s-3.69.91-6.42.91C107.86,489.33,123.28,481.78,127.75,480Z" transform="translate(6 17.14)"/><path class="cls-14" d="M243.83,511.38c2.51,1.93,6.88,3.06,10.75,3.49a25.26,25.26,0,0,0,5.83.33c-.07-.4-.16-.82-.25-1.28a10.14,10.14,0,0,0-4-6.05c-.42-.32-.82-.6-1.19-.84a7.17,7.17,0,0,0-1-.54c-2.36-1-9.33-2.07-12.32-2.53C236.34,503.16,241.32,509.45,243.83,511.38Z" transform="translate(6 17.14)"/><path class="cls-15" d="M241.83,505.31c2.28.35,7.58,1.15,9.38,1.92s6.16,4.8,5.89,5.92-2.45.79-5.4.46-6.27-1.19-8.18-2.66S237.82,504.69,241.83,505.31Z" transform="translate(6 17.14)"/><path class="cls-16" d="M243.52,511c-1.91-1.47-5.7-6.26-1.69-5.64l2.56.4c1.47,1.09,5,4,6.1,7.73A16.32,16.32,0,0,1,243.52,511Z" transform="translate(6 17.14)"/><path class="cls-15" d="M93.39,498v5.94a2.19,2.19,0,0,1-2.18,2.2H85.14c.24-2.33.23-5,.47-6.93.16-1.38.3-2.45.37-2.87,0-.17,0-.34.07-.53h5.17A2.19,2.19,0,0,1,93.39,498Z" transform="translate(6 17.14)"/><path class="cls-16" d="M93.39,503.94a2.19,2.19,0,0,1-2.18,2.2H84.84c.24-2.33.53-4.95.77-6.92h7.78Z" transform="translate(6 17.14)"/><path class="cls-10" d="M84.69,525.2a7.35,7.35,0,0,0,5.5,3.16h12.87c2.14,0,19.13,4.49,24.85,4.49h128c1.69,0,2.67-.05,3.43-1.54s.82-3.08-.22-3.08H254.7c-.93,0-.77-1.6-.31-3Z" transform="translate(6 17.14)"/><path d="M101.32,526.23a15.16,15.16,0,1,1,30.32,0v6.61h-3.73c-5.72,0-22.71-4.49-24.85-4.49h-1.74Z" transform="translate(6 17.14)"/><path class="cls-14" d="M210.77,527.07v5.78h36.16v-5.78a18.08,18.08,0,1,0-36.16,0Z" transform="translate(6 17.14)"/><path class="cls-14" d="M98.4,527.07v1.29h4.66c2.14,0,19.13,4.49,24.85,4.49h6.64v-5.78a18.08,18.08,0,1,0-36.16,0Z" transform="translate(6 17.14)"/><path d="M213.69,526.23a15.16,15.16,0,1,1,30.32,0v6.61H213.69Z" transform="translate(6 17.14)"/><path class="cls-17" d="M228.91,534.45a8,8,0,1,1,7.91-8A7.94,7.94,0,0,1,228.91,534.45Z" transform="translate(6 17.14)"/><path class="cls-18" d="M220.77,528.16a8.35,8.35,0,0,0,1.07,2.72l1.07-.57,4.19-2.23a2.56,2.56,0,0,0,1.18.81l-.61,4.63-.16,1.2a8.18,8.18,0,0,0,1.41.12,8.28,8.28,0,0,0,1.46-.13l-.11-1.21-.41-4.59a2.58,2.58,0,0,0,1.22-.81l3.92,2.08,1.06.57a8.36,8.36,0,0,0,1-2.67l-1.17-.32-4.22-1.15c0-.06,0-.13,0-.19a2.61,2.61,0,0,0-.56-1.61l2.66-3.52.73-1a8.38,8.38,0,0,0-2.41-1.55l-.5,1.1-1.83,4a2.47,2.47,0,0,0-.68-.09,2.54,2.54,0,0,0-.88.16l-2.16-4-.57-1.07a8.3,8.3,0,0,0-2.39,1.65l.79.92,3.06,3.54a2.61,2.61,0,0,0-.44,1.46c0,.06,0,.12,0,.18l-4.58,1.24Z" transform="translate(6 17.14)"/><path class="cls-19" d="M221.93,527.84a7.13,7.13,0,0,0,1,2.47l4.19-2.23a2.56,2.56,0,0,0,1.18.81l-.61,4.63a7,7,0,0,0,1.25.11,6.85,6.85,0,0,0,1.36-.13l-.41-4.59a2.58,2.58,0,0,0,1.22-.81l3.92,2.08a7.11,7.11,0,0,0,.91-2.43l-4.22-1.15c0-.06,0-.13,0-.19a2.61,2.61,0,0,0-.56-1.61l2.66-3.52a7.1,7.1,0,0,0-2.17-1.42l-1.83,4a2.47,2.47,0,0,0-.68-.09,2.54,2.54,0,0,0-.88.16l-2.16-4a7.13,7.13,0,0,0-2.17,1.49l3.06,3.54a2.61,2.61,0,0,0-.44,1.46c0,.06,0,.12,0,.18Z" transform="translate(6 17.14)"/><ellipse class="cls-10" cx="235.01" cy="543.57" rx="1.7" ry="1.72"/><ellipse class="cls-20" cx="235.01" cy="542.28" rx="0.5" ry="0.51"/><ellipse class="cls-20" cx="235.01" cy="544.86" rx="0.5" ry="0.51"/><ellipse class="cls-20" cx="236.29" cy="543.57" rx="0.5" ry="0.51"/><ellipse class="cls-20" cx="233.73" cy="543.57" rx="0.5" ry="0.51"/><path class="cls-20" d="M215.61,526.49a13.3,13.3,0,1,0,13.3-13.41A13.35,13.35,0,0,0,215.61,526.49Zm4.79,0a8.51,8.51,0,1,1,8.52,8.58A8.55,8.55,0,0,1,220.39,526.49Z" transform="translate(6 17.14)"/><g class="cls-21"><path class="cls-22" d="M218.62,526.49a10.29,10.29,0,1,0,10.29-10.37A10.33,10.33,0,0,0,218.62,526.49Zm1.78,0a8.51,8.51,0,1,1,8.52,8.58A8.55,8.55,0,0,1,220.39,526.49Z" transform="translate(6 17.14)"/></g><path class="cls-23" d="M219.6,526.49a9.31,9.31,0,1,0,9.31-9.38A9.34,9.34,0,0,0,219.6,526.49Zm1.4,0a7.91,7.91,0,1,1,7.91,8A7.94,7.94,0,0,1,221,526.49Z" transform="translate(6 17.14)"/><path class="cls-10" d="M220.27,526.49a8.64,8.64,0,1,0,8.64-8.71A8.67,8.67,0,0,0,220.27,526.49Zm.73,0a7.91,7.91,0,1,1,7.91,8A7.94,7.94,0,0,1,221,526.49Z" transform="translate(6 17.14)"/><path class="cls-17" d="M116.48,534.46a8,8,0,1,1,7.91-8A7.94,7.94,0,0,1,116.48,534.46Z" transform="translate(6 17.14)"/><path class="cls-18" d="M108.34,528.16a8.35,8.35,0,0,0,1.07,2.72l1.07-.57,4.19-2.23a2.56,2.56,0,0,0,1.18.81l-.61,4.63-.16,1.2a8.18,8.18,0,0,0,1.41.12,8.28,8.28,0,0,0,1.46-.13l-.11-1.21-.41-4.59a2.58,2.58,0,0,0,1.22-.81l3.92,2.08,1.06.57a8.37,8.37,0,0,0,1-2.67l-1.17-.32-4.22-1.15c0-.06,0-.13,0-.19a2.61,2.61,0,0,0-.56-1.61l2.66-3.52.73-1a8.38,8.38,0,0,0-2.41-1.55l-.5,1.1-1.83,4a2.47,2.47,0,0,0-.68-.09,2.54,2.54,0,0,0-.88.16l-2.16-4-.57-1.07a8.3,8.3,0,0,0-2.39,1.65l.79.92,3.06,3.54a2.61,2.61,0,0,0-.44,1.46c0,.06,0,.12,0,.18l-4.58,1.24Z" transform="translate(6 17.14)"/><path class="cls-19" d="M109.5,527.85a7.12,7.12,0,0,0,1,2.47l4.19-2.23a2.56,2.56,0,0,0,1.18.81l-.61,4.63a7,7,0,0,0,1.25.11,6.85,6.85,0,0,0,1.36-.13l-.41-4.59a2.58,2.58,0,0,0,1.22-.81l3.92,2.08a7.11,7.11,0,0,0,.91-2.43l-4.22-1.15c0-.06,0-.13,0-.19a2.61,2.61,0,0,0-.56-1.61l2.66-3.52a7.1,7.1,0,0,0-2.17-1.42l-1.83,4a2.47,2.47,0,0,0-.68-.09,2.54,2.54,0,0,0-.88.16l-2.16-4a7.13,7.13,0,0,0-2.17,1.49l3.06,3.54a2.61,2.61,0,0,0-.44,1.46c0,.06,0,.12,0,.18Z" transform="translate(6 17.14)"/><ellipse class="cls-10" cx="122.58" cy="543.57" rx="1.7" ry="1.72"/><ellipse class="cls-20" cx="122.58" cy="542.28" rx="0.5" ry="0.51"/><ellipse class="cls-20" cx="122.58" cy="544.86" rx="0.5" ry="0.51"/><ellipse class="cls-20" cx="123.86" cy="543.57" rx="0.5" ry="0.51"/><ellipse class="cls-20" cx="121.3" cy="543.57" rx="0.5" ry="0.51"/><path class="cls-20" d="M103.18,526.49a13.3,13.3,0,1,0,13.3-13.41A13.35,13.35,0,0,0,103.18,526.49Zm4.79,0a8.51,8.51,0,1,1,8.52,8.58A8.55,8.55,0,0,1,108,526.49Z" transform="translate(6 17.14)"/><g class="cls-21"><path class="cls-22" d="M106.19,526.49a10.29,10.29,0,1,0,10.29-10.37A10.33,10.33,0,0,0,106.19,526.49Zm1.78,0a8.51,8.51,0,1,1,8.52,8.58A8.55,8.55,0,0,1,108,526.49Z" transform="translate(6 17.14)"/></g><path class="cls-23" d="M107.17,526.49a9.31,9.31,0,1,0,9.31-9.38A9.34,9.34,0,0,0,107.17,526.49Zm1.4,0a7.91,7.91,0,1,1,7.91,8A7.94,7.94,0,0,1,108.57,526.49Z" transform="translate(6 17.14)"/><path class="cls-10" d="M107.84,526.49a8.64,8.64,0,1,0,8.64-8.71A8.67,8.67,0,0,0,107.84,526.49Zm.73,0a7.91,7.91,0,1,1,7.91,8A7.94,7.94,0,0,1,108.57,526.49Z" transform="translate(6 17.14)"/><path class="cls-24" d="M1168.22,506.89v13.88a3,3,0,0,1-3,3.05H1047.52a3,3,0,0,1-1.88-.66l-9.49-7.56a3,3,0,0,0-1.88-.66H999.52a3,3,0,0,1-1.48-.39,3.06,3.06,0,0,1-.66-4.82,3,3,0,0,1,2.14-.89h114.86a3,3,0,0,0,1.79-.59l1.51-1.11,3.68-2.71a3,3,0,0,1,1.79-.59h42A3,3,0,0,1,1168.22,506.89Z" transform="translate(6 17.14)"/><rect class="cls-25" x="1001.45" y="508.84" width="15.42" height="12.77" transform="translate(2024.33 1047.56) rotate(180)"/><path class="cls-26" d="M1117.67,433.26v74.18a3.6,3.6,0,0,1-3.58,3.62H999.28L998,514.56l-2.1,5.94h-8.82V433.27a4.9,4.9,0,0,1,4.88-4.92h120.78A4.9,4.9,0,0,1,1117.67,433.26Z" transform="translate(6 17.14)"/><rect class="cls-20" x="999.25" y="519.94" width="19.83" height="5" rx="1.08" ry="1.08" transform="translate(2024.34 1061.99) rotate(180)"/><rect class="cls-20" x="993.74" y="504.92" width="119.53" height="2.53" rx="0.98" ry="0.98" transform="translate(2113.02 1029.48) rotate(180)"/><rect class="cls-20" x="1056.64" y="516.61" width="62.14" height="12.09" rx="2.54" ry="2.54" transform="translate(2181.42 1062.42) rotate(180)"/><rect class="cls-20" x="986.58" y="517.72" width="9.9" height="7.22" rx="1.36" ry="1.36" transform="translate(1989.06 1059.77) rotate(180)"/><path class="cls-24" d="M987.12,433.27v1.19h130.55v-1.19a4.9,4.9,0,0,0-4.88-4.92H992A4.9,4.9,0,0,0,987.12,433.27Z" transform="translate(6 17.14)"/><rect class="cls-27" x="991.94" y="430.29" width="5.51" height="2.22" rx="0.86" ry="0.86" transform="translate(1995.39 879.92) rotate(180)"/><rect class="cls-28" x="988.77" y="514.11" width="5.51" height="2.22" rx="0.86" ry="0.86" transform="translate(1989.06 1047.56) rotate(180)"/><rect class="cls-27" x="1107.51" y="430.29" width="5.51" height="2.22" rx="0.86" ry="0.86" transform="translate(2226.53 879.91) rotate(180)"/><path class="cls-29" d="M1202,502.67v20.78a4.68,4.68,0,0,1-2.71,4.25,4.57,4.57,0,0,1-1.92.42h-.4l-.23-2-.59-5.08a10.77,10.77,0,0,0-10.43-9.84h-10a10.16,10.16,0,0,0-7.48,3.35,11.39,11.39,0,0,0-2.65,4.91,10.92,10.92,0,0,0-.23,1.08l-.52,3.26-.24,1.48a3.34,3.34,0,0,1-3.29,2.83h-35V469.42a2.3,2.3,0,0,1,2.33-2.31l19.5.38a6.74,6.74,0,0,1,4.4,1.75l17.43,15.86,6.47,5.88,21.74,6.73a5.07,5.07,0,0,1,3.48,3l0,0A5.09,5.09,0,0,1,1202,502.67Z" transform="translate(6 17.14)"/><path d="M1175.7,511.22h10a10.77,10.77,0,0,1,10.42,9.84l.51,4.37h-32.12s0-.09,0-.13l.76-4.74A10.73,10.73,0,0,1,1175.7,511.22Z" transform="translate(6 17.14)"/><rect class="cls-30" x="1130.96" y="485.83" height="56.74"/><path class="cls-24" d="M1125,525.43h0c-.73,0-1.33-.44-1.33-1V469.67c0-.54.59-1,1.33-1h0c.73,0,1.33.44,1.33,1v54.79C1126.29,525,1125.69,525.43,1125,525.43Z" transform="translate(6 17.14)"/><g class="cls-11"><path class="cls-23" d="M1157,524h-26.68a2.48,2.48,0,0,1-1.78-.74,2.51,2.51,0,0,1-.73-1.79c0-6.37.15-27.29.13-29.1l-.15-18.91a4.42,4.42,0,0,1,1.1-3,4.16,4.16,0,0,1,3.11-1.38h16.24a4.18,4.18,0,0,1,2.9,1.16l20.15,19.23a4.17,4.17,0,0,1,1.28,3c0,1.79-1.79,16.64-4,17.5-5.32,2-7.41,8-8.19,11.37A3.44,3.44,0,0,1,1157,524Zm-25-54.4a3.62,3.62,0,0,0-2.71,1.21,3.87,3.87,0,0,0-1,2.65l.15,18.91c0,1.76-.09,20.94-.13,29.1a2,2,0,0,0,.57,1.4,1.94,1.94,0,0,0,1.39.58H1157a2.9,2.9,0,0,0,2.84-2.26c.8-3.48,3-9.63,8.52-11.76,1.66-.64,3.68-14.24,3.68-17a3.62,3.62,0,0,0-1.11-2.61l-20.15-19.23a3.64,3.64,0,0,0-2.52-1Z" transform="translate(6 17.14)"/></g><path class="cls-31" d="M1132,470.36h16.24a2.93,2.93,0,0,1,2,.81l20.15,19.23a2.87,2.87,0,0,1,.89,2.07h0a2.84,2.84,0,0,1-2.83,2.86h-36.31a3,3,0,0,1-2.94-2.94l-.15-19A3,3,0,0,1,1132,470.36Z" transform="translate(6 17.14)"/><path class="cls-17" d="M1172.65,526.29a8,8,0,1,1,8,8.07A8,8,0,0,1,1172.65,526.29Z" transform="translate(6 17.14)"/><path class="cls-19" d="M1177.86,526.42c0-.06,0-.13,0-.2a2.64,2.64,0,0,1,.57-1.64L1175,520a8.41,8.41,0,0,1,2.44-1.57l2.36,5.22a2.55,2.55,0,0,1,1.58.06l2.77-5.18a8.43,8.43,0,0,1,2.42,1.67l-3.9,4.52a2.65,2.65,0,0,1,.45,1.47c0,.06,0,.12,0,.18l5.82,1.58a8.46,8.46,0,0,1-1.09,2.76l-5.33-2.84a2.62,2.62,0,0,1-1.19.82l.78,5.92a8.28,8.28,0,0,1-2.91,0l.53-5.88a2.62,2.62,0,0,1-1.23-.82l-5,2.69a8.47,8.47,0,0,1-1-2.71Z" transform="translate(6 17.14)"/><ellipse class="cls-20" cx="1186.56" cy="542.06" rx="0.51" ry="0.51"/><ellipse class="cls-20" cx="1186.56" cy="544.67" rx="0.51" ry="0.51"/><ellipse class="cls-20" cx="1185.26" cy="543.37" rx="0.51" ry="0.51"/><ellipse class="cls-20" cx="1187.85" cy="543.37" rx="0.51" ry="0.51"/><path class="cls-20" d="M1167.18,526.29a13.48,13.48,0,1,0,13.48-13.59A13.53,13.53,0,0,0,1167.18,526.29Zm4.85,0a8.63,8.63,0,1,1,8.63,8.69A8.66,8.66,0,0,1,1172,526.29Z" transform="translate(6 17.14)"/><path class="cls-23" d="M1171.23,526.29a9.43,9.43,0,1,0,9.43-9.5A9.47,9.47,0,0,0,1171.23,526.29Zm1.42,0a8,8,0,1,1,8,8.07A8,8,0,0,1,1172.65,526.29Z" transform="translate(6 17.14)"/><path class="cls-17" d="M1026.57,526.29a8,8,0,1,1,8,8.07A8,8,0,0,1,1026.57,526.29Z" transform="translate(6 17.14)"/><path class="cls-19" d="M1031.78,526.42c0-.06,0-.13,0-.2a2.64,2.64,0,0,1,.57-1.64l-3.44-4.55a8.41,8.41,0,0,1,2.44-1.57l2.36,5.22a2.55,2.55,0,0,1,1.58.06l2.77-5.18a8.43,8.43,0,0,1,2.42,1.67l-3.9,4.52a2.65,2.65,0,0,1,.45,1.47c0,.06,0,.12,0,.18l5.82,1.58a8.47,8.47,0,0,1-1.09,2.76l-5.33-2.84a2.62,2.62,0,0,1-1.19.82l.78,5.92a8.28,8.28,0,0,1-2.91,0l.53-5.88a2.62,2.62,0,0,1-1.23-.82l-5,2.69a8.47,8.47,0,0,1-1-2.71Z" transform="translate(6 17.14)"/><ellipse class="cls-20" cx="1040.47" cy="542.06" rx="0.51" ry="0.51"/><ellipse class="cls-20" cx="1040.47" cy="544.68" rx="0.51" ry="0.51"/><ellipse class="cls-20" cx="1039.18" cy="543.37" rx="0.51" ry="0.51"/><ellipse class="cls-20" cx="1041.77" cy="543.37" rx="0.51" ry="0.51"/><path class="cls-20" d="M1021.1,526.29a13.48,13.48,0,1,0,13.48-13.59A13.53,13.53,0,0,0,1021.1,526.29Zm4.85,0a8.63,8.63,0,1,1,8.63,8.69A8.66,8.66,0,0,1,1026,526.29Z" transform="translate(6 17.14)"/><path class="cls-23" d="M1025.15,526.29a9.43,9.43,0,1,0,9.43-9.5A9.47,9.47,0,0,0,1025.15,526.29Zm1.42,0a8,8,0,1,1,8,8.07A8,8,0,0,1,1026.57,526.29Z" transform="translate(6 17.14)"/><path class="cls-23" d="M1168.5,497.87H1131a.27.27,0,0,1-.27-.27h0a.27.27,0,0,1,.27-.27h37.54a.27.27,0,0,1,.27.27h0A.27.27,0,0,1,1168.5,497.87Z" transform="translate(6 17.14)"/><path class="cls-24" d="M1172.8,498.47h-3.35a.81.81,0,0,1-.66-1l.83-5.47a.74.74,0,0,1,.66-.69h2.52a3.7,3.7,0,0,1,3.81,3.58h0A3.7,3.7,0,0,1,1172.8,498.47Z" transform="translate(6 17.14)"/><path class="cls-32" d="M1172.8,496.32h-3.35a.61.61,0,0,1-.46-.22l-.21,1.37a.81.81,0,0,0,.66,1h3.35a3.7,3.7,0,0,0,3.81-3.58h0a3.39,3.39,0,0,0-.17-1.07A3.79,3.79,0,0,1,1172.8,496.32Z" transform="translate(6 17.14)"/><path class="cls-33" d="M1197,511.8l5,2V502.67h-4.38a1.74,1.74,0,0,0-1.73,1.74v5.78A1.74,1.74,0,0,0,1197,511.8Z" transform="translate(6 17.14)"/><path class="cls-15" d="M1196.92,504.4v5.78a.77.77,0,0,0,.62.69l1.12.33,2.41.71a1.05,1.05,0,0,0,1.35-1v-6.17a1.05,1.05,0,0,0-1-1.06h-3.47C1197.36,503.67,1196.92,504,1196.92,504.4Z" transform="translate(6 17.14)"/><path class="cls-17" d="M1206.21,528.13h-9.93l-.14-7.49,6,.14a4,4,0,0,1,4,4.06Z" transform="translate(6 17.14)"/><path class="cls-34" d="M1147.4,472.1h-7.34L1131,491V491a2.54,2.54,0,0,0,2.53,2.53h3.74l10.28-21.47Z" transform="translate(6 17.14)"/><polygon class="cls-34" points="1159.69 494.28 1155.91 490.67 1146.31 510.72 1151.82 510.72 1159.69 494.28"/><path class="cls-28" d="M1196.92,504.4v5.78a.77.77,0,0,0,.62.69l1.12.33v-7.53h-.76C1197.36,503.67,1196.92,504,1196.92,504.4Z" transform="translate(6 17.14)"/><path class="cls-20" d="M1131.31,502.66h11a2.63,2.63,0,0,0-2.62-2.64h-5.74a2.63,2.63,0,0,0-2.62,2.64Z" transform="translate(6 17.14)"/><path class="cls-32" d="M993.6,442.78h116.72a2.18,2.18,0,0,0,2.17-2.19h0a2.18,2.18,0,0,0-2.17-2.19H993.6a2.18,2.18,0,0,0-2.17,2.19h0A2.18,2.18,0,0,0,993.6,442.78Z" transform="translate(6 17.14)"/><path class="cls-32" d="M993.6,450.13h116.72a2.18,2.18,0,0,0,2.17-2.19h0a2.18,2.18,0,0,0-2.17-2.19H993.6a2.18,2.18,0,0,0-2.17,2.19h0A2.18,2.18,0,0,0,993.6,450.13Z" transform="translate(6 17.14)"/><path class="cls-32" d="M993.6,457.47h116.72a2.18,2.18,0,0,0,2.17-2.19h0a2.18,2.18,0,0,0-2.17-2.19H993.6a2.18,2.18,0,0,0-2.17,2.19h0A2.18,2.18,0,0,0,993.6,457.47Z" transform="translate(6 17.14)"/><path class="cls-32" d="M993.6,464.81h116.72a2.18,2.18,0,0,0,2.17-2.19h0a2.18,2.18,0,0,0-2.17-2.19H993.6a2.18,2.18,0,0,0-2.17,2.19h0A2.18,2.18,0,0,0,993.6,464.81Z" transform="translate(6 17.14)"/><path class="cls-32" d="M993.6,472.16h116.72a2.18,2.18,0,0,0,2.17-2.19h0a2.18,2.18,0,0,0-2.17-2.19H993.6a2.18,2.18,0,0,0-2.17,2.19h0A2.18,2.18,0,0,0,993.6,472.16Z" transform="translate(6 17.14)"/><path class="cls-32" d="M993.61,479.5h116.72a2.18,2.18,0,0,0,2.17-2.19h0a2.18,2.18,0,0,0-2.17-2.19H993.61a2.18,2.18,0,0,0-2.17,2.19h0A2.18,2.18,0,0,0,993.61,479.5Z" transform="translate(6 17.14)"/><path class="cls-32" d="M993.61,486.84h116.72a2.18,2.18,0,0,0,2.17-2.19h0a2.18,2.18,0,0,0-2.17-2.19H993.61a2.18,2.18,0,0,0-2.17,2.19h0A2.18,2.18,0,0,0,993.61,486.84Z" transform="translate(6 17.14)"/><path class="cls-32" d="M993.61,494.19h116.72a2.18,2.18,0,0,0,2.17-2.19h0a2.18,2.18,0,0,0-2.17-2.19H993.61a2.18,2.18,0,0,0-2.17,2.19h0A2.18,2.18,0,0,0,993.61,494.19Z" transform="translate(6 17.14)"/><path class="cls-32" d="M993.61,501.53h116.72a2.18,2.18,0,0,0,2.17-2.19h0a2.18,2.18,0,0,0-2.17-2.19H993.61a2.18,2.18,0,0,0-2.17,2.19h0A2.18,2.18,0,0,0,993.61,501.53Z" transform="translate(6 17.14)"/><path class="cls-32" d="M1169.95,485.1l8.09,7.76s15.49,4.68,19.33,5.6c3.48.83,4.17,2,4.27,2.24a5.07,5.07,0,0,0-3.48-3L1176.41,491Z" transform="translate(6 17.14)"/><rect class="cls-35" x="4.49" y="531.93" width="2501.51" height="68.57"/><rect class="cls-36" x="4.49" y="566.22" width="2501.51" height="34.29"/><rect class="cls-37" x="84.87" y="600.53" width="133.21" height="4.91"/><rect class="cls-38" x="84.87" y="605.45" width="133.21" height="10.12"/><polygon class="cls-39" points="218.08 615.57 179.88 638.37 123.07 638.37 84.87 615.57 218.08 615.57"/><rect class="cls-35" x="123.07" y="638.37" width="56.8" height="145.9"/><polygon class="cls-40" points="151.48 600.53 151.48 784.27 123.07 784.27 123.07 638.37 84.87 615.57 84.87 600.54 151.48 600.53"/><rect class="cls-37" x="458.81" y="600.53" width="133.21" height="4.91"/><rect class="cls-38" x="458.81" y="605.44" width="133.21" height="10.12"/><polygon class="cls-39" points="592.02 615.56 553.82 638.36 497.01 638.36 458.81 615.56 592.02 615.56"/><rect class="cls-35" x="497.01" y="638.36" width="56.8" height="145.9"/><polygon class="cls-40" points="525.42 600.53 525.42 784.26 497.02 784.26 497.01 638.36 458.81 615.56 458.81 600.53 525.42 600.53"/><rect class="cls-37" x="832.75" y="600.52" width="133.21" height="4.91"/><rect class="cls-38" x="832.75" y="605.43" width="133.21" height="10.12"/><polygon class="cls-39" points="965.96 615.56 927.76 638.36 870.95 638.36 832.75 615.56 965.96 615.56"/><rect class="cls-35" x="870.95" y="638.36" width="56.8" height="145.9"/><polygon class="cls-40" points="899.36 600.52 899.37 784.25 870.96 784.25 870.96 638.35 832.75 615.55 832.75 600.52 899.36 600.52"/><polygon class="cls-41" points="927.76 667.32 927.76 784.25 870.96 784.26 870.95 638.36 832.75 615.56 832.75 600.52 865.07 600.52 869.67 605.43 879.18 615.56 900.58 638.36 927.76 667.32"/><rect class="cls-37" x="1206.69" y="600.51" width="133.21" height="4.91"/><rect class="cls-38" x="1206.69" y="605.42" width="133.21" height="10.12"/><polygon class="cls-39" points="1339.9 615.54 1301.7 638.34 1244.9 638.35 1206.69 615.55 1339.9 615.54"/><rect class="cls-35" x="1244.9" y="638.34" width="56.8" height="145.9"/><polygon class="cls-40" points="1273.3 600.51 1273.31 784.24 1244.9 784.24 1244.9 638.35 1206.69 615.55 1206.69 600.51 1273.3 600.51"/><rect class="cls-37" x="1580.64" y="600.5" width="133.21" height="4.91"/><rect class="cls-38" x="1580.64" y="605.41" width="133.21" height="10.12"/><polygon class="cls-39" points="1713.85 615.53 1675.64 638.34 1618.84 638.34 1580.64 615.54 1713.85 615.53"/><rect class="cls-35" x="1618.84" y="638.34" width="56.8" height="145.9"/><polygon class="cls-40" points="1647.25 600.5 1647.25 784.23 1618.84 784.23 1618.84 638.34 1580.64 615.54 1580.64 600.5 1647.25 600.5"/><rect class="cls-37" x="1954.58" y="600.49" width="133.21" height="4.91"/><rect class="cls-38" x="1954.58" y="605.4" width="133.21" height="10.12"/><polygon class="cls-39" points="2087.79 615.52 2049.59 638.33 1992.78 638.33 1954.58 615.53 2087.79 615.52"/><rect class="cls-35" x="1992.78" y="638.33" width="56.8" height="145.9"/><polygon class="cls-40" points="2021.19 600.49 2021.19 784.23 1992.79 784.23 1992.78 638.33 1954.58 615.53 1954.58 600.49 2021.19 600.49"/><rect class="cls-37" x="2328.52" y="600.48" width="133.21" height="4.91"/><rect class="cls-38" x="2328.52" y="605.39" width="133.21" height="10.12"/><polygon class="cls-39" points="2461.73 615.52 2423.53 638.32 2366.72 638.32 2328.52 615.52 2461.73 615.52"/><rect class="cls-35" x="2366.73" y="638.32" width="56.8" height="145.9"/><polygon class="cls-40" points="2395.13 600.48 2395.14 784.22 2366.73 784.22 2366.72 638.32 2328.52 615.52 2328.52 600.48 2395.13 600.48"/><rect class="cls-42" x="4.5" y="865.06" width="2501.51" height="551.6"/><rect class="cls-43" x="4.5" y="1228.09" width="2501.51" height="188.57"/><rect class="cls-20" x="4.51" y="1322.38" width="2501.51" height="94.76"/><rect class="cls-15" x="4.49" y="887.25" width="2501.51" height="10.08"/><rect class="cls-15" x="4.5" y="1104.81" width="2501.51" height="10.08"/><polygon class="cls-15" points="91.43 943.74 11.01 943.75 6.24 953.83 86.66 953.83 91.43 943.74"/><polygon class="cls-15" points="1206.98 943.72 563.35 943.73 558.57 953.82 1202.21 953.8 1206.98 943.72"/><polygon class="cls-15" points="1389.44 943.71 1303.52 943.72 1308.3 953.8 1394.22 953.8 1389.44 943.71"/><polygon class="cls-15" points="1575.56 943.71 1493.14 943.71 1497.91 953.79 1580.33 953.79 1575.56 943.71"/><polygon class="cls-15" points="1761.67 943.71 1679.25 943.71 1684.02 953.79 1766.44 953.79 1761.67 943.71"/><polygon class="cls-15" points="1947.78 943.7 1865.36 943.7 1870.13 953.79 1952.56 953.78 1947.78 943.7"/><polygon class="cls-15" points="2133.89 943.7 2051.47 943.7 2056.25 953.78 2138.67 953.78 2133.89 943.7"/><polygon class="cls-15" points="2320.01 943.69 2237.59 943.69 2242.36 953.78 2324.78 953.78 2320.01 943.69"/><polygon class="cls-15" points="2423.7 943.69 2428.47 953.77 2506.01 953.77 2506.01 943.69 2423.7 943.69"/><rect class="cls-44" x="6.24" y="917.1" width="2498.89" height="86.34"/><rect class="cls-44" x="6.24" y="1140.86" width="2498.89" height="53.97"/><rect class="cls-45" x="4.49" y="777.16" width="2501.51" height="87.9"/><rect class="cls-36" x="4.49" y="821.1" width="2501.51" height="43.96"/><rect class="cls-35" x="1498.33" y="643.61" width="9.82" height="133.54"/><rect class="cls-35" x="1315.72" y="643.61" width="9.82" height="133.54"/><rect class="cls-46" x="1315.72" y="643.61" width="9.82" height="19.23"/><rect class="cls-46" x="1498.33" y="643.61" width="9.82" height="19.23"/><path class="cls-47" d="M1599.43,606.83l-23.94,16L1555,636.48a7.29,7.29,0,0,1-4,1.22H1270.26a7.34,7.34,0,0,1-7.3-7.37V571a7.34,7.34,0,0,1,7.3-7.36h280.67a7.29,7.29,0,0,1,4,1.22l44.48,29.65A7.4,7.4,0,0,1,1599.43,606.83Z" transform="translate(6 17.14)"/><path class="cls-15" d="M1544.43,633.36H1275c-4.42,0-8-3.28-8-7.31V575.33c0-4,3.6-7.31,8-7.31h269.46a8.57,8.57,0,0,1,4.38,1.19l42.71,25.37a7,7,0,0,1,0,12.25l-42.7,25.37A8.57,8.57,0,0,1,1544.43,633.36ZM1275,570c-3.32,0-6,2.38-6,5.29v50.73c0,2.92,2.7,5.29,6,5.29h269.46a6.58,6.58,0,0,0,3.36-.91l42.7-25.37a5,5,0,0,0,0-8.78l-42.71-25.37a6.58,6.58,0,0,0-3.36-.91Z" transform="translate(6 17.14)"/><path class="cls-36" d="M1575.49,622.8,1555,636.48a7.29,7.29,0,0,1-4,1.22H1270.26a7.34,7.34,0,0,1-7.3-7.37V622.8Z" transform="translate(6 17.14)"/><rect class="cls-43" x="4.49" y="702.17" width="2501.51" height="5.74"/><rect class="cls-43" x="4.49" y="722.4" width="2501.51" height="5.74"/><rect class="cls-43" x="4.49" y="742.62" width="2501.51" height="5.74"/><rect class="cls-43" x="4.49" y="762.85" width="2501.64" height="5.74"/><rect class="cls-43" x="172.59" y="702.2" width="5" height="74.98"/><rect class="cls-43" x="915.04" y="702.18" width="5" height="74.98"/><rect class="cls-43" x="1286.26" y="702.17" width="5" height="74.98"/><rect class="cls-43" x="1657.49" y="702.16" width="5" height="74.98"/><rect class="cls-43" x="2028.71" y="702.15" width="5" height="74.98"/><rect class="cls-43" x="2399.94" y="702.15" width="5" height="74.98"/><rect class="cls-48" y="1239.64" width="2506.01" height="20.84"/><rect class="cls-48" y="1296.72" width="2506.01" height="20.84"/><rect class="cls-48" y="1353.79" width="2506.01" height="20.84"/><rect class="cls-48" x="139.05" y="1239.66" width="20.54" height="177.02"/><rect class="cls-48" x="614.24" y="1239.65" width="20.54" height="177.02"/><rect class="cls-48" x="1089.43" y="1239.64" width="20.54" height="177.02"/><rect class="cls-48" x="1564.62" y="1239.63" width="20.54" height="177.02"/><rect class="cls-48" x="2039.81" y="1239.62" width="20.54" height="177.02"/><rect class="cls-43" x="4.49" y="513.63" width="2501.51" height="2.02"/><rect class="cls-43" x="4.49" y="518.92" width="2501.51" height="2.02"/><rect class="cls-43" x="4.49" y="524.22" width="2501.51" height="2.02"/><rect class="cls-43" x="51.18" y="513.66" width="1.83" height="18.31"/><rect class="cls-43" x="151.58" y="513.65" width="1.83" height="18.31"/><rect class="cls-43" x="251.97" y="513.65" width="1.83" height="18.31"/><rect class="cls-43" x="352.36" y="513.65" width="1.83" height="18.31"/><rect class="cls-43" x="452.76" y="513.65" width="1.83" height="18.31"/><rect class="cls-43" x="553.15" y="513.64" width="1.83" height="18.31"/><rect class="cls-43" x="653.54" y="513.64" width="1.83" height="18.31"/><rect class="cls-43" x="753.94" y="513.64" width="1.83" height="18.31"/><rect class="cls-43" x="854.33" y="513.64" width="1.83" height="18.31"/><rect class="cls-43" x="954.73" y="513.63" width="1.83" height="18.31"/><rect class="cls-43" x="1055.12" y="513.63" width="1.83" height="18.31"/><rect class="cls-43" x="1155.51" y="513.63" width="1.83" height="18.31"/><rect class="cls-43" x="1255.91" y="513.63" width="1.83" height="18.31"/><rect class="cls-43" x="1356.3" y="513.63" width="1.83" height="18.31"/><rect class="cls-43" x="1456.7" y="513.62" width="1.83" height="18.31"/><rect class="cls-43" x="1557.09" y="513.62" width="1.83" height="18.31"/><rect class="cls-43" x="1657.48" y="513.62" width="1.83" height="18.31"/><rect class="cls-43" x="1757.88" y="513.62" width="1.83" height="18.31"/><rect class="cls-43" x="1858.27" y="513.61" width="1.83" height="18.31"/><rect class="cls-43" x="1958.66" y="513.61" width="1.83" height="18.31"/><rect class="cls-43" x="2059.06" y="513.61" width="1.83" height="18.31"/><rect class="cls-43" x="2159.45" y="513.61" width="1.83" height="18.31"/><rect class="cls-43" x="2259.85" y="513.6" width="1.83" height="18.31"/><rect class="cls-43" x="2360.24" y="513.6" width="1.83" height="18.31"/><rect class="cls-43" x="2460.63" y="513.6" width="1.83" height="18.31"/><polygon class="cls-41" points="865.06 600.51 4.49 600.53 4.49 531.96 800.7 531.94 865.06 600.51"/><rect class="cls-20" x="638.61" y="970.51" width="556.27" height="52.02" rx="10.13" ry="10.13" transform="translate(1839.48 2010.18) rotate(180)"/><rect class="cls-43" x="731.53" y="708.14" width="5" height="74.36"/><polygon class="cls-15" points="650.02 949.58 569.65 949.58 564.88 959.58 645.25 959.58 650.02 949.58"/><rect class="cls-25" x="442.26" y="950.48" width="61.57" height="50.58" transform="translate(952.08 1968.68) rotate(180)"/><rect class="cls-20" x="433.46" y="994.46" width="79.16" height="19.79" rx="4.33" ry="4.33" transform="translate(952.08 2025.85) rotate(180)"/><rect class="cls-20" x="382.89" y="985.67" width="39.5" height="28.59" rx="5.45" ry="5.45" transform="translate(811.28 2017.05) rotate(-180)"/><rect class="cls-28" x="391.64" y="971.37" width="21.99" height="8.8" rx="3.42" ry="3.42" transform="translate(811.28 1968.68) rotate(-180)"/><path class="cls-17" d="M542.52,1019.61a32,32,0,1,1,32,32A32,32,0,0,1,542.52,1019.61Z" transform="translate(6 17.14)"/><path class="cls-19" d="M563.32,1020.13c0-.26,0-.51,0-.77a10.42,10.42,0,0,1,2.26-6.48l-13.73-18a33.63,33.63,0,0,1,9.74-6.23l9.44,20.67a10.27,10.27,0,0,1,6.3.25L588.34,989a33.65,33.65,0,0,1,9.67,6.62l-15.58,17.9a10.42,10.42,0,0,1,1.78,5.84c0,.24,0,.47,0,.71l23.25,6.27a33.38,33.38,0,0,1-4.33,10.92L581.82,1026a10.48,10.48,0,0,1-4.75,3.26l3.12,23.44a33.31,33.31,0,0,1-11.61,0l2.1-23.31a10.47,10.47,0,0,1-4.92-3.26l-20.15,10.64a33.38,33.38,0,0,1-4.08-10.74Z" transform="translate(6 17.14)"/><circle class="cls-20" cx="580.08" cy="1031.35" r="2.03"/><circle class="cls-20" cx="580.08" cy="1041.7" r="2.03"/><circle class="cls-20" cx="574.91" cy="1036.52" r="2.03"/><circle class="cls-20" cx="585.26" cy="1036.52" r="2.03"/><path class="cls-20" d="M520.69,1019.61a53.82,53.82,0,1,0,53.82-53.82A53.82,53.82,0,0,0,520.69,1019.61Zm19.38,0A34.44,34.44,0,1,1,574.5,1054,34.44,34.44,0,0,1,540.07,1019.61Z" transform="translate(6 17.14)"/><path class="cls-23" d="M536.86,1019.61A37.65,37.65,0,1,0,574.5,982,37.65,37.65,0,0,0,536.86,1019.61Zm5.67,0a32,32,0,1,1,32,32A32,32,0,0,1,542.52,1019.61Z" transform="translate(6 17.14)"/><path class="cls-49" d="M1518,926.07v82.33a18.49,18.49,0,0,1-18.5,18.51h-1.6l-.92-7.84-2.36-20.14c-2.61-22.28-20.46-39-41.62-39h-40.09a40.72,40.72,0,0,0-29.88,13.27,45,45,0,0,0-10.57,19.44,42.92,42.92,0,0,0-.9,4.29l-2.07,12.91-.94,5.86a13.3,13.3,0,0,1-13.14,11.2H1215.66V794.35a9.16,9.16,0,0,1,9.32-9.16l77.86,1.5a27,27,0,0,1,17.55,6.94L1390,856.46l25.81,23.31,86.79,26.66a20.18,20.18,0,0,1,13.88,11.84l.06.14A20,20,0,0,1,1518,926.07Z" transform="translate(6 17.14)"/><path d="M1412.93,959.94H1453c21.16,0,39,16.72,41.62,39l2,17.31H1368.46c0-.18.08-.35.11-.53l3-18.76C1375,975.57,1392.49,959.94,1412.93,959.94Z" transform="translate(6 17.14)"/><rect class="cls-30" x="1216.36" y="808.62" height="224.76"/><path class="cls-23" d="M1210.36,1016.24h0c-2.93,0-5.3-1.73-5.3-3.86v-217c0-2.13,2.37-3.86,5.3-3.86h0c2.93,0,5.3,1.73,5.3,3.86v217C1215.66,1014.51,1213.29,1016.24,1210.36,1016.24Z" transform="translate(6 17.14)"/><path class="cls-23" d="M1338.12,1010.65H1231.63a10,10,0,0,1-10-10c.14-25.23.59-108.09.53-115.26l-.58-74.89a17.42,17.42,0,0,1,4.4-12,16.67,16.67,0,0,1,12.43-5.48h64.82a16.76,16.76,0,0,1,11.57,4.61l80.42,76.17a16.45,16.45,0,0,1,5.12,11.9c0,7.09-7.16,65.91-16.08,69.32-21.22,8.1-29.58,31.71-32.68,45.06A13.71,13.71,0,0,1,1338.12,1010.65Zm-99.71-215.49a14.52,14.52,0,0,0-10.83,4.78,15.26,15.26,0,0,0-3.83,10.51l.58,74.89c.06,7-.35,83-.53,115.29a7.82,7.82,0,0,0,7.83,7.86h106.49a11.55,11.55,0,0,0,11.34-8.93c3.19-13.77,11.86-38.13,34-46.59,6.62-2.53,14.69-56.42,14.69-67.29a14.27,14.27,0,0,0-4.44-10.32l-80.42-76.17a14.59,14.59,0,0,0-10.08-4Z" transform="translate(6 17.14)"/><path class="cls-31" d="M1238.41,798.06h64.82a11.75,11.75,0,0,1,8.08,3.22l80.42,76.17a11.31,11.31,0,0,1,3.53,8.21h0A11.31,11.31,0,0,1,1383.95,897H1239a11.75,11.75,0,0,1-11.75-11.66l-.59-75.4A11.75,11.75,0,0,1,1238.41,798.06Z" transform="translate(6 17.14)"/><path class="cls-17" d="M1400.75,1019.61a32,32,0,1,1,32,32A32,32,0,0,1,1400.75,1019.61Z" transform="translate(6 17.14)"/><path class="cls-19" d="M1421.55,1020.13c0-.26,0-.51,0-.77a10.41,10.41,0,0,1,2.26-6.48l-13.73-18a33.63,33.63,0,0,1,9.74-6.23l9.44,20.67a10.27,10.27,0,0,1,6.3.25L1446.57,989a33.65,33.65,0,0,1,9.67,6.62l-15.58,17.9a10.42,10.42,0,0,1,1.78,5.84c0,.24,0,.47,0,.71l23.25,6.27a33.38,33.38,0,0,1-4.33,10.92L1440,1026a10.48,10.48,0,0,1-4.75,3.26l3.12,23.44a33.31,33.31,0,0,1-11.61,0l2.1-23.31a10.47,10.47,0,0,1-4.92-3.26l-20.15,10.64a33.38,33.38,0,0,1-4.08-10.74Z" transform="translate(6 17.14)"/><circle class="cls-20" cx="1438.31" cy="1031.35" r="2.03"/><circle class="cls-20" cx="1438.31" cy="1041.7" r="2.03"/><circle class="cls-20" cx="1433.13" cy="1036.52" r="2.03"/><circle class="cls-20" cx="1443.49" cy="1036.52" r="2.03"/><path class="cls-20" d="M1378.92,1019.61a53.82,53.82,0,1,0,53.82-53.82A53.82,53.82,0,0,0,1378.92,1019.61Zm19.38,0a34.44,34.44,0,1,1,34.44,34.44A34.44,34.44,0,0,1,1398.29,1019.61Z" transform="translate(6 17.14)"/><path class="cls-23" d="M1395.08,1019.61A37.65,37.65,0,1,0,1432.73,982,37.65,37.65,0,0,0,1395.08,1019.61Zm5.67,0a32,32,0,1,1,32,32A32,32,0,0,1,1400.75,1019.61Z" transform="translate(6 17.14)"/><path class="cls-23" d="M1384.19,907H1234.34a1.09,1.09,0,0,1-1.09-1.09h0a1.09,1.09,0,0,1,1.09-1.09h149.84a1.09,1.09,0,0,1,1.09,1.09h0A1.09,1.09,0,0,1,1384.19,907Z" transform="translate(6 17.14)"/><path class="cls-15" d="M1401.36,909.41H1388c-1.69,0-3-1.91-2.65-4l3.32-21.67a2.93,2.93,0,0,1,2.65-2.73h10.07c8.39,0,15.2,6.35,15.2,14.19h0C1416.55,903.06,1409.75,909.41,1401.36,909.41Z" transform="translate(6 17.14)"/><path class="cls-23" d="M1401.36,900.91H1388a2.43,2.43,0,0,1-1.83-.89l-.83,5.41c-.32,2.07,1,4,2.65,4h13.38c8.39,0,15.2-6.35,15.2-14.19h0a13.32,13.32,0,0,0-.69-4.25A15.12,15.12,0,0,1,1401.36,900.91Z" transform="translate(6 17.14)"/><path class="cls-33" d="M1498,962.23l20,7.85v-44s0,0,0,0h-17.47a6.9,6.9,0,0,0-6.9,6.9V955.8A6.9,6.9,0,0,0,1498,962.23Z" transform="translate(6 17.14)"/><path class="cls-15" d="M1497.63,932.92V955.8a3.05,3.05,0,0,0,2.48,2.72l4.45,1.31,9.62,2.82a4.19,4.19,0,0,0,5.37-4V934.2a4.19,4.19,0,0,0-4.19-4.19h-13.84C1499.38,930,1497.63,931.31,1497.63,932.92Z" transform="translate(6 17.14)"/><path class="cls-17" d="M1534.71,1026.9h-39.63l-.55-29.67,24.08.55a16.1,16.1,0,0,1,16.1,16.1Z" transform="translate(6 17.14)"/><path class="cls-34" d="M1300,805h-29.29l-36.07,74.74v.3a10.11,10.11,0,0,0,10.11,10h14.92l41-85C1300.43,805,1300.19,805,1300,805Z" transform="translate(6 17.14)"/><polygon class="cls-34" points="1331.07 842.09 1315.96 827.78 1277.64 907.19 1299.66 907.19 1331.07 842.09"/><path class="cls-28" d="M1497.63,932.92V955.8a3.05,3.05,0,0,0,2.48,2.72l4.45,1.31V930h-3C1499.38,930,1497.63,931.31,1497.63,932.92Z" transform="translate(6 17.14)"/><path class="cls-20" d="M1235.73,926h43.79a10.45,10.45,0,0,0-10.45-10.45h-22.9A10.45,10.45,0,0,0,1235.73,926Z" transform="translate(6 17.14)"/><path class="cls-23" d="M1390,856.46l32.28,30.75s61.84,18.55,77.17,22.2c13.9,3.3,16.64,8,17,8.86a20.21,20.21,0,0,0-13.88-11.84l-86.79-26.65Z" transform="translate(6 17.14)"/><path class="cls-41" d="M789.93,959.29H433.6l-4.94,13.84-8.4,23.54H385.07V651.13a19.5,19.5,0,0,1,19.5-19.5H505.3l21,24.23Z" transform="translate(6 17.14)"/><path class="cls-24" d="M386.1,644.92a19.39,19.39,0,0,0-2,8.49v4.73h.93v-7A19.44,19.44,0,0,1,386.1,644.92Z" transform="translate(6 17.14)"/><path class="cls-49" d="M403.64,633.9H851.11v-2.27H404.57a19.49,19.49,0,0,0-18.47,13.28A19.48,19.48,0,0,1,403.64,633.9Z" transform="translate(6 17.14)"/><path class="cls-49" d="M1175.39,631.7h-384V634h383.06a19.5,19.5,0,0,1,19.48,19.5v4.73H791.39v13.39h374.15a8.66,8.66,0,0,1,0,17.31H791.39v11.77h374.15a8.66,8.66,0,1,1,0,17.31H791.39v11.77h374.15a8.66,8.66,0,1,1,0,17.31H791.39v11.77h374.15a8.66,8.66,0,1,1,0,17.31H791.39v11.77h374.15a8.66,8.66,0,1,1,0,17.31H791.39V817h374.15a8.66,8.66,0,1,1,0,17.31H791.39v11.77h374.15a8.66,8.66,0,1,1,0,17.31H791.39V875.2h374.15a8.66,8.66,0,1,1,0,17.31H791.39v11.77h374.15a8.66,8.66,0,1,1,0,17.31H791.39v37.76h389.18a14.31,14.31,0,0,0,14.3-14.32V651.2A19.5,19.5,0,0,0,1175.39,631.7Z" transform="translate(6 17.14)"/><path class="cls-49" d="M415.37,945a3.9,3.9,0,0,1-3.9-3.9v-2.22a3.9,3.9,0,0,1,3.9-3.9H851.11V921.53H410.94a8.66,8.66,0,1,1,0-17.31H851.11V892.45H410.94a8.66,8.66,0,1,1,0-17.31H851.11V863.36H410.94a8.66,8.66,0,1,1,0-17.31H851.11V834.27H410.94a8.66,8.66,0,1,1,0-17.31H851.11V805.18H410.94a8.66,8.66,0,1,1,0-17.31H851.11V776.1H410.94a8.66,8.66,0,1,1,0-17.31H851.11V747H410.94a8.66,8.66,0,1,1,0-17.31H851.11V717.92H410.94a8.66,8.66,0,1,1,0-17.31H851.11V688.84H410.94a8.66,8.66,0,0,1-8.66-8.66h0a8.66,8.66,0,0,1,8.66-8.66H851.11V658.13h-466V996.67h35.19l8.4-23.54,4.94-13.84H851.11V945Z" transform="translate(6 17.14)"/><path class="cls-49" d="M1193.94,658.2v-4.73a19.5,19.5,0,0,0-19.48-19.5H791.39V658.2Zm-36.21-18.78h15.15a3.42,3.42,0,0,1,3.42,3.42v2a3.42,3.42,0,0,1-3.42,3.42h-15.15a3.42,3.42,0,0,1-3.42-3.42v-2A3.42,3.42,0,0,1,1157.73,639.41Z" transform="translate(6 17.14)"/><path class="cls-49" d="M851.11,633.9H403.64a16.92,16.92,0,0,0-18.57,17.23v7h466Z" transform="translate(6 17.14)"/><path class="cls-20" d="M411.47,938.87v2.22a3.9,3.9,0,0,0,3.9,3.9H851.11V935H415.37A3.9,3.9,0,0,0,411.47,938.87Z" transform="translate(6 17.14)"/><rect class="cls-27" x="1160.3" y="656.55" width="21.99" height="8.8" rx="3.42" ry="3.42"/><path class="cls-50" d="M1165.55,688.9a8.66,8.66,0,0,0,0-17.31H791.39V688.9Z" transform="translate(6 17.14)"/><path class="cls-50" d="M402.29,680.18h0a8.66,8.66,0,0,0,8.66,8.66H851.11V671.52H410.94A8.66,8.66,0,0,0,402.29,680.18Z" transform="translate(6 17.14)"/><path class="cls-50" d="M402.29,709.27a8.66,8.66,0,0,0,8.66,8.66H851.11V700.61H410.94A8.66,8.66,0,0,0,402.29,709.27Z" transform="translate(6 17.14)"/><path class="cls-50" d="M1165.55,718a8.66,8.66,0,1,0,0-17.31H791.39V718Z" transform="translate(6 17.14)"/><path class="cls-50" d="M1165.55,747.08a8.66,8.66,0,1,0,0-17.31H791.39v17.31Z" transform="translate(6 17.14)"/><path class="cls-50" d="M402.29,738.35a8.66,8.66,0,0,0,8.66,8.66H851.11V729.7H410.94A8.66,8.66,0,0,0,402.29,738.35Z" transform="translate(6 17.14)"/><path class="cls-50" d="M402.29,767.44a8.66,8.66,0,0,0,8.66,8.66H851.11V758.78H410.94A8.66,8.66,0,0,0,402.29,767.44Z" transform="translate(6 17.14)"/><path class="cls-50" d="M1165.55,776.16a8.66,8.66,0,1,0,0-17.31H791.39v17.31Z" transform="translate(6 17.14)"/><path class="cls-50" d="M402.29,796.53a8.66,8.66,0,0,0,8.66,8.66H851.11V787.87H410.94A8.66,8.66,0,0,0,402.29,796.53Z" transform="translate(6 17.14)"/><path class="cls-50" d="M1165.55,805.25a8.66,8.66,0,1,0,0-17.31H791.39v17.31Z" transform="translate(6 17.14)"/><path class="cls-50" d="M1165.55,834.34a8.66,8.66,0,1,0,0-17.31H791.39v17.31Z" transform="translate(6 17.14)"/><path class="cls-50" d="M402.29,825.61a8.66,8.66,0,0,0,8.66,8.66H851.11V817H410.94A8.66,8.66,0,0,0,402.29,825.61Z" transform="translate(6 17.14)"/><path class="cls-50" d="M1165.55,863.42a8.66,8.66,0,1,0,0-17.31H791.39v17.31Z" transform="translate(6 17.14)"/><path class="cls-50" d="M402.29,854.7a8.66,8.66,0,0,0,8.66,8.66H851.11V846H410.94A8.66,8.66,0,0,0,402.29,854.7Z" transform="translate(6 17.14)"/><path class="cls-50" d="M402.29,883.79a8.66,8.66,0,0,0,8.66,8.66H851.11V875.13H410.94A8.66,8.66,0,0,0,402.29,883.79Z" transform="translate(6 17.14)"/><path class="cls-50" d="M1165.55,892.51a8.66,8.66,0,1,0,0-17.31H791.39v17.31Z" transform="translate(6 17.14)"/><path class="cls-50" d="M402.29,912.88a8.66,8.66,0,0,0,8.66,8.66H851.11V904.22H410.94A8.66,8.66,0,0,0,402.29,912.88Z" transform="translate(6 17.14)"/><path class="cls-50" d="M1165.55,921.6a8.66,8.66,0,1,0,0-17.31H791.39V921.6Z" transform="translate(6 17.14)"/><path class="cls-44" d="M1607.66,1204.65H989a8.83,8.83,0,0,1-7.94-12.7l16.76-34.35a8.83,8.83,0,0,1,7.94-5H1590.9a8.83,8.83,0,0,1,7.94,5l16.76,34.35A8.83,8.83,0,0,1,1607.66,1204.65Z" transform="translate(6 17.14)"/><polygon points="1572.77 1176.82 1600.3 1176.82 1609.05 1141.96 1572.77 1141.96 1572.77 1176.82"/><path class="cls-51" d="M1586.54,1138.38c-2.82,4.32-6.2,16.13-1.5,16.13h15.18c3.58,0,3.38,5.45.75,10.51s-6,5.25-11.81,5.25H1148.94c-19.67,0-78.1-15.32-85.47-15.32H1019.2c-6.38,0-18.64-5-23.39-19.63s-4.13-25.63-3.25-28.14,6.76-3.25,6.76-10.25c0-2,.36-6.57.9-12.21.18-1.77.37-3.66.57-5.61.28-2.82,1.83-5.36,2.14-8.3.59-5.31,0-11,.5-15.34.57-4.72,1-8.36,1.26-9.81a45.19,45.19,0,0,1,1.27-7.43c1.38-4.29,4.75-8.21,14.36-8.21,15.39,0,34.89.51,42.64-1.62,6.38-1.75,50.3-22.93,74.22-33.75,5.19-2.35,9.43-4.21,12.15-5.28,15.25-6,44.06-6.41,57.45-6.41l75.4,0c12.5,0,41-1.76,72.27,15.75s72.22,47.56,84.75,50.92c5.33,1.43,18.93,2.39,35.13,3.78l8.14.72c20.15,1.86,42.75,4.55,58.31,9.61,17.15,5.58,33.28,10.85,45,18.39,1.28.81,2.66,1.77,4.1,2.85,7.14,5.48,12.12,12.1,13.9,20.67.31,1.54.61,3,.87,4.35,3.57,18.88,1.29,21.28-3.38,22C1596.29,1132.83,1589.35,1134.07,1586.54,1138.38Z" transform="translate(6 17.14)"/><path class="cls-9" d="M1000.22,1084.73h25a9.89,9.89,0,0,0,9.89-9.89v-26.71a9.89,9.89,0,0,0-9.89-9.89H1006a45.14,45.14,0,0,0-1.28,7.43c-.23,1.46-.69,5.09-1.26,9.81-.53,4.35.09,10-.5,15.34-.32,2.94-1.86,5.48-2.15,8.3C1000.59,1081.06,1000.4,1083,1000.22,1084.73Z" transform="translate(6 17.14)"/><path class="cls-10" d="M992.19,1118.07a79.19,79.19,0,0,0,3.62,17.26,31.2,31.2,0,0,0,4.49,8.85c5.76,7.86,14,10.77,18.91,10.77h44.27c7.37,0,65.8,15.32,85.47,15.32h440.23c5.81,0,9.18-.18,11.81-5.25s2.82-10.5-.75-10.5H1585c-3.2,0-2.66-5.48-1.08-10.34a25.15,25.15,0,0,1,2.58-5.79c2.81-4.31,9.75-5.55,14.75-6.33,3.9-.62,6.14-2.39,4.67-14Z" transform="translate(6 17.14)"/><g class="cls-11"><path class="cls-12" d="M1122.74,1046.64c-3.12,4-4.32,13.09-2.53,19,1.36,4.49,8.43,11.33,18.23,20.79,3.29,3.18,7,6.79,10.91,10.67,13.17,13.16,20.55,34.65,23.7,43.82.57,1.67,1,3,1.36,3.82,2.24,5.61,5,6.76,8.48,6.76h94.54a741,741,0,0,0-6-94.63l1.11-.16a742.12,742.12,0,0,1,6,94.79h139.75a5.37,5.37,0,0,0,5.27-3.93c.55-2.26,5.06-34.9,6.18-52,1.09-16.71-.68-22.11-9.94-30.43-9-8.12-43.46-29-43.81-29.2l.58-1c.35.21,34.85,21.13,44,29.32,9.6,8.62,11.43,14.18,10.31,31.34s-5.65,50-6.2,52.24a6.51,6.51,0,0,1-6.36,4.79H1182.88c-4.65,0-7.4-2.16-9.53-7.47-.34-.86-.8-2.19-1.38-3.88-3.13-9.1-10.45-30.42-23.43-43.39-3.88-3.88-7.61-7.48-10.89-10.66-9.91-9.59-17.08-16.51-18.52-21.28-1.91-6.31-.64-15.66,2.72-20Z" transform="translate(6 17.14)"/><path class="cls-12" d="M1051.27,1065.8a10.32,10.32,0,1,0,10.32-10.32A10.33,10.33,0,0,0,1051.27,1065.8Zm1.13,0a9.19,9.19,0,1,1,9.19,9.19A9.2,9.2,0,0,1,1052.39,1065.8Z" transform="translate(6 17.14)"/></g><path class="cls-13" d="M1132.61,1060h256.6c7,0,9.75-4.5,9.26-7.74s-29.77-26.52-49.78-38.27c-2.16-1.28-4.35-2.49-6.6-3.63h0a165.41,165.41,0,0,0-37-13.85c-2.54-.59-4.91-1-7-1.34a40.1,40.1,0,0,0-5.42-.44h-95.29c-22,0-74.66,28-82.65,39.53C1109.37,1042,1126.36,1060,1132.61,1060Z" transform="translate(6 17.14)"/><path class="cls-51" d="M1287.6,1060h-27l-7.75-65.28h14.52Z" transform="translate(6 17.14)"/><path class="cls-13" d="M1439.21,1049.68c-5.15,1.33-9.21,2.8-12.1,2.8-5.06,0-9.75-1.31-11.44-2.63s-61.52-43.14-67-46.71-2.63-7.13,0-7.13h.53c1.73.86,3.47,1.77,5.22,2.75,31.26,17.51,72.22,47.55,84.75,50.91Z" transform="translate(6 17.14)"/><path class="cls-13" d="M1148.4,989.75c.92,1,.8,2.64-1.4,4.39-3.63,2.88-53.27,27.14-59.15,30.14-5.6,2.86-12.69,3.1-22.1,3.12C1080,1021.75,1133,996,1148.4,989.75Z" transform="translate(6 17.14)"/><path class="cls-14" d="M1547.65,1097c8.63,6.57,23.66,10.44,37,11.91,8.57,1,15.73,1.91,20,1.13-.26-1.37-.56-2.81-.87-4.35-1.77-8.57-6.75-15.19-13.9-20.66-1.44-1.08-2.82-2-4.1-2.85a24.73,24.73,0,0,0-3.41-1.85c-8.13-3.45-32.1-7.05-42.39-8.63C1521.89,1069,1539,1090.44,1547.65,1097Z" transform="translate(6 17.14)"/><path class="cls-15" d="M1540.78,1076.3c7.84,1.2,26.07,3.94,32.26,6.57s21.2,16.38,20.26,20.2-8.44,2.69-18.57,1.56-21.57-4.07-28.14-9.07S1527,1074.2,1540.78,1076.3Z" transform="translate(6 17.14)"/><path class="cls-16" d="M1546.59,1095.56c-6.57-5-19.6-21.36-5.81-19.26,2.25.34,5.36.82,8.79,1.37,5,3.71,17.23,13.73,21,26.39C1561.58,1102.66,1552.27,1099.88,1546.59,1095.56Z" transform="translate(6 17.14)"/><path class="cls-15" d="M1030.2,1051.36v20.26a7.5,7.5,0,0,1-7.5,7.5h-20.88c.82-8,.81-16.9,1.62-23.64.57-4.72,1-8.36,1.26-9.81.09-.56.16-1.17.24-1.81h17.77A7.5,7.5,0,0,1,1030.2,1051.36Z" transform="translate(6 17.14)"/><path class="cls-16" d="M1030.2,1071.61a7.5,7.5,0,0,1-7.5,7.5h-21.91c.82-8,1.84-16.89,2.65-23.63h26.77Z" transform="translate(6 17.14)"/><path class="cls-10" d="M1000.29,1144.18c5.76,7.86,14,10.77,18.91,10.77h44.27c7.37,0,65.8,15.32,85.47,15.32h440.23c5.81,0,9.18-.18,11.81-5.25s2.82-10.5-.75-10.5H1585c-3.2,0-2.66-5.48-1.08-10.34Z" transform="translate(6 17.14)"/><path d="M1057.47,1147.71a52.15,52.15,0,1,1,104.29,0v22.57h-12.82c-19.68,0-78.1-15.32-85.48-15.32h-6Z" transform="translate(6 17.14)"/><path class="cls-14" d="M1433.95,1150.56v19.72h124.37v-19.72a62.19,62.19,0,0,0-124.37,0Z" transform="translate(6 17.14)"/><path class="cls-14" d="M1047.42,1150.56v4.4h16c7.37,0,65.8,15.32,85.47,15.32h22.85v-19.72a62.18,62.18,0,1,0-124.37,0Z" transform="translate(6 17.14)"/><path d="M1444,1147.71a52.15,52.15,0,0,1,104.29,0v22.57H1444Z" transform="translate(6 17.14)"/><path class="cls-17" d="M1496.33,1175.78a27.19,27.19,0,1,1,27.19-27.19A27.19,27.19,0,0,1,1496.33,1175.78Z" transform="translate(6 17.14)"/><path class="cls-18" d="M1468.33,1154.3a28.36,28.36,0,0,0,3.69,9.28l3.67-1.94,14.42-7.61a8.82,8.82,0,0,0,4,2.78l-2.11,15.82-.54,4.11a28.35,28.35,0,0,0,4.84.41,28.71,28.71,0,0,0,5-.45l-.37-4.14-1.42-15.67a8.87,8.87,0,0,0,4.18-2.77l13.47,7.11,3.66,1.93a28.42,28.42,0,0,0,3.48-9.13l-4-1.09-14.52-3.91c0-.21,0-.43,0-.65a8.85,8.85,0,0,0-1.92-5.51l9.15-12,2.52-3.32a28.84,28.84,0,0,0-8.28-5.3l-1.72,3.77-6.3,13.8a8.55,8.55,0,0,0-2.34-.32,8.81,8.81,0,0,0-3,.53l-7.42-13.79-2-3.66a28.54,28.54,0,0,0-8.22,5.63l2.72,3.13,10.52,12.1a8.86,8.86,0,0,0-1.52,5c0,.2,0,.4,0,.6l-15.76,4.24Z" transform="translate(6 17.14)"/><path class="cls-19" d="M1472.34,1153.21a24.2,24.2,0,0,0,3.35,8.43l14.42-7.61a8.82,8.82,0,0,0,4,2.78l-2.11,15.82a24.18,24.18,0,0,0,4.29.38,23.75,23.75,0,0,0,4.67-.45l-1.42-15.67a8.87,8.87,0,0,0,4.18-2.77l13.47,7.11a24.13,24.13,0,0,0,3.13-8.29l-14.52-3.91c0-.21,0-.43,0-.65a8.85,8.85,0,0,0-1.92-5.51l9.15-12a24.44,24.44,0,0,0-7.48-4.85l-6.3,13.8a8.55,8.55,0,0,0-2.34-.32,8.81,8.81,0,0,0-3,.53l-7.42-13.79a24.52,24.52,0,0,0-7.47,5.1l10.52,12.1a8.86,8.86,0,0,0-1.52,5c0,.2,0,.4,0,.6Z" transform="translate(6 17.14)"/><circle class="cls-10" cx="1502.69" cy="1165.53" r="5.86"/><circle class="cls-20" cx="1502.69" cy="1161.13" r="1.72"/><circle class="cls-20" cx="1502.69" cy="1169.93" r="1.72"/><circle class="cls-20" cx="1507.09" cy="1165.53" r="1.72"/><circle class="cls-20" cx="1498.29" cy="1165.53" r="1.72"/><path class="cls-20" d="M1450.58,1148.58a45.75,45.75,0,1,0,45.76-45.76A45.75,45.75,0,0,0,1450.58,1148.58Zm16.47,0a29.28,29.28,0,1,1,29.29,29.28A29.28,29.28,0,0,1,1467,1148.58Z" transform="translate(6 17.14)"/><g class="cls-21"><path class="cls-22" d="M1460.93,1148.58a35.4,35.4,0,1,0,35.4-35.4A35.4,35.4,0,0,0,1460.93,1148.58Zm6.11,0a29.28,29.28,0,1,1,29.29,29.28A29.28,29.28,0,0,1,1467,1148.58Z" transform="translate(6 17.14)"/></g><path class="cls-23" d="M1464.32,1148.58a32,32,0,1,0,32-32A32,32,0,0,0,1464.32,1148.58Zm4.82,0a27.19,27.19,0,1,1,27.2,27.2A27.19,27.19,0,0,1,1469.14,1148.58Z" transform="translate(6 17.14)"/><path class="cls-10" d="M1466.62,1148.58a29.71,29.71,0,1,0,29.71-29.71A29.71,29.71,0,0,0,1466.62,1148.58Zm2.51,0a27.19,27.19,0,1,1,27.2,27.2A27.19,27.19,0,0,1,1469.14,1148.58Z" transform="translate(6 17.14)"/><path class="cls-17" d="M1109.61,1175.78a27.19,27.19,0,1,1,27.19-27.19A27.19,27.19,0,0,1,1109.61,1175.78Z" transform="translate(6 17.14)"/><path class="cls-18" d="M1081.62,1154.3a28.36,28.36,0,0,0,3.69,9.28l3.67-1.94,14.42-7.61a8.82,8.82,0,0,0,4,2.78l-2.11,15.82-.54,4.11a28.35,28.35,0,0,0,4.84.41,28.71,28.71,0,0,0,5-.45l-.37-4.14-1.42-15.67a8.87,8.87,0,0,0,4.18-2.77l13.47,7.11,3.66,1.93a28.42,28.42,0,0,0,3.48-9.13l-4-1.09-14.52-3.91c0-.21,0-.43,0-.65a8.85,8.85,0,0,0-1.92-5.51l9.15-12,2.52-3.32a28.84,28.84,0,0,0-8.28-5.3l-1.72,3.77-6.3,13.8a8.55,8.55,0,0,0-2.34-.32,8.81,8.81,0,0,0-3,.53l-7.42-13.79-2-3.66a28.54,28.54,0,0,0-8.22,5.63l2.72,3.13,10.52,12.1a8.86,8.86,0,0,0-1.52,5c0,.2,0,.4,0,.6l-15.76,4.24Z" transform="translate(6 17.14)"/><path class="cls-19" d="M1085.63,1153.21a24.2,24.2,0,0,0,3.35,8.43l14.42-7.61a8.82,8.82,0,0,0,4,2.78l-2.11,15.82a24.18,24.18,0,0,0,4.29.38,23.75,23.75,0,0,0,4.67-.45l-1.42-15.67a8.87,8.87,0,0,0,4.18-2.77l13.47,7.11a24.13,24.13,0,0,0,3.13-8.29l-14.52-3.91c0-.21,0-.43,0-.65a8.85,8.85,0,0,0-1.92-5.51l9.15-12a24.44,24.44,0,0,0-7.48-4.85l-6.3,13.8a8.55,8.55,0,0,0-2.34-.32,8.81,8.81,0,0,0-3,.53l-7.42-13.79a24.52,24.52,0,0,0-7.47,5.1l10.52,12.1a8.86,8.86,0,0,0-1.52,5c0,.2,0,.4,0,.6Z" transform="translate(6 17.14)"/><circle class="cls-10" cx="1115.97" cy="1165.53" r="5.86"/><circle class="cls-20" cx="1115.97" cy="1161.13" r="1.72"/><circle class="cls-20" cx="1115.97" cy="1169.93" r="1.72"/><circle class="cls-20" cx="1120.37" cy="1165.53" r="1.72"/><circle class="cls-20" cx="1111.57" cy="1165.53" r="1.72"/><path class="cls-20" d="M1063.86,1148.58a45.75,45.75,0,1,0,45.76-45.76A45.75,45.75,0,0,0,1063.86,1148.58Zm16.47,0a29.28,29.28,0,1,1,29.29,29.28A29.28,29.28,0,0,1,1080.33,1148.58Z" transform="translate(6 17.14)"/><g class="cls-21"><path class="cls-22" d="M1074.22,1148.58a35.4,35.4,0,1,0,35.4-35.4A35.4,35.4,0,0,0,1074.22,1148.58Zm6.11,0a29.28,29.28,0,1,1,29.29,29.28A29.28,29.28,0,0,1,1080.33,1148.58Z" transform="translate(6 17.14)"/></g><path class="cls-23" d="M1077.6,1148.58a32,32,0,1,0,32-32A32,32,0,0,0,1077.6,1148.58Zm4.82,0a27.19,27.19,0,1,1,27.2,27.2A27.19,27.19,0,0,1,1082.42,1148.58Z" transform="translate(6 17.14)"/><path class="cls-10" d="M1079.91,1148.58a29.71,29.71,0,1,0,29.71-29.71A29.71,29.71,0,0,0,1079.91,1148.58Zm2.51,0a27.19,27.19,0,1,1,27.2,27.2A27.19,27.19,0,0,1,1082.42,1148.58Z" transform="translate(6 17.14)"/><path class="cls-41" d="M1320.21,1170.27H1148.94c-19.67,0-78.1-15.32-85.47-15.32H1019.2c-6.38,0-18.64-5-23.39-19.63s-4.13-25.63-3.25-28.14,6.76-3.25,6.76-10.25c0-2,.36-6.57.9-12.21.18-1.77.37-3.66.57-5.61.28-2.82,1.83-5.36,2.14-8.3.59-5.31,0-11,.5-15.34.57-4.72,1-8.36,1.26-9.81a45.19,45.19,0,0,1,1.27-7.43c1.38-4.29,4.75-8.21,14.36-8.21,15.39,0,34.89.51,42.64-1.62,6.38-1.75,50.3-22.93,74.22-33.75Z" transform="translate(6 17.14)"/><polygon class="cls-52" points="307 958.01 158.33 958.01 161.39 948.03 310.09 948.03 307 958.01"/><rect class="cls-27" x="404.29" y="640.41" width="21.99" height="8.8" rx="3.42" ry="3.42" transform="translate(836.57 1306.76) rotate(180)"/><path class="cls-20" d="M1165.32,938.87v2.22a3.9,3.9,0,0,1-3.9,3.9H725.68V935h435.74A3.9,3.9,0,0,1,1165.32,938.87Z" transform="translate(6 17.14)"/><path class="cls-53" d="M789.93,959.29H433.6l-4.94,13.84-8.4,23.54H385.07V651.13a19.5,19.5,0,0,1,19.5-19.5h116Z" transform="translate(6 17.14)"/><path class="cls-54" d="M1522.11,627.43h-3.64a1,1,0,0,1-1-.71l-.7-4.75a1.05,1.05,0,0,1,1.09-1.21h4.94a1.05,1.05,0,0,1,1.09,1.21l-.7,4.75A1,1,0,0,1,1522.11,627.43Z" transform="translate(6 17.14)"/><path class="cls-54" d="M1546.92,627.43h-3.64a1,1,0,0,1-1-.71l-.7-4.75a1.05,1.05,0,0,1,1.09-1.21h4.94a1.05,1.05,0,0,1,1.09,1.21l-.7,4.75A1,1,0,0,1,1546.92,627.43Z" transform="translate(6 17.14)"/><path class="cls-55" d="M1546.64,609.78c10.7-10.7-11.49-30.67-19.39-22.76" transform="translate(6 17.14)"/><path class="cls-54" d="M1550.69,609.22l-1-.33a.94.94,0,0,0-.63,0l-2.47.88-4.06-5a1.88,1.88,0,0,0-1.46-.7h-16.83a1.88,1.88,0,0,0-1.47.7l-4.06,5-2.47-.88a.94.94,0,0,0-.63,0l-1,.33a.94.94,0,0,0-.63.89.64.64,0,0,0,.27.52l1.14.79a.94.94,0,0,0,.54.17h.78a19.21,19.21,0,0,0-1.36,9.73A1.88,1.88,0,0,0,1517,623a109.73,109.73,0,0,0,31.33,0,1.88,1.88,0,0,0,1.59-1.64,19.21,19.21,0,0,0-1.36-9.73h.78a.94.94,0,0,0,.54-.17l1.14-.79a.64.64,0,0,0,.28-.53A.94.94,0,0,0,1550.69,609.22Zm-28.35,1,2.19-2.72a1.56,1.56,0,0,1,1.21-.58h13.89a1.55,1.55,0,0,1,1.21.58l2.2,2.72Z" transform="translate(6 17.14)"/><path class="cls-54" d="M1536.39,618.11v.48c0,.32-.52.59-1.17.59h-2.65c-.52,0-.73-.34-.29-.49l2.8-.94C1535.63,617.57,1536.39,617.77,1536.39,618.11Z" transform="translate(6 17.14)"/><path class="cls-56" d="M1520.77,596.94l-3.67-4a2,2,0,0,1,.12-2.77l1.59-1.46c.79-.73,6-4.32,6.74-3.53l3.67,4c.73.79-3.3,5.69-4.1,6.41l-1.59,1.46A2,2,0,0,1,1520.77,596.94Z" transform="translate(6 17.14)"/><rect class="cls-56" x="1518.14" y="596.67" width="4.86" height="1.4" rx="0.66" ry="0.66" transform="translate(2.11 1201.88) rotate(-42.52)"/><rect class="cls-56" x="1514.24" y="592.41" width="4.86" height="1.4" rx="0.66" ry="0.66" transform="translate(3.96 1198.13) rotate(-42.52)"/><rect class="cls-56" x="1518.55" y="588.33" width="3.12" height="11.07" rx="1.47" ry="1.47" transform="matrix(0.74, -0.68, 0.68, 0.74, 4.36, 1200.65)"/><rect class="cls-15" x="1302.94" y="632.62" width="196.29" height="5.9"/><rect class="cls-15" x="1302.94" y="614.26" width="196.29" height="5.9"/><path class="cls-41" d="M1382.75,644.07H1271a7.3,7.3,0,0,1-7.3-7.31V578a7.3,7.3,0,0,1,7.3-7.3h60.54Z" transform="translate(6 17.14)"/></g></g></svg>