<?xml version="1.0" encoding="utf-8"?>
<!-- Generator: Adobe Illustrator 21.0.0, SVG Export Plug-In . SVG Version: 6.00 Build 0)  -->
<svg version="1.1" id="Layer_1" xmlns="http://www.w3.org/2000/svg" xmlns:xlink="http://www.w3.org/1999/xlink" x="0px" y="0px"
	 viewBox="0 0 1400 980" style="enable-background:new 0 0 1400 980;" xml:space="preserve">
<style type="text/css">
	.st0{fill:#A5CCEC;}
	.st1{fill:#EEEEEE;}
	.st2{fill:#8EA7BA;}
	.st3{fill:#7E96A6;}
	.st4{fill:#788F9E;}
	.st5{fill:#888889;}
	.st6{fill:#8BB33D;}
	.st7{fill:#6F5A44;}
	.st8{fill:#81684F;}
	.st9{fill:#3E3938;}
	.st10{fill:#FFFFFF;}
	.st11{fill:#747576;}
	.st12{fill:#976928;}
	.st13{fill:#343636;}
	.st14{fill:#7E8180;}
	.st15{fill:#656765;}
	.st16{fill:#4D5051;}
	.st17{fill:#F7C514;}
	.st18{fill:#EE9022;}
	.st19{fill:#F19D1F;}
	.st20{fill:#303234;}
	.st21{fill:#9A9B9A;}
	.st22{fill:#C6C6C5;}
	.st23{fill:#DBDBDA;}
	.st24{fill:#5B5C5C;}
	.st25{fill:#F7F9F8;}
	.st26{fill:#868686;}
	.st27{fill:#444243;}
	.st28{fill:#B0B0B0;}
	.st29{fill:#C8CACA;}
	.st30{fill:#D6D4D1;}
	.st31{fill:#090506;}
	.st32{fill:#514F4E;}
	.st33{fill:#353332;}
	.st34{fill:#433F48;}
	.st35{fill:#252323;}
	.st36{fill:#EE8322;}
	.st37{fill:#231C1D;}
	.st38{fill:#626361;}
	.st39{fill:#4C4C4D;}
	.st40{fill:#595757;}
	.st41{fill:#E68A25;}
	.st42{fill:#F3B21B;}
	.st43{fill:#E41E26;}
	.st44{fill:url(#XMLID_25_);}
	.st45{fill:#455063;}
	.st46{fill:#556077;}
	.st47{fill:#454956;}
	.st48{fill:#565454;}
	.st49{opacity:0.79;fill:#BBBBBB;}
	.st50{opacity:0.46;fill:#BBBBBB;}
	.st51{fill:#BCBCBC;}
	.st52{fill:#1C1C1C;}
	.st53{opacity:0.77;fill:#BBBBBB;}
	.st54{fill:#FFA31F;}
	.st55{fill:#231F20;}
	.st56{fill:#9D9D9D;}
	.st57{fill:#E5E6E7;}
	.st58{fill:#333333;}
	.st59{opacity:0.67;}
	.st60{fill:#BBBBBB;}
	.st61{fill:#D0D2D3;}
	.st62{fill:#3D3D3D;}
	.st63{fill:#BEBEBE;}
	.st64{fill:#545454;}
	.st65{fill:#FBBF2E;}
	.st66{fill:#DC4747;}
	.st67{fill:#9A4E4E;}
	.st68{fill:#BBBDBF;}
	.st69{fill:#010101;}
	.st70{fill:#818181;}
	.st71{fill:#28211F;}
	.st72{fill:#DFDBDB;}
	.st73{opacity:0.51;fill:#A4A4A4;}
	.st74{fill:#383838;}
	.st75{fill:#7C7C7C;}
	.st76{fill:#686868;}
	.st77{opacity:0.32;fill:#A4A4A4;}
	.st78{opacity:0.38;fill:#A4A4A4;}
	.st79{fill:#565656;}
	.st80{fill:#3F3F3F;}
	.st81{opacity:0.75;fill:#A4A4A4;}
	.st82{fill:#7C7B7A;}
	.st83{fill:#A4A4A4;}
	.st84{fill:#00A451;}
	.st85{fill:#161616;}
	.st86{fill:#C0C5D0;}
</style>
<g id="XMLID_422_">
	<rect id="XMLID_455_" x="1" y="0" class="st0" width="1399" height="980"/>
	<path id="XMLID_424_" class="st1" d="M873.6,246c-0.2,0-0.5-0.5-0.9-0.7c-1.6-1.5-3.4-2.3-5.5-2.6c-1.6-1.5-3.7-2.3-6-2.3
		c-2.6,0-4.9,1.1-6.6,2.9c-0.2-1.5-1.3-2.6-2.8-2.6c-0.6,0-1.1,0.2-1.6,0.5c-0.9-4.2-4.3-7.2-8.4-7.2c-1.1,0-2.1,0.2-2.9,0.6
		c0.6-1.2,1-2.6,1-4c0-4.8-3.7-8.6-8.1-8.6c-2.3,0-4.3,1-5.7,2.6c-0.6-0.6-1.2-1-2-1.3c0.1-1,0.1-2-0.5-2.8c-0.2-0.4-0.5-0.7-0.7-1
		c-0.6-0.9-1.3-1.6-2.4-1.8c-0.1,0-0.2,0-0.4,0c0.1-1.2-0.1-2.4-1.1-3.4c-0.2-0.2-0.5-0.5-0.7-0.7c-0.4-0.4-0.7-0.6-1.1-0.7
		c-0.5-0.5-1-1.1-1.5-1.5c0-0.4,0-0.6-0.1-1c-0.6-2.1-2.8-3.5-5-2.8c-0.6,0.2-1.2,0.4-1.7,0.6l0,0c-0.9-0.4-1.5-0.4-2.1-0.4
		c-0.1,0-0.4,0-0.5,0c-0.6-0.5-1.5-0.9-2.6-0.9c-2.1,0-3.3,1.2-3.8,2.8c-1.5,0.9-2.7,2-3.7,3.3c-0.2,0-0.4-0.1-0.6-0.1
		c-3.3,0-4.5,3.2-3.7,5.6c-1.2,0-2.3,0.6-2.9,1.6c-1.8-2.3-4.6-3.8-7.8-3.8c-4.4,0-8.2,2.9-9.7,7.2c-1.3-0.8-2.8-1.5-4.5-1.5
		c-2.3,0-4.3,1-5.7,2.6c-0.6-0.6-1.2-1-2-1.3c0.1-1,0.1-2-0.5-2.8c-0.2-0.4-0.5-0.7-0.7-1c-0.6-0.9-1.3-1.6-2.4-1.8
		c-0.1,0-0.2,0-0.4,0c0.1-1.2-0.1-2.4-1.1-3.4c-0.2-0.2-0.5-0.5-0.7-0.7c-0.4-0.4-0.7-0.6-1.1-0.7c-0.5-0.5-1-1.1-1.5-1.5
		c0-0.4,0-0.6-0.1-1c-0.6-2.1-2.8-3.5-5-2.8c-0.6,0.2-1.2,0.4-1.7,0.6l0,0c-0.5-0.1-1.1-0.1-1.7-0.1c-0.1,0-0.4,0-0.5,0
		c-0.6-0.5-1.5-0.9-2.6-0.9c-2.1,0-3.3,1.2-3.8,2.8c-1.5,0.8-2.7,2-3.7,3.3c-0.2,0-0.4-0.1-0.6-0.1c-3.3,0-4.5,3.2-3.7,5.6
		c-1.2,0-2.3,0.6-2.9,1.6c-1.8-2.3-4.6-3.8-7.8-3.8c-5.4,0-9.8,4.4-10.1,10c-0.4-0.1-0.9-0.2-1.3-0.2c-2.3,0-3.5,1.6-3.9,3.3
		c-0.4,0-0.7,0-1.1,0c-4.9,0-9.2,2.9-11.4,7.2c-0.7-0.7-1.7-1.1-2.8-1.1c-1.7,0-3.2,1.1-3.8,2.7c-0.5-0.4-1.2-0.5-2-0.5
		c-0.6-1.2-1.7-2.1-3.4-2.1c-3.1,0-4.3,2.7-3.9,4.9c-0.6-0.4-1.3-0.6-2.2-0.6c-1.3,0-2.3,0.5-2.9,1.2c-1.1,0-2.2,0.2-3.1,0.9
		c-0.1,0-0.1,0.1-0.2,0.1c-0.4-0.1-0.9-0.2-1.3-0.2c-0.7,0-1.5,0.2-2,0.5c-0.2,0-0.6,0.1-0.8,0.1c-0.5,0.1-1,0.2-1.6,0.4
		c-1.5,0.4-2.9,1.6-3.7,2.8c-0.1,0.1-0.1,0.5-0.2,0.5h58.5h5.9l0.1,0.1v-0.1H809h64.6V246z"/>
	<path id="XMLID_425_" class="st1" d="M5.7,234.5c5.4,0,10,1.8,12.9,4.6c3.4-3.1,8.4-5,14.2-5c4,0,7.7,1,10.8,2.6
		c3.2-3.4,9.4-5.7,16.5-5.7c10.4,0,18.9,5,18.9,11.1c0,1.2-0.4,2.4-1,3.5c1.5-0.2,3.1-0.4,4.6-0.4c0.7,0,1.3,0,2.1,0.1
		c2-0.7,3.9-1,6.1-1c1.6,0.1,3.1,0.4,4.6,0.5c1,0.2,1.8,0.5,2.7,0.7c0.2-0.1,0.6-0.2,0.9-0.4c0-0.2,0-0.4,0-0.6
		c-0.1-1.8,0.4-3.5,1.5-5c0.7-1.6,1.8-3.1,3.4-4.3c1.1-0.7,2.2-1.3,3.4-2.1c2.3-1.1,4.8-1.6,7.4-1.7c2.7-3.2,7.1-5.4,12.3-5.4
		c6.8,0,13.6,4.2,14.8,9.5c1.8,0.6,3.3,1.5,4.6,2.6l2.7,2.8c1.6,2.1,2.3,4.4,2.3,6.8c-0.2,1.2-0.4,2.4-0.6,3.7
		c-0.2,0.6-0.5,1.3-0.9,2c5,2,8.9,5.6,9.9,9.9c0.2,0,0.6,0,0.8,0c8.3,0,15,4.8,15,10.6c0,1.5-0.4,2.8-1.1,4.2
		c1.5-0.2,3.1-0.4,4.6-0.4c9.3,0,17.1,3.8,19.5,8.8c4.5,1.5,7.6,4.8,7.6,8.6c0,0.1,0,0.4,0,0.5c4.5,1.2,8.1,3.3,9.5,6
		c3.3-2.4,8.4-4,14.2-4c8.2,0,15.1,3.3,17.5,7.7c1.2-0.2,2.6-0.4,4-0.4c1.6,0.1,3.1,0.4,4.6,0.5c2.9,0.6,5.5,1.8,7.7,3.5
		c0.1,0.2,0.4,0.4,0.5,0.6c0.5,0,0.8,0,1.3,0c2.6,0,4.9,0.6,6.7,1.5c0.2-0.2,0.6-0.5,1-0.7c0.1-0.9,0.2-1.7,0.5-2.4
		c0.9-2.3,2.3-4.3,4.5-6c1.2-0.7,2.3-1.2,3.6-1.8c2.7-1.2,5.6-1.6,8.8-1.6h0.7c2.4-1.2,4.6,0.1,6.7,1c1.3,0.4,2.7,0.7,3.8,1.3
		c1.6-0.4,3.3-0.6,5-0.6h0.1c0.9-1.8,2.2-3.4,4-4.9c1.2-0.7,2.3-0.9,3.6-1.6c2.7-1.2,5.6-1.3,8.8-1.3h0.7c2.4-1.2,4.6-0.2,6.7,0.6
		c2.2,0.6,4,1.2,5.6,2.6c0.1,0.1,0.2,0,0.4,0.1c0.1-0.9,0.2-1.8,0.5-2.7c0.9-2.3,2.3-4.4,4.5-6.1c1.2-0.7,2.3-1,3.6-1.7
		c2.7-1.2,5.6-1.5,8.8-1.5h0.7c2.4-1.2,4.6-0.1,6.7,0.7c2.2,0.6,4,1.2,5.6,2.6c1.7,1.2,2.9,2.6,3.7,4.3c0.1,0.2,0.2,0.4,0.4,0.6
		c2.4-0.9,5.4-1.5,8.7-1.5c3.1,0,6,0.7,8.3,1.6c0.5,0,1,0.2,1.5,0.2h0.7c2.4,0,4.6,0,6.7,0.8c2.2,0.6,4,1.3,5.6,2.7
		c1.7,1.2,2.9,2.7,3.7,4.3c0.7,1.1,1.2,2.2,1.3,3.4c7.2,1.5,12.6,4.8,13.4,8.7c2-1.3,4.8-2.1,7.8-2.1c0.4,0,0.7,0,1.1,0
		c3.1-2.2,7-3.4,11.5-3.4c9.2,0,17.8,6.2,17.5,13.7c0,0.7-0.1,1.3-0.2,2.1c0.7,0.9,1.2,1.7,1.5,2.8c0.7-0.1,1.3-0.1,2.1-0.1
		c9.2,0,17.8,6.2,17.5,13.7c-0.1,2.2-0.9,4.3-2.1,6.2c5.1,2.4,8.8,6.8,8.5,11.6c-0.4,7.5-7.4,13.7-17.2,13.7c-0.7,0-0.6,0-1.8-0.1
		v7.4c2.4-2,7.6-3.2,12.6-3.2c8.2,0,15,3.3,17.3,7.7c1.2-0.2,2.6-0.4,3.9-0.4c1.6,0.1,3.1,0.4,4.6,0.5c2.9,0.6,5.5,1.8,7.7,3.5
		c0.1,0.2,0.4,0.4,0.5,0.6c0.5,0,0.8,0,1.3,0c2.6,0,4.9,0.6,6.7,1.5c0.2-0.2,0.6-0.5,1-0.7c0.1-0.9,0.2-1.7,0.5-2.4
		c0.9-2.3,2.3-4.3,4.5-6c1.2-0.7,2.3-1.7,3.6-2.4c2.7-1.2,5.6-2.1,8.8-2.1h0.7c2.4,0,4.6,0.6,6.7,1.5c1.3,0.4,2.7,1,3.8,1.7
		c1.6-0.4,3.3-0.5,5-0.5c0,0,0.1,0,0.2,0c0.7-1.7,2.3-3.1,3.6-4.4V575l-311.5-0.1v-76.7L0,498.1V235.4
		C1.5,234.7,3.4,234.5,5.7,234.5L5.7,234.5z"/>
	<path id="XMLID_453_" class="st1" d="M1400,234.7v263.4l-240,0.1v76.7L848.5,575V372.4c1.2,1.3,2.8,2.7,3.5,4.4c0.1,0,0.2,0,0.2,0
		c1.7,0,3.4,0.1,5,0.5c1.1-0.7,2.4-1.3,3.8-1.7c2.1-0.8,4.3-1.5,6.7-1.5h0.7c3.2,0,6.1,0.9,8.8,2.1c1.2,0.7,2.3,1.7,3.5,2.4
		c2.2,1.7,3.7,3.7,4.5,6c0.2,0.7,0.4,1.6,0.5,2.4c0.4,0.2,0.7,0.5,1,0.7c1.8-0.9,4.1-1.5,6.7-1.5h1.3c0.1-0.2,0.4-0.4,0.5-0.6
		c2.2-1.7,4.8-2.9,7.7-3.5c1.6-0.1,3-0.4,4.6-0.5c1.3,0,2.7,0.1,3.9,0.4c2.3-4.4,9.2-7.7,17.3-7.7c5,0,10.1,1.2,12.6,3.2v-7.4
		c-1.2,0.1-1.1,0.1-1.8,0.1c-9.8,0-16.9-6.2-17.2-13.7c-0.2-4.8,3.4-9.2,8.5-11.6c-1.2-2-2-4-2.1-6.2c-0.4-7.5,8.3-13.7,17.5-13.7
		c0.7,0,1.3,0,2.1,0.1c0.3-1.1,0.7-2,1.5-2.8c-0.1-0.7-0.2-1.3-0.2-2.1c-0.4-7.5,8.3-13.7,17.5-13.7c4.5,0,8.4,1.2,11.5,3.4h1.1
		c3.1,0,5.9,0.7,7.8,2.1c0.9-3.9,6.2-7.2,13.4-8.7c0.1-1.2,0.6-2.3,1.3-3.4c0.7-1.6,2-3.1,3.7-4.3c1.6-1.4,3.4-2.1,5.6-2.7
		c2.1-0.8,4.3-0.8,6.7-0.8h0.7c0.5,0,1-0.3,1.5-0.3c2.3-0.9,5.2-1.6,8.3-1.6c3.3,0,6.2,0.6,8.7,1.5c0.1-0.3,0.3-0.4,0.4-0.6
		c0.7-1.7,2-3.1,3.7-4.3c1.6-1.3,3.4-1.9,5.6-2.6c2.1-0.9,4.3-1.9,6.7-0.7h0.7c3.2,0,6.1,0.3,8.8,1.5c1.2,0.7,2.3,1,3.6,1.7
		c2.2,1.7,3.7,3.8,4.5,6.1c0.2,0.9,0.4,1.8,0.5,2.7c0.1-0.1,0.2,0,0.4-0.1c1.6-1.3,3.4-2,5.6-2.6c2.1-0.9,4.3-1.8,6.7-0.6h0.7
		c3.2,0,6.1,0.1,8.8,1.3c1.2,0.7,2.3,0.8,3.6,1.6c1.8,1.5,3.2,3.1,4,4.9h0.1c1.7,0,3.4,0.2,5,0.6c1.1-0.6,2.4-1,3.8-1.4
		c2.1-0.8,4.3-2.2,6.7-1h0.7c3.2,0,6.1,0.4,8.8,1.6c1.2,0.6,2.3,1.1,3.6,1.8c2.2,1.7,3.7,3.7,4.5,6c0.2,0.7,0.4,1.6,0.5,2.4
		c0.4,0.2,0.7,0.5,1,0.7c1.8-0.9,4.1-1.5,6.7-1.5h1.3c0.1-0.2,0.4-0.4,0.5-0.6c2.2-1.7,4.8-2.9,7.7-3.5c1.6-0.1,3.1-0.4,4.7-0.5
		c1.5,0,2.8,0.1,4,0.4c2.3-4.4,9.3-7.7,17.5-7.7c5.7,0,10.9,1.6,14.2,4c1.5-2.7,5-4.8,9.5-6v-0.5c0-3.8,3.1-7.1,7.6-8.6
		c2.4-5,10.3-8.8,19.5-8.8c1.6,0,3.2,0.1,4.6,0.4c-0.7-1.3-1.1-2.7-1.1-4.2c0-5.9,6.7-10.6,15-10.6h0.8c1-4.3,4.9-7.9,9.9-9.9
		c-0.4-0.6-0.6-1.3-0.9-2c-0.3-1.2-0.4-2.5-0.6-3.7c0-2.4,0.7-4.8,2.3-6.8l2.7-2.8c1.3-1.1,2.8-2,4.6-2.6c1.2-5.4,8-9.5,14.8-9.5
		c5.3,0,9.7,2.2,12.3,5.4c2.7,0.1,5.1,0.6,7.4,1.7c1.2,0.7,2.3,1.3,3.4,2.1c1.6,1.2,2.7,2.7,3.4,4.3c1.1,1.5,1.6,3.2,1.5,5v0.6
		c0.3,0.1,0.6,0.3,0.9,0.4c0.9-0.2,1.7-0.5,2.7-0.7c1.6-0.1,3.1-0.4,4.7-0.5c2.2,0,4.1,0.2,6.1,1c0.7-0.1,1.3-0.1,2.1-0.1
		c1.6,0,3.2,0.1,4.6,0.4c-0.6-1.1-1-2.3-1-3.5c0-6.1,8.6-11.1,18.9-11.1c7.1,0,13.3,2.3,16.5,5.7c3.1-1.6,6.7-2.6,10.8-2.6
		c5.7,0,10.8,2,14.2,5C1392.8,236.9,1396.1,235.3,1400,234.7z"/>
	<path id="XMLID_427_" class="st2" d="M1400,472.9c-52.7-37.6-108.1-76.4-123.1-87.3c-30.5-22-52.5-26.8-71.9-14.6
		c-19.4,12.2-80.4,17-80.4,17s-79.1-49.9-97-72.9c-19.4-25.1-30.3-36.2-36.4-41.2c-3.3-2.8-8.3-3.5-12.4-1.8
		c-11.8,5-24.2,12.7-39.9,18.7c-15.7,5.9-88.7-97.3-108.1-102.3c-19.4-4.8-36,39-77.6,63.3c-41.6,24.4-22.2,22-66.5,56
		c-44.3,34.2-47.1,53.6-85.9,36.6c-38.8-17-61-4.8-80.4,7.4c-19.4,12.2-24.9,12.2-36,17s-44.3-14.6-66.5-29.2
		s-125.1,46.2-194.4,70.6C186.7,422.8,87,452.3,1,476.9v197.6c327.3,6.2,1202.6,13.4,1399,14.9V472.9z"/>
	<path id="XMLID_428_" class="st3" d="M1201.9,382.4c-29.7-19.4-90.9,9.4-125.1,22.2c-53.6,19.8-213.2-112.8-243.2-123.9
		c0,0-9.4,7.8-21.8,15.7c-7.9-0.9-19-11.8-22.3-9.8c-10.4,6.5-40.5,32-64.3,55.2c-23.8,23.5-26.4,0-35.8-1.3
		c-5.7-0.7-48.6,45.1-81.3,81.4c-10.3,6.3-20.3,11.8-29.7,16.4c-7.6,3.5-14.6,6.5-21.6,8.5c-22.9-10.5-47.3-21.1-56.7-18.8
		c-7.4,1.7-16.1-0.6-24.4-3.3c-56.4-32.5-56.2-29.9-104.2,4.4c-2,1.5-4.1,2.8-6.1,3.7C346,419.4,327.5,407,318.3,407
		c-14.6,0-12-3.7-27.9-16.1c-15.7-12.2-63.9-37.7-70-34.5c-28.5-16.4-55.4-25.7-71-18.5c-23.8,11.1-30.7,33.2-78.3,27.7
		c-12.5-1.5-38.1,9.2-70.1,26v192.7h1340.7c20.7-1.6,40.2-3.1,58.2-4.5v-110C1329,440.2,1223.2,396.4,1201.9,382.4L1201.9,382.4z"/>
	<path id="XMLID_429_" class="st4" d="M347.1,596.8c35.5-46.7,85.2-146.5,102.9-157.5c17.7-11.1,14.2,3.7,21.3,11.1
		c7,7.4,12.9,2.4,34.4,3.7c21.3,1.3,24.8-12.4,24.8,6.1s1.1,8.7,1.1,30.9c0,22.2-3.5,24.6,4.8,17.2c8.3-7.4,47.3-25.9,81.7-55.4
		s79.3-102.1,81.7-72.6s-34.4,81.3-54.5,116.9C625,532.8,537.5,624,536.3,617.7c-1.1-6.3,18.8-87.4,10.7-86.3
		c-8.3,1.3-54.5,19.8-54.5,19.8c-34.4,28.2-47.3,51.7-66.3,61.5c-18.8,9.8,5.9-48,22.5-84.9s35.5-70.2,20.1-46.7
		S388.5,584.5,366,609C343.6,633.8,347.1,596.8,347.1,596.8L347.1,596.8z"/>
	<path id="XMLID_430_" class="st4" d="M655.9,589.5c29.6-38.2,168-288.1,171.5-270.9s-15.3,61.5,4.8,54.1s33.1-33.2,42.7-19.8
		c9.4,13.5,22.5,22.2,27.2,35.6c4.8,13.5,9.4,44.3,22.5,34.5c12.9-9.8,48.6-27.1,50.8-13.5c2.4,13.5-2.4,11.1-12.9,41.9
		c-10.7,30.8-43.8,78.9-60.4,107.1c-16.6,28.3-40.3,73.9-42.7,65.2s30.7-114.5,36.6-135.4c5.9-20.9-8.1-39.3-27-17.2
		c-18.8,22.2-52.1,45.6-54.5,36.9c-2.4-8.7-15.3-27.2-10.7-40.6c4.8-13.5,18.8-20.9,4.8-13.5c-14.2,7.4-7-8.7-36.6,24.6
		c-29.6,33.2-59.1,61.5-82.8,93.6c-23.7,31.9-33.1,40.6-36.6,34.5C648.9,600.5,655.9,589.5,655.9,589.5L655.9,589.5z"/>
	<path id="XMLID_431_" class="st4" d="M990.7,593.1c28.5-38.2,55.6-142.8,86.3-162.5c30.7-19.8,48.6-18.5,73.3-28.3
		c24.8-9.8,48.6-29.5,33.1,0c-15.3,29.6-24.8,71.5-46.2,103.4c-21.1,31.9-42.3,54.1-31.8,28.3c10.7-25.9,12.9-51.7,8.3-48
		c-4.8,3.7-17.7,5-28.5,18.5c-10.7,13.5-14.2,0-28.5,28.3c-14.2,28.3-32,49.3-54.5,70.2C980.2,624,990.7,593.1,990.7,593.1
		L990.7,593.1z"/>
	<rect id="XMLID_432_" x="1" y="725.2" class="st5" width="1399" height="254.8"/>
	<rect id="XMLID_433_" x="1" y="569.1" class="st6" width="1399" height="143"/>
	<path id="XMLID_434_" class="st7" d="M1348.4,619.6v95.9c0,2.7-2.2,4.9-4.9,4.9h-1.6h-2.2c-2.7,0-4.9-2.2-4.9-4.9v-95.9H1348.4z"/>
	<path id="XMLID_435_" class="st7" d="M1035.9,619.6v95.9c0,2.7-2.2,4.9-4.9,4.9h-1.6h-2.2c-2.7,0-4.9-2.2-4.9-4.9v-95.9H1035.9z"/>
	<path id="XMLID_436_" class="st7" d="M723.4,619.6v95.9c0,2.7-2.2,4.9-4.9,4.9h-1.6h-2.2c-2.7,0-4.9-2.2-4.9-4.9v-95.9H723.4z"/>
	<path id="XMLID_437_" class="st7" d="M410.8,619.6v95.9c0,2.7-2.2,4.9-4.9,4.9h-1.6h-2.2c-2.7,0-4.9-2.2-4.9-4.9v-95.9H410.8z"/>
	<path id="XMLID_438_" class="st7" d="M98.3,619.6v95.9c0,2.7-2.2,4.9-4.9,4.9h-1.6h-2.2c-2.7,0-4.9-2.2-4.9-4.9v-95.9H98.3z"/>
	<rect id="XMLID_439_" x="1" y="640.6" class="st8" width="1399" height="10.7"/>
	<rect id="XMLID_440_" x="1" y="676.1" class="st8" width="1399" height="10.7"/>
	<rect id="XMLID_441_" x="1" y="643.3" class="st7" width="1399" height="8"/>
	<rect id="XMLID_442_" x="1" y="678.8" class="st7" width="1399" height="8"/>
	<rect id="XMLID_443_" x="1" y="712.1" class="st9" width="1399" height="13.1"/>
	<rect id="XMLID_444_" x="18.7" y="870.8" class="st10" width="381.2" height="18.1"/>
	<rect id="XMLID_445_" x="509.9" y="870.8" class="st10" width="381.2" height="18.1"/>
	<rect id="XMLID_446_" x="1001.1" y="870.8" class="st10" width="381.2" height="18.1"/>
</g>
<path id="XMLID_423_" class="st11" d="M21.7,798.4c0,0-6.7,58.7,0,62c6.2,3,619.8,0.5,721.1,0.1c8.5,0,15.4-7,15.2-15.5
	c-0.2-10.7-2.8-24-13.1-30.1C726.4,803.9,21.7,798.4,21.7,798.4z"/>
<g id="XMLID_1_">
	<g id="XMLID_2_">
		<rect id="XMLID_421_" x="573" y="572.8" class="st12" width="41.1" height="181.8"/>
	</g>
	<g id="XMLID_3_">
		<polygon id="XMLID_420_" class="st13" points="30.1,781.3 780.7,781.3 780.7,713.1 30.2,717.8 		"/>
	</g>
	<g id="XMLID_4_">
		<polygon id="XMLID_419_" points="30.1,781.3 780.7,781.3 780.7,757.4 30.1,757.4 		"/>
	</g>
	<g id="XMLID_5_">
		<path id="XMLID_418_" class="st14" d="M571.4,734H431c-4,0-7.3,3.3-7.3,7.3v46.4c0,4,3.3,7.3,7.3,7.3h140.4c4,0,7.3-3.3,7.3-7.3
			v-46.4C578.7,737.3,575.5,734,571.4,734L571.4,734z"/>
	</g>
	<g id="XMLID_6_">
		<path id="XMLID_417_" class="st15" d="M578.7,773.6h-155v14.2c0,4,3.3,7.3,7.3,7.3h140.4c4,0,7.3-3.3,7.3-7.3V773.6z"/>
	</g>
	<g id="XMLID_7_">
		<path id="XMLID_416_" class="st15" d="M571.4,734H431c-4,0-7.3,3.3-7.3,7.3v11.2h155v-11.2C578.7,737.3,575.5,734,571.4,734
			L571.4,734z"/>
	</g>
	<g id="XMLID_8_">
		<rect id="XMLID_415_" x="511.1" y="734" class="st16" width="9.1" height="61.1"/>
	</g>
	<g id="XMLID_9_">
		<rect id="XMLID_414_" x="550.4" y="734" class="st16" width="9.1" height="61.1"/>
	</g>
	<g id="XMLID_10_">
		<polygon id="XMLID_413_" points="249,783.3 215.1,724.8 137.4,722.5 102.7,784.1 		"/>
	</g>
	<g id="XMLID_11_">
		<polygon id="XMLID_412_" class="st17" points="42.4,766.2 96.9,766.2 128.2,715.8 221.4,715.5 237.3,742.7 588.2,742.5 
			588.2,441.4 42.3,441.4 		"/>
	</g>
	<g id="XMLID_12_">
		<polygon id="XMLID_411_" class="st18" points="244.9,785.9 212.8,726.7 137.8,726.7 104.1,787.1 80.6,787.1 124,712.1 
			225.4,712.1 268.8,786.3 		"/>
	</g>
	<g id="XMLID_13_">
		<path id="XMLID_410_" class="st19" d="M780.7,642.1c0,0,9.4,3.7,10.1,11.4V736l-10.4,11.4l-18.8-23.7L780.7,642.1z"/>
	</g>
	<g id="XMLID_14_">
		<path id="XMLID_409_" class="st17" d="M747.3,552.1h-144v166.4l65.6,0.1c43,0.7,56.5,31.8,56.5,31.8h55.3V642.1L747.3,552.1z"/>
	</g>
	<g id="XMLID_15_">
		<path id="XMLID_408_" class="st19" d="M603.2,552.2h158.9c-6.2-22.8-30.3-27.1-30.3-27.1H603.2V552.2z"/>
	</g>
	<g id="XMLID_16_">
		<path id="XMLID_407_" class="st19" d="M643.4,563.9c0-1.6-1.8-3-4.1-3h-18.8c-2.3,0-4.1,1.3-4.1,3v52.5c0,1.6,1.8,3,4.1,3h18.8
			c2.3,0,4.1-1.3,4.1-3V563.9z"/>
	</g>
	<g id="XMLID_17_">
		<path id="XMLID_406_" class="st17" d="M641.2,563.9c0-0.1-0.3-0.3-0.4-0.4c-0.5-0.3-1-0.4-1.6-0.4h-18.8c-0.5,0-1.1,0.1-1.6,0.4
			c-0.1,0.1-0.4,0.3-0.4,0.4v52.5c0,0.1,0.3,0.3,0.4,0.4c0.4,0.3,1,0.4,1.6,0.4h18.8c0.5,0,1.1-0.1,1.6-0.4c0.1-0.1,0.4-0.3,0.4-0.4
			V563.9z"/>
	</g>
	<g id="XMLID_18_">
		<path id="XMLID_405_" class="st20" d="M593.1,794.9c0,34.9,28.3,63.1,63.1,63.1c34.9,0,63.1-28.3,63.1-63.1s-28.3-63.1-63.1-63.1
			C621.4,731.7,593.1,760,593.1,794.9L593.1,794.9z"/>
	</g>
	<g id="XMLID_19_">
		<path id="XMLID_404_" class="st21" d="M656.3,834.7c22,0,39.9-17.9,39.9-39.9s-18-39.8-39.9-39.8c-22,0-39.9,17.9-39.9,39.9
			S634.3,834.7,656.3,834.7L656.3,834.7z"/>
	</g>
	<g id="XMLID_20_">
		<path id="XMLID_403_" class="st22" d="M656.3,832.8c20.9,0,37.9-17,37.9-37.9s-17-37.9-37.9-37.9s-37.9,17-37.9,37.9
			S635.3,832.8,656.3,832.8L656.3,832.8z"/>
	</g>
	<g id="XMLID_21_">
		<path id="XMLID_402_" class="st23" d="M656.3,821.8c-14.8,0-26.9-12.1-26.9-26.9c0-14.8,12.1-26.9,26.9-26.9
			c14.8,0,26.9,12.1,26.9,26.9S671.1,821.8,656.3,821.8L656.3,821.8z"/>
	</g>
	<g id="XMLID_22_">
		<path id="XMLID_401_" class="st22" d="M656.3,812.3c9.6,0,17.4-7.8,17.4-17.4c0-9.6-7.8-17.4-17.4-17.4c-9.6,0-17.4,7.8-17.4,17.4
			C638.8,804.5,646.7,812.3,656.3,812.3L656.3,812.3z"/>
	</g>
	<g id="XMLID_24_">
		<path id="XMLID_807_" class="st24" d="M656.3,777.7c9.4,0,17.1,7.7,17.1,17.1c0,9.4-7.7,17.1-17.1,17.1c-9.4,0-17.1-7.7-17.1-17.1
			C639.1,785.4,646.8,777.7,656.3,777.7L656.3,777.7z M656.3,812.5c9.8,0,17.7-7.9,17.7-17.7c0-9.7-7.9-17.7-17.7-17.7
			c-9.7,0-17.7,7.9-17.7,17.7S646.5,812.5,656.3,812.5L656.3,812.5z"/>
	</g>
	<g id="XMLID_26_">
		<path id="XMLID_400_" class="st25" d="M656.3,811.5c9.2,0,16.7-7.5,16.7-16.7s-7.5-16.7-16.7-16.7s-16.7,7.5-16.7,16.7
			S647.1,811.5,656.3,811.5L656.3,811.5z"/>
	</g>
	<g id="XMLID_27_">
		<path id="XMLID_399_" class="st22" d="M656.3,803.6c4.8,0,8.7-3.9,8.7-8.7s-3.9-8.7-8.7-8.7s-8.7,3.9-8.7,8.7
			C647.6,799.7,651.5,803.6,656.3,803.6L656.3,803.6z"/>
	</g>
	<g id="XMLID_29_">
		<path id="XMLID_799_" class="st24" d="M656.3,786.4c4.6,0,8.4,3.8,8.4,8.4c0,4.7-3.8,8.4-8.4,8.4s-8.4-3.8-8.4-8.4
			C647.8,790.2,651.6,786.4,656.3,786.4L656.3,786.4z M656.3,803.8c5,0,9-4,9-9s-4-9-9-9c-4.9,0-9,4-9,9S651.3,803.8,656.3,803.8
			L656.3,803.8z"/>
	</g>
	<g id="XMLID_31_">
		<path id="XMLID_398_" class="st23" d="M656.3,802.1c4,0,7.3-3.3,7.3-7.2c0-4-3.3-7.2-7.3-7.2s-7.2,3.2-7.2,7.2
			C649,798.9,652.2,802.1,656.3,802.1L656.3,802.1z"/>
	</g>
	<g id="XMLID_32_">
		<path id="XMLID_397_" class="st10" d="M656.3,800.1c2.9,0,5.3-2.3,5.3-5.2s-2.4-5.2-5.3-5.2c-2.9,0-5.2,2.3-5.2,5.2
			C651,797.7,653.4,800.1,656.3,800.1L656.3,800.1z"/>
	</g>
	<g id="XMLID_33_">
		<path id="XMLID_396_" class="st26" d="M622.2,797c0,2,1.4,3.7,3.2,3.8c1.8,0,3.3-1.6,3.3-3.7l0.1-5.6c0-2.1-1.4-3.8-3.2-3.8
			c-1.8-0.1-3.3,1.6-3.4,3.6L622.2,797z"/>
	</g>
	<g id="XMLID_34_">
		<path id="XMLID_395_" class="st27" d="M625.4,800.1c-1.4,0-2.6-1.4-2.5-3.1l0.1-5.6c0-1.7,1.2-3,2.6-3c1.5,0,2.6,1.4,2.6,3.1
			l-0.1,5.6C628,798.7,626.8,800.1,625.4,800.1L625.4,800.1z"/>
	</g>
	<g id="XMLID_35_">
		<path id="XMLID_394_" class="st26" d="M636.6,766.4c-1.8,1.1-2.5,3.2-1.6,4.7c0.9,1.6,3.1,2,4.9,0.9l4.8-2.9
			c1.8-1,2.5-3.1,1.6-4.7c-0.9-1.6-3.1-2-4.9-0.9L636.6,766.4z"/>
	</g>
	<g id="XMLID_36_">
		<path id="XMLID_393_" class="st27" d="M637.9,772c-1,0-1.8-0.4-2.2-1.2c-0.3-0.5-0.4-1.2-0.2-1.8c0.2-0.8,0.8-1.5,1.5-2l4.8-2.8
			c0.5-0.3,1.1-0.5,1.7-0.5c1,0,1.8,0.4,2.2,1.2c0.3,0.5,0.4,1.2,0.2,1.8c-0.2,0.8-0.8,1.5-1.5,2l-4.8,2.8
			C639.1,771.8,638.5,772,637.9,772L637.9,772z"/>
	</g>
	<g id="XMLID_37_">
		<path id="XMLID_392_" class="st26" d="M670.2,762.7c-1.8-1-4-0.5-4.8,1.2c-0.8,1.6,0,3.7,1.8,4.6l5,2.6c1.8,1,4,0.4,4.8-1.1
			c0.8-1.6,0-3.7-1.8-4.6L670.2,762.7z"/>
	</g>
	<g id="XMLID_38_">
		<path id="XMLID_391_" class="st27" d="M674,770.9c-0.6,0-1.1-0.2-1.6-0.4l-5-2.6c-1.5-0.8-2.2-2.5-1.5-3.7
			c0.4-0.8,1.3-1.3,2.3-1.3c0.6,0,1.1,0.1,1.6,0.4l4.9,2.6c0.8,0.4,1.4,1.1,1.6,1.9c0.2,0.6,0.1,1.3-0.1,1.8
			C675.9,770.4,675.1,770.9,674,770.9L674,770.9z"/>
	</g>
	<g id="XMLID_39_">
		<path id="XMLID_390_" class="st26" d="M691,789.4c-0.1-2.1-1.7-3.6-3.5-3.5s-3.1,1.9-3,3.9l0.4,5.6c0.1,2.1,1.7,3.6,3.5,3.5
			s3.2-1.9,3-3.9L691,789.4z"/>
	</g>
	<g id="XMLID_40_">
		<path id="XMLID_389_" class="st27" d="M688.1,798.2c-1.4,0-2.5-1.3-2.7-2.9l-0.3-5.6c-0.1-1.7,1-3.2,2.4-3.3l0,0
			c1.5,0,2.7,1.3,2.8,2.9l0.3,5.6c0,0.8-0.2,1.6-0.6,2.2c-0.5,0.6-1.1,0.9-1.8,1L688.1,798.2L688.1,798.2z"/>
	</g>
	<g id="XMLID_41_">
		<path id="XMLID_388_" class="st26" d="M679.2,821.1c1.7-1.2,2.2-3.4,1.1-4.8c-1-1.5-3.2-1.7-4.9-0.5l-4.6,3.2
			c-1.7,1.2-2.2,3.3-1.1,4.8c1,1.5,3.3,1.7,4.9,0.5L679.2,821.1z"/>
	</g>
	<g id="XMLID_42_">
		<path id="XMLID_387_" class="st27" d="M672.3,824.4c-0.9,0-1.6-0.4-2.1-1c-0.8-1.2-0.4-2.9,1-3.9l4.6-3.2c0.6-0.4,1.3-0.6,2-0.6
			c0.8,0,1.6,0.4,2,1c0.8,1.2,0.4,2.9-1,3.9l-4.6,3.2C673.6,824.1,673,824.4,672.3,824.4L672.3,824.4z"/>
	</g>
	<g id="XMLID_43_">
		<path id="XMLID_386_" class="st26" d="M646,827.6c1.9,0.8,4,0.1,4.7-1.6c0.7-1.7-0.3-3.7-2.2-4.4l-5.2-2.2c-1.9-0.8-4-0.1-4.7,1.5
			c-0.7,1.7,0.3,3.6,2.1,4.5L646,827.6z"/>
	</g>
	<g id="XMLID_44_">
		<path id="XMLID_385_" class="st27" d="M647.6,827.2c-0.5,0-0.9-0.1-1.4-0.3l-5.1-2.2c-1.6-0.7-2.4-2.3-1.8-3.6
			c0.4-0.9,1.3-1.5,2.5-1.5c0.5,0,0.9,0.1,1.4,0.3l5.2,2.2c1.6,0.7,2.4,2.3,1.8,3.6C649.7,826.7,648.8,827.2,647.6,827.2
			L647.6,827.2z"/>
	</g>
	<g id="XMLID_45_">
		<path id="XMLID_384_" class="st26" d="M654.9,782.3c0,0.9,0.7,1.6,1.6,1.6c0.9,0,1.6-0.7,1.6-1.6s-0.7-1.6-1.6-1.6
			C655.6,780.7,654.9,781.4,654.9,782.3L654.9,782.3z"/>
	</g>
	<g id="XMLID_46_">
		<path id="XMLID_383_" class="st28" d="M656.5,783.2c-0.5,0-1-0.4-1-1c0-0.5,0.4-1,1-1c0.5,0,1,0.5,1,1
			C657.5,782.8,657,783.2,656.5,783.2L656.5,783.2z"/>
	</g>
	<g id="XMLID_47_">
		<path id="XMLID_382_" class="st26" d="M654.9,807.7c0,0.9,0.7,1.6,1.6,1.6c0.9,0,1.6-0.7,1.6-1.6c0-0.9-0.7-1.6-1.6-1.6
			C655.6,806,654.9,806.8,654.9,807.7L654.9,807.7z"/>
	</g>
	<g id="XMLID_48_">
		<path id="XMLID_381_" class="st28" d="M656.5,808.6c-0.5,0-1-0.4-1-1s0.4-1,1-1c0.5,0,1,0.5,1,1
			C657.5,808.2,657,808.6,656.5,808.6L656.5,808.6z"/>
	</g>
	<g id="XMLID_49_">
		<path id="XMLID_380_" class="st26" d="M669.2,793.2c-0.9,0-1.6,0.8-1.6,1.7s0.8,1.6,1.7,1.6s1.6-0.7,1.6-1.7
			C670.8,793.9,670.1,793.2,669.2,793.2L669.2,793.2z"/>
	</g>
	<g id="XMLID_50_">
		<path id="XMLID_379_" class="st28" d="M669.2,795.8c-0.5,0-1-0.4-1-1c0-0.5,0.4-1,1-1c0.5,0,1,0.4,1,1
			C670.2,795.3,669.7,795.8,669.2,795.8L669.2,795.8z"/>
	</g>
	<g id="XMLID_51_">
		<path id="XMLID_378_" class="st26" d="M643.8,793.5c-0.9,0-1.6,0.7-1.6,1.6c0,0.9,0.7,1.6,1.7,1.6c0.9,0,1.6-0.8,1.6-1.7
			C645.4,794.2,644.7,793.5,643.8,793.5L643.8,793.5z"/>
	</g>
	<g id="XMLID_52_">
		<path id="XMLID_377_" class="st28" d="M643.8,796.1c-0.5,0-1-0.4-1-1c0-0.5,0.4-1,1-1c0.5,0,1,0.4,1,1
			C644.8,795.7,644.4,796.1,643.8,796.1L643.8,796.1z"/>
	</g>
	<g id="XMLID_53_">
		<path id="XMLID_376_" class="st26" d="M666.3,803.2c-0.6-0.7-1.6-0.7-2.3-0.1c-0.6,0.6-0.7,1.6-0.1,2.3c0.6,0.7,1.6,0.7,2.3,0.1
			C666.9,804.9,666.9,803.9,666.3,803.2L666.3,803.2z"/>
	</g>
	<g id="XMLID_54_">
		<path id="XMLID_375_" class="st28" d="M665.1,805.3c-0.3,0-0.5-0.1-0.7-0.3c-0.4-0.4-0.3-1,0.1-1.4c0.2-0.2,0.4-0.3,0.7-0.3
			s0.5,0.1,0.7,0.3s0.3,0.5,0.3,0.7s-0.1,0.5-0.3,0.7C665.6,805.2,665.3,805.3,665.1,805.3L665.1,805.3z"/>
	</g>
	<g id="XMLID_55_">
		<path id="XMLID_374_" class="st26" d="M649.1,784.5c-0.6-0.7-1.6-0.7-2.3-0.1c-0.7,0.6-0.7,1.7-0.1,2.3c0.6,0.6,1.6,0.7,2.3,0.1
			C649.7,786.2,649.7,785.2,649.1,784.5L649.1,784.5z"/>
	</g>
	<g id="XMLID_56_">
		<path id="XMLID_373_" class="st28" d="M647.9,786.6c-0.3,0-0.5-0.1-0.7-0.3c-0.4-0.4-0.3-1,0.1-1.4c0.2-0.2,0.4-0.2,0.7-0.2
			s0.5,0.1,0.7,0.3c0.4,0.4,0.3,1,0,1.4C648.4,786.5,648.1,786.6,647.9,786.6L647.9,786.6z"/>
	</g>
	<g id="XMLID_57_">
		<path id="XMLID_372_" class="st26" d="M648.7,805.1c0.6-0.6,0.6-1.7,0-2.3s-1.7-0.6-2.3,0s-0.6,1.7,0,2.3
			C647.1,805.8,648.1,805.8,648.7,805.1L648.7,805.1z"/>
	</g>
	<g id="XMLID_58_">
		<path id="XMLID_371_" class="st28" d="M647.6,805c-0.2,0-0.5-0.1-0.7-0.3s-0.3-0.4-0.3-0.7s0.1-0.5,0.3-0.7s0.4-0.3,0.7-0.3
			s0.5,0.1,0.7,0.3c0.4,0.4,0.4,1,0,1.4C648.1,804.9,647.8,805,647.6,805L647.6,805z"/>
	</g>
	<g id="XMLID_59_">
		<path id="XMLID_370_" class="st26" d="M666.6,787.1c0.7-0.6,0.6-1.7,0-2.3s-1.7-0.6-2.3,0s-0.6,1.7,0,2.3
			C664.9,787.8,665.9,787.8,666.6,787.1L666.6,787.1z"/>
	</g>
	<g id="XMLID_60_">
		<path id="XMLID_369_" class="st28" d="M665.4,786.9c-0.3,0-0.5-0.1-0.7-0.3s-0.3-0.4-0.3-0.7s0.1-0.5,0.3-0.7s0.4-0.3,0.7-0.3
			s0.5,0.1,0.7,0.3c0.4,0.4,0.4,1,0,1.4C665.9,786.8,665.7,786.9,665.4,786.9L665.4,786.9z"/>
	</g>
	<g id="XMLID_61_">
		<path id="XMLID_368_" class="st24" d="M656.3,833.5c21.3,0,38.6-17.3,38.6-38.6s-17.3-38.7-38.6-38.7s-38.6,17.4-38.6,38.7
			C617.6,816.2,635,833.5,656.3,833.5L656.3,833.5z"/>
	</g>
	<g id="XMLID_62_">
		<path id="XMLID_367_" class="st21" d="M656.3,832.3c20.6,0,37.4-16.8,37.4-37.4c0-20.7-16.8-37.5-37.4-37.5
			c-20.7,0-37.5,16.8-37.5,37.5C618.8,815.5,635.6,832.3,656.3,832.3L656.3,832.3z"/>
	</g>
	<g id="XMLID_65_">
		<path id="XMLID_366_" class="st29" d="M681.4,820.1c-1,1-2.1,2-3.3,2.9c-6.5,5-14.6,7.8-22.8,7.6c-8.8-0.2-16.8-3.7-22.9-9.2
			c-0.5-0.4-0.9-0.8-1.3-1.3c-0.8-0.8-1.6-1.7-2.3-2.5c-4-4.8-6.7-10.6-7.7-17c-1.5-9.5,0.9-19.4,6.7-27.1c1-1.3,2.1-2.6,3.3-3.8
			c0.4-0.4,0.9-0.9,1.3-1.3c6.1-5.5,14.1-8.9,22.9-9.2c8.2-0.2,16.4,2.5,22.8,7.5c1.1,0.9,2.2,1.8,3.3,2.9c1.2,1.2,2.3,2.5,3.3,3.8
			c5.8,7.7,8.2,17.6,6.7,27.1c-1,6.4-3.8,12.2-7.7,17C683,818.4,682.2,819.3,681.4,820.1L681.4,820.1z"/>
	</g>
	<g id="XMLID_66_">
		<path id="XMLID_365_" class="st30" d="M656.3,820.1c-13.9,0-25.3-11.3-25.3-25.3c0-13.9,11.3-25.3,25.3-25.3
			c13.9,0,25.3,11.4,25.3,25.3C681.5,808.8,670.2,820.1,656.3,820.1L656.3,820.1z"/>
	</g>
	<g id="XMLID_67_">
		<path id="XMLID_364_" class="st22" d="M656.3,811.2c9,0,16.3-7.3,16.3-16.3s-7.3-16.3-16.3-16.3s-16.3,7.3-16.3,16.3
			C639.9,803.9,647.2,811.2,656.3,811.2L656.3,811.2z"/>
	</g>
	<g id="XMLID_69_">
		<path id="XMLID_725_" class="st24" d="M656.3,778.8c8.9,0,16.1,7.2,16.1,16.1c0,8.9-7.2,16.1-16.1,16.1c-8.9,0-16.1-7.2-16.1-16.1
			S647.4,778.8,656.3,778.8L656.3,778.8z M656.3,811.5c9.2,0,16.6-7.4,16.6-16.6c0-9.2-7.4-16.6-16.6-16.6s-16.6,7.4-16.6,16.6
			C639.7,804,647.1,811.5,656.3,811.5L656.3,811.5z"/>
	</g>
	<g id="XMLID_71_">
		<path id="XMLID_363_" class="st25" d="M656.3,810.5c8.6,0,15.7-7.1,15.7-15.7c0-8.6-7-15.7-15.7-15.7c-8.6,0-15.7,7-15.7,15.7
			S647.6,810.5,656.3,810.5L656.3,810.5z"/>
	</g>
	<g id="XMLID_72_">
		<path id="XMLID_362_" class="st31" d="M656.3,803c4.5,0,8.2-3.7,8.2-8.2s-3.7-8.2-8.2-8.2s-8.2,3.7-8.2,8.2
			C648.1,799.4,651.7,803,656.3,803L656.3,803z"/>
	</g>
	<g id="XMLID_74_">
		<path id="XMLID_717_" class="st24" d="M656.3,787c4.4,0,7.9,3.5,7.9,7.9s-3.5,7.9-7.9,7.9s-7.9-3.5-7.9-7.9
			C648.4,790.5,651.9,787,656.3,787L656.3,787z M656.3,803.3c4.7,0,8.4-3.8,8.4-8.4c0-4.6-3.8-8.4-8.4-8.4c-4.6,0-8.4,3.8-8.4,8.4
			C647.8,799.5,651.6,803.3,656.3,803.3L656.3,803.3z"/>
	</g>
	<g id="XMLID_76_">
		<path id="XMLID_361_" class="st32" d="M656.3,801.7c3.8,0,6.8-3.1,6.8-6.8c0-3.8-3.1-6.8-6.8-6.8s-6.8,3-6.8,6.8
			C649.4,798.6,652.5,801.7,656.3,801.7L656.3,801.7z"/>
	</g>
	<g id="XMLID_77_">
		<path id="XMLID_360_" class="st33" d="M656.3,799.8c2.7,0,4.9-2.2,4.9-4.9s-2.2-4.9-4.9-4.9s-4.9,2.2-4.9,4.9
			C651.3,797.6,653.5,799.8,656.3,799.8L656.3,799.8z"/>
	</g>
	<g id="XMLID_78_">
		<path id="XMLID_359_" class="st26" d="M624.3,796.8c0,1.9,1.3,3.5,3,3.6c1.7,0,3.1-1.5,3.1-3.4l0.1-5.3c0-1.9-1.3-3.5-3-3.6
			c-1.7,0-3.1,1.5-3.1,3.4L624.3,796.8z"/>
	</g>
	<g id="XMLID_79_">
		<path id="XMLID_358_" class="st27" d="M627.3,799.8c-1.3,0-2.4-1.3-2.4-2.9l0.1-5.2c0-1.6,1.1-2.8,2.5-2.8s2.4,1.3,2.4,2.9
			l-0.1,5.2C629.7,798.5,628.6,799.8,627.3,799.8L627.3,799.8z"/>
	</g>
	<g id="XMLID_80_">
		<path id="XMLID_357_" class="st26" d="M637.8,768.2c-1.7,1-2.3,3-1.5,4.4c0.9,1.5,2.9,1.8,4.6,0.9l4.5-2.7c1.7-1,2.3-3,1.5-4.4
			c-0.9-1.5-2.9-1.9-4.6-0.9L637.8,768.2z"/>
	</g>
	<g id="XMLID_81_">
		<path id="XMLID_356_" class="st27" d="M639,773.4c-0.9,0-1.7-0.4-2.1-1.1c-0.3-0.5-0.4-1.1-0.2-1.7c0.2-0.7,0.7-1.4,1.5-1.8
			l4.5-2.7c0.5-0.3,1.1-0.5,1.6-0.5c0.9,0,1.7,0.4,2.1,1.1c0.3,0.5,0.4,1.1,0.2,1.7c-0.2,0.8-0.7,1.4-1.5,1.8l-4.5,2.7
			C640.1,773.2,639.6,773.4,639,773.4L639,773.4z"/>
	</g>
	<g id="XMLID_82_">
		<path id="XMLID_355_" class="st26" d="M669.4,764.7c-1.7-0.9-3.7-0.4-4.5,1.1s0,3.4,1.7,4.4l4.7,2.5c1.7,0.9,3.7,0.4,4.5-1.1
			s0-3.4-1.7-4.3L669.4,764.7z"/>
	</g>
	<g id="XMLID_83_">
		<path id="XMLID_354_" class="st27" d="M673,772.4c-0.5,0-1-0.1-1.5-0.4l-4.7-2.5c-1.4-0.7-2-2.3-1.4-3.5c0.4-0.7,1.2-1.2,2.2-1.2
			c0.5,0,1,0.1,1.5,0.4l4.6,2.5c0.7,0.4,1.3,1,1.5,1.8c0.2,0.6,0.1,1.2-0.1,1.7C674.7,771.9,673.9,772.4,673,772.4L673,772.4z"/>
	</g>
	<g id="XMLID_84_">
		<path id="XMLID_353_" class="st26" d="M688.9,789.7c-0.1-1.9-1.6-3.4-3.3-3.3c-1.7,0.1-3,1.8-2.8,3.7l0.3,5.3
			c0.1,1.9,1.6,3.4,3.3,3.3c1.7-0.1,3-1.8,2.8-3.7L688.9,789.7z"/>
	</g>
	<g id="XMLID_85_">
		<path id="XMLID_352_" class="st27" d="M686.2,798.1c-1.3,0-2.4-1.2-2.5-2.8l-0.3-5.2c-0.1-1.6,0.9-2.9,2.2-3l0,0
			c1.4,0,2.5,1.2,2.6,2.8l0.3,5.2c0.1,0.8-0.2,1.5-0.6,2.1C687.5,797.7,686.9,798.1,686.2,798.1L686.2,798.1z"/>
	</g>
	<g id="XMLID_86_">
		<path id="XMLID_351_" class="st26" d="M677.8,819.4c1.6-1.1,2.1-3.2,1.1-4.5c-1-1.4-3-1.6-4.6-0.5l-4.3,3
			c-1.6,1.1-2.1,3.1-1.1,4.5s3.1,1.6,4.6,0.5L677.8,819.4z"/>
	</g>
	<g id="XMLID_87_">
		<path id="XMLID_350_" class="st27" d="M671.3,822.6c-0.8,0-1.5-0.4-1.9-0.9c-0.8-1.1-0.3-2.7,0.9-3.7l4.3-3
			c0.6-0.4,1.2-0.6,1.8-0.6c0.8,0,1.5,0.4,1.9,0.9c0.8,1.1,0.4,2.7-0.9,3.7l-4.3,3C672.6,822.4,671.9,822.6,671.3,822.6L671.3,822.6
			z"/>
	</g>
	<g id="XMLID_88_">
		<path id="XMLID_349_" class="st26" d="M646.6,825.6c1.8,0.8,3.8,0.1,4.4-1.5c0.6-1.5-0.3-3.4-2-4.2l-4.8-2.1
			c-1.8-0.8-3.8-0.1-4.4,1.4c-0.7,1.6,0.3,3.4,2,4.2L646.6,825.6z"/>
	</g>
	<g id="XMLID_89_">
		<path id="XMLID_348_" class="st27" d="M648.2,825.3c-0.4,0-0.9-0.1-1.3-0.3l-4.8-2.1c-1.5-0.6-2.2-2.1-1.7-3.4
			c0.4-0.9,1.2-1.4,2.3-1.4c0.4,0,0.9,0.1,1.3,0.3l4.8,2.1c1.5,0.6,2.2,2.1,1.7,3.4C650.1,824.7,649.2,825.3,648.2,825.3
			L648.2,825.3z"/>
	</g>
	<g id="XMLID_90_">
		<path id="XMLID_347_" class="st26" d="M654.9,783.1c0,0.8,0.7,1.5,1.5,1.5s1.5-0.7,1.5-1.5s-0.7-1.5-1.5-1.5
			C655.6,781.5,654.9,782.2,654.9,783.1L654.9,783.1z"/>
	</g>
	<g id="XMLID_91_">
		<path id="XMLID_346_" class="st31" d="M656.5,784c-0.5,0-0.9-0.4-0.9-0.9s0.4-0.9,0.9-0.9s0.9,0.4,0.9,0.9
			C657.4,783.5,657,784,656.5,784L656.5,784z"/>
	</g>
	<g id="XMLID_92_">
		<path id="XMLID_345_" class="st26" d="M654.9,806.9c0,0.8,0.7,1.5,1.5,1.5s1.5-0.7,1.5-1.5s-0.7-1.5-1.5-1.5
			C655.6,805.3,654.9,806.1,654.9,806.9L654.9,806.9z"/>
	</g>
	<g id="XMLID_93_">
		<path id="XMLID_344_" class="st31" d="M656.5,807.8c-0.5,0-0.9-0.4-0.9-0.9s0.4-0.9,0.9-0.9s0.9,0.4,0.9,0.9
			C657.4,807.4,657,807.8,656.5,807.8L656.5,807.8z"/>
	</g>
	<g id="XMLID_94_">
		<path id="XMLID_343_" class="st26" d="M668.4,793.3c-0.8,0-1.5,0.7-1.5,1.6c0,0.9,0.7,1.5,1.6,1.5c0.8,0,1.5-0.7,1.5-1.6
			C669.9,794,669.2,793.3,668.4,793.3L668.4,793.3z"/>
	</g>
	<g id="XMLID_95_">
		<path id="XMLID_342_" class="st31" d="M668.4,795.7c-0.5,0-0.9-0.4-0.9-0.9s0.4-0.9,0.9-0.9s0.9,0.4,0.9,0.9
			C669.3,795.3,668.9,795.7,668.4,795.7L668.4,795.7z"/>
	</g>
	<g id="XMLID_96_">
		<path id="XMLID_341_" class="st26" d="M644.5,793.6c-0.8,0-1.5,0.7-1.5,1.5c0,0.9,0.7,1.5,1.6,1.5c0.9,0,1.5-0.7,1.5-1.5
			C646.1,794.2,645.4,793.6,644.5,793.6L644.5,793.6z"/>
	</g>
	<g id="XMLID_97_">
		<path id="XMLID_340_" class="st31" d="M644.6,796c-0.5,0-0.9-0.4-0.9-0.9s0.4-0.9,0.9-0.9s0.9,0.4,0.9,0.9S645.1,796,644.6,796
			L644.6,796z"/>
	</g>
	<g id="XMLID_98_">
		<path id="XMLID_339_" class="st26" d="M665.7,802.7c-0.6-0.6-1.5-0.7-2.2-0.1c-0.6,0.6-0.6,1.5-0.1,2.2c0.6,0.6,1.6,0.6,2.2,0.1
			C666.2,804.3,666.2,803.3,665.7,802.7L665.7,802.7z"/>
	</g>
	<g id="XMLID_99_">
		<path id="XMLID_338_" class="st31" d="M664.6,804.7c-0.3,0-0.5-0.1-0.7-0.3c-0.3-0.4-0.3-0.9,0.1-1.3l0.6-0.3
			c0.2,0,0.5,0.1,0.7,0.3s0.3,0.4,0.2,0.7c0,0.3-0.1,0.5-0.3,0.6L664.6,804.7z"/>
	</g>
	<g id="XMLID_100_">
		<path id="XMLID_337_" class="st26" d="M649.5,785.2c-0.6-0.6-1.5-0.7-2.2-0.1c-0.6,0.6-0.6,1.5-0.1,2.2s1.5,0.7,2.2,0.1
			C650.1,786.8,650.1,785.8,649.5,785.2L649.5,785.2z"/>
	</g>
	<g id="XMLID_101_">
		<path id="XMLID_336_" class="st31" d="M648.4,787.1c-0.3,0-0.5-0.1-0.7-0.3c-0.3-0.4-0.3-0.9,0.1-1.3l0.6-0.2
			c0.2,0,0.5,0.1,0.7,0.3c0.3,0.4,0.3,0.9-0.1,1.3C648.9,787,648.7,787.1,648.4,787.1L648.4,787.1z"/>
	</g>
	<g id="XMLID_102_">
		<path id="XMLID_335_" class="st26" d="M649.2,804.5c0.6-0.6,0.6-1.6,0-2.2c-0.6-0.6-1.6-0.6-2.2,0c-0.6,0.6-0.6,1.6,0,2.2
			C647.6,805.1,648.6,805.1,649.2,804.5L649.2,804.5z"/>
	</g>
	<g id="XMLID_103_">
		<path id="XMLID_334_" class="st31" d="M648.1,804.3c-0.2,0-0.5-0.1-0.6-0.3l-0.3-0.6c0-0.3,0.1-0.5,0.3-0.7s0.4-0.3,0.7-0.3
			c0.2,0,0.5,0.1,0.6,0.3c0.4,0.4,0.4,0.9,0,1.3C648.6,804.2,648.3,804.3,648.1,804.3L648.1,804.3z"/>
	</g>
	<g id="XMLID_104_">
		<path id="XMLID_333_" class="st26" d="M665.9,787.6c0.6-0.6,0.6-1.6,0-2.2c-0.6-0.6-1.6-0.6-2.2,0c-0.6,0.6-0.6,1.6,0,2.2
			C664.4,788.2,665.4,788.2,665.9,787.6L665.9,787.6z"/>
	</g>
	<g id="XMLID_105_">
		<path id="XMLID_332_" class="st31" d="M664.9,787.4c-0.2,0-0.5-0.1-0.7-0.3s-0.3-0.4-0.3-0.6c0-0.2,0.1-0.5,0.3-0.6
			c0.2-0.2,0.4-0.3,0.6-0.3l0.6,0.3c0.3,0.4,0.3,0.9,0,1.3L664.9,787.4z"/>
	</g>
	<g id="XMLID_106_">
		<path id="XMLID_331_" class="st34" d="M656.2,721.9c-40.7,0-74,32.5-75.4,72.9h12.7c1.3-33.5,28.9-60.3,62.7-60.3
			s61.4,26.9,62.7,60.3h12.7C730.3,754.4,697,721.9,656.2,721.9L656.2,721.9z"/>
	</g>
	<g id="XMLID_107_">
		<path id="XMLID_330_" class="st20" d="M112.1,794.9c0,34.9,28.3,63.1,63.1,63.1s63.1-28.3,63.1-63.1s-28.3-63.1-63.1-63.1
			S112.1,760,112.1,794.9L112.1,794.9z"/>
	</g>
	<g id="XMLID_108_">
		<path id="XMLID_329_" class="st21" d="M175.3,834.7c22,0,39.9-17.9,39.9-39.9s-18-39.8-39.9-39.8c-22,0-39.9,17.9-39.9,39.9
			S153.2,834.7,175.3,834.7L175.3,834.7z"/>
	</g>
	<g id="XMLID_109_">
		<path id="XMLID_328_" class="st22" d="M175.3,832.8c20.9,0,37.9-17,37.9-37.9s-17-37.9-37.9-37.9s-38,17-38,37.9
			S154.3,832.8,175.3,832.8L175.3,832.8z"/>
	</g>
	<g id="XMLID_110_">
		<path id="XMLID_327_" class="st23" d="M175.3,821.8c-14.8,0-26.9-12.1-26.9-26.9c0-14.8,12.1-26.9,26.9-26.9
			c14.8,0,26.9,12.1,26.9,26.9S190.1,821.8,175.3,821.8L175.3,821.8z"/>
	</g>
	<g id="XMLID_111_">
		<path id="XMLID_326_" class="st22" d="M175.3,812.3c9.6,0,17.4-7.8,17.4-17.4c0-9.6-7.8-17.4-17.4-17.4c-9.6,0-17.4,7.8-17.4,17.4
			C157.8,804.5,165.7,812.3,175.3,812.3L175.3,812.3z"/>
	</g>
	<g id="XMLID_113_">
		<path id="XMLID_641_" class="st24" d="M175.3,777.7c9.4,0,17.1,7.7,17.1,17.1c0,9.4-7.7,17.1-17.1,17.1c-9.4,0-17.1-7.7-17.1-17.1
			C158.1,785.4,165.8,777.7,175.3,777.7L175.3,777.7z M175.3,812.5c9.8,0,17.7-7.9,17.7-17.7c0-9.7-7.9-17.7-17.7-17.7
			c-9.7,0-17.7,7.9-17.7,17.7S165.5,812.5,175.3,812.5L175.3,812.5z"/>
	</g>
	<g id="XMLID_115_">
		<path id="XMLID_325_" class="st25" d="M175.3,811.5c9.2,0,16.7-7.5,16.7-16.7s-7.5-16.7-16.7-16.7s-16.7,7.5-16.7,16.7
			S166.1,811.5,175.3,811.5L175.3,811.5z"/>
	</g>
	<g id="XMLID_116_">
		<path id="XMLID_324_" class="st22" d="M175.3,803.6c4.8,0,8.7-3.9,8.7-8.7s-3.9-8.7-8.7-8.7s-8.7,3.9-8.7,8.7
			C166.5,799.7,170.4,803.6,175.3,803.6L175.3,803.6z"/>
	</g>
	<g id="XMLID_118_">
		<path id="XMLID_633_" class="st24" d="M175.3,786.4c4.6,0,8.4,3.8,8.4,8.4c0,4.7-3.8,8.4-8.4,8.4c-4.6,0-8.4-3.8-8.4-8.4
			C166.8,790.2,170.6,786.4,175.3,786.4L175.3,786.4z M175.3,803.8c5,0,9-4,9-9s-4-9-9-9s-9,4-9,9S170.3,803.8,175.3,803.8
			L175.3,803.8z"/>
	</g>
	<g id="XMLID_120_">
		<path id="XMLID_323_" class="st23" d="M175.3,802.1c4,0,7.3-3.3,7.3-7.2c0-4-3.3-7.2-7.3-7.2s-7.3,3.2-7.3,7.2
			C168,798.9,171.2,802.1,175.3,802.1L175.3,802.1z"/>
	</g>
	<g id="XMLID_121_">
		<path id="XMLID_322_" class="st10" d="M175.3,800.1c2.9,0,5.2-2.3,5.2-5.2s-2.4-5.2-5.2-5.2c-2.9,0-5.2,2.3-5.2,5.2
			C170,797.7,172.4,800.1,175.3,800.1L175.3,800.1z"/>
	</g>
	<g id="XMLID_122_">
		<path id="XMLID_321_" class="st26" d="M141.2,797c0,2,1.4,3.7,3.2,3.8c1.8,0,3.3-1.6,3.3-3.7l0.1-5.6c0-2.1-1.4-3.8-3.2-3.8
			c-1.8-0.1-3.3,1.6-3.3,3.6L141.2,797z"/>
	</g>
	<g id="XMLID_123_">
		<path id="XMLID_320_" class="st27" d="M144.4,800.1c-1.4,0-2.6-1.4-2.5-3.1l0.1-5.6c0-1.7,1.2-3,2.6-3c1.5,0,2.6,1.4,2.6,3.1
			L147,797C147,798.7,145.8,800.1,144.4,800.1L144.4,800.1z"/>
	</g>
	<g id="XMLID_124_">
		<path id="XMLID_319_" class="st26" d="M155.6,766.4c-1.8,1.1-2.5,3.2-1.6,4.7c0.9,1.6,3.1,2,4.9,0.9l4.8-2.9
			c1.8-1,2.5-3.1,1.6-4.7c-0.9-1.6-3.1-2-4.9-0.9L155.6,766.4z"/>
	</g>
	<g id="XMLID_125_">
		<path id="XMLID_318_" class="st27" d="M156.9,772c-1,0-1.8-0.4-2.2-1.2c-0.3-0.5-0.4-1.2-0.2-1.8c0.2-0.8,0.8-1.5,1.6-2l4.8-2.8
			c0.5-0.3,1.1-0.5,1.7-0.5c1,0,1.8,0.4,2.2,1.2c0.3,0.5,0.4,1.2,0.2,1.8c-0.2,0.8-0.8,1.5-1.5,2l-4.8,2.8
			C158.1,771.8,157.5,772,156.9,772L156.9,772z"/>
	</g>
	<g id="XMLID_126_">
		<path id="XMLID_317_" class="st26" d="M189.2,762.7c-1.8-1-4-0.5-4.8,1.2c-0.8,1.6,0,3.7,1.8,4.6l5,2.6c1.8,1,4,0.4,4.8-1.1
			c0.8-1.6,0-3.7-1.8-4.6L189.2,762.7z"/>
	</g>
	<g id="XMLID_127_">
		<path id="XMLID_316_" class="st27" d="M193,770.9c-0.6,0-1.1-0.2-1.6-0.4l-5-2.6c-1.5-0.8-2.2-2.5-1.5-3.7
			c0.4-0.8,1.3-1.3,2.3-1.3c0.6,0,1.1,0.1,1.6,0.4l4.9,2.6c0.8,0.4,1.4,1.1,1.6,1.9c0.2,0.6,0.1,1.3-0.1,1.8
			C194.9,770.4,194.1,770.9,193,770.9L193,770.9z"/>
	</g>
	<g id="XMLID_128_">
		<path id="XMLID_315_" class="st26" d="M210,789.4c-0.1-2.1-1.7-3.6-3.5-3.5s-3.2,1.9-3,3.9l0.4,5.6c0.1,2.1,1.7,3.6,3.5,3.5
			s3.2-1.9,3-3.9L210,789.4z"/>
	</g>
	<g id="XMLID_129_">
		<path id="XMLID_314_" class="st27" d="M207.1,798.2c-1.4,0-2.6-1.3-2.7-2.9l-0.4-5.6c-0.1-1.7,1-3.2,2.4-3.3l0,0
			c1.5,0,2.7,1.3,2.8,2.9l0.3,5.6c0.1,0.8-0.2,1.6-0.6,2.2C208.4,797.7,207.8,798,207.1,798.2L207.1,798.2L207.1,798.2z"/>
	</g>
	<g id="XMLID_130_">
		<path id="XMLID_313_" class="st26" d="M198.2,821.1c1.7-1.2,2.2-3.4,1.1-4.8c-1-1.5-3.2-1.7-4.9-0.5l-4.6,3.2
			c-1.7,1.2-2.2,3.3-1.2,4.8c1.1,1.5,3.3,1.7,4.9,0.5L198.2,821.1z"/>
	</g>
	<g id="XMLID_131_">
		<path id="XMLID_312_" class="st27" d="M191.3,824.4c-0.9,0-1.6-0.4-2.1-1c-0.8-1.2-0.4-2.9,1-3.9l4.6-3.2c0.6-0.4,1.3-0.6,2-0.6
			c0.8,0,1.6,0.4,2,1c0.8,1.2,0.4,2.9-1,3.9l-4.6,3.2C192.6,824.1,191.9,824.4,191.3,824.4L191.3,824.4z"/>
	</g>
	<g id="XMLID_132_">
		<path id="XMLID_311_" class="st26" d="M165,827.6c1.9,0.8,4,0.1,4.7-1.6c0.7-1.7-0.3-3.7-2.2-4.4l-5.2-2.2c-1.9-0.8-4-0.1-4.7,1.5
			c-0.7,1.7,0.3,3.6,2.2,4.5L165,827.6z"/>
	</g>
	<g id="XMLID_133_">
		<path id="XMLID_310_" class="st27" d="M166.6,827.2c-0.5,0-0.9-0.1-1.4-0.3l-5.1-2.2c-1.6-0.7-2.4-2.3-1.8-3.6
			c0.4-0.9,1.3-1.5,2.5-1.5c0.5,0,0.9,0.1,1.4,0.3l5.2,2.2c1.6,0.7,2.4,2.3,1.8,3.6C168.7,826.7,167.8,827.2,166.6,827.2
			L166.6,827.2z"/>
	</g>
	<g id="XMLID_134_">
		<path id="XMLID_309_" class="st26" d="M173.8,782.3c0,0.9,0.7,1.6,1.6,1.6c0.9,0,1.6-0.7,1.6-1.6s-0.7-1.6-1.6-1.6
			C174.6,780.7,173.8,781.4,173.8,782.3L173.8,782.3z"/>
	</g>
	<g id="XMLID_135_">
		<path id="XMLID_308_" class="st28" d="M175.5,783.2c-0.5,0-1-0.4-1-1c0-0.5,0.4-1,1-1s1,0.5,1,1
			C176.5,782.8,176,783.2,175.5,783.2L175.5,783.2z"/>
	</g>
	<g id="XMLID_136_">
		<path id="XMLID_307_" class="st26" d="M173.8,807.7c0,0.9,0.7,1.6,1.6,1.6c0.9,0,1.6-0.7,1.6-1.6c0-0.9-0.7-1.6-1.6-1.6
			C174.6,806,173.8,806.8,173.8,807.7L173.8,807.7z"/>
	</g>
	<g id="XMLID_137_">
		<path id="XMLID_306_" class="st28" d="M175.5,808.6c-0.5,0-1-0.4-1-1s0.4-1,1-1c0.5,0,1,0.5,1,1
			C176.5,808.2,176,808.6,175.5,808.6L175.5,808.6z"/>
	</g>
	<g id="XMLID_138_">
		<path id="XMLID_305_" class="st26" d="M188.2,793.2c-0.9,0-1.6,0.8-1.6,1.7s0.7,1.6,1.7,1.6c0.9,0,1.6-0.7,1.6-1.7
			C189.8,793.9,189.1,793.2,188.2,793.2L188.2,793.2z"/>
	</g>
	<g id="XMLID_139_">
		<path id="XMLID_304_" class="st28" d="M188.2,795.8c-0.5,0-1-0.4-1-1c0-0.5,0.4-1,1-1c0.5,0,1,0.4,1,1
			C189.1,795.3,188.7,795.8,188.2,795.8L188.2,795.8z"/>
	</g>
	<g id="XMLID_140_">
		<path id="XMLID_303_" class="st26" d="M162.8,793.5c-0.9,0-1.6,0.7-1.6,1.6c0,0.9,0.7,1.6,1.7,1.6c0.9,0,1.6-0.8,1.6-1.7
			C164.4,794.2,163.7,793.5,162.8,793.5L162.8,793.5z"/>
	</g>
	<g id="XMLID_141_">
		<path id="XMLID_302_" class="st28" d="M162.8,796.1c-0.5,0-1-0.4-1-1c0-0.5,0.4-1,1-1c0.5,0,1,0.4,1,1
			C163.8,795.7,163.4,796.1,162.8,796.1L162.8,796.1z"/>
	</g>
	<g id="XMLID_142_">
		<path id="XMLID_301_" class="st26" d="M185.3,803.2c-0.6-0.7-1.6-0.7-2.3-0.1c-0.6,0.6-0.7,1.6-0.1,2.3c0.6,0.7,1.6,0.7,2.3,0.1
			C185.8,804.9,185.9,803.9,185.3,803.2L185.3,803.2z"/>
	</g>
	<g id="XMLID_143_">
		<path id="XMLID_300_" class="st28" d="M184.1,805.3c-0.3,0-0.5-0.1-0.7-0.3c-0.4-0.4-0.3-1,0-1.4c0.2-0.2,0.4-0.3,0.7-0.3
			s0.5,0.1,0.7,0.3s0.3,0.5,0.3,0.7s-0.1,0.5-0.3,0.7S184.3,805.3,184.1,805.3L184.1,805.3z"/>
	</g>
	<g id="XMLID_144_">
		<path id="XMLID_299_" class="st26" d="M168.1,784.5c-0.6-0.7-1.6-0.7-2.3-0.1c-0.7,0.6-0.7,1.7-0.1,2.3c0.6,0.6,1.6,0.7,2.3,0.1
			C168.7,786.2,168.7,785.2,168.1,784.5L168.1,784.5z"/>
	</g>
	<g id="XMLID_145_">
		<path id="XMLID_298_" class="st28" d="M166.9,786.6c-0.3,0-0.5-0.1-0.7-0.3c-0.4-0.4-0.3-1,0.1-1.4c0.2-0.2,0.4-0.2,0.7-0.2
			s0.5,0.1,0.7,0.3c0.4,0.4,0.3,1-0.1,1.4C167.4,786.5,167.1,786.6,166.9,786.6L166.9,786.6z"/>
	</g>
	<g id="XMLID_146_">
		<path id="XMLID_297_" class="st26" d="M167.7,805.1c0.6-0.6,0.6-1.7,0-2.3s-1.7-0.6-2.3,0s-0.6,1.7,0,2.3
			C166,805.8,167.1,805.8,167.7,805.1L167.7,805.1z"/>
	</g>
	<g id="XMLID_147_">
		<path id="XMLID_296_" class="st28" d="M166.6,805c-0.3,0-0.5-0.1-0.7-0.3s-0.3-0.4-0.3-0.7s0.1-0.5,0.3-0.7s0.4-0.3,0.7-0.3
			s0.5,0.1,0.7,0.3c0.4,0.4,0.4,1,0,1.4C167.1,804.9,166.8,805,166.6,805L166.6,805z"/>
	</g>
	<g id="XMLID_148_">
		<path id="XMLID_295_" class="st26" d="M185.6,787.1c0.6-0.6,0.6-1.7,0-2.3s-1.7-0.6-2.3,0s-0.6,1.7,0,2.3
			C183.9,787.8,184.9,787.8,185.6,787.1L185.6,787.1z"/>
	</g>
	<g id="XMLID_149_">
		<path id="XMLID_294_" class="st28" d="M184.4,786.9c-0.3,0-0.5-0.1-0.7-0.3s-0.3-0.4-0.3-0.7s0.1-0.5,0.3-0.7s0.4-0.3,0.7-0.3
			s0.5,0.1,0.7,0.3c0.4,0.4,0.4,1,0,1.4C184.9,786.8,184.7,786.9,184.4,786.9L184.4,786.9z"/>
	</g>
	<g id="XMLID_150_">
		<path id="XMLID_293_" class="st24" d="M175.3,833.5c21.3,0,38.6-17.3,38.6-38.6s-17.3-38.7-38.6-38.7s-38.6,17.4-38.6,38.7
			C136.6,816.2,153.9,833.5,175.3,833.5L175.3,833.5z"/>
	</g>
	<g id="XMLID_151_">
		<path id="XMLID_292_" class="st21" d="M175.3,832.3c20.6,0,37.4-16.8,37.4-37.4c0-20.7-16.8-37.5-37.4-37.5
			c-20.7,0-37.5,16.8-37.5,37.5C137.8,815.5,154.6,832.3,175.3,832.3L175.3,832.3z"/>
	</g>
	<g id="XMLID_154_">
		<path id="XMLID_291_" class="st29" d="M200.4,820.1c-1,1-2.1,2-3.3,2.9c-6.5,5-14.6,7.8-22.8,7.6c-8.8-0.2-16.8-3.7-22.9-9.2
			c-0.5-0.4-0.9-0.8-1.3-1.3c-0.8-0.8-1.6-1.7-2.3-2.5c-3.9-4.8-6.7-10.6-7.7-17c-1.5-9.5,0.9-19.4,6.7-27.1c1-1.3,2.1-2.6,3.3-3.8
			c0.4-0.4,0.9-0.9,1.3-1.3c6.1-5.5,14.1-8.9,22.9-9.2c8.2-0.2,16.4,2.5,22.8,7.5c1.1,0.9,2.2,1.8,3.3,2.9c1.2,1.2,2.3,2.5,3.3,3.8
			c5.8,7.7,8.3,17.6,6.7,27.1c-1,6.4-3.8,12.2-7.7,17C202,818.4,201.2,819.3,200.4,820.1L200.4,820.1z"/>
	</g>
	<g id="XMLID_155_">
		<path id="XMLID_290_" class="st30" d="M175.3,820.1c-13.9,0-25.3-11.3-25.3-25.3c0-13.9,11.3-25.3,25.3-25.3
			c13.9,0,25.3,11.4,25.3,25.3C200.5,808.8,189.2,820.1,175.3,820.1L175.3,820.1z"/>
	</g>
	<g id="XMLID_156_">
		<path id="XMLID_289_" class="st22" d="M175.3,811.2c9,0,16.3-7.3,16.3-16.3s-7.3-16.3-16.3-16.3s-16.3,7.3-16.3,16.3
			C158.9,803.9,166.2,811.2,175.3,811.2L175.3,811.2z"/>
	</g>
	<g id="XMLID_158_">
		<path id="XMLID_559_" class="st24" d="M175.3,778.8c8.9,0,16.1,7.2,16.1,16.1c0,8.9-7.2,16.1-16.1,16.1c-8.9,0-16.1-7.2-16.1-16.1
			S166.4,778.8,175.3,778.8L175.3,778.8z M175.3,811.5c9.1,0,16.6-7.4,16.6-16.6c0-9.2-7.4-16.6-16.6-16.6
			c-9.2,0-16.6,7.4-16.6,16.6C158.6,804,166.1,811.5,175.3,811.5L175.3,811.5z"/>
	</g>
	<g id="XMLID_160_">
		<path id="XMLID_288_" class="st25" d="M175.3,810.5c8.6,0,15.7-7.1,15.7-15.7c0-8.6-7-15.7-15.7-15.7c-8.6,0-15.7,7-15.7,15.7
			S166.6,810.5,175.3,810.5L175.3,810.5z"/>
	</g>
	<g id="XMLID_161_">
		<path id="XMLID_287_" class="st31" d="M175.3,803c4.5,0,8.2-3.7,8.2-8.2s-3.7-8.2-8.2-8.2s-8.2,3.7-8.2,8.2
			C167.1,799.4,170.7,803,175.3,803L175.3,803z"/>
	</g>
	<g id="XMLID_163_">
		<path id="XMLID_551_" class="st24" d="M175.3,787c4.4,0,7.9,3.5,7.9,7.9s-3.5,7.9-7.9,7.9s-7.9-3.5-7.9-7.9
			C167.3,790.5,170.9,787,175.3,787L175.3,787z M175.3,803.3c4.6,0,8.4-3.8,8.4-8.4c0-4.6-3.8-8.4-8.4-8.4c-4.6,0-8.4,3.8-8.4,8.4
			C166.8,799.5,170.6,803.3,175.3,803.3L175.3,803.3z"/>
	</g>
	<g id="XMLID_165_">
		<path id="XMLID_286_" class="st32" d="M175.3,801.7c3.8,0,6.8-3.1,6.8-6.8c0-3.8-3.1-6.8-6.8-6.8c-3.8,0-6.8,3-6.8,6.8
			C168.4,798.6,171.5,801.7,175.3,801.7L175.3,801.7z"/>
	</g>
	<g id="XMLID_166_">
		<path id="XMLID_285_" class="st33" d="M175.3,799.8c2.7,0,4.9-2.2,4.9-4.9s-2.2-4.9-4.9-4.9s-4.9,2.2-4.9,4.9
			C170.3,797.6,172.5,799.8,175.3,799.8L175.3,799.8z"/>
	</g>
	<g id="XMLID_167_">
		<path id="XMLID_284_" class="st26" d="M143.3,796.8c0,1.9,1.3,3.5,3,3.6c1.7,0,3.1-1.5,3.2-3.4l0.1-5.3c0-1.9-1.3-3.5-3-3.6
			c-1.7,0-3.1,1.5-3.1,3.4L143.3,796.8z"/>
	</g>
	<g id="XMLID_168_">
		<path id="XMLID_283_" class="st27" d="M146.3,799.8c-1.3,0-2.4-1.3-2.4-2.9l0.1-5.2c0-1.6,1.1-2.8,2.5-2.8s2.4,1.3,2.4,2.9
			l-0.1,5.2C148.7,798.5,147.6,799.8,146.3,799.8L146.3,799.8z"/>
	</g>
	<g id="XMLID_169_">
		<path id="XMLID_282_" class="st26" d="M156.8,768.2c-1.7,1-2.3,3-1.5,4.4c0.9,1.5,2.9,1.8,4.6,0.9l4.5-2.7c1.7-1,2.3-3,1.5-4.4
			c-0.9-1.5-2.9-1.9-4.6-0.9L156.8,768.2z"/>
	</g>
	<g id="XMLID_170_">
		<path id="XMLID_281_" class="st27" d="M158,773.4c-0.9,0-1.7-0.4-2.1-1.1c-0.3-0.5-0.4-1.1-0.2-1.7c0.2-0.7,0.7-1.4,1.5-1.8
			l4.5-2.7c0.5-0.3,1.1-0.5,1.6-0.5c0.9,0,1.7,0.4,2.1,1.1c0.3,0.5,0.3,1.1,0.2,1.7c-0.2,0.8-0.7,1.4-1.5,1.8l-4.5,2.7
			C159.1,773.2,158.6,773.4,158,773.4L158,773.4z"/>
	</g>
	<g id="XMLID_171_">
		<path id="XMLID_280_" class="st26" d="M188.4,764.7c-1.7-0.9-3.7-0.4-4.5,1.1s0,3.4,1.7,4.4l4.7,2.5c1.7,0.9,3.7,0.4,4.5-1.1
			s0-3.4-1.7-4.3L188.4,764.7z"/>
	</g>
	<g id="XMLID_172_">
		<path id="XMLID_279_" class="st27" d="M191.9,772.4c-0.5,0-1-0.1-1.5-0.4l-4.7-2.5c-1.4-0.7-2-2.3-1.4-3.5
			c0.4-0.7,1.2-1.2,2.2-1.2c0.5,0,1,0.1,1.5,0.4l4.6,2.5c0.7,0.4,1.3,1,1.5,1.8c0.2,0.6,0.1,1.2-0.1,1.7
			C193.7,771.9,192.9,772.4,191.9,772.4L191.9,772.4z"/>
	</g>
	<g id="XMLID_173_">
		<path id="XMLID_278_" class="st26" d="M207.9,789.7c-0.1-1.9-1.6-3.4-3.3-3.3c-1.7,0.1-3,1.8-2.8,3.7l0.3,5.3
			c0.1,1.9,1.6,3.4,3.3,3.3c1.7-0.1,3-1.8,2.8-3.7L207.9,789.7z"/>
	</g>
	<g id="XMLID_174_">
		<path id="XMLID_277_" class="st27" d="M205.2,798.1c-1.3,0-2.4-1.2-2.5-2.8l-0.3-5.2c-0.1-1.6,0.9-2.9,2.2-3l0,0
			c1.4,0,2.5,1.2,2.6,2.8l0.3,5.2c0,0.8-0.2,1.5-0.6,2.1C206.5,797.7,205.9,798.1,205.2,798.1L205.2,798.1z"/>
	</g>
	<g id="XMLID_175_">
		<path id="XMLID_276_" class="st26" d="M196.7,819.4c1.6-1.1,2.1-3.2,1.1-4.5c-1-1.4-3-1.6-4.6-0.5l-4.3,3
			c-1.6,1.1-2.1,3.1-1.1,4.5s3,1.6,4.6,0.5L196.7,819.4z"/>
	</g>
	<g id="XMLID_176_">
		<path id="XMLID_275_" class="st27" d="M190.3,822.6c-0.8,0-1.5-0.4-1.9-0.9c-0.8-1.1-0.4-2.7,0.9-3.7l4.3-3
			c0.6-0.4,1.2-0.6,1.8-0.6c0.8,0,1.5,0.4,1.9,0.9c0.8,1.1,0.4,2.7-0.9,3.7l-4.3,3C191.6,822.4,190.9,822.6,190.3,822.6L190.3,822.6
			z"/>
	</g>
	<g id="XMLID_177_">
		<path id="XMLID_274_" class="st26" d="M165.6,825.6c1.8,0.8,3.8,0.1,4.4-1.5c0.7-1.5-0.2-3.4-2-4.2l-4.8-2.1
			c-1.8-0.8-3.8-0.1-4.4,1.4c-0.7,1.6,0.2,3.4,2,4.2L165.6,825.6z"/>
	</g>
	<g id="XMLID_178_">
		<path id="XMLID_273_" class="st27" d="M167.2,825.3c-0.4,0-0.9-0.1-1.3-0.3l-4.8-2.1c-1.5-0.6-2.2-2.1-1.7-3.4
			c0.4-0.9,1.2-1.4,2.3-1.4c0.4,0,0.9,0.1,1.3,0.3l4.8,2.1c1.5,0.6,2.2,2.1,1.7,3.4C169.1,824.7,168.2,825.3,167.2,825.3
			L167.2,825.3z"/>
	</g>
	<g id="XMLID_179_">
		<path id="XMLID_272_" class="st26" d="M173.9,783.1c0,0.8,0.7,1.5,1.5,1.5s1.5-0.7,1.5-1.5s-0.7-1.5-1.5-1.5
			C174.6,781.5,173.9,782.2,173.9,783.1L173.9,783.1z"/>
	</g>
	<g id="XMLID_180_">
		<path id="XMLID_271_" class="st31" d="M175.5,784c-0.5,0-0.9-0.4-0.9-0.9s0.4-0.9,0.9-0.9s0.9,0.4,0.9,0.9
			C176.4,783.5,176,784,175.5,784L175.5,784z"/>
	</g>
	<g id="XMLID_181_">
		<path id="XMLID_270_" class="st26" d="M173.9,806.9c0,0.8,0.7,1.5,1.5,1.5s1.5-0.7,1.5-1.5s-0.7-1.5-1.5-1.5
			C174.6,805.3,173.9,806.1,173.9,806.9L173.9,806.9z"/>
	</g>
	<g id="XMLID_182_">
		<path id="XMLID_269_" class="st31" d="M175.5,807.8c-0.5,0-0.9-0.4-0.9-0.9s0.4-0.9,0.9-0.9s0.9,0.4,0.9,0.9
			C176.4,807.4,176,807.8,175.5,807.8L175.5,807.8z"/>
	</g>
	<g id="XMLID_183_">
		<path id="XMLID_268_" class="st26" d="M187.4,793.3c-0.8,0-1.5,0.7-1.5,1.6c0,0.9,0.7,1.5,1.6,1.5c0.8,0,1.5-0.7,1.5-1.6
			C188.9,794,188.2,793.3,187.4,793.3L187.4,793.3z"/>
	</g>
	<g id="XMLID_184_">
		<path id="XMLID_267_" class="st31" d="M187.4,795.7c-0.5,0-0.9-0.4-0.9-0.9s0.4-0.9,0.9-0.9s0.9,0.4,0.9,0.9
			C188.3,795.3,187.9,795.7,187.4,795.7L187.4,795.7z"/>
	</g>
	<g id="XMLID_185_">
		<path id="XMLID_266_" class="st26" d="M163.5,793.6c-0.9,0-1.5,0.7-1.5,1.5c0,0.9,0.7,1.5,1.6,1.5c0.9,0,1.5-0.7,1.5-1.5
			C165.1,794.2,164.4,793.6,163.5,793.6L163.5,793.6z"/>
	</g>
	<g id="XMLID_186_">
		<path id="XMLID_265_" class="st31" d="M163.6,796c-0.5,0-0.9-0.4-0.9-0.9s0.4-0.9,0.9-0.9s0.9,0.4,0.9,0.9S164.1,796,163.6,796
			L163.6,796z"/>
	</g>
	<g id="XMLID_187_">
		<path id="XMLID_264_" class="st26" d="M184.7,802.7c-0.6-0.6-1.5-0.7-2.2-0.1c-0.6,0.6-0.7,1.5-0.1,2.2c0.6,0.6,1.6,0.6,2.2,0.1
			C185.2,804.3,185.2,803.3,184.7,802.7L184.7,802.7z"/>
	</g>
	<g id="XMLID_188_">
		<path id="XMLID_263_" class="st31" d="M183.6,804.7c-0.3,0-0.5-0.1-0.7-0.3c-0.3-0.4-0.3-0.9,0.1-1.3l0.6-0.3
			c0.3,0,0.5,0.1,0.7,0.3s0.3,0.4,0.2,0.7c0,0.3-0.1,0.5-0.3,0.6L183.6,804.7z"/>
	</g>
	<g id="XMLID_189_">
		<path id="XMLID_262_" class="st26" d="M168.5,785.2c-0.6-0.6-1.6-0.7-2.2-0.1c-0.6,0.6-0.7,1.5-0.1,2.2s1.5,0.7,2.2,0.1
			C169.1,786.8,169.1,785.8,168.5,785.2L168.5,785.2z"/>
	</g>
	<g id="XMLID_190_">
		<path id="XMLID_261_" class="st31" d="M167.4,787.1c-0.3,0-0.5-0.1-0.7-0.3c-0.3-0.4-0.3-0.9,0.1-1.3l0.6-0.2
			c0.3,0,0.5,0.1,0.7,0.3c0.3,0.4,0.3,0.9-0.1,1.3C167.9,787,167.6,787.1,167.4,787.1L167.4,787.1z"/>
	</g>
	<g id="XMLID_191_">
		<path id="XMLID_260_" class="st26" d="M168.2,804.5c0.6-0.6,0.6-1.6,0-2.2c-0.6-0.6-1.6-0.6-2.2,0c-0.6,0.6-0.6,1.6,0,2.2
			C166.6,805.1,167.6,805.1,168.2,804.5L168.2,804.5z"/>
	</g>
	<g id="XMLID_192_">
		<path id="XMLID_259_" class="st31" d="M167.1,804.3c-0.2,0-0.5-0.1-0.6-0.3l-0.3-0.6c0-0.3,0.1-0.5,0.3-0.7s0.4-0.3,0.7-0.3
			c0.2,0,0.5,0.1,0.6,0.3c0.3,0.4,0.4,0.9,0,1.3C167.6,804.2,167.3,804.3,167.1,804.3L167.1,804.3z"/>
	</g>
	<g id="XMLID_193_">
		<path id="XMLID_258_" class="st26" d="M184.9,787.6c0.6-0.6,0.6-1.6,0-2.2c-0.6-0.6-1.6-0.6-2.2,0c-0.6,0.6-0.6,1.6,0,2.2
			C183.4,788.2,184.3,788.2,184.9,787.6L184.9,787.6z"/>
	</g>
	<g id="XMLID_194_">
		<path id="XMLID_257_" class="st31" d="M183.9,787.4c-0.2,0-0.5-0.1-0.6-0.3c-0.2-0.2-0.3-0.4-0.3-0.6c0-0.2,0.1-0.5,0.3-0.6
			c0.2-0.2,0.4-0.3,0.6-0.3l0.6,0.3c0.3,0.4,0.3,0.9,0,1.3L183.9,787.4z"/>
	</g>
	<g id="XMLID_197_">
		<path id="XMLID_256_" class="st35" d="M751.8,538.8c-7.9-0.9-15-1.4-19.2-1.7c-0.3-0.5-0.7-0.9-1-1.2c-4.1-3.4-9.3,7.2-2.2,7.7
			c0.9,0,1.8-0.3,2.5-0.9c5.7,0.4,13.7,1.1,22,2.1c2.9,0.3,5.9,0.7,8.7,1.1c10.5,1.5,20.1,3.5,24,5.9c0.2,0.1,0.4,0.2,0.6,0.4
			c7.2,4.7,9,11.2,12.2,34.8c-0.7,0.7-1.2,1.7-1.2,2.8c0,3.7,4.9,5.4,6.7,1.8c0.6-1.2,0.6-2.7-0.2-3.8c-1.7-12.8-3.1-21.4-5.2-27.6
			c-0.9-2.5-1.9-4.6-3.1-6.4c-1.8-2.8-4.2-4.9-7.2-6.8c-1.4-0.9-3.3-1.7-5.6-2.4c-2-0.6-4.2-1.2-6.6-1.8
			C769.4,541,760.2,539.8,751.8,538.8L751.8,538.8z"/>
	</g>
	<g id="XMLID_198_">
		<path id="XMLID_255_" class="st27" d="M780.7,722.5c0,2.1,0.9,4.9,2.3,4.9h7.8c2.2,0,2.8-2.8,2.8-4.9v-38.9c0-2.2-0.7-3.7-2.8-3.7
			H783c-1.5,0-2.3,1.6-2.3,3.7V722.5z"/>
	</g>
	<g id="XMLID_199_">
		<path id="XMLID_254_" class="st1" d="M790.8,682.3h-4c-2.1,0-3.8,1.7-3.8,3.8V721c0,2.1,1.7,3.8,3.8,3.8h4c2.1,0,3.8-1.7,3.8-3.8
			v-34.9C794.7,684,793,682.3,790.8,682.3L790.8,682.3z"/>
	</g>
	<g id="XMLID_200_">
		<path id="XMLID_253_" class="st36" d="M790.8,682.3h-4c-2.1,0-3.8,1.7-3.8,3.8v5.6h11.7v-5.6C794.7,684,793,682.3,790.8,682.3
			L790.8,682.3z"/>
	</g>
	<g id="XMLID_201_">
		<path id="XMLID_252_" class="st24" d="M780.8,757.4h-61.3c1.2,2.7,2.5,6.1,3.7,8.9h57.6V757.4z"/>
	</g>
	<g id="XMLID_202_">
		<path id="XMLID_251_" class="st27" d="M745.7,780.4c-5.4,0-6-4.8-6-10.7s0.6-10.6,6-10.6h26.5c5.4,0,6,4.8,6,10.6
			c0,5.9-0.6,10.7-6,10.7H745.7z"/>
	</g>
	<g id="XMLID_203_">
		<path id="XMLID_250_" class="st37" d="M776.4,769.7c0,4.8,0.2,8.6-4.1,8.6h-26.5c-4.4,0-4.1-3.8-4.1-8.6c0-4.7-0.2-8.6,4.1-8.6
			h26.5C776.6,761.1,776.4,765,776.4,769.7L776.4,769.7z"/>
	</g>
	<g id="XMLID_204_">
		<path id="XMLID_249_" class="st38" d="M774.4,772.7H744c-1.8,1.2-3.1,2.8-3.1,3.6c0.1,2.6,2,3.6,5,3.6h26.6c3,0,6-1.2,5-3.6
			C777.1,775.6,776.2,774.2,774.4,772.7L774.4,772.7z"/>
	</g>
	<g id="XMLID_205_">
		<path id="XMLID_248_" class="st39" d="M774.2,771.1h-30.3c-1.8,1.2-3.2,2.8-3.1,3.6c0.1,2.6,2,3.6,5,3.6h26.5c3,0,6-1.2,5-3.6
			C776.9,773.9,776,772.5,774.2,771.1L774.2,771.1z"/>
	</g>
	<g id="XMLID_206_">
		<path id="XMLID_152_" class="st19" d="M761.6,730h-14.7c-3.3,0-6.9-1.7-8.8-4.3l-16.8-22.1c-3.4-4.4-5.8-4.4-11.2-4.4h-0.8H679
			c-1,0-1.9,0-2.8,0c-3.9,0.1-6.5,0.1-8-1.4c-1.1-1.1-1.6-2.9-1.6-6v-90.1h1v90.1c0,2.8,0.4,4.4,1.3,5.3c1.3,1.2,3.7,1.2,7.3,1.1
			c0.9,0,1.8,0,2.8,0h31c5.4,0,8.3,0,12,4.8l16.8,22.1c1.8,2.4,5,4,8.1,4h14.7V730z"/>
	</g>
	<g id="XMLID_207_">
		<rect id="XMLID_64_" x="761.1" y="614.8" class="st19" width="1" height="114.9"/>
	</g>
	<g id="XMLID_208_">
		<path id="XMLID_247_" class="st40" d="M671.9,560h66.5c2.7,0,4.2,2.1,5.2,4.6l4.9,13.1l13.9,37.5c1.1,2.9-2.5,5.6-5.6,5.6H672
			c-3.1,0-5.6-2.5-5.6-5.6v-49.6C666.3,562.5,668.8,560,671.9,560L671.9,560z"/>
	</g>
	<g id="XMLID_209_">
		<path id="XMLID_246_" class="st20" d="M666.3,565.6v49.6c0,1.6,0.7,3.1,1.8,4.1l72.7-58.5c-0.7-0.5-1.5-0.8-2.5-0.8h-66.5
			C668.8,560,666.3,562.5,666.3,565.6L666.3,565.6z"/>
	</g>
	<g id="XMLID_210_">
		<path id="XMLID_245_" class="st41" d="M708.3,666.8c0-2.8-2.5-5-5.6-5h-20.3c-3.1,0-5.6,2.2-5.6,5s2.5,5,5.6,5h20.3
			C705.8,671.8,708.3,669.6,708.3,666.8L708.3,666.8z"/>
	</g>
	<g id="XMLID_211_">
		<path id="XMLID_244_" class="st19" d="M708.3,666.8c0-2.8-2.5-5-5.6-5h-20.3c-3.1,0-5.6,2.2-5.6,5H708.3z"/>
	</g>
	<g id="XMLID_212_">
		<rect id="XMLID_243_" x="59.9" y="457.2" class="st42" width="510.7" height="14.1"/>
	</g>
	<g id="XMLID_213_">
		<rect id="XMLID_242_" x="59.9" y="471.2" class="st19" width="510.7" height="2.9"/>
	</g>
	<g id="XMLID_214_">
		<rect id="XMLID_241_" x="59.9" y="490.4" class="st42" width="510.7" height="14.1"/>
	</g>
	<g id="XMLID_215_">
		<rect id="XMLID_240_" x="59.9" y="504.5" class="st19" width="510.7" height="2.9"/>
	</g>
	<g id="XMLID_216_">
		<rect id="XMLID_239_" x="59.9" y="523.7" class="st42" width="510.7" height="14.1"/>
	</g>
	<g id="XMLID_217_">
		<rect id="XMLID_238_" x="59.9" y="537.8" class="st19" width="510.7" height="2.9"/>
	</g>
	<g id="XMLID_218_">
		<rect id="XMLID_237_" x="59.9" y="557" class="st42" width="510.7" height="14.1"/>
	</g>
	<g id="XMLID_219_">
		<rect id="XMLID_236_" x="59.9" y="571.1" class="st19" width="510.7" height="2.9"/>
	</g>
	<g id="XMLID_220_">
		<rect id="XMLID_235_" x="59.9" y="590.3" class="st42" width="510.7" height="14.1"/>
	</g>
	<g id="XMLID_221_">
		<rect id="XMLID_234_" x="59.9" y="604.4" class="st19" width="510.7" height="2.9"/>
	</g>
	<g id="XMLID_222_">
		<rect id="XMLID_233_" x="59.9" y="623.6" class="st42" width="510.7" height="14.1"/>
	</g>
	<g id="XMLID_223_">
		<rect id="XMLID_232_" x="59.9" y="637.7" class="st19" width="510.7" height="2.9"/>
	</g>
	<g id="XMLID_224_">
		<rect id="XMLID_231_" x="59.9" y="656.9" class="st42" width="510.7" height="14.1"/>
	</g>
	<g id="XMLID_225_">
		<rect id="XMLID_230_" x="59.9" y="671" class="st19" width="510.7" height="2.9"/>
	</g>
	<g id="XMLID_226_">
		<rect id="XMLID_196_" x="59.9" y="690.2" class="st42" width="510.7" height="14.1"/>
	</g>
	<g id="XMLID_227_">
		<rect id="XMLID_195_" x="59.9" y="704.3" class="st19" width="510.7" height="2.9"/>
	</g>
	<g id="XMLID_228_">
		<rect id="XMLID_153_" x="21.1" y="717.8" class="st43" width="9.1" height="39.4"/>
	</g>
	<g id="XMLID_229_">
		<rect id="XMLID_63_" x="21.1" y="757.2" class="st41" width="9" height="24"/>
	</g>
</g>
<g>
	<linearGradient id="XMLID_25_" gradientUnits="userSpaceOnUse" x1="2664.8152" y1="1076.4077" x2="2664.8152" y2="190.6936">
		<stop  offset="0" style="stop-color:#FFFFFF"/>
		<stop  offset="0.1452" style="stop-color:#CFE3F3"/>
		<stop  offset="0.3814" style="stop-color:#86B9E0"/>
		<stop  offset="0.5935" style="stop-color:#4C98D1"/>
		<stop  offset="0.7738" style="stop-color:#2380C7"/>
		<stop  offset="0.9151" style="stop-color:#0971C0"/>
		<stop  offset="1" style="stop-color:#006CBE"/>
	</linearGradient>
	<rect id="XMLID_1963_" x="1414.8" y="3.5" class="st44" width="2500" height="1400"/>
	<g>
		<polygon class="st45" points="3787.1,1037.7 3787.1,813.8 3777.5,813.8 3777.5,842 3749.3,842 3749.3,831.4 3742.4,831.4 
			3742.4,823.8 3720.4,823.8 3720.4,842 3709.7,842 3709.7,824.1 3693.2,824.1 3693.2,837.2 3688.1,837.2 3688.1,842 3678.4,842 
			3678.4,644.5 3655.7,644.5 3655.7,619 3608.6,619 3608.6,640.1 3600,640.1 3600,615.6 3552.1,615.6 3552.1,543.2 3365,543.2 
			3365,665.2 3339.5,665.2 3339.5,713.1 3290,713.1 3290,530.5 3281,530.5 3281,521.8 3275.9,521.8 3275.9,487.4 3253.5,487.4 
			3253.5,508.4 3253.5,521.5 3245.2,521.5 3245.2,538.4 3175.4,538.4 3167.5,538.4 3167.5,521.1 3123.1,521.1 3123.1,681.4 
			3108,681.4 3108,640.8 3090.4,640.8 3090.4,626.6 3066.3,626.6 3066.3,640.4 3052.9,640.4 3052.9,662.1 3030.6,662.1 
			3030.6,635.2 2897.7,635.2 2787,635.2 2787,613.9 2729.5,613.9 2729.5,553.2 2697.5,553.2 2697.5,630.8 2682.4,630.8 
			2682.4,704.9 2675.1,704.9 2675.1,726.9 2669.6,726.9 2669.6,776.9 2633.5,776.9 2633.5,722.1 2633.5,521.8 2513.4,521.8 
			2513.4,604.9 2491.1,604.9 2491.1,732.8 2484.9,732.8 2484.9,656.3 2453.6,656.3 2453.6,734.9 2444.3,734.9 2444.3,413.6 
			2342.4,413.6 2342.4,639.4 2329.4,639.4 2329.4,573.2 2273.6,573.2 2273.6,744.8 2239.6,744.8 2239.6,710.4 2221.7,710.4 
			2221.7,723.8 2168.3,723.8 2168.3,540.5 2090.9,540.5 2090.9,244.4 2065.5,244.4 2065.5,225.8 2035.9,225.8 2032.8,52.7 
			2029.7,225.8 2029.3,225.8 2000.1,225.8 2000.1,241.6 1977.4,241.6 1977.4,673.2 1878.6,673.2 1878.6,700 1817.4,700 
			1817.4,561.1 1813.3,561.1 1813.3,553.5 1782.6,527.7 1750,551.8 1750,559.8 1744.5,559.8 1744.5,571.1 1733.4,571.1 
			1733.4,746.2 1696.3,746.2 1654.3,746.2 1654.3,666.3 1647.4,666.3 1647.4,655.2 1638.1,655.2 1638.1,634.9 1577.2,634.9 
			1577.2,655.6 1571.7,655.6 1571.7,664.2 1561.8,664.2 1561.8,713.8 1551.8,713.8 1551.8,795.2 1542.5,795.2 1542.5,831.4 
			1542.5,1037.7 		"/>
		<path class="st46" d="M3873.1,1037.7V918.4h-18.2v-27h-104.7c0,0,1.3,25.5,0,24.2c-1.2-1.3-135.9,0-135.9,0v-70.4h-79.2V660.7
			h-36.4v-20.9h-60v18.4h-36.9V821h-7.8v-23.1h-23.9V589.2h9.2v-14.8h-175.9v13.6h7.2c0,0,0,113,0,114.4c0,1.4-42.2,0-42.2,0v-17.3
			h-38.6v17h-22.5v79.9h-34.4v-85.7v-177h-4.7v-13.9h-152.5v212.4h-42v-96.3h-54.7v139.4h-13.3v-62.3h-5.8v-7h-6.4v-8.9l-8.9-14.2
			v-15h-7.8V668l-9.4,13.6v9.5h-5.8v5.6h-8.1v62.1h-13.9v15h-12.8v16.4h-5.8v-76.8h-17.5v14.2h-7.8v50.1h-11.4v109.7h-8.6v-52.6
			h-10.7v-43.1h-6.8v-86h-4.4v-23.1h-31.9v7.5h-10.6V676h-24.4v6.4h-3.9V668h-11.7v15h-34.7v69h-6.4v11.1h-35.8v115.2h-13.9V744.2
			h-73.1v39h-3.9v-12.5h-8.1v-9.7h-6.4v-52.6h-7.8v-17.8H2348v-12.8h-6.9v-27h-6.1v-5.6h-5.6v-16.7h-20.3v16.7h-8.3V683h-19.2v106.6
			h-19.7V872h-4.2V737.5h-23.3v17h-2.8v-5.3h-3.3v-4.5H2218v3.9h-2.8v4.7h-1.9v8.1H2203c0,0,0,92.7,0,94.1c0,1.4-18.6,0-18.6,0
			V692.4H2166v-14.2l-36.7-13.6h-11.7v54h-17.8v-16.7h-38.6V774h-11.7v-8.3H2021v91.8h-2.8V714.4h-5v-14.8h-6.1v-10.9h-6.4v-8.6
			h-20.8v9.2h-6.9v8.6h-6.9v14.8h-6.9v146.4h-8.6V750.1h-7.8v-96.9h-6.7v-9.7h-6.7v-9.2l-13.1-17.6h-43.6l-15,14.8v10.9h-5.8v9.2
			h-10.3v95.2h-7.8v101.6h-5.3v-99.1h-30.3V629.8h-10.3v-13.2h-10.1c-4.1-16-18.6-27.7-35.8-27.7c-17.2,0-31.7,11.8-35.8,27.7h-1.6
			h-7.4v12.1h-13.7v203h-18.2h-26.7V753h-128.2v120.7h-54.1v46.7v117.3H3873.1z"/>
		<polygon class="st47" points="3914.8,1037.7 3914.8,1006.5 3709,1006.5 3709,983 3602.5,983 3602.5,967.3 3474.9,967.3 
			3474.9,953.5 3302.1,953.5 3302.1,999.2 3196.7,999.2 3196.7,986.1 3147.6,986.1 3147.6,979.2 3122.7,979.2 3122.7,985 
			3116.6,985 3116.6,733.5 3088.6,733.5 3088.6,716.2 3052.2,716.2 3052.2,732.4 2998.2,732.4 2998.2,675.9 2976.5,675.9 
			2976.5,660.4 2926.3,660.4 2926.3,676.9 2898,676.9 2898,704 2841.5,704 2841.5,916.6 2743.6,916.6 2731.7,928.1 2731.7,993.2 
			2468.4,993.2 2468.4,984.4 2446.8,984.4 2437.6,978.1 2381.8,978.1 2370.9,984.4 2272.2,984.4 2272.2,966 2260.2,958.5 
			2244.6,958.5 2244.6,931.4 2221.6,931.4 2221.6,960.6 2217,960.6 2217,931.8 2201.7,931.8 2201.7,964.4 2125.7,964.4 
			2125.7,954.3 2120.1,942.2 2113.4,953.7 2113.4,968.8 2100.7,968.8 2100.7,977.1 2087.5,977.1 2087.5,902 2021.8,902 
			2021.8,925.8 2008.8,925.8 2008.8,898.4 1990.2,898.4 1990.2,966.7 1942.3,966.7 1942.3,924.9 1931.4,924.9 1931.4,855.2 
			1853,855.2 1853,867.5 1848.8,867.5 1848.8,877.7 1834.6,877.7 1834.6,950.8 1794.4,950.8 1794.4,921.2 1717.5,921.2 1717.5,912 
			1694.6,912 1694.6,920.1 1685.7,920.1 1685.7,835.8 1664.7,835.8 1664.7,813.4 1657.4,813.4 1657.4,801.3 1653.6,801.3 
			1653.6,790.9 1644.2,790.9 1644.2,801.3 1640.7,801.3 1640.7,813.1 1635,813.1 1635,821.4 1633,821.4 1633,829.5 1619.4,829.5 
			1619.4,813.1 1604.2,813.1 1604.2,825.2 1574.9,825.2 1574.9,881.6 1558.2,881.6 1558.2,891.7 1553.1,891.7 1553.1,972.6 
			1414.8,972.6 1414.8,974.6 1414.8,1029.9 1414.8,1037.7 		"/>
	</g>
	<g>
		<g>
			<polygon points="1665.6,540.5 1673.6,540.5 1676.1,530.4 1665.6,530.4 			"/>
			<path class="st48" d="M1499.7,533.4c1.4,4.3,4.9,5.7,6.8,5.7h12.9c2.1,0,19.1,4.5,24.8,4.5h127.9c1.7,0,2.7-0.1,3.4-1.5
				c0.8-1.5,0.8-3.1-0.2-3.1h-4.4c-1.4,0-0.4-3.4,0.4-4.7c0.8-1.3,2.8-1.6,4.3-1.8c1.4-0.2,2-0.9,1-6.4c-0.1-0.4-0.2-0.8-0.3-1.3
				c-0.5-2.5-2-4.4-4-6c-0.4-0.3-0.8-0.6-1.2-0.8c-3.4-2.2-8.1-3.7-13.1-5.3c-4.5-1.5-11.1-2.2-16.9-2.8c-0.8-0.1-1.6-0.1-2.4-0.2
				c-4.7-0.4-8.7-0.7-10.2-1.1c-3.6-1-15.5-9.7-24.6-14.8c-9.1-5.1-17.4-4.6-21-4.6c0,0-18,0-21.9,0c-3.9,0-12.3,0.1-16.7,1.9
				c-4.4,1.7-22.8,10.7-25.1,11.3c-2.2,0.6-7.9,0.5-12.4,0.5c-2.8,0-3.8,1.1-4.2,2.4c-0.2,0.8-0.3,1.5-0.4,2.2
				c-0.1,0.4-0.2,1.5-0.4,2.9c-0.2,1.3,0,2.9-0.1,4.5c-0.1,0.9-0.5,1.6-0.6,2.4c-0.1,0.6-0.1,1.1-0.2,1.6c-0.2,1.6-0.3,3-0.3,3.5
				c0,2-1.7,2.2-2,3C1498.5,526,1498.3,529.2,1499.7,533.4z"/>
			<path class="st49" d="M1500.9,518.7h7.3c1.6,0,2.9-1.3,2.9-2.9v-7.8c0-1.6-1.3-2.9-2.9-2.9h-5.6c-0.2,0.8-0.3,1.5-0.4,2.2
				c-0.1,0.4-0.2,1.5-0.4,2.9c-0.2,1.3,0,2.9-0.1,4.5c-0.1,0.9-0.5,1.6-0.6,2.4C1501.1,517.7,1501,518.2,1500.9,518.7z"/>
			<path class="st50" d="M1498.6,528.4c0.1,1.4,0.4,3.1,1.1,5c0.3,1,0.8,1.9,1.3,2.6c1.7,2.3,4.1,3.1,5.5,3.1h12.9
				c2.1,0,19.1,4.5,24.8,4.5h127.9c1.7,0,2.7-0.1,3.4-1.5c0.8-1.5,0.8-3.1-0.2-3.1h-4.4c-0.9,0-0.8-1.6-0.3-3
				c0.2-0.7,0.5-1.3,0.7-1.7c0.8-1.3,2.8-1.6,4.3-1.8c1.1-0.2,1.8-0.7,1.4-4.1H1498.6z"/>
			<g>
				<path class="st51" d="M1536.5,507.7c-0.9,1.2-1.3,3.8-0.7,5.5c0.4,1.3,2.5,3.3,5.3,6c1,0.9,2,2,3.2,3.1c3.8,3.8,6,10.1,6.9,12.7
					c0.2,0.5,0.3,0.9,0.4,1.1c0.7,1.6,1.5,2,2.5,2h27.5c0-15.4-1.7-27.4-1.7-27.5l0.3,0c0,0.1,1.7,12.1,1.7,27.5h40.6
					c0.8,0,1.4-0.6,1.5-1.1c0.2-0.7,1.5-10.1,1.8-15.1c0.3-4.9-0.2-6.4-2.9-8.8c-2.6-2.4-12.6-8.4-12.7-8.5l0.2-0.3
					c0.1,0.1,10.1,6.1,12.8,8.5c2.8,2.5,3.3,4.1,3,9.1c-0.3,5-1.6,14.5-1.8,15.2c-0.2,0.7-0.9,1.4-1.8,1.4H1554
					c-1.3,0-2.2-0.6-2.8-2.2c-0.1-0.3-0.2-0.6-0.4-1.1c-0.9-2.6-3-8.8-6.8-12.6c-1.1-1.1-2.2-2.2-3.2-3.1c-2.9-2.8-5-4.8-5.4-6.2
					c-0.6-1.8-0.2-4.6,0.8-5.8L1536.5,507.7z"/>
				<path class="st51" d="M1515.8,513.2c0,1.7,1.3,3,3,3c1.7,0,3-1.3,3-3s-1.3-3-3-3C1517.1,510.3,1515.8,511.6,1515.8,513.2z
					 M1516.1,513.2c0-1.5,1.2-2.7,2.7-2.7c1.5,0,2.7,1.2,2.7,2.7c0,1.5-1.2,2.7-2.7,2.7C1517.3,515.9,1516.1,514.7,1516.1,513.2z"/>
			</g>
			<path class="st52" d="M1539.4,511.6h74.6c2,0,2.8-1.3,2.7-2.2c-0.1-0.9-8.7-7.7-14.5-11.1c-0.6-0.4-1.3-0.7-1.9-1.1v0h0
				c-3.7-1.9-7.7-3.3-10.7-4c-0.7-0.2-1.4-0.3-2-0.4c-0.6-0.1-1.1-0.1-1.6-0.1h-27.7c-6.4,0-21.7,8.1-24,11.5
				C1532.7,506.3,1537.6,511.6,1539.4,511.6z"/>
			<path class="st48" d="M1584.5,511.6c-2.6,0-5.2,0-7.8,0l-2.3-19c1.5,0,2.9,0,4.2,0L1584.5,511.6z"/>
			<g>
				<path class="st52" d="M1628.5,508.6c-1.5,0.4-2.7,0.8-3.5,0.8c-1.5,0-2.8-0.4-3.3-0.8c-0.5-0.4-17.9-12.5-19.5-13.6
					c-1.6-1-0.8-2.1,0-2.1c0,0,0.1,0,0.2,0c0.5,0.3,1,0.5,1.5,0.8C1613,498.9,1624.9,507.6,1628.5,508.6L1628.5,508.6z"/>
				<path class="st52" d="M1544,491.2c0.3,0.3,0.2,0.8-0.4,1.3c-1.1,0.8-15.5,7.9-17.2,8.8c-1.6,0.8-3.7,0.9-6.4,0.9
					C1524.1,500.4,1539.5,493,1544,491.2z"/>
			</g>
			<path class="st53" d="M1660,522.3c2.5,1.9,6.9,3,10.7,3.5c2.5,0.3,4.6,0.6,5.8,0.3c-0.1-0.4-0.2-0.8-0.3-1.3c-0.5-2.5-2-4.4-4-6
				c-0.4-0.3-0.8-0.6-1.2-0.8c-0.4-0.2-0.7-0.4-1-0.5c-2.4-1-9.3-2-12.3-2.5C1652.5,514.2,1657.5,520.4,1660,522.3z"/>
			<path class="st10" d="M1658,516.3c2.3,0.3,7.6,1.1,9.4,1.9c1.8,0.8,6.2,4.8,5.9,5.9c-0.3,1.1-2.5,0.8-5.4,0.5
				c-2.9-0.3-6.3-1.2-8.2-2.6C1657.8,520.4,1654,515.7,1658,516.3z"/>
			<path class="st54" d="M1659.7,521.9c-1.9-1.5-5.7-6.2-1.7-5.6c0.7,0.1,1.6,0.2,2.6,0.4c1.5,1.1,5,4,6.1,7.7
				C1664.1,524,1661.4,523.2,1659.7,521.9z"/>
			<path class="st10" d="M1509.7,509.1v5.9c0,1.2-1,2.2-2.2,2.2h-6.1c0.2-2.3,0.2-4.9,0.5-6.9c0.2-1.4,0.3-2.4,0.4-2.9
				c0-0.2,0-0.3,0.1-0.5h5.2C1508.7,506.9,1509.7,507.8,1509.7,509.1z"/>
			<path class="st54" d="M1509.7,514.9c0,1.2-1,2.2-2.2,2.2h-6.4c0.2-2.3,0.5-4.9,0.8-6.9h7.8V514.9z"/>
			<path class="st50" d="M1501,536c1.7,2.3,4.1,3.1,5.5,3.1h12.9c2.1,0,19.1,4.5,24.8,4.5h127.9c1.7,0,2.7-0.1,3.4-1.5
				c0.8-1.5,0.8-3.1-0.2-3.1h-4.4c-0.9,0-0.8-1.6-0.3-3H1501z"/>
			<path d="M1517.6,537c0-8.4,6.8-15.2,15.2-15.2c8.4,0,15.2,6.8,15.2,15.2v6.6c-2,0-3.2,0-3.7,0c-5.7,0-22.7-4.5-24.8-4.5
				c-0.4,0-1,0-1.7,0V537z"/>
			<path class="st53" d="M1627,537.9v5.7h36.1v-5.7c0-10-8.1-18.1-18.1-18.1C1635.1,519.8,1627,527.9,1627,537.9z"/>
			<path class="st53" d="M1514.7,537.9v1.3h4.7c2.1,0,19.1,4.5,24.8,4.5h6.6v-5.7c0-10-8.1-18.1-18.1-18.1
				C1522.8,519.8,1514.7,527.9,1514.7,537.9z"/>
			<path d="M1629.9,537c0-8.4,6.8-15.2,15.2-15.2s15.2,6.8,15.2,15.2v6.6c-7.7,0-18.4,0-30.3,0V537z"/>
			<g>
				<path class="st55" d="M1645.1,545.2c-4.4,0-7.9-3.5-7.9-7.9c0-4.4,3.5-7.9,7.9-7.9c4.4,0,7.9,3.5,7.9,7.9
					C1653,541.7,1649.5,545.2,1645.1,545.2z"/>
				<g>
					<path class="st56" d="M1637,539c0.2,1,0.6,1.9,1.1,2.7l1.1-0.6l4.2-2.2c0.3,0.4,0.7,0.7,1.2,0.8l-0.6,4.6l-0.2,1.2
						c0.5,0.1,0.9,0.1,1.4,0.1c0.5,0,1,0,1.5-0.1l-0.1-1.2l-0.4-4.6c0.5-0.1,0.9-0.4,1.2-0.8l3.9,2.1l1.1,0.6c0.5-0.8,0.8-1.7,1-2.7
						l-1.2-0.3l-4.2-1.1c0-0.1,0-0.1,0-0.2c0-0.6-0.2-1.2-0.6-1.6l2.7-3.5l0.7-1c-0.7-0.6-1.5-1.2-2.4-1.5l-0.5,1.1l-1.8,4
						c-0.2-0.1-0.4-0.1-0.7-0.1c-0.3,0-0.6,0.1-0.9,0.2l-2.2-4l-0.6-1.1c-0.9,0.4-1.7,1-2.4,1.6l0.8,0.9l3.1,3.5
						c-0.3,0.4-0.4,0.9-0.4,1.4c0,0.1,0,0.1,0,0.2l-4.6,1.2L1637,539z"/>
				</g>
				<path class="st57" d="M1638.1,538.6c0.2,0.9,0.5,1.7,1,2.4l4.2-2.2c0.3,0.4,0.7,0.7,1.2,0.8l-0.6,4.6c0.4,0.1,0.8,0.1,1.2,0.1
					c0.5,0,0.9,0,1.4-0.1l-0.4-4.6c0.5-0.1,0.9-0.4,1.2-0.8l3.9,2.1c0.4-0.7,0.8-1.5,0.9-2.4l-4.2-1.1c0-0.1,0-0.1,0-0.2
					c0-0.6-0.2-1.2-0.6-1.6l2.7-3.5c-0.6-0.6-1.4-1.1-2.2-1.4l-1.8,4c-0.2-0.1-0.4-0.1-0.7-0.1c-0.3,0-0.6,0.1-0.9,0.2l-2.2-4
					c-0.8,0.4-1.5,0.9-2.2,1.5l3.1,3.5c-0.3,0.4-0.4,0.9-0.4,1.4c0,0.1,0,0.1,0,0.2L1638.1,538.6z"/>
				<circle class="st50" cx="1645.2" cy="537.2" r="1.7"/>
				<g>
					<g>
						<circle class="st58" cx="1645.2" cy="536" r="0.5"/>
						<circle class="st58" cx="1645.2" cy="538.5" r="0.5"/>
					</g>
					<g>
						<circle class="st58" cx="1646.5" cy="537.2" r="0.5"/>
						<circle class="st58" cx="1643.9" cy="537.2" r="0.5"/>
					</g>
				</g>
				<g>
					<path class="st58" d="M1631.8,537.3c0,7.3,6,13.3,13.3,13.3c7.3,0,13.3-6,13.3-13.3c0-7.3-6-13.3-13.3-13.3
						C1637.8,524,1631.8,530,1631.8,537.3z M1636.6,537.3c0-4.7,3.8-8.5,8.5-8.5c4.7,0,8.5,3.8,8.5,8.5c0,4.7-3.8,8.5-8.5,8.5
						C1640.4,545.8,1636.6,542,1636.6,537.3z"/>
				</g>
				<g class="st59">
					<path class="st60" d="M1634.8,537.3c0,5.7,4.6,10.3,10.3,10.3c5.7,0,10.3-4.6,10.3-10.3c0-5.7-4.6-10.3-10.3-10.3
						C1639.4,527,1634.8,531.6,1634.8,537.3z M1636.6,537.3c0-4.7,3.8-8.5,8.5-8.5c4.7,0,8.5,3.8,8.5,8.5c0,4.7-3.8,8.5-8.5,8.5
						C1640.4,545.8,1636.6,542,1636.6,537.3z"/>
				</g>
				<path class="st61" d="M1635.8,537.3c0,5.1,4.2,9.3,9.3,9.3c5.1,0,9.3-4.2,9.3-9.3c0-5.1-4.2-9.3-9.3-9.3
					C1640,528,1635.8,532.2,1635.8,537.3z M1637.2,537.3c0-4.4,3.5-7.9,7.9-7.9c4.4,0,7.9,3.5,7.9,7.9c0,4.4-3.5,7.9-7.9,7.9
					C1640.7,545.2,1637.2,541.7,1637.2,537.3z"/>
				<path class="st50" d="M1636.5,537.3c0,4.8,3.9,8.6,8.6,8.6s8.6-3.9,8.6-8.6s-3.9-8.6-8.6-8.6S1636.5,532.5,1636.5,537.3z
					 M1637.2,537.3c0-4.4,3.5-7.9,7.9-7.9c4.4,0,7.9,3.5,7.9,7.9c0,4.4-3.5,7.9-7.9,7.9C1640.7,545.2,1637.2,541.7,1637.2,537.3z"/>
			</g>
			<g>
				<path class="st55" d="M1532.7,545.2c-4.4,0-7.9-3.5-7.9-7.9c0-4.4,3.5-7.9,7.9-7.9c4.4,0,7.9,3.5,7.9,7.9
					C1540.6,541.7,1537.1,545.2,1532.7,545.2z"/>
				<g>
					<path class="st56" d="M1524.6,539c0.2,1,0.6,1.9,1.1,2.7l1.1-0.6l4.2-2.2c0.3,0.4,0.7,0.7,1.2,0.8l-0.6,4.6l-0.2,1.2
						c0.5,0.1,0.9,0.1,1.4,0.1c0.5,0,1,0,1.5-0.1l-0.1-1.2l-0.4-4.6c0.5-0.1,0.9-0.4,1.2-0.8l3.9,2.1l1.1,0.6c0.5-0.8,0.8-1.7,1-2.7
						l-1.2-0.3l-4.2-1.1c0-0.1,0-0.1,0-0.2c0-0.6-0.2-1.2-0.6-1.6l2.7-3.5l0.7-1c-0.7-0.6-1.5-1.2-2.4-1.5l-0.5,1.1l-1.8,4
						c-0.2-0.1-0.4-0.1-0.7-0.1c-0.3,0-0.6,0.1-0.9,0.2l-2.2-4l-0.6-1.1c-0.9,0.4-1.7,1-2.4,1.6l0.8,0.9l3.1,3.5
						c-0.3,0.4-0.4,0.9-0.4,1.4c0,0.1,0,0.1,0,0.2l-4.6,1.2L1524.6,539z"/>
				</g>
				<path class="st57" d="M1525.8,538.6c0.2,0.9,0.5,1.7,1,2.4l4.2-2.2c0.3,0.4,0.7,0.7,1.2,0.8l-0.6,4.6c0.4,0.1,0.8,0.1,1.2,0.1
					c0.5,0,0.9,0,1.4-0.1l-0.4-4.6c0.5-0.1,0.9-0.4,1.2-0.8l3.9,2.1c0.4-0.7,0.8-1.5,0.9-2.4l-4.2-1.1c0-0.1,0-0.1,0-0.2
					c0-0.6-0.2-1.2-0.6-1.6l2.7-3.5c-0.6-0.6-1.4-1.1-2.2-1.4l-1.8,4c-0.2-0.1-0.4-0.1-0.7-0.1c-0.3,0-0.6,0.1-0.9,0.2l-2.2-4
					c-0.8,0.4-1.5,0.9-2.2,1.5l3.1,3.5c-0.3,0.4-0.4,0.9-0.4,1.4c0,0.1,0,0.1,0,0.2L1525.8,538.6z"/>
				<circle class="st50" cx="1532.8" cy="537.2" r="1.7"/>
				<g>
					<g>
						<circle class="st58" cx="1532.8" cy="536" r="0.5"/>
						<circle class="st58" cx="1532.8" cy="538.5" r="0.5"/>
					</g>
					<g>
						<circle class="st58" cx="1534.1" cy="537.2" r="0.5"/>
						<circle class="st58" cx="1531.6" cy="537.2" r="0.5"/>
					</g>
				</g>
				<g>
					<path class="st58" d="M1519.4,537.3c0,7.3,6,13.3,13.3,13.3c7.3,0,13.3-6,13.3-13.3c0-7.3-6-13.3-13.3-13.3
						C1525.4,524,1519.4,530,1519.4,537.3z M1524.2,537.3c0-4.7,3.8-8.5,8.5-8.5c4.7,0,8.5,3.8,8.5,8.5c0,4.7-3.8,8.5-8.5,8.5
						C1528,545.8,1524.2,542,1524.2,537.3z"/>
				</g>
				<g class="st59">
					<path class="st60" d="M1522.4,537.3c0,5.7,4.6,10.3,10.3,10.3c5.7,0,10.3-4.6,10.3-10.3c0-5.7-4.6-10.3-10.3-10.3
						C1527.1,527,1522.4,531.6,1522.4,537.3z M1524.2,537.3c0-4.7,3.8-8.5,8.5-8.5c4.7,0,8.5,3.8,8.5,8.5c0,4.7-3.8,8.5-8.5,8.5
						C1528,545.8,1524.2,542,1524.2,537.3z"/>
				</g>
				<path class="st61" d="M1523.4,537.3c0,5.1,4.2,9.3,9.3,9.3c5.1,0,9.3-4.2,9.3-9.3c0-5.1-4.2-9.3-9.3-9.3
					C1527.6,528,1523.4,532.2,1523.4,537.3z M1524.8,537.3c0-4.4,3.5-7.9,7.9-7.9c4.4,0,7.9,3.5,7.9,7.9c0,4.4-3.5,7.9-7.9,7.9
					C1528.4,545.2,1524.8,541.7,1524.8,537.3z"/>
				<path class="st50" d="M1524.1,537.3c0,4.8,3.9,8.6,8.6,8.6s8.6-3.9,8.6-8.6s-3.9-8.6-8.6-8.6S1524.1,532.5,1524.1,537.3z
					 M1524.8,537.3c0-4.4,3.5-7.9,7.9-7.9c4.4,0,7.9,3.5,7.9,7.9c0,4.4-3.5,7.9-7.9,7.9C1528.4,545.2,1524.8,541.7,1524.8,537.3z"/>
			</g>
		</g>
	</g>
	<g>
		<path class="st62" d="M2583.8,517.9v13.8c0,1.7-1.4,3-3,3h-117.6c-0.7,0-1.3-0.2-1.9-0.7l-9.5-7.5c-0.5-0.4-1.2-0.7-1.9-0.7h-34.7
			c-0.5,0-1-0.1-1.5-0.4c-0.9-0.5-1.6-1.5-1.6-2.6c0-0.8,0.3-1.6,0.9-2.1c0.5-0.5,1.3-0.9,2.1-0.9H2530c0.6,0,1.3-0.2,1.8-0.6
			l1.5-1.1l3.7-2.7c0.5-0.4,1.1-0.6,1.8-0.6h42C2582.5,514.9,2583.8,516.2,2583.8,517.9z"/>
		
			<rect x="2417.2" y="519.8" transform="matrix(-1 -1.224647e-16 1.224647e-16 -1 4849.7607 1052.2974)" class="st63" width="15.4" height="12.7"/>
		<path class="st64" d="M2533.3,444.9v73.6c0,2-1.6,3.6-3.6,3.6H2415l-1.2,3.5l-2.1,5.9h-8.8v-86.5c0-2.7,2.2-4.9,4.9-4.9h120.7
			C2531.1,440,2533.3,442.2,2533.3,444.9z"/>
		<path class="st58" d="M2433.7,530.8h-17.7c-0.6,0-1.1,0.5-1.1,1.1v2.8c0,0.6,0.5,1.1,1.1,1.1h17.7c0.6,0,1.1-0.5,1.1-1.1v-2.8
			C2434.8,531.3,2434.3,530.8,2433.7,530.8z"/>
		<path class="st58" d="M2410.4,518.4h117.5c0.5,0,1-0.4,1-1v-0.6c0-0.5-0.4-1-1-1h-117.5c-0.5,0-1,0.4-1,1v0.6
			C2409.5,518,2409.9,518.4,2410.4,518.4z"/>
		<path class="st58" d="M2474.9,539.5h57c1.4,0,2.5-1.1,2.5-2.5v-6.9c0-1.4-1.1-2.5-2.5-2.5h-57c-1.4,0-2.5,1.1-2.5,2.5v6.9
			C2472.3,538.4,2473.5,539.5,2474.9,539.5z"/>
		<path class="st58" d="M2410.8,528.6h-7.2c-0.8,0-1.4,0.6-1.4,1.4v4.4c0,0.8,0.6,1.4,1.4,1.4h7.2c0.8,0,1.4-0.6,1.4-1.4V530
			C2412.2,529.2,2411.6,528.6,2410.8,528.6z"/>
		<path class="st62" d="M2402.9,444.9v1.2h130.5v-1.2c0-2.7-2.2-4.9-4.9-4.9h-120.7C2405,440,2402.9,442.2,2402.9,444.9z"/>
		<path class="st65" d="M2408.5,444.1h3.8c0.5,0,0.9-0.4,0.9-0.9v-0.5c0-0.5-0.4-0.9-0.9-0.9h-3.8c-0.5,0-0.9,0.4-0.9,0.9v0.5
			C2407.7,443.7,2408.1,444.1,2408.5,444.1z"/>
		<path class="st66" d="M2405.4,527.2h3.8c0.5,0,0.9-0.4,0.9-0.9v-0.5c0-0.5-0.4-0.9-0.9-0.9h-3.8c-0.5,0-0.9,0.4-0.9,0.9v0.5
			C2404.5,526.9,2404.9,527.2,2405.4,527.2z"/>
		<path class="st65" d="M2524,444.1h3.8c0.5,0,0.9-0.4,0.9-0.9v-0.5c0-0.5-0.4-0.9-0.9-0.9h-3.8c-0.5,0-0.9,0.4-0.9,0.9v0.5
			C2523.2,443.7,2523.6,444.1,2524,444.1z"/>
		<path class="st67" d="M2617.6,513.7v20.6c0,1.9-1.1,3.5-2.7,4.2c-0.6,0.3-1.2,0.4-1.9,0.4h-0.4l-0.2-2l-0.6-5
			c-0.7-5.6-5.1-9.8-10.4-9.8h-10c-2.9,0-5.6,1.3-7.5,3.3c-1.2,1.3-2.2,3-2.6,4.9c-0.1,0.4-0.2,0.7-0.2,1.1l-0.5,3.2l-0.2,1.5
			c-0.3,1.6-1.7,2.8-3.3,2.8h-35v-58.2c0-1.3,1.1-2.3,2.3-2.3l19.5,0.4c1.6,0,3.2,0.6,4.4,1.7l17.4,15.7l6.5,5.8l21.7,6.7
			c1.6,0.4,2.9,1.5,3.5,3c0,0,0,0,0,0C2617.5,512.4,2617.6,513,2617.6,513.7z"/>
		<path d="M2591.3,522.2h10c5.3,0,9.8,4.2,10.4,9.8l0.5,4.3h-32.1c0,0,0-0.1,0-0.1l0.8-4.7C2581.8,526.1,2586.2,522.2,2591.3,522.2z
			"/>
		<g>
			<rect x="2540.6" y="480" class="st68" width="0" height="56.3"/>
			<path class="st62" d="M2540.6,536.3L2540.6,536.3c-0.7,0-1.3-0.4-1.3-1V481c0-0.5,0.6-1,1.3-1l0,0c0.7,0,1.3,0.4,1.3,1v54.3
				C2541.9,535.8,2541.3,536.3,2540.6,536.3z"/>
		</g>
		<g>
			<path class="st61" d="M2572.6,534.9h-26.7c-0.7,0-1.3-0.3-1.8-0.7c-0.5-0.5-0.7-1.1-0.7-1.8c0-6.3,0.1-27.1,0.1-28.9l-0.1-18.7
				c0-1.2,0.4-2.2,1.1-3c0.8-0.9,1.9-1.4,3.1-1.4h16.2c1.1,0,2.1,0.4,2.9,1.2l20.1,19.1c0.8,0.8,1.3,1.9,1.3,3
				c0,1.8-1.8,16.5-4,17.4c-5.3,2-7.4,7.9-8.2,11.3C2575.6,533.8,2574.2,534.9,2572.6,534.9z M2547.6,480.9c-1,0-2,0.4-2.7,1.2
				c-0.6,0.7-1,1.6-1,2.6l0.1,18.7c0,1.7-0.1,20.8-0.1,28.9c0,0.5,0.2,1,0.6,1.4c0.4,0.4,0.9,0.6,1.4,0.6h26.7
				c1.4,0,2.5-0.9,2.8-2.2c0.8-3.4,3-9.5,8.5-11.7c1.7-0.6,3.7-14.1,3.7-16.8c0-1-0.4-1.9-1.1-2.6l-20.1-19.1c-0.7-0.6-1.6-1-2.5-1
				H2547.6z"/>
		</g>
		<path class="st69" d="M2547.6,481.7h16.2c0.8,0,1.5,0.3,2,0.8l20.1,19.1c0.6,0.5,0.9,1.3,0.9,2.1l0,0c0,1.6-1.3,2.8-2.8,2.8h-36.3
			c-1.6,0-2.9-1.3-2.9-2.9l-0.1-18.9C2544.7,483,2546,481.7,2547.6,481.7z"/>
		<path class="st55" d="M2588.3,537.1c0-4.4,3.6-8,8-8s8,3.6,8,8c0,4.4-3.6,8-8,8S2588.3,541.5,2588.3,537.1z"/>
		<g>
			<path class="st57" d="M2593.5,537.3c0-0.1,0-0.1,0-0.2c0-0.6,0.2-1.2,0.6-1.6l-3.4-4.5c0.7-0.7,1.5-1.2,2.4-1.6l2.4,5.2
				c0.2-0.1,0.5-0.1,0.7-0.1c0.3,0,0.6,0.1,0.9,0.2l2.8-5.1c0.9,0.4,1.7,1,2.4,1.7l-3.9,4.5c0.3,0.4,0.4,0.9,0.4,1.5
				c0,0.1,0,0.1,0,0.2l5.8,1.6c-0.2,1-0.6,1.9-1.1,2.7l-5.3-2.8c-0.3,0.4-0.7,0.7-1.2,0.8l0.8,5.9c-0.5,0.1-0.9,0.1-1.4,0.1
				c-0.5,0-1,0-1.5-0.1l0.5-5.8c-0.5-0.1-0.9-0.4-1.2-0.8l-5,2.7c-0.5-0.8-0.8-1.7-1-2.7L2593.5,537.3z"/>
		</g>
		<g>
			<g>
				<g>
					<circle class="st58" cx="2596.2" cy="535.8" r="0.5"/>
					<circle class="st58" cx="2596.2" cy="538.4" r="0.5"/>
				</g>
				<g>
					<circle class="st58" cx="2594.9" cy="537.1" r="0.5"/>
					<circle class="st58" cx="2597.5" cy="537.1" r="0.5"/>
				</g>
			</g>
			<g>
				<path class="st58" d="M2582.8,537.1c0,7.4,6,13.5,13.5,13.5c7.4,0,13.5-6,13.5-13.5c0-7.4-6-13.5-13.5-13.5
					C2588.8,523.7,2582.8,529.7,2582.8,537.1z M2587.7,537.1c0-4.8,3.9-8.6,8.6-8.6c4.8,0,8.6,3.9,8.6,8.6c0,4.8-3.9,8.6-8.6,8.6
					C2591.5,545.7,2587.7,541.9,2587.7,537.1z"/>
			</g>
		</g>
		<path class="st61" d="M2586.9,537.1c0,5.2,4.2,9.4,9.4,9.4c5.2,0,9.4-4.2,9.4-9.4c0-5.2-4.2-9.4-9.4-9.4
			C2591.1,527.7,2586.9,531.9,2586.9,537.1z M2588.3,537.1c0-4.4,3.6-8,8-8s8,3.6,8,8c0,4.4-3.6,8-8,8S2588.3,541.5,2588.3,537.1z"
			/>
		<path class="st55" d="M2442.3,537.1c0-4.4,3.6-8,8-8s8,3.6,8,8c0,4.4-3.6,8-8,8S2442.3,541.5,2442.3,537.1z"/>
		<g>
			<path class="st57" d="M2447.5,537.3c0-0.1,0-0.1,0-0.2c0-0.6,0.2-1.2,0.6-1.6l-3.4-4.5c0.7-0.7,1.5-1.2,2.4-1.6l2.4,5.2
				c0.2-0.1,0.5-0.1,0.7-0.1c0.3,0,0.6,0.1,0.9,0.2l2.8-5.1c0.9,0.4,1.7,1,2.4,1.7l-3.9,4.5c0.3,0.4,0.4,0.9,0.4,1.5
				c0,0.1,0,0.1,0,0.2l5.8,1.6c-0.2,1-0.6,1.9-1.1,2.7l-5.3-2.8c-0.3,0.4-0.7,0.7-1.2,0.8l0.8,5.9c-0.5,0.1-0.9,0.1-1.4,0.1
				c-0.5,0-1,0-1.5-0.1l0.5-5.8c-0.5-0.1-0.9-0.4-1.2-0.8l-5,2.7c-0.5-0.8-0.8-1.7-1-2.7L2447.5,537.3z"/>
		</g>
		<g>
			<g>
				<g>
					<circle class="st58" cx="2450.2" cy="535.8" r="0.5"/>
					<circle class="st58" cx="2450.2" cy="538.4" r="0.5"/>
				</g>
				<g>
					<circle class="st58" cx="2448.9" cy="537.1" r="0.5"/>
					<circle class="st58" cx="2451.5" cy="537.1" r="0.5"/>
				</g>
			</g>
			<g>
				<path class="st58" d="M2436.8,537.1c0,7.4,6,13.5,13.5,13.5c7.4,0,13.5-6,13.5-13.5c0-7.4-6-13.5-13.5-13.5
					C2442.8,523.7,2436.8,529.7,2436.8,537.1z M2441.7,537.1c0-4.8,3.9-8.6,8.6-8.6c4.8,0,8.6,3.9,8.6,8.6c0,4.8-3.9,8.6-8.6,8.6
					C2445.5,545.7,2441.7,541.9,2441.7,537.1z"/>
			</g>
		</g>
		<path class="st61" d="M2440.9,537.1c0,5.2,4.2,9.4,9.4,9.4c5.2,0,9.4-4.2,9.4-9.4c0-5.2-4.2-9.4-9.4-9.4
			C2445.1,527.7,2440.9,531.9,2440.9,537.1z M2442.3,537.1c0-4.4,3.6-8,8-8s8,3.6,8,8c0,4.4-3.6,8-8,8S2442.3,541.5,2442.3,537.1z"
			/>
		<g>
			<path class="st61" d="M2584.1,508.9h-37.5c-0.2,0-0.3-0.1-0.3-0.3l0,0c0-0.2,0.1-0.3,0.3-0.3h37.5c0.2,0,0.3,0.1,0.3,0.3l0,0
				C2584.4,508.8,2584.3,508.9,2584.1,508.9z"/>
		</g>
		<g>
			<path class="st62" d="M2588.4,509.5h-3.4c-0.4,0-0.7-0.5-0.7-1l0.8-5.4c0.1-0.4,0.3-0.7,0.7-0.7h2.5c2.1,0,3.8,1.6,3.8,3.6l0,0
				C2592.2,507.9,2590.5,509.5,2588.4,509.5z"/>
			<path class="st61" d="M2588.4,507.4h-3.4c-0.2,0-0.3-0.1-0.5-0.2l-0.2,1.4c-0.1,0.5,0.2,1,0.7,1h3.4c2.1,0,3.8-1.6,3.8-3.6l0,0
				c0-0.4-0.1-0.7-0.2-1.1C2591.6,506.4,2590.1,507.4,2588.4,507.4z"/>
		</g>
		<path class="st70" d="M2612.6,522.8l5,2v-11c0,0,0,0,0,0h-4.4c-1,0-1.7,0.8-1.7,1.7v5.7C2611.5,521.9,2612,522.5,2612.6,522.8z"/>
		<path class="st10" d="M2612.5,515.4v5.7c0,0.3,0.2,0.6,0.6,0.7l1.1,0.3l2.4,0.7c0.7,0.2,1.3-0.3,1.3-1v-6.1c0-0.6-0.5-1-1-1h-3.5
			C2613,514.7,2612.5,515,2612.5,515.4z"/>
		<path class="st55" d="M2621.8,538.9h-9.9l-0.1-7.4l6,0.1c2.2,0,4,1.8,4,4V538.9z"/>
		<g>
			<path class="st71" d="M2563,483.4h-7.3l-9,18.7l0,0.1c0,1.4,1.1,2.5,2.5,2.5h3.7l10.3-21.3C2563.2,483.4,2563.1,483.4,2563,483.4
				z"/>
			<polygon class="st71" points="2569.3,488.4 2565.5,484.8 2556,504.7 2561.5,504.7 			"/>
		</g>
		<path class="st66" d="M2612.5,515.4v5.7c0,0.3,0.2,0.6,0.6,0.7l1.1,0.3v-7.5h-0.8C2613,514.7,2612.5,515,2612.5,515.4z"/>
		<path class="st58" d="M2547,513.7h11l0,0c0-1.4-1.2-2.6-2.6-2.6h-5.7C2548.1,511.1,2547,512.2,2547,513.7L2547,513.7z"/>
		<path class="st61" d="M2409.3,454.3H2526c1.2,0,2.2-1,2.2-2.2l0,0c0-1.2-1-2.2-2.2-2.2h-116.7c-1.2,0-2.2,1-2.2,2.2l0,0
			C2407.2,453.3,2408.1,454.3,2409.3,454.3z"/>
		<path class="st61" d="M2409.3,461.6H2526c1.2,0,2.2-1,2.2-2.2l0,0c0-1.2-1-2.2-2.2-2.2h-116.7c-1.2,0-2.2,1-2.2,2.2l0,0
			C2407.2,460.6,2408.1,461.6,2409.3,461.6z"/>
		<path class="st61" d="M2409.3,468.9H2526c1.2,0,2.2-1,2.2-2.2l0,0c0-1.2-1-2.2-2.2-2.2h-116.7c-1.2,0-2.2,1-2.2,2.2l0,0
			C2407.2,467.9,2408.1,468.9,2409.3,468.9z"/>
		<path class="st61" d="M2409.3,476.2H2526c1.2,0,2.2-1,2.2-2.2l0,0c0-1.2-1-2.2-2.2-2.2h-116.7c-1.2,0-2.2,1-2.2,2.2l0,0
			C2407.2,475.2,2408.1,476.2,2409.3,476.2z"/>
		<path class="st61" d="M2409.3,483.4H2526c1.2,0,2.2-1,2.2-2.2l0,0c0-1.2-1-2.2-2.2-2.2h-116.7c-1.2,0-2.2,1-2.2,2.2l0,0
			C2407.2,482.5,2408.1,483.4,2409.3,483.4z"/>
		<path class="st61" d="M2409.3,490.7H2526c1.2,0,2.2-1,2.2-2.2l0,0c0-1.2-1-2.2-2.2-2.2h-116.7c-1.2,0-2.2,1-2.2,2.2l0,0
			C2407.2,489.8,2408.1,490.7,2409.3,490.7z"/>
		<path class="st61" d="M2409.3,498H2526c1.2,0,2.2-1,2.2-2.2l0,0c0-1.2-1-2.2-2.2-2.2h-116.7c-1.2,0-2.2,1-2.2,2.2l0,0
			C2407.2,497,2408.1,498,2409.3,498z"/>
		<path class="st61" d="M2409.3,505.3H2526c1.2,0,2.2-1,2.2-2.2l0,0c0-1.2-1-2.2-2.2-2.2h-116.7c-1.2,0-2.2,1-2.2,2.2l0,0
			C2407.2,504.3,2408.1,505.3,2409.3,505.3z"/>
		<path class="st61" d="M2409.3,512.6H2526c1.2,0,2.2-1,2.2-2.2l0,0c0-1.2-1-2.2-2.2-2.2h-116.7c-1.2,0-2.2,1-2.2,2.2l0,0
			C2407.2,511.6,2408.1,512.6,2409.3,512.6z"/>
		<path class="st61" d="M2585.6,496.3l8.1,7.7c0,0,15.5,4.6,19.3,5.6c3.5,0.8,4.2,2,4.3,2.2c-0.6-1.5-1.9-2.6-3.5-3l-21.7-6.7
			L2585.6,496.3z"/>
	</g>
	<rect x="1414.8" y="525.7" class="st72" width="2500" height="68"/>
	<rect x="1414.8" y="559.7" class="st73" width="2500" height="34"/>
	<g>
		<rect x="1495.1" y="593.7" class="st74" width="133.1" height="4.9"/>
		<rect x="1495.1" y="598.6" class="st75" width="133.1" height="10"/>
		<polygon class="st76" points="1628.3,608.6 1590.1,631.3 1533.3,631.3 1495.1,608.6 		"/>
		<rect x="1533.3" y="631.3" class="st72" width="56.8" height="144.7"/>
		<polygon class="st77" points="1561.7,593.7 1561.7,775.9 1533.3,775.9 1533.3,631.3 1495.1,608.6 1495.1,593.7 		"/>
	</g>
	<g>
		<rect x="1868.9" y="593.7" class="st74" width="133.1" height="4.9"/>
		<rect x="1868.9" y="598.6" class="st75" width="133.1" height="10"/>
		<polygon class="st76" points="2002,608.6 1963.8,631.3 1907,631.3 1868.9,608.6 		"/>
		<rect x="1907" y="631.3" class="st72" width="56.8" height="144.7"/>
		<polygon class="st77" points="1935.4,593.7 1935.4,775.9 1907,775.9 1907,631.3 1868.9,608.6 1868.9,593.7 		"/>
	</g>
	<g>
		<rect x="2242.6" y="593.7" class="st74" width="133.1" height="4.9"/>
		<rect x="2242.6" y="598.6" class="st75" width="133.1" height="10"/>
		<polygon class="st76" points="2375.7,608.6 2337.5,631.3 2280.8,631.3 2242.6,608.6 		"/>
		<rect x="2280.8" y="631.3" class="st72" width="56.8" height="144.7"/>
		<polygon class="st77" points="2309.1,593.7 2309.1,775.9 2280.8,775.9 2280.8,631.3 2242.6,608.6 2242.6,593.7 		"/>
	</g>
	<polygon class="st78" points="2337.5,660 2337.5,775.9 2280.8,775.9 2280.8,631.3 2242.6,608.6 2242.6,593.7 2274.9,593.7 
		2279.5,598.6 2289,608.6 2310.4,631.3 	"/>
	<g>
		<rect x="2616.3" y="593.7" class="st74" width="133.1" height="4.9"/>
		<rect x="2616.3" y="598.6" class="st75" width="133.1" height="10"/>
		<polygon class="st76" points="2749.4,608.6 2711.2,631.3 2654.5,631.3 2616.3,608.6 		"/>
		<rect x="2654.5" y="631.3" class="st72" width="56.8" height="144.7"/>
		<polygon class="st77" points="2682.9,593.7 2682.9,775.9 2654.5,775.9 2654.5,631.3 2616.3,608.6 2616.3,593.7 		"/>
	</g>
	<g>
		<rect x="2990" y="593.7" class="st74" width="133.1" height="4.9"/>
		<rect x="2990" y="598.6" class="st75" width="133.1" height="10"/>
		<polygon class="st76" points="3123.1,608.6 3085,631.3 3028.2,631.3 2990,608.6 		"/>
		<rect x="3028.2" y="631.3" class="st72" width="56.8" height="144.7"/>
		<polygon class="st77" points="3056.6,593.7 3056.6,775.9 3028.2,775.9 3028.2,631.3 2990,608.6 2990,593.7 		"/>
	</g>
	<g>
		<rect x="3363.7" y="593.7" class="st74" width="133.1" height="4.9"/>
		<rect x="3363.7" y="598.6" class="st75" width="133.1" height="10"/>
		<polygon class="st76" points="3496.9,608.6 3458.7,631.3 3401.9,631.3 3363.7,608.6 		"/>
		<rect x="3401.9" y="631.3" class="st72" width="56.8" height="144.7"/>
		<polygon class="st77" points="3430.3,593.7 3430.3,775.9 3401.9,775.9 3401.9,631.3 3363.7,608.6 3363.7,593.7 		"/>
	</g>
	<g>
		<rect x="3737.4" y="593.7" class="st74" width="133.1" height="4.9"/>
		<rect x="3737.4" y="598.6" class="st75" width="133.1" height="10"/>
		<polygon class="st76" points="3870.6,608.6 3832.4,631.3 3775.6,631.3 3737.4,608.6 		"/>
		<rect x="3775.6" y="631.3" class="st72" width="56.8" height="144.7"/>
		<polygon class="st77" points="3804,593.7 3804,775.9 3775.6,775.9 3775.6,631.3 3737.4,608.6 3737.4,593.7 		"/>
	</g>
	<rect x="1414.8" y="856.1" class="st79" width="2500" height="547"/>
	<rect x="1414.8" y="1216.1" class="st80" width="2500" height="187"/>
	<rect x="1414.8" y="1309.6" class="st58" width="2500" height="94"/>
	<rect x="1414.8" y="878.1" class="st10" width="2500" height="10"/>
	<rect x="1414.8" y="1093.8" class="st10" width="2500" height="10"/>
	<polygon class="st10" points="1501.7,934.1 1421.3,934.1 1416.6,944.1 1496.9,944.1 	"/>
	<polygon class="st10" points="2616.6,934.1 1973.3,934.1 1968.6,944.1 2611.8,944.1 	"/>
	<polygon class="st10" points="2798.9,934.1 2713.1,934.1 2717.8,944.1 2803.7,944.1 	"/>
	<polygon class="st10" points="2984.9,934.1 2902.6,934.1 2907.3,944.1 2989.7,944.1 	"/>
	<polygon class="st10" points="3170.9,934.1 3088.6,934.1 3093.3,944.1 3175.7,944.1 	"/>
	<polygon class="st10" points="3356.9,934.1 3274.6,934.1 3279.3,944.1 3361.7,944.1 	"/>
	<polygon class="st10" points="3542.9,934.1 3460.6,934.1 3465.3,944.1 3547.7,944.1 	"/>
	<g>
		<polygon class="st10" points="3728.9,934.1 3646.6,934.1 3651.3,944.1 3733.7,944.1 		"/>
		<polygon class="st10" points="3832.6,934.1 3837.3,944.1 3914.8,944.1 3914.8,934.1 		"/>
	</g>
	<rect x="1416.6" y="907.7" class="st81" width="2497.4" height="85.6"/>
	<rect x="1416.6" y="1129.6" class="st81" width="2497.4" height="53.5"/>
	<rect x="1414.8" y="768.9" class="st82" width="2500" height="87.2"/>
	<rect x="1414.8" y="812.5" class="st73" width="2500" height="43.6"/>
	<rect x="2907.8" y="636.5" class="st72" width="9.8" height="132.4"/>
	<rect x="2725.3" y="636.5" class="st72" width="9.8" height="132.4"/>
	<rect x="2725.3" y="636.5" class="st83" width="9.8" height="19.1"/>
	<rect x="2907.8" y="636.5" class="st83" width="9.8" height="19.1"/>
	<g>
		<g>
			<path class="st84" d="M3014.8,617l-23.9,15.8l-20.5,13.6c-1.2,0.8-2.6,1.2-4,1.2h-280.5c-4,0-7.3-3.3-7.3-7.3v-58.8
				c0-4,3.3-7.3,7.3-7.3h280.5c1.4,0,2.8,0.4,4,1.2l44.4,29.4C3019.2,607.7,3019.2,614.1,3014.8,617z"/>
			<g>
				<path class="st10" d="M2959.8,643.3h-269.3c-4.4,0-8-3.3-8-7.3v-50.3c0-4,3.6-7.3,8-7.3h269.3c1.6,0,3.1,0.4,4.4,1.2l42.7,25.2
					c2.3,1.3,3.6,3.6,3.6,6.1c0,2.5-1.4,4.7-3.6,6.1l-42.7,25.2C2962.9,642.9,2961.4,643.3,2959.8,643.3z M2690.5,580.5
					c-3.3,0-6,2.4-6,5.3v50.3c0,2.9,2.7,5.3,6,5.3h269.3c1.2,0,2.4-0.3,3.4-0.9l42.7-25.2c1.7-1,2.7-2.6,2.7-4.4
					c0-1.8-1-3.4-2.7-4.4l-42.7-25.2c-1-0.6-2.2-0.9-3.4-0.9H2690.5z"/>
			</g>
		</g>
		<text transform="matrix(1 0 0 1 2701.8916 627.0767)" class="st10" style="font-family:'Prototype'; font-size:48.4726px;">EV STATION</text>
		<path class="st73" d="M2990.9,632.8l-20.5,13.6c-1.2,0.8-2.6,1.2-4,1.2h-280.5c-4,0-7.3-3.3-7.3-7.3v-7.5H2990.9z"/>
	</g>
	<rect x="1414.8" y="694.5" class="st80" width="2500" height="5.7"/>
	<rect x="1414.8" y="714.6" class="st80" width="2500" height="5.7"/>
	<rect x="1414.8" y="734.7" class="st80" width="2500" height="5.7"/>
	<rect x="1414.8" y="754.7" class="st80" width="2499.1" height="5.7"/>
	<rect x="1582.8" y="694.5" class="st80" width="5" height="74.4"/>
	<rect x="2324.8" y="694.5" class="st80" width="5" height="74.4"/>
	<rect x="2695.8" y="694.5" class="st80" width="5" height="74.4"/>
	<rect x="3066.8" y="694.5" class="st80" width="5" height="74.4"/>
	<rect x="3437.8" y="694.5" class="st80" width="5" height="74.4"/>
	<rect x="3808.8" y="694.5" class="st80" width="5" height="74.4"/>
	<rect x="1410.3" y="1227.5" class="st85" width="2504.5" height="20.7"/>
	<rect x="1410.3" y="1284.1" class="st85" width="2504.5" height="20.7"/>
	<rect x="1410.3" y="1340.7" class="st85" width="2504.5" height="20.7"/>
	<rect x="1549.3" y="1227.5" class="st85" width="20.5" height="175.5"/>
	<rect x="2024.2" y="1227.5" class="st85" width="20.5" height="175.5"/>
	<rect x="2499.1" y="1227.5" class="st85" width="20.5" height="175.5"/>
	<rect x="2974" y="1227.5" class="st85" width="20.5" height="175.5"/>
	<rect x="3448.9" y="1227.5" class="st85" width="20.5" height="175.5"/>
	<rect x="1414.8" y="507.6" class="st80" width="2500" height="2"/>
	<rect x="1414.8" y="512.8" class="st80" width="2500" height="2"/>
	<rect x="1414.8" y="518.1" class="st80" width="2500" height="2"/>
	<rect x="1461.5" y="507.6" class="st80" width="1.8" height="18.2"/>
	<rect x="1561.8" y="507.6" class="st80" width="1.8" height="18.2"/>
	<rect x="1662.1" y="507.6" class="st80" width="1.8" height="18.2"/>
	<rect x="1762.5" y="507.6" class="st80" width="1.8" height="18.2"/>
	<rect x="1862.8" y="507.6" class="st80" width="1.8" height="18.2"/>
	<rect x="1963.1" y="507.6" class="st80" width="1.8" height="18.2"/>
	<rect x="2063.5" y="507.6" class="st80" width="1.8" height="18.2"/>
	<rect x="2163.8" y="507.6" class="st80" width="1.8" height="18.2"/>
	<rect x="2264.1" y="507.6" class="st80" width="1.8" height="18.2"/>
	<rect x="2364.5" y="507.6" class="st80" width="1.8" height="18.2"/>
	<rect x="2464.8" y="507.6" class="st80" width="1.8" height="18.2"/>
	<rect x="2565.1" y="507.6" class="st80" width="1.8" height="18.2"/>
	<rect x="2665.5" y="507.6" class="st80" width="1.8" height="18.2"/>
	<rect x="2765.8" y="507.6" class="st80" width="1.8" height="18.2"/>
	<rect x="2866.1" y="507.6" class="st80" width="1.8" height="18.2"/>
	<rect x="2966.5" y="507.6" class="st80" width="1.8" height="18.2"/>
	<rect x="3066.8" y="507.6" class="st80" width="1.8" height="18.2"/>
	<rect x="3167.1" y="507.6" class="st80" width="1.8" height="18.2"/>
	<rect x="3267.5" y="507.6" class="st80" width="1.8" height="18.2"/>
	<rect x="3367.8" y="507.6" class="st80" width="1.8" height="18.2"/>
	<rect x="3468.1" y="507.6" class="st80" width="1.8" height="18.2"/>
	<rect x="3568.5" y="507.6" class="st80" width="1.8" height="18.2"/>
	<rect x="3668.8" y="507.6" class="st80" width="1.8" height="18.2"/>
	<rect x="3769.1" y="507.6" class="st80" width="1.8" height="18.2"/>
	<rect x="3869.5" y="507.6" class="st80" width="1.8" height="18.2"/>
	<path class="st78" d="M2797.6,647.6h-111.8c-4,0-7.3-3.3-7.3-7.3v-58.8c0-4,3.3-7.3,7.3-7.3h60.5L2797.6,647.6z"/>
	<polygon class="st78" points="2274.9,593.7 1414.8,593.7 1414.8,525.7 2210.5,525.7 	"/>
	<g>
		<path class="st86" d="M1977.5,282.6c-226.2-1.9-456.5-8-561.3-11.1V306h561.3V282.6z"/>
		<path class="st86" d="M2338,156.3c-129.2,102.3-117.1,109.3-246.6,126.9V306h1824.9v-82.7c-224.7,48.1-739.1,111.2-904.3-52.8
			C2895,54.4,2464.3,56.3,2338,156.3z"/>
	</g>
</g>
</svg>
