<?xml version="1.0" encoding="utf-8"?>
<!-- Generator: Adobe Illustrator 21.1.0, SVG Export Plug-In . SVG Version: 6.00 Build 0)  -->
<svg version="1.1" id="Layer_1" xmlns="http://www.w3.org/2000/svg" xmlns:xlink="http://www.w3.org/1999/xlink" x="0px" y="0px"
	 viewBox="0 0 1400 980" style="enable-background:new 0 0 1400 980;" xml:space="preserve">
<style type="text/css">
	.st0{fill:#56C1F1;}
	.st1{opacity:0.54;fill:#2B99BF;}
	.st2{fill:#2B99BF;}
	.st3{fill:#5DD85D;}
	.st4{fill:#E53939;}
	.st5{opacity:0.46;}
	.st6{fill:#9E1D1D;}
	.st7{fill:#F4F4F4;}
	.st8{fill:#424242;}
	.st9{fill:#222322;}
	.st10{fill:#3CBC3C;}
	.st11{fill:#E2E2E1;}
	.st12{fill:#58585A;}
	.st13{fill:#FCACCD;}
	.st14{fill:#FFF9F5;}
	.st15{fill:#E589B3;}
	.st16{fill:#FFFFFF;}
	.st17{fill:#FFDB1F;}
	.st18{fill:#8CDDF9;}
	.st19{fill:#6B0C0C;}
	.st20{opacity:0.72;fill:#56C1F1;}
</style>
<g>
	<path class="st0" d="M1129.4,632.4c47.9,0,87-38.7,87.2-86.6c0-0.3,0-0.6,0-0.9c0-217.3-228.9-465.8-511.3-465.8
		S194,327.6,194,544.8c0,0.3,0,0.6,0,0.9c0.1,47.9,39.2,86.6,87.2,86.6H1129.4z"/>
	<polygon class="st1" points="1150.3,612.7 1111.9,507 1064.6,376.6 1017.2,507 978.8,612.7 	"/>
	<polygon class="st1" points="1039.5,612.7 1006.9,523.1 967.1,413.4 927.2,523.1 894.7,612.7 	"/>
	<path class="st1" d="M887.9,632.4l0.4-20.6l-272-144.9c-79.2-42.2-171.5-52.8-258.2-29.5c-53.7,14.4-113.1,32-158.9,49.9
		c-3.4,19.3-5.1,38.5-5.1,57.6c0,0.3,0,0.6,0,0.9c0.1,47.9,39.2,86.6,87.2,86.6H887.9z"/>
	<path class="st2" d="M1189.1,553.9v-17.8h-14.1v-13.3h-16.5v13.3h-44.4v-13.3h-16.5v13.3h-44.4v-13.3h-16.5v13.3h-44.4v-13.3h-16.5
		v13.3h-44.4v-13.3h-16.5v13.3h-44.4v-13.3H854v13.3h-44.4v-13.3h-16.5v13.3H763h-14.1v-13.3h-16.5v13.3H688v-13.3h-16.5v13.3h-21
		h-23.4v-13.3h-16.5v13.3h-44.4v-13.3h-16.5v13.3h-44.4v-13.3h-16.5v13.3h-44.4v-13.3h-16.5v13.3h-44.4v-13.3h-16.5v13.3h-44.4
		v-13.3H306v13.3h-44.4v-13.3h-16.5v13.3h-20.8v17.8h20.8v16.3h-20.8v17.8h20.8v25h16.5v-25H306v25h16.5v-25h44.4v25h16.5v-25h44.4
		v25h16.5v-25h44.4v25h16.5v-25h44.4v25h16.5v-25h44.4v25h16.5v-25h23.4h21v25H688v-25h44.4v25h16.5v-25H763h30.1v25h16.5v-25H854
		v25h16.5v-25h44.4v25h16.5v-25h44.4v25h16.5v-25h44.4v25h16.5v-25h44.4v25h16.5v-25h44.4v25h16.5v-25h14.1v-17.8h-14.1v-16.3
		H1189.1z M261.6,570.1v-16.3H306v16.3H261.6z M322.5,570.1v-16.3h44.4v16.3H322.5z M383.5,570.1v-16.3h44.4v16.3H383.5z
		 M444.4,570.1v-16.3h44.4v16.3H444.4z M505.3,570.1v-16.3h44.4v16.3H505.3z M566.2,570.1v-16.3h44.4v16.3H566.2z M650.5,570.1
		h-23.4v-16.3h23.4h21v16.3H650.5z M688,570.1v-16.3h44.4v16.3H688z M763,570.1h-14.1v-16.3H763h30.1v16.3H763z M809.6,570.1v-16.3
		H854v16.3H809.6z M870.5,570.1v-16.3h44.4v16.3H870.5z M931.4,570.1v-16.3h44.4v16.3H931.4z M992.3,570.1v-16.3h44.4v16.3H992.3z
		 M1053.2,570.1v-16.3h44.4v16.3H1053.2z M1158.5,570.1h-44.4v-16.3h44.4V570.1z"/>
	<path class="st3" d="M1253,845.7c0,30.3-24.8,55.2-55.2,55.2H204.3c-15.2,0-29-6.2-39-16.2c-10-10-16.2-23.8-16.2-39
		c0-30.3,24.8-55.2,55.2-55.2h103.9c10.8,0,20.2-7.8,22-18.4c0-0.2,0.1-0.3,0.1-0.5c2.3-13.6-8.3-25.9-22.1-25.9H211
		c-35.2,0-64-28.8-64-64v-5c0-35.2,28.8-64,64-64h975.9c35.2,0,64,28.8,64,64v5c0,35.2-28.8,64-64,64h-122.3
		c-8.9,0-16.7,5.3-20.2,13c-1.1,2.5-1.8,5.2-2,8c0,0.1,0,0.3,0,0.4c-0.6,12.7,9.4,23.3,22.1,23.3l75.7,0.1l57.5,0
		c15.2,0,29,6.2,39,16.2C1246.8,816.8,1253,830.6,1253,845.7z"/>
	<g>
		<polygon class="st4" points="854.4,472.2 836.4,472.2 836.9,472.4 836.9,612.5 583.2,612.5 583.2,472.4 583.7,472.2 565.7,472.2 
			565.7,458.5 576.8,458.5 613.5,357.7 710,315.9 806.5,357.7 843.3,458.5 854.4,458.5 		"/>
		<g class="st5">
			<polygon class="st6" points="764.1,339.3 656,339.3 647,343.2 773,343.2 			"/>
			<polygon class="st6" points="806.5,357.7 801.7,355.6 618.4,355.6 613.5,357.7 612.9,359.5 807.2,359.5 			"/>
			<polygon class="st6" points="811.7,371.9 608.4,371.9 607,375.8 813.1,375.8 			"/>
			<polygon class="st6" points="817.6,388.2 602.4,388.2 601,392 819.1,392 			"/>
			<polygon class="st6" points="823.6,404.4 596.5,404.4 595.1,408.3 825,408.3 			"/>
			<polygon class="st6" points="829.5,420.7 590.6,420.7 589.1,424.6 830.9,424.6 			"/>
			<polygon class="st6" points="835.4,437 584.6,437 583.2,440.9 836.9,440.9 			"/>
			<polygon class="st6" points="841.4,453.3 578.7,453.3 577.3,457.2 842.8,457.2 			"/>
			<polygon class="st6" points="836.9,472.4 836.4,472.2 854.4,472.2 854.4,469.6 565.7,469.6 565.7,472.2 583.7,472.2 583.2,472.4 
				583.2,473.5 836.9,473.5 			"/>
			<rect x="583.2" y="485.9" class="st6" width="253.7" height="3.9"/>
			<rect x="583.2" y="502.2" class="st6" width="253.7" height="3.9"/>
			<rect x="583.2" y="518.4" class="st6" width="253.7" height="3.9"/>
			<rect x="583.2" y="534.7" class="st6" width="253.7" height="3.9"/>
			<rect x="583.2" y="551" class="st6" width="253.7" height="3.9"/>
			<rect x="583.2" y="567.3" class="st6" width="253.7" height="3.9"/>
			<rect x="583.2" y="583.6" class="st6" width="253.7" height="3.9"/>
			<rect x="583.2" y="599.9" class="st6" width="253.7" height="3.9"/>
		</g>
		<path class="st7" d="M663.7,505.9v106.6h6.8v-98.9h72.6v98.9h6.8V505.9H663.7z"/>
		<g>
			<polygon class="st7" points="741.9,612.6 666.1,510.1 674.2,510.1 750,612.6 			"/>
			<polygon class="st7" points="666.1,612.6 741.9,510.1 750,510.1 674.2,612.6 			"/>
		</g>
		<g>
			<rect x="602.3" y="504.6" class="st7" width="45.1" height="64.8"/>
			<rect x="607.7" y="510" class="st8" width="34.1" height="53.9"/>
			<path class="st9" d="M607.7,563.9l34.1-53.9v53.9C641.9,563.9,607.1,563.3,607.7,563.9z"/>
		</g>
		<g>
			<rect x="767.5" y="504.6" class="st7" width="45.1" height="64.8"/>
			<rect x="773" y="510" class="st8" width="34.1" height="53.9"/>
			<path class="st9" d="M773,563.9l34.1-53.9v53.9C807.1,563.9,772.3,563.3,773,563.9z"/>
		</g>
		<g>
			<rect x="685.8" y="371.4" class="st7" width="45.1" height="48.4"/>
			<rect x="691.3" y="376.9" class="st8" width="34.1" height="37.5"/>
			<path class="st9" d="M691.3,414.4l34.1-37.5v37.5C725.4,414.4,690.6,413.8,691.3,414.4z"/>
		</g>
		<polygon class="st6" points="806.5,357.7 710,315.9 613.5,357.7 576.8,458.5 565.7,458.5 565.7,472.2 583.7,472.2 583.2,472.4 
			583.2,482.4 590.2,482.4 632.2,372.9 710,340.6 787.7,372.9 829.8,482.4 836.9,482.4 836.9,472.4 836.4,472.2 854.4,472.2 
			854.4,458.5 843.3,458.5 		"/>
		<polygon class="st7" points="854.4,458.5 843.3,458.5 806.5,357.7 710,315.9 613.5,357.7 576.8,458.5 565.7,458.5 565.7,472.2 
			583.1,472.2 624.3,365.1 710,329.5 795.7,365.1 836.8,472.2 854.4,472.2 		"/>
	</g>
	<g>
		<g>
			<g>
				<polygon class="st9" points="925.8,307.5 913.4,307.5 907.7,257.7 930.8,257.7 				"/>
				<rect x="917.2" y="304.3" class="st9" width="4.1" height="17.2"/>
			</g>
			<g>
				<polygon class="st9" points="912.8,352.5 925.1,352.5 930.8,402.3 907.7,402.3 				"/>
				
					<rect x="917.2" y="338.6" transform="matrix(-1 -1.224647e-16 1.224647e-16 -1 1838.5295 694.3394)" class="st9" width="4.1" height="17.2"/>
			</g>
		</g>
		<g>
			<g>
				<polygon class="st9" points="908,309.5 899.2,318.2 860,287 876.3,270.7 				"/>
				
					<rect x="905.1" y="309.3" transform="matrix(0.7071 -0.7071 0.7071 0.7071 40.926 734.5364)" class="st9" width="4.1" height="17.2"/>
			</g>
			<g>
				<polygon class="st9" points="930.6,350.5 939.3,341.8 978.5,373 962.2,389.3 				"/>
				
					<rect x="929.3" y="333.6" transform="matrix(-0.7071 0.7071 -0.7071 -0.7071 1831.9348 -74.5283)" class="st9" width="4.1" height="17.2"/>
			</g>
		</g>
		<g>
			<g>
				<polygon class="st9" points="896.8,323.5 896.8,335.8 847,341.5 847,318.5 				"/>
				
					<rect x="900" y="321.4" transform="matrix(4.509821e-11 -1 1 4.509821e-11 572.0951 1232.1031)" class="st9" width="4.1" height="17.2"/>
			</g>
			<g>
				<polygon class="st9" points="941.7,336.5 941.7,324.2 991.5,318.5 991.5,341.5 				"/>
				
					<rect x="934.4" y="321.4" transform="matrix(-4.465602e-11 1 -1 -4.465602e-11 1266.4344 -606.4264)" class="st9" width="4.1" height="17.2"/>
			</g>
		</g>
		<g>
			<g>
				<polygon class="st9" points="898.8,341.3 907.5,350 876.3,389.3 860,373 				"/>
				
					<rect x="905.1" y="333.6" transform="matrix(-0.7071 -0.7071 0.7071 -0.7071 1306.6315 1225.5084)" class="st9" width="4.1" height="17.2"/>
			</g>
			<g>
				<polygon class="st9" points="939.8,318.7 931,310 962.2,270.7 978.5,287 				"/>
				
					<rect x="929.3" y="309.3" transform="matrix(0.7071 0.7071 -0.7071 0.7071 497.5668 -565.5004)" class="st9" width="4.1" height="17.2"/>
			</g>
		</g>
		<g>
			<circle class="st9" cx="920.4" cy="330" r="12.6"/>
			<circle class="st7" cx="920.4" cy="330" r="6.8"/>
		</g>
		<polygon class="st9" points="868.7,612.6 920.3,336.9 915.4,336.9 863.8,612.6 		"/>
		<polygon class="st9" points="974.3,612.6 922.7,336.9 917.8,336.9 969.4,612.6 		"/>
		<rect x="897.7" y="432.3" class="st9" width="42.1" height="4.2"/>
		<rect x="888.8" y="488.1" class="st9" width="60.9" height="6.2"/>
		<rect x="916.2" y="390.9" class="st9" width="4.3" height="221.7"/>
	</g>
	<path class="st10" d="M526.2,641.7H319c-10.6,0-19.3,8.7-19.3,19.3v0c0,10.6,8.7,19.3,19.3,19.3h207.2c10.6,0,19.3-8.7,19.3-19.3v0
		C545.6,650.4,536.8,641.7,526.2,641.7z"/>
	<g>
		<polygon class="st11" points="445.2,619.6 446.8,660.9 457.3,660.9 465.7,621.5 459,615.8 		"/>
		<g>
			<polygon class="st11" points="373.5,619.7 382.6,660.9 393.1,660.8 394.4,621.4 386.6,615.8 			"/>
			<polygon class="st12" points="380.9,653.2 382.6,660.9 393.1,660.8 393.4,653.1 			"/>
		</g>
		<path class="st13" d="M408.7,629.5c3.2-3.6,5.2-8.4,5.2-13.6c0-11.3-9.1-20.4-20.4-20.4s-20.4,9.1-20.4,20.4
			c0,5.6,2.3,10.8,6,14.4l-2,2.9c-0.6,0.9-0.4,2,0.5,2.6c0.9,0.6,2,0.4,2.6-0.5l1.8-2.6c0.8,0.5,1.6,1,2.5,1.4l-0.9,2.7
			c-0.3,1,0.2,2.1,1.2,2.4c1,0.3,2.1-0.2,2.4-1.2l0.9-2.5c1.3,0.4,2.7,0.6,4.2,0.7v2.4c0,1,0.9,1.9,1.9,1.9c1,0,1.9-0.9,1.9-1.9
			v-2.5c1.2-0.2,2.4-0.4,3.6-0.8l0.7,1.9c0.4,1,1.5,1.5,2.4,1.1c1-0.4,1.5-1.5,1.1-2.4l-0.8-2.1c1-0.5,1.9-1.1,2.8-1.8l1.4,1.4
			c0.7,0.7,1.9,0.7,2.7,0c0.7-0.7,0.7-1.9,0-2.7L408.7,629.5z"/>
		<path class="st14" d="M487.6,592l-5.4,28.2l-5.8,30.1l-2.1,10.9h-11.2c0.1-7.9,0-25.8-1.9-32.5c-0.9-3-2.9-4.3-5.1-4.8
			c-4.2-0.9-9.2,1.3-9.2,1.3c-24.7,6.7-49.9-1.8-60.8-6.3c-3.5-1.5-5.5-2.5-5.5-2.5c-3.1,2.8-4.9,9.7-5.9,17.4
			c-0.6,4.1-0.9,8.4-1.1,12.5c-0.1,2.3-0.2,4.5-0.2,6.6c0,0.1,0,0.2,0,0.4c0,0.1,0,0.2,0,0.4c0,0.1,0,0.1,0,0.2c0,1.5,0,2.8,0,4
			c0,0.7,0,1.3,0,1.9c0,0.3,0,0.5,0,0.8c0,0.3,0,0.6,0,0.8h-14.3c-0.1-1.6-0.3-4.6-0.7-8.4c-0.6-7.7-1.5-19.1-1.7-31.1
			c-0.2-12.2,0.4-25,2.7-35.2c1.6-7,4-12.9,7.5-16.5c0.9-0.9,1.9-1.7,3-2.4c16.1-9.3,34.2-2.9,50.9-1.9c12.8,0.8,24.9,1.3,34.6,1.7
			c12.6,0.5,21,0.6,21,0.6L487.6,592z"/>
		<path class="st11" d="M487.6,592l-11.2-24c0,0-5.2-0.1-13.7-0.4c-0.1,0.9-0.1,1.7,0,2.5c0.3,3.2,1.2,6,2.1,7.9
			c3,6.1,3.8,20.3,4,25.1c-0.2,0.8-0.3,1.6-0.3,2.4c0,6.6,6.2,9.9,14.4,10.7L487.6,592z"/>
		<polygon class="st12" points="446.5,653.2 446.8,660.9 457.3,660.9 459,653.2 		"/>
		<path class="st12" d="M373.4,652.8c0,0.1,0,0.2,0,0.4c0,0.1,0,0.2,0,0.4c0,0.1,0,0.1,0,0.2c0,2.3,0,4.3,0,5.9c0,0.3,0,0.5,0,0.8
			c0,0.3,0,0.6,0,0.8h-14.3c-0.1-1.6-0.3-4.6-0.7-8.4H373.4z"/>
		<path class="st12" d="M463.1,652.8c0,3.3,0,6.2,0,8.4h11.2l1.6-8.4H463.1z"/>
		<path id="XMLID_2_" class="st12" d="M496.4,559c0,0,14.2-8.7,14.5-12.2s8.5,8,2.7,14.6c-5.8,6.6-16.3,2.5-16.3,2.5L496.4,559z"/>
		<path class="st13" d="M494.7,557.2c0,0,5.9-5.2,4.5-11.6c0,0,7.1,6.9,2.9,16.3L494.7,557.2z"/>
		<path id="XMLID_1_" class="st12" d="M478.4,559.2c0,0-14.4-8.4-14.7-12c-0.4-3.5-8.3,8.1-2.4,14.7c5.9,6.5,16.3,2.2,16.3,2.2
			L478.4,559.2z"/>
		<path class="st13" d="M481.9,557.2c0,0-5.9-5.2-4.5-11.6c0,0-7.1,6.9-2.9,16.3L481.9,557.2z"/>
		<path class="st14" d="M487.2,553.8L487.2,553.8c-11.5,0-20.7,10.6-19.9,18.6c0.3,2.6,1,4.9,1.7,6.4c2.9,6,3.3,21.7,3.3,21.7
			l14.9-3.3l14.8,3.4c0,0,0.5-15.9,3.4-21.8c0.7-1.5,1.5-3.8,1.7-6.4C507.8,564.3,498.7,553.8,487.2,553.8z"/>
		<path class="st13" d="M502.3,601.1c0-6.3-6.8-12.7-15.1-12.7s-15.1,6.4-15.1,12.7s6.8,8.9,15.1,8.9S502.3,607.3,502.3,601.1z"/>
		<g>
			
				<ellipse transform="matrix(0.7071 -0.7071 0.7071 0.7071 -283.1267 515.465)" class="st15" cx="480.7" cy="599.5" rx="2.3" ry="1.3"/>
			
				<ellipse transform="matrix(0.7071 -0.7071 0.7071 0.7071 -279.3706 524.533)" class="st15" cx="493.5" cy="599.5" rx="1.3" ry="2.3"/>
		</g>
		<path class="st12" d="M483.7,554.1c-9.8,1.8-17.1,11.1-16.4,18.3c0.3,2.6,1,4.9,1.7,6.4c0.9,1.9,1.6,4.9,2.1,8
			C479.1,583.9,490.3,575.9,483.7,554.1z"/>
		<circle class="st14" cx="477.2" cy="575.4" r="2.1"/>
		<circle class="st12" cx="496.8" cy="575.4" r="2.1"/>
		<path class="st12" d="M411.2,597.9c-20-1.4,0.6-21.5-29.2-23.2c-8.5-0.5-12.9-2.4-15.1-4.7c0.9-0.9,1.9-1.7,3-2.4
			c16.1-9.3,34.2-2.9,50.9-1.9c12.8,0.8,24.9,1.3,34.6,1.7c0.9,2.6,2.3,5.6,4.2,9.4C468.1,593.2,431.1,599.3,411.2,597.9z"/>
		<path class="st12" d="M376,592c0.5,12.7-10,9-4.2,19.6c4,7.4-6.6,19.3-15,10c-0.2-12.2,0.4-25,2.7-35.2
			C368,584.3,375.6,582.7,376,592z"/>
		<path class="st12" d="M374.8,633.7c-0.6,4.1-0.9,8.4-1.1,12.5c-1.7-1.7-3.6-3.7-5.4-5.7C364.1,636.2,371.5,634.3,374.8,633.7z"/>
		<path class="st12" d="M456.1,623.9c-4.2-0.9-9.2,1.3-9.2,1.3c-24.7,6.7-49.9-1.8-60.8-6.3c-0.6-4.8,0.6-11.8,15-7.7
			c21,6.1,38.6-10.3,39.5-2.7C441.8,619.2,458.7,610.4,456.1,623.9z"/>
		<path class="st12" d="M482.2,620.2l-5.8,30.1c-13.5-5.8-0.2-8.3-3.1-19C471.3,623.5,477.7,621,482.2,620.2z"/>
	</g>
	<path class="st10" d="M1140.3,790.5c-3.7,5.5-10,9.2-17.1,9.2h-246c-5.6,0-10.8-2.3-14.5-6c-3.7-3.7-6-8.8-6-14.5
		c0-11.3,9.2-20.5,20.5-20.5h167.2c-1.1,2.5-1.8,5.2-2,8c0,0.1,0,0.3,0,0.4c-0.6,12.7,9.4,23.3,22.1,23.3L1140.3,790.5z"/>
	<path class="st10" d="M786.7,724.9h-71.9c-5.7,0-10.3,4.7-10.3,10.3l0,0c0,5.7,4.7,10.3,10.3,10.3h71.9c5.7,0,10.3-4.7,10.3-10.3
		l0,0C797,729.5,792.4,724.9,786.7,724.9z"/>
	<path class="st10" d="M470,738.4h-13.3c-5.7,0-10.3,4.7-10.3,10.3l0,0c0,5.7,4.7,10.3,10.3,10.3H470c5.7,0,10.3-4.7,10.3-10.3l0,0
		C480.4,743,475.7,738.4,470,738.4z"/>
	<path class="st16" d="M376.2,313c0.2-1,0.3-2,0.3-3c0-9.8-9.8-17.7-21.9-17.8c-3.9,0-7.5,0.8-10.6,2.2c-4.2-5.6-13.9-9.6-25.3-9.8
		c-1.8-9.5-16.2-16.9-33.6-17c-14.4-0.1-26.8,4.9-31.7,12c-2.4-0.5-4.9-0.8-7.5-0.8c-13.6-0.1-24.7,7.1-24.7,16c0,0.1,0,0.2,0,0.3
		c-0.1,0-0.1,0-0.2,0c-14.2-0.1-25.8,6.5-25.8,14.7c0,0.8,0.1,1.6,0.3,2.4l-8.3,0c-4.6,0-8.4,3.7-8.4,8.3s3.7,8.4,8.3,8.4l188.8,0.8
		c4.6,0,8.4-3.7,8.4-8.3v0C384.1,317,380.6,313.3,376.2,313z"/>
	<path class="st16" d="M1131.1,223.9c0.2-1,0.3-2,0.3-3c0-9.8-9.8-17.7-21.9-17.8c-3.9,0-7.5,0.8-10.6,2.2
		c-4.2-5.6-13.9-9.6-25.3-9.8c-1.8-9.5-16.2-16.9-33.6-17c-14.4-0.1-26.8,4.9-31.7,12c-2.4-0.5-4.9-0.8-7.5-0.8
		c-13.6-0.1-24.7,7.1-24.7,16c0,0.1,0,0.2,0,0.3c-0.1,0-0.1,0-0.2,0c-14.2-0.1-25.8,6.5-25.8,14.7c0,0.8,0.1,1.6,0.3,2.4l-8.3,0
		c-4.6,0-8.4,3.7-8.4,8.3c0,4.6,3.7,8.4,8.3,8.4l188.8,0.8c4.6,0,8.4-3.7,8.4-8.3v0C1138.9,227.8,1135.4,224.2,1131.1,223.9z"/>
	<path class="st16" d="M771,171.2c0.2-0.9,0.3-1.9,0.3-2.8c0-9.2-9.2-16.6-20.6-16.7c-3.6,0-7,0.7-10,2c-3.9-5.3-13.1-9-23.8-9.2
		c-1.7-8.9-15.2-15.9-31.6-16c-13.6-0.1-25.2,4.6-29.8,11.3c-2.2-0.5-4.6-0.7-7.1-0.8c-12.8-0.1-23.2,6.7-23.2,15.1
		c0,0.1,0,0.2,0,0.3c-0.1,0-0.1,0-0.2,0c-13.4-0.1-24.2,6.1-24.3,13.8c0,0.8,0.1,1.5,0.3,2.3l-7.8,0c-4.3,0-7.9,3.5-7.9,7.8
		c0,4.3,3.5,7.9,7.8,7.9l177.4,0.7c4.3,0,7.9-3.5,7.9-7.8v0C778.4,174.9,775.1,171.5,771,171.2z"/>
	<circle class="st17" cx="486.7" cy="240.7" r="56.2"/>
	<path class="st1" d="M1057.7,381.7l-18,30C1039.7,411.7,1022.7,376.7,1057.7,381.7z"/>
	<path class="st2" d="M1041.7,289.7l-22,18C1019.7,307.7,1006.7,285.7,1041.7,289.7z"/>
	<path class="st2" d="M720.7,291.7l-30,17C690.7,308.7,686.7,282.7,720.7,291.7z"/>
	<path class="st2" d="M390.7,405.7l40-12C430.7,393.7,410.7,365.7,390.7,405.7z"/>
	<g>
		<path class="st6" d="M304.7,627.2h-13.4c-1.5,0-2.7-1.2-2.7-2.7V528c0-1.5,1.2-2.7,2.7-2.7h13.4c1.5,0,2.7,1.2,2.7,2.7v96.5
			C307.4,626,306.2,627.2,304.7,627.2z"/>
		<g>
			<circle class="st3" cx="298" cy="473.7" r="67.7"/>
			<path class="st10" d="M298,406c-7.8,0-15.2,1.3-22.2,3.7c22.4,6.6,38.8,27.3,38.8,51.9c0,29.9-24.2,54.1-54.1,54.1
				c-6.2,0-12.2-1.1-17.8-3c12.3,17.3,32.5,28.6,55.3,28.6c37.4,0,67.7-30.3,67.7-67.7S335.4,406,298,406z"/>
		</g>
	</g>
	<g>
		<path class="st6" d="M1144.7,627.2h-13.4c-1.5,0-2.7-1.2-2.7-2.7V528c0-1.5,1.2-2.7,2.7-2.7h13.4c1.5,0,2.7,1.2,2.7,2.7v96.5
			C1147.4,626,1146.2,627.2,1144.7,627.2z"/>
		<g>
			<circle class="st3" cx="1138" cy="473.7" r="67.7"/>
			<path class="st10" d="M1138,406c-7.8,0-15.2,1.3-22.2,3.7c22.4,6.6,38.8,27.3,38.8,51.9c0,29.9-24.2,54.1-54.1,54.1
				c-6.2,0-12.2-1.1-17.8-3c12.3,17.3,32.5,28.6,55.3,28.6c37.4,0,67.7-30.3,67.7-67.7S1175.4,406,1138,406z"/>
		</g>
	</g>
	<g>
		<path class="st6" d="M227.8,627.2h-11.7c-1.3,0-2.3-1-2.3-2.3V541c0-1.3,1-2.3,2.3-2.3h11.7c1.3,0,2.3,1,2.3,2.3v83.9
			C230.2,626.2,229.1,627.2,227.8,627.2z"/>
		<g>
			<circle class="st3" cx="222" cy="493.8" r="58.9"/>
			<path class="st10" d="M222,434.9c-6.8,0-13.3,1.1-19.3,3.2c19.5,5.8,33.7,23.8,33.7,45.1c0,26-21.1,47.1-47.1,47.1
				c-5.4,0-10.6-0.9-15.4-2.6c10.7,15.1,28.2,24.9,48.1,24.9c32.5,0,58.9-26.4,58.9-58.9S254.5,434.9,222,434.9z"/>
		</g>
	</g>
	<path class="st10" d="M951.3,689.8c-2.6-25.5-40.5-45.8-86.9-45.8c-46.4,0-84.3,20.2-86.9,45.8H951.3z"/>
	<path class="st10" d="M984.3,877.3c-1.9-18.7-29.7-33.5-63.6-33.5c-34,0-61.7,14.8-63.6,33.5H984.3z"/>
	<path class="st10" d="M301.8,727.3c-1.6-15.8-25.1-28.4-53.9-28.4s-52.3,12.6-53.9,28.4H301.8z"/>
	<circle class="st10" cx="686.7" cy="696.7" r="8"/>
	<circle class="st10" cx="565.8" cy="704.8" r="8"/>
	<circle class="st10" cx="1078.7" cy="845.7" r="9"/>
	<circle class="st10" cx="1186" cy="681.5" r="11.2"/>
	<circle class="st10" cx="202.8" cy="662.8" r="4.5"/>
	<circle class="st10" cx="200.6" cy="873.5" r="6.7"/>
	<circle class="st10" cx="809.6" cy="822.5" r="11.2"/>
	<g>
		<path class="st4" d="M1058,722.4l53.5-45.8c0,0-14.7-97.1-17.4-99.9c-2.7-2.7-76.1,0-76.1,0l-32.1,76.1v69.6H1058z"/>
		<path class="st6" d="M1096.8,587.7c-1.2-6.3-2.2-10.5-2.8-11c-2.7-2.7-76.1,0-76.1,0l-4.6,11H1096.8z"/>
		<path class="st4" d="M1098.6,567.1h-86.4c-3.2,0-5.9,2.6-5.9,5.9l0,0c0,3.2,2.6,5.9,5.9,5.9h86.4c3.2,0,5.9-2.6,5.9-5.9l0,0
			C1104.4,569.8,1101.8,567.1,1098.6,567.1z"/>
		<polygon class="st18" points="1084.8,594.6 1020.7,594.6 994.4,653.5 994.4,707.1 1039.1,707.1 1098.9,677.6 		"/>
		<rect x="937.8" y="628" class="st6" width="27.5" height="33.8"/>
		<rect x="944.3" y="589.1" class="st6" width="15.6" height="38.9"/>
		<rect x="944.3" y="622.1" class="st19" width="15.6" height="5.9"/>
		<path class="st6" d="M955.6,595.2h-6.3l0-12.3c0.1-2.4-0.6-4.1-2-5.2c-1-0.8-2-1-2-1l1-6.2c3.4,0.6,9.6,3.9,9.3,12.7V595.2z"/>
		<path class="st6" d="M953.5,575.1v13.9"/>
		<polygon class="st4" points="993.1,643.9 991.9,729.8 904.4,729.8 893.4,712.4 887.9,703.6 887.2,663.8 914,643.9 		"/>
		<polygon class="st6" points="887.8,699.1 887.9,703.6 904.4,729.8 1002.7,729.8 1020.7,699.1 		"/>
		<path class="st6" d="M984,729.8h-79.6l-11-17.4c8.8-13.8,24.3-23,41.9-23C959.5,689.4,979.7,706.8,984,729.8z"/>
		<path class="st6" d="M970.4,737.1h76.1l73.3-46.7v-24.9c0-6.5-5.3-11.7-11.7-11.7h-44.2c0,0-40.3,18.8-57.7,53.1h-52.2
			L970.4,737.1z"/>
		<path class="st20" d="M1094.8,653.7h-31c0,0-34.2,16-53.2,45.4h-16.1v-34.6c22.3-12.5,55.6-25.3,98.1-24.7L1094.8,653.7z"/>
		<g>
			<g>
				<circle class="st9" cx="1083.2" cy="724.9" r="55.6"/>
				<circle class="st16" cx="1083.2" cy="724.9" r="25.8"/>
				<circle class="st9" cx="1083.2" cy="724.9" r="10.7"/>
			</g>
			<g>
				<circle class="st9" cx="935.3" cy="739" r="41.5"/>
				<circle class="st16" cx="935.3" cy="739" r="19.2"/>
				<circle class="st9" cx="935.3" cy="739" r="8.5"/>
			</g>
		</g>
		<path class="st4" d="M1057.9,590.5v66.3c-2.3,1.3-5.1,2.9-8.2,5v-71.3H1057.9z"/>
	</g>
	<g>
		<path class="st9" d="M607.5,770.7L607.5,770.7c-0.6,0-1.2-0.5-1.2-1.2v-64.1c0-0.6,0.5-1.2,1.2-1.2l0,0c0.6,0,1.2,0.5,1.2,1.2
			v64.1C608.7,770.2,608.1,770.7,607.5,770.7z"/>
		<path class="st4" d="M628.4,699.6c0-3.1-1.4-5.8-3.6-7.6c0.3-2.8-0.7-5.7-2.9-7.9c-2.2-2.2-5.1-3.1-7.9-2.9
			c-1.8-2.2-4.5-3.6-7.6-3.6c-3.1,0-5.8,1.4-7.6,3.6c-2.8-0.3-5.7,0.7-7.9,2.9c-2.2,2.2-3.1,5.1-2.9,7.9c-2.2,1.8-3.6,4.5-3.6,7.6
			c0,3.1,1.4,5.8,3.6,7.6c-0.3,2.8,0.7,5.7,2.9,7.9c2.2,2.2,5.1,3.1,7.9,2.9c1.8,2.2,4.5,3.6,7.6,3.6c3.1,0,5.8-1.4,7.6-3.6
			c2.8,0.3,5.7-0.7,7.9-2.9c2.2-2.2,3.1-5.1,2.9-7.9C627,705.4,628.4,702.7,628.4,699.6z"/>
		<circle class="st16" cx="606.5" cy="699.3" r="9.3"/>
		<path class="st10" d="M618.7,745.2c4.5-1.5,9.4-9,9.4-9s-8.4-3.1-12.9-1.6s-7.4,5.1-6.5,8.1C609.7,745.5,614.2,746.7,618.7,745.2z
			"/>
		<path class="st10" d="M618.7,741.6c-4.3,1.4-8.5,0.5-9.8-2.1c-0.4,1-0.5,2-0.2,3c1,2.9,5.4,4.1,10,2.6c4.5-1.5,9.4-9,9.4-9
			s-0.8-0.3-2.1-0.7C624.2,737.7,621.4,740.7,618.7,741.6z"/>
		<path class="st10" d="M599.7,727.8c-4.5-1.1-12.4,2.6-12.4,2.6s5.3,6.9,9.9,8c4.5,1.1,8.8-0.4,9.5-3.3
			C607.3,732.1,604.2,728.9,599.7,727.8z"/>
		<path class="st10" d="M597.1,735.6c-2.9-0.7-6.2-3.8-8.1-5.9c-1.1,0.4-1.8,0.7-1.8,0.7s5.3,6.9,9.9,8c4.5,1.1,8.8-0.4,9.5-3.3
			c0.2-0.8,0.1-1.5-0.2-2.3C605.3,735.4,601.3,736.6,597.1,735.6z"/>
	</g>
	<g>
		<path class="st9" d="M536.6,809.4L536.6,809.4c-0.6,0-1.1-0.5-1.1-1.1v-59.4c0-0.6,0.5-1.1,1.1-1.1l0,0c0.6,0,1.1,0.5,1.1,1.1
			v59.4C537.7,808.9,537.2,809.4,536.6,809.4z"/>
		<path class="st4" d="M556,743.6c0-2.8-1.3-5.4-3.3-7c0.2-2.6-0.6-5.3-2.6-7.3c-2-2-4.7-2.9-7.3-2.6c-1.7-2-4.2-3.3-7-3.3
			s-5.4,1.3-7,3.3c-2.6-0.2-5.3,0.6-7.3,2.6c-2,2-2.9,4.7-2.6,7.3c-2,1.7-3.3,4.2-3.3,7c0,2.8,1.3,5.4,3.3,7
			c-0.2,2.6,0.6,5.3,2.6,7.3c2,2,4.7,2.9,7.3,2.6c1.7,2,4.2,3.3,7,3.3s5.4-1.3,7-3.3c2.6,0.2,5.3-0.6,7.3-2.6c2-2,2.9-4.7,2.6-7.3
			C554.7,748.9,556,746.4,556,743.6z"/>
		<circle class="st16" cx="535.7" cy="743.3" r="8.6"/>
		<path class="st10" d="M547,785.7c4.2-1.4,8.7-8.4,8.7-8.4s-7.8-2.9-12-1.5s-6.9,4.7-6,7.5C538.6,786.1,542.8,787.1,547,785.7z"/>
		<path class="st10" d="M547,782.5c-4,1.3-7.9,0.4-9.1-1.9c-0.4,0.9-0.5,1.9-0.2,2.8c0.9,2.7,5,3.8,9.3,2.4s8.7-8.4,8.7-8.4
			s-0.8-0.3-1.9-0.6C552,778.9,549.4,781.7,547,782.5z"/>
		<path class="st10" d="M529.3,769.7c-4.2-1-11.5,2.4-11.5,2.4s4.9,6.4,9.1,7.4c4.2,1,8.1-0.4,8.8-3.1S533.5,770.7,529.3,769.7z"/>
		<path class="st10" d="M527,776.9c-2.7-0.6-5.7-3.5-7.5-5.5c-1,0.4-1.6,0.7-1.6,0.7s4.9,6.4,9.1,7.4s8.1-0.4,8.8-3.1
			c0.2-0.7,0.1-1.4-0.2-2.1C534.6,776.7,530.9,777.9,527,776.9z"/>
	</g>
	<path class="st10" d="M323.3,762.5c80.3,6.1,102.3,84.6,165.5,58.4c63.2-26.2,107.7-79.4,158.4-45.3s131.7,77.8,131.7,77.8H196.2
		C196.2,853.5,243,756.4,323.3,762.5z"/>
</g>
</svg>
