<?xml version="1.0" encoding="utf-8"?>
<!-- Generator: Adobe Illustrator 19.0.0, SVG Export Plug-In . SVG Version: 6.00 Build 0)  -->
<svg version="1.1" id="Layer_1" xmlns="http://www.w3.org/2000/svg" xmlns:xlink="http://www.w3.org/1999/xlink" x="0px" y="0px"
	 width="1400px" height="980px" viewBox="0 0 1400 980" style="enable-background:new 0 0 1400 980;" xml:space="preserve">
<style type="text/css">
	.st0{clip-path:url(#XMLID_7_);}
	.st1{fill:url(#XMLID_46_);}
	.st2{fill:#F8F9F7;}
	.st3{fill:#C4C383;}
	.st4{fill:#16232C;}
	.st5{fill:#BF1F1F;}
	.st6{fill:#ED3E3E;}
	.st7{opacity:0.5;}
	.st8{fill:#3A0505;}
	.st9{fill:#EDDBB7;}
	.st10{fill:#3F0D02;}
	.st11{fill:#631500;}
	.st12{fill:#61859D;}
	.st13{fill:#233A4A;}
	.st14{fill:#31485A;}
	.st15{fill:#F5C678;}
	.st16{fill:#D49C4F;}
	.st17{fill:#819A46;}
	.st18{fill:#914320;}
	.st19{fill:#FEE7C7;}
	.st20{fill:#9E5A51;}
	.st21{fill:#F1B576;}
	.st22{fill:#DB9E67;}
	.st23{fill:#753F3B;}
	.st24{fill:#33231F;}
	.st25{fill:#FCAEA2;}
	.st26{fill:url(#XMLID_467_);}
	.st27{fill:url(#XMLID_480_);}
	.st28{fill:#7C330E;}
	.st29{fill:url(#XMLID_483_);}
	.st30{fill:#523B33;}
	.st31{fill:#BC9882;}
	.st32{fill:#A38472;}
	.st33{fill:#FDE1DE;}
	.st34{fill:url(#XMLID_486_);}
	.st35{fill:#BE5214;}
	.st36{fill:#90786C;}
	.st37{fill:#6B544A;}
	.st38{fill:#EFCCB9;}
	.st39{fill:#E2AD8D;}
	.st40{fill:#753A13;}
	.st41{fill:#308BA0;}
	.st42{fill:#22748C;}
	.st43{fill:#E0752D;}
	.st44{fill:#274C66;}
	.st45{fill:#5F342E;}
	.st46{fill:url(#XMLID_489_);}
	.st47{fill:#FFFFFF;}
	.st48{fill:#F77F7F;}
	.st49{fill:#D85B5B;}
	.st50{fill:#8C4725;}
	.st51{fill:#F1C39F;}
	.st52{fill:#BC7840;}
	.st53{fill:url(#XMLID_492_);}
	.st54{fill:#CEA386;}
	.st55{fill:#7F371B;}
	.st56{fill:#E2BDA3;}
	.st57{fill:url(#XMLID_495_);}
	.st58{fill:url(#XMLID_497_);}
	.st59{fill:#AF3561;}
	.st60{fill:#D16591;}
	.st61{fill:#EA902F;}
	.st62{fill:#5E3227;}
	.st63{fill:#325B7B;}
	.st64{fill:#F4C79F;}
	.st65{fill:#AF635B;}
	.st66{fill:url(#XMLID_498_);}
	.st67{fill:#D56B5B;}
	.st68{fill:#ED968C;}
	.st69{fill:#BC947E;}
</style>
<g id="XMLID_5_">
	<defs>
		<rect id="XMLID_4_" width="1400" height="980"/>
	</defs>
	<clipPath id="XMLID_7_">
		<use xlink:href="#XMLID_4_"  style="overflow:visible;"/>
	</clipPath>
	<g id="XMLID_3_" class="st0">
		<linearGradient id="XMLID_46_" gradientUnits="userSpaceOnUse" x1="700" y1="-3.150035e-008" x2="700" y2="618.0691">
			<stop  offset="0" style="stop-color:#9EE5E1"/>
			<stop  offset="1" style="stop-color:#F4F5E3"/>
		</linearGradient>
		<rect id="XMLID_21_" class="st1" width="1400" height="980"/>
		<g id="XMLID_166_">
			<path id="XMLID_172_" class="st2" d="M1511.1,355.5c-0.1-28.1-2.5-46.3-12.7-71.4c-3.1-7.7-7.2-7.1-7.4-27.1
				c-31-47.9-129.7-10.6-166.1,7.9c-61.3,31.3-99.3,71.7-104.3,139.9c-56.7-50.9-54.8,69.2-53.9,93.6c-28-15.7-53.6-19.7-75.3,9.1
				c-14.2,18.9-8.2,48.4-2.6,69.1c-30.2-0.7-53.7-20.9-85-22.6c-14.9-0.8-44.9-5.9-57.1,6.9c-5.6,5.9-3.5,14.9-8.1,21.8
				c-29.4-17.9-75.8-13.1-112.9,0.5c4.3-19.5,3.3-36.9-18.9-49.4c-32.3-18.1-81.2-5.8-112,9.1c4.9-9.2,16.9-30.9,9.8-41.8
				c-6.8-10.4-24.1-5.8-35.5-6.4c4-35.7-45-15.5-61.1-7c-43.6,23-69,62.2-104.9,91.2c1-88.2-130.2-73.9-180.2-34.5
				c5.3-16,7.8-53.1-17.8-47.8c-1-16.8,3.4-40.8-11.7-52.8c-25.6-20.3-66,12.1-88.2,20.8c-3-47.2-1.8-73.6-59.3-71.7
				c-44.3,1.5-87.5,11.7-129.2,26.5C2.4,424.6-26.3,433.6-33,449c-16.6,38.2-6,77.8-6,120c0,51.3-1.4,102.9,2.2,154.1
				c1.7,24.4,3.2,49.1,8.5,73c3,13.7,8.7,26.6,7.2,40.8l990-144c-0.1-2.2,0-4.4,0.2-6.5c40.3-0.4,80.6-0.9,121-1.3
				c90.7-1,181.1,6.8,271.8,5.5c41.5-0.6,93.2,4.4,133-9.3C1498.9,572.6,1511.6,464.9,1511.1,355.5z"/>
			<path id="XMLID_173_" class="st2" d="M336.2,377.1c11,0.2,20.3-6.1,28.9-12c1.1-0.8,2.6-0.7,3.7,0.2c2.3,1.8,4.9,1.4,7.5,0.2
				c2.1-0.9,4.5,0.7,4.4,3c0,0,0,0.1,0,0.1c0,1.7,1.3,3.2,3.1,3.2c12.9,0.4,24.1-1.7,35.8-5.8c1.7-0.6,3.6,0.3,4,2
				c0.8,2.8,8,4,12,3.6c12.6-1.3,25.9-5.6,36.3-12.8c5.6-3.9,12.9-8.8,7.4-13.8c-6.6-5.9-19.3,0.1-29.1,5.5
				c-2.6,1.4-5.5-1.1-4.5-3.9c2.9-7.6,1.5-15.2-8.8-16.5c-13.1-1.7-27.7,5.6-39.5,10.4c-7.8,3.2-18.9,12-27.6,14.1
				c-1.5,0.4-3.1-0.5-3.7-2c-3.4-9.9-28.7,7.6-31.1,14c-1.4,3.2-1.9,5.4-2,7.1C333,375.5,334.4,377.1,336.2,377.1z"/>
			<path id="XMLID_326_" class="st2" d="M516.4,362.4c12.3,0.6,29.3-7.4,37.9-15.9c6.4-6.4,2.9-8.2-10.2-8.6
				c-10.3-0.9-26,7.3-32.9,14.6C505,359.1,509,362.1,516.4,362.4z"/>
			<path id="XMLID_88_" class="st2" d="M1105.1,342.1c12.3,0.6,29.3-7.4,37.9-15.9c6.4-6.4,2.9-8.2-10.2-8.6
				c-10.3-0.9-26,7.3-32.9,14.6C1093.7,338.7,1097.6,341.8,1105.1,342.1z"/>
			<path id="XMLID_341_" class="st2" d="M817.6,465.4c-2.9,2.5-6.6,5.8-2.6,9.1c3.7,3,12.9,1.3,17.1,0.9c12.4-1.2,24.8-5,36.2-9.9
				c4.9-2.1,22.1-10.5,22.7-16.8c0.4-5-6.5-5-10.8-4.8c-12.6,0.4-27.7,5.2-39.8,11.6c1.8-2.3,1.8-4.9-2.7-5.9
				c-8.9-1.9-18.2,4.1-24.8,4.6c-4.3,1.3-22.3,11.3-20.1,17.5C795.5,478.9,814.1,466.3,817.6,465.4z"/>
		</g>
		<path id="XMLID_447_" class="st3" d="M1454.3,636.5c-1.2-40.5-37.9-73-77.1-83.1c-36.4-9.4-72.4,7.2-106.7,0.8
			c-23.6-4.4-38.2-24.9-65.1-12.1c-16.9,8-27.9,26.9-26.6,45.5c-2.7-9.7-13.3-16.5-23.3-14.9c-10,1.6-17.9,11.4-17.4,21.5
			c-9.4-10.7-30.1-6.6-34.7,6.9c-13.5-25.3-56.8-25.1-70.1,0.3c-29,1.5-58.2,3-87.5,4.9c-5.9-4.1-12.9-7.6-20.4-10.1
			c-31-10.3-67.9-4.2-91.3,19.1c-3.7,0.4-7.4,0.8-11.1,1.2c-21.8-16.5-54.5-12.9-81.4-4.2c-20.3,6.6-40,15.2-58.6,25.8
			c-85.7,17.9-168.4,45.3-244.5,89.1c279.6,3.1,559.2,6.1,838.8,9.2c38.1,0.4,77.4,0.6,112.6-13.9
			C1425.1,707.9,1455.4,674.6,1454.3,636.5z"/>
		<g id="XMLID_82_">
			<polygon id="XMLID_329_" class="st4" points="1264.4,473.9 1230.4,473.9 1197.8,497.5 1192.3,534.3 1175.4,542.9 1214.3,542.9 
				1297,495.7 			"/>
			<polygon id="XMLID_330_" class="st5" points="1300.4,488.2 1236.2,488.2 1212.5,505.4 1212.5,640.7 1404.7,640.7 1404.7,522.1 
							"/>
			<polygon id="XMLID_406_" class="st6" points="1300.4,488.2 1236.2,488.2 1212.5,505.4 1212.5,640.7 1306.4,640.7 1306.4,490.1 
							"/>
			<g id="XMLID_401_" class="st7">
				<polygon id="XMLID_405_" class="st8" points="1289.4,497 1306.5,545.1 1317.4,554.5 1404.7,558.8 1404.7,521.9 1300.4,488.2 
					1236.1,488.3 1212.5,505.6 1212.5,514 1236.2,497.1 				"/>
			</g>
			<g id="XMLID_347_">
				<rect id="XMLID_328_" x="1221" y="508.4" class="st9" width="24.5" height="36.6"/>
				<rect id="XMLID_335_" x="1222.4" y="511.9" class="st10" width="17.3" height="29.7"/>
				<rect id="XMLID_361_" x="1222.4" y="511.9" class="st11" width="2.7" height="29.7"/>
			</g>
			<g id="XMLID_384_">
				<rect id="XMLID_403_" x="1224.9" y="575.9" class="st9" width="58.6" height="64.8"/>
				<rect id="XMLID_399_" x="1228.3" y="583.2" class="st10" width="46.3" height="57.5"/>
				<rect id="XMLID_385_" x="1228.3" y="583.2" class="st11" width="7.3" height="57.5"/>
			</g>
			<g id="XMLID_352_">
				<rect id="XMLID_374_" x="1258.9" y="508.4" class="st9" width="24.5" height="36.6"/>
				<rect id="XMLID_360_" x="1260.8" y="511.9" class="st10" width="17.3" height="29.7"/>
				<rect id="XMLID_354_" x="1260.8" y="511.9" class="st11" width="2.7" height="29.7"/>
			</g>
			<rect id="XMLID_351_" x="1209.2" y="560" class="st9" width="198.7" height="4.4"/>
			<rect id="XMLID_382_" x="1212.5" y="564.4" class="st11" width="192.1" height="2.2"/>
			<polygon id="XMLID_98_" class="st12" points="1445.9,552 1324.2,542.9 1310.6,532 1297,495.7 1264.4,473.9 1358.4,484.2 
				1404.7,507.8 1417.3,542.9 			"/>
			<g id="XMLID_358_">
				<polygon id="XMLID_363_" class="st13" points="1417.3,542.9 1310.6,532 1324.2,542.9 1445.9,552 				"/>
				<polygon id="XMLID_366_" class="st14" points="1404.7,507.8 1300.4,494.4 1293.8,493.6 1297,495.7 1310.6,532 1417.3,542.9 				
					"/>
			</g>
			<polygon id="XMLID_348_" class="st9" points="1445.5,554.3 1322.4,545.3 1307.2,533.2 1293.6,497 1262.8,476.5 1232,476.6 
				1201.4,498.8 1195.9,535.8 1177.7,545.1 1173.1,541.2 1188.8,533.2 1194.2,496.6 1228.7,471.6 1265.9,471.5 1300.4,494.5 
				1314.1,530.9 1326.2,540.5 1446.4,549.3 			"/>
		</g>
		<g id="XMLID_91_">
			<g id="XMLID_336_">
				<path id="XMLID_337_" class="st15" d="M0,750.8V980h1400V620.5C786.7,597.6,163.5,716.8,0,750.8z"/>
			</g>
		</g>
		<g id="XMLID_342_">
			<g id="XMLID_389_">
				<path id="XMLID_396_" class="st16" d="M301,822c78.5-27,156.8-53.8,235-82c85.5-30.8,164.2-77.5,253.4-97
					c16.3-3.6,33.2-6.5,50.4-9.6c-35.1,2.7-69.8,5.6-103.8,8.7c-21.9,5.5-43.3,12.1-63.6,20.3c-44,17.8-86.6,38.8-130.9,56.4
					c-62.3,24.8-129.7,41-195,56.1c-80.4,18.6-161.3,33.9-240.4,57.2c-35.5,10.4-70.8,21.8-106.1,33v55.6
					c35.3-12.7,71.3-22.7,107.5-32.9C173.5,869.2,236.3,844.2,301,822z"/>
				<path id="XMLID_395_" class="st16" d="M284.6,925c46.2-15.9,88.8-37,133.4-56.5c194.9-85.4,386.3-179.8,588.9-245.2
					c-20.3,0.9-40.4,2-60.5,3.1c-28.1,9.7-55.7,21.5-80.4,29.6C726,702.1,593,768.7,449.6,806.5c-96.6,25.4-189.3,65.1-281.5,103.1
					c-47.8,19.7-94,42.4-141.1,63.6c-5.3,2.4-10.7,4.7-16,6.9h143c12.4-5.4,24.7-11,36.7-17.1C221.1,947.2,252.3,936.1,284.6,925z"
					/>
				<path id="XMLID_394_" class="st16" d="M576.7,658.8c-33.1,3.9-65.3,7.9-96.6,11.9C429,689.9,378.6,713.6,325.9,725
					c-66.6,14.4-132.3,32.2-198.5,48.4c-42.8,10.5-85.3,23-127.4,36.2v26.7c127.2-44.3,257.8-82,387.4-115.2
					C451.4,704.7,514.3,680.4,576.7,658.8z"/>
				<path id="XMLID_393_" class="st16" d="M884.2,717.2c68.5-33.9,138.4-67.9,209.3-97.3c-10,0.3-20,0.6-30,1
					c-17.7,6.1-35.4,12.2-52.6,19.2c-45.7,18.5-89.5,41.4-135,61c-48.9,21.1-97.1,44.3-145.9,66c-28.3,12.6-54.6,27.3-81.7,41.9
					c-37.7,20.4-77,32.1-115.8,50c-49.7,23-100.8,53.1-147.2,82c-22.2,13.9-44.4,26.9-67.4,39h117c68.2-42.5,136.2-85.4,204.1-128.1
					C717.4,802.7,801.6,758.1,884.2,717.2z"/>
				<path id="XMLID_392_" class="st16" d="M1299.9,676.1c-20.8,24.8-24.1,51.4-38.9,79c-13.9,26-24.5,59.4-42.4,82.8
					c-16.1,21-37.3,38.7-55,58.5c-24.2,26.9-49.5,56.3-76,83.6h62.3c12-15.6,24.8-30.4,35.6-43.8c24.2-30,42.4-62.9,63.5-95
					c20.6-31.3,37.6-60.4,48-95.4c12.5-42.2,44.3-93,82-126.1c-5.5-0.2-11-0.3-16.6-0.5C1340.6,636,1319.1,653.2,1299.9,676.1z"/>
				<path id="XMLID_391_" class="st16" d="M786.3,923.6c42.9-32.4,85.3-66,129.6-96.6c45.4-31.5,96.2-60,138.4-95
					c33.3-27.6,68.2-53.8,102.9-80.4c14.1-10.8,30.2-23.7,47.4-33.8c-11.5,0.1-22.9,0.2-34.3,0.4c-42.7,20.7-83.9,50.9-121.2,77.9
					c-64.4,46.5-135.6,82.9-200.9,129c-42.6,30-85.4,58.2-125.5,91.6c-25.5,21.2-51.2,42.3-76.7,63.5h80.4
					C746.2,960.7,765.5,939.3,786.3,923.6z"/>
				<path id="XMLID_390_" class="st16" d="M1071.6,868.1c27-25.7,57.5-57.4,79.5-87.6c9-12.3,14.4-27.5,23.9-39.5
					c12.5-15.8,29.7-29.2,43.6-44c25-26.7,50.3-54.3,77.3-79.1c-7.3-0.1-14.7-0.2-22-0.2c-29.4,31-68.1,57-99.3,85.3
					c-45.8,41.5-76.8,93.9-123.8,134.9c-52.4,45.6-101.9,94.6-152.9,142.1h66.3C998.9,941.7,1034,903.8,1071.6,868.1z"/>
			</g>
		</g>
		<path id="XMLID_442_" class="st17" d="M123.4,655.7c16-5.2,33.1-9.6,49.4-5.5s30.9,19.5,28.4,36.2c23.9-28.7,77-23.2,94.5,9.8
			c19.3-4.7,40.9,1.3,55,15.3c13-15.5,35.9-18.5,56-16c20.1,2.5,39.7,9.3,60,9.1c22.6-0.3,44-9.3,65.7-15.4
			c82.6-23.3,176.4-2,240.9,54.7c22.2-14.2,54.2-10.7,72.6,8.2c28.2-34.5,87.2-37,118.2-4.9c6.8-15.6,25.5-24.9,42.1-20.9
			c16.5,4.1,28.9,21,27.6,38c16.1-13.8,46.1,4.2,41.5,24.9c135.5-3.2,271.6,31.1,389.4,98.1c-499-90.9-1009.3-119.5-1515.3-84.9
			c15.3-40.3,21.3-62.4,57.4-87.9C42.4,689.2,81.9,669.3,123.4,655.7z"/>
		<g id="XMLID_441_">
			<path id="XMLID_443_" class="st18" d="M-19,629v23.3c1359.6,100.3,1452.7,184,1452.7,184l12.2-5.3C1132.8,714.9-19,629-19,629z"
				/>
			<g id="XMLID_359_">
				<g id="XMLID_678_">
					<path id="XMLID_710_" class="st19" d="M1377.3,896.5c4-29.1,13.6-87.8,13.6-87.8l-18.3-1.9c-2.1,28.6-4.9,57-7,85.6
						C1369.3,895.5,1372.9,897.1,1377.3,896.5z"/>
					<path id="XMLID_709_" class="st19" d="M1354.7,883.8c4-29.1,13.6-87.8,13.6-87.8l-18.3-1.9c-2.1,28.6-4.9,57-7,85.6
						C1346.6,882.8,1350.2,884.3,1354.7,883.8z"/>
					<path id="XMLID_708_" class="st19" d="M1321.5,874.5c4-29.1,13.6-87.8,13.6-87.8l-18.3-1.9c-2.1,28.6-4.9,57-7,85.6
						C1313.4,873.4,1317,875,1321.5,874.5z"/>
					<path id="XMLID_707_" class="st19" d="M1282.5,858.2c4-29.1,13.6-87.8,13.6-87.8l-18.3-1.9c-2.1,28.6-4.9,57-7,85.6
						C1274.5,857.2,1278.1,858.7,1282.5,858.2z"/>
					<path id="XMLID_706_" class="st19" d="M1259.8,854.5c-0.3-29.4,0.5-88.8,0.5-88.8l-18.4,0.8c2.1,28.6,3.6,57.1,5.7,85.7
						C1251.7,854.7,1255.5,855.7,1259.8,854.5z"/>
					<path id="XMLID_705_" class="st19" d="M1227.4,838.8c3.1-29.2,10.7-88.2,10.7-88.2l-18.3-1.3c-1.2,28.6-3,57.2-4.2,85.8
						C1219.3,838,1223,839.5,1227.4,838.8z"/>
					<path id="XMLID_704_" class="st19" d="M1193.8,838.1c3.1-29.2,10.7-88.2,10.7-88.2l-18.3-1.3c-1.2,28.6-3,57.2-4.2,85.8
						C1185.7,837.3,1189.4,838.7,1193.8,838.1z"/>
					<path id="XMLID_703_" class="st19" d="M1170.5,854.3c-0.9-29.4-1.1-88.8-1.1-88.8l-18.4,1.1c2.6,28.5,4.6,57.1,7.2,85.6
						C1162.4,854.6,1166.3,855.5,1170.5,854.3z"/>
					<path id="XMLID_702_" class="st19" d="M1079.6,820.6c-0.9-29.4-1.1-88.8-1.1-88.8l-18.4,1.1c2.6,28.5,4.6,57.1,7.2,85.6
						C1071.5,820.8,1075.4,821.8,1079.6,820.6z"/>
					<path id="XMLID_701_" class="st19" d="M1140.9,830.4c-0.9-29.4-1.1-88.8-1.1-88.8l-18.4,1.1c2.6,28.5,4.6,57.1,7.2,85.6
						C1132.8,830.7,1136.6,831.6,1140.9,830.4z"/>
					<path id="XMLID_700_" class="st19" d="M1100.8,807.3c2.9-29.2,10.4-88.2,10.4-88.2l-18.3-1.3c-1.1,28.6-2.8,57.2-3.9,85.8
						C1092.8,806.5,1096.4,808,1100.8,807.3z"/>
					<path id="XMLID_699_" class="st19" d="M1007.6,803.4c2.9-29.2,10.4-88.2,10.4-88.2l-18.3-1.3c-1.1,28.6-2.8,57.2-3.9,85.8
						C999.6,802.6,1003.2,804.1,1007.6,803.4z"/>
					<path id="XMLID_698_" class="st19" d="M1043.8,803.4c2.9-29.2,10.4-88.2,10.4-88.2l-18.3-1.3c-1.1,28.6-2.8,57.2-3.9,85.8
						C1035.7,802.6,1039.4,804.1,1043.8,803.4z"/>
					<path id="XMLID_697_" class="st19" d="M969.9,798.2c0.2-29.4,2.1-88.8,2.1-88.8l-18.4,0.4c1.6,28.6,2.6,57.2,4.1,85.8
						C961.8,798.2,965.6,799.2,969.9,798.2z"/>
					<path id="XMLID_696_" class="st19" d="M940.9,806.3c0.3-37.9,2.7-114.5,2.7-114.5l-23.7,0.6c2,36.9,3.3,73.7,5.3,110.6
						C930.4,806.3,935.3,807.7,940.9,806.3z"/>
					<path id="XMLID_695_" class="st19" d="M906.9,794c0.3-37.9,2.7-114.5,2.7-114.5l-23.7,0.6c2,36.9,3.3,73.7,5.3,110.6
						C896.5,794,901.4,795.4,906.9,794z"/>
					<path id="XMLID_694_" class="st19" d="M864.9,800.2c-1.1-37.9-1.3-114.5-1.3-114.5l-23.7,1.4c3.3,36.8,5.9,73.6,9.2,110.3
						C854.4,800.5,859.4,801.7,864.9,800.2z"/>
					<path id="XMLID_693_" class="st19" d="M782.2,788.7c-1.4-49.3-1.7-149.1-1.7-149.1l-30.8,1.8c4.3,47.9,7.7,95.8,12,143.7
						C768.6,789.2,775,790.7,782.2,788.7z"/>
					<path id="XMLID_692_" class="st19" d="M410.6,786.8c-1.4-49.3-1.7-149.1-1.7-149.1l-30.8,1.8c4.3,47.9,7.7,95.8,12,143.7
						C397,787.3,403.5,788.9,410.6,786.8z"/>
					<path id="XMLID_691_" class="st19" d="M368.3,767c-1.4-49.3-1.7-149.1-1.7-149.1l-30.8,1.8c4.3,47.9,7.7,95.8,12,143.7
						C354.7,767.5,361.1,769,368.3,767z"/>
					<path id="XMLID_690_" class="st19" d="M321.6,767c-1.4-49.3-1.7-149.1-1.7-149.1l-30.8,1.8c4.3,47.9,7.7,95.8,12,143.7
						C307.9,767.5,314.4,769,321.6,767z"/>
					<path id="XMLID_689_" class="st19" d="M187.3,767c-1.4-49.3-1.7-149.1-1.7-149.1l-30.8,1.8c4.3,47.9,7.7,95.8,12,143.7
						C173.7,767.5,180.2,769,187.3,767z"/>
					<path id="XMLID_688_" class="st19" d="M263.9,767c-1.4-49.3-1.7-149.1-1.7-149.1l-30.8,1.8c4.3,47.9,7.7,95.8,12,143.7
						C250.3,767.5,256.7,769,263.9,767z"/>
					<path id="XMLID_687_" class="st19" d="M129.7,764.7c-1.4-49.3-1.7-149.1-1.7-149.1l-30.8,1.8c4.3,47.9,7.7,95.8,12,143.7
						C116.1,765.2,122.5,766.8,129.7,764.7z"/>
					<path id="XMLID_686_" class="st19" d="M562.1,781.8c-1.4-49.3-1.7-149.1-1.7-149.1l-30.8,1.8c4.3,47.9,7.7,95.8,12,143.7
						C548.5,782.3,554.9,783.8,562.1,781.8z"/>
					<path id="XMLID_685_" class="st19" d="M513.8,772.1c-1.4-49.3-1.7-149.1-1.7-149.1l-30.8,1.8c4.3,47.9,7.7,95.8,12,143.7
						C500.2,772.6,506.6,774.1,513.8,772.1z"/>
					<path id="XMLID_684_" class="st19" d="M730.5,802.5c-1.4-49.3-1.7-149.1-1.7-149.1l-30.8,1.8c4.3,47.9,7.7,95.8,12,143.7
						C716.9,803,723.3,804.6,730.5,802.5z"/>
					<path id="XMLID_683_" class="st19" d="M655.8,803.5c9.7-48.4,31.7-145.8,31.7-145.8l-30.5-5.1c-6.5,47.6-14,95.1-20.4,142.8
						C642.4,800.9,648.4,803.9,655.8,803.5z"/>
					<path id="XMLID_682_" class="st19" d="M28.7,757c9.7-48.4,31.7-145.8,31.7-145.8l-30.5-5.1c-6.5,47.6-14,95.1-20.4,142.8
						C15.3,754.4,21.2,757.4,28.7,757z"/>
					<path id="XMLID_681_" class="st19" d="M439.3,790c9.7-48.4,31.7-145.8,31.7-145.8l-30.5-5.1c-6.5,47.6-14,95.1-20.4,142.8
						C425.9,787.4,431.8,790.4,439.3,790z"/>
					<path id="XMLID_680_" class="st19" d="M610.3,793.5C620,745.1,642,647.7,642,647.7l-30.5-5.1c-6.5,47.6-14,95.1-20.4,142.8
						C596.9,790.9,602.8,793.9,610.3,793.5z"/>
					<path id="XMLID_679_" class="st19" d="M806.8,793.4c6.1-37.4,20.4-112.7,20.4-112.7l-23.5-3.1c-3.7,36.7-8.2,73.4-11.9,110.1
						C796.5,791.7,801.1,793.9,806.8,793.4z"/>
				</g>
			</g>
		</g>
		<g id="XMLID_90_">
			<path id="XMLID_93_" class="st20" d="M0,735.5V980h1400V823.2C674.9,728.6,175.1,730.6,0,735.5z"/>
			<g id="XMLID_465_">
				<path id="XMLID_453_" class="st21" d="M863,899c-4.7,16.1,125.1,21.5,143.8,24.3c-6.7,20.1,75.6,11.1,88.2,11.6
					c29.8,1.3,59.3,8.7,87.7,16c-10.5-9.9-25.8-14.1-37.8-19.4c61.8-5.3,120.6,9.9,182,5.1c-10.8-3.2-31-4.8-40.8-11.6
					c-8.8-6.1-4.5-10.3-10.9-16.5c-25.4-24.8-88.3-2.5-120-1.3c18.6-4.8,35.3-16.6,52.9-24.3c-20.1-1.3-39.4,6.4-58.9,10.5
					c13-6.1,19-15.1,25.6-25.7c-15,12.6-31,15.9-48.2,23.9c14.7-6.3,31.7-20.5,32.8-37.5c-20.9-36.4-96.3-15-123.3,7.9
					c10.4-11.1,20.3-23.8,28-36.9c-16.5,12.1-30.6,26.9-47.5,38.6c1.9-10.8,3.7-21.5,4.9-32.4c-3.3,9.7-5.3,19.8-7.8,29.7
					c-11.5-34.9-55.8-39.4-85.7-23.2c-16.4,8.9-20.4,25-31.9,38.2c3.2-9,31.1-52.6,26.2-57.4C894.5,840.4,873.6,864.1,863,899z"/>
				<path id="XMLID_455_" class="st21" d="M-31,843c10.3-24,73-72.6,101.6-64.2c13.9,4.1,16.6,20.3,7.1,30.4
					c18.7-8.6,101.5-61.9,115-22.7c7.5,21.9-32.6,45.1-47.2,56.7c25.2-2.7,47.4-9.2,73.2-7.9c-1.4,17.2,61,5.3,78.4,7.7
					c22.9,3.1,46.3,5.8,69.2,8c-57.9-3.3-117.8,8.8-175.8,11.8c-57.9,3.1-115.9,8.1-174,10c-34,1.1-76.3-4.3-109.3,4.3
					C-72.2,870.8-56.1,853.7-31,843z"/>
				<path id="XMLID_460_" class="st21" d="M247,769c-1.7-38.1,63.7-90.6,100.9-84.2c30.2,5.2,21.6,34.5,19.3,56
					c22.7-7.2,79.2-22.9,56.4,23.9c24.1-0.2,43.7-7.4,62.6,11.3c6.8,6.8,10.8,15.3,18,21c-41.2-6.7-84.4-8.5-126-12.2
					c-53.7-4.7-108.4,6.1-161.3,2.1C220.2,785.9,236.5,775.6,247,769z"/>
				<path id="XMLID_461_" class="st22" d="M1047.9,870.3c-7.2,11.3-17.6,22.5-26.1,33.4c20-13,40.4-28.1,64.2-33.8
					c-12.8,2.9-24.4,14.7-34.7,22.4c-7.5,5.7-16.6,10.4-23.4,16.6c28.6-4.6,72.7-27.4,99.4-13.9c-15.3,3-38.9,5-51.3,13.8
					c22.1,1.8,47,1.3,66.1,13c-27.9,2.5-56.1-2.5-84,0.2c-16.3,1.6-35.8,6-51.9,3.8C1005.6,922.5,1036.4,880.6,1047.9,870.3z"/>
				<path id="XMLID_462_" class="st22" d="M889,902c3.7-15,16.8-24.1,24.9-36.8c-2.4,10-12.7,19.9-17.1,29.6
					c15.1-23.3,41.9-39,68-45c-22.1,10.8-39.9,28.2-59,42.9c19.9-8.6,39.9-13.9,61.8-13.7c-26.6,6.6-60.5,13.5-81.9,31.8
					C886.8,907.6,888.8,904.9,889,902z"/>
				<path id="XMLID_463_" class="st22" d="M323,776c-2.8-19.8,20.2-45.2,30.9-59.8c-11,19.5-24.6,37.7-31.3,59.8
					c6.7-13.4,24.9-29.9,38.8-36.2c-8.9,13-20.2,25-30.5,36.9c17.7-12.6,39.8-21.3,61.4-24.8c-24.7,12.5-52.6,20.5-75.9,35.7
					C317.9,783.6,320.4,779.9,323,776z"/>
				<path id="XMLID_464_" class="st22" d="M-15,869c18.7-16.5,41.9-27.8,61.9-42.6c6.8-5,13.5-12.6,22-14.5
					c-21.5,14.9-43.1,30.5-64.3,45.3C31.2,848,56.5,831,82.7,820c22-9.2,56-29.1,81.1-26.9c-49,31.3-107.6,47.2-156.6,79
					c32.6-12.3,68.6-20.4,103.7-20.2c-10.2,4.4-21.3,5.5-32.1,7.6c-20.4,4-41.1,9.6-60.7,16.5C1,882.1-21.2,877.6-15,869z"/>
			</g>
		</g>
		<g id="XMLID_445_">
			<ellipse id="XMLID_444_" class="st23" cx="229.8" cy="907.4" rx="220.4" ry="32.8"/>
			<ellipse id="XMLID_446_" class="st23" cx="512.4" cy="882.8" rx="92.8" ry="13.8"/>
			<ellipse id="XMLID_448_" class="st23" cx="604.6" cy="925" rx="52.8" ry="7.8"/>
			<ellipse id="XMLID_449_" class="st23" cx="733.2" cy="944.2" rx="39.4" ry="5.9"/>
			<ellipse id="XMLID_458_" class="st23" cx="483.6" cy="961.3" rx="39.4" ry="5.9"/>
			<ellipse id="XMLID_451_" class="st23" cx="420.1" cy="927" rx="39.4" ry="5.9"/>
		</g>
		<g id="XMLID_136_">
			<path id="XMLID_30_" class="st24" d="M315.7,845.9c0,0-62.7,48.1-131.8,19.7c-69.1-28.4-20.7-40.7-20.7-40.7
				S294.7,817.7,315.7,845.9z"/>
			<path id="XMLID_29_" class="st25" d="M305.3,927h-32.4c-0.7-2.6-1.3-4.6-1.1-7.3c-17.9-18.8-31.9-40.7-42.4-64.4
				c16.9-5.4,34.7-11.8,50.1-20.4c5,24.6,7.6,49.7,8,74.8C294,913.6,300.6,921.1,305.3,927z"/>
			<path id="XMLID_34_" class="st25" d="M103,934.9h32.4c0.7-2.6,1.3-4.6,1.1-7.3c17.9-18.8,31.9-40.7,42.4-64.4
				c-16.9-5.4-34.7-11.8-50.1-20.4c-5,24.6-7.6,49.7-8,74.8C114.2,921.5,107.7,929,103,934.9z"/>
			<linearGradient id="XMLID_467_" gradientUnits="userSpaceOnUse" x1="229.3441" y1="851.7344" x2="283.4196" y2="851.7344">
				<stop  offset="0" style="stop-color:#C0547D"/>
				<stop  offset="1" style="stop-color:#FCAEA2"/>
			</linearGradient>
			<path id="XMLID_310_" class="st26" d="M279.5,834.9c-15.4,8.7-33.3,15.1-50.1,20.4c2,4.5,4.1,8.9,6.3,13.2
				c16.2-1,32.1-5.3,47.8-10.7C282.3,850.2,281,842.5,279.5,834.9z"/>
			<linearGradient id="XMLID_480_" gradientUnits="userSpaceOnUse" x1="123.3582" y1="862.1912" x2="178.9198" y2="862.1912">
				<stop  offset="0" style="stop-color:#C0547D"/>
				<stop  offset="1" style="stop-color:#FCAEA2"/>
			</linearGradient>
			<path id="XMLID_320_" class="st27" d="M170.2,881c3.1-5.8,6-11.7,8.7-17.8c-16.9-5.4-34.7-11.8-50.1-20.4
				c-2.3,11.4-4.1,22.9-5.4,34.5C138.6,881,154.5,882.5,170.2,881z"/>
			<path id="XMLID_110_" class="st28" d="M15.4,636.8c0,0,71.4-26.8,131-4.5c0,0-13.6,48.2-64.9,42C30.1,668,19.2,659.7,15.4,636.8z
				"/>
			<path id="XMLID_27_" class="st25" d="M271.5,547.4c8.2,24,15.9,48.6,17.2,73.9c1.3,25.3-4.3,51.9-20.4,71.6
				c-6.2-1.4-11.7-5.8-14.5-11.5c-2.6-5.3-0.7-11,0.5-16.8c1.2-5.8,4.3-11.4,9.4-14.4c-15.2-22.7-26.1-48.6-32.7-75.1
				c-1.5-5.8-2.6-12.3,0.1-17.6c2-3.9,5.8-6.5,9.8-8.4C249.3,545.1,262.6,545.4,271.5,547.4z"/>
			<linearGradient id="XMLID_483_" gradientUnits="userSpaceOnUse" x1="229.6227" y1="571.0864" x2="274.2225" y2="571.0864">
				<stop  offset="0" style="stop-color:#C0547D"/>
				<stop  offset="1" style="stop-color:#FCAEA2"/>
			</linearGradient>
			<path id="XMLID_302_" class="st29" d="M274.2,555.5c-0.9-2.7-1.8-5.4-2.8-8.1c-8.9-2-22.2-2.2-30.4,1.6c-4,1.9-7.8,4.5-9.8,8.4
				c-2.8,5.3-1.6,11.8-0.1,17.6c1.8,7.1,3.9,14.2,6.3,21.2C250.5,583.3,262.8,569.7,274.2,555.5z"/>
			<path id="XMLID_28_" class="st30" d="M129.4,647.8c-10.4,10.7-14.1,26.1-16.9,40.8C101.8,744.3,98,801.3,101.1,858
				c9.5,10.8,26.2,12.6,40.6,13.7c17.8,1.4,35.8,2.1,53.4-0.9c20.5-3.5,39.7-11.8,59.4-18.2s40.8-11,61.1-6.7
				c-8.4-20.5-20.6-39.5-31.9-58.5c-23.8-40.1-31.7-87.4-41.8-133c-0.8-3.4-1.6-7-3.9-9.6c-2.5-2.8-6.2-4-9.7-5
				C198.7,631.4,150.8,625.7,129.4,647.8z"/>
			<path id="XMLID_26_" class="st31" d="M246.8,632.3c10,14.1,15.3,30.9,21.6,47c16.2,41,40.4,78.8,71,110.6
				c-16,9.4-32,17.7-48,27.2c-15.4,9.1-31.1,18.3-48.5,22.3c-17.4,4-37.2,2-50.8-9.5c-15.6-13.1-24.6-33.7-34-51.8
				c-21.7-41.7-38.1-88.4-32.4-135.1C164,634.5,208.1,625.7,246.8,632.3z"/>
			<path id="XMLID_132_" class="st32" d="M249.6,639.9c-2.3,15.3-14.4,27.6-28.3,34.5c-13.8,6.9-29.4,9.5-44.5,12.6
				c28.5,4.6,55.1-2,82.7-10.3c-18.5,15.1-43,22.1-66.9,21.1c-23.9-1-47.1-9.8-66.8-23.3c32.3,2.6,65.2-3.9,94.1-18.6
				c-28,6.7-57.5,7.2-85.8,1.5c15.4-0.3,30-6.6,44.8-10.9c17.5-5,35.9-7.2,54.1-6.5C237.1,640.2,246.1,642.1,249.6,639.9z"/>
			<path id="XMLID_20_" class="st33" d="M131.3,654.5c12.4,8.8,32.2,11.6,45.2,11.6c12.9,0,25.8-1.4,38.4-4.5
				c11.6-2.9,26.1-6.8,34.5-15.7c4.5-4.8,7.2-11.9,5.1-18.1c-2.6-8.1-11.5-12.1-19.7-14.6c-20.5-6.1-42.2-7.8-63.3-5.3
				c-10.8,1.3-21.5,3.7-31.8,7.1c-6.6,2.2-17.2,4.3-18.9,12.2C118,639.9,122.9,648.6,131.3,654.5z"/>
			<path id="XMLID_19_" class="st25" d="M53.8,612.5c-0.7,9.4-0.4,19.4,4.4,27.4c1.3,2.2,3,4.2,5.2,5.5c1.9,1.1,4,1.6,6.1,2
				c12.5,1.9,25.4-3.2,35-11.4s16.4-19.3,21.9-30.7c5-10.3,9-21.2,10.5-32.5c0.2-1.3,0.3-2.6-0.2-3.8c-0.5-1.1-1.4-1.9-2.3-2.6
				c-8-6.5-16.8-12.2-26.6-15.4c-13.4-4.3-30.2-4.8-38.2,8.2C60.1,574.9,55.2,594.3,53.8,612.5z"/>
			<linearGradient id="XMLID_486_" gradientUnits="userSpaceOnUse" x1="59.3826" y1="565.7224" x2="137.0686" y2="565.7224">
				<stop  offset="0" style="stop-color:#FCAEA2"/>
				<stop  offset="1" style="stop-color:#C0547D"/>
			</linearGradient>
			<path id="XMLID_307_" class="st34" d="M135.6,579.9c0.5-2.4,1-4.8,1.3-7.2c0.2-1.3,0.3-2.6-0.2-3.8c-0.5-1.1-1.4-1.9-2.3-2.6
				c-8-6.5-16.8-12.2-26.6-15.4c-13.4-4.3-30.2-4.8-38.2,8.2c-4.4,7.2-7.7,15.1-10.3,23.4C84.7,584.1,110.2,582.9,135.6,579.9z"/>
			<path id="XMLID_23_" class="st35" d="M89.3,590c-27.6,0.1-54.6,17.4-67.5,43.3c-1.5,2.9-2.8,6-2.9,9.4c-0.2,3.3,1.1,6.9,3.8,8.6
				c3.7,2.4,8.7,0.4,11.5-3c2.9-3.4,4.2-7.9,5.9-12.1c4.3-10.5,11.8-20,21.7-24.5c8.7-3.9,18.6-3.6,27.9-1.8s18.3,4.9,27.6,6.7
				c4.2,0.8,8.5,1.3,12.6,0.2c10.8-2.7,14.5-17.7,2.4-20.7C118.7,592.7,103.3,589.9,89.3,590z"/>
			<path id="XMLID_17_" class="st36" d="M217.6,579.1c24.5-8.7,47.5-21,68.9-35.7c-14.7-23.3-47.7-70-71-75.7
				c-21.8-5.4-46.5-2.5-66.3,8c-35.8,18.9-66.8,46.9-89.2,80.6c20.3,14.6,45.3,20.3,69.9,24.4C160.8,585.9,188.1,589.6,217.6,579.1z
				"/>
			<path id="XMLID_32_" class="st37" d="M142,544.7c-7.9-9.6-17.7-17.6-28.6-23.5c4.5,6.5,9.1,13,13.6,19.5c1.2,1.8,2.5,3.6,2.9,5.7
				c0.6,2.7-0.3,5.5-1.2,8.1c-4.2,13.2-7.1,27.9-1.4,40.4c9.1-13.7,17.2-28,24.2-42.8c2.9-6.1,5.7-12.5,6-19.2
				c0.5-8.9-3.5-17.7-9.5-24.3c-5.2-5.6-19.3-17.5-20.2-2.9C127.3,516.6,138.1,534.5,142,544.7z"/>
			<path id="XMLID_33_" class="st37" d="M241.2,500.2c3.1,13.6,0,28.5-8.3,39.7c8.2-4.7,15.5-11,21.4-18.4
				c-0.6,8.4-5.5,15.8-11,22.2s-11.7,12.3-15.8,19.6c-1.2-10.7-3.7-20,1.1-29.8C232.8,525.2,243.5,510.2,241.2,500.2z"/>
			<g id="XMLID_108_">
				<path id="XMLID_13_" class="st38" d="M184.5,498.1c-8.2,4.6-15.5,10.6-21.6,17.7c-2.5,2.9-4.8,6-6.2,9.6s-1.6,7.7,0,11.1
					c2.6-0.6,5.2-1.4,7.3-3.1c-0.9-4.7-0.2-10.1,2.3-14.2s6.2-7.4,9.8-10.5c6.3-5.4,13-10.3,20-14.7
					C192.8,493.7,187.4,496.4,184.5,498.1z"/>
				<path id="XMLID_14_" class="st38" d="M190.2,495c-1.1,9.8-2.2,19.8-0.4,29.5c0.8,4.2,2.7,8.9,6.8,10c0.7-1.3,2.1-2.5,2.7-3.8
					c-4.8-15.5-7.7-32.5-7.2-48.7C190.7,486,190.7,490.7,190.2,495z"/>
				<path id="XMLID_15_" class="st38" d="M187.9,496c2.6,4.9,5.6,9.5,8.8,14c1.3,1.8,2.8,3.7,4.8,4.5c3.9-2.4,8-5,10.2-9
					c-8-8.8-17.5-17.5-27.2-24.3c0.2,3.4,0.3,6.8,0.5,10.2c0,0.5,0.1,1.1,0.4,1.4c0.4,0.4,1.1,0.3,1.6,0.3c3.8-0.3,7.4,1.7,10.3,4.1
					c2.9,2.4,5.4,5.4,8.3,7.8c-1.5,1.9-2.9,4.5-4.2,6.5C198.4,505.9,192.3,500.7,187.9,496z"/>
				<path id="XMLID_16_" class="st38" d="M182,494.1c-8.6,0.6-17.1,2.8-25,6.5c-1.6,5.7,1.3,12.8,6.9,14.7
					c9.1-6.1,18.9-12.1,28-18.2c-9.3,3.8-20.1,8-29.2,12.2c-1.1-2.1-2.4-4.4-2.5-6.8C168.2,499.8,174,497,182,494.1z"/>
			</g>
			<path id="XMLID_12_" class="st38" d="M192.6,500.6c9.5,0,19.9-3.5,24.1-12c1.9-3.9,2.3-8.4,2.7-12.8c0.7-8.5,1.2-17.7-3.1-25.1
				c-2.1,5.3-7.9,7.9-13.3,9.9c-17.8,6.6-35.7,9.7-54.1,13.8c5.7,6.8,10,13.6,17.8,18.5C174.4,497.8,183.5,500.6,192.6,500.6z"/>
			<path id="XMLID_11_" class="st39" d="M178.2,493.2c-20.8-5.1-39.6-17.7-52.2-35c-12.6-17.3-18.8-39.1-17.3-60.5
				c0.3-4.8,1.1-9.7,2.7-14.2c2.7-7.5,7.8-14,13.8-19.4c10.7-9.7,27.3-10.4,41.8-10.1c8.2,0.2,16.5,0.6,24.5,2.6
				c2.9,0.7,5.8,1.6,8.3,3.3c2.6,1.8,4.5,4.3,6.3,6.9c12.8,19,17.8,42.6,16.7,65.5c-0.7,14.3-3.9,29.1-12.8,40.3
				c-5.3,6.7-12.3,11.8-19.3,16.8C187.3,491.8,182.1,494.1,178.2,493.2z"/>
			<path id="XMLID_10_" class="st38" d="M168.7,480.4c-8.6,1-17.6-1.2-24.5-6.3c-7-5.1-11.5-13-12.4-21.6c-2.5-1.3-5.1-2.5-7.1-4.5
				c-2-1.9-3.5-4.6-3.4-7.4c0.2-3.3,2.3-6.4,2.6-9.7c-1.6-0.3-3.2-0.7-4.3-1.8c-1.1-1.1-1.5-3.2-0.4-4.2c0.4-0.4,1-0.8,0.9-1.3
				c-0.1-0.3-0.4-0.5-0.7-0.7c-3.4-1.6-6.9-3.1-9.7-5.6s-4.6-6.5-3.5-10c0.6-1.9,1.9-3.4,3.2-4.8c2.5-2.6,5.1-5.2,8-7.3
				c-2.3-1.5-4.3-3.4-5.8-5.7c-0.6-1-1.2-2.1-1.1-3.2c0.1-0.8,0.5-1.5,0.9-2.2c2.1-3.3,5.3-5.7,8.8-7.3c-1.5-6.5-1.6-13.4-0.4-20
				c0.3-1.5,0.8-3.2,2.1-4c1.3-0.8,2.9-0.5,4.4-0.2c6.9,1.4,13.8,2.8,20.8,4.2c1.8-2.1,5.3-4.5,7.5-6.1s5-2.8,7.7-2.6
				c1.1,0.1,2.2,0.3,3.2,0.7c3.9,1.2,7.6,3.1,10.9,5.6c3.5-3.2,8.4-6.6,12.9-8.2c1.2-0.4,2.6-0.8,3.8-0.2c1,0.5,1.5,1.6,2,2.7
				c1.8,4.2,3.4,8.6,4.8,13c2.6,0.6,6.2,0.8,8.3,2.4c2.8,2.1,4.1,5.7,4.2,9.2c0.1,3.5-0.7,6.9-1.6,10.3c1.8,0.2,3.6,2.1,4.2,3.8
				c0.6,1.7,0.6,3.6,0.5,5.4c-0.1,2.8-0.3,5.6-0.5,8.3c4.6,2.6,8.1,8.1,8.2,13.4c0.1,2.8-0.6,5.5-1.2,8.2c-1,3.9-1.9,7.9-2.9,11.8
				c2.8,1.6,4.9,4.9,4.7,8.2s-1.7,6.3-3.2,9.2c-4.1,8.2-8.6,16.3-13.4,24.2c-0.8,1.3-1.6,2.6-2.8,3.4c-1.3,0.9-3,1.2-4.6,1.4
				C189.7,482.2,178.8,479.2,168.7,480.4z"/>
			<path id="XMLID_9_" class="st40" d="M196.9,384.4c4.4,18.3,9.3,30.4,18.2,47c0.2-10.6,1.7-14.8,0-25.3
				c-1.7-10.6-4.5-21.4-11.1-29.8c-1.8-2.3-4.1-4.5-7-4.6c-0.5,0-1,0-1.4,0.3c-0.4,0.3-0.5,0.9-0.6,1.4
				C194.6,377.6,195.9,380.4,196.9,384.4z"/>
			<path id="XMLID_2_" class="st25" d="M209.2,410c3.7,11.8,6.6,23.8,9.4,35.8c3.5,15.2,7.2,32.8-7.5,43.5c-6.9,5.1-15.8,7-24.4,6.8
				c-12.7-0.3-27.2-4.9-36.5-14c-9.3-9.1-12.2-23-15-35.2c-3.3-14.8-4.6-30.2-3.9-45.3c0.2-4.5,0.6-9,2.1-13.2
				c1.5-4.1,3.9-7.7,6.8-10.9c8-8.9,19.7-14.7,31.7-15c9.6-0.3,27.1,5.8,31.9,27.6C205.3,396.8,207.1,403.5,209.2,410z"/>
			<path id="XMLID_8_" class="st40" d="M201.8,384.3c-3.3,9.6-9.8,18-18.2,23.7c2.2-4.5,3.6-9.4,4.2-14.4
				c-9.4,7.3-19.5,13.8-30,19.3c-6,3.1-12.4,6-19.2,6c2.6,11.9,3.5,24.4-1.7,35.4c-4.7-14.6-13.8-30.5-13.7-45.8
				c0.1-15.3,5.7-31.4,18.2-40.3c9.6-6.9,21.8-8.7,33.6-9.4c7-0.4,14.3-0.5,20.5,2.6C201.7,364.4,204.1,377.7,201.8,384.3z"/>
			<path id="XMLID_18_" class="st41" d="M118.6,620c3.3-32.6,10.4-64.8,21.2-95.8c-6.4-11.2-13.5-21.9-20.4-32.8
				c6.8-4.7,13.8-9.1,21.1-13.1c9.2,13.4,15.6,27.8,21.7,42.9c16.7,1.4,35,3,51.7,4.3c3.3-19.3,5.6-38.6,6.6-58.2
				c6.3,2.9,12.3,6.7,16.8,11.9c-0.9,15.3-2.5,30.2-5.3,45.3c11.4,26.9,20.1,61.9,24.3,93.3c1.7,13-6.1,25.4-18.6,29.6
				c-28.6,9.6-70.2,13.3-102.2,0.7C124.2,643.6,117.3,632.1,118.6,620z"/>
			<path id="XMLID_214_" class="st42" d="M130.6,484c-3.8,2.3-7.5,4.8-11.2,7.4c6.9,10.9,14,21.6,20.4,32.8
				c-10.8,31-17.9,63.2-21.2,95.8c-1.2,12.1,5.6,23.6,16.9,28.1c32,12.6,73.7,8.8,102.2-0.7c12.5-4.2,20.3-16.5,18.6-29.6
				c-0.5-3.8-1.1-7.7-1.7-11.7C223.1,594.5,164.8,573.2,130.6,484z"/>
			<path id="XMLID_25_" class="st43" d="M141.5,656.9c8.3,32.9-1.7,70.4-23.9,96.1c-24.8,8.3-51.1,7.4-75.5-2.1
				c-17.2-29.7-25.3-64.4-23.2-98.7c2.4,2.8,6,4.3,9.5,5.3C64.2,667.3,105.5,666.1,141.5,656.9z"/>
			<path id="XMLID_295_" class="st28" d="M143.5,667.1c-0.5-3.4-1.1-6.8-1.9-10.2c-36,9.2-77.3,10.3-113.1,0.6
				c-3.5-1-7.1-2.5-9.5-5.3c-0.6,10.2-0.3,20.5,0.8,30.7C61.7,688,103.6,681,143.5,667.1z"/>
			<path id="XMLID_22_" class="st25" d="M146.6,635.2c4.5,4.9,12.3,6.3,18.2,3.3c2-1,3.8-2.4,6-2.9c3.6-0.7,7,1.6,10.3,3.2
				c2.2,1,4.7,1.8,7.1,1.1s4.2-3.3,3.3-5.6c-0.7-1.7-2.5-2.6-4.1-3.3c-3.8-1.7-7.5-3.3-11.3-5c6.8,0.6,13.8,0,20.4-2
				c1.6-0.5,3.4-1.6,3-3.2c-0.2-0.7-0.8-1.1-1.4-1.5c-7.1-4.6-16-5.1-24.5-5.4c6.3-3.6,14.3-0.7,21.4-2.3c1.1-0.2,2.2-0.6,2.9-1.4
				c1.4-1.6,0.5-4.3-1.2-5.6s-4-1.5-6.1-1.5c-6.1-0.2-13.4-0.5-19.4,0.4c5.2-2,10.5-4.1,15.7-6.1c0.5-0.2,1-0.4,1.2-0.8
				c0.5-0.8,0-1.8-0.7-2.5c-1.7-1.7-4.4-2.1-6.7-1.7s-4.5,1.6-6.6,2.7c-10,5.6-19.9,11.2-28.7,18.6c-22.2-9.9-79.8-21.5-90.1-0.3
				c-3.2,6.6-4.9,14.2-2.6,21.1c2.8,8.6,10.4,15,18.9,18.1c8.5,3.1,17.7,3.2,26.7,2.2C115.9,653,131.7,645.2,146.6,635.2z"/>
			<path id="XMLID_24_" class="st35" d="M139.1,640c-26.8,14.2-58.5,19.1-88.3,13.6c-13.1-2.4-26.3-7.1-35.4-16.8
				c-7.4,3.7-7.7,15.3-2.4,21.7c5.3,6.4,13.8,8.9,21.9,10.7c34,7.5,70.4,7.5,102.5-5.9c7.2-3,15-7.9,15.7-15.7
				c0.5-5.7-3.2-10.8-6.7-15.3C145.1,634.4,141.3,638.8,139.1,640z"/>
			<g id="XMLID_215_">
				<path id="XMLID_279_" class="st44" d="M287.5,909.8c0,0-3.5,8.9-15.7,10c-0.2,2.7,0.4,4.7,1.1,7.3h32.4
					C300.6,921.1,294,913.6,287.5,909.8z"/>
				<path id="XMLID_290_" class="st44" d="M120.8,917.7c-6.5,3.8-13.1,11.3-17.8,17.3h32.4c0.7-2.6,1.3-4.6,1.1-7.3
					C124.2,926.5,120.8,917.7,120.8,917.7z"/>
			</g>
			<path id="XMLID_75_" class="st45" d="M148.5,420c4.2-2.9,9.7-2.8,14.7-2.7c2.3,0.1,4.6,0.1,6.9,0.2c0-2.5,0.2-5.1,0.4-7.6
				c-0.5,1.7-0.9,3.4-1.4,5.1c-0.1-1.5-0.1-3-0.2-4.5c-3.6,0.5-7.3,1.2-10.7,2.5S150.7,417.1,148.5,420z"/>
			<path id="XMLID_76_" class="st45" d="M205.2,413.6c-4.3,0-8.6,0.3-12.9,1c-2,0.3-4,0.7-5.7,1.7c-0.9-3-1.7-6.1-2.4-9.2
				c0.6,2.2,1.5,4.5,2.8,6.5c-0.2-1.8-0.6-3.6-1.1-5.4C192.8,407,199.8,409,205.2,413.6z"/>
			<path id="XMLID_77_" class="st45" d="M159.1,423.4c-0.5,0-1,0.1-1.3,0.4c-0.3,0.3-0.4,0.7-0.5,1.1c-1.1,4.4-0.4,9.2,2.1,13.1
				c0.5,0.8,1.1,1.5,1.9,2c1.2,0.7,2.7,0.7,4,0.1c2.3-1.1,3.6-4.1,2.7-6.5c-0.6-1.6-1.9-2.8-3.1-4.1c-1.2-1.3-2.3-2.8-2.2-4.5
				c0,0.5,5.2-1.9,5.6-2.4c-1-0.5-2.7,0.3-3.8,0.5C162.6,423.3,160.8,423.3,159.1,423.4z"/>
			<path id="XMLID_79_" class="st45" d="M191.2,419.5c-0.4,0-0.8,0.1-1.1,0.3c-0.3,0.2-0.4,0.6-0.5,0.9c-1,3.8-0.3,7.9,1.8,11.2
				c0.4,0.7,0.9,1.3,1.6,1.7c1,0.6,2.4,0.6,3.4,0.1c2-0.9,3.1-3.5,2.3-5.5c-0.5-1.4-1.6-2.4-2.6-3.5c-1-1.1-2-2.4-1.9-3.9
				c0,0.4,4.4-1.6,4.8-2c-0.9-0.4-2.3,0.3-3.2,0.4C194.3,419.5,192.7,419.4,191.2,419.5z"/>
			<linearGradient id="XMLID_489_" gradientUnits="userSpaceOnUse" x1="177.3947" y1="437.6978" x2="203.4557" y2="437.6978">
				<stop  offset="0" style="stop-color:#FCAEA2"/>
				<stop  offset="1" style="stop-color:#C0547D"/>
			</linearGradient>
			<path id="XMLID_78_" class="st46" d="M189.7,431.6c2.4-0.9,4.8-1.8,7.4-1.7c2.5,0.1,5.2,1.4,6.1,3.8c0.9,2.4-0.3,5.2-2.1,7
				c-3.5,3.6-8.9,4.7-13.9,4.8c-2.3,0-4.7-0.1-6.8-1.3s-3.5-3.6-2.8-5.8C178.7,434.3,186.2,432.9,189.7,431.6z"/>
			<path id="XMLID_128_" class="st47" d="M189.7,431.6c0,0,0.3-0.2,0.9-0.4c0.6-0.2,1.4-0.6,2.4-1c1-0.3,2.3-0.7,3.7-0.7
				c0.4,0,0.7,0,1.1,0c0.4,0,0.7,0.1,1.1,0.2c0.7,0.2,1.4,0.4,2.1,0.8c0.7,0.4,1.2,0.9,1.7,1.5c0.5,0.6,0.8,1.3,1,2
				c0.2,0.7,0.2,1.4,0.1,2.1c-0.1,0.6-0.3,1.2-0.5,1.7c-0.4,1-1,1.7-1.4,2.2c-0.2,0.2-0.4,0.4-0.5,0.5c-0.1,0.1-0.2,0.2-0.2,0.2
				s0.2-0.3,0.6-0.8c0.2-0.3,0.4-0.6,0.6-1c0.2-0.4,0.4-0.8,0.6-1.3c0.2-0.5,0.3-1,0.3-1.6c0-0.6,0-1.2-0.2-1.8
				c-0.2-0.6-0.5-1.2-0.9-1.7c-0.4-0.5-0.9-0.9-1.5-1.3c-0.6-0.3-1.2-0.6-1.9-0.8c-0.3-0.1-0.7-0.1-1-0.2c-0.2,0-0.3,0-0.5-0.1
				c-0.2,0-0.3,0-0.5,0c-1.3,0-2.5,0.2-3.6,0.4c-1,0.3-1.9,0.5-2.5,0.7C190,431.5,189.7,431.6,189.7,431.6z"/>
			<path id="XMLID_81_" class="st48" d="M171.1,460.8c3.4,2.1,6.6,4.5,10.3,6s8,2,11.6,0.2s5.8-6.4,4.1-10c-3.4,1.4-7,2.2-10.6,2.3
				L171.1,460.8z"/>
			<path id="XMLID_80_" class="st49" d="M201.7,454.7c-6.8,7-24.3,9.6-34.3,5.6c2.2,0.9,4.9,0.3,7.2-0.3c2.3-0.6,4.5-1.6,6.8-2.4
				c3.5-1.1,7.2-1.6,10.9-1.5c1.6,0.1,3.3,0.3,4.9,0.1C198.9,456.1,200.6,455.4,201.7,454.7z"/>
			<path id="XMLID_125_" class="st50" d="M144,374.2c-0.7,3.1-1.4,6.1-2.1,9.2c3-1.7,6.1-3.5,9.1-5.2c0.5,2.7,4.1,3.2,6.8,2.8
				c11.2-1.5,22.1-6.2,30.8-13.4c1-0.9,2.2-1.8,3.6-1.7c1.3,0.2,2.2,2.2,1,2.9c1.4-0.2,2.5-1.8,2-3.2c3.7,5.5,2.8,13.7-2,18.3
				c0.8-2,0.4-4.5-1.1-6.1c-0.1,2.3-2.1,4.2-4.3,5.1s-4.5,1.2-6.7,2c-2.7,1-5,2.8-7.4,4.4c-4.6,3-9.7,5.1-15,6.3
				c-2.7,0.6-5.9,0.8-7.6-1.3c-0.9-1.1-1.3-2.7-2.5-3.4c-1.8-1.1-4,0.3-5.5,1.7c-1.7,1.4-3.4,2.9-5.1,4.3c-0.5,0.4-1,0.8-1.6,0.7
				c-1-0.2-1-1.6-0.8-2.6c0.4-2.1,0.8-4.1,1.1-6.2c-5.4,5.8-8.3,13.9-7.9,21.8c-2.3-6.6-0.6-13.5,2.2-19.6c1.5-3.3,3.4-6.5,5.6-9.3
				C137.9,379.9,143.6,376,144,374.2z"/>
			<path id="XMLID_129_" class="st44" d="M221.3,548.5c-9.4,6-21.1,7.8-32.2,6.7c-10.4-1.1-20.3-4.6-29.8-8.8
				c10.3,0.7,20.6,1.9,31,2.3C197.1,548.9,215.7,552.1,221.3,548.5z"/>
			<path id="XMLID_133_" class="st32" d="M247.6,696.8c-31.2,16.6-66.7,25.1-102.1,24.4c17.6,6.2,34.6,6.2,52.4,0.8
				S231.3,705.8,247.6,696.8z"/>
			<g id="XMLID_299_">
				<path id="XMLID_308_" class="st51" d="M268.5,679.3c-3.2-8.1-6.1-16.3-9.5-24.3c4.4,25.8,11.7,51.1,21.8,75.2
					c0.6,1.5,1.3,3.2,1,4.8c-0.5,2.4-2.8,3.9-4.9,5.1c-28.5,15.6-60.6,23.1-92.3,30.4c36.6-3.1,72.8-9.6,108.3-19.1
					c-17,14.3-37.8,24-59.6,27.9c6.4,4.4,12.8,8.8,19.2,13.1c1.9,1.3,3.8,2.6,6,3.2c2.9,0.8,6.1,0.3,9.1-0.3
					c15.8-2.9,31.6-6.1,47.3-9.7c-21.3,18.9-43.8,38.4-71.3,45.6c-15.3,4-31.5,3.8-47.2,1.8c13.3,8.7,30.9,10,46.7,6.4
					c17.4-4,33.1-13.2,48.5-22.3c16-9.4,32-17.7,48-27.2C308.9,758.1,284.7,720.3,268.5,679.3z"/>
			</g>
		</g>
		<g id="XMLID_109_">
			<path id="XMLID_65_" class="st25" d="M356.5,893.8c-3.7,5.8-7.4,11.7-10.1,18c-2.7,6.3-4.4,13.2-3.8,20.1h18.7
				c-0.3-1.9-0.7-4.2-0.2-6.1c3.6-13.3,7.2-26.6,12.5-39.3C368,886.3,359.5,889.1,356.5,893.8z"/>
			<path id="XMLID_66_" class="st25" d="M531.1,876.1c0.2,12.6-1.2,25.3-4.2,37.5c12.3,0.3,24.5,0,36.8,0.3c0.3,0,0.6,0,0.9-0.2
				c0.3-0.2,0.4-0.6,0.5-0.9c0.7-2.5,1.3-5,2-7.6c-6.6-1.4-14.1-3.9-20.3-6.3c0.4-11.2,0.2-22.9,1.7-34
				C542.2,866.8,536.3,872.3,531.1,876.1z"/>
			<path id="XMLID_72_" class="st52" d="M604.2,776.1c-3.7,29.1-11.2,57.8-22.4,85c10.3-15.4,20.8-31.7,22.4-50.1
				c0.3,11.1,0.7,22.2,0.9,33.3c0.2,7.3,0.3,14.7,2.4,21.6c2,7,6.2,13.7,12.6,17.1c0.1-11.4,0.3-22.9,0.4-34.3
				c3.1,14.5,6.1,29,9.2,43.5c1-19.9,2-39.9,3-59.8c3.3,10.1,2.4,20.9,3.7,31.4s9.7,21.6,19.5,25.6c2.3-37.9-13.1-75.2-13.4-113.2
				c0-1.8,0-3.8-1-5.3c-1.4-2.3-4.2-3.1-6.9-3.4C623.7,766.1,612.9,769,604.2,776.1z"/>
			<path id="XMLID_58_" class="st25" d="M567.1,714.1c0.3,5.9,0.8,11.8,1.5,17.7c4.3,1.3,9,2.9,13.3,4.1c2.2,0.6,4.5,1.3,6.2,2.9
				c1.9,1.7,2.9,4.3,3.5,6.8c1.2,4.6,1.6,9.4,1.1,14.1c-0.1,0.7-0.1,1.4-0.5,2c-0.4,0.6-1,1-1.6,1.4c-6.7,3.8-14.9,3.5-22.6,3
				c-2.2-0.1-4.6-0.3-6.2-1.9c-2.5-2.4-1.5-6.9,1.1-9.2c2.6-2.3,6.2-2.9,9.7-3.5c-2.7,0.2-5.5-1.2-8.2-1.9c-4-1.1-7.1-4.4-9-8.1
				c-1.9-3.7-2.6-7.9-3.1-12c-0.8-7-1-14.1-0.4-21.1c5.1-0.7,10.3-0.8,15.4-0.5C567.5,709.8,567,712.2,567.1,714.1z"/>
			<linearGradient id="XMLID_492_" gradientUnits="userSpaceOnUse" x1="551.7617" y1="718.0724" x2="567.9725" y2="718.0724">
				<stop  offset="0" style="stop-color:#FCAEA2"/>
				<stop  offset="1" style="stop-color:#C0547D"/>
			</linearGradient>
			<path id="XMLID_146_" class="st53" d="M567.1,714.1c-0.1-1.9,0.4-4.3,0.3-6.2c-5.1-0.3-10.3-0.2-15.4,0.5
				c-0.5,6.7-0.4,13.4,0.3,20c5.3-0.5,10.5-1.7,15.6-3.1C567.6,721.6,567.3,717.8,567.1,714.1z"/>
			<path id="XMLID_57_" class="st51" d="M570.7,518.5c11.1,65.9-2.6,133.6,2.5,200.3c-8.8,3-18.3,5-27.6,4.2
				c-16.6-54.1-18.9-113.1-6.1-168.2c1.8-7.7,3.9-15.5,8.3-22.1C552.2,526,562.8,518.9,570.7,518.5z"/>
			<path id="XMLID_141_" class="st54" d="M542.6,543.5c-1.3,3.6-2.2,7.4-3.1,11.1c-12.8,55.2-10.5,114.1,6.1,168.2
				c9.3,0.9,18.8-1.1,27.6-4.2c-0.6-7.3-0.9-14.5-1-21.8C552.2,648.3,541.5,595.9,542.6,543.5z"/>
			<path id="XMLID_56_" class="st35" d="M578.8,522c-11.5,6.1-22,14-31.1,23.3c-3.6-20.4-7.4-40.7-11.6-61c-0.1-0.4,16.2-1.4,18.2-1
				c3.8,0.7,6.1,2.3,8.6,5.2C570.8,497.7,576.2,510.3,578.8,522z"/>
			<path id="XMLID_194_" class="st43" d="M565.5,530.1c4.2-3,8.7-5.7,13.2-8.1c-2.6-11.7-8-24.3-15.9-33.4c-2.5-2.9-4.8-4.5-8.6-5.2
				c-0.9-0.2-4.8,0-8.8,0.2c5.4,13,12.1,25.6,17.1,38.5C563.6,524.7,564.6,527.4,565.5,530.1z"/>
			<path id="XMLID_195_" class="st35" d="M562.6,522.1c-5.1-13-11.8-25.5-17.1-38.5c-4.7,0.3-9.4,0.6-9.4,0.8
				c4.2,20.3,8,40.6,11.6,61c5.5-5.6,11.4-10.7,17.9-15.2C564.6,527.4,563.6,524.7,562.6,522.1z"/>
			<path id="XMLID_55_" class="st43" d="M551.1,473c-0.2,9,1.7,17.9,3.1,26.7c4.1,25.8,4.7,52.7-2.8,78.2
				c-2.3,7.8-5.3,15.3-8.4,22.8c-10.9,26.2-23.1,52.8-24.6,80.8c-17.4-4.9-36.3-11.9-45.5-27.1c-10.2-17-6.2-38.9-0.4-58.3
				c15.1-50.5,41-100.1,83.3-133.3C554.5,465.9,551.2,469.7,551.1,473z"/>
			<path id="XMLID_54_" class="st55" d="M546,478c0.2,9.2,2.3,18.2,4.1,27.3c5.1,26.3,6.6,53.8,0,79.7c-2,7.9-4.8,15.6-7.6,23.2
				c-9.9,26.8-21.2,53.8-21.6,82.4c-17.6-5-36.7-12.2-46.5-27.7c-10.9-17.3-7.6-39.7-2.5-59.5c13.2-51.5,37.4-102.1,78.4-135.9
				C549.1,470.7,545.9,474.6,546,478z"/>
			<path id="XMLID_64_" class="st42" d="M486.9,641.6c15.4,38.2,43.7,70.3,57.8,109c14.5,39.9,12.7,83.5,17.8,125.6
				c-11.5,8.5-26.8,10.7-40.7,7.6c0.5-18.4,0.7-38.8,0.6-57.3c0-7.2-0.1-14.4-1.3-21.5c-2.2-14-8.4-27-14.4-39.7
				c-10-21-19.9-42-29.9-62.9c-9,2.3-19.2,3.2-28.5,2.2c-2,24.8-4.9,50.1-12.7,73.8c-5,15.2-12.3,29.5-19.5,43.7
				c-14.3,28-28.9,55.9-43.7,83.7c-10,0.9-21-4.3-26.9-12.3c16-31.7,30.7-65.5,43.6-98.5c2.1-5.3,4.1-10.6,4.8-16.2
				c0.7-5,0.2-10.1-0.1-15.1c-3.3-47.1-1.7-94.5,4.9-141.2c20.1-1.7,42-1.6,62,0.9C471.3,624.5,482.9,631.6,486.9,641.6z"/>
			<path id="XMLID_130_" class="st41" d="M345.5,893.4c5.9,8.1,16.9,13.2,26.9,12.3c14.8-27.8,29.3-55.7,43.7-83.7
				c7.3-14.2,14.5-28.6,19.5-43.7c5.8-17.6,8.8-36.1,10.9-54.6c-19.9,51.2-48.3,97.2-85.5,137.5
				C355.9,872.1,350.8,882.9,345.5,893.4z"/>
			<path id="XMLID_137_" class="st41" d="M544.7,750.6c-5.5-15.1-13.1-29.1-21.3-42.9c0.2,2.5,0.5,5.1,0.9,7.4
				c8.6,45.3,7.7,91.4-2,135.3c-0.1,11.3-0.3,22.7-0.6,33.4c14,3.1,29.2,0.9,40.7-7.6C557.4,834.1,559.1,790.4,544.7,750.6z"/>
			<path id="XMLID_211_" class="st44" d="M497.5,664c-3.9-7.3-7.5-14.7-10.6-22.4c-4-10-15.6-17.1-26.3-18.5
				c-20-2.5-41.9-2.6-62-0.9c-2.4,16.9-4.1,33.8-5.2,50.9C428.4,674.5,463.6,671.9,497.5,664z"/>
			<path id="XMLID_63_" class="st56" d="M509.7,568.9c-9.7,26.1-14.3,54.2-13.5,82.1c-11.6,4-24.4,1.3-36.1-2.4
				c-15.1-4.8-30-11.4-41-22.7c-1-1-1.9-2-2.3-3.4c-0.4-1.4-0.2-2.8,0.1-4.2c4.8-27.3,10.6-54.4,19.1-80.7
				c4.5-14,9.8-27.8,17.5-40.3c7.7-12.5,18-23.7,30.9-30.7c8.4-4.6,17.7-7.3,27.1-9c6.2-1.1,12.7-1.8,18.9-0.5
				c10.5,2.1,18.9,10.1,17.9,21.3c-0.7,8.1-7,15.5-9.7,23.1C530.6,524.6,518.2,546,509.7,568.9z"/>
			<path id="XMLID_151_" class="st54" d="M501.6,473.6c0.5-4.7,1.2-9.6,2.6-14.5c-6.9,1.7-13.5,4-19.7,7.4
				c-12.9,7-23.2,18.2-30.9,30.7c-7.7,12.5-13,26.3-17.5,40.3c-8.5,26.3-14.3,53.5-19.1,80.7c-0.2,1.4-0.5,2.9-0.1,4.2
				c0.4,1.3,1.3,2.4,2.3,3.4c11,11.3,25.9,18,41,22.7c11.7,3.7,24.5,6.4,36.1,2.4c-0.4-14.4,0.6-28.9,3-43.1
				C496.1,563.3,498.8,518.3,501.6,473.6z"/>
			<path id="XMLID_51_" class="st43" d="M512.5,473.2c-5.9,24.3-17.4,46.8-28.3,69.3c-21.3,44.1-41,89.5-50,137.7
				c-19.3-7.8-37.1-21.7-50.1-37.9c11.7-56,23-113.8,53.4-162.4c-0.5-3.1,1.7-4.8,3.5-7.5c3.1-4.6,8.4-10.4,11.6-15
				c20.2-11.9,43.6-8.2,66.5-5.3c0.7,0.1,1.5,0.3,1.8,0.9c0.3,0.6,0,1.3-0.3,1.9C517.6,460.9,514.1,466.5,512.5,473.2z"/>
			<path id="XMLID_190_" class="st35" d="M443.5,468.9c-0.9,1.2-1.8,2.4-2.5,3.5c-1.8,2.6-4,4.3-3.5,7.5
				c-30.3,48.5-41.7,106.3-53.4,162.4c13,16.2,30.8,30.1,50.1,37.9c3.7-19.9,9.2-39.3,15.9-58.3c0-0.2-0.1-0.3-0.1-0.5
				C438.8,570.1,433.9,518.4,443.5,468.9z"/>
			<path id="XMLID_50_" class="st56" d="M528.4,443.7c-5.1,1.2-8.3,6-11.3,10.2c-8.9,12.3-20.4,22.8-33.6,30.4
				c10.8,2.9,22.3,3.6,33.4,1.9c4.1-0.6,8.6,2,12.5,3.4c2.2,7.4,11.7,29.5,16.3,35.7c2-7.1,1.2-28.1,3.3-35.2
				c1.7-6-0.5-12.7-0.1-18.9s-0.7-12.7-4.1-17.8S534.5,442.3,528.4,443.7z"/>
			<path id="XMLID_49_" class="st25" d="M523.9,445.5c-2.3,14.3-6.5,28.2-12.5,41.3c0,0,0.5,16.8,0.6,25.1c6-4.9,13.5-8.4,20.5-11.7
				c2.6-4.5,4.6-8.9,6.3-13.8c1.6-4.6,2.9-9.4,6-13.3L523.9,445.5z"/>
			<linearGradient id="XMLID_495_" gradientUnits="userSpaceOnUse" x1="518.805" y1="470.3921" x2="544.6439" y2="470.3921">
				<stop  offset="0" style="stop-color:#FCAEA2"/>
				<stop  offset="1" style="stop-color:#C0547D"/>
			</linearGradient>
			<path id="XMLID_89_" class="st57" d="M535,495.3c1.4-2.9,2.6-5.8,3.7-8.9c1.6-4.6,2.9-9.4,6-13.3l-20.8-27.6
				c-1.2,7.4-2.9,14.7-5.1,21.8c0,0.5,0.1,1.1,0.2,1.6C522.2,478.8,527.6,487.9,535,495.3z"/>
			<path id="XMLID_37_" class="st25" d="M587.9,464.1c-2.3,10.7-3.3,24.6-13.5,31.1c-11.7,7.5-31.4,0.8-40.3-8.5
				c-10.6-11.1-12-30.8-13.3-45.3c-1.7-17.9-1-36.2,3.5-53.6c0.6-2.3,1.3-4.8,3.1-6.4c1.4-1.4,3.4-2.2,5.4-2.8
				c19.4-6.6,40.5-6.6,60.8-3.7c6.1,0.9,14.4,2,19.2,6.3c5.1,4.6-1.2,11.1-3.6,16C598.4,418.8,592.9,440.9,587.9,464.1z"/>
			<linearGradient id="XMLID_497_" gradientUnits="userSpaceOnUse" x1="521.8362" y1="388.1316" x2="614.6277" y2="388.1316">
				<stop  offset="0" style="stop-color:#FCAEA2"/>
				<stop  offset="1" style="stop-color:#C0547D"/>
			</linearGradient>
			<path id="XMLID_112_" class="st58" d="M612.7,381.1c-4.8-4.3-13.1-5.4-19.2-6.3c-20.3-3-41.4-2.9-60.8,3.7
				c-1.9,0.7-3.9,1.4-5.4,2.8c-1.7,1.7-2.5,4.1-3.1,6.4c-1,4-1.8,8.1-2.5,12.2c28.5,5,57.3,3.9,85.8,0.2c0.5-1,1-2,1.5-3.1
				C611.5,392.3,617.8,385.7,612.7,381.1z"/>
			<g id="XMLID_84_">
				<path id="XMLID_85_" class="st40" d="M539.9,376.3c-2.4,0.6-4.8,1.3-7.2,2.1c-1.9,0.7-3.9,1.4-5.4,2.8c-1.7,1.7-2.5,4.1-3.1,6.4
					c-3.2,12.7-4.5,25.8-4.3,38.9c1.5-3.2,3.5-6.3,5.9-8.9C536.1,406.8,540,391.4,539.9,376.3z"/>
			</g>
			
				<ellipse id="XMLID_40_" transform="matrix(-0.9796 -0.201 0.201 -0.9796 1035.7513 933.9526)" class="st45" cx="565.3" cy="414.4" rx="3.9" ry="9.2"/>
			
				<ellipse id="XMLID_42_" transform="matrix(-1 2.932100e-003 -2.932100e-003 -1 1178.504 837.36)" class="st45" cx="588.6" cy="419.5" rx="3.6" ry="8.5"/>
			<path id="XMLID_41_" class="st45" d="M575.1,398c-8,1.1-16,2.9-23.7,5.4c-1.2-2.7-2.5-5.1-3.3-8c7.8-3.1,15.9-4.8,24.3-4.3
				c0.4,1.5,1,2.6,1.3,4.1c0.1-1.8,0.4-3.8,0.6-5.6C575.1,392.3,575,395.2,575.1,398z"/>
			<path id="XMLID_43_" class="st45" d="M611.6,401.5c-2.8-4.6-7.7-8.7-12.5-11c-1.3,1.7-2.5,3.8-3.8,5.5c0.6-2.3,1.3-5,2.1-7.2
				c-2.3,2.7-4.1,5.7-5.5,9c4.6,3.3,11,5.6,14.2,10.3C607.4,406.3,610.4,403.4,611.6,401.5z"/>
			<path id="XMLID_44_" class="st59" d="M554.1,441.2c-3-2.4-5.7-5.3-9.3-6.6c-0.9-0.3-2.1-0.5-2.8,0.2c-0.4,0.4-0.5,0.9-0.6,1.4
				c-1.7,7.7-0.3,16.1,3.9,22.7c2.7,4.3,6.6,7.9,11.4,9.6c4.2,1.4,8.8,1.3,12.9-0.5c5.1-2.2,9.6-7.8,7.5-13.7
				c-1.7-4.8-8.9-5.3-12.9-7C560.5,445.8,557.1,443.7,554.1,441.2z"/>
			<g id="XMLID_86_">
				<path id="XMLID_87_" class="st47" d="M570.2,457.4c0.9-2.2,1.9-4.6,2.9-6.9c-2.8-1.4-6.4-2-8.9-3c-3.6-1.6-7.1-3.7-10.1-6.2
					c-3-2.4-5.7-5.3-9.3-6.6c-0.9-0.3-2.1-0.5-2.8,0.2c-0.1,0.1-0.2,0.3-0.3,0.5C546.8,446.7,557.8,455.3,570.2,457.4z"/>
				<path id="XMLID_106_" class="st60" d="M541.4,449.9c0.8,3.2,2,6.3,3.8,9.2c2.7,4.3,6.6,7.9,11.4,9.6c2.3,0.8,4.7,1.1,7.1,0.9
					C558.9,460.7,551,453.5,541.4,449.9z"/>
			</g>
			<path id="XMLID_48_" class="st25" d="M517.3,396.8c-1.2-1.5-2.9-3-4.7-2.5c-0.7,0.2-1.3,0.8-1.8,1.4c-3,3.5-4.4,8.2-4.5,12.8
				c-0.2,4.6,0.8,9.2,2.1,13.6c1.2,4.5,2.8,8.9,5.4,12.7c2.6,3.8,6.5,6.9,11,7.9C529,427.3,527.3,409.6,517.3,396.8z"/>
			<path id="XMLID_52_" class="st54" d="M417.5,523.3c-26.6,9-50.1,27.2-65,51c-8.2-6.3-20.1-8.9-29.6-5.1
				c-1.4-23.9,0.3-55.6,20.4-68.5c9.8-6.3,21.1-9.4,32.1-13.1c12.5-4.2,24.8-9.2,36.7-15c17.4-8.4,34.7-19.3,53.9-20.6
				c2.5,12.3-0.3,26.1-5.9,37.4c-1.7,3.4-3.9,6.5-6.4,9.6C444.3,510.3,431.5,518.5,417.5,523.3z"/>
			<path id="XMLID_138_" class="st51" d="M466,451.9c-19.2,1.3-36.6,12.2-53.9,20.6c-11.9,5.8-24.1,10.8-36.7,15
				c-11,3.7-22.3,6.9-32.1,13.1c-3.5,2.2-6.4,5-8.8,8.2c42.3-0.9,85-7.5,125.7-19.7C465.7,478,468.5,464.2,466,451.9z"/>
			<polygon id="XMLID_69_" class="st61" points="644.6,793.3 336.5,583.3 336.5,598.4 632.9,809.7 			"/>
			<path id="XMLID_59_" class="st25" d="M581.7,759.3c-0.8-3.4-2.7-7.4-6.2-7.4c-1.8,0-3.4,1.2-4.3,2.7c-0.9,1.5-1.3,3.3-1.5,5.1
				c-0.5,3.9-0.6,7.9,0,11.9c0.7,5.1,4.1,12.9,10.3,8.6C585.6,776.1,583,764.8,581.7,759.3z"/>
			<path id="XMLID_60_" class="st25" d="M559.7,757.1c-0.4,2.6-0.8,5.2-1.2,7.8c-0.4,2.4-0.8,5,0,7.3s2.9,4.4,5.4,4.2
				c2.7-0.3,4.3-3.1,5.3-5.7c1.8-4.7,3-9.7,3.4-14.8c0.4-4.2-2.2-7.7-6.8-7.2C561.8,749.2,560.2,753.7,559.7,757.1z"/>
			<path id="XMLID_61_" class="st25" d="M550.3,764.7c0.5,2.1,1.8,4.2,3.9,4.5c1,0.1,2-0.2,2.9-0.7c3.3-1.9,4.7-5.8,5.5-9.5
				c1-4.2,2.2-13.2-5.3-10.3C551.8,751,549,759.3,550.3,764.7z"/>
			<path id="XMLID_62_" class="st25" d="M545.8,755.8c0,1.9,0.3,3.9,1.4,5.5c1.1,1.6,3.2,2.6,5,1.9c0.9-0.3,1.6-1,2.2-1.8
				c2.2-2.9,2.6-6.7,2.6-10.4c0-3.4-2.1-9.4-6.7-7.1C546.7,745.8,545.8,752.4,545.8,755.8z"/>
			<path id="XMLID_68_" class="st62" d="M381.7,919.5c-4.5-5.8-11.9-9.3-19.1-8.5c-5.2,0.6-9.9,3.2-13.8,6.6
				c-6.4,5.5-10.8,13.3-12.2,21.6l50.1,1C387.8,933,386.2,925.2,381.7,919.5z"/>
			<path id="XMLID_67_" class="st62" d="M588.9,921.4h-66.7l-1.1-9.5h27.3c2.2-6.6,6.5-12.6,12-16.9c2.9,1.3,4.4,3.3,7.3,4.6
				c5.8,2.6,11.8,5.4,16,10.2C586.1,912.6,587.3,918.2,588.9,921.4z"/>
			<path id="XMLID_70_" class="st21" d="M605.6,766.7c7.3-10.4,13.1-15.8,22.8-23.9c2.3-1.9,5.2-3.9,8.1-3.2c1.5,0.4,2.8,1.4,4,2.4
				c5.5,4.8,10.3,10.3,14.3,16.3c-6.3-15.4-16.3-29.3-29-40.1c6.4,1.4,12.7,2.6,18.9,4.9c5,12.6,9.7,24.8,14.6,37.4
				c1-6.5,1.3-12.7,0.8-19.3c3.4,6.6,5.6,13.8,6.4,21.2c2.7-23.4-5.3-46.6-20-65c11.2,7.1,19.9,16.9,25.1,29.1
				c4.4,10.4-0.8,22-2.3,33.2c-0.2,1.4-0.4,3,0.4,4.2c7.9-7.5,13.8-15.9,18.4-25.8c-0.2,10.7-5.8,21.1-14.6,27.1
				c6.4-1.5,13.1-3.7,19.7-3.2c6.6,0.5,13.3,3.4,16.8,8.9c2.6,4,3.2,9,3.8,13.7c7.1,0.5,14.2,6.5,15.3,13.6c-1.4-3.3-3.9-6.2-7-8.1
				c-2.2-1.3-5.1-2.1-7.2-0.7c0.3,5.9,0.7,11.4,0.1,17.3c11.3-2.8,22.3-4.5,33.8-6.4c5-0.8,10.2-1.5,15-0.1
				c4.9,1.4,9.3,5.4,9.6,10.5c-8.4-8-21.6-7.5-33-5.4c-10.6,1.9-21,4.8-31.1,8.6c15,0.1,30,2.2,44.5,6.2c3.1,0.8,6.2,1.8,8.9,3.6
				c3,2.1,5.2,5.1,7.3,8.1c3.2,4.6,6.3,9.2,9.4,13.9c-19.6-14.1-42.7-23.2-66.6-26.3c9.1,9.8,16,18.9,24.8,28.9
				c0.5,22.8,1.6,45.1,2.1,67.9c-4-11.3-7.1-23.3-10.5-34.8c0.2,27.2,2.5,53.7,9.4,79.9c-16.9-28-28.1-59.5-32.7-92
				c-4.8,14.9-3,31.1,0.5,46.3c-14.3,1.2-28.5,0-42.5-3.2c-6.6-13-13-25.9-16.8-40c0,23.3,1.8,49.7,4.7,72.9
				c-6.4-31.8-11.2-61.9-12.9-94.3c-0.6-11.9-1.9-24.5-5.4-35.9S609.5,771.6,605.6,766.7z"/>
			<path id="XMLID_71_" class="st63" d="M644.6,793.3c0,0-32,86.7,69.6,43.8c0,0-88.2,64.3-89.1-33.1L644.6,793.3z"/>
			<path id="XMLID_73_" class="st21" d="M720.5,833.6c11.7,6.3,23.6,12.7,33.5,21.7c9.8,9,17.6,21,18.7,34.3
				c-11.8-16.7-23.5-34.5-39.8-46.8C729.2,840.2,724.2,836.1,720.5,833.6z"/>
			<path id="XMLID_74_" class="st64" d="M690.1,889.5c-3.6,6.7-8.9,13.9-13.3,20.1c4.6-26.5,2.3-54.2-6.7-79.5
				C675.2,836.2,688.5,876.8,690.1,889.5z"/>
			<path id="XMLID_83_" class="st21" d="M636.5,828.7c-3.6,6.7-8.9,13.9-13.3,20.1c4.6-26.5,2.3-54.2-6.7-79.5
				C621.5,775.4,634.8,816,636.5,828.7z"/>
			<path id="XMLID_47_" class="st65" d="M343,561.1c3.7,2.2,5.7,6.2,7,10.3c1.2,3.7,1.8,7.5,2,11.4c-6.5-3.8-27.6-4.4-29.9-10.5
				C318.2,562.3,336.7,557.4,343,561.1z"/>
			<linearGradient id="XMLID_498_" gradientUnits="userSpaceOnUse" x1="574.7254" y1="431.3463" x2="602.3486" y2="437.2656">
				<stop  offset="0" style="stop-color:#FCAEA2"/>
				<stop  offset="1" style="stop-color:#C0547D"/>
			</linearGradient>
			<path id="XMLID_39_" class="st66" d="M588.8,422.1c3-0.2,6.1-0.3,9.1,0.6c7.8,2.3,9.6,12.2,5.2,18.4c-2.6,3.7-6.9,5.9-11.4,6.4
				c-9.9,1.2-22.4-6.2-22.5-17.2C569.1,421.4,582.6,422.5,588.8,422.1z"/>
			<path id="XMLID_1_" class="st47" d="M588.8,422.1c0,0,0.5-0.1,1.3-0.2c0.9-0.1,2.1-0.3,3.6-0.3c0.8,0,1.6,0,2.4,0.1
				c0.4,0.1,0.9,0.1,1.3,0.2c0.2,0.1,0.4,0.1,0.7,0.2c0.2,0.1,0.4,0.1,0.6,0.2c0.2,0.1,0.4,0.2,0.7,0.2c0.2,0.1,0.5,0.2,0.7,0.3
				c0.2,0.1,0.5,0.2,0.7,0.4l0.6,0.5c0.2,0.2,0.4,0.3,0.6,0.5l0.6,0.5c0.4,0.3,0.7,0.8,1,1.2c0.6,0.8,1.1,1.8,1.5,2.7
				c0.2,0.5,0.3,1,0.4,1.5c0.1,0.5,0.2,1,0.3,1.5c0,0.5,0.1,1,0.1,1.4c0,0.5-0.1,0.9-0.1,1.4c-0.1,0.9-0.2,1.7-0.5,2.4
				c-0.2,0.7-0.5,1.4-0.8,1.9c-0.3,0.5-0.6,1-0.8,1.4c-0.5,0.7-0.9,1.1-0.9,1.1s0.2-0.5,0.6-1.2c0.2-0.4,0.3-0.9,0.5-1.4
				c0.1-0.6,0.3-1.2,0.4-1.9c0.1-0.7,0.2-1.5,0.2-2.3c0-0.4,0-0.8,0-1.2c-0.1-0.4-0.1-0.8-0.2-1.3c-0.1-0.4-0.2-0.9-0.3-1.3
				c-0.2-0.4-0.3-0.9-0.4-1.3c-0.4-0.8-0.8-1.6-1.3-2.4c-0.3-0.4-0.5-0.7-0.9-1l-0.5-0.5c-0.2-0.2-0.4-0.3-0.5-0.4l-0.5-0.4
				l-0.5-0.3l-0.5-0.3c-0.2-0.1-0.4-0.2-0.6-0.3c-0.2-0.1-0.4-0.2-0.6-0.3c-0.1-0.1-0.4-0.1-0.6-0.2c-0.4-0.1-0.8-0.2-1.2-0.3
				c-0.8-0.2-1.6-0.3-2.3-0.4c-1.4-0.2-2.7-0.2-3.5-0.3C589.3,422.1,588.8,422.1,588.8,422.1z"/>
			<path id="XMLID_45_" class="st65" d="M518,404.8c1,1.3,1.4,3,1.9,4.6c0.9,3.5,1.8,6.9,2.6,10.4c-1.6,0.1-2.7,1.9-2.6,3.5
				s1,3,1.9,4.3c0.9,1.3,1.9,2.6,2.2,4.2c-2.5,0.2-5.5,0.3-7-1.8c-0.5-0.8-0.8-1.7-0.9-2.6c-0.4-2-0.5-4.2-0.1-6.2s1.6-4,3.3-5.1
				c-0.5-1.3-2.9-0.2-3.8-1.3c-0.2-0.3-0.3-0.6-0.4-1c-0.4-1.7-0.7-3.8,0.6-4.9c0.3-0.2,0.5-0.4,0.8-0.7c0.3-0.4,0.4-1.1,0.1-1.6
				c-0.4-0.8-1.6-1-2.4-0.6s-1.4,1.2-1.7,2c-1.6,3.8,0,8.2,1.7,12c-1.7-4-5.7-8.2-4.8-13C510.2,403.2,515.4,401.5,518,404.8z"/>
			<path id="XMLID_53_" class="st25" d="M354.4,589.3c-0.4,6.6-0.7,13.3-1.1,19.9c-0.1,2.6-1.2,6-3.7,5.7c-1.4-0.1-2.4-1.5-3.1-2.7
				c-1.3-2.2-2.4-4.6-3.2-7c-0.7,2.8-4.8,3.6-7.1,1.8c-2.3-1.8-2.8-5.2-2-8c-1.4,1.9-3,4-5.3,4.4c-2.7,0.4-5.2-1.8-6.1-4.4
				c-0.9-2.6-0.6-5.4-0.2-8c-1.3,1.2-1.9,3-2.9,4.4c-1,1.4-2.8,2.7-4.4,2.1c-1.9-0.7-2.4-3.2-2.4-5.2c0-11.1,1-27,15.2-27.4
				c8.2-0.2,16.9,1.5,23.1,7.1c5.6,5,7.7,12.8,11.8,19.2c1.8,2.8,4,5.3,6.5,7.4c0.9,0.8,1.9,1.6,2,2.8c0.1,1.3-1,2.4-2.2,2.9
				c-2.2,0.9-4.7,0.3-6.7-1c-1.9-1.3-3.4-3.2-4.7-5.2C355.9,595.4,354.4,592.9,354.4,589.3z"/>
			<g id="XMLID_92_">
				<path id="XMLID_31_" class="st67" d="M691.5,379.6c0,0-53.2,15.6-118.8,15.6s-118.8-15.6-118.8-15.6s53.2-15.6,118.8-15.6
					S691.5,379.6,691.5,379.6z"/>
				<g id="XMLID_114_">
					<path id="XMLID_160_" class="st68" d="M691.5,379.6c0,0-49.6-14.6-112.1-15.6c45.2,3.5,77.5,11.5,77.5,11.5
						s-53.2,13.1-118.8,13.1c-22.6,0-43.7-1.6-61.7-3.6c21.6,4.5,56.7,10.2,96.3,10.2C638.3,395.2,691.5,379.6,691.5,379.6z"/>
				</g>
				<path id="XMLID_35_" class="st38" d="M617.4,376.5c-2.6-12.3-30.6-52.6-39.4-54.4c-6.2-1.3-14.2-3.6-19.6-0.3
					c-18.8,11.3-31.8,31.8-34.1,53.6C533.3,383.5,606.2,382.6,617.4,376.5z"/>
				<path id="XMLID_183_" class="st39" d="M553.5,325c-16.2,11.7-27.1,30.5-29.3,50.4c6,5.3,39.3,6.8,64.8,5.4
					C569.4,368.6,554.6,347.8,553.5,325z"/>
				<path id="XMLID_95_" class="st47" d="M691.5,379.6c0,0-0.9,0.3-2.6,0.8c-1.7,0.5-4.2,1.2-7.4,2c-3.2,0.8-7.1,1.8-11.5,2.8
					c-4.5,1-9.5,2.1-15.1,3.2c-5.5,1-11.6,2.1-18,3c-6.4,1-13.2,1.9-20.2,2.6c-3.5,0.3-7.1,0.7-10.7,1c-3.6,0.3-7.3,0.6-11,0.7
					c-3.7,0.2-7.4,0.4-11.2,0.5c-3.7,0.1-7.5,0.1-11.3,0.2c-3.8-0.1-7.5-0.1-11.3-0.2c-3.7-0.1-7.5-0.3-11.2-0.5
					c-3.7-0.2-7.4-0.5-11-0.7c-3.6-0.3-7.2-0.7-10.7-1c-7-0.7-13.8-1.6-20.2-2.6c-6.4-1-12.4-2-18-3c-5.5-1-10.6-2.1-15.1-3.2
					c-4.5-1-8.3-2-11.5-2.8c-3.2-0.8-5.7-1.5-7.4-2c-1.7-0.5-2.6-0.8-2.6-0.8s0.9,0.2,2.6,0.7c1.7,0.4,4.2,1,7.4,1.7
					c3.2,0.7,7.1,1.5,11.6,2.4c4.5,0.9,9.6,1.8,15.1,2.7c5.5,0.9,11.6,1.8,18,2.7c6.4,0.8,13.1,1.6,20.1,2.2
					c3.5,0.3,7.1,0.7,10.7,0.9c1.8,0.1,3.6,0.2,5.4,0.3c1.8,0.1,3.7,0.3,5.5,0.3c3.7,0.1,7.4,0.3,11.1,0.4c3.7,0,7.5,0.1,11.2,0.1
					c3.7,0,7.5-0.1,11.2-0.1c3.7-0.1,7.4-0.3,11.1-0.4c1.8-0.1,3.7-0.2,5.5-0.3c1.8-0.1,3.6-0.2,5.4-0.3c3.6-0.2,7.2-0.6,10.7-0.9
					c7-0.7,13.7-1.4,20.1-2.2c6.4-0.8,12.4-1.7,18-2.7c5.5-0.9,10.6-1.8,15.1-2.7c4.5-0.9,8.4-1.7,11.6-2.4c3.2-0.7,5.7-1.3,7.4-1.7
					C690.6,379.8,691.5,379.6,691.5,379.6z"/>
				<path id="XMLID_38_" class="st69" d="M546.4,342.5c-2.8,0.6-5.6,1.4-8.3,2.5c1.5,7,3.4,16.1,4.9,23.1l9.1-1.3
					C550.6,358.5,548.7,350.6,546.4,342.5z"/>
				<path id="XMLID_36_" class="st69" d="M557.9,356.5c-0.6-2.8-1.4-5.6-2.5-8.3c-7,1.6-16.1,3.5-23.1,5l1.3,9.1
					C542,360.8,549.8,358.9,557.9,356.5z"/>
			</g>
		</g>
	</g>
</g>
</svg>
