<svg xmlns="http://www.w3.org/2000/svg" xmlns:xlink="http://www.w3.org/1999/xlink" viewBox="0 0 2504.5 1400"><defs><style>.cls-1{isolation:isolate;}.cls-2{fill:url(#linear-gradient);}.cls-3{mix-blend-mode:hard-light;}.cls-4{fill:#455063;}.cls-5{fill:#556077;}.cls-6{fill:#454956;}.cls-7{fill:#565454;}.cls-13,.cls-21,.cls-8,.cls-9{fill:#bcbcbc;}.cls-8{opacity:0.79;}.cls-10,.cls-13,.cls-20,.cls-31,.cls-35,.cls-39,.cls-40,.cls-43,.cls-45,.cls-8,.cls-9{mix-blend-mode:multiply;}.cls-9{opacity:0.46;}.cls-11{fill:#bdbdbd;}.cls-12{fill:#1c1c1c;}.cls-13{opacity:0.77;}.cls-14,.cls-47,.cls-52{fill:#fff;}.cls-15{fill:#ffa41f;}.cls-16{fill:#231f20;}.cls-17{fill:#9e9e9e;}.cls-18{fill:#e6e7e8;}.cls-19{fill:#333;}.cls-20{opacity:0.67;}.cls-22,.cls-31{fill:#d1d3d4;}.cls-23{fill:#3d3d3d;}.cls-24{fill:#bfbfbf;}.cls-25{fill:#545454;}.cls-26{fill:#fcc02e;}.cls-27{fill:#dd4747;}.cls-28{fill:#9b4e4e;}.cls-29{fill:#bcbec0;}.cls-30{fill:#010101;}.cls-32{fill:#828282;}.cls-33{fill:#28211f;}.cls-34{fill:#e0dcdc;}.cls-35,.cls-39,.cls-40,.cls-43,.cls-45{fill:#a5a5a5;}.cls-35{opacity:0.51;}.cls-36{fill:#383838;}.cls-37{fill:#7c7c7c;}.cls-38{fill:#686868;}.cls-39{opacity:0.32;}.cls-40{opacity:0.38;}.cls-41{fill:#565656;}.cls-42{fill:#3f3f3f;}.cls-43{opacity:0.75;}.cls-44{fill:#7c7b7a;}.cls-46{fill:#00a551;}.cls-47{font-size:48.47px;font-family:Roboto-Black, Roboto Black;}.cls-48{letter-spacing:0.01em;}.cls-49{letter-spacing:-0.08em;}.cls-50{letter-spacing:-0.08em;}.cls-51{fill:#161616;}.cls-52{opacity:0.58;mix-blend-mode:soft-light;}.cls-53{fill:#f1f2f2;}.cls-54{fill:#e2e2e2;}.cls-55{fill:#d14e4e;}.cls-56{opacity:0.8;mix-blend-mode:luminosity;}.cls-57{fill:#3b56a2;opacity:0.63;}</style><linearGradient id="linear-gradient" x1="1254.5" y1="1072.86" x2="1254.5" y2="187.14" gradientUnits="userSpaceOnUse"><stop offset="0" stop-color="#fff"/><stop offset="0.15" stop-color="#cfe3f3"/><stop offset="0.38" stop-color="#86b9e1"/><stop offset="0.59" stop-color="#4c98d2"/><stop offset="0.77" stop-color="#2380c8"/><stop offset="0.92" stop-color="#0971c1"/><stop offset="1" stop-color="#006cbf"/></linearGradient></defs><title>highway</title><g class="cls-1"><g id="Layer_1" data-name="Layer 1"><rect id="_Path_" data-name="&lt;Path&gt;" class="cls-2" x="4.5" width="2500" height="1400"/><g class="cls-3"><polygon class="cls-4" points="2376.83 1034.13 2376.83 810.23 2367.19 810.23 2367.19 838.5 2338.98 838.5 2338.98 827.9 2332.1 827.9 2332.1 820.23 2310.08 820.23 2310.08 838.5 2299.41 838.5 2299.41 820.57 2282.9 820.57 2282.9 833.67 2277.74 833.67 2277.74 838.5 2268.11 838.5 2268.11 641 2245.4 641 2245.4 615.49 2198.26 615.49 2198.26 636.51 2189.66 636.51 2189.66 612.04 2141.83 612.04 2141.83 539.66 1954.66 539.66 1954.66 661.68 1929.2 661.68 1929.2 709.59 1879.66 709.59 1879.66 526.91 1870.71 526.91 1870.71 518.29 1865.55 518.29 1865.55 483.82 1843.19 483.82 1843.19 504.85 1843.19 517.94 1834.93 517.94 1834.93 534.83 1765.09 534.83 1757.17 534.83 1757.17 517.6 1712.79 517.6 1712.79 677.88 1697.65 677.88 1697.65 637.2 1680.1 637.2 1680.1 623.07 1656.02 623.07 1656.02 636.86 1642.6 636.86 1642.6 658.57 1620.24 658.57 1620.24 631.69 1487.43 631.69 1376.64 631.69 1376.64 610.32 1319.18 610.32 1319.18 549.65 1287.19 549.65 1287.19 627.21 1272.05 627.21 1272.05 701.31 1264.82 701.31 1264.82 723.37 1259.32 723.37 1259.32 773.35 1223.19 773.35 1223.19 718.55 1223.19 518.29 1103.11 518.29 1103.11 601.36 1080.75 601.36 1080.75 729.23 1074.56 729.23 1074.56 652.71 1043.25 652.71 1043.25 731.3 1033.96 731.3 1033.96 410.06 932.12 410.06 932.12 635.83 919.04 635.83 919.04 569.65 863.3 569.65 863.3 741.3 829.24 741.3 829.24 706.83 811.35 706.83 811.35 720.27 758.02 720.27 758.02 536.9 680.61 536.9 680.61 240.82 655.15 240.82 655.15 222.21 625.56 222.21 622.46 49.18 619.36 222.21 619.02 222.21 589.77 222.21 589.77 238.06 567.07 238.06 567.07 669.6 468.32 669.6 468.32 696.49 407.08 696.49 407.08 557.58 402.95 557.58 402.95 550 372.33 524.15 339.64 548.28 339.64 556.2 334.14 556.2 334.14 567.58 323.13 567.58 323.13 742.67 285.97 742.67 243.99 742.67 243.99 662.71 237.11 662.71 237.11 651.68 227.82 651.68 227.82 631.34 166.92 631.34 166.92 652.02 161.42 652.02 161.42 660.64 151.44 660.64 151.44 710.28 141.46 710.28 141.46 791.62 132.17 791.62 132.17 827.9 132.17 1034.13 2376.83 1034.13"/><path class="cls-5" d="M2458.31,1034.13V914.89h-18.24v-27H2335.33s1.25,25.47,0,24.21-135.85,0-135.85,0V841.69H2120.3V657.17h-36.39V636.29h-60v18.37H1987V817.48h-7.78v-23.1h-23.89V585.64h9.17V570.89H1788.59v13.64h7.22V698.91c0,1.39-42.23,0-42.23,0V681.66H1715v17h-22.5v79.88H1658V515.78h-4.72V501.87H1500.78V714.22h-42v-96.3H1404.1V757.36h-13.34V695h-5.83v-7h-6.39v-8.91L1369.65,665v-15h-7.78V664.4L1352.42,678v9.46h-5.83v5.57h-8.06v62.06h-13.89v15h-12.78v16.42H1306V709.77h-17.5V724h-7.78v50.1h-11.39V883.72h-8.61v-52.6H1250V788h-6.76V702h-4.44v-23.1h-31.95v7.51h-10.56V672.47h-24.45v6.4H1168V664.4h-11.67v15h-34.73v69h-6.39v11.13h-35.84V874.81h-13.89V740.66H992.37v39h-3.89V767.1h-8.06v-9.74H974v-52.6h-7.78V686.95H933.2v-12.8h-6.95v-27h-6.11v-5.57h-5.56v-16.7H894.3v16.7H886v37.85H866.8V786H847.07v82.38h-4.17V734H819.57v17h-2.78v-5.29h-3.33v-4.45H803.18v3.9H800.4v4.73h-1.94v8.07H788.18V852c0,1.39-18.61,0-18.61,0V688.9H751.23V674.7l-36.67-13.64H702.89v54H685.11v-16.7H646.49v72.08H634.82v-8.35H606.21v91.84h-2.78V710.88h-5V696.13h-6.11V685.28h-6.39v-8.63H565.09v9.18h-6.95v8.63H551.2v14.75h-6.95V855.61h-8.61V746.51h-7.78V649.65H521.2v-9.74h-6.67v-9.18L501.47,613.1H457.85l-15,14.84V638.8H437V648H426.74v95.18H419V844.75h-5.28V745.67H383.4V626.27H373.12V613.1H363.06a36.94,36.94,0,0,0-71.56,0h-9v12.06H268.75v203H223.93V749.48H95.77v120.7H41.69v164Z" transform="translate(4.5)"/><polygon class="cls-6" points="2504.5 1034.13 2504.5 1002.91 2298.72 1002.91 2298.72 979.49 2192.19 979.49 2192.19 963.75 2064.59 963.75 2064.59 949.93 1891.76 949.93 1891.76 995.62 1786.38 995.62 1786.38 982.56 1737.33 982.56 1737.33 975.65 1712.42 975.65 1712.42 981.41 1706.29 981.41 1706.29 729.96 1678.32 729.96 1678.32 712.69 1641.92 712.69 1641.92 728.81 1587.88 728.81 1587.88 672.38 1566.23 672.38 1566.23 656.83 1516.03 656.83 1516.03 673.34 1487.68 673.34 1487.68 700.4 1431.16 700.4 1431.16 913.08 1333.25 913.08 1321.37 924.6 1321.37 989.67 1058.11 989.67 1058.11 980.84 1036.46 980.84 1027.26 974.5 971.51 974.5 960.59 980.84 861.91 980.84 861.91 962.41 849.84 954.92 834.32 954.92 834.32 927.86 811.33 927.86 811.33 957.03 806.73 957.03 806.73 928.24 791.4 928.24 791.4 960.87 715.34 960.87 715.34 950.7 709.78 938.61 703.08 950.13 703.08 965.29 690.43 965.29 690.43 973.54 677.21 973.54 677.21 898.49 611.49 898.49 611.49 922.29 598.46 922.29 598.46 894.85 579.88 894.85 579.88 963.18 531.98 963.18 531.98 921.33 521.05 921.33 521.05 851.66 442.69 851.66 442.69 863.94 438.48 863.94 438.48 874.12 424.3 874.12 424.3 947.25 384.06 947.25 384.06 917.69 307.23 917.69 307.23 908.47 284.24 908.47 284.24 916.53 275.42 916.53 275.42 832.27 254.35 832.27 254.35 809.81 247.07 809.81 247.07 797.72 243.33 797.72 243.33 787.36 233.85 787.36 233.85 797.72 230.4 797.72 230.4 809.52 224.65 809.52 224.65 817.88 222.64 817.88 222.64 825.94 209.13 825.94 209.13 809.52 193.9 809.52 193.9 821.62 164.58 821.62 164.58 878.05 147.91 878.05 147.91 888.13 142.74 888.13 142.74 969.03 4.5 969.03 4.5 971.05 4.5 1026.3 4.5 1034.13 2504.5 1034.13"/></g><polygon points="255.25 536.98 263.25 536.98 265.79 526.85 255.25 526.85 255.25 536.98"/><path class="cls-7" d="M84.85,529.9a7.79,7.79,0,0,0,6.8,5.7h12.86c2.14,0,19.12,4.45,24.84,4.45H257.26c1.69,0,2.67-.05,3.43-1.53s.82-3.05-.22-3.05h-4.41c-1.36,0-.38-3.43.44-4.69s2.83-1.61,4.29-1.84,2-.91,1-6.39c-.07-.4-.16-.82-.25-1.26a10,10,0,0,0-4-6c-.42-.31-.82-.59-1.19-.83-3.41-2.19-8.1-3.72-13.08-5.35-4.52-1.47-11.09-2.25-16.94-2.79l-2.36-.21a96,96,0,0,1-10.21-1.1c-3.64-1-15.54-9.71-24.63-14.79s-17.37-4.58-21-4.58H146.15c-3.89,0-12.26.12-16.69,1.86s-22.84,10.72-25.1,11.34-7.92.47-12.39.47c-2.79,0-3.77,1.14-4.17,2.38a13.1,13.1,0,0,0-.37,2.16c-.07.42-.2,1.48-.37,2.85s0,2.91-.14,4.46c-.09.85-.54,1.59-.62,2.41l-.17,1.63c-.16,1.64-.26,3-.26,3.55,0,2-1.71,2.25-2,3S83.47,525.65,84.85,529.9Z" transform="translate(4.5)"/><path class="cls-8" d="M86.13,515.2h7.25a2.87,2.87,0,0,0,2.87-2.87v-7.76a2.87,2.87,0,0,0-2.87-2.87H87.8a13.1,13.1,0,0,0-.37,2.16c-.07.42-.2,1.48-.37,2.85s0,2.91-.14,4.46c-.09.85-.54,1.59-.62,2.41Z" transform="translate(4.5)"/><path class="cls-9" d="M83.8,524.89a23,23,0,0,0,1.05,5,9.06,9.06,0,0,0,1.3,2.57,7.36,7.36,0,0,0,5.49,3.13h12.86c2.14,0,19.12,4.45,24.84,4.45H257.26c1.69,0,2.67-.05,3.43-1.53s.82-3.05-.22-3.05h-4.41c-.93,0-.77-1.59-.31-3a7.31,7.31,0,0,1,.75-1.68c.82-1.25,2.83-1.61,4.29-1.84,1.13-.18,1.78-.69,1.36-4.06Z" transform="translate(4.5)"/><g class="cls-10"><path class="cls-11" d="M121.73,504.13a7.22,7.22,0,0,0-.74,5.52c.4,1.3,2.45,3.29,5.3,6,1,.92,2,2,3.17,3.1,3.83,3.82,6,10.07,6.89,12.73.17.49.3.87.4,1.11.65,1.63,1.46,2,2.46,2h27.47a215.33,215.33,0,0,0-1.74-27.5l.32,0A215.61,215.61,0,0,1,167,534.6h40.6a1.56,1.56,0,0,0,1.53-1.14c.16-.66,1.47-10.14,1.79-15.12s-.2-6.43-2.89-8.84-12.63-8.42-12.73-8.48l.17-.28c.1.06,10.13,6.14,12.78,8.52s3.32,4.12,3,9.11-1.64,14.52-1.8,15.18a1.89,1.89,0,0,1-1.85,1.39h-68.4c-1.35,0-2.15-.63-2.77-2.17-.1-.25-.23-.64-.4-1.13-.91-2.64-3-8.84-6.81-12.61-1.13-1.13-2.21-2.17-3.17-3.1-2.88-2.79-5-4.8-5.38-6.18a7.48,7.48,0,0,1,.79-5.82Z" transform="translate(4.5)"/><path class="cls-11" d="M101,509.7a3,3,0,1,0,3-3A3,3,0,0,0,101,509.7Zm.33,0a2.67,2.67,0,1,1,2.67,2.67A2.67,2.67,0,0,1,101.29,509.7Z" transform="translate(4.5)"/></g><path class="cls-12" d="M124.6,508h74.56c2,0,2.83-1.31,2.69-2.25s-8.65-7.7-14.46-11.12c-.63-.37-1.26-.72-1.92-1.06h0a48.06,48.06,0,0,0-10.74-4c-.74-.17-1.43-.3-2-.39a11.64,11.64,0,0,0-1.57-.13H143.43c-6.4,0-21.69,8.14-24,11.48C117.85,502.79,122.78,508,124.6,508Z" transform="translate(4.5)"/><path class="cls-7" d="M169.63,508H161.8l-2.25-19h4.22Z" transform="translate(4.5)"/><path class="cls-12" d="M213.69,505a18.6,18.6,0,0,1-3.52.81,6.44,6.44,0,0,1-3.32-.76c-.49-.38-17.88-12.54-19.46-13.57s-.76-2.07,0-2.07h.16c.5.25,1,.52,1.52.8,9.08,5.09,21,13.82,24.63,14.79Z" transform="translate(4.5)"/><path class="cls-12" d="M129.19,487.6c.27.29.23.77-.41,1.28-1.05.84-15.48,7.88-17.19,8.76s-3.69.9-6.42.91C109.31,496.9,124.72,489.42,129.19,487.6Z" transform="translate(4.5)"/><path class="cls-13" d="M245.19,518.77c2.51,1.91,6.88,3,10.74,3.46a25.44,25.44,0,0,0,5.83.33c-.07-.4-.16-.82-.25-1.26a10,10,0,0,0-4-6c-.42-.31-.82-.59-1.19-.83a7.18,7.18,0,0,0-1-.54c-2.36-1-9.33-2-12.32-2.51C237.71,510.62,242.69,516.86,245.19,518.77Z" transform="translate(4.5)"/><path class="cls-14" d="M243.2,512.75c2.28.35,7.58,1.14,9.37,1.91s6.16,4.76,5.89,5.87-2.45.78-5.4.45-6.27-1.18-8.18-2.63S239.19,512.14,243.2,512.75Z" transform="translate(4.5)"/><path class="cls-15" d="M244.89,518.35c-1.91-1.45-5.69-6.21-1.69-5.6l2.55.4c1.47,1.08,5,4,6.09,7.67A16.39,16.39,0,0,1,244.89,518.35Z" transform="translate(4.5)"/><path class="cls-14" d="M94.84,505.5v5.89a2.18,2.18,0,0,1-2.18,2.18H86.6c.24-2.31.23-4.91.47-6.87.16-1.37.3-2.43.37-2.85,0-.16,0-.34.07-.53h5.16A2.18,2.18,0,0,1,94.84,505.5Z" transform="translate(4.5)"/><path class="cls-15" d="M94.84,511.39a2.18,2.18,0,0,1-2.18,2.18H86.3c.24-2.31.53-4.91.77-6.87h7.78Z" transform="translate(4.5)"/><path class="cls-9" d="M86.16,532.47a7.36,7.36,0,0,0,5.49,3.13h12.86c2.14,0,19.12,4.45,24.84,4.45H257.26c1.69,0,2.67-.05,3.43-1.53s.82-3.05-.22-3.05h-4.41c-.93,0-.77-1.59-.31-3Z" transform="translate(4.5)"/><path d="M102.77,533.5a15.15,15.15,0,0,1,30.3,0v6.56h-3.72c-5.72,0-22.69-4.45-24.84-4.45h-1.74Z" transform="translate(4.5)"/><path class="cls-13" d="M212.16,534.33v5.73h36.14v-5.73a18.07,18.07,0,1,0-36.14,0Z" transform="translate(4.5)"/><path class="cls-13" d="M99.85,534.33v1.28h4.66c2.14,0,19.12,4.45,24.84,4.45H136v-5.73a18.07,18.07,0,1,0-36.14,0Z" transform="translate(4.5)"/><path d="M215.07,533.5a15.15,15.15,0,0,1,30.3,0v6.56h-30.3Z" transform="translate(4.5)"/><path class="cls-16" d="M230.28,541.65a7.9,7.9,0,1,1,7.9-7.9A7.9,7.9,0,0,1,230.28,541.65Z" transform="translate(4.5)"/><path class="cls-17" d="M222.15,535.41a8.24,8.24,0,0,0,1.07,2.7l1.07-.56,4.19-2.21a2.56,2.56,0,0,0,1.17.81l-.61,4.6-.16,1.19a8.24,8.24,0,0,0,1.41.12,8.34,8.34,0,0,0,1.46-.13l-.11-1.2-.41-4.55a2.58,2.58,0,0,0,1.22-.8l3.91,2.07,1.06.56a8.26,8.26,0,0,0,1-2.65l-1.17-.32L233,533.88c0-.06,0-.13,0-.19a2.57,2.57,0,0,0-.56-1.6l2.66-3.49.73-1a8.38,8.38,0,0,0-2.41-1.54l-.5,1.1-1.83,4a2.49,2.49,0,0,0-.68-.09,2.56,2.56,0,0,0-.88.15l-2.16-4-.57-1.06a8.29,8.29,0,0,0-2.39,1.64l.79.91,3.06,3.51a2.58,2.58,0,0,0-.44,1.44c0,.06,0,.12,0,.18l-4.58,1.23Z" transform="translate(4.5)"/><path class="cls-18" d="M223.31,535.1a7,7,0,0,0,1,2.45l4.19-2.21a2.56,2.56,0,0,0,1.17.81l-.61,4.6a7,7,0,0,0,1.25.11,6.9,6.9,0,0,0,1.36-.13l-.41-4.55a2.58,2.58,0,0,0,1.22-.8l3.91,2.07a7,7,0,0,0,.91-2.41L233,533.88c0-.06,0-.13,0-.19a2.57,2.57,0,0,0-.56-1.6l2.66-3.49a7.1,7.1,0,0,0-2.17-1.41l-1.83,4a2.49,2.49,0,0,0-.68-.09,2.56,2.56,0,0,0-.88.15l-2.16-4a7.13,7.13,0,0,0-2.17,1.48l3.06,3.51a2.58,2.58,0,0,0-.44,1.44c0,.06,0,.12,0,.18Z" transform="translate(4.5)"/><circle class="cls-9" cx="234.89" cy="533.7" r="1.7"/><circle class="cls-19" cx="234.89" cy="532.42" r="0.5"/><circle class="cls-19" cx="234.89" cy="534.97" r="0.5"/><circle class="cls-19" cx="236.17" cy="533.7" r="0.5"/><circle class="cls-19" cx="233.61" cy="533.7" r="0.5"/><path class="cls-19" d="M217,533.75a13.29,13.29,0,1,0,13.3-13.3A13.29,13.29,0,0,0,217,533.75Zm4.79,0a8.51,8.51,0,1,1,8.51,8.51A8.51,8.51,0,0,1,221.77,533.75Z" transform="translate(4.5)"/><g class="cls-20"><path class="cls-21" d="M220,533.75a10.28,10.28,0,1,0,10.29-10.29A10.28,10.28,0,0,0,220,533.75Zm1.78,0a8.51,8.51,0,1,1,8.51,8.51A8.51,8.51,0,0,1,221.77,533.75Z" transform="translate(4.5)"/></g><path class="cls-22" d="M221,533.75a9.3,9.3,0,1,0,9.3-9.3A9.3,9.3,0,0,0,221,533.75Zm1.4,0a7.9,7.9,0,1,1,7.9,7.9A7.9,7.9,0,0,1,222.38,533.75Z" transform="translate(4.5)"/><path class="cls-9" d="M221.65,533.75a8.63,8.63,0,1,0,8.63-8.63A8.63,8.63,0,0,0,221.65,533.75Zm.73,0a7.9,7.9,0,1,1,7.9,7.9A7.9,7.9,0,0,1,222.38,533.75Z" transform="translate(4.5)"/><path class="cls-16" d="M117.92,541.65a7.9,7.9,0,1,1,7.9-7.9A7.9,7.9,0,0,1,117.92,541.65Z" transform="translate(4.5)"/><path class="cls-17" d="M109.79,535.41a8.24,8.24,0,0,0,1.07,2.7l1.07-.56,4.19-2.21a2.56,2.56,0,0,0,1.17.81l-.61,4.6-.16,1.19a8.24,8.24,0,0,0,1.41.12,8.34,8.34,0,0,0,1.46-.13l-.11-1.2-.41-4.55a2.58,2.58,0,0,0,1.22-.8l3.91,2.07,1.06.56a8.26,8.26,0,0,0,1-2.65L124.9,535l-4.22-1.14c0-.06,0-.13,0-.19a2.57,2.57,0,0,0-.56-1.6l2.66-3.49.73-1a8.38,8.38,0,0,0-2.41-1.54l-.5,1.1-1.83,4a2.49,2.49,0,0,0-.68-.09,2.56,2.56,0,0,0-.88.15l-2.16-4-.57-1.06a8.29,8.29,0,0,0-2.39,1.64l.79.91,3.06,3.51a2.58,2.58,0,0,0-.44,1.44c0,.06,0,.12,0,.18L111,535.1Z" transform="translate(4.5)"/><path class="cls-18" d="M111,535.1a7,7,0,0,0,1,2.45l4.19-2.21a2.56,2.56,0,0,0,1.17.81l-.61,4.6a7,7,0,0,0,1.25.11,6.9,6.9,0,0,0,1.36-.13l-.41-4.55a2.58,2.58,0,0,0,1.22-.8l3.91,2.07a7,7,0,0,0,.91-2.41l-4.22-1.14c0-.06,0-.13,0-.19a2.57,2.57,0,0,0-.56-1.6l2.66-3.49a7.1,7.1,0,0,0-2.17-1.41l-1.83,4a2.49,2.49,0,0,0-.68-.09,2.56,2.56,0,0,0-.88.15l-2.16-4a7.13,7.13,0,0,0-2.17,1.48l3.06,3.51a2.58,2.58,0,0,0-.44,1.44c0,.06,0,.12,0,.18Z" transform="translate(4.5)"/><circle class="cls-9" cx="122.52" cy="533.7" r="1.7"/><circle class="cls-19" cx="122.52" cy="532.42" r="0.5"/><circle class="cls-19" cx="122.52" cy="534.97" r="0.5"/><circle class="cls-19" cx="123.8" cy="533.7" r="0.5"/><circle class="cls-19" cx="121.25" cy="533.7" r="0.5"/><path class="cls-19" d="M104.63,533.75a13.29,13.29,0,1,0,13.3-13.3A13.29,13.29,0,0,0,104.63,533.75Zm4.79,0a8.51,8.51,0,1,1,8.51,8.51A8.51,8.51,0,0,1,109.41,533.75Z" transform="translate(4.5)"/><g class="cls-20"><path class="cls-21" d="M107.63,533.75a10.28,10.28,0,1,0,10.29-10.29A10.28,10.28,0,0,0,107.63,533.75Zm1.78,0a8.51,8.51,0,1,1,8.51,8.51A8.51,8.51,0,0,1,109.41,533.75Z" transform="translate(4.5)"/></g><path class="cls-22" d="M108.62,533.75a9.3,9.3,0,1,0,9.3-9.3A9.3,9.3,0,0,0,108.62,533.75Zm1.4,0a7.9,7.9,0,1,1,7.9,7.9A7.9,7.9,0,0,1,110,533.75Z" transform="translate(4.5)"/><path class="cls-9" d="M109.29,533.75a8.63,8.63,0,1,0,8.63-8.63A8.63,8.63,0,0,0,109.29,533.75Zm.73,0a7.9,7.9,0,1,1,7.9,7.9A7.9,7.9,0,0,1,110,533.75Z" transform="translate(4.5)"/><path class="cls-23" d="M1169,514.34V528.1a3,3,0,0,1-3,3H1048.4a3,3,0,0,1-1.88-.65L1037,523a3,3,0,0,0-1.88-.65h-34.73a3,3,0,1,1,0-6.06h114.79a3,3,0,0,0,1.79-.58l1.5-1.1,3.68-2.69a3,3,0,0,1,1.79-.58h42A3,3,0,0,1,1169,514.34Z" transform="translate(4.5)"/><rect class="cls-24" x="1002.36" y="516.27" width="15.41" height="12.66" transform="translate(2024.63 1045.2) rotate(180)"/><path class="cls-25" d="M1118.51,441.33v73.56a3.58,3.58,0,0,1-3.58,3.58H1000.19L999,521.94l-2.1,5.89H988v-86.5a4.88,4.88,0,0,1,4.88-4.88h120.71A4.88,4.88,0,0,1,1118.51,441.33Z" transform="translate(4.5)"/><rect class="cls-19" x="1000.16" y="527.28" width="19.82" height="4.95" rx="1.08" ry="1.08" transform="translate(2024.63 1059.51) rotate(180)"/><rect class="cls-19" x="994.65" y="512.38" width="119.46" height="2.51" rx="0.98" ry="0.98" transform="translate(2113.26 1027.28) rotate(180)"/><rect class="cls-19" x="1057.51" y="523.97" width="62.1" height="11.99" rx="2.54" ry="2.54" transform="translate(2181.63 1059.94) rotate(180)"/><rect class="cls-19" x="987.5" y="525.08" width="9.89" height="7.16" rx="1.36" ry="1.36" transform="translate(1989.38 1057.31) rotate(180)"/><path class="cls-23" d="M988,441.33v1.18h130.47v-1.18a4.88,4.88,0,0,0-4.88-4.88H992.93A4.88,4.88,0,0,0,988,441.33Z" transform="translate(4.5)"/><rect class="cls-26" x="992.85" y="438.38" width="5.5" height="2.2" rx="0.86" ry="0.86" transform="translate(1995.71 878.96) rotate(180)"/><rect class="cls-27" x="989.69" y="521.5" width="5.5" height="2.2" rx="0.86" ry="0.86" transform="translate(1989.38 1045.2) rotate(180)"/><rect class="cls-26" x="1108.35" y="438.38" width="5.5" height="2.2" rx="0.86" ry="0.86" transform="translate(2226.71 878.96) rotate(180)"/><path class="cls-28" d="M1202.81,510.16v20.61a4.63,4.63,0,0,1-4.63,4.63h-.4l-.23-2-.59-5a10.73,10.73,0,0,0-10.42-9.76h-10A10.19,10.19,0,0,0,1169,522a11.27,11.27,0,0,0-2.65,4.87,10.76,10.76,0,0,0-.23,1.07l-.52,3.23-.24,1.47a3.33,3.33,0,0,1-3.29,2.8h-35V477.18a2.29,2.29,0,0,1,2.33-2.29l19.49.38a6.77,6.77,0,0,1,4.39,1.74l17.42,15.73,6.46,5.84,21.73,6.67a5.05,5.05,0,0,1,3.47,3l0,0A5,5,0,0,1,1202.81,510.16Z" transform="translate(4.5)"/><path d="M1176.51,518.64h10a10.73,10.73,0,0,1,10.42,9.76l.51,4.33h-32.1s0-.09,0-.13l.76-4.7A10.7,10.7,0,0,1,1176.51,518.64Z" transform="translate(4.5)"/><rect class="cls-29" x="1130.29" y="476.46" height="56.27"/><path class="cls-23" d="M1125.79,532.73h0c-.73,0-1.33-.43-1.33-1V477.43c0-.53.59-1,1.33-1h0c.73,0,1.33.43,1.33,1v54.33C1127.12,532.3,1126.53,532.73,1125.79,532.73Z" transform="translate(4.5)"/><g class="cls-10"><path class="cls-22" d="M1157.78,531.33h-26.66a2.5,2.5,0,0,1-2.5-2.51c0-6.32.15-27.06.13-28.85l-.15-18.75a4.36,4.36,0,0,1,1.1-3,4.17,4.17,0,0,1,3.11-1.37H1149a4.2,4.2,0,0,1,2.9,1.15l20.13,19.07a4.12,4.12,0,0,1,1.28,3c0,1.78-1.79,16.5-4,17.35-5.31,2-7.41,7.94-8.18,11.28A3.43,3.43,0,0,1,1157.78,531.33Zm-25-53.95a3.63,3.63,0,0,0-2.71,1.2,3.82,3.82,0,0,0-1,2.63l.15,18.75c0,1.75-.09,20.77-.13,28.86a2,2,0,0,0,2,2h26.66a2.89,2.89,0,0,0,2.84-2.24c.8-3.45,3-9.55,8.52-11.66,1.66-.63,3.68-14.12,3.68-16.85a3.57,3.57,0,0,0-1.11-2.58l-20.13-19.07a3.65,3.65,0,0,0-2.52-1Z" transform="translate(4.5)"/></g><path class="cls-30" d="M1132.81,478.11H1149a2.94,2.94,0,0,1,2,.81L1171.2,498a2.83,2.83,0,0,1,.88,2.06h0a2.83,2.83,0,0,1-2.83,2.83H1133A2.94,2.94,0,0,1,1130,500l-.15-18.88A2.94,2.94,0,0,1,1132.81,478.11Z" transform="translate(4.5)"/><path class="cls-16" d="M1173.46,533.57a8,8,0,1,1,8,8A8,8,0,0,1,1173.46,533.57Z" transform="translate(4.5)"/><path class="cls-18" d="M1178.66,533.7c0-.06,0-.13,0-.19a2.61,2.61,0,0,1,.57-1.62l-3.44-4.52a8.42,8.42,0,0,1,2.44-1.56l2.36,5.17a2.57,2.57,0,0,1,1.58.06l2.77-5.14a8.42,8.42,0,0,1,2.42,1.66l-3.9,4.48a2.61,2.61,0,0,1,.45,1.46c0,.06,0,.12,0,.18l5.82,1.57a8.36,8.36,0,0,1-1.08,2.73l-5.33-2.81a2.62,2.62,0,0,1-1.19.81l.78,5.87a8.34,8.34,0,0,1-2.91,0l.53-5.84a2.62,2.62,0,0,1-1.23-.81l-5,2.66a8.36,8.36,0,0,1-1-2.69Z" transform="translate(4.5)"/><circle class="cls-19" cx="1185.86" cy="532.22" r="0.51"/><circle class="cls-19" cx="1185.86" cy="534.81" r="0.51"/><circle class="cls-19" cx="1184.56" cy="533.52" r="0.51"/><circle class="cls-19" cx="1187.15" cy="533.52" r="0.51"/><path class="cls-19" d="M1168,533.57a13.47,13.47,0,1,0,13.47-13.47A13.47,13.47,0,0,0,1168,533.57Zm4.85,0a8.62,8.62,0,1,1,8.62,8.62A8.62,8.62,0,0,1,1172.84,533.57Z" transform="translate(4.5)"/><path class="cls-22" d="M1172,533.57a9.43,9.43,0,1,0,9.43-9.43A9.43,9.43,0,0,0,1172,533.57Zm1.42,0a8,8,0,1,1,8,8A8,8,0,0,1,1173.46,533.57Z" transform="translate(4.5)"/><path class="cls-16" d="M1027.46,533.57a8,8,0,1,1,8,8A8,8,0,0,1,1027.46,533.57Z" transform="translate(4.5)"/><path class="cls-18" d="M1032.67,533.7c0-.06,0-.13,0-.19a2.61,2.61,0,0,1,.57-1.62l-3.44-4.52a8.42,8.42,0,0,1,2.44-1.56l2.36,5.17a2.57,2.57,0,0,1,1.58.06l2.77-5.14a8.43,8.43,0,0,1,2.42,1.66l-3.9,4.48a2.61,2.61,0,0,1,.45,1.46c0,.06,0,.12,0,.18l5.82,1.57a8.36,8.36,0,0,1-1.08,2.73l-5.33-2.81a2.62,2.62,0,0,1-1.19.81l.78,5.87a8.34,8.34,0,0,1-2.91,0l.53-5.84a2.62,2.62,0,0,1-1.23-.81l-5,2.66a8.36,8.36,0,0,1-1-2.69Z" transform="translate(4.5)"/><circle class="cls-19" cx="1039.86" cy="532.22" r="0.51"/><circle class="cls-19" cx="1039.86" cy="534.81" r="0.51"/><circle class="cls-19" cx="1038.56" cy="533.52" r="0.51"/><circle class="cls-19" cx="1041.16" cy="533.52" r="0.51"/><path class="cls-19" d="M1022,533.57a13.47,13.47,0,1,0,13.47-13.47A13.47,13.47,0,0,0,1022,533.57Zm4.85,0a8.62,8.62,0,1,1,8.62,8.62A8.62,8.62,0,0,1,1026.84,533.57Z" transform="translate(4.5)"/><path class="cls-22" d="M1026,533.57a9.43,9.43,0,1,0,9.43-9.43A9.43,9.43,0,0,0,1026,533.57Zm1.42,0a8,8,0,1,1,8,8A8,8,0,0,1,1027.46,533.57Z" transform="translate(4.5)"/><path class="cls-22" d="M1169.31,505.39H1131.8a.27.27,0,0,1-.27-.27h0a.27.27,0,0,1,.27-.27h37.51a.27.27,0,0,1,.27.27h0A.27.27,0,0,1,1169.31,505.39Z" transform="translate(4.5)"/><path class="cls-23" d="M1173.61,506h-3.35a.81.81,0,0,1-.66-1l.83-5.42a.73.73,0,0,1,.66-.68h2.52a3.68,3.68,0,0,1,3.8,3.55h0A3.68,3.68,0,0,1,1173.61,506Z" transform="translate(4.5)"/><path class="cls-31" d="M1173.61,503.86h-3.35a.61.61,0,0,1-.46-.22l-.21,1.35a.81.81,0,0,0,.66,1h3.35a3.68,3.68,0,0,0,3.8-3.55h0a3.33,3.33,0,0,0-.17-1.06A3.79,3.79,0,0,1,1173.61,503.86Z" transform="translate(4.5)"/><path class="cls-32" d="M1197.81,519.21l5,2v-11h-4.37a1.73,1.73,0,0,0-1.73,1.73v5.73A1.73,1.73,0,0,0,1197.81,519.21Z" transform="translate(4.5)"/><path class="cls-14" d="M1197.71,511.87v5.73a.76.76,0,0,0,.62.68l1.11.33,2.41.71a1,1,0,0,0,1.34-1v-6.12a1,1,0,0,0-1-1h-3.47C1198.15,511.14,1197.71,511.47,1197.71,511.87Z" transform="translate(4.5)"/><path class="cls-16" d="M1207,535.4h-9.92l-.14-7.43,6,.14a4,4,0,0,1,4,4Z" transform="translate(4.5)"/><path class="cls-33" d="M1148.22,479.84h-7.33l-9,18.71v.07a2.53,2.53,0,0,0,2.53,2.51h3.74l10.27-21.29Z" transform="translate(4.5)"/><polygon class="cls-33" points="1159.01 484.84 1155.23 481.26 1145.63 501.14 1151.15 501.14 1159.01 484.84"/><path class="cls-27" d="M1197.71,511.87v5.73a.76.76,0,0,0,.62.68l1.11.33v-7.47h-.76C1198.15,511.14,1197.71,511.47,1197.71,511.87Z" transform="translate(4.5)"/><path class="cls-19" d="M1132.14,510.14h11a2.62,2.62,0,0,0-2.62-2.62h-5.73a2.62,2.62,0,0,0-2.62,2.62Z" transform="translate(4.5)"/><path class="cls-31" d="M994.52,450.77h116.65a2.17,2.17,0,0,0,2.17-2.17h0a2.17,2.17,0,0,0-2.17-2.17H994.52a2.17,2.17,0,0,0-2.17,2.17h0A2.17,2.17,0,0,0,994.52,450.77Z" transform="translate(4.5)"/><path class="cls-31" d="M994.52,458h116.65a2.17,2.17,0,0,0,2.17-2.17h0a2.17,2.17,0,0,0-2.17-2.17H994.52a2.17,2.17,0,0,0-2.17,2.17h0A2.17,2.17,0,0,0,994.52,458Z" transform="translate(4.5)"/><path class="cls-31" d="M994.52,465.33h116.65a2.17,2.17,0,0,0,2.17-2.17h0a2.17,2.17,0,0,0-2.17-2.17H994.52a2.17,2.17,0,0,0-2.17,2.17h0A2.17,2.17,0,0,0,994.52,465.33Z" transform="translate(4.5)"/><path class="cls-31" d="M994.52,472.61h116.65a2.17,2.17,0,0,0,2.17-2.17h0a2.17,2.17,0,0,0-2.17-2.17H994.52a2.17,2.17,0,0,0-2.17,2.17h0A2.17,2.17,0,0,0,994.52,472.61Z" transform="translate(4.5)"/><path class="cls-31" d="M994.52,479.89h116.65a2.17,2.17,0,0,0,2.17-2.17h0a2.17,2.17,0,0,0-2.17-2.17H994.52a2.17,2.17,0,0,0-2.17,2.17h0A2.17,2.17,0,0,0,994.52,479.89Z" transform="translate(4.5)"/><path class="cls-31" d="M994.52,487.18h116.65a2.17,2.17,0,0,0,2.17-2.17h0a2.17,2.17,0,0,0-2.17-2.17H994.52a2.17,2.17,0,0,0-2.17,2.17h0A2.17,2.17,0,0,0,994.52,487.18Z" transform="translate(4.5)"/><path class="cls-31" d="M994.52,494.46h116.65a2.17,2.17,0,0,0,2.17-2.17h0a2.17,2.17,0,0,0-2.17-2.17H994.52a2.17,2.17,0,0,0-2.17,2.17h0A2.17,2.17,0,0,0,994.52,494.46Z" transform="translate(4.5)"/><path class="cls-31" d="M994.52,501.74h116.65a2.17,2.17,0,0,0,2.17-2.17h0a2.17,2.17,0,0,0-2.17-2.17H994.52a2.17,2.17,0,0,0-2.17,2.17h0A2.17,2.17,0,0,0,994.52,501.74Z" transform="translate(4.5)"/><path class="cls-31" d="M994.52,509h116.65a2.17,2.17,0,0,0,2.17-2.17h0a2.17,2.17,0,0,0-2.17-2.17H994.52a2.17,2.17,0,0,0-2.17,2.17h0A2.17,2.17,0,0,0,994.52,509Z" transform="translate(4.5)"/><path class="cls-31" d="M1170.76,492.73l8.08,7.7s15.48,4.64,19.32,5.56c3.48.83,4.17,2,4.26,2.22a5.06,5.06,0,0,0-3.48-3l-21.73-6.67Z" transform="translate(4.5)"/><rect class="cls-34" x="4.5" y="522.18" width="2500" height="68"/><rect class="cls-35" x="4.5" y="556.18" width="2500" height="34"/><rect class="cls-36" x="84.83" y="590.19" width="133.13" height="4.87"/><rect class="cls-37" x="84.83" y="595.06" width="133.13" height="10.04"/><polygon class="cls-38" points="217.96 605.1 179.78 627.71 123.01 627.71 84.83 605.1 217.96 605.1"/><rect class="cls-34" x="123.01" y="627.71" width="56.77" height="144.68"/><polygon class="cls-39" points="151.4 590.18 151.4 772.38 123.01 772.38 123.01 627.71 84.83 605.1 84.83 590.18 151.4 590.18"/><rect class="cls-36" x="458.55" y="590.19" width="133.13" height="4.87"/><rect class="cls-37" x="458.55" y="595.06" width="133.13" height="10.04"/><polygon class="cls-38" points="591.68 605.1 553.5 627.71 496.73 627.71 458.55 605.1 591.68 605.1"/><rect class="cls-34" x="496.73" y="627.71" width="56.77" height="144.68"/><polygon class="cls-39" points="525.12 590.18 525.12 772.38 496.73 772.38 496.73 627.71 458.55 605.1 458.55 590.18 525.12 590.18"/><rect class="cls-36" x="832.26" y="590.19" width="133.13" height="4.87"/><rect class="cls-37" x="832.26" y="595.06" width="133.13" height="10.04"/><polygon class="cls-38" points="965.39 605.1 927.21 627.71 870.44 627.71 832.26 605.1 965.39 605.1"/><rect class="cls-34" x="870.44" y="627.71" width="56.77" height="144.68"/><polygon class="cls-39" points="898.83 590.18 898.83 772.38 870.44 772.38 870.44 627.71 832.26 605.1 832.26 590.18 898.83 590.18"/><polygon class="cls-40" points="927.21 656.43 927.21 772.39 870.44 772.39 870.44 627.71 832.26 605.1 832.26 590.19 864.56 590.19 869.16 595.06 878.66 605.1 900.05 627.71 927.21 656.43"/><rect class="cls-36" x="1205.98" y="590.19" width="133.13" height="4.87"/><rect class="cls-37" x="1205.98" y="595.06" width="133.13" height="10.04"/><polygon class="cls-38" points="1339.11 605.1 1300.93 627.71 1244.16 627.71 1205.98 605.1 1339.11 605.1"/><rect class="cls-34" x="1244.16" y="627.71" width="56.77" height="144.68"/><polygon class="cls-39" points="1272.55 590.18 1272.55 772.38 1244.16 772.38 1244.16 627.71 1205.98 605.1 1205.98 590.18 1272.55 590.18"/><rect class="cls-36" x="1579.7" y="590.19" width="133.13" height="4.87"/><rect class="cls-37" x="1579.7" y="595.06" width="133.13" height="10.04"/><polygon class="cls-38" points="1712.83 605.1 1674.65 627.71 1617.88 627.71 1579.7 605.1 1712.83 605.1"/><rect class="cls-34" x="1617.88" y="627.71" width="56.77" height="144.68"/><polygon class="cls-39" points="1646.27 590.18 1646.27 772.38 1617.88 772.38 1617.88 627.71 1579.7 605.1 1579.7 590.18 1646.27 590.18"/><rect class="cls-36" x="1953.41" y="590.19" width="133.13" height="4.87"/><rect class="cls-37" x="1953.41" y="595.06" width="133.13" height="10.04"/><polygon class="cls-38" points="2086.54 605.1 2048.36 627.71 1991.59 627.71 1953.41 605.1 2086.54 605.1"/><rect class="cls-34" x="1991.59" y="627.71" width="56.77" height="144.68"/><polygon class="cls-39" points="2019.98 590.18 2019.98 772.38 1991.59 772.38 1991.59 627.71 1953.41 605.1 1953.41 590.18 2019.98 590.18"/><rect class="cls-36" x="2327.13" y="590.19" width="133.13" height="4.87"/><rect class="cls-37" x="2327.13" y="595.06" width="133.13" height="10.04"/><polygon class="cls-38" points="2460.26 605.1 2422.08 627.71 2365.31 627.71 2327.13 605.1 2460.26 605.1"/><rect class="cls-34" x="2365.31" y="627.71" width="56.77" height="144.68"/><polygon class="cls-39" points="2393.7 590.18 2393.7 772.38 2365.31 772.38 2365.31 627.71 2327.13 605.1 2327.13 590.18 2393.7 590.18"/><rect class="cls-41" x="4.5" y="852.53" width="2500" height="547"/><rect class="cls-42" x="4.5" y="1212.53" width="2500" height="187"/><rect class="cls-19" x="4.5" y="1306.03" width="2500" height="93.97"/><rect class="cls-14" x="4.5" y="874.53" width="2500" height="10"/><rect class="cls-14" x="4.5" y="1090.28" width="2500" height="10"/><polygon class="cls-14" points="91.38 930.53 11.01 930.53 6.24 940.53 86.61 940.53 91.38 930.53"/><polygon class="cls-14" points="1206.26 930.53 563.01 930.53 558.24 940.53 1201.49 940.53 1206.26 930.53"/><polygon class="cls-14" points="1388.61 930.53 1302.74 930.53 1307.51 940.53 1393.38 940.53 1388.61 930.53"/><polygon class="cls-14" points="1574.61 930.53 1492.24 930.53 1497.01 940.53 1579.38 940.53 1574.61 930.53"/><polygon class="cls-14" points="1760.61 930.53 1678.24 930.53 1683.01 940.53 1765.38 940.53 1760.61 930.53"/><polygon class="cls-14" points="1946.61 930.53 1864.24 930.53 1869.01 940.53 1951.38 940.53 1946.61 930.53"/><polygon class="cls-14" points="2132.61 930.53 2050.24 930.53 2055.01 940.53 2137.38 940.53 2132.61 930.53"/><polygon class="cls-14" points="2318.61 930.53 2236.24 930.53 2241.01 940.53 2323.38 940.53 2318.61 930.53"/><polygon class="cls-14" points="2422.24 930.53 2427.01 940.53 2504.5 940.53 2504.5 930.53 2422.24 930.53"/><rect class="cls-43" x="6.24" y="904.14" width="2497.39" height="85.61"/><rect class="cls-43" x="6.24" y="1126.03" width="2497.39" height="53.52"/><rect class="cls-44" x="4.5" y="765.36" width="2500" height="87.17"/><rect class="cls-35" x="4.5" y="808.94" width="2500" height="43.59"/><rect class="cls-34" x="1497.44" y="632.93" width="9.81" height="132.43"/><rect class="cls-34" x="1314.94" y="632.93" width="9.81" height="132.43"/><rect class="cls-45" x="1314.94" y="632.93" width="9.81" height="19.07"/><rect class="cls-45" x="1497.44" y="632.93" width="9.81" height="19.07"/><path class="cls-46" d="M1600,613.46l-23.93,15.83-20.52,13.57a7.33,7.33,0,0,1-4,1.21H1271a7.3,7.3,0,0,1-7.3-7.31V578a7.3,7.3,0,0,1,7.3-7.3h280.5a7.33,7.33,0,0,1,4,1.21l44.45,29.4A7.31,7.31,0,0,1,1600,613.46Z" transform="translate(4.5)"/><path class="cls-14" d="M1545,639.77H1275.71c-4.42,0-8-3.25-8-7.25V582.21c0-4,3.59-7.25,8-7.25H1545a8.62,8.62,0,0,1,4.38,1.18l42.68,25.15a6.89,6.89,0,0,1,0,12.15l-42.68,25.15A8.62,8.62,0,0,1,1545,639.77ZM1275.71,577c-3.32,0-6,2.36-6,5.25v50.31c0,2.89,2.7,5.25,6,5.25H1545a6.62,6.62,0,0,0,3.36-.9L1591,611.71a4.9,4.9,0,0,0,0-8.7l-42.68-25.15a6.62,6.62,0,0,0-3.36-.9Z" transform="translate(4.5)"/><text class="cls-47" transform="translate(1306.58 623.53)"><tspan class="cls-48">E</tspan><tspan x="24.28" y="0">V S</tspan><tspan class="cls-49" x="85.5" y="0">T</tspan><tspan class="cls-50" x="105.96" y="0">A</tspan><tspan x="131.89" y="0">TION</tspan></text><path class="cls-35" d="M1576.05,629.29l-20.52,13.57a7.33,7.33,0,0,1-4,1.21H1271a7.3,7.3,0,0,1-7.3-7.31v-7.47Z" transform="translate(4.5)"/><rect class="cls-42" x="4.5" y="691" width="2500" height="5.69"/><rect class="cls-42" x="4.5" y="711.06" width="2500" height="5.69"/><rect class="cls-42" x="4.5" y="731.11" width="2500" height="5.69"/><rect class="cls-42" x="4.5" y="751.17" width="2499.13" height="5.69"/><rect class="cls-42" x="172.5" y="691" width="5" height="74.36"/><rect class="cls-42" x="914.5" y="691" width="5" height="74.36"/><rect class="cls-42" x="1285.5" y="691" width="5" height="74.36"/><rect class="cls-42" x="1656.5" y="691" width="5" height="74.36"/><rect class="cls-42" x="2027.5" y="691" width="5" height="74.36"/><rect class="cls-42" x="2398.5" y="691" width="5" height="74.36"/><path class="cls-23" d="M567.65,649.22V654H46.5v-4.73A19.5,19.5,0,0,1,66,629.72H548.17A19.5,19.5,0,0,1,567.65,649.22Z" transform="translate(4.5)"/><rect class="cls-51" y="1223.98" width="2504.5" height="20.67"/><rect class="cls-51" y="1280.58" width="2504.5" height="20.67"/><rect class="cls-51" y="1337.18" width="2504.5" height="20.67"/><rect class="cls-51" x="138.97" y="1223.98" width="20.53" height="175.55"/><rect class="cls-51" x="613.87" y="1223.98" width="20.53" height="175.55"/><rect class="cls-51" x="1088.77" y="1223.98" width="20.53" height="175.55"/><rect class="cls-51" x="1563.67" y="1223.98" width="20.53" height="175.55"/><rect class="cls-51" x="2038.57" y="1223.98" width="20.53" height="175.55"/><rect class="cls-42" x="4.5" y="504.03" width="2500" height="2"/><rect class="cls-42" x="4.5" y="509.28" width="2500" height="2"/><rect class="cls-42" x="4.5" y="514.53" width="2500" height="2"/><rect class="cls-42" x="51.17" y="504.03" width="1.83" height="18.15"/><rect class="cls-42" x="151.5" y="504.03" width="1.83" height="18.15"/><rect class="cls-42" x="251.83" y="504.03" width="1.83" height="18.15"/><rect class="cls-42" x="352.17" y="504.03" width="1.83" height="18.15"/><rect class="cls-42" x="452.5" y="504.03" width="1.83" height="18.15"/><rect class="cls-42" x="552.83" y="504.03" width="1.83" height="18.15"/><rect class="cls-42" x="653.17" y="504.03" width="1.83" height="18.15"/><rect class="cls-42" x="753.5" y="504.03" width="1.83" height="18.15"/><rect class="cls-42" x="853.83" y="504.03" width="1.83" height="18.15"/><rect class="cls-42" x="954.17" y="504.03" width="1.83" height="18.15"/><rect class="cls-42" x="1054.5" y="504.03" width="1.83" height="18.15"/><rect class="cls-42" x="1154.83" y="504.03" width="1.83" height="18.15"/><rect class="cls-42" x="1255.17" y="504.03" width="1.83" height="18.15"/><rect class="cls-42" x="1355.5" y="504.03" width="1.83" height="18.15"/><rect class="cls-42" x="1455.83" y="504.03" width="1.83" height="18.15"/><rect class="cls-42" x="1556.17" y="504.03" width="1.83" height="18.15"/><rect class="cls-42" x="1656.5" y="504.03" width="1.83" height="18.15"/><rect class="cls-42" x="1756.83" y="504.03" width="1.83" height="18.15"/><rect class="cls-42" x="1857.17" y="504.03" width="1.83" height="18.15"/><rect class="cls-42" x="1957.5" y="504.03" width="1.83" height="18.15"/><rect class="cls-42" x="2057.83" y="504.03" width="1.83" height="18.15"/><rect class="cls-42" x="2158.17" y="504.03" width="1.83" height="18.15"/><rect class="cls-42" x="2258.5" y="504.03" width="1.83" height="18.15"/><rect class="cls-42" x="2358.83" y="504.03" width="1.83" height="18.15"/><rect class="cls-42" x="2459.17" y="504.03" width="1.83" height="18.15"/><path class="cls-52" d="M561.33,279C335.09,277.17,104.79,271,0,267.92v34.56H561.33Z" transform="translate(4.5)"/><path class="cls-52" d="M1043.47,207.77c-32,26.23-145.09,72-368.4,71.82v22.89H2500v-82.7c-224.69,48.15-410.69,15-676.31-102.12C1547.11-4.29,1179.1,96.76,1043.47,207.77Z" transform="translate(4.5)"/><path class="cls-40" d="M1382.75,644.07H1271a7.3,7.3,0,0,1-7.3-7.31V578a7.3,7.3,0,0,1,7.3-7.3h60.54Z" transform="translate(4.5)"/><polygon class="cls-40" points="864.55 590.18 4.5 590.18 4.5 522.18 800.23 522.18 864.55 590.18"/><polygon class="cls-14" points="460.92 930.53 380.55 930.53 375.78 940.53 456.15 940.53 460.92 930.53"/><polygon class="cls-14" points="644.92 930.53 564.55 930.53 559.78 940.53 640.15 940.53 644.92 930.53"/><rect class="cls-42" x="729.03" y="691" width="5" height="74.36"/><path class="cls-43" d="M1121.53,1091.81H220.14c-9.51,0-15.74-6.84-11.57-12.7L233,1044.75c2.16-3,6.65-5,11.57-5h852.54c4.92,0,9.41,1.92,11.57,5l24.42,34.35C1137.26,1085,1131,1091.81,1121.53,1091.81Z" transform="translate(4.5)"/><path class="cls-23" d="M955,940.88v55a12.09,12.09,0,0,1-12.1,12.09H473.12a12.11,12.11,0,0,1-7.51-2.61l-37.87-30a12.08,12.08,0,0,0-7.5-2.61H281.52a12.1,12.1,0,1,1,0-24.19H740a12.07,12.07,0,0,0,7.14-2.33l6-4.39,14.69-10.74a12.11,12.11,0,0,1,7.13-2.33H942.86A12.1,12.1,0,0,1,955,940.88Z" transform="translate(4.5)"/><rect class="cls-24" x="289.22" y="948.57" width="61.57" height="50.58" transform="translate(644.5 1947.72) rotate(180)"/><path class="cls-53" d="M753.18,649.22V943.06a14.31,14.31,0,0,1-14.3,14.32H280.56l-4.94,13.84-8.4,23.54H232V649.22a19.5,19.5,0,0,1,19.5-19.5H733.7A19.5,19.5,0,0,1,753.18,649.22Z" transform="translate(4.5)"/><rect class="cls-19" x="280.42" y="992.55" width="79.16" height="19.79" rx="4.33" ry="4.33" transform="translate(644.5 2004.89) rotate(180)"/><rect class="cls-19" x="258.43" y="933.06" width="477.16" height="10.02" rx="3.9" ry="3.9" transform="translate(998.53 1876.13) rotate(-180)"/><rect class="cls-19" x="509.53" y="979.36" width="248.06" height="47.9" rx="10.13" ry="10.13" transform="translate(1271.61 2006.61) rotate(180)"/><rect class="cls-19" x="229.85" y="983.75" width="39.5" height="28.59" rx="5.45" ry="5.45" transform="translate(503.7 1996.09) rotate(180)"/><rect class="cls-26" x="251.25" y="637.44" width="21.99" height="8.8" rx="3.42" ry="3.42" transform="translate(528.99 1283.67) rotate(180)"/><rect class="cls-27" x="238.6" y="969.46" width="21.99" height="8.8" rx="3.42" ry="3.42" transform="translate(503.7 1947.72) rotate(180)"/><rect class="cls-26" x="712.62" y="637.44" width="21.99" height="8.8" rx="3.42" ry="3.42" transform="translate(1451.72 1283.67) rotate(180)"/><path class="cls-53" d="M1089.93,924.16v82.33a18.49,18.49,0,0,1-18.5,18.51h-1.6l-.92-7.84L1066.55,997c-2.61-22.28-20.46-39-41.62-39H984.84A40.72,40.72,0,0,0,955,971.3a45,45,0,0,0-10.57,19.44,42.92,42.92,0,0,0-.9,4.29l-2.07,12.91-.94,5.86a13.3,13.3,0,0,1-13.14,11.2H787.57V792.44a9.16,9.16,0,0,1,9.32-9.16l77.86,1.5a27,27,0,0,1,17.55,6.94l69.57,62.83,25.81,23.31,86.79,26.66a20.18,20.18,0,0,1,13.88,11.84l.06.14A20,20,0,0,1,1089.93,924.16Z" transform="translate(4.5)"/><path d="M984.84,958h40.09c21.16,0,39,16.72,41.62,39l2,17.31H940.37c0-.18.08-.35.11-.53l3-18.76C946.94,973.66,964.4,958,984.84,958Z" transform="translate(4.5)"/><rect class="cls-29" x="786.77" y="789.57" height="224.76"/><path class="cls-22" d="M782.27,1014.32h0c-2.93,0-5.3-1.73-5.3-3.86v-217c0-2.13,2.37-3.86,5.3-3.86h0c2.93,0,5.3,1.73,5.3,3.86v217C787.57,1012.59,785.2,1014.32,782.27,1014.32Z" transform="translate(4.5)"/><path class="cls-22" d="M910,1008.74H803.54a10,10,0,0,1-10-10c.14-25.23.59-108.09.53-115.26l-.58-74.89a17.42,17.42,0,0,1,4.4-12,16.67,16.67,0,0,1,12.43-5.48h64.82a16.76,16.76,0,0,1,11.57,4.61l80.42,76.17a16.45,16.45,0,0,1,5.12,11.9c0,7.09-7.16,65.91-16.08,69.32-21.22,8.1-29.58,31.71-32.68,45.06A13.71,13.71,0,0,1,910,1008.74ZM810.32,793.24A14.52,14.52,0,0,0,799.49,798a15.26,15.26,0,0,0-3.83,10.51l.58,74.89c.06,7-.35,83-.53,115.29a7.82,7.82,0,0,0,7.82,7.86H910a11.55,11.55,0,0,0,11.34-8.93c3.19-13.77,11.86-38.13,34-46.59,6.62-2.53,14.69-56.42,14.69-67.29a14.27,14.27,0,0,0-4.44-10.32l-80.42-76.17a14.59,14.59,0,0,0-10.08-4Z" transform="translate(4.5)"/><path class="cls-30" d="M810.32,796.15h64.82a11.75,11.75,0,0,1,8.08,3.22l80.42,76.17a11.31,11.31,0,0,1,3.53,8.21h0a11.31,11.31,0,0,1-11.31,11.31h-145a11.75,11.75,0,0,1-11.75-11.66l-.59-75.4A11.75,11.75,0,0,1,810.32,796.15Z" transform="translate(4.5)"/><path class="cls-16" d="M972.66,1017.7a32,32,0,1,1,32,32A32,32,0,0,1,972.66,1017.7Z" transform="translate(4.5)"/><path class="cls-18" d="M993.46,1018.22c0-.26,0-.51,0-.77a10.42,10.42,0,0,1,2.26-6.48l-13.73-18a33.63,33.63,0,0,1,9.74-6.23l9.44,20.67a10.27,10.27,0,0,1,6.3.25l11.05-20.52a33.65,33.65,0,0,1,9.67,6.62l-15.58,17.9a10.42,10.42,0,0,1,1.78,5.84c0,.24,0,.47,0,.71l23.25,6.27a33.38,33.38,0,0,1-4.33,10.92L1012,1024.11a10.48,10.48,0,0,1-4.75,3.26l3.12,23.44a33.31,33.31,0,0,1-11.61,0l2.1-23.31a10.47,10.47,0,0,1-4.92-3.26l-20.15,10.64a33.38,33.38,0,0,1-4.08-10.74Z" transform="translate(4.5)"/><circle class="cls-19" cx="1008.72" cy="1012.3" r="2.03"/><circle class="cls-19" cx="1008.72" cy="1022.65" r="2.03"/><circle class="cls-19" cx="1003.55" cy="1017.47" r="2.03"/><circle class="cls-19" cx="1013.9" cy="1017.47" r="2.03"/><path class="cls-19" d="M950.83,1017.7a53.82,53.82,0,1,0,53.82-53.82A53.82,53.82,0,0,0,950.83,1017.7Zm19.38,0a34.44,34.44,0,1,1,34.44,34.44A34.44,34.44,0,0,1,970.21,1017.7Z" transform="translate(4.5)"/><path class="cls-22" d="M967,1017.7A37.65,37.65,0,1,0,1004.65,980,37.65,37.65,0,0,0,967,1017.7Zm5.67,0a32,32,0,1,1,32,32A32,32,0,0,1,972.66,1017.7Z" transform="translate(4.5)"/><path class="cls-16" d="M389.48,1017.7a32,32,0,1,1,32,32A32,32,0,0,1,389.48,1017.7Z" transform="translate(4.5)"/><path class="cls-18" d="M410.28,1018.22c0-.26,0-.51,0-.77a10.42,10.42,0,0,1,2.26-6.48l-13.73-18a33.63,33.63,0,0,1,9.74-6.23l9.44,20.67a10.27,10.27,0,0,1,6.3.25l11.05-20.52A33.65,33.65,0,0,1,445,993.7l-15.58,17.9a10.42,10.42,0,0,1,1.78,5.84c0,.24,0,.47,0,.71l23.25,6.27a33.38,33.38,0,0,1-4.33,10.92l-21.28-11.23a10.48,10.48,0,0,1-4.75,3.26l3.12,23.44a33.31,33.31,0,0,1-11.61,0l2.1-23.31a10.47,10.47,0,0,1-4.92-3.26l-20.15,10.64a33.38,33.38,0,0,1-4.08-10.74Z" transform="translate(4.5)"/><circle class="cls-19" cx="425.54" cy="1012.3" r="2.03"/><circle class="cls-19" cx="425.54" cy="1022.65" r="2.03"/><circle class="cls-19" cx="420.37" cy="1017.47" r="2.03"/><circle class="cls-19" cx="430.72" cy="1017.47" r="2.03"/><path class="cls-19" d="M367.65,1017.7a53.82,53.82,0,1,0,53.82-53.82A53.82,53.82,0,0,0,367.65,1017.7Zm19.38,0a34.44,34.44,0,1,1,34.44,34.44A34.44,34.44,0,0,1,387,1017.7Z" transform="translate(4.5)"/><path class="cls-22" d="M383.82,1017.7A37.65,37.65,0,1,0,421.46,980,37.65,37.65,0,0,0,383.82,1017.7Zm5.67,0a32,32,0,1,1,32,32A32,32,0,0,1,389.48,1017.7Z" transform="translate(4.5)"/><path class="cls-22" d="M956.1,905.13H806.26a1.09,1.09,0,0,1-1.09-1.09h0a1.09,1.09,0,0,1,1.09-1.09H956.1a1.09,1.09,0,0,1,1.09,1.09h0A1.09,1.09,0,0,1,956.1,905.13Z" transform="translate(4.5)"/><path class="cls-14" d="M973.27,907.5H959.89c-1.69,0-3-1.91-2.65-4l3.32-21.67a2.93,2.93,0,0,1,2.65-2.73h10.07c8.39,0,15.2,6.35,15.2,14.19h0C988.47,901.15,981.66,907.5,973.27,907.5Z" transform="translate(4.5)"/><path class="cls-22" d="M973.27,899H959.89a2.43,2.43,0,0,1-1.83-.89l-.83,5.41c-.32,2.07,1,4,2.65,4h13.38c8.39,0,15.2-6.35,15.2-14.19h0a13.32,13.32,0,0,0-.69-4.25A15.12,15.12,0,0,1,973.27,899Z" transform="translate(4.5)"/><path class="cls-32" d="M1069.93,960.31l20,7.85v-44s0,0,0,0h-17.47a6.9,6.9,0,0,0-6.9,6.9v22.88A6.9,6.9,0,0,0,1069.93,960.31Z" transform="translate(4.5)"/><path class="cls-14" d="M1069.54,931v22.88a3.05,3.05,0,0,0,2.48,2.72l4.45,1.31,9.62,2.82a4.19,4.19,0,0,0,5.37-4V932.28a4.19,4.19,0,0,0-4.19-4.19h-13.84C1071.29,928.1,1069.54,929.4,1069.54,931Z" transform="translate(4.5)"/><path class="cls-16" d="M1106.62,1025H1067l-.55-29.67,24.08.55a16.1,16.1,0,0,1,16.1,16.1Z" transform="translate(4.5)"/><path class="cls-33" d="M871.86,803.07H842.58l-36.07,74.74v.3a10.11,10.11,0,0,0,10.11,10h14.92l41-85C872.34,803.08,872.1,803.07,871.86,803.07Z" transform="translate(4.5)"/><polygon class="cls-33" points="901.48 823.04 886.37 808.73 848.06 888.14 870.07 888.14 901.48 823.04"/><path class="cls-27" d="M1069.54,931v22.88a3.05,3.05,0,0,0,2.48,2.72l4.45,1.31V928.1h-3C1071.29,928.1,1069.54,929.4,1069.54,931Z" transform="translate(4.5)"/><path class="cls-19" d="M807.64,924.11h43.79A10.45,10.45,0,0,0,841,913.66h-22.9a10.45,10.45,0,0,0-10.45,10.45Z" transform="translate(4.5)"/><path class="cls-54" d="M257.9,686.92h466a8.66,8.66,0,0,0,8.66-8.66h0a8.66,8.66,0,0,0-8.66-8.66h-466a8.66,8.66,0,0,0-8.66,8.66h0A8.66,8.66,0,0,0,257.9,686.92Z" transform="translate(4.5)"/><path class="cls-54" d="M257.9,716h466a8.66,8.66,0,0,0,8.66-8.66h0a8.66,8.66,0,0,0-8.66-8.66h-466a8.66,8.66,0,0,0-8.66,8.66h0A8.66,8.66,0,0,0,257.9,716Z" transform="translate(4.5)"/><path class="cls-54" d="M257.9,745.1h466a8.66,8.66,0,0,0,8.66-8.66h0a8.66,8.66,0,0,0-8.66-8.66h-466a8.66,8.66,0,0,0-8.66,8.66h0A8.66,8.66,0,0,0,257.9,745.1Z" transform="translate(4.5)"/><path class="cls-54" d="M257.9,774.19h466a8.66,8.66,0,0,0,8.66-8.66h0a8.66,8.66,0,0,0-8.66-8.66h-466a8.66,8.66,0,0,0-8.66,8.66h0A8.66,8.66,0,0,0,257.9,774.19Z" transform="translate(4.5)"/><path class="cls-54" d="M257.9,803.27h466a8.66,8.66,0,0,0,8.66-8.66h0a8.66,8.66,0,0,0-8.66-8.66h-466a8.66,8.66,0,0,0-8.66,8.66h0A8.66,8.66,0,0,0,257.9,803.27Z" transform="translate(4.5)"/><path class="cls-54" d="M257.9,832.36h466a8.66,8.66,0,0,0,8.66-8.66h0a8.66,8.66,0,0,0-8.66-8.66h-466a8.66,8.66,0,0,0-8.66,8.66h0A8.66,8.66,0,0,0,257.9,832.36Z" transform="translate(4.5)"/><path class="cls-54" d="M257.9,861.45h466a8.66,8.66,0,0,0,8.66-8.66h0a8.66,8.66,0,0,0-8.66-8.66h-466a8.66,8.66,0,0,0-8.66,8.66h0A8.66,8.66,0,0,0,257.9,861.45Z" transform="translate(4.5)"/><path class="cls-54" d="M257.9,890.53h466a8.66,8.66,0,0,0,8.66-8.66h0a8.66,8.66,0,0,0-8.66-8.66h-466a8.66,8.66,0,0,0-8.66,8.66h0A8.66,8.66,0,0,0,257.9,890.53Z" transform="translate(4.5)"/><path class="cls-54" d="M257.9,919.62h466a8.66,8.66,0,0,0,8.66-8.66h0a8.66,8.66,0,0,0-8.66-8.66h-466a8.66,8.66,0,0,0-8.66,8.66h0A8.66,8.66,0,0,0,257.9,919.62Z" transform="translate(4.5)"/><path class="cls-22" d="M961.87,854.55l32.28,30.75s61.84,18.55,77.17,22.2c13.9,3.3,16.64,8,17,8.86a20.21,20.21,0,0,0-13.88-11.84l-86.79-26.65Z" transform="translate(4.5)"/><path class="cls-35" d="M689.12,990.74c-6.84-.65-12.15-1.29-15-2.06-12.53-3.36-53.48-33.4-84.76-50.91a120.8,120.8,0,0,0-20.1-9,128.91,128.91,0,0,0-36.92-6.67v6.67H519.73a12.11,12.11,0,0,0-7.13,2.33l-14.69,10.74V922l-56.26,0c-13.39,0-42.2.41-57.44,6.41-7.41,2.91-26.15,11.69-44.35,20.2-6.57,3.07-13.07,6.1-19,8.81-11.4,5.25-20.44,9.29-23.08,10-7.74,2.13-27.25,1.62-42.63,1.62-9.62,0-13,3.92-14.36,8.21a45.29,45.29,0,0,0-1.28,7.43c-.22,1.46-.69,5.09-1.26,9.81a.76.76,0,0,1,0,.15c-.47,3.91-1,8.56-1.53,13.32H532.3V1025H672.07a13.3,13.3,0,0,0,13.14-11.2l.94-5.86h1.44a12.09,12.09,0,0,0,12.1-12.09v-4.19C695.89,991.34,692.34,991,689.12,990.74Z" transform="translate(4.5)"/><path class="cls-43" d="M992.79,1204.65H374.18a8.83,8.83,0,0,1-7.94-12.7L383,1157.59a8.83,8.83,0,0,1,7.94-5H976a8.83,8.83,0,0,1,7.94,5l16.76,34.35A8.83,8.83,0,0,1,992.79,1204.65Z" transform="translate(4.5)"/><polygon points="956.39 1159.68 983.93 1159.68 992.68 1124.82 956.39 1124.82 956.39 1159.68"/><path class="cls-55" d="M971.67,1138.38c-2.82,4.32-6.2,16.13-1.5,16.13h15.18c3.58,0,3.38,5.45.75,10.51s-6,5.25-11.81,5.25H534.06c-19.67,0-78.1-15.32-85.47-15.32H404.32c-6.38,0-18.64-5-23.39-19.63s-4.13-25.63-3.25-28.14,6.76-3.25,6.76-10.25c0-2,.36-6.57.9-12.21.18-1.77.37-3.66.57-5.61.28-2.82,1.83-5.36,2.14-8.3.59-5.31,0-11,.5-15.34.57-4.72,1-8.36,1.26-9.81a45.19,45.19,0,0,1,1.27-7.43c1.38-4.29,4.75-8.21,14.36-8.21,15.39,0,34.89.51,42.64-1.62,6.38-1.75,50.3-22.93,74.22-33.75,5.19-2.35,9.43-4.21,12.15-5.28,15.25-6,44.06-6.41,57.45-6.41l75.4,0c12.5,0,41-1.76,72.27,15.75s72.22,47.56,84.75,50.92c5.33,1.43,18.93,2.39,35.13,3.78l8.14.72c20.15,1.86,42.75,4.55,58.31,9.61,17.15,5.58,33.28,10.85,45,18.39,1.28.81,2.66,1.77,4.1,2.85,7.14,5.48,12.12,12.1,13.9,20.67.31,1.54.61,3,.87,4.35,3.57,18.88,1.29,21.28-3.38,22C981.42,1132.83,974.47,1134.07,971.67,1138.38Z" transform="translate(4.5)"/><path class="cls-8" d="M385.34,1084.73h25a9.89,9.89,0,0,0,9.89-9.89v-26.71a9.89,9.89,0,0,0-9.89-9.89H391.09a45.14,45.14,0,0,0-1.28,7.43c-.23,1.46-.69,5.09-1.26,9.81-.53,4.35.09,10-.5,15.34-.32,2.94-1.86,5.48-2.15,8.3C385.72,1081.06,385.52,1083,385.34,1084.73Z" transform="translate(4.5)"/><path class="cls-9" d="M377.31,1118.07a79.19,79.19,0,0,0,3.62,17.26,31.2,31.2,0,0,0,4.49,8.85c5.76,7.86,14,10.77,18.91,10.77h44.27c7.37,0,65.8,15.32,85.47,15.32H974.3c5.81,0,9.18-.18,11.81-5.25s2.82-10.5-.75-10.5H970.17c-3.2,0-2.66-5.48-1.08-10.34a25.15,25.15,0,0,1,2.58-5.79c2.81-4.31,9.75-5.55,14.75-6.33,3.9-.62,6.14-2.39,4.67-14Z" transform="translate(4.5)"/><g class="cls-10"><path class="cls-11" d="M507.87,1046.64c-3.12,4-4.32,13.09-2.53,19,1.36,4.49,8.43,11.33,18.23,20.79,3.29,3.18,7,6.79,10.91,10.67,13.17,13.16,20.55,34.65,23.7,43.82.57,1.67,1,3,1.36,3.82,2.24,5.61,5,6.76,8.48,6.76h94.54a741,741,0,0,0-6-94.63l1.11-.16a742.12,742.12,0,0,1,6,94.79H803.42a5.37,5.37,0,0,0,5.27-3.93c.55-2.26,5.06-34.9,6.18-52,1.09-16.71-.68-22.11-9.94-30.43-9-8.12-43.46-29-43.81-29.2l.58-1c.35.21,34.85,21.13,44,29.32,9.6,8.62,11.43,14.18,10.31,31.34s-5.65,50-6.2,52.24a6.51,6.51,0,0,1-6.36,4.79H568c-4.65,0-7.4-2.16-9.53-7.47-.34-.86-.8-2.19-1.38-3.88-3.13-9.1-10.45-30.42-23.43-43.39-3.88-3.88-7.61-7.48-10.89-10.66-9.91-9.59-17.08-16.51-18.52-21.28-1.91-6.31-.64-15.66,2.72-20Z" transform="translate(4.5)"/><path class="cls-11" d="M436.4,1065.8a10.32,10.32,0,1,0,10.32-10.32A10.33,10.33,0,0,0,436.4,1065.8Zm1.13,0a9.19,9.19,0,1,1,9.19,9.19A9.2,9.2,0,0,1,437.52,1065.8Z" transform="translate(4.5)"/></g><path class="cls-12" d="M517.74,1060h256.6c7,0,9.75-4.5,9.26-7.74s-29.77-26.52-49.78-38.27c-2.16-1.28-4.35-2.49-6.6-3.63h0a165.41,165.41,0,0,0-37-13.85c-2.54-.59-4.91-1-7-1.34a40.1,40.1,0,0,0-5.42-.44H582.52c-22,0-74.66,28-82.65,39.53C494.5,1042,511.48,1060,517.74,1060Z" transform="translate(4.5)"/><path class="cls-55" d="M672.73,1060h-27L638,994.77h14.52Z" transform="translate(4.5)"/><path class="cls-12" d="M824.34,1049.68c-5.15,1.33-9.21,2.8-12.1,2.8-5.06,0-9.75-1.31-11.44-2.63s-61.52-43.14-67-46.71-2.63-7.13,0-7.13h.53c1.73.86,3.47,1.77,5.22,2.75,31.26,17.51,72.22,47.55,84.75,50.91Z" transform="translate(4.5)"/><path class="cls-12" d="M533.52,989.75c.92,1,.8,2.64-1.4,4.39-3.63,2.88-53.27,27.14-59.15,30.14-5.6,2.86-12.69,3.1-22.1,3.12C465.1,1021.75,518.15,996,533.52,989.75Z" transform="translate(4.5)"/><path class="cls-13" d="M932.78,1097c8.63,6.57,23.66,10.44,37,11.91,8.57,1,15.73,1.91,20,1.13-.26-1.37-.56-2.81-.87-4.35-1.77-8.57-6.75-15.19-13.9-20.66-1.44-1.08-2.82-2-4.1-2.85a24.73,24.73,0,0,0-3.41-1.85c-8.13-3.45-32.1-7.05-42.39-8.63C907,1069,924.15,1090.44,932.78,1097Z" transform="translate(4.5)"/><path class="cls-14" d="M925.91,1076.3c7.84,1.2,26.07,3.94,32.26,6.57s21.2,16.38,20.26,20.2-8.44,2.69-18.57,1.56-21.57-4.07-28.14-9.07S912.12,1074.2,925.91,1076.3Z" transform="translate(4.5)"/><path class="cls-15" d="M931.72,1095.56c-6.57-5-19.6-21.36-5.81-19.26,2.25.34,5.36.82,8.79,1.37,5,3.71,17.23,13.73,21,26.39C946.71,1102.66,937.39,1099.88,931.72,1095.56Z" transform="translate(4.5)"/><path class="cls-14" d="M415.32,1051.36v20.26a7.5,7.5,0,0,1-7.5,7.5H386.94c.82-8,.81-16.9,1.62-23.64.57-4.72,1-8.36,1.26-9.81.09-.56.16-1.17.24-1.81h17.77A7.5,7.5,0,0,1,415.32,1051.36Z" transform="translate(4.5)"/><path class="cls-15" d="M415.32,1071.61a7.5,7.5,0,0,1-7.5,7.5H385.91c.82-8,1.84-16.89,2.65-23.63h26.77Z" transform="translate(4.5)"/><path class="cls-9" d="M385.42,1144.18c5.76,7.86,14,10.77,18.91,10.77h44.27c7.37,0,65.8,15.32,85.47,15.32H974.3c5.81,0,9.18-.18,11.81-5.25s2.82-10.5-.75-10.5H970.17c-3.2,0-2.66-5.48-1.08-10.34Z" transform="translate(4.5)"/><path d="M442.59,1147.71a52.15,52.15,0,1,1,104.29,0v22.57H534.07c-19.68,0-78.1-15.32-85.48-15.32h-6Z" transform="translate(4.5)"/><path class="cls-13" d="M819.08,1150.56v19.72H943.45v-19.72a62.19,62.19,0,0,0-124.37,0Z" transform="translate(4.5)"/><path class="cls-13" d="M432.55,1150.56v4.4h16c7.37,0,65.8,15.32,85.47,15.32h22.85v-19.72a62.18,62.18,0,1,0-124.37,0Z" transform="translate(4.5)"/><path d="M829.12,1147.71a52.15,52.15,0,0,1,104.29,0v22.57H829.12Z" transform="translate(4.5)"/><path class="cls-16" d="M881.46,1175.78a27.19,27.19,0,1,1,27.19-27.19A27.19,27.19,0,0,1,881.46,1175.78Z" transform="translate(4.5)"/><path class="cls-17" d="M853.46,1154.3a28.36,28.36,0,0,0,3.69,9.28l3.67-1.94,14.42-7.61a8.82,8.82,0,0,0,4,2.78l-2.11,15.82-.54,4.11a28.35,28.35,0,0,0,4.84.41,28.71,28.71,0,0,0,5-.45l-.37-4.14-1.42-15.67a8.87,8.87,0,0,0,4.18-2.77l13.47,7.11,3.66,1.93a28.42,28.42,0,0,0,3.48-9.13l-4-1.09L891,1149c0-.21,0-.43,0-.65a8.85,8.85,0,0,0-1.92-5.51l9.15-12,2.52-3.32a28.84,28.84,0,0,0-8.28-5.3l-1.72,3.77-6.3,13.8a8.55,8.55,0,0,0-2.34-.32,8.81,8.81,0,0,0-3,.53l-7.42-13.79-2-3.66a28.54,28.54,0,0,0-8.22,5.63l2.72,3.13,10.52,12.1a8.86,8.86,0,0,0-1.52,5c0,.2,0,.4,0,.6l-15.76,4.24Z" transform="translate(4.5)"/><path class="cls-18" d="M857.47,1153.21a24.2,24.2,0,0,0,3.35,8.43l14.42-7.61a8.82,8.82,0,0,0,4,2.78l-2.11,15.82a24.18,24.18,0,0,0,4.29.38,23.75,23.75,0,0,0,4.67-.45l-1.42-15.67a8.87,8.87,0,0,0,4.18-2.77l13.47,7.11a24.13,24.13,0,0,0,3.13-8.29L891,1149c0-.21,0-.43,0-.65a8.85,8.85,0,0,0-1.92-5.51l9.15-12a24.44,24.44,0,0,0-7.48-4.85l-6.3,13.8a8.55,8.55,0,0,0-2.34-.32,8.81,8.81,0,0,0-3,.53l-7.42-13.79a24.52,24.52,0,0,0-7.47,5.1l10.52,12.1a8.86,8.86,0,0,0-1.52,5c0,.2,0,.4,0,.6Z" transform="translate(4.5)"/><circle class="cls-9" cx="886.32" cy="1148.39" r="5.86"/><circle class="cls-19" cx="886.32" cy="1143.99" r="1.72"/><circle class="cls-19" cx="886.32" cy="1152.79" r="1.72"/><circle class="cls-19" cx="890.72" cy="1148.39" r="1.72"/><circle class="cls-19" cx="881.92" cy="1148.39" r="1.72"/><path class="cls-19" d="M835.7,1148.58a45.75,45.75,0,1,0,45.76-45.76A45.75,45.75,0,0,0,835.7,1148.58Zm16.47,0a29.28,29.28,0,1,1,29.29,29.28A29.28,29.28,0,0,1,852.17,1148.58Z" transform="translate(4.5)"/><g class="cls-20"><path class="cls-21" d="M846.06,1148.58a35.4,35.4,0,1,0,35.4-35.4A35.4,35.4,0,0,0,846.06,1148.58Zm6.11,0a29.28,29.28,0,1,1,29.29,29.28A29.28,29.28,0,0,1,852.17,1148.58Z" transform="translate(4.5)"/></g><path class="cls-22" d="M849.45,1148.58a32,32,0,1,0,32-32A32,32,0,0,0,849.45,1148.58Zm4.82,0a27.19,27.19,0,1,1,27.2,27.2A27.19,27.19,0,0,1,854.26,1148.58Z" transform="translate(4.5)"/><path class="cls-9" d="M851.75,1148.58a29.71,29.71,0,1,0,29.71-29.71A29.71,29.71,0,0,0,851.75,1148.58Zm2.51,0a27.19,27.19,0,1,1,27.2,27.2A27.19,27.19,0,0,1,854.26,1148.58Z" transform="translate(4.5)"/><path class="cls-16" d="M494.74,1175.78a27.19,27.19,0,1,1,27.19-27.19A27.19,27.19,0,0,1,494.74,1175.78Z" transform="translate(4.5)"/><path class="cls-17" d="M466.74,1154.3a28.36,28.36,0,0,0,3.69,9.28l3.67-1.94,14.42-7.61a8.82,8.82,0,0,0,4,2.78l-2.11,15.82-.54,4.11a28.35,28.35,0,0,0,4.84.41,28.71,28.71,0,0,0,5-.45l-.37-4.14L498,1156.87a8.87,8.87,0,0,0,4.18-2.77l13.47,7.11,3.66,1.93a28.42,28.42,0,0,0,3.48-9.13l-4-1.09L504.26,1149c0-.21,0-.43,0-.65a8.85,8.85,0,0,0-1.92-5.51l9.15-12,2.52-3.32a28.84,28.84,0,0,0-8.28-5.3L504,1126l-6.3,13.8a8.55,8.55,0,0,0-2.34-.32,8.81,8.81,0,0,0-3,.53L485,1126.21l-2-3.66a28.54,28.54,0,0,0-8.22,5.63l2.72,3.13L488,1143.4a8.86,8.86,0,0,0-1.52,5c0,.2,0,.4,0,.6l-15.76,4.24Z" transform="translate(4.5)"/><path class="cls-18" d="M470.76,1153.21a24.2,24.2,0,0,0,3.35,8.43l14.42-7.61a8.82,8.82,0,0,0,4,2.78l-2.11,15.82a24.18,24.18,0,0,0,4.29.38,23.75,23.75,0,0,0,4.67-.45L498,1156.87a8.87,8.87,0,0,0,4.18-2.77l13.47,7.11a24.14,24.14,0,0,0,3.13-8.29L504.26,1149c0-.21,0-.43,0-.65a8.85,8.85,0,0,0-1.92-5.51l9.15-12A24.44,24.44,0,0,0,504,1126l-6.3,13.8a8.55,8.55,0,0,0-2.34-.32,8.81,8.81,0,0,0-3,.53L485,1126.21a24.52,24.52,0,0,0-7.47,5.1L488,1143.4a8.86,8.86,0,0,0-1.52,5c0,.2,0,.4,0,.6Z" transform="translate(4.5)"/><circle class="cls-9" cx="499.6" cy="1148.39" r="5.86"/><circle class="cls-19" cx="499.6" cy="1143.99" r="1.72"/><circle class="cls-19" cx="499.6" cy="1152.79" r="1.72"/><circle class="cls-19" cx="504" cy="1148.39" r="1.72"/><circle class="cls-19" cx="495.2" cy="1148.39" r="1.72"/><path class="cls-19" d="M449,1148.58a45.75,45.75,0,1,0,45.76-45.76A45.75,45.75,0,0,0,449,1148.58Zm16.47,0a29.28,29.28,0,1,1,29.29,29.28A29.28,29.28,0,0,1,465.46,1148.58Z" transform="translate(4.5)"/><g class="cls-20"><path class="cls-21" d="M459.34,1148.58a35.4,35.4,0,1,0,35.4-35.4A35.4,35.4,0,0,0,459.34,1148.58Zm6.11,0a29.28,29.28,0,1,1,29.29,29.28A29.28,29.28,0,0,1,465.46,1148.58Z" transform="translate(4.5)"/></g><path class="cls-22" d="M462.73,1148.58a32,32,0,1,0,32-32A32,32,0,0,0,462.73,1148.58Zm4.82,0a27.19,27.19,0,1,1,27.2,27.2A27.19,27.19,0,0,1,467.55,1148.58Z" transform="translate(4.5)"/><path class="cls-9" d="M465,1148.58a29.71,29.71,0,1,0,29.71-29.71A29.71,29.71,0,0,0,465,1148.58Zm2.51,0a27.19,27.19,0,1,1,27.2,27.2A27.19,27.19,0,0,1,467.55,1148.58Z" transform="translate(4.5)"/><path class="cls-40" d="M705.33,1170.27H534.06c-19.67,0-78.1-15.32-85.47-15.32H404.32c-6.38,0-18.64-5-23.39-19.63s-4.13-25.63-3.25-28.14,6.76-3.25,6.76-10.25c0-2,.36-6.57.9-12.21.18-1.77.37-3.66.57-5.61.28-2.82,1.83-5.36,2.14-8.3.59-5.31,0-11,.5-15.34.57-4.72,1-8.36,1.26-9.81a45.19,45.19,0,0,1,1.27-7.43c1.38-4.29,4.75-8.21,14.36-8.21,15.39,0,34.89.51,42.64-1.62,6.38-1.75,50.3-22.93,74.22-33.75Z" transform="translate(4.5)"/><path class="cls-40" d="M636.89,957.38H280.56l-4.94,13.84-8.4,23.54H232V649.22a19.5,19.5,0,0,1,19.5-19.5H352.26L373.31,654Z" transform="translate(4.5)"/></g><g id="map"><g class="cls-56"><image width="779" height="589" transform="translate(1602.38 641.71) rotate(-4.53) scale(1.05)" xlink:href="other images/europe.png"/></g><path class="cls-57" d="M1778.64,1071.54c0,14-25.39,47.23-25.39,47.23s-25.39-33.21-25.39-47.23a25.39,25.39,0,0,1,50.77,0Z" transform="translate(4.5)"/></g></g></svg>