<?xml version="1.0" encoding="utf-8"?>
<!-- Generator: Adobe Illustrator 21.0.0, SVG Export Plug-In . SVG Version: 6.00 Build 0)  -->
<svg version="1.1" id="Layer_1" xmlns="http://www.w3.org/2000/svg" xmlns:xlink="http://www.w3.org/1999/xlink" x="0px" y="0px"
	 viewBox="0 0 1400 980" style="enable-background:new 0 0 1400 980;" xml:space="preserve">
<style type="text/css">
	.st0{clip-path:url(#SVGID_2_);}
	.st1{fill:#E7F5F5;}
	.st2{opacity:0.26;fill:#E7F5F5;enable-background:new    ;}
	.st3{fill:#BAD3E4;}
	.st4{fill:#ADC6D6;}
	.st5{fill:#F47850;}
	.st6{fill:#F47850;enable-background:new    ;}
	.st7{fill:#B4A9AA;}
	.st8{fill:#999290;}
	.st9{fill:#F1E8E8;enable-background:new    ;}
	.st10{fill:#684737;}
	.st11{fill:#AE8B69;}
	.st12{fill:#907457;}
	.st13{fill:#FAF17D;}
	.st14{fill:#6BBCAE;}
	.st15{fill:#6BBCAE;enable-background:new    ;}
	.st16{fill:#513728;}
	.st17{fill:#93371F;}
	.st18{fill:#AA7B59;}
	.st19{fill:#5D422C;}
	.st20{fill:#B9B3AE;}
	.st21{fill:#31384B;}
	.st22{fill:#CDB0A4;}
	.st23{fill:#585959;}
	.st24{fill:#080D35;}
	.st25{fill:#FAEAD6;}
	.st26{fill:#FFFFFF;}
	.st27{opacity:0.6;fill:#AA7B59;enable-background:new    ;}
	.st28{opacity:0.49;fill:#181E48;enable-background:new    ;}
	.st29{fill:#363E44;}
	.st30{fill:#2D3439;}
	.st31{fill:#4D4440;}
	.st32{fill:#B7DEC6;}
	.st33{fill:#796A65;}
	.st34{fill:#919396;}
	.st35{fill:#5EAD46;}
	.st36{fill:#BFE3E3;}
	.st37{fill:#80B66C;}
	.st38{fill:#FDF27A;}
	.st39{fill:#413835;}
	.st40{fill:#8B896F;}
	.st41{fill:#CDB0A4;enable-background:new    ;}
	.st42{fill:#F47D4F;}
	.st43{fill:#A84530;}
	.st44{fill:#C8543D;}
	.st45{fill:#B15A37;}
	.st46{fill:#BFE3E3;enable-background:new    ;}
	.st47{fill:#613414;}
	.st48{fill:#6B3A16;}
	.st49{fill:#704929;}
	.st50{fill:url(#XMLID_2_);}
	.st51{fill:#455063;}
	.st52{fill:#556077;}
	.st53{fill:#454956;}
	.st54{fill:#565454;}
	.st55{opacity:0.79;fill:#BBBBBB;}
	.st56{opacity:0.46;fill:#BBBBBB;}
	.st57{fill:#BCBCBC;}
	.st58{fill:#1C1C1C;}
	.st59{opacity:0.77;fill:#BBBBBB;}
	.st60{fill:#FFA31F;}
	.st61{fill:#231F20;}
	.st62{fill:#9D9D9D;}
	.st63{fill:#E5E6E7;}
	.st64{fill:#333333;}
	.st65{opacity:0.67;}
	.st66{fill:#BBBBBB;}
	.st67{fill:#D0D2D3;}
	.st68{fill:#3D3D3D;}
	.st69{fill:#BEBEBE;}
	.st70{fill:#545454;}
	.st71{fill:#FBBF2E;}
	.st72{fill:#DC4747;}
	.st73{fill:#9A4E4E;}
	.st74{fill:#BBBDBF;}
	.st75{fill:#010101;}
	.st76{fill:#818181;}
	.st77{fill:#28211F;}
	.st78{fill:#DFDBDB;}
	.st79{opacity:0.51;fill:#A4A4A4;}
	.st80{fill:#383838;}
	.st81{fill:#7C7C7C;}
	.st82{fill:#686868;}
	.st83{opacity:0.32;fill:#A4A4A4;}
	.st84{opacity:0.38;fill:#A4A4A4;}
	.st85{fill:#565656;}
	.st86{fill:#3F3F3F;}
	.st87{opacity:0.75;fill:#A4A4A4;}
	.st88{fill:#7C7B7A;}
	.st89{fill:#A4A4A4;}
	.st90{fill:#00A451;}
	.st91{fill:#161616;}
	.st92{fill:#C0C5D0;}
</style>
<g>
	<g>
		<defs>
			<rect id="SVGID_1_" x="1424" width="2478.2" height="1394.1"/>
		</defs>
		<clipPath id="SVGID_2_">
			<use xlink:href="#SVGID_1_"  style="overflow:visible;"/>
		</clipPath>
		<g class="st0">
			<rect x="1420" y="414.1" class="st1" width="1400" height="745.9"/>
			<path class="st2" d="M3903.7,28.2c-3.5,11.1-2179.3,71.7-2179.3,71.7l2179.3,16.2V28.2z"/>
			<path class="st2" d="M1310.2,125.8c3.5,15.8,2179.3,101.9,2179.3,101.9l-2179.3,22.9V125.8z"/>
			<path class="st2" d="M3905.8,261.6c-3.5,11.1-2179.3,71.7-2179.3,71.7l2179.3,16.2V261.6z"/>
			<polygon class="st3" points="3942.1,410.8 3808.8,410.8 3808.8,315.1 3719.4,361.3 3719.4,449.3 3674.8,449.3 3674.8,409.8 
				3658.7,396.6 3583.6,396.6 3564,407.6 3564,418 3507,416.5 3507,344.4 3421.1,344.4 3421.1,425.4 3360.4,425.4 3360.4,395.6 
				3280,395.6 3280,496.8 3256.9,496.8 3256.9,422.9 3208.7,368 3208.7,536.3 3197,529.2 3197,436.2 3174.7,414.3 3083.7,414.3 
				3062.1,428.5 3062.1,457.4 3050.8,457.4 3050.8,385.4 2965.1,385.4 2965.1,466.2 2904.4,466.2 2904.4,402 2824,402 2824,497.1 
				2800.7,434.3 2800.7,360.6 2752.5,305.6 2752.5,474 2740.8,466.8 2740.8,373.9 2718.5,351.8 2627.6,351.8 2607,365.5 2607,418 
				2589.1,418 2589.1,322.2 2499.9,368.5 2499.9,456.4 2455.3,456.4 2455.3,416.8 2439.2,403.6 2364.2,403.6 2344.5,414.7 
				2344.5,424.9 2287.3,423.5 2287.3,351.5 2201.7,351.5 2201.7,432.3 2140.9,432.3 2140.9,402.6 2060.6,402.6 2060.6,503.7 
				2037.4,503.7 2037.4,430 1989.2,375 1989.2,543.4 1977.6,536.2 1977.6,443.3 1955.2,421.2 1864.1,421.2 1842.7,435.6 
				1842.7,464.5 1831.3,464.5 1831.3,392.4 1745.5,392.4 1745.5,473.3 1684.8,473.3 1684.8,409.1 1604.4,409.1 1604.4,504 
				1581.2,441.4 1581.2,367.6 1533.1,312.7 1533.1,481 1521.4,473.9 1521.4,380.8 1499.1,358.9 1408.1,358.9 1387.6,372.6 
				1387.6,582.1 1848.9,582.1 1848.9,581.8 2722.8,581.8 2722.8,575.2 3068.3,575.2 3068.3,574.9 3942.3,574.9 			"/>
			<polygon class="st4" points="828.2,490.2 951.4,490.2 951.4,401.7 1033.9,444.4 1033.9,525.6 1075.1,525.6 1075.1,489.2 
				1090,477 1159.2,477 1177.4,487.1 1177.4,496.6 1230.2,495.3 1230.2,428.8 1309.3,428.8 1309.3,503.5 1365.4,503.5 1365.4,476 
				1439.8,476 1439.8,569.5 1461.2,569.5 1461.2,501.3 1505.6,450.5 1505.6,606 1516.4,599.5 1516.4,513.6 1537.1,493.2 
				1621.2,493.2 1641,506.4 1641,533.2 1651.5,533.2 1651.5,466.6 1730.8,466.6 1730.8,541.3 1786.9,541.3 1786.9,482.1 
				1861.1,482.1 1861.1,569.7 1882.5,511.8 1882.5,443.7 1927.1,392.9 1927.1,548.4 1937.7,541.9 1937.7,455.9 1958.4,435.6 
				2042.5,435.6 2061.5,448.3 2061.5,496.8 2077.9,496.8 2077.9,408.3 2160.4,451 2160.4,532.2 2201.7,532.2 2201.7,495.6 
				2216.5,483.5 2285.9,483.5 2304,493.6 2304,503.2 2356.7,501.9 2356.7,435.3 2436,435.3 2436,510 2492.1,510 2492.1,482.5 
				2566.3,482.5 2566.3,576 2587.7,576 2587.7,507.9 2632.3,457.1 2632.3,612.6 2643.1,606 2643.1,520.1 2663.7,499.8 2747.8,499.8 
				2767.6,513 2767.6,539.7 2778.2,539.7 2778.2,473 2857.3,473 2857.3,547.8 2913.4,547.8 2913.4,488.5 2987.8,488.5 2987.8,576.3 
				3009.2,518.4 3009.2,450.2 3053.6,399.5 3053.6,555 3064.4,548.4 3064.4,462.5 3085,442.1 3169.2,442.1 3188.2,454.8 
				3188.2,648.4 2761.9,648.4 2761.9,648.1 1954.5,648.1 1954.5,641.9 1635.4,641.9 1635.4,641.6 828,641.6 			"/>
			<g>
				<rect x="2996.1" y="535.9" class="st5" width="906.5" height="296.2"/>
				<rect x="2996.1" y="535.9" class="st5" width="906.5" height="19.9"/>
				<g>
					<rect x="3130.5" y="307.8" class="st5" width="62.3" height="56.1"/>
					<rect x="3150.3" y="313.1" class="st6" width="42.7" height="10"/>
					<rect x="3132.4" y="337.3" class="st6" width="23.7" height="10"/>
				</g>
				<polygon class="st7" points="3900.1,351.8 3479.2,351.8 3419.4,351.8 2998.6,351.8 2946.2,535.9 3419.4,535.9 3479.2,535.9 
					3952.4,535.9 				"/>
				<rect x="2946.2" y="535.9" class="st8" width="1006.2" height="8"/>
				<rect x="3035.9" y="473.9" class="st9" width="77.2" height="10"/>
				<rect x="3373.3" y="418.8" class="st9" width="77.2" height="10"/>
				<rect x="3820.3" y="505.9" class="st9" width="77.2" height="10"/>
				<rect x="3743.1" y="373.9" class="st9" width="77.2" height="10"/>
				<g>
					<rect x="3369.6" y="635.9" class="st10" width="161.6" height="196.2"/>
					<rect x="3377.9" y="646" class="st11" width="145.2" height="186.1"/>
					<g>
						<g>
							<rect x="3390.3" y="657.4" class="st12" width="52.2" height="164.7"/>
							<rect x="3458.5" y="657.4" class="st12" width="52.2" height="164.7"/>
						</g>
					</g>
					<ellipse class="st13" cx="3396.9" cy="740" rx="5" ry="4"/>
					<rect x="3369.6" y="589.9" class="st10" width="161.6" height="36"/>
					<rect x="3377.9" y="596.6" class="st14" width="145.2" height="22.6"/>
					<polygon class="st15" points="3474.8,596.6 3380.8,619.3 3421.7,619.3 3484.5,596.6 					"/>
					<polygon class="st15" points="3490.7,596.6 3435.3,619.3 3449.4,619.3 3494.2,596.6 					"/>
				</g>
				<g>
					<rect x="3148" y="635.9" class="st10" width="107.1" height="114.8"/>
					<g>
						<g>
							<rect x="3154.5" y="640.6" class="st14" width="43.4" height="50.5"/>
							<rect x="3154.5" y="695.5" class="st14" width="43.4" height="50.5"/>
							<rect x="3205" y="640.6" class="st14" width="43.4" height="50.5"/>
							<rect x="3205" y="695.5" class="st14" width="43.4" height="50.5"/>
						</g>
					</g>
					<rect x="3130.5" y="749.4" class="st16" width="142" height="8"/>
					<polygon class="st15" points="3185.3,640.6 3154.5,691.1 3163.7,691.1 3187.5,640.6 					"/>
					<polygon class="st15" points="3240.9,695.5 3210.3,746 3219.3,746 3243.2,695.5 					"/>
					<polygon class="st15" points="3190.5,640.6 3171,691.1 3176.3,691.1 3191.9,640.6 					"/>
					<polygon class="st15" points="3236.7,695.5 3205,741.9 3205,729.9 3233.8,695.5 					"/>
				</g>
				<g>
					<rect x="3665.8" y="635.9" class="st10" width="107.1" height="114.8"/>
					<g>
						<g>
							<rect x="3672.5" y="640.6" class="st14" width="43.4" height="50.5"/>
							<rect x="3672.5" y="695.5" class="st14" width="43.4" height="50.5"/>
							<rect x="3722.8" y="640.6" class="st14" width="43.4" height="50.5"/>
							<rect x="3722.8" y="695.5" class="st14" width="43.4" height="50.5"/>
						</g>
					</g>
					<rect x="3648.4" y="749.4" class="st16" width="142" height="8"/>
					<polygon class="st15" points="3703.1,640.6 3672.5,691.1 3681.5,691.1 3705.4,640.6 					"/>
					<polygon class="st15" points="3758.7,695.5 3728.1,746 3737.3,746 3761,695.5 					"/>
					<polygon class="st15" points="3708.2,640.6 3689,691.1 3694.1,691.1 3709.8,640.6 					"/>
					<polygon class="st15" points="3754.4,695.5 3722.8,741.9 3722.8,729.9 3751.6,695.5 					"/>
				</g>
				<rect x="3876.2" y="571" class="st17" width="29.6" height="251.1"/>
				<rect x="2992.7" y="571" class="st17" width="29.6" height="251.1"/>
			</g>
			<g>
				<rect x="1228.6" y="533.3" class="st5" width="906.5" height="296.2"/>
				<rect x="1228.6" y="533.3" class="st5" width="906.5" height="19.9"/>
				<g>
					<rect x="1362.9" y="305.1" class="st5" width="62.3" height="56.1"/>
					<rect x="1382.6" y="310.4" class="st6" width="42.7" height="10"/>
					<rect x="1364.9" y="334.7" class="st6" width="23.7" height="10"/>
				</g>
				<polygon class="st7" points="2132.4,349.1 1711.7,349.1 1651.8,349.1 1231.1,349.1 1178.7,533.3 1651.8,533.3 1711.7,533.3 
					2184.8,533.3 				"/>
				<rect x="1178.7" y="533.3" class="st8" width="1006.2" height="8"/>
				<rect x="1268.4" y="471.2" class="st9" width="77.2" height="10"/>
				<rect x="1605.8" y="416.2" class="st9" width="77.2" height="10"/>
				<rect x="2052.8" y="503.3" class="st9" width="77.2" height="10"/>
				<rect x="1975.6" y="371.2" class="st9" width="77.2" height="10"/>
				<g>
					<rect x="1602.1" y="633.3" class="st10" width="161.6" height="196.2"/>
					<rect x="1610.4" y="643.3" class="st11" width="145.2" height="186.1"/>
					<g>
						<g>
							<rect x="1622.8" y="654.7" class="st12" width="52.2" height="164.7"/>
							<rect x="1691" y="654.7" class="st12" width="52.2" height="164.7"/>
						</g>
					</g>
					<ellipse class="st13" cx="1629.4" cy="737.3" rx="5" ry="4"/>
					<rect x="1602.1" y="587.2" class="st10" width="161.6" height="36"/>
					<rect x="1610.4" y="593.9" class="st14" width="145.2" height="22.6"/>
					<polygon class="st15" points="1707.2,593.9 1613.2,616.6 1654.1,616.6 1717,593.9 					"/>
					<polygon class="st15" points="1723,593.9 1667.8,616.6 1681.9,616.6 1726.7,593.9 					"/>
				</g>
				<g>
					<rect x="1380.5" y="633.3" class="st10" width="107.1" height="114.8"/>
					<g>
						<g>
							<rect x="1387" y="637.9" class="st14" width="43.4" height="50.5"/>
							<rect x="1387" y="692.9" class="st14" width="43.4" height="50.5"/>
							<rect x="1437.5" y="637.9" class="st14" width="43.4" height="50.5"/>
							<rect x="1437.5" y="692.9" class="st14" width="43.4" height="50.5"/>
						</g>
					</g>
					<rect x="1362.9" y="746.7" class="st16" width="142" height="8"/>
					<polygon class="st15" points="1417.8,637.9 1387,688.4 1396.2,688.4 1419.9,637.9 					"/>
					<polygon class="st15" points="1473.4,692.9 1442.8,743.3 1451.8,743.3 1475.7,692.9 					"/>
					<polygon class="st15" points="1423,637.9 1403.5,688.4 1408.8,688.4 1424.4,637.9 					"/>
					<polygon class="st15" points="1469,692.9 1437.5,739.2 1437.5,727.2 1466.3,692.9 					"/>
				</g>
				<g>
					<rect x="1898.2" y="633.3" class="st10" width="107.1" height="114.8"/>
					<g>
						<g>
							<rect x="1904.8" y="637.9" class="st14" width="43.4" height="50.5"/>
							<rect x="1904.8" y="692.9" class="st14" width="43.4" height="50.5"/>
							<rect x="1955.2" y="637.9" class="st14" width="43.4" height="50.5"/>
							<rect x="1955.2" y="692.9" class="st14" width="43.4" height="50.5"/>
						</g>
					</g>
					<rect x="1880.7" y="746.7" class="st16" width="142" height="8"/>
					<polygon class="st15" points="1935.6,637.9 1904.8,688.4 1914,688.4 1937.7,637.9 					"/>
					<polygon class="st15" points="1991.2,692.9 1960.6,743.3 1969.6,743.3 1993.5,692.9 					"/>
					<polygon class="st15" points="1940.7,637.9 1921.3,688.4 1926.6,688.4 1942.1,637.9 					"/>
					<polygon class="st15" points="1986.9,692.9 1955.2,739.2 1955.2,727.2 1984.1,692.9 					"/>
				</g>
				<rect x="2108.7" y="568.3" class="st17" width="29.6" height="251.1"/>
				<rect x="1225.2" y="568.3" class="st17" width="29.6" height="251.1"/>
			</g>
			<rect x="1419.4" y="555.9" class="st18" width="2518.1" height="461.3"/>
			<rect x="1419.4" y="949.3" class="st19" width="2518.1" height="68"/>
			<path class="st20" d="M2070.3,1034.8h-77c-3.6,0-6.4,2.5-6.4,5.5v15.3c0,3,2.9,5.5,6.4,5.5h77c3.6,0,6.4-2.5,6.4-5.5v-15.3
				C2076.7,1037.2,2073.8,1034.8,2070.3,1034.8z"/>
			<path class="st20" d="M2138.7,995.7h-77c-3.6,0-6.4,2.5-6.4,5.5v15.3c0,3,2.9,5.5,6.4,5.5h77c3.6,0,6.4-2.5,6.4-5.5v-15.3
				C2145.1,998.1,2142.2,995.7,2138.7,995.7z"/>
			<path class="st21" d="M4044.4,542.7h-60h-60h-60h-60h-60h-59.8h-60h-60h-60h-60h-60h-60h-60h-59.7h-60h-60h-60h-60h-60h-0.7
				h-59.3h-0.7h-59.3h-0.7h-59.3h-0.7h-59.1h-0.7h-59.3h-0.7h-60h-60h-60h-60h-60h-60h-60h-60h-60h-60h-59.7h-60h-60h-60h-60h-60
				h-59.8h-60h-60h-60v84.2c0,4.6,13.5,8.3,29.9,8.3c16.6,0,29.9-3.7,29.9-8.3c0-4.6,13.5-8.3,29.9-8.3c16.5,0,29.9,3.7,29.9,8.3
				c0,4.6,13.5,8.3,29.9,8.3c16.6,0,29.9-3.7,29.9-8.3c0-4.6,13.5-8.3,29.9-8.3c16.5,0,29.9,3.7,29.9,8.3c0,4.6,13.5,8.3,29.9,8.3
				s29.9-3.7,29.9-8.3c0-4.6,13.5-8.3,29.9-8.3c16.5,0,29.9,3.7,29.9,8.3c0,4.6,13.5,8.3,29.9,8.3c16.5,0,29.9-3.7,29.9-8.3
				c0-4.6,13.5-8.3,29.9-8.3c16.6,0,29.9,3.7,29.9,8.3c0,4.6,13.5,8.3,29.9,8.3c16.5,0,29.9-3.7,29.9-8.3c0-4.6,13.5-8.3,29.9-8.3
				c16.5,0,29.9,3.7,29.9,8.3c0,4.6,13.5,8.3,29.9,8.3c16.5,0,29.9-3.7,29.9-8.3c0-4.6,13.5-8.3,29.9-8.3c16.5,0,29.9,3.7,29.9,8.3
				c0,4.6,13.5,8.3,29.9,8.3c16.6,0,29.9-3.7,29.9-8.3c0-4.6,13.5-8.3,29.9-8.3s29.9,3.7,29.9,8.3c0,4.6,13.5,8.3,29.9,8.3
				c16.6,0,29.9-3.7,29.9-8.3c0-4.6,13.5-8.3,29.9-8.3c16.6,0,29.9,3.7,29.9,8.3c0,4.6,13.5,8.3,29.9,8.3s29.9-3.7,29.9-8.3
				c0-4.6,13.5-8.3,29.9-8.3s29.9,3.7,29.9,8.3c0,4.6,13.5,8.3,29.9,8.3c16.5,0,29.9-3.7,29.9-8.3c0-4.6,13.5-8.3,29.9-8.3
				s29.9,3.7,29.9,8.3c0,4.6,13.5,8.3,29.9,8.3c0.2,0,0.2,0,0.4,0c0.2,0,0.2,0,0.4,0c16.6,0,29.9-3.7,29.9-8.3
				c0-4.6,13.3-8.1,29.6-8.3c16.5,0,29.6,3.7,29.6,8.3c0,4.6,13.5,8.3,29.9,8.3c0.2,0,0.2,0,0.4,0s0.2,0,0.4,0
				c16.6,0,29.9-3.7,29.9-8.3c0-4.6,13.3-8.1,29.6-8.3c16.5,0,29.6,3.7,29.6,8.3c0,4.6,13.5,8.3,29.9,8.3c0.2,0,0.2,0,0.4,0
				s0.2,0,0.4,0c16.6,0,29.9-3.7,29.9-8.3c0-4.6,13.5-8.3,29.9-8.3s29.9,3.7,29.9,8.3c0,4.6,13.5,8.3,29.9,8.3
				c16.5,0,29.9-3.7,29.9-8.3c0-4.6,13.5-8.3,29.9-8.3c16.6,0,29.9,3.7,29.9,8.3c0,4.6,13.5,8.3,29.9,8.3s29.9-3.7,29.9-8.3
				c0-4.6,13.5-8.3,29.9-8.3c16.5,0,29.9,3.7,29.9,8.3c0,4.6,13.5,8.3,29.9,8.3c16.6,0,29.9-3.7,29.9-8.3c0-4.6,13.5-8.3,29.9-8.3
				c16.5,0,29.9,3.7,29.9,8.3c0,4.6,13.5,8.3,29.9,8.3c16.6,0,29.9-3.7,29.9-8.3c0-4.6,13.5-8.3,29.9-8.3c16.6,0,29.9,3.7,29.9,8.3
				c0,4.6,13.5,8.3,29.9,8.3c16.5,0,29.9-3.7,29.9-8.3c0-4.6,13.5-8.3,29.9-8.3c16.6,0,29.9,3.7,29.9,8.3c0,4.6,13.5,8.3,29.9,8.3
				c16.6,0,29.9-3.7,29.9-8.3c0-4.6,13.5-8.3,29.9-8.3s29.9,3.7,29.9,8.3c0,4.6,13.5,8.3,29.9,8.3s29.9-3.7,29.9-8.3
				c0-4.6,13.5-8.3,29.9-8.3c16.6,0,29.9,3.7,29.9,8.3c0,4.6,13.5,8.3,29.9,8.3c16.6,0,29.9-3.7,29.9-8.3c0-4.6,13.5-8.3,29.9-8.3
				c16.5,0,29.9,3.7,29.9,8.3c0,4.6,13.5,8.3,29.9,8.3c16.6,0,29.9-3.7,29.9-8.3c0-4.6,13.5-8.3,29.9-8.3c16.6,0,29.9,3.7,29.9,8.3
				c0,4.6,13.5,8.3,29.9,8.3c16.5,0,29.9-3.7,29.9-8.3v-84.2H4044.4z"/>
			<rect x="1424" y="1005.9" class="st22" width="2478.2" height="166.9"/>
			<rect x="1275.7" y="1098.5" class="st23" width="2774.9" height="18.8"/>
			<rect x="1424" y="1115.3" class="st24" width="2478.2" height="278.8"/>
			<path class="st25" d="M1680.7,213.5c0,0,8.1-15.6-12.4-22.2c-20.4-6.5-23.7,12.1-23.7,12.1c-43.5-10.4-57.7,18.4-57.7,18.4
				l140,1.7C1725.8,203.7,1680.7,213.5,1680.7,213.5z"/>
			<path class="st25" d="M3450.9,297c0,0-8.1-15.6,12.4-22.2c20.4-6.5,23.7,12.1,23.7,12.1c43.5-10.4,57.7,18.4,57.7,18.4l-140,1.7
				C3405.9,287.2,3450.9,297,3450.9,297z"/>
			<path class="st25" d="M2791.1,106.3c0,0-8.1-15.6,12.4-22.2c20.4-6.5,23.7,12.1,23.7,12.1c43.5-10.4,57.7,18.4,57.7,18.4
				l-140,1.7C2746,96.5,2791.1,106.3,2791.1,106.3z"/>
			<path class="st25" d="M2340.6,322.4c0,0-8.1-15.6,12.4-22.2c20.4-6.5,23.7,12.1,23.7,12.1c43.5-10.4,57.7,18.4,57.7,18.4
				l-140,1.7C2295.5,312.5,2340.6,322.4,2340.6,322.4z"/>
			<rect x="1496.6" y="1291.7" class="st26" width="332.8" height="15.6"/>
			<rect x="2067.1" y="1291.7" class="st26" width="332.8" height="15.6"/>
			<rect x="2637.6" y="1291.7" class="st26" width="332.8" height="15.6"/>
			<rect x="3208" y="1291.7" class="st26" width="332.8" height="15.6"/>
			<rect x="3778.5" y="1291.7" class="st26" width="123.7" height="15.6"/>
			<rect x="3272.4" y="883" class="st27" width="119.3" height="18.6"/>
			<rect x="3072.8" y="836.6" class="st27" width="119.3" height="18.6"/>
			<rect x="1499.4" y="773.5" class="st27" width="119.3" height="18.6"/>
			<rect x="1584.7" y="744.2" class="st27" width="119.3" height="18.6"/>
			<rect x="2137.9" y="567.3" class="st18" width="119.3" height="18.6"/>
			<rect x="2206.1" y="595.9" class="st18" width="119.3" height="18.6"/>
			<rect x="3816.6" y="605.3" class="st18" width="119.3" height="18.6"/>
			<rect x="3534.9" y="605.3" class="st18" width="119.3" height="18.6"/>
			<polygon class="st28" points="1723.1,1250.1 1697,1296.1 2510.7,1291.2 2493.7,1261.6 			"/>
			<g>
				<rect x="2114.3" y="943.4" class="st29" width="44" height="12.2"/>
				<rect x="1868.6" y="943.4" class="st29" width="44" height="12.2"/>
				<path class="st30" d="M2259.3,1239.1c0,0,182.4,5,182.4,3.5s-11.5-88-13-89s-74.9-23.5-78.2-23.5s-50.1,7.5-52.5,10
					c-2.3,2.5-31.8,29.7-31.8,29.7L2259.3,1239.1z"/>
				<polygon class="st30" points="1920.6,1235.4 1772.1,1235.4 1792.2,1158.1 1855.6,1152.6 1906.6,1180.1 				"/>
				<g>
					<circle class="st31" cx="2342.2" cy="1217.3" r="65.7"/>
					<circle class="st32" cx="2342.2" cy="1217.3" r="47.5"/>
					<circle class="st33" cx="2342.2" cy="1217.3" r="44.3"/>
					
						<ellipse transform="matrix(0.7824 -0.6228 0.6228 0.7824 -238.8395 1704.7832)" class="st26" cx="2320.1" cy="1194.2" rx="9.6" ry="5.2"/>
					<circle class="st34" cx="2342.2" cy="1217.3" r="4"/>
					<path class="st26" d="M2342.2,1274.1c31.3,0,56.8-25.5,56.8-56.8c0-31.3-25.5-56.8-56.8-56.8s-56.8,25.5-56.8,56.8
						C2285.4,1248.6,2310.9,1274.1,2342.2,1274.1z M2342.2,1166.1c28.2,0,51.2,23,51.2,51.2c0,28.2-23,51.2-51.2,51.2
						s-51.2-23-51.2-51.2C2291,1189.1,2314,1166.1,2342.2,1166.1z"/>
				</g>
				<g>
					<circle class="st31" cx="1849.4" cy="1225.8" r="57.2"/>
					<circle class="st32" cx="1849.4" cy="1225.8" r="41.4"/>
					<circle class="st33" cx="1849.4" cy="1225.8" r="38.5"/>
					
						<ellipse transform="matrix(0.7824 -0.6228 0.6228 0.7824 -352.6322 1402.1381)" class="st26" cx="1830.1" cy="1205.7" rx="8.3" ry="4.5"/>
					<circle class="st34" cx="1849.4" cy="1225.8" r="3.5"/>
					<path class="st26" d="M1849.4,1275.3c27.3,0,49.5-22.2,49.5-49.5c0-27.3-22.2-49.5-49.5-49.5c-27.3,0-49.5,22.2-49.5,49.5
						C1799.9,1253.1,1822.1,1275.3,1849.4,1275.3z M1849.4,1181.3c24.6,0,44.6,20,44.6,44.6s-20,44.6-44.6,44.6s-44.6-20-44.6-44.6
						S1824.8,1181.3,1849.4,1181.3z"/>
				</g>
				<path class="st35" d="M1729.5,1084.6l79.2-118.1c5.6-8.3,14.9-13.3,24.9-13.3h375.6c2.6,0,5,1.6,6,4l55.2,133c1,2.4,3.4,4,6,4
					h194.9c4.4,0,8.2,3.3,8.8,7.6l9.4,64.4h13.8c2.3,0,4.2,1.9,4.2,4.2v24.3c6.7,0,11.6,6.5,9.7,12.9l-10.5,35.3
					c-1.3,4.3-5.3,7.3-9.8,7.2l-70-1c-5.8-0.1-10.1-5.4-8.8-11.1c1.3-5.8,2-11.8,1.9-18c-0.5-41.8-34.5-76.1-76.3-76.8
					c-43.6-0.8-79.2,34.3-79.2,77.7c0,4.7,0.4,9.3,1.2,13.7c1.1,6.4-3.7,12.2-10.2,12.1l-332.5-4.6c-4.8-0.1-8.7-4-8.5-8.8
					c0-0.7,0-1.4,0-2.1c0-36.4-29.5-65.9-65.9-65.9s-65.9,29.5-65.9,65.9v0.1c0,4.9-3.9,8.8-8.8,8.8l-13.9-0.2l-23.3,0.2
					c-3,0-5.6-1.9-6.5-4.7l-4.7-14.9c-1.3-4.3,1.8-8.7,6.3-8.7l8.1-0.1l-15.3-106.1C1723.6,1098.2,1725.3,1090.8,1729.5,1084.6z"/>
				<path class="st36" d="M1833,958.1c-1.8,0-3.5,0.9-4.6,2.4l-85.7,120.1c-2.7,3.7,0,8.9,4.6,8.9h508.3c2.6,0,4.4-2.6,3.5-5.1
					l-47.8-123.8c-0.6-1.4-1.9-2.4-3.5-2.4"/>
				<path class="st37" d="M2087.6,1107.9v120.4c0,4,3.2,7.2,7.2,7.2h148.4c3.9,0,7.1-3.1,7.2-7l3-122.8c0.1-4.1-3.2-7.5-7.3-7.4
					l-151.4,2.5C2090.8,1100.7,2087.6,1103.9,2087.6,1107.9z"/>
				<path class="st37" d="M2072.4,1103.3l3.1,126.3c0.1,3.2-2.5,5.8-5.7,5.6l-138.5-5.7c-2.5-0.1-4.6-1.9-5.2-4.4l-25.9-124.9
					c-0.7-3.5,2-6.7,5.5-6.6l161.3,4.3C2070,1098,2072.4,1100.3,2072.4,1103.3z"/>
				<polygon class="st35" points="2087.6,1089.4 2077.6,958.1 2071.6,955.6 2071.6,1091.6 2075.5,1096.1 				"/>
				<polygon class="st35" points="1894.1,1098.2 1936.1,955.6 1926.1,955.6 1845.1,1098.2 				"/>
				<path class="st35" d="M1912.6,1120.1h35c1.4,0,2.5-1.1,2.5-2.5l0,0c0-1.4-1.1-2.5-2.5-2.5h-35c-1.4,0-2.5,1.1-2.5,2.5l0,0
					C1910.1,1119,1911.3,1120.1,1912.6,1120.1z"/>
				<path class="st35" d="M2103.5,1122.6h35c1.4,0,2.5-1.1,2.5-2.5l0,0c0-1.4-1.1-2.5-2.5-2.5h-35c-1.4,0-2.5,1.1-2.5,2.5l0,0
					C2101,1121.5,2102.1,1122.6,2103.5,1122.6z"/>
				<path class="st38" d="M2476.7,1134.8c-1.4-14.1,0.5-25.9,4.2-28l7.9,54c-0.5,0.5-1,0.7-1.6,0.8
					C2482.8,1162,2478.2,1150.1,2476.7,1134.8z"/>
				<path class="st39" d="M2517.2,1207.6l-10.5,35.3c-1.3,4.3-5.3,7.3-9.8,7.2l-70-1c-5.8-0.1-10.1-5.4-8.8-11.1
					c1.3-5.8,2-11.8,1.9-18c-0.1-8.9-1.7-17.4-4.6-25.3h92.2C2514.3,1194.7,2519.1,1201.1,2517.2,1207.6z"/>
				<path class="st39" d="M1730.3,1235.4l-4.7-14.9c-1.3-4.3,1.8-8.7,6.3-8.7l8.1-0.1l45.5,0.2c-1.9,6.1-2.9,12.6-2.9,19.3v0.1
					c0,4.9-3.9,8.8-8.8,8.8l-13.9-0.2l-23.3,0.2C1733.8,1240.1,1731.2,1238.2,1730.3,1235.4z"/>
				<path class="st40" d="M2178.8,947.6h-329.7c-5.6,0-9.2-6-6.5-10.9l35.5-64.8c0.9-1.7,2.8-2.7,4.7-2.6l148,9.6
					c16.9,1.1,33.1,7,46.6,17.1l0,0c11,8.1,23.7,13.6,37.1,15.9l53.6,9.4c0.9,0.2,1.7,0.7,2.2,1.6l11.2,20
					C2182.7,945,2181.2,947.6,2178.8,947.6z"/>
			</g>
			<polygon class="st41" points="1489.1,1164.4 1487.2,1158.1 1572.9,1154.3 1569.6,1168.6 			"/>
			<g>
				<rect x="1507.3" y="1059.9" class="st42" width="45.5" height="91.5"/>
				<path class="st43" d="M1555.2,1148.6h-50.3c-1.2,0-2.1,0.9-2.1,2.1v4.5h54.5v-4.5C1557.3,1149.5,1556.3,1148.6,1555.2,1148.6z"
					/>
				<path class="st44" d="M1558.7,1154.3h-57.4c-1.3,0-2.4,1.1-2.4,2.4v5.2h62.2v-5.2C1561.1,1155.4,1560,1154.3,1558.7,1154.3z"/>
				<path class="st45" d="M1553.7,1074.4h-47.4c-0.9,0-1.7,0.8-1.7,1.7s0.8,1.7,1.7,1.7h47.4c0.9,0,1.7-0.8,1.7-1.7
					S1554.7,1074.4,1553.7,1074.4z"/>
				<path class="st44" d="M1536.4,1029.5h-12.7c-0.9,0-1.7,0.8-1.7,1.7v5.3h16.1v-5.3C1538.1,1030.3,1537.3,1029.5,1536.4,1029.5z"
					/>
				<g>
					<path class="st44" d="M1532.1,1023.3h-4.1c-0.4,0-0.7,0.3-0.7,0.7v9c0,0.4,0.3,0.7,0.7,0.7h4.1c0.4,0,0.7-0.3,0.7-0.7v-9
						C1532.7,1023.6,1532.4,1023.3,1532.1,1023.3z"/>
					<rect x="1528.7" y="1023.3" class="st44" width="2.7" height="10.3"/>
				</g>
				<g>
					<g>
						<path class="st44" d="M1563.8,1101.4c4.7-1,8.1-4.9,8.1-9.4l0,0c0-4.5-3.4-8.5-8.1-9.4l-12.1-2.5v12v12L1563.8,1101.4z"/>
						<path class="st44" d="M1572.9,1097.5v-11.2c0-0.4-0.3-0.7-0.7-0.7h-5.2c-0.4,0-0.7,0.3-0.7,0.7v11.2c0,0.4,0.3,0.7,0.7,0.7
							h5.2C1572.6,1098.2,1572.9,1097.9,1572.9,1097.5z"/>
						<path class="st45" d="M1572.5,1098.4v-12.9c0-0.1,0-0.2-0.1-0.2h-0.5c-0.1,0-0.1,0.1-0.1,0.2v12.9c0,0.1,0,0.2,0.1,0.2h0.5
							C1572.4,1098.6,1572.5,1098.5,1572.5,1098.4z"/>
						<path class="st45" d="M1571,1098.4v-12.9c0-0.1,0-0.2-0.1-0.2h-0.5c-0.1,0-0.1,0.1-0.1,0.2v12.9c0,0.1,0,0.2,0.1,0.2h0.5
							C1570.9,1098.6,1571,1098.5,1571,1098.4z"/>
					</g>
					<g>
						<path class="st44" d="M1496.3,1101.4c-4.7-1-8.1-4.9-8.1-9.4l0,0c0-4.5,3.4-8.5,8.1-9.4l12.1-2.5v12v12L1496.3,1101.4z"/>
						<path class="st44" d="M1487.2,1097.5v-11.2c0-0.4,0.3-0.7,0.7-0.7h5.2c0.4,0,0.7,0.3,0.7,0.7v11.2c0,0.4-0.3,0.7-0.7,0.7h-5.2
							C1487.5,1098.2,1487.2,1097.9,1487.2,1097.5z"/>
						<path class="st45" d="M1487.6,1098.4v-12.9c0-0.1,0-0.2,0.1-0.2h0.5c0.1,0,0.1,0.1,0.1,0.2v12.9c0,0.1,0,0.2-0.1,0.2h-0.5
							C1487.6,1098.6,1487.6,1098.5,1487.6,1098.4z"/>
						<path class="st45" d="M1489.1,1098.4v-12.9c0-0.1,0-0.2,0.1-0.2h0.5c0.1,0,0.1,0.1,0.1,0.2v12.9c0,0.1,0,0.2-0.1,0.2h-0.5
							C1489.1,1098.6,1489.1,1098.5,1489.1,1098.4z"/>
					</g>
				</g>
				<path class="st42" d="M1529.4,1032.1c-12.5,0.3-22.1,11.2-22.1,23.7v16.8c0,0.1,0,0.1,0.1,0.1h45.1c0.1,0,0.1,0,0.1-0.1v-17.8
					C1552.7,1042.1,1542.2,1031.8,1529.4,1032.1z"/>
				<path class="st45" d="M1553.7,1069.3h-47.4c-0.9,0-1.7,0.8-1.7,1.7s0.8,1.7,1.7,1.7h47.4c0.9,0,1.7-0.8,1.7-1.7
					S1554.7,1069.3,1553.7,1069.3z"/>
			</g>
			<polygon class="st46" points="2111.5,958.1 2100.2,1089.4 2114.3,1089.4 2116.5,958.1 			"/>
			<polygon class="st46" points="2124,958.1 2124,1089.4 2145.1,1089.4 2128.6,958.1 			"/>
			<polygon class="st46" points="2047,958.1 2044.5,1089.4 2026.5,1089.4 2041.5,958.1 			"/>
			<polygon class="st46" points="2036.8,958.1 2011.8,1089.4 1986.8,1089.4 2029,958.1 			"/>
			<polygon class="st46" points="1897,958.1 1845.1,1089.4 1830.1,1089.4 1893.5,958.1 			"/>
			<polygon class="st46" points="1884,958.1 1823,1089.4 1799.9,1089.4 1879,958.1 			"/>
			<g>
				<g>
					<g>
						<rect x="1404.5" y="536.7" class="st47" width="60" height="84.2"/>
						<ellipse class="st48" cx="1434.6" cy="621" rx="29.9" ry="8.3"/>
						<path class="st49" d="M1464.6,536.7V621c0-4.6,13.5-8.3,29.9-8.3c16.6,0,29.9,3.7,29.9,8.3v-84.2H1464.6z"/>
					</g>
					<g>
						<rect x="1524.6" y="536.7" class="st47" width="60" height="84.2"/>
						<ellipse class="st48" cx="1554.5" cy="621" rx="29.9" ry="8.3"/>
						<path class="st49" d="M1584.6,536.7V621c0-4.6,13.5-8.3,29.9-8.3c16.6,0,29.9,3.7,29.9,8.3v-84.2H1584.6z"/>
					</g>
					<g>
						<rect x="1644.6" y="536.7" class="st47" width="60" height="84.2"/>
						<ellipse class="st48" cx="1674.5" cy="621" rx="29.9" ry="8.3"/>
						<path class="st49" d="M1704.4,536.7V621c0-4.6,13.5-8.3,29.9-8.3c16.6,0,29.9,3.7,29.9,8.3v-84.2H1704.4z"/>
					</g>
					<g>
						<rect x="1764.4" y="536.7" class="st47" width="60" height="84.2"/>
						<ellipse class="st48" cx="1794.5" cy="621" rx="29.9" ry="8.3"/>
						<path class="st49" d="M1824.4,536.7V621c0-4.6,13.5-8.3,29.9-8.3c16.6,0,29.9,3.7,29.9,8.3v-84.2H1824.4z"/>
					</g>
					<g>
						<rect x="1884.4" y="536.7" class="st47" width="60" height="84.2"/>
						<ellipse class="st48" cx="1914.4" cy="621" rx="29.9" ry="8.3"/>
						<path class="st49" d="M1944.4,536.7V621c0-4.6,13.5-8.3,29.9-8.3c16.5,0,29.9,3.7,29.9,8.3v-84.2H1944.4z"/>
					</g>
					<g>
						<rect x="2004.5" y="536.7" class="st47" width="60" height="84.2"/>
						<ellipse class="st48" cx="2034.4" cy="621" rx="29.9" ry="8.3"/>
						<path class="st49" d="M2064.3,536.7V621c0-4.6,13.5-8.3,29.9-8.3c16.6,0,29.9,3.7,29.9,8.3v-84.2H2064.3z"/>
					</g>
					<g>
						<rect x="2124.3" y="536.7" class="st47" width="60" height="84.2"/>
						<ellipse class="st48" cx="2154.4" cy="621" rx="29.9" ry="8.3"/>
						<path class="st49" d="M2184.3,536.7V621c0-4.6,13.5-8.3,29.9-8.3c16.5,0,29.9,3.7,29.9,8.3v-84.2H2184.3z"/>
					</g>
					<g>
						<rect x="2244.3" y="536.7" class="st47" width="60" height="84.2"/>
						<ellipse class="st48" cx="2274.2" cy="621" rx="29.9" ry="8.3"/>
						<path class="st49" d="M2304.3,536.7V621c0-4.6,13.5-8.3,29.9-8.3c16.6,0,29.9,3.7,29.9,8.3v-84.2H2304.3z"/>
					</g>
					<g>
						<rect x="2364.3" y="536.7" class="st47" width="60" height="84.2"/>
						<ellipse class="st48" cx="2394.2" cy="621" rx="29.9" ry="8.3"/>
						<path class="st49" d="M2424.2,536.7V621c0-4.6,13.5-8.3,29.9-8.3c16.6,0,29.9,3.7,29.9,8.3v-84.2H2424.2z"/>
					</g>
					<g>
						<rect x="2484.2" y="536.7" class="st47" width="60" height="84.2"/>
						<ellipse class="st48" cx="2514.3" cy="621" rx="29.9" ry="8.3"/>
						<path class="st49" d="M2544.2,536.7V621c0-4.6,13.5-8.3,29.9-8.3c16.6,0,29.9,3.7,29.9,8.3v-84.2H2544.2z"/>
					</g>
					<g>
						<rect x="2604.2" y="536.7" class="st47" width="60" height="84.2"/>
						<ellipse class="st48" cx="2634.1" cy="621" rx="29.9" ry="8.3"/>
					</g>
					<g>
						<path class="st49" d="M2664.2,536.7V621c0-4.6,13.5-8.3,29.9-8.3s29.9,3.7,29.9,8.3v-84.2H2664.2z"/>
					</g>
					<g>
						<rect x="2724.2" y="536.7" class="st47" width="60" height="84.2"/>
						<ellipse class="st48" cx="2754.1" cy="621" rx="29.9" ry="8.3"/>
					</g>
					<g>
						<path class="st49" d="M2784,536.7V621c0-4.6,13.5-8.3,29.9-8.3c16.5,0,29.9,3.7,29.9,8.3v-84.2H2784z"/>
					</g>
					<g>
						<rect x="2844.1" y="536.7" class="st47" width="60" height="84.2"/>
						<ellipse class="st48" cx="2874.1" cy="621" rx="29.9" ry="8.3"/>
					</g>
				</g>
				<g>
					<g>
						<rect x="2604.9" y="536.7" class="st47" width="60" height="84.2"/>
						<ellipse class="st48" cx="2635" cy="621" rx="29.9" ry="8.3"/>
						<path class="st49" d="M2664.9,536.7V621c0-4.6,13.5-8.3,29.9-8.3s29.9,3.7,29.9,8.3v-84.2H2664.9z"/>
					</g>
					<g>
						<rect x="2724.9" y="536.7" class="st47" width="60" height="84.2"/>
						<ellipse class="st48" cx="2754.8" cy="621" rx="29.9" ry="8.3"/>
						<path class="st49" d="M2784.9,536.7V621c0-4.6,13.5-8.3,29.9-8.3s29.9,3.7,29.9,8.3v-84.2H2784.9z"/>
					</g>
					<g>
						<rect x="2844.9" y="536.7" class="st47" width="60" height="84.2"/>
						<ellipse class="st48" cx="2874.9" cy="621" rx="29.9" ry="8.3"/>
						<path class="st49" d="M2904.8,536.7V621c0-4.6,13.5-8.3,29.9-8.3c16.5,0,29.9,3.7,29.9,8.3v-84.2H2904.8z"/>
					</g>
					<g>
						<rect x="2964.8" y="536.7" class="st47" width="60" height="84.2"/>
						<ellipse class="st48" cx="2994.9" cy="621" rx="29.9" ry="8.3"/>
						<path class="st49" d="M3024.8,536.7V621c0-4.6,13.5-8.3,29.9-8.3c16.6,0,29.9,3.7,29.9,8.3v-84.2H3024.8z"/>
					</g>
					<g>
						<rect x="3084.8" y="536.7" class="st47" width="60" height="84.2"/>
						<ellipse class="st48" cx="3114.7" cy="621" rx="29.9" ry="8.3"/>
						<path class="st49" d="M3144.8,536.7V621c0-4.6,13.5-8.3,29.9-8.3c16.6,0,29.9,3.7,29.9,8.3v-84.2H3144.8z"/>
					</g>
					<g>
						<rect x="3204.8" y="536.7" class="st47" width="60" height="84.2"/>
						<ellipse class="st48" cx="3234.7" cy="621" rx="29.9" ry="8.3"/>
						<path class="st49" d="M3264.6,536.7V621c0-4.6,13.5-8.3,29.9-8.3c16.6,0,29.9,3.7,29.9,8.3v-84.2H3264.6z"/>
					</g>
					<g>
						<rect x="3324.7" y="536.7" class="st47" width="60" height="84.2"/>
						<ellipse class="st48" cx="3354.7" cy="621" rx="29.9" ry="8.3"/>
						<path class="st49" d="M3384.7,536.7V621c0-4.6,13.5-8.3,29.9-8.3s29.9,3.7,29.9,8.3v-84.2H3384.7z"/>
					</g>
					<g>
						<rect x="3444.7" y="536.7" class="st47" width="60" height="84.2"/>
						<ellipse class="st48" cx="3474.6" cy="621" rx="29.9" ry="8.3"/>
						<path class="st49" d="M3504.7,536.7V621c0-4.6,13.5-8.3,29.9-8.3c16.6,0,29.9,3.7,29.9,8.3v-84.2H3504.7z"/>
					</g>
					<g>
						<rect x="3564.7" y="536.7" class="st47" width="60" height="84.2"/>
						<ellipse class="st48" cx="3594.6" cy="621" rx="29.9" ry="8.3"/>
						<path class="st49" d="M3624.5,536.7V621c0-4.6,13.5-8.3,29.9-8.3c16.6,0,29.9,3.7,29.9,8.3v-84.2H3624.5z"/>
					</g>
					<g>
						<rect x="3684.5" y="536.7" class="st47" width="60" height="84.2"/>
						<ellipse class="st48" cx="3714.6" cy="621" rx="29.9" ry="8.3"/>
						<path class="st49" d="M3744.5,536.7V621c0-4.6,13.5-8.3,29.9-8.3c16.6,0,29.9,3.7,29.9,8.3v-84.2H3744.5z"/>
					</g>
					<g>
						<rect x="3804.5" y="536.7" class="st47" width="60" height="84.2"/>
						<ellipse class="st48" cx="3834.5" cy="621" rx="29.9" ry="8.3"/>
					</g>
					<g>
						<path class="st49" d="M3864.6,536.7V621c0-4.6,13.5-8.3,29.9-8.3c16.6,0,29.9,3.7,29.9,8.3v-84.2H3864.6z"/>
					</g>
					<g>
						<rect x="3924.6" y="536.7" class="st47" width="60" height="84.2"/>
						<ellipse class="st48" cx="3954.5" cy="621" rx="29.9" ry="8.3"/>
					</g>
					<g>
						<path class="st49" d="M3984.4,536.7V621c0-4.6,13.5-8.3,29.9-8.3s29.9,3.7,29.9,8.3v-84.2H3984.4z"/>
					</g>
					<g>
						<rect x="4044.4" y="536.7" class="st47" width="60" height="84.2"/>
						<ellipse class="st48" cx="4074.5" cy="621" rx="29.9" ry="8.3"/>
					</g>
				</g>
			</g>
		</g>
	</g>
</g>
<g>
	<linearGradient id="XMLID_2_" gradientUnits="userSpaceOnUse" x1="5184.7783" y1="1072.8578" x2="5184.7783" y2="187.1436">
		<stop  offset="0" style="stop-color:#FFFFFF"/>
		<stop  offset="0.1452" style="stop-color:#CFE3F3"/>
		<stop  offset="0.3814" style="stop-color:#86B9E0"/>
		<stop  offset="0.5935" style="stop-color:#4C98D1"/>
		<stop  offset="0.7738" style="stop-color:#2380C7"/>
		<stop  offset="0.9151" style="stop-color:#0971C0"/>
		<stop  offset="1" style="stop-color:#006CBE"/>
	</linearGradient>
	<rect id="XMLID_1963_" x="3934.8" class="st50" width="2500" height="1400"/>
	<g>
		<polygon class="st51" points="6307.1,1034.1 6307.1,810.2 6297.5,810.2 6297.5,838.5 6269.3,838.5 6269.3,827.9 6262.4,827.9 
			6262.4,820.2 6240.4,820.2 6240.4,838.5 6229.7,838.5 6229.7,820.6 6213.2,820.6 6213.2,833.7 6208,833.7 6208,838.5 
			6198.4,838.5 6198.4,641 6175.7,641 6175.7,615.5 6128.5,615.5 6128.5,636.5 6119.9,636.5 6119.9,612 6072.1,612 6072.1,539.7 
			5884.9,539.7 5884.9,661.7 5859.5,661.7 5859.5,709.6 5809.9,709.6 5809.9,526.9 5801,526.9 5801,518.3 5795.8,518.3 
			5795.8,483.8 5773.5,483.8 5773.5,504.8 5773.5,517.9 5765.2,517.9 5765.2,534.8 5695.4,534.8 5687.5,534.8 5687.5,517.6 
			5643.1,517.6 5643.1,677.9 5627.9,677.9 5627.9,637.2 5610.4,637.2 5610.4,623.1 5586.3,623.1 5586.3,636.9 5572.9,636.9 
			5572.9,658.6 5550.5,658.6 5550.5,631.7 5417.7,631.7 5306.9,631.7 5306.9,610.3 5249.5,610.3 5249.5,549.7 5217.5,549.7 
			5217.5,627.2 5202.3,627.2 5202.3,701.3 5195.1,701.3 5195.1,723.4 5189.6,723.4 5189.6,773.4 5153.5,773.4 5153.5,718.5 
			5153.5,518.3 5033.4,518.3 5033.4,601.4 5011,601.4 5011,729.2 5004.8,729.2 5004.8,652.7 4973.5,652.7 4973.5,731.3 
			4964.2,731.3 4964.2,410.1 4862.4,410.1 4862.4,635.8 4849.3,635.8 4849.3,569.6 4793.6,569.6 4793.6,741.3 4759.5,741.3 
			4759.5,706.8 4741.6,706.8 4741.6,720.3 4688.3,720.3 4688.3,536.9 4610.9,536.9 4610.9,240.8 4585.4,240.8 4585.4,222.2 
			4555.8,222.2 4552.7,49.2 4549.6,222.2 4549.3,222.2 4520.1,222.2 4520.1,238.1 4497.3,238.1 4497.3,669.6 4398.6,669.6 
			4398.6,696.5 4337.4,696.5 4337.4,557.6 4333.2,557.6 4333.2,550 4302.6,524.1 4269.9,548.3 4269.9,556.2 4264.4,556.2 
			4264.4,567.6 4253.4,567.6 4253.4,742.7 4216.2,742.7 4174.3,742.7 4174.3,662.7 4167.4,662.7 4167.4,651.7 4158.1,651.7 
			4158.1,631.3 4097.2,631.3 4097.2,652 4091.7,652 4091.7,660.6 4081.7,660.6 4081.7,710.3 4071.7,710.3 4071.7,791.6 
			4062.5,791.6 4062.5,827.9 4062.5,1034.1 		"/>
		<path class="st52" d="M6393.1,1034.1V914.9h-18.2v-27h-104.7c0,0,1.2,25.5,0,24.2c-1.2-1.3-135.9,0-135.9,0v-70.4h-79.2V657.2
			h-36.4v-20.9h-60v18.4h-36.9v162.8h-7.8v-23.1h-23.9V585.6h9.2v-14.8h-175.9v13.6h7.2c0,0,0,113,0,114.4c0,1.4-42.2,0-42.2,0
			v-17.3h-38.6v17h-22.5v79.9h-34.4v-85.7v-177h-4.7v-13.9h-152.5v212.4h-42v-96.3h-54.7v139.4h-13.3V695h-5.8v-7h-6.4v-8.9
			l-8.9-14.2v-15h-7.8v14.5l-9.4,13.6v9.5h-5.8v5.6h-8.1v62.1h-13.9v15h-12.8v16.4h-5.8v-76.8h-17.5V724h-7.8v50.1h-11.4v109.7h-8.6
			v-52.6h-10.7V788h-6.8v-86h-4.4v-23.1h-31.9v7.5h-10.6v-13.9h-24.4v6.4h-3.9v-14.5h-11.7v15h-34.7v69h-6.4v11.1h-35.8v115.2h-13.9
			V740.7h-73.1v39h-3.9v-12.5h-8.1v-9.7h-6.4v-52.6h-7.8v-17.8H4868v-12.8h-6.9v-27h-6.1v-5.6h-5.6v-16.7h-20.3v16.7h-8.3v37.9
			h-19.2V786h-19.7v82.4h-4.2V734h-23.3v17h-2.8v-5.3h-3.3v-4.5H4738v3.9h-2.8v4.7h-1.9v8.1H4723c0,0,0,92.7,0,94.1
			c0,1.4-18.6,0-18.6,0V688.9H4686v-14.2l-36.7-13.6h-11.7v54h-17.8v-16.7h-38.6v72.1h-11.7v-8.3H4541v91.8h-2.8V710.9h-5v-14.8
			h-6.1v-10.9h-6.4v-8.6h-20.8v9.2h-6.9v8.6h-6.9v14.8h-6.9v146.4h-8.6V746.5h-7.8v-96.9h-6.7v-9.7h-6.7v-9.2l-13.1-17.6h-43.6
			l-15,14.8v10.9h-5.8v9.2h-10.3v95.2h-7.8v101.6h-5.3v-99.1h-30.3V626.3h-10.3v-13.2h-10.1c-4.1-16-18.6-27.7-35.8-27.7
			s-31.7,11.8-35.8,27.7h-1.6h-7.4v12.1h-13.7v203h-18.2h-26.7v-78.7h-128.2v120.7h-54.1v46.7v117.3H6393.1z"/>
		<polygon class="st53" points="6434.8,1034.1 6434.8,1002.9 6229,1002.9 6229,979.5 6122.5,979.5 6122.5,963.8 5994.9,963.8 
			5994.9,949.9 5822,949.9 5822,995.6 5716.7,995.6 5716.7,982.6 5667.6,982.6 5667.6,975.7 5642.7,975.7 5642.7,981.4 
			5636.6,981.4 5636.6,730 5608.6,730 5608.6,712.7 5572.2,712.7 5572.2,728.8 5518.2,728.8 5518.2,672.4 5496.5,672.4 
			5496.5,656.8 5446.3,656.8 5446.3,673.3 5418,673.3 5418,700.4 5361.4,700.4 5361.4,913.1 5263.5,913.1 5251.6,924.6 
			5251.6,989.7 4988.4,989.7 4988.4,980.8 4966.7,980.8 4957.5,974.5 4901.8,974.5 4890.9,980.8 4792.2,980.8 4792.2,962.4 
			4780.1,954.9 4764.6,954.9 4764.6,927.9 4741.6,927.9 4741.6,957 4737,957 4737,928.2 4721.7,928.2 4721.7,960.9 4645.6,960.9 
			4645.6,950.7 4640.1,938.6 4633.4,950.1 4633.4,965.3 4620.7,965.3 4620.7,973.5 4607.5,973.5 4607.5,898.5 4541.8,898.5 
			4541.8,922.3 4528.7,922.3 4528.7,894.8 4510.2,894.8 4510.2,963.2 4462.3,963.2 4462.3,921.3 4451.3,921.3 4451.3,851.7 
			4373,851.7 4373,863.9 4368.8,863.9 4368.8,874.1 4354.6,874.1 4354.6,947.2 4314.3,947.2 4314.3,917.7 4237.5,917.7 
			4237.5,908.5 4214.5,908.5 4214.5,916.5 4205.7,916.5 4205.7,832.3 4184.6,832.3 4184.6,809.8 4177.3,809.8 4177.3,797.7 
			4173.6,797.7 4173.6,787.4 4164.1,787.4 4164.1,797.7 4160.7,797.7 4160.7,809.5 4154.9,809.5 4154.9,817.9 4152.9,817.9 
			4152.9,825.9 4139.4,825.9 4139.4,809.5 4124.2,809.5 4124.2,821.6 4094.9,821.6 4094.9,878 4078.2,878 4078.2,888.1 4073,888.1 
			4073,969 3934.8,969 3934.8,971 3934.8,1026.3 3934.8,1034.1 		"/>
	</g>
	<g>
		<g>
			<polygon points="4185.5,537 4193.5,537 4196.1,526.8 4185.5,526.8 			"/>
			<path class="st54" d="M4019.6,529.9c1.4,4.3,4.9,5.7,6.8,5.7h12.9c2.1,0,19.1,4.5,24.8,4.5H4192c1.7,0,2.7-0.1,3.4-1.5
				c0.8-1.5,0.8-3.1-0.2-3.1h-4.4c-1.4,0-0.4-3.4,0.4-4.7c0.8-1.3,2.8-1.6,4.3-1.8c1.4-0.2,2-0.9,1-6.4c-0.1-0.4-0.2-0.8-0.3-1.3
				c-0.5-2.5-2-4.4-4-6c-0.4-0.3-0.8-0.6-1.2-0.8c-3.4-2.2-8.1-3.7-13.1-5.3c-4.5-1.5-11.1-2.2-16.9-2.8c-0.8-0.1-1.6-0.1-2.4-0.2
				c-4.7-0.4-8.7-0.7-10.2-1.1c-3.6-1-15.5-9.7-24.6-14.8c-9.1-5.1-17.4-4.6-21-4.6c0,0-18,0-21.9,0c-3.9,0-12.3,0.1-16.7,1.9
				c-4.4,1.7-22.8,10.7-25.1,11.3c-2.2,0.6-7.9,0.5-12.4,0.5c-2.8,0-3.8,1.1-4.2,2.4c-0.2,0.8-0.3,1.5-0.4,2.2
				c-0.1,0.4-0.2,1.5-0.4,2.9c-0.2,1.3,0,2.9-0.1,4.5c-0.1,0.9-0.5,1.6-0.6,2.4c-0.1,0.6-0.1,1.1-0.2,1.6c-0.2,1.6-0.3,3-0.3,3.5
				c0,2-1.7,2.2-2,3C4018.4,522.5,4018.3,525.6,4019.6,529.9z"/>
			<path class="st55" d="M4020.9,515.2h7.3c1.6,0,2.9-1.3,2.9-2.9v-7.8c0-1.6-1.3-2.9-2.9-2.9h-5.6c-0.2,0.8-0.3,1.5-0.4,2.2
				c-0.1,0.4-0.2,1.5-0.4,2.9c-0.2,1.3,0,2.9-0.1,4.5c-0.1,0.9-0.5,1.6-0.6,2.4C4021,514.1,4021,514.7,4020.9,515.2z"/>
			<path class="st56" d="M4018.6,524.9c0.1,1.4,0.4,3.1,1.1,5c0.3,1,0.8,1.9,1.3,2.6c1.7,2.3,4.1,3.1,5.5,3.1h12.9
				c2.1,0,19.1,4.5,24.8,4.5H4192c1.7,0,2.7-0.1,3.4-1.5c0.8-1.5,0.8-3.1-0.2-3.1h-4.4c-0.9,0-0.8-1.6-0.3-3
				c0.2-0.7,0.5-1.3,0.8-1.7c0.8-1.3,2.8-1.6,4.3-1.8c1.1-0.2,1.8-0.7,1.4-4.1H4018.6z"/>
			<g>
				<path class="st57" d="M4056.5,504.1c-0.9,1.2-1.3,3.8-0.7,5.5c0.4,1.3,2.5,3.3,5.3,6c1,0.9,2,2,3.2,3.1c3.8,3.8,6,10.1,6.9,12.7
					c0.2,0.5,0.3,0.9,0.4,1.1c0.7,1.6,1.5,2,2.5,2h27.5c0-15.4-1.7-27.4-1.7-27.5l0.3,0c0,0.1,1.7,12.1,1.7,27.5h40.6
					c0.8,0,1.4-0.6,1.5-1.1c0.2-0.7,1.5-10.1,1.8-15.1c0.3-4.9-0.2-6.4-2.9-8.8c-2.6-2.4-12.6-8.4-12.7-8.5l0.2-0.3
					c0.1,0.1,10.1,6.1,12.8,8.5c2.8,2.5,3.3,4.1,3,9.1c-0.3,5-1.6,14.5-1.8,15.2c-0.2,0.7-0.9,1.4-1.8,1.4H4074
					c-1.3,0-2.2-0.6-2.8-2.2c-0.1-0.3-0.2-0.6-0.4-1.1c-0.9-2.6-3-8.8-6.8-12.6c-1.1-1.1-2.2-2.2-3.2-3.1c-2.9-2.8-5-4.8-5.4-6.2
					c-0.6-1.8-0.2-4.6,0.8-5.8L4056.5,504.1z"/>
				<path class="st57" d="M4035.7,509.7c0,1.7,1.3,3,3,3s3-1.3,3-3c0-1.7-1.3-3-3-3S4035.7,508,4035.7,509.7z M4036.1,509.7
					c0-1.5,1.2-2.7,2.7-2.7s2.7,1.2,2.7,2.7c0,1.5-1.2,2.7-2.7,2.7S4036.1,511.2,4036.1,509.7z"/>
			</g>
			<path class="st58" d="M4059.4,508h74.6c2,0,2.8-1.3,2.7-2.2c-0.1-0.9-8.7-7.7-14.5-11.1c-0.6-0.4-1.3-0.7-1.9-1.1v0h0
				c-3.7-1.9-7.7-3.3-10.7-4c-0.7-0.2-1.4-0.3-2-0.4c-0.6-0.1-1.1-0.1-1.6-0.1h-27.7c-6.4,0-21.7,8.1-24,11.5
				C4052.6,502.8,4057.6,508,4059.4,508z"/>
			<path class="st54" d="M4104.4,508c-2.6,0-5.2,0-7.8,0l-2.3-19c1.5,0,2.9,0,4.2,0L4104.4,508z"/>
			<g>
				<path class="st58" d="M4148.5,505c-1.5,0.4-2.7,0.8-3.5,0.8c-1.5,0-2.8-0.4-3.3-0.8c-0.5-0.4-17.9-12.5-19.5-13.6
					c-1.6-1-0.8-2.1,0-2.1c0,0,0.1,0,0.2,0c0.5,0.3,1,0.5,1.5,0.8C4132.9,495.3,4144.8,504,4148.5,505L4148.5,505z"/>
				<path class="st58" d="M4064,487.6c0.3,0.3,0.2,0.8-0.4,1.3c-1.1,0.8-15.5,7.9-17.2,8.8c-1.6,0.8-3.7,0.9-6.4,0.9
					C4044.1,496.9,4059.5,489.4,4064,487.6z"/>
			</g>
			<path class="st59" d="M4180,518.8c2.5,1.9,6.9,3,10.7,3.5c2.5,0.3,4.6,0.6,5.8,0.3c-0.1-0.4-0.2-0.8-0.3-1.3c-0.5-2.5-2-4.4-4-6
				c-0.4-0.3-0.8-0.6-1.2-0.8c-0.4-0.2-0.7-0.4-1-0.5c-2.4-1-9.3-2-12.3-2.5C4172.5,510.6,4177.5,516.9,4180,518.8z"/>
			<path class="st26" d="M4178,512.8c2.3,0.3,7.6,1.1,9.4,1.9c1.8,0.8,6.2,4.8,5.9,5.9c-0.3,1.1-2.5,0.8-5.4,0.5
				c-2.9-0.3-6.3-1.2-8.2-2.6S4174,512.1,4178,512.8z"/>
			<path class="st60" d="M4179.7,518.3c-1.9-1.5-5.7-6.2-1.7-5.6c0.7,0.1,1.6,0.2,2.6,0.4c1.5,1.1,5,4,6.1,7.7
				C4184,520.4,4181.3,519.6,4179.7,518.3z"/>
			<path class="st26" d="M4029.6,505.5v5.9c0,1.2-1,2.2-2.2,2.2h-6.1c0.2-2.3,0.2-4.9,0.5-6.9c0.2-1.4,0.3-2.4,0.4-2.9
				c0-0.2,0-0.3,0.1-0.5h5.2C4028.6,503.3,4029.6,504.3,4029.6,505.5z"/>
			<path class="st60" d="M4029.6,511.4c0,1.2-1,2.2-2.2,2.2h-6.4c0.2-2.3,0.5-4.9,0.8-6.9h7.8V511.4z"/>
			<path class="st56" d="M4020.9,532.5c1.7,2.3,4.1,3.1,5.5,3.1h12.9c2.1,0,19.1,4.5,24.8,4.5H4192c1.7,0,2.7-0.1,3.4-1.5
				c0.8-1.5,0.8-3.1-0.2-3.1h-4.4c-0.9,0-0.8-1.6-0.3-3H4020.9z"/>
			<path d="M4037.5,533.5c0-8.4,6.8-15.2,15.2-15.2s15.2,6.8,15.2,15.2v6.6c-2,0-3.2,0-3.7,0c-5.7,0-22.7-4.5-24.8-4.5
				c-0.4,0-1,0-1.7,0V533.5z"/>
			<path class="st59" d="M4146.9,534.3v5.7h36.1v-5.7c0-10-8.1-18.1-18.1-18.1S4146.9,524.4,4146.9,534.3z"/>
			<path class="st59" d="M4034.6,534.3v1.3h4.7c2.1,0,19.1,4.5,24.8,4.5h6.6v-5.7c0-10-8.1-18.1-18.1-18.1
				S4034.6,524.4,4034.6,534.3z"/>
			<path d="M4149.9,533.5c0-8.4,6.8-15.2,15.2-15.2s15.2,6.8,15.2,15.2v6.6c-7.7,0-18.4,0-30.3,0V533.5z"/>
			<g>
				<path class="st61" d="M4165.1,541.7c-4.4,0-7.9-3.5-7.9-7.9c0-4.4,3.5-7.9,7.9-7.9s7.9,3.5,7.9,7.9
					C4173,538.1,4169.4,541.7,4165.1,541.7z"/>
				<g>
					<path class="st62" d="M4156.9,535.4c0.2,1,0.6,1.9,1.1,2.7l1.1-0.6l4.2-2.2c0.3,0.4,0.7,0.7,1.2,0.8l-0.6,4.6l-0.2,1.2
						c0.5,0.1,0.9,0.1,1.4,0.1c0.5,0,1,0,1.5-0.1l-0.1-1.2l-0.4-4.6c0.5-0.1,0.9-0.4,1.2-0.8l3.9,2.1l1.1,0.6c0.5-0.8,0.8-1.7,1-2.7
						l-1.2-0.3l-4.2-1.1c0-0.1,0-0.1,0-0.2c0-0.6-0.2-1.2-0.6-1.6l2.7-3.5l0.7-1c-0.7-0.6-1.5-1.2-2.4-1.5l-0.5,1.1l-1.8,4
						c-0.2-0.1-0.4-0.1-0.7-0.1c-0.3,0-0.6,0.1-0.9,0.2l-2.2-4l-0.6-1.1c-0.9,0.4-1.7,1-2.4,1.6l0.8,0.9l3.1,3.5
						c-0.3,0.4-0.4,0.9-0.4,1.4c0,0.1,0,0.1,0,0.2l-4.6,1.2L4156.9,535.4z"/>
				</g>
				<path class="st63" d="M4158.1,535.1c0.2,0.9,0.5,1.7,1,2.4l4.2-2.2c0.3,0.4,0.7,0.7,1.2,0.8l-0.6,4.6c0.4,0.1,0.8,0.1,1.2,0.1
					c0.5,0,0.9,0,1.4-0.1l-0.4-4.6c0.5-0.1,0.9-0.4,1.2-0.8l3.9,2.1c0.4-0.7,0.8-1.5,0.9-2.4l-4.2-1.1c0-0.1,0-0.1,0-0.2
					c0-0.6-0.2-1.2-0.6-1.6l2.7-3.5c-0.6-0.6-1.4-1.1-2.2-1.4l-1.8,4c-0.2-0.1-0.4-0.1-0.7-0.1c-0.3,0-0.6,0.1-0.9,0.2l-2.2-4
					c-0.8,0.4-1.5,0.9-2.2,1.5l3.1,3.5c-0.3,0.4-0.4,0.9-0.4,1.4c0,0.1,0,0.1,0,0.2L4158.1,535.1z"/>
				<circle class="st56" cx="4165.2" cy="533.7" r="1.7"/>
				<g>
					<g>
						<circle class="st64" cx="4165.2" cy="532.4" r="0.5"/>
						<circle class="st64" cx="4165.2" cy="535" r="0.5"/>
					</g>
					<g>
						<circle class="st64" cx="4166.4" cy="533.7" r="0.5"/>
						<circle class="st64" cx="4163.9" cy="533.7" r="0.5"/>
					</g>
				</g>
				<g>
					<path class="st64" d="M4151.8,533.8c0,7.3,6,13.3,13.3,13.3c7.3,0,13.3-6,13.3-13.3c0-7.3-6-13.3-13.3-13.3
						C4157.7,520.5,4151.8,526.4,4151.8,533.8z M4156.6,533.8c0-4.7,3.8-8.5,8.5-8.5c4.7,0,8.5,3.8,8.5,8.5c0,4.7-3.8,8.5-8.5,8.5
						C4160.4,542.3,4156.6,538.5,4156.6,533.8z"/>
				</g>
				<g class="st65">
					<path class="st66" d="M4154.8,533.8c0,5.7,4.6,10.3,10.3,10.3c5.7,0,10.3-4.6,10.3-10.3c0-5.7-4.6-10.3-10.3-10.3
						C4159.4,523.5,4154.8,528.1,4154.8,533.8z M4156.6,533.8c0-4.7,3.8-8.5,8.5-8.5c4.7,0,8.5,3.8,8.5,8.5c0,4.7-3.8,8.5-8.5,8.5
						C4160.4,542.3,4156.6,538.5,4156.6,533.8z"/>
				</g>
				<path class="st67" d="M4155.8,533.8c0,5.1,4.2,9.3,9.3,9.3c5.1,0,9.3-4.2,9.3-9.3c0-5.1-4.2-9.3-9.3-9.3
					C4159.9,524.4,4155.8,528.6,4155.8,533.8z M4157.2,533.8c0-4.4,3.5-7.9,7.9-7.9c4.4,0,7.9,3.5,7.9,7.9c0,4.4-3.5,7.9-7.9,7.9
					C4160.7,541.7,4157.2,538.1,4157.2,533.8z"/>
				<path class="st56" d="M4156.4,533.8c0,4.8,3.9,8.6,8.6,8.6c4.8,0,8.6-3.9,8.6-8.6s-3.9-8.6-8.6-8.6
					C4160.3,525.1,4156.4,529,4156.4,533.8z M4157.2,533.8c0-4.4,3.5-7.9,7.9-7.9c4.4,0,7.9,3.5,7.9,7.9c0,4.4-3.5,7.9-7.9,7.9
					C4160.7,541.7,4157.2,538.1,4157.2,533.8z"/>
			</g>
			<g>
				<path class="st61" d="M4052.7,541.7c-4.4,0-7.9-3.5-7.9-7.9c0-4.4,3.5-7.9,7.9-7.9c4.4,0,7.9,3.5,7.9,7.9
					C4060.6,538.1,4057.1,541.7,4052.7,541.7z"/>
				<g>
					<path class="st62" d="M4044.6,535.4c0.2,1,0.6,1.9,1.1,2.7l1.1-0.6l4.2-2.2c0.3,0.4,0.7,0.7,1.2,0.8l-0.6,4.6l-0.2,1.2
						c0.5,0.1,0.9,0.1,1.4,0.1c0.5,0,1,0,1.5-0.1l-0.1-1.2l-0.4-4.6c0.5-0.1,0.9-0.4,1.2-0.8l3.9,2.1l1.1,0.6c0.5-0.8,0.8-1.7,1-2.7
						l-1.2-0.3l-4.2-1.1c0-0.1,0-0.1,0-0.2c0-0.6-0.2-1.2-0.6-1.6l2.7-3.5l0.7-1c-0.7-0.6-1.5-1.2-2.4-1.5l-0.5,1.1l-1.8,4
						c-0.2-0.1-0.4-0.1-0.7-0.1c-0.3,0-0.6,0.1-0.9,0.2l-2.2-4l-0.6-1.1c-0.9,0.4-1.7,1-2.4,1.6l0.8,0.9l3.1,3.5
						c-0.3,0.4-0.4,0.9-0.4,1.4c0,0.1,0,0.1,0,0.2l-4.6,1.2L4044.6,535.4z"/>
				</g>
				<path class="st63" d="M4045.7,535.1c0.2,0.9,0.5,1.7,1,2.4l4.2-2.2c0.3,0.4,0.7,0.7,1.2,0.8l-0.6,4.6c0.4,0.1,0.8,0.1,1.2,0.1
					c0.5,0,0.9,0,1.4-0.1l-0.4-4.6c0.5-0.1,0.9-0.4,1.2-0.8l3.9,2.1c0.4-0.7,0.8-1.5,0.9-2.4l-4.2-1.1c0-0.1,0-0.1,0-0.2
					c0-0.6-0.2-1.2-0.6-1.6l2.7-3.5c-0.6-0.6-1.4-1.1-2.2-1.4l-1.8,4c-0.2-0.1-0.4-0.1-0.7-0.1c-0.3,0-0.6,0.1-0.9,0.2l-2.2-4
					c-0.8,0.4-1.5,0.9-2.2,1.5l3.1,3.5c-0.3,0.4-0.4,0.9-0.4,1.4c0,0.1,0,0.1,0,0.2L4045.7,535.1z"/>
				<circle class="st56" cx="4052.8" cy="533.7" r="1.7"/>
				<g>
					<g>
						<circle class="st64" cx="4052.8" cy="532.4" r="0.5"/>
						<circle class="st64" cx="4052.8" cy="535" r="0.5"/>
					</g>
					<g>
						<circle class="st64" cx="4054.1" cy="533.7" r="0.5"/>
						<circle class="st64" cx="4051.5" cy="533.7" r="0.5"/>
					</g>
				</g>
				<g>
					<path class="st64" d="M4039.4,533.8c0,7.3,6,13.3,13.3,13.3c7.3,0,13.3-6,13.3-13.3c0-7.3-6-13.3-13.3-13.3
						C4045.4,520.5,4039.4,526.4,4039.4,533.8z M4044.2,533.8c0-4.7,3.8-8.5,8.5-8.5c4.7,0,8.5,3.8,8.5,8.5c0,4.7-3.8,8.5-8.5,8.5
						C4048,542.3,4044.2,538.5,4044.2,533.8z"/>
				</g>
				<g class="st65">
					<path class="st66" d="M4042.4,533.8c0,5.7,4.6,10.3,10.3,10.3c5.7,0,10.3-4.6,10.3-10.3c0-5.7-4.6-10.3-10.3-10.3
						C4047,523.5,4042.4,528.1,4042.4,533.8z M4044.2,533.8c0-4.7,3.8-8.5,8.5-8.5c4.7,0,8.5,3.8,8.5,8.5c0,4.7-3.8,8.5-8.5,8.5
						C4048,542.3,4044.2,538.5,4044.2,533.8z"/>
				</g>
				<path class="st67" d="M4043.4,533.8c0,5.1,4.2,9.3,9.3,9.3c5.1,0,9.3-4.2,9.3-9.3c0-5.1-4.2-9.3-9.3-9.3
					C4047.6,524.4,4043.4,528.6,4043.4,533.8z M4044.8,533.8c0-4.4,3.5-7.9,7.9-7.9c4.4,0,7.9,3.5,7.9,7.9c0,4.4-3.5,7.9-7.9,7.9
					C4048.3,541.7,4044.8,538.1,4044.8,533.8z"/>
				<path class="st56" d="M4044.1,533.8c0,4.8,3.9,8.6,8.6,8.6c4.8,0,8.6-3.9,8.6-8.6s-3.9-8.6-8.6-8.6
					C4047.9,525.1,4044.1,529,4044.1,533.8z M4044.8,533.8c0-4.4,3.5-7.9,7.9-7.9c4.4,0,7.9,3.5,7.9,7.9c0,4.4-3.5,7.9-7.9,7.9
					C4048.3,541.7,4044.8,538.1,4044.8,533.8z"/>
			</g>
		</g>
	</g>
	<g>
		<path class="st68" d="M5103.8,514.3v13.8c0,1.7-1.4,3-3,3h-117.6c-0.7,0-1.3-0.2-1.9-0.7l-9.5-7.5c-0.5-0.4-1.2-0.7-1.9-0.7h-34.7
			c-0.5,0-1-0.1-1.5-0.4c-0.9-0.5-1.6-1.5-1.6-2.6c0-0.8,0.3-1.6,0.9-2.1c0.5-0.5,1.3-0.9,2.1-0.9H5050c0.6,0,1.3-0.2,1.8-0.6
			l1.5-1.1l3.7-2.7c0.5-0.4,1.1-0.6,1.8-0.6h42C5102.4,511.3,5103.8,512.7,5103.8,514.3z"/>
		
			<rect x="4937.1" y="516.3" transform="matrix(-1 -1.224647e-16 1.224647e-16 -1 9889.6875 1045.1975)" class="st69" width="15.4" height="12.7"/>
		<path class="st70" d="M5053.3,441.3v73.6c0,2-1.6,3.6-3.6,3.6H4935l-1.2,3.5l-2.1,5.9h-8.8v-86.5c0-2.7,2.2-4.9,4.9-4.9h120.7
			C5051.1,436.4,5053.3,438.6,5053.3,441.3z"/>
		<path class="st64" d="M4953.7,527.3H4936c-0.6,0-1.1,0.5-1.1,1.1v2.8c0,0.6,0.5,1.1,1.1,1.1h17.7c0.6,0,1.1-0.5,1.1-1.1v-2.8
			C4954.8,527.8,4954.3,527.3,4953.7,527.3z"/>
		<path class="st64" d="M4930.4,514.9h117.5c0.5,0,1-0.4,1-1v-0.6c0-0.5-0.4-1-1-1h-117.5c-0.5,0-1,0.4-1,1v0.6
			C4929.4,514.5,4929.9,514.9,4930.4,514.9z"/>
		<path class="st64" d="M4994.8,536h57c1.4,0,2.5-1.1,2.5-2.5v-6.9c0-1.4-1.1-2.5-2.5-2.5h-57c-1.4,0-2.5,1.1-2.5,2.5v6.9
			C4992.3,534.8,4993.4,536,4994.8,536z"/>
		<path class="st64" d="M4930.8,525.1h-7.2c-0.8,0-1.4,0.6-1.4,1.4v4.4c0,0.8,0.6,1.4,1.4,1.4h7.2c0.8,0,1.4-0.6,1.4-1.4v-4.4
			C4932.2,525.7,4931.6,525.1,4930.8,525.1z"/>
		<path class="st68" d="M4922.8,441.3v1.2h130.5v-1.2c0-2.7-2.2-4.9-4.9-4.9h-120.7C4925,436.4,4922.8,438.6,4922.8,441.3z"/>
		<path class="st71" d="M4928.5,440.6h3.8c0.5,0,0.9-0.4,0.9-0.9v-0.5c0-0.5-0.4-0.9-0.9-0.9h-3.8c-0.5,0-0.9,0.4-0.9,0.9v0.5
			C4927.6,440.2,4928,440.6,4928.5,440.6z"/>
		<path class="st72" d="M4925.3,523.7h3.8c0.5,0,0.9-0.4,0.9-0.9v-0.5c0-0.5-0.4-0.9-0.9-0.9h-3.8c-0.5,0-0.9,0.4-0.9,0.9v0.5
			C4924.5,523.3,4924.8,523.7,4925.3,523.7z"/>
		<path class="st71" d="M5044,440.6h3.8c0.5,0,0.9-0.4,0.9-0.9v-0.5c0-0.5-0.4-0.9-0.9-0.9h-3.8c-0.5,0-0.9,0.4-0.9,0.9v0.5
			C5043.1,440.2,5043.5,440.6,5044,440.6z"/>
		<path class="st73" d="M5137.6,510.2v20.6c0,1.9-1.1,3.5-2.7,4.2c-0.6,0.3-1.2,0.4-1.9,0.4h-0.4l-0.2-2l-0.6-5
			c-0.7-5.6-5.1-9.8-10.4-9.8h-10c-2.9,0-5.6,1.3-7.5,3.3c-1.2,1.3-2.2,3-2.6,4.9c-0.1,0.4-0.2,0.7-0.2,1.1l-0.5,3.2l-0.2,1.5
			c-0.3,1.6-1.7,2.8-3.3,2.8h-35v-58.2c0-1.3,1.1-2.3,2.3-2.3l19.5,0.4c1.6,0,3.2,0.6,4.4,1.7l17.4,15.7l6.5,5.8l21.7,6.7
			c1.6,0.4,2.9,1.5,3.5,3c0,0,0,0,0,0C5137.5,508.8,5137.6,509.5,5137.6,510.2z"/>
		<path d="M5111.3,518.6h10c5.3,0,9.8,4.2,10.4,9.8l0.5,4.3h-32.1c0,0,0-0.1,0-0.1l0.8-4.7C5101.8,522.5,5106.2,518.6,5111.3,518.6z
			"/>
		<g>
			<rect x="5060.6" y="476.5" class="st74" width="0" height="56.3"/>
			<path class="st68" d="M5060.6,532.7L5060.6,532.7c-0.7,0-1.3-0.4-1.3-1v-54.3c0-0.5,0.6-1,1.3-1l0,0c0.7,0,1.3,0.4,1.3,1v54.3
				C5061.9,532.3,5061.3,532.7,5060.6,532.7z"/>
		</g>
		<g>
			<path class="st67" d="M5092.6,531.3h-26.7c-0.7,0-1.3-0.3-1.8-0.7c-0.5-0.5-0.7-1.1-0.7-1.8c0-6.3,0.1-27.1,0.1-28.9l-0.1-18.7
				c0-1.2,0.4-2.2,1.1-3c0.8-0.9,1.9-1.4,3.1-1.4h16.2c1.1,0,2.1,0.4,2.9,1.2l20.1,19.1c0.8,0.8,1.3,1.9,1.3,3
				c0,1.8-1.8,16.5-4,17.4c-5.3,2-7.4,7.9-8.2,11.3C5095.6,530.2,5094.2,531.3,5092.6,531.3z M5067.6,477.4c-1,0-2,0.4-2.7,1.2
				c-0.6,0.7-1,1.6-1,2.6l0.1,18.7c0,1.7-0.1,20.8-0.1,28.9c0,0.5,0.2,1,0.6,1.4c0.4,0.4,0.9,0.6,1.4,0.6h26.7
				c1.4,0,2.5-0.9,2.8-2.2c0.8-3.4,3-9.5,8.5-11.7c1.7-0.6,3.7-14.1,3.7-16.8c0-1-0.4-1.9-1.1-2.6l-20.1-19.1c-0.7-0.6-1.6-1-2.5-1
				H5067.6z"/>
		</g>
		<path class="st75" d="M5067.6,478.1h16.2c0.8,0,1.5,0.3,2,0.8L5106,498c0.6,0.5,0.9,1.3,0.9,2.1l0,0c0,1.6-1.3,2.8-2.8,2.8h-36.3
			c-1.6,0-2.9-1.3-2.9-2.9l-0.1-18.9C5064.6,479.4,5066,478.1,5067.6,478.1z"/>
		<path class="st61" d="M5108.2,533.6c0-4.4,3.6-8,8-8c4.4,0,8,3.6,8,8c0,4.4-3.6,8-8,8C5111.8,541.6,5108.2,538,5108.2,533.6z"/>
		<g>
			<path class="st63" d="M5113.4,533.7c0-0.1,0-0.1,0-0.2c0-0.6,0.2-1.2,0.6-1.6l-3.4-4.5c0.7-0.7,1.5-1.2,2.4-1.6l2.4,5.2
				c0.2-0.1,0.5-0.1,0.7-0.1c0.3,0,0.6,0.1,0.9,0.2l2.8-5.1c0.9,0.4,1.7,1,2.4,1.7l-3.9,4.5c0.3,0.4,0.4,0.9,0.4,1.5
				c0,0.1,0,0.1,0,0.2l5.8,1.6c-0.2,1-0.6,1.9-1.1,2.7l-5.3-2.8c-0.3,0.4-0.7,0.7-1.2,0.8l0.8,5.9c-0.5,0.1-0.9,0.1-1.4,0.1
				c-0.5,0-1,0-1.5-0.1l0.5-5.8c-0.5-0.1-0.9-0.4-1.2-0.8l-5,2.7c-0.5-0.8-0.8-1.7-1-2.7L5113.4,533.7z"/>
		</g>
		<g>
			<g>
				<g>
					<circle class="st64" cx="5116.1" cy="532.2" r="0.5"/>
					<circle class="st64" cx="5116.1" cy="534.8" r="0.5"/>
				</g>
				<g>
					<circle class="st64" cx="5114.8" cy="533.5" r="0.5"/>
					<circle class="st64" cx="5117.4" cy="533.5" r="0.5"/>
				</g>
			</g>
			<g>
				<path class="st64" d="M5102.8,533.6c0,7.4,6,13.5,13.5,13.5c7.4,0,13.5-6,13.5-13.5c0-7.4-6-13.5-13.5-13.5
					C5108.8,520.1,5102.8,526.1,5102.8,533.6z M5107.6,533.6c0-4.8,3.9-8.6,8.6-8.6c4.8,0,8.6,3.9,8.6,8.6c0,4.8-3.9,8.6-8.6,8.6
					C5111.5,542.2,5107.6,538.3,5107.6,533.6z"/>
			</g>
		</g>
		<path class="st67" d="M5106.8,533.6c0,5.2,4.2,9.4,9.4,9.4c5.2,0,9.4-4.2,9.4-9.4c0-5.2-4.2-9.4-9.4-9.4
			C5111,524.1,5106.8,528.4,5106.8,533.6z M5108.2,533.6c0-4.4,3.6-8,8-8c4.4,0,8,3.6,8,8c0,4.4-3.6,8-8,8
			C5111.8,541.6,5108.2,538,5108.2,533.6z"/>
		<path class="st61" d="M4962.2,533.6c0-4.4,3.6-8,8-8c4.4,0,8,3.6,8,8c0,4.4-3.6,8-8,8C4965.8,541.6,4962.2,538,4962.2,533.6z"/>
		<g>
			<path class="st63" d="M4967.4,533.7c0-0.1,0-0.1,0-0.2c0-0.6,0.2-1.2,0.6-1.6l-3.4-4.5c0.7-0.7,1.5-1.2,2.4-1.6l2.4,5.2
				c0.2-0.1,0.5-0.1,0.7-0.1c0.3,0,0.6,0.1,0.9,0.2l2.8-5.1c0.9,0.4,1.7,1,2.4,1.7l-3.9,4.5c0.3,0.4,0.4,0.9,0.4,1.5
				c0,0.1,0,0.1,0,0.2l5.8,1.6c-0.2,1-0.6,1.9-1.1,2.7l-5.3-2.8c-0.3,0.4-0.7,0.7-1.2,0.8l0.8,5.9c-0.5,0.1-0.9,0.1-1.4,0.1
				c-0.5,0-1,0-1.5-0.1l0.5-5.8c-0.5-0.1-0.9-0.4-1.2-0.8l-5,2.7c-0.5-0.8-0.8-1.7-1-2.7L4967.4,533.7z"/>
		</g>
		<g>
			<g>
				<g>
					<circle class="st64" cx="4970.1" cy="532.2" r="0.5"/>
					<circle class="st64" cx="4970.1" cy="534.8" r="0.5"/>
				</g>
				<g>
					<circle class="st64" cx="4968.8" cy="533.5" r="0.5"/>
					<circle class="st64" cx="4971.4" cy="533.5" r="0.5"/>
				</g>
			</g>
			<g>
				<path class="st64" d="M4956.8,533.6c0,7.4,6,13.5,13.5,13.5c7.4,0,13.5-6,13.5-13.5c0-7.4-6-13.5-13.5-13.5
					C4962.8,520.1,4956.8,526.1,4956.8,533.6z M4961.6,533.6c0-4.8,3.9-8.6,8.6-8.6c4.8,0,8.6,3.9,8.6,8.6c0,4.8-3.9,8.6-8.6,8.6
					C4965.5,542.2,4961.6,538.3,4961.6,533.6z"/>
			</g>
		</g>
		<path class="st67" d="M4960.8,533.6c0,5.2,4.2,9.4,9.4,9.4c5.2,0,9.4-4.2,9.4-9.4c0-5.2-4.2-9.4-9.4-9.4
			C4965,524.1,4960.8,528.4,4960.8,533.6z M4962.2,533.6c0-4.4,3.6-8,8-8c4.4,0,8,3.6,8,8c0,4.4-3.6,8-8,8
			C4965.8,541.6,4962.2,538,4962.2,533.6z"/>
		<g>
			<path class="st67" d="M5104.1,505.4h-37.5c-0.2,0-0.3-0.1-0.3-0.3l0,0c0-0.2,0.1-0.3,0.3-0.3h37.5c0.2,0,0.3,0.1,0.3,0.3l0,0
				C5104.4,505.3,5104.2,505.4,5104.1,505.4z"/>
		</g>
		<g>
			<path class="st68" d="M5108.4,506h-3.4c-0.4,0-0.7-0.5-0.7-1l0.8-5.4c0.1-0.4,0.3-0.7,0.7-0.7h2.5c2.1,0,3.8,1.6,3.8,3.6l0,0
				C5112.2,504.4,5110.5,506,5108.4,506z"/>
			<path class="st67" d="M5108.4,503.9h-3.4c-0.2,0-0.3-0.1-0.5-0.2l-0.2,1.4c-0.1,0.5,0.2,1,0.7,1h3.4c2.1,0,3.8-1.6,3.8-3.6l0,0
				c0-0.4-0.1-0.7-0.2-1.1C5111.5,502.8,5110.1,503.9,5108.4,503.9z"/>
		</g>
		<path class="st76" d="M5132.6,519.2l5,2v-11c0,0,0,0,0,0h-4.4c-1,0-1.7,0.8-1.7,1.7v5.7C5131.5,518.3,5131.9,518.9,5132.6,519.2z"
			/>
		<path class="st26" d="M5132.5,511.9v5.7c0,0.3,0.2,0.6,0.6,0.7l1.1,0.3l2.4,0.7c0.7,0.2,1.3-0.3,1.3-1v-6.1c0-0.6-0.5-1-1-1h-3.5
			C5132.9,511.1,5132.5,511.5,5132.5,511.9z"/>
		<path class="st61" d="M5141.8,535.4h-9.9l-0.1-7.4l6,0.1c2.2,0,4,1.8,4,4V535.4z"/>
		<g>
			<path class="st77" d="M5083,479.8h-7.3l-9,18.7l0,0.1c0,1.4,1.1,2.5,2.5,2.5h3.7l10.3-21.3C5083.1,479.8,5083.1,479.8,5083,479.8
				z"/>
			<polygon class="st77" points="5089.3,484.8 5085.5,481.3 5075.9,501.1 5081.4,501.1 			"/>
		</g>
		<path class="st72" d="M5132.5,511.9v5.7c0,0.3,0.2,0.6,0.6,0.7l1.1,0.3v-7.5h-0.8C5132.9,511.1,5132.5,511.5,5132.5,511.9z"/>
		<path class="st64" d="M5066.9,510.1h11l0,0c0-1.4-1.2-2.6-2.6-2.6h-5.7C5068.1,507.5,5066.9,508.7,5066.9,510.1L5066.9,510.1z"/>
		<path class="st67" d="M4929.3,450.8h116.6c1.2,0,2.2-1,2.2-2.2l0,0c0-1.2-1-2.2-2.2-2.2h-116.6c-1.2,0-2.2,1-2.2,2.2l0,0
			C4927.1,449.8,4928.1,450.8,4929.3,450.8z"/>
		<path class="st67" d="M4929.3,458h116.6c1.2,0,2.2-1,2.2-2.2l0,0c0-1.2-1-2.2-2.2-2.2h-116.6c-1.2,0-2.2,1-2.2,2.2l0,0
			C4927.1,457.1,4928.1,458,4929.3,458z"/>
		<path class="st67" d="M4929.3,465.3h116.6c1.2,0,2.2-1,2.2-2.2l0,0c0-1.2-1-2.2-2.2-2.2h-116.6c-1.2,0-2.2,1-2.2,2.2l0,0
			C4927.1,464.4,4928.1,465.3,4929.3,465.3z"/>
		<path class="st67" d="M4929.3,472.6h116.6c1.2,0,2.2-1,2.2-2.2l0,0c0-1.2-1-2.2-2.2-2.2h-116.6c-1.2,0-2.2,1-2.2,2.2l0,0
			C4927.1,471.6,4928.1,472.6,4929.3,472.6z"/>
		<path class="st67" d="M4929.3,479.9h116.6c1.2,0,2.2-1,2.2-2.2l0,0c0-1.2-1-2.2-2.2-2.2h-116.6c-1.2,0-2.2,1-2.2,2.2l0,0
			C4927.1,478.9,4928.1,479.9,4929.3,479.9z"/>
		<path class="st67" d="M4929.3,487.2h116.6c1.2,0,2.2-1,2.2-2.2l0,0c0-1.2-1-2.2-2.2-2.2h-116.6c-1.2,0-2.2,1-2.2,2.2l0,0
			C4927.1,486.2,4928.1,487.2,4929.3,487.2z"/>
		<path class="st67" d="M4929.3,494.5h116.6c1.2,0,2.2-1,2.2-2.2l0,0c0-1.2-1-2.2-2.2-2.2h-116.6c-1.2,0-2.2,1-2.2,2.2l0,0
			C4927.1,493.5,4928.1,494.5,4929.3,494.5z"/>
		<path class="st67" d="M4929.3,501.7h116.6c1.2,0,2.2-1,2.2-2.2l0,0c0-1.2-1-2.2-2.2-2.2h-116.6c-1.2,0-2.2,1-2.2,2.2l0,0
			C4927.1,500.8,4928.1,501.7,4929.3,501.7z"/>
		<path class="st67" d="M4929.3,509h116.6c1.2,0,2.2-1,2.2-2.2l0,0c0-1.2-1-2.2-2.2-2.2h-116.6c-1.2,0-2.2,1-2.2,2.2l0,0
			C4927.1,508.1,4928.1,509,4929.3,509z"/>
		<path class="st67" d="M5105.5,492.7l8.1,7.7c0,0,15.5,4.6,19.3,5.6c3.5,0.8,4.2,2,4.3,2.2c-0.6-1.5-1.9-2.6-3.5-3l-21.7-6.7
			L5105.5,492.7z"/>
	</g>
	<rect x="3934.8" y="522.2" class="st78" width="2500" height="68"/>
	<rect x="3934.8" y="556.2" class="st79" width="2500" height="34"/>
	<g>
		<rect x="4015.1" y="590.2" class="st80" width="133.1" height="4.9"/>
		<rect x="4015.1" y="595.1" class="st81" width="133.1" height="10"/>
		<polygon class="st82" points="4148.2,605.1 4110.1,627.7 4053.3,627.7 4015.1,605.1 		"/>
		<rect x="4053.3" y="627.7" class="st78" width="56.8" height="144.7"/>
		<polygon class="st83" points="4081.7,590.2 4081.7,772.4 4053.3,772.4 4053.3,627.7 4015.1,605.1 4015.1,590.2 		"/>
	</g>
	<g>
		<rect x="4388.8" y="590.2" class="st80" width="133.1" height="4.9"/>
		<rect x="4388.8" y="595.1" class="st81" width="133.1" height="10"/>
		<polygon class="st82" points="4522,605.1 4483.8,627.7 4427,627.7 4388.8,605.1 		"/>
		<rect x="4427" y="627.7" class="st78" width="56.8" height="144.7"/>
		<polygon class="st83" points="4455.4,590.2 4455.4,772.4 4427,772.4 4427,627.7 4388.8,605.1 4388.8,590.2 		"/>
	</g>
	<g>
		<rect x="4762.5" y="590.2" class="st80" width="133.1" height="4.9"/>
		<rect x="4762.5" y="595.1" class="st81" width="133.1" height="10"/>
		<polygon class="st82" points="4895.7,605.1 4857.5,627.7 4800.7,627.7 4762.5,605.1 		"/>
		<rect x="4800.7" y="627.7" class="st78" width="56.8" height="144.7"/>
		<polygon class="st83" points="4829.1,590.2 4829.1,772.4 4800.7,772.4 4800.7,627.7 4762.5,605.1 4762.5,590.2 		"/>
	</g>
	<polygon class="st84" points="4857.5,656.4 4857.5,772.4 4800.7,772.4 4800.7,627.7 4762.5,605.1 4762.5,590.2 4794.8,590.2 
		4799.4,595.1 4808.9,605.1 4830.3,627.7 	"/>
	<g>
		<rect x="5136.3" y="590.2" class="st80" width="133.1" height="4.9"/>
		<rect x="5136.3" y="595.1" class="st81" width="133.1" height="10"/>
		<polygon class="st82" points="5269.4,605.1 5231.2,627.7 5174.4,627.7 5136.3,605.1 		"/>
		<rect x="5174.4" y="627.7" class="st78" width="56.8" height="144.7"/>
		<polygon class="st83" points="5202.8,590.2 5202.8,772.4 5174.4,772.4 5174.4,627.7 5136.3,605.1 5136.3,590.2 		"/>
	</g>
	<g>
		<rect x="5510" y="590.2" class="st80" width="133.1" height="4.9"/>
		<rect x="5510" y="595.1" class="st81" width="133.1" height="10"/>
		<polygon class="st82" points="5643.1,605.1 5604.9,627.7 5548.2,627.7 5510,605.1 		"/>
		<rect x="5548.2" y="627.7" class="st78" width="56.8" height="144.7"/>
		<polygon class="st83" points="5576.5,590.2 5576.5,772.4 5548.2,772.4 5548.2,627.7 5510,605.1 5510,590.2 		"/>
	</g>
	<g>
		<rect x="5883.7" y="590.2" class="st80" width="133.1" height="4.9"/>
		<rect x="5883.7" y="595.1" class="st81" width="133.1" height="10"/>
		<polygon class="st82" points="6016.8,605.1 5978.6,627.7 5921.9,627.7 5883.7,605.1 		"/>
		<rect x="5921.9" y="627.7" class="st78" width="56.8" height="144.7"/>
		<polygon class="st83" points="5950.3,590.2 5950.3,772.4 5921.9,772.4 5921.9,627.7 5883.7,605.1 5883.7,590.2 		"/>
	</g>
	<g>
		<rect x="6257.4" y="590.2" class="st80" width="133.1" height="4.9"/>
		<rect x="6257.4" y="595.1" class="st81" width="133.1" height="10"/>
		<polygon class="st82" points="6390.5,605.1 6352.4,627.7 6295.6,627.7 6257.4,605.1 		"/>
		<rect x="6295.6" y="627.7" class="st78" width="56.8" height="144.7"/>
		<polygon class="st83" points="6324,590.2 6324,772.4 6295.6,772.4 6295.6,627.7 6257.4,605.1 6257.4,590.2 		"/>
	</g>
	<rect x="3934.8" y="852.5" class="st85" width="2500" height="547"/>
	<rect x="3934.8" y="1212.5" class="st86" width="2500" height="187"/>
	<rect x="3934.8" y="1306" class="st64" width="2500" height="94"/>
	<rect x="3934.8" y="874.5" class="st26" width="2500" height="10"/>
	<rect x="3934.8" y="1090.3" class="st26" width="2500" height="10"/>
	<polygon class="st26" points="4021.7,930.5 3941.3,930.5 3936.5,940.5 4016.9,940.5 	"/>
	<polygon class="st26" points="5136.5,930.5 4493.3,930.5 4488.5,940.5 5131.8,940.5 	"/>
	<polygon class="st26" points="5318.9,930.5 5233,930.5 5237.8,940.5 5323.7,940.5 	"/>
	<polygon class="st26" points="5504.9,930.5 5422.5,930.5 5427.3,940.5 5509.7,940.5 	"/>
	<polygon class="st26" points="5690.9,930.5 5608.5,930.5 5613.3,940.5 5695.7,940.5 	"/>
	<polygon class="st26" points="5876.9,930.5 5794.5,930.5 5799.3,940.5 5881.7,940.5 	"/>
	<polygon class="st26" points="6062.9,930.5 5980.5,930.5 5985.3,940.5 6067.7,940.5 	"/>
	<g>
		<polygon class="st26" points="6248.9,930.5 6166.5,930.5 6171.3,940.5 6253.7,940.5 		"/>
		<polygon class="st26" points="6352.5,930.5 6357.3,940.5 6434.8,940.5 6434.8,930.5 		"/>
	</g>
	<rect x="3936.5" y="904.1" class="st87" width="2497.4" height="85.6"/>
	<rect x="3936.5" y="1126" class="st87" width="2497.4" height="53.5"/>
	<rect x="3934.8" y="765.4" class="st88" width="2500" height="87.2"/>
	<rect x="3934.8" y="808.9" class="st79" width="2500" height="43.6"/>
	<rect x="5427.7" y="632.9" class="st78" width="9.8" height="132.4"/>
	<rect x="5245.2" y="632.9" class="st78" width="9.8" height="132.4"/>
	<rect x="5245.2" y="632.9" class="st89" width="9.8" height="19.1"/>
	<rect x="5427.7" y="632.9" class="st89" width="9.8" height="19.1"/>
	<g>
		<g>
			<path class="st90" d="M5534.8,613.5l-23.9,15.8l-20.5,13.6c-1.2,0.8-2.6,1.2-4,1.2h-280.5c-4,0-7.3-3.3-7.3-7.3V578
				c0-4,3.3-7.3,7.3-7.3h280.5c1.4,0,2.8,0.4,4,1.2l44.4,29.4C5539.1,604.2,5539.1,610.6,5534.8,613.5z"/>
			<g>
				<path class="st26" d="M5479.8,639.8h-269.3c-4.4,0-8-3.3-8-7.3v-50.3c0-4,3.6-7.3,8-7.3h269.3c1.6,0,3.1,0.4,4.4,1.2l42.7,25.2
					c2.3,1.3,3.6,3.6,3.6,6.1s-1.4,4.7-3.6,6.1l-42.7,25.2C5482.9,639.4,5481.3,639.8,5479.8,639.8z M5210.5,577c-3.3,0-6,2.4-6,5.3
					v50.3c0,2.9,2.7,5.3,6,5.3h269.3c1.2,0,2.4-0.3,3.4-0.9l42.7-25.2c1.7-1,2.7-2.6,2.7-4.4c0-1.8-1-3.4-2.7-4.4l-42.7-25.2
					c-1-0.6-2.2-0.9-3.4-0.9H5210.5z"/>
			</g>
		</g>
		<text transform="matrix(1 0 0 1 5221.855 623.5268)" class="st26" style="font-family:'Prototype'; font-size:48.4726px;">EV STATION</text>
		<path class="st79" d="M5510.8,629.3l-20.5,13.6c-1.2,0.8-2.6,1.2-4,1.2h-280.5c-4,0-7.3-3.3-7.3-7.3v-7.5H5510.8z"/>
	</g>
	<rect x="3934.8" y="691" class="st86" width="2500" height="5.7"/>
	<rect x="3934.8" y="711.1" class="st86" width="2500" height="5.7"/>
	<rect x="3934.8" y="731.1" class="st86" width="2500" height="5.7"/>
	<rect x="3934.8" y="751.2" class="st86" width="2499.1" height="5.7"/>
	<rect x="4102.8" y="691" class="st86" width="5" height="74.4"/>
	<rect x="4844.8" y="691" class="st86" width="5" height="74.4"/>
	<rect x="5215.8" y="691" class="st86" width="5" height="74.4"/>
	<rect x="5586.8" y="691" class="st86" width="5" height="74.4"/>
	<rect x="5957.8" y="691" class="st86" width="5" height="74.4"/>
	<rect x="6328.8" y="691" class="st86" width="5" height="74.4"/>
	<rect x="3930.3" y="1224" class="st91" width="2504.5" height="20.7"/>
	<rect x="3930.3" y="1280.6" class="st91" width="2504.5" height="20.7"/>
	<rect x="3930.3" y="1337.2" class="st91" width="2504.5" height="20.7"/>
	<rect x="4069.2" y="1224" class="st91" width="20.5" height="175.5"/>
	<rect x="4544.1" y="1224" class="st91" width="20.5" height="175.5"/>
	<rect x="5019" y="1224" class="st91" width="20.5" height="175.5"/>
	<rect x="5494" y="1224" class="st91" width="20.5" height="175.5"/>
	<rect x="5968.9" y="1224" class="st91" width="20.5" height="175.5"/>
	<rect x="3934.8" y="504" class="st86" width="2500" height="2"/>
	<rect x="3934.8" y="509.3" class="st86" width="2500" height="2"/>
	<rect x="3934.8" y="514.5" class="st86" width="2500" height="2"/>
	<rect x="3981.4" y="504" class="st86" width="1.8" height="18.2"/>
	<rect x="4081.8" y="504" class="st86" width="1.8" height="18.2"/>
	<rect x="4182.1" y="504" class="st86" width="1.8" height="18.2"/>
	<rect x="4282.4" y="504" class="st86" width="1.8" height="18.2"/>
	<rect x="4382.8" y="504" class="st86" width="1.8" height="18.2"/>
	<rect x="4483.1" y="504" class="st86" width="1.8" height="18.2"/>
	<rect x="4583.4" y="504" class="st86" width="1.8" height="18.2"/>
	<rect x="4683.8" y="504" class="st86" width="1.8" height="18.2"/>
	<rect x="4784.1" y="504" class="st86" width="1.8" height="18.2"/>
	<rect x="4884.4" y="504" class="st86" width="1.8" height="18.2"/>
	<rect x="4984.8" y="504" class="st86" width="1.8" height="18.2"/>
	<rect x="5085.1" y="504" class="st86" width="1.8" height="18.2"/>
	<rect x="5185.4" y="504" class="st86" width="1.8" height="18.2"/>
	<rect x="5285.8" y="504" class="st86" width="1.8" height="18.2"/>
	<rect x="5386.1" y="504" class="st86" width="1.8" height="18.2"/>
	<rect x="5486.4" y="504" class="st86" width="1.8" height="18.2"/>
	<rect x="5586.8" y="504" class="st86" width="1.8" height="18.2"/>
	<rect x="5687.1" y="504" class="st86" width="1.8" height="18.2"/>
	<rect x="5787.4" y="504" class="st86" width="1.8" height="18.2"/>
	<rect x="5887.8" y="504" class="st86" width="1.8" height="18.2"/>
	<rect x="5988.1" y="504" class="st86" width="1.8" height="18.2"/>
	<rect x="6088.4" y="504" class="st86" width="1.8" height="18.2"/>
	<rect x="6188.8" y="504" class="st86" width="1.8" height="18.2"/>
	<rect x="6289.1" y="504" class="st86" width="1.8" height="18.2"/>
	<rect x="6389.4" y="504" class="st86" width="1.8" height="18.2"/>
	<path class="st84" d="M5317.5,644.1h-111.8c-4,0-7.3-3.3-7.3-7.3V578c0-4,3.3-7.3,7.3-7.3h60.5L5317.5,644.1z"/>
	<polygon class="st84" points="4794.8,590.2 3934.8,590.2 3934.8,522.2 4730.5,522.2 	"/>
	<g>
		<path class="st92" d="M4497.4,279c-226.2-1.9-456.5-8-561.3-11.1v34.6h561.3V279z"/>
		<path class="st92" d="M4858,152.7C4728.7,255,4740.9,262,4611.3,279.6v22.9h1824.9v-82.7C6211.6,267.9,5697.2,331,5532,167
			C5415,50.8,4984.3,52.7,4858,152.7z"/>
	</g>
</g>
</svg>
