<svg xmlns="http://www.w3.org/2000/svg" xmlns:xlink="http://www.w3.org/1999/xlink" viewBox="0 0 2500 1400"><defs><style>.cls-1,.cls-3{isolation:isolate;}.cls-2{fill:url(#linear-gradient);}.cls-15,.cls-3,.cls-78{fill:#fff;}.cls-3{opacity:0.43;}.cls-4{mix-blend-mode:hard-light;}.cls-5{fill:#455063;}.cls-6{fill:#556077;}.cls-7{fill:#454956;}.cls-8{fill:#565454;}.cls-10,.cls-14,.cls-22,.cls-9{fill:#bbb;}.cls-69,.cls-9{opacity:0.79;}.cls-10,.cls-11,.cls-14,.cls-21,.cls-32,.cls-36,.cls-40,.cls-41,.cls-44,.cls-46,.cls-55,.cls-67,.cls-69,.cls-70,.cls-73,.cls-84,.cls-9{mix-blend-mode:multiply;}.cls-10,.cls-70{opacity:0.46;}.cls-12,.cls-69,.cls-70,.cls-73{fill:#bcbcbc;}.cls-13{fill:#1c1c1c;}.cls-14,.cls-73{opacity:0.77;}.cls-16{fill:#ffa31f;}.cls-17{fill:#231f20;}.cls-18{fill:#9d9d9d;}.cls-19{fill:#e5e6e7;}.cls-20{fill:#333;}.cls-21{opacity:0.67;}.cls-23,.cls-32{fill:#d0d2d3;}.cls-24{fill:#3d3d3d;}.cls-25{fill:#bebebe;}.cls-26{fill:#545454;}.cls-27{fill:#fbbf2e;}.cls-28{fill:#dc4747;}.cls-29{fill:#9a4e4e;}.cls-30{fill:#bbbdbf;}.cls-31{fill:#010101;}.cls-33{fill:#818181;}.cls-34{fill:#28211f;}.cls-35{fill:#dfdbdb;}.cls-36,.cls-40,.cls-41,.cls-44,.cls-46,.cls-49{fill:#a4a4a4;}.cls-36,.cls-67{opacity:0.51;}.cls-37{fill:#383838;}.cls-38{fill:#7c7c7c;}.cls-39{fill:#686868;}.cls-40{opacity:0.32;}.cls-41,.cls-84{opacity:0.38;}.cls-42{fill:#565656;}.cls-43{fill:#3f3f3f;}.cls-44,.cls-55{opacity:0.75;}.cls-45{fill:#7c7b7a;}.cls-47{fill:#00a451;}.cls-48{fill:#161616;}.cls-50{fill:#88c348;}.cls-51,.cls-57{fill:none;}.cls-51{stroke:#f27139;stroke-width:2px;}.cls-51,.cls-63{stroke-miterlimit:10;}.cls-52{fill:#f27139;}.cls-53{fill:#e66c54;}.cls-54{fill:#ff876c;}.cls-55,.cls-67,.cls-84{fill:#a5a5a5;}.cls-56{fill:#c4bcb0;}.cls-58{fill:#bfbfbf;}.cls-59{fill:#f1f2f2;}.cls-60{fill:#8d99a5;}.cls-61{fill:#fcc02e;}.cls-62{fill:#dd4747;}.cls-63{fill:#c1272d;stroke:#ab272d;}.cls-64{fill:#ab272d;}.cls-65{fill:#d1d3d4;}.cls-66{fill:#828282;}.cls-68{fill:#e0dcdc;}.cls-71{fill:#bdbdbd;}.cls-72{fill:#2f302d;}.cls-74{fill:#ffcf8f;}.cls-75{fill:#d14e4e;}.cls-76{fill:#9e9e9e;}.cls-77{fill:#e6e7e8;}.cls-78{mix-blend-mode:soft-light;}.cls-79{fill:#88c449;}.cls-80{fill:#7da84c;}.cls-81{fill:#fcfafa;opacity:0.19;}.cls-82{fill:#424f3f;}.cls-83{fill:#ffa41f;}</style><linearGradient id="linear-gradient" x1="1247.93" y1="1069.93" x2="1247.93" y2="176.73" gradientTransform="translate(-0.19 0.19)" gradientUnits="userSpaceOnUse"><stop offset="0" stop-color="#fff"/><stop offset="0.15" stop-color="#cfeaf6"/><stop offset="0.38" stop-color="#86cae9"/><stop offset="0.59" stop-color="#4cb1df"/><stop offset="0.77" stop-color="#239ed7"/><stop offset="0.92" stop-color="#0993d3"/><stop offset="1" stop-color="#008fd1"/></linearGradient></defs><title>Artboard 4</title><g class="cls-1"><g id="Layer_1" data-name="Layer 1"><rect id="_Path_" data-name="&lt;Path&gt;" class="cls-2" x="-4.5" y="-11.78" width="2504.5" height="1411.78"/><path class="cls-3" d="M-1.4-17.08-4.52,380l311.77-46.92a1170.64,1170.64,0,0,1,342.26-1L885.84,366.3a708.08,708.08,0,0,0,106,7.29l402.95-39.09a926.64,926.64,0,0,1,152.4-2.2l428.95,29.17a992.59,992.59,0,0,0,155-1.59l352.2-31.21c10.1-.89,17.87-10.47,17.8-21.93l-2-323.89Z"/><g class="cls-4"><polygon class="cls-5" points="2372.1 1031.02 2372.1 805.25 2362.45 805.25 2362.45 833.75 2334.18 833.75 2334.18 823.06 2327.29 823.06 2327.29 815.33 2305.23 815.33 2305.23 833.75 2294.55 833.75 2294.55 815.67 2278 815.67 2278 828.88 2272.83 828.88 2272.83 833.75 2263.18 833.75 2263.18 634.59 2240.43 634.59 2240.43 608.87 2193.2 608.87 2193.21 630.07 2184.59 630.07 2184.59 605.39 2136.68 605.39 2136.68 532.4 1949.17 532.4 1949.17 655.45 1923.66 655.45 1923.67 703.76 1874.03 703.76 1874.03 519.54 1865.07 519.54 1865.07 510.86 1859.9 510.86 1859.89 476.1 1837.49 476.1 1837.49 497.3 1837.49 510.51 1829.22 510.51 1829.22 527.54 1759.25 527.54 1751.32 527.54 1751.32 510.16 1706.86 510.16 1706.86 671.79 1691.7 671.79 1691.69 630.77 1674.12 630.77 1674.12 616.52 1649.99 616.52 1649.99 630.43 1636.55 630.43 1636.55 652.33 1614.14 652.33 1614.14 625.22 1481.09 625.22 1370.11 625.22 1370.11 603.67 1312.55 603.67 1312.54 542.5 1280.49 542.5 1280.49 620.7 1265.32 620.71 1265.33 695.43 1258.09 695.43 1258.09 717.68 1252.57 717.68 1252.58 768.08 1216.38 768.08 1216.38 712.82 1216.38 510.87 1096.08 510.87 1096.09 594.64 1073.68 594.64 1073.68 723.59 1067.48 723.59 1067.48 646.43 1036.11 646.43 1036.11 725.68 1026.81 725.68 1026.8 401.74 924.77 401.74 924.78 629.4 911.68 629.4 911.68 562.67 855.84 562.67 855.85 735.76 821.72 735.76 821.72 701.01 803.8 701.01 803.8 714.56 750.37 714.56 750.37 529.65 672.82 529.65 672.81 231.08 647.3 231.08 647.3 212.31 617.66 212.31 614.55 37.83 611.46 212.31 611.11 212.31 581.81 212.31 581.81 228.3 559.06 228.3 559.07 663.47 460.15 663.48 460.15 690.59 398.8 690.59 398.8 550.51 394.66 550.51 394.66 542.87 363.98 516.8 331.24 541.13 331.24 549.13 325.72 549.13 325.72 560.6 314.69 560.6 314.7 737.17 277.47 737.17 235.42 737.17 235.42 656.53 228.53 656.53 228.53 645.41 219.22 645.41 219.22 624.9 158.21 624.9 158.21 645.76 152.69 645.76 152.69 654.45 142.7 654.45 142.7 704.5 132.71 704.5 132.71 786.53 123.4 786.53 123.4 823.11 123.41 1031.08 2372.1 1031.02"/><path class="cls-6" d="M2458.24,1031V910.78H2440V883.55H2335s1.25,25.68,0,24.42-136.1,0-136.1,0V837h-79.32V650.9h-36.46v-21H2023v18.52h-37V812.56h-7.79V789.26H1954.3V578.77h9.18V563.9H1787.31v13.75h7.24s0,113.95,0,115.35-42.3,0-42.3,0V675.6h-38.69v17.12H1691v80.55H1656.5V508.33h-4.73v-14H1499V708.45h-42V611.34h-54.83V751.95h-13.36V689.08h-5.84v-7h-6.4v-9l-8.91-14.31V643.62h-7.79v14.59L1350.35,672v9.54h-5.84v5.61h-8.07v62.59h-13.92v15.16h-12.8v16.56h-5.84V704h-17.53v14.31h-7.79v50.52h-11.41V879.37h-8.63v-53h-10.76v-43.5H1241V696.1h-4.45V672.81h-32v7.58h-10.58v-14h-24.49v6.46h-3.9V658.22h-11.69v15.16h-34.79V743h-6.4V754.2h-35.9V870.39h-13.92V735.12h-73.2v39.29h-3.9V761.78h-8.07V752h-6.4v-53h-7.79V681H930.37V668h-7V640.82h-6.12v-5.61h-5.57V618.37H891.41v16.84h-8.35v38.17h-19.2V780.87H844.1v83.07h-4.17V728.39H816.54v17.12h-2.78v-5.33h-3.34v-4.49h-10.3v3.93h-2.78v4.77h-1.95v8.14h-10.3s0,93.46,0,94.86-18.65,0-18.65,0V682.92H748.08V668.61l-36.74-13.75H699.65v54.45H681.84V692.47H643.15v72.69H631.46v-8.42H602.8v92.62H600V705.1h-5V690.22h-6.12V679.28h-6.4v-8.7H561.6v9.26h-7v8.7h-7v14.87h-7V851h-8.63V741h-7.79V643.36h-6.68v-9.82H511v-9.26L497.87,606.5h-43.7l-15,15v10.95H433.3v9.26H423v96h-7.79V840.1h-5.29V740.19H379.59V619.78h-10.3V606.5H359.2a37,37,0,0,0-71.69,0h-9.05v12.16H264.73V823.36h-44.9V744H91.44V865.74H37.26v165.34Z"/><polygon class="cls-7" points="2500.01 1031.02 2500.01 999.54 2293.86 999.54 2293.86 975.93 2187.13 975.93 2187.13 960.06 2059.3 960.06 2059.3 946.13 1886.16 946.13 1886.16 992.2 1780.59 992.2 1780.59 979.04 1731.46 979.04 1731.46 972.07 1706.5 972.07 1706.5 977.88 1700.36 977.88 1700.36 724.32 1672.33 724.32 1672.33 706.9 1635.86 706.9 1635.86 723.16 1581.73 723.16 1581.73 666.25 1560.04 666.25 1560.04 650.57 1509.75 650.57 1509.75 667.22 1481.34 667.22 1481.35 694.51 1424.72 694.51 1424.73 908.98 1326.64 908.98 1314.74 920.6 1314.74 986.21 1051.01 986.22 1051.01 977.31 1029.32 977.32 1020.11 970.93 964.25 970.93 953.31 977.32 854.46 977.32 854.46 958.74 842.37 951.19 826.82 951.19 826.82 923.9 803.78 923.9 803.78 953.32 799.18 953.32 799.18 924.28 783.82 924.28 783.82 957.19 707.62 957.19 707.62 946.93 702.05 934.74 695.33 946.35 695.34 961.64 682.67 961.64 682.67 969.97 669.42 969.97 669.42 894.28 603.58 894.29 603.58 918.29 590.53 918.29 590.53 890.61 571.91 890.61 571.91 959.52 523.93 959.52 523.93 917.32 512.99 917.32 512.98 847.06 434.48 847.06 434.48 859.45 430.26 859.45 430.26 869.71 416.05 869.71 416.05 943.46 375.75 943.46 375.75 913.65 298.77 913.65 298.77 904.36 275.74 904.36 275.74 912.49 266.91 912.49 266.91 827.52 245.8 827.52 245.79 804.87 238.5 804.87 238.5 792.68 234.76 792.68 234.76 782.22 225.26 782.22 225.26 792.68 221.8 792.68 221.8 804.58 216.04 804.58 216.04 813 214.03 813 214.03 821.13 200.5 821.13 200.5 804.58 185.24 804.58 185.24 816.78 155.87 816.78 155.87 873.68 139.17 873.68 139.17 883.85 133.99 883.85 133.99 965.43 -4.5 965.43 -4.5 967.47 -4.5 1023.18 -4.5 1031.08 2500.01 1031.02"/></g><polygon points="246.69 529.74 254.71 529.74 257.25 519.52 246.69 519.52 246.69 529.74"/><path class="cls-8" d="M80.5,522.6a7.82,7.82,0,0,0,6.81,5.75h12.89c2.14,0,19.15,4.49,24.88,4.49H253.21c1.69,0,2.67-.05,3.44-1.54s.82-3.08-.22-3.08H252c-1.37,0-.38-3.46.44-4.73s2.84-1.63,4.29-1.86,2-.91,1-6.45c-.07-.4-.16-.82-.25-1.27a10.14,10.14,0,0,0-4-6.05c-.42-.32-.82-.6-1.19-.84-3.42-2.21-8.12-3.75-13.11-5.39-4.53-1.48-11.11-2.27-17-2.81l-2.37-.21a95.54,95.54,0,0,1-10.23-1.11c-3.65-1-15.57-9.79-24.67-14.92s-17.4-4.62-21-4.62H141.9c-3.9,0-12.28.12-16.72,1.88S102.3,490.65,100,491.28s-7.93.48-12.41.48c-2.8,0-3.78,1.15-4.18,2.41a13.28,13.28,0,0,0-.37,2.18c-.07.43-.2,1.49-.37,2.88s0,2.94-.14,4.49c-.09.86-.54,1.6-.62,2.43l-.17,1.64c-.16,1.65-.26,3-.26,3.58,0,2-1.71,2.27-2,3S79.11,518.32,80.5,522.6Z"/><path class="cls-9" d="M81.78,507.78H89a2.89,2.89,0,0,0,2.88-2.9v-7.83a2.89,2.89,0,0,0-2.88-2.9H83.45a13.28,13.28,0,0,0-.37,2.18c-.07.43-.2,1.49-.37,2.88s0,2.94-.14,4.49c-.09.86-.54,1.6-.62,2.43Z"/><path class="cls-10" d="M79.44,517.55a23.34,23.34,0,0,0,1.05,5.06,9.16,9.16,0,0,0,1.31,2.59,7.36,7.36,0,0,0,5.5,3.16h12.89c2.14,0,19.15,4.49,24.88,4.49H253.21c1.69,0,2.67-.05,3.44-1.54s.82-3.08-.22-3.08H252c-.93,0-.77-1.6-.31-3a7.4,7.4,0,0,1,.75-1.7c.82-1.26,2.84-1.63,4.29-1.86,1.14-.18,1.79-.7,1.36-4.1Z"/><g class="cls-11"><path class="cls-12" d="M117.44,496.62a7.33,7.33,0,0,0-.74,5.57c.4,1.31,2.45,3.32,5.31,6.09,1,.93,2,2,3.17,3.13,3.83,3.85,6,10.15,6.9,12.84.17.49.3.88.4,1.12.65,1.64,1.46,2,2.47,2h27.52a218.56,218.56,0,0,0-1.75-27.73l.32,0a218.85,218.85,0,0,1,1.75,27.77h40.68a1.57,1.57,0,0,0,1.53-1.15c.16-.66,1.47-10.22,1.8-15.25s-.2-6.48-2.89-8.92-12.65-8.49-12.75-8.55l.17-.28c.1.06,10.14,6.19,12.8,8.59s3.33,4.16,3,9.18-1.65,14.64-1.81,15.31a1.9,1.9,0,0,1-1.85,1.4H135c-1.35,0-2.16-.63-2.77-2.19-.1-.25-.23-.64-.4-1.14-.91-2.67-3-8.91-6.82-12.71-1.13-1.14-2.21-2.19-3.17-3.12-2.89-2.81-5-4.84-5.39-6.23a7.59,7.59,0,0,1,.79-5.86Z"/><path class="cls-12" d="M96.64,502.23a3,3,0,1,0,3-3A3,3,0,0,0,96.64,502.23Zm.33,0a2.68,2.68,0,1,1,2.68,2.69A2.69,2.69,0,0,1,97,502.23Z"/></g><path class="cls-13" d="M120.32,500.55H195c2,0,2.84-1.32,2.69-2.27s-8.67-7.77-14.49-11.21c-.63-.37-1.27-.73-1.92-1.06h0a48,48,0,0,0-10.76-4.06c-.74-.17-1.43-.3-2-.39a11.59,11.59,0,0,0-1.58-.13H139.17c-6.41,0-21.73,8.21-24.06,11.58C113.55,495.26,118.5,500.55,120.32,500.55Z"/><path class="cls-8" d="M165.43,500.55h-7.85l-2.26-19.13h4.23Z"/><path class="cls-13" d="M209.56,497.51a18.53,18.53,0,0,1-3.52.82,6.42,6.42,0,0,1-3.33-.77c-.49-.38-17.91-12.64-19.49-13.68s-.76-2.09,0-2.09h.16c.5.25,1,.52,1.52.81,9.1,5.13,21,13.93,24.67,14.92Z"/><path class="cls-13" d="M124.91,480c.27.3.23.77-.41,1.29-1.06.84-15.51,8-17.22,8.83s-3.69.91-6.43.91C105,489.33,120.44,481.78,124.91,480Z"/><path class="cls-14" d="M241.13,511.38c2.51,1.93,6.89,3.06,10.76,3.49a25.32,25.32,0,0,0,5.84.33c-.07-.4-.16-.82-.25-1.28a10.14,10.14,0,0,0-4-6.05c-.42-.32-.82-.6-1.19-.84a7.17,7.17,0,0,0-1-.54c-2.37-1-9.34-2.07-12.34-2.53C233.63,503.16,238.62,509.45,241.13,511.38Z"/><path class="cls-15" d="M239.13,505.31c2.28.35,7.59,1.15,9.39,1.92s6.17,4.8,5.9,5.92-2.46.79-5.41.46-6.28-1.19-8.19-2.66S235.11,504.69,239.13,505.31Z"/><path class="cls-16" d="M240.82,511c-1.91-1.47-5.71-6.26-1.69-5.64l2.56.4c1.47,1.09,5,4,6.1,7.73A16.35,16.35,0,0,1,240.82,511Z"/><path class="cls-15" d="M90.51,498v5.94a2.19,2.19,0,0,1-2.18,2.2H82.24c.24-2.33.23-5,.47-6.93.16-1.38.3-2.45.37-2.87,0-.17,0-.34.07-.53h5.17A2.19,2.19,0,0,1,90.51,498Z"/><path class="cls-16" d="M90.51,503.94a2.19,2.19,0,0,1-2.18,2.2H81.94c.24-2.33.53-4.95.77-6.93h7.79Z"/><path class="cls-10" d="M81.8,525.2a7.36,7.36,0,0,0,5.5,3.16h12.89c2.14,0,19.15,4.49,24.88,4.49H253.21c1.69,0,2.67-.05,3.44-1.54s.82-3.08-.22-3.08H252c-.93,0-.77-1.6-.31-3Z"/><path d="M98.45,526.23a15.18,15.18,0,1,1,30.36,0v6.61h-3.73c-5.73,0-22.73-4.49-24.88-4.49H98.45Z"/><path class="cls-14" d="M208,527.07v5.78h36.2v-5.78a18.1,18.1,0,1,0-36.2,0Z"/><path class="cls-14" d="M95.52,527.07v1.29h4.67c2.14,0,19.15,4.49,24.88,4.49h6.65v-5.78a18.1,18.1,0,1,0-36.2,0Z"/><path d="M211,526.23a15.18,15.18,0,1,1,30.36,0v6.61H211Z"/><path class="cls-17" d="M226.19,534.45a8,8,0,1,1,7.92-8A7.94,7.94,0,0,1,226.19,534.45Z"/><path class="cls-18" d="M218,528.16a8.34,8.34,0,0,0,1.07,2.72l1.07-.57,4.2-2.23a2.57,2.57,0,0,0,1.18.81l-.61,4.63-.16,1.2a8.2,8.2,0,0,0,1.41.12,8.3,8.3,0,0,0,1.47-.13l-.11-1.21-.41-4.59a2.58,2.58,0,0,0,1.22-.81l3.92,2.08,1.07.57a8.36,8.36,0,0,0,1-2.67l-1.17-.32L229,526.62c0-.06,0-.13,0-.19a2.6,2.6,0,0,0-.56-1.61l2.66-3.52.73-1a8.39,8.39,0,0,0-2.41-1.55l-.5,1.1-1.83,4a2.48,2.48,0,0,0-.68-.09,2.55,2.55,0,0,0-.88.16l-2.16-4-.57-1.07a8.3,8.3,0,0,0-2.39,1.65l.79.92,3.06,3.54a2.61,2.61,0,0,0-.44,1.46c0,.06,0,.12,0,.18l-4.59,1.24Z"/><path class="cls-19" d="M219.21,527.84a7.12,7.12,0,0,0,1,2.47l4.2-2.23a2.57,2.57,0,0,0,1.18.81l-.61,4.63a7,7,0,0,0,1.25.11,6.86,6.86,0,0,0,1.36-.13l-.41-4.59a2.58,2.58,0,0,0,1.22-.81l3.92,2.08a7.1,7.1,0,0,0,.91-2.43L229,526.62c0-.06,0-.13,0-.19a2.6,2.6,0,0,0-.56-1.61l2.66-3.52a7.11,7.11,0,0,0-2.18-1.42l-1.83,4a2.48,2.48,0,0,0-.68-.09,2.55,2.55,0,0,0-.88.16l-2.16-4a7.14,7.14,0,0,0-2.17,1.49l3.06,3.54a2.61,2.61,0,0,0-.44,1.46c0,.06,0,.12,0,.18Z"/><ellipse class="cls-10" cx="226.29" cy="526.43" rx="1.71" ry="1.72"/><circle class="cls-20" cx="226.29" cy="525.14" r="0.5"/><circle class="cls-20" cx="226.29" cy="527.72" r="0.5"/><circle class="cls-20" cx="227.58" cy="526.43" r="0.5"/><circle class="cls-20" cx="225.01" cy="526.43" r="0.5"/><path class="cls-20" d="M212.87,526.49a13.32,13.32,0,1,0,13.32-13.41A13.36,13.36,0,0,0,212.87,526.49Zm4.79,0a8.52,8.52,0,1,1,8.53,8.58A8.55,8.55,0,0,1,217.67,526.49Z"/><g class="cls-21"><path class="cls-22" d="M215.89,526.49a10.3,10.3,0,1,0,10.3-10.37A10.34,10.34,0,0,0,215.89,526.49Zm1.78,0a8.52,8.52,0,1,1,8.53,8.58A8.55,8.55,0,0,1,217.67,526.49Z"/></g><path class="cls-23" d="M216.87,526.49a9.32,9.32,0,1,0,9.32-9.38A9.35,9.35,0,0,0,216.87,526.49Zm1.4,0a7.92,7.92,0,1,1,7.92,8A7.94,7.94,0,0,1,218.27,526.49Z"/><path class="cls-10" d="M217.54,526.49a8.65,8.65,0,1,0,8.65-8.71A8.68,8.68,0,0,0,217.54,526.49Zm.73,0a7.92,7.92,0,1,1,7.92,8A7.94,7.94,0,0,1,218.27,526.49Z"/><path class="cls-17" d="M113.62,534.46a8,8,0,1,1,7.92-8A7.94,7.94,0,0,1,113.62,534.46Z"/><path class="cls-18" d="M105.47,528.16a8.34,8.34,0,0,0,1.07,2.72l1.07-.57,4.2-2.23a2.57,2.57,0,0,0,1.18.81l-.61,4.63-.16,1.2a8.2,8.2,0,0,0,1.41.12,8.3,8.3,0,0,0,1.47-.13l-.11-1.21-.41-4.59a2.58,2.58,0,0,0,1.22-.81l3.92,2.08,1.07.57a8.36,8.36,0,0,0,1-2.67l-1.17-.32-4.23-1.15c0-.06,0-.13,0-.19a2.6,2.6,0,0,0-.56-1.61l2.66-3.52.73-1a8.39,8.39,0,0,0-2.41-1.55l-.5,1.1-1.84,4a2.48,2.48,0,0,0-.68-.09,2.55,2.55,0,0,0-.88.16l-2.16-4-.57-1.07a8.31,8.31,0,0,0-2.39,1.65l.79.92,3.06,3.54a2.61,2.61,0,0,0-.44,1.46c0,.06,0,.12,0,.18l-4.59,1.24Z"/><path class="cls-19" d="M106.64,527.85a7.12,7.12,0,0,0,1,2.47l4.2-2.23a2.57,2.57,0,0,0,1.18.81l-.61,4.63a7,7,0,0,0,1.25.11,6.87,6.87,0,0,0,1.36-.13l-.41-4.59a2.58,2.58,0,0,0,1.22-.81l3.92,2.08a7.1,7.1,0,0,0,.91-2.43l-4.23-1.15c0-.06,0-.13,0-.19a2.6,2.6,0,0,0-.56-1.61l2.66-3.52a7.11,7.11,0,0,0-2.18-1.42l-1.84,4a2.48,2.48,0,0,0-.68-.09,2.55,2.55,0,0,0-.88.16l-2.16-4a7.14,7.14,0,0,0-2.17,1.49l3.06,3.54a2.61,2.61,0,0,0-.44,1.46c0,.06,0,.12,0,.18Z"/><ellipse class="cls-10" cx="113.73" cy="526.43" rx="1.71" ry="1.72"/><circle class="cls-20" cx="113.73" cy="525.14" r="0.5"/><circle class="cls-20" cx="113.73" cy="527.72" r="0.5"/><circle class="cls-20" cx="115.01" cy="526.43" r="0.5"/><circle class="cls-20" cx="112.45" cy="526.43" r="0.5"/><path class="cls-20" d="M100.31,526.49a13.32,13.32,0,1,0,13.32-13.41A13.36,13.36,0,0,0,100.31,526.49Zm4.79,0a8.52,8.52,0,1,1,8.53,8.58A8.55,8.55,0,0,1,105.1,526.49Z"/><g class="cls-21"><path class="cls-22" d="M103.32,526.49a10.3,10.3,0,1,0,10.3-10.37A10.34,10.34,0,0,0,103.32,526.49Zm1.78,0a8.52,8.52,0,1,1,8.53,8.58A8.55,8.55,0,0,1,105.1,526.49Z"/></g><path class="cls-23" d="M104.31,526.49a9.32,9.32,0,1,0,9.32-9.38A9.35,9.35,0,0,0,104.31,526.49Zm1.4,0a7.92,7.92,0,1,1,7.92,8A7.94,7.94,0,0,1,105.71,526.49Z"/><path class="cls-10" d="M105,526.49a8.65,8.65,0,1,0,8.65-8.71A8.68,8.68,0,0,0,105,526.49Zm.73,0a7.92,7.92,0,1,1,7.92,8A7.94,7.94,0,0,1,105.71,526.49Z"/><path class="cls-24" d="M1166.62,506.89v13.88a3,3,0,0,1-3,3.05H1045.78a3,3,0,0,1-1.88-.66l-9.5-7.56a3,3,0,0,0-1.88-.66H997.73a3,3,0,0,1-1.48-.39,3.05,3.05,0,0,1,1.48-5.72h115a3,3,0,0,0,1.79-.59l1.51-1.11,3.68-2.71a3,3,0,0,1,1.79-.59h42.1A3,3,0,0,1,1166.62,506.89Z"/><rect class="cls-25" x="999.66" y="508.84" width="15.44" height="12.77" transform="translate(2014.76 1030.42) rotate(180)"/><path class="cls-26" d="M1116,433.26v74.18a3.6,3.6,0,0,1-3.59,3.62H997.48l-1.24,3.49-2.11,5.94h-8.83V433.27a4.91,4.91,0,0,1,4.89-4.92h120.93A4.91,4.91,0,0,1,1116,433.26Z"/><rect class="cls-20" x="997.45" y="519.94" width="19.85" height="5" rx="1.08" ry="1.08" transform="translate(2014.76 1044.85) rotate(180)"/><rect class="cls-20" x="991.93" y="504.92" width="119.67" height="2.53" rx="0.98" ry="0.98" transform="translate(2103.55 1012.34) rotate(180)"/><rect class="cls-20" x="1054.91" y="516.61" width="62.21" height="12.09" rx="2.54" ry="2.54" transform="translate(2172.04 1045.28) rotate(180)"/><rect class="cls-20" x="984.77" y="517.72" width="9.91" height="7.22" rx="1.36" ry="1.36" transform="translate(1979.45 1042.63) rotate(180)"/><path class="cls-24" d="M985.31,433.27v1.19H1116v-1.19a4.91,4.91,0,0,0-4.89-4.92H990.2A4.91,4.91,0,0,0,985.31,433.27Z"/><rect class="cls-27" x="990.13" y="430.29" width="5.51" height="2.22" rx="0.86" ry="0.86" transform="translate(1985.78 862.8) rotate(180)"/><rect class="cls-28" x="986.96" y="514.11" width="5.51" height="2.22" rx="0.86" ry="0.86" transform="translate(1979.45 1030.42) rotate(180)"/><rect class="cls-27" x="1105.84" y="430.29" width="5.51" height="2.22" rx="0.86" ry="0.86" transform="translate(2217.21 862.77) rotate(180)"/><path class="cls-29" d="M1200.47,502.67v20.78a4.68,4.68,0,0,1-2.72,4.25,4.58,4.58,0,0,1-1.92.42h-.4l-.23-2-.59-5.08a10.78,10.78,0,0,0-10.44-9.84h-10.05a10.18,10.18,0,0,0-7.49,3.35,11.38,11.38,0,0,0-2.65,4.91,10.9,10.9,0,0,0-.23,1.08l-.52,3.26-.24,1.48a3.34,3.34,0,0,1-3.3,2.83h-35.05V469.42a2.3,2.3,0,0,1,2.34-2.31l19.53.38a6.75,6.75,0,0,1,4.4,1.75l17.45,15.86,6.47,5.88,21.77,6.73a5.07,5.07,0,0,1,3.48,3l0,0A5.08,5.08,0,0,1,1200.47,502.67Z"/><path d="M1174.12,511.22h10.06a10.78,10.78,0,0,1,10.44,9.84l.51,4.37H1163s0-.09,0-.13l.76-4.74A10.74,10.74,0,0,1,1174.12,511.22Z"/><rect class="cls-30" x="1123.31" y="468.69" height="56.74"/><path class="cls-24" d="M1123.31,525.43h0c-.73,0-1.33-.44-1.33-1V469.67c0-.54.6-1,1.33-1h0c.73,0,1.33.44,1.33,1v54.79C1124.64,525,1124,525.43,1123.31,525.43Z"/><g class="cls-11"><path class="cls-23" d="M1155.35,524h-26.71a2.48,2.48,0,0,1-1.78-.74,2.51,2.51,0,0,1-.73-1.79c0-6.37.15-27.29.13-29.1l-.15-18.91a4.41,4.41,0,0,1,1.1-3,4.17,4.17,0,0,1,3.12-1.38h16.26a4.19,4.19,0,0,1,2.9,1.16l20.17,19.23a4.17,4.17,0,0,1,1.28,3c0,1.79-1.8,16.64-4,17.5-5.32,2-7.42,8-8.2,11.37A3.44,3.44,0,0,1,1155.35,524Zm-25-54.4a3.63,3.63,0,0,0-2.72,1.21,3.87,3.87,0,0,0-1,2.65l.15,18.91c0,1.76-.09,20.94-.13,29.1a2,2,0,0,0,.57,1.4,1.94,1.94,0,0,0,1.39.58h26.71a2.9,2.9,0,0,0,2.84-2.26c.8-3.48,3-9.63,8.53-11.76,1.66-.64,3.68-14.24,3.68-17a3.61,3.61,0,0,0-1.11-2.61l-20.17-19.23a3.65,3.65,0,0,0-2.53-1Z"/></g><path class="cls-31" d="M1130.35,470.36h16.26a2.94,2.94,0,0,1,2,.81l20.17,19.23a2.86,2.86,0,0,1,.89,2.07h0a2.85,2.85,0,0,1-2.84,2.86h-36.35a3,3,0,0,1-2.95-2.94l-.15-19A3,3,0,0,1,1130.35,470.36Z"/><path class="cls-17" d="M1171.06,526.29a8,8,0,1,1,8,8.07A8,8,0,0,1,1171.06,526.29Z"/><path class="cls-19" d="M1176.28,526.42c0-.06,0-.13,0-.19a2.64,2.64,0,0,1,.57-1.64l-3.44-4.55a8.42,8.42,0,0,1,2.44-1.57l2.37,5.22a2.56,2.56,0,0,1,1.58.06l2.77-5.18a8.43,8.43,0,0,1,2.43,1.67l-3.91,4.52a2.64,2.64,0,0,1,.45,1.47c0,.06,0,.12,0,.18l5.83,1.58a8.46,8.46,0,0,1-1.09,2.76l-5.34-2.84a2.63,2.63,0,0,1-1.19.82l.78,5.92a8.3,8.3,0,0,1-2.91,0l.53-5.88a2.62,2.62,0,0,1-1.24-.82l-5.05,2.69a8.46,8.46,0,0,1-1-2.71Z"/><circle class="cls-20" cx="1178.98" cy="524.92" r="0.51"/><circle class="cls-20" cx="1178.98" cy="527.53" r="0.51"/><circle class="cls-20" cx="1177.68" cy="526.23" r="0.51"/><circle class="cls-20" cx="1180.28" cy="526.23" r="0.51"/><path class="cls-20" d="M1165.59,526.29a13.5,13.5,0,1,0,13.5-13.59A13.54,13.54,0,0,0,1165.59,526.29Zm4.86,0a8.64,8.64,0,1,1,8.64,8.69A8.67,8.67,0,0,1,1170.45,526.29Z"/><path class="cls-23" d="M1169.64,526.29a9.44,9.44,0,1,0,9.44-9.5A9.47,9.47,0,0,0,1169.64,526.29Zm1.42,0a8,8,0,1,1,8,8.07A8,8,0,0,1,1171.06,526.29Z"/><path class="cls-17" d="M1024.8,526.29a8,8,0,1,1,8,8.07A8,8,0,0,1,1024.8,526.29Z"/><path class="cls-19" d="M1030,526.42c0-.06,0-.13,0-.2a2.64,2.64,0,0,1,.57-1.64l-3.44-4.55a8.42,8.42,0,0,1,2.44-1.57l2.37,5.22a2.56,2.56,0,0,1,1.58.06l2.77-5.18a8.44,8.44,0,0,1,2.43,1.67l-3.91,4.52a2.64,2.64,0,0,1,.45,1.47c0,.06,0,.12,0,.18l5.83,1.58a8.46,8.46,0,0,1-1.09,2.76l-5.34-2.84a2.63,2.63,0,0,1-1.19.82l.78,5.92a8.3,8.3,0,0,1-2.91,0l.53-5.88a2.62,2.62,0,0,1-1.23-.82l-5.05,2.69a8.46,8.46,0,0,1-1-2.71Z"/><circle class="cls-20" cx="1032.72" cy="524.92" r="0.51"/><circle class="cls-20" cx="1032.72" cy="527.54" r="0.51"/><circle class="cls-20" cx="1031.42" cy="526.23" r="0.51"/><circle class="cls-20" cx="1034.01" cy="526.23" r="0.51"/><path class="cls-20" d="M1019.33,526.29a13.5,13.5,0,1,0,13.5-13.59A13.54,13.54,0,0,0,1019.33,526.29Zm4.86,0a8.64,8.64,0,1,1,8.64,8.69A8.67,8.67,0,0,1,1024.19,526.29Z"/><path class="cls-23" d="M1023.38,526.29a9.44,9.44,0,1,0,9.44-9.5A9.47,9.47,0,0,0,1023.38,526.29Zm1.42,0a8,8,0,1,1,8,8.07A8,8,0,0,1,1024.8,526.29Z"/><path class="cls-23" d="M1166.91,497.87h-37.58a.27.27,0,0,1-.27-.27h0a.27.27,0,0,1,.27-.27h37.58a.27.27,0,0,1,.27.27h0A.27.27,0,0,1,1166.91,497.87Z"/><path class="cls-24" d="M1171.21,498.47h-3.36a.81.81,0,0,1-.67-1L1168,492a.74.74,0,0,1,.67-.69h2.52a3.7,3.7,0,0,1,3.81,3.58h0A3.7,3.7,0,0,1,1171.21,498.47Z"/><path class="cls-32" d="M1171.21,496.32h-3.36a.61.61,0,0,1-.46-.22l-.21,1.37a.81.81,0,0,0,.67,1h3.36a3.7,3.7,0,0,0,3.81-3.58h0a3.38,3.38,0,0,0-.17-1.07A3.79,3.79,0,0,1,1171.21,496.32Z"/><path class="cls-33" d="M1195.46,511.8l5,2V502.67h-4.38a1.74,1.74,0,0,0-1.73,1.74v5.78A1.74,1.74,0,0,0,1195.46,511.8Z"/><path class="cls-15" d="M1195.36,504.4v5.78a.77.77,0,0,0,.62.69l1.12.33,2.41.71a1.05,1.05,0,0,0,1.35-1v-6.17a1.05,1.05,0,0,0-1-1.06h-3.47C1195.8,503.67,1195.36,504,1195.36,504.4Z"/><path class="cls-17" d="M1204.66,528.13h-9.94l-.14-7.49,6,.14a4.05,4.05,0,0,1,4,4.06Z"/><path class="cls-34" d="M1145.78,472.1h-7.35l-9,18.87V491a2.54,2.54,0,0,0,2.54,2.53h3.74L1146,472.11Z"/><polygon class="cls-34" points="1152.08 477.14 1148.29 473.53 1138.68 493.58 1144.2 493.58 1152.08 477.14"/><path class="cls-28" d="M1195.36,504.4v5.78a.77.77,0,0,0,.62.69l1.12.33v-7.53h-.76C1195.8,503.67,1195.36,504,1195.36,504.4Z"/><path class="cls-20" d="M1129.67,502.66h11A2.63,2.63,0,0,0,1138,500h-5.74a2.63,2.63,0,0,0-2.62,2.64Z"/><path class="cls-32" d="M991.8,442.78h116.86a2.18,2.18,0,0,0,2.17-2.19h0a2.18,2.18,0,0,0-2.17-2.19H991.8a2.18,2.18,0,0,0-2.17,2.19h0A2.18,2.18,0,0,0,991.8,442.78Z"/><path class="cls-32" d="M991.8,450.13h116.86a2.18,2.18,0,0,0,2.17-2.19h0a2.18,2.18,0,0,0-2.17-2.19H991.8a2.18,2.18,0,0,0-2.17,2.19h0A2.18,2.18,0,0,0,991.8,450.13Z"/><path class="cls-32" d="M991.8,457.47h116.86a2.18,2.18,0,0,0,2.17-2.19h0a2.18,2.18,0,0,0-2.17-2.19H991.8a2.18,2.18,0,0,0-2.17,2.19h0A2.18,2.18,0,0,0,991.8,457.47Z"/><path class="cls-32" d="M991.8,464.81h116.86a2.18,2.18,0,0,0,2.17-2.19h0a2.18,2.18,0,0,0-2.17-2.19H991.8a2.18,2.18,0,0,0-2.17,2.19h0A2.18,2.18,0,0,0,991.8,464.81Z"/><path class="cls-32" d="M991.8,472.16h116.86a2.18,2.18,0,0,0,2.17-2.19h0a2.18,2.18,0,0,0-2.17-2.19H991.8a2.18,2.18,0,0,0-2.17,2.19h0A2.18,2.18,0,0,0,991.8,472.16Z"/><path class="cls-32" d="M991.8,479.5h116.86a2.18,2.18,0,0,0,2.17-2.19h0a2.18,2.18,0,0,0-2.17-2.19H991.8a2.18,2.18,0,0,0-2.17,2.19h0A2.18,2.18,0,0,0,991.8,479.5Z"/><path class="cls-32" d="M991.8,486.84h116.86a2.18,2.18,0,0,0,2.17-2.19h0a2.18,2.18,0,0,0-2.17-2.19H991.8a2.18,2.18,0,0,0-2.17,2.19h0A2.18,2.18,0,0,0,991.8,486.84Z"/><path class="cls-32" d="M991.8,494.19h116.86a2.18,2.18,0,0,0,2.17-2.19h0a2.18,2.18,0,0,0-2.17-2.19H991.8a2.18,2.18,0,0,0-2.17,2.19h0A2.18,2.18,0,0,0,991.8,494.19Z"/><path class="cls-32" d="M991.8,501.53h116.86a2.18,2.18,0,0,0,2.17-2.19h0a2.18,2.18,0,0,0-2.17-2.19H991.8a2.18,2.18,0,0,0-2.17,2.19h0A2.18,2.18,0,0,0,991.8,501.53Z"/><path class="cls-32" d="M1168.35,485.1l8.1,7.76s15.51,4.68,19.36,5.6c3.49.83,4.17,2,4.27,2.24a5.08,5.08,0,0,0-3.48-3L1174.83,491Z"/><rect class="cls-35" x="-4.51" y="514.79" width="2504.5" height="68.57"/><rect class="cls-36" x="-4.51" y="549.08" width="2504.5" height="34.29"/><rect class="cls-37" x="75.97" y="583.4" width="133.37" height="4.91"/><rect class="cls-38" x="75.97" y="588.31" width="133.37" height="10.12"/><polygon class="cls-39" points="209.34 598.43 171.09 621.23 114.22 621.23 75.97 598.43 209.34 598.43"/><rect class="cls-35" x="114.22" y="621.23" width="56.87" height="145.9"/><polygon class="cls-40" points="142.66 583.4 142.66 767.13 114.22 767.13 114.22 621.23 75.97 598.43 75.97 583.4 142.66 583.4"/><rect class="cls-37" x="450.36" y="583.39" width="133.37" height="4.91"/><rect class="cls-38" x="450.36" y="588.3" width="133.37" height="10.12"/><polygon class="cls-39" points="583.73 598.42 545.48 621.22 488.61 621.22 450.36 598.42 583.73 598.42"/><rect class="cls-35" x="488.61" y="621.22" width="56.87" height="145.9"/><polygon class="cls-40" points="517.05 583.39 517.05 767.12 488.61 767.12 488.61 621.22 450.36 598.42 450.36 583.39 517.05 583.39"/><rect class="cls-37" x="824.74" y="583.38" width="133.37" height="4.91"/><rect class="cls-38" x="824.74" y="588.3" width="133.37" height="10.12"/><polygon class="cls-39" points="958.11 598.42 919.87 621.22 862.99 621.22 824.74 598.42 958.11 598.42"/><rect class="cls-35" x="863" y="621.22" width="56.87" height="145.9"/><polygon class="cls-40" points="891.44 583.38 891.44 767.11 863 767.11 863 621.22 824.75 598.42 824.75 583.38 891.44 583.38"/><polygon class="cls-41" points="919.87 650.18 919.87 767.12 863 767.12 862.99 621.22 824.74 598.42 824.74 583.39 857.1 583.38 861.71 588.3 871.23 598.42 892.66 621.22 919.87 650.18"/><rect class="cls-37" x="1199.14" y="583.37" width="133.37" height="4.91"/><rect class="cls-38" x="1199.14" y="588.28" width="133.37" height="10.12"/><polygon class="cls-39" points="1332.51 598.4 1294.26 621.21 1237.39 621.21 1199.14 598.41 1332.51 598.4"/><rect class="cls-35" x="1237.39" y="621.21" width="56.87" height="145.9"/><polygon class="cls-40" points="1265.83 583.37 1265.83 767.1 1237.39 767.1 1237.39 621.21 1199.14 598.41 1199.14 583.37 1265.83 583.37"/><rect class="cls-37" x="1573.53" y="583.36" width="133.37" height="4.91"/><rect class="cls-38" x="1573.53" y="588.27" width="133.37" height="10.12"/><polygon class="cls-39" points="1706.9 598.4 1668.65 621.2 1611.78 621.2 1573.53 598.4 1706.9 598.4"/><rect class="cls-35" x="1611.78" y="621.2" width="56.87" height="145.9"/><polygon class="cls-40" points="1640.22 583.36 1640.22 767.1 1611.78 767.1 1611.78 621.2 1573.53 598.4 1573.53 583.36 1640.22 583.36"/><rect class="cls-37" x="1947.92" y="583.35" width="133.37" height="4.91"/><rect class="cls-38" x="1947.92" y="588.26" width="133.37" height="10.12"/><polygon class="cls-39" points="2081.29 598.39 2043.04 621.19 1986.17 621.19 1947.92 598.39 2081.29 598.39"/><rect class="cls-35" x="1986.17" y="621.19" width="56.87" height="145.9"/><polygon class="cls-40" points="2014.61 583.35 2014.61 767.09 1986.17 767.09 1986.17 621.19 1947.92 598.39 1947.92 583.36 2014.61 583.35"/><rect class="cls-37" x="2322.31" y="583.34" width="133.37" height="4.91"/><rect class="cls-38" x="2322.31" y="588.26" width="133.37" height="10.12"/><polygon class="cls-39" points="2455.68 598.38 2417.43 621.18 2360.56 621.18 2322.31 598.38 2455.68 598.38"/><rect class="cls-35" x="2360.56" y="621.18" width="56.87" height="145.9"/><polygon class="cls-40" points="2389 583.35 2389 767.08 2360.56 767.08 2360.56 621.18 2322.31 598.38 2322.31 583.35 2389 583.35"/><rect class="cls-42" x="-4.49" y="847.92" width="2504.5" height="551.6"/><rect class="cls-43" x="-4.49" y="1210.95" width="2504.5" height="188.57"/><rect class="cls-20" x="-4.49" y="1305.24" width="2504.5" height="94.76"/><rect class="cls-15" x="-4.5" y="870.11" width="2504.5" height="10.08"/><rect class="cls-15" x="-4.49" y="1087.67" width="2504.5" height="10.08"/><polygon class="cls-15" points="82.54 926.61 2.03 926.61 -2.75 936.69 77.76 936.69 82.54 926.61"/><polygon class="cls-15" points="1199.42 926.58 555.02 926.59 550.24 936.68 1194.64 936.66 1199.42 926.58"/><polygon class="cls-15" points="1382.11 926.58 1296.08 926.58 1300.86 936.66 1386.89 936.66 1382.11 926.58"/><polygon class="cls-15" points="1568.44 926.57 1485.92 926.57 1490.7 936.66 1573.22 936.65 1568.44 926.57"/><polygon class="cls-15" points="1754.78 926.57 1672.26 926.57 1677.04 936.65 1759.56 936.65 1754.78 926.57"/><polygon class="cls-15" points="1941.11 926.56 1858.59 926.56 1863.37 936.65 1945.89 936.65 1941.11 926.56"/><polygon class="cls-15" points="2127.45 926.56 2044.93 926.56 2049.71 936.64 2132.23 936.64 2127.45 926.56"/><polygon class="cls-15" points="2313.78 926.55 2231.26 926.56 2236.04 936.64 2318.56 936.64 2313.78 926.55"/><polygon class="cls-15" points="2417.6 926.55 2422.38 936.64 2500 936.63 2500 926.55 2417.6 926.55"/><rect class="cls-44" x="-2.75" y="899.97" width="2501.88" height="86.34"/><rect class="cls-44" x="-2.75" y="1123.72" width="2501.88" height="53.97"/><rect class="cls-45" x="-4.5" y="760.02" width="2504.5" height="87.9"/><rect class="cls-36" x="-4.5" y="803.97" width="2504.5" height="43.96"/><rect class="cls-35" x="1491.12" y="626.47" width="9.83" height="133.54"/><rect class="cls-35" x="1308.3" y="626.47" width="9.83" height="133.54"/><rect class="cls-46" x="1308.29" y="626.47" width="9.83" height="19.23"/><rect class="cls-46" x="1491.12" y="626.47" width="9.83" height="19.23"/><path class="cls-47" d="M1598.36,606.83l-24,16-20.56,13.68a7.31,7.31,0,0,1-4,1.22h-281a7.34,7.34,0,0,1-7.31-7.37V571a7.34,7.34,0,0,1,7.31-7.36h281a7.3,7.3,0,0,1,4,1.22l44.53,29.65A7.39,7.39,0,0,1,1598.36,606.83Z"/><path class="cls-15" d="M1543.28,633.36H1273.5c-4.43,0-8-3.28-8-7.31V575.33c0-4,3.6-7.31,8-7.31h269.78a8.59,8.59,0,0,1,4.38,1.19l42.76,25.37a7,7,0,0,1,0,12.25l-42.75,25.37A8.59,8.59,0,0,1,1543.28,633.36ZM1273.5,570c-3.32,0-6,2.38-6,5.29v50.73c0,2.92,2.7,5.29,6,5.29h269.78a6.6,6.6,0,0,0,3.37-.91l42.75-25.37a5,5,0,0,0,0-8.78l-42.76-25.37a6.6,6.6,0,0,0-3.37-.91Z"/><path class="cls-36" d="M1574.39,622.8l-20.56,13.68a7.3,7.3,0,0,1-4,1.22h-281a7.34,7.34,0,0,1-7.31-7.37V622.8Z"/><rect class="cls-43" x="-4.5" y="685.03" width="2504.5" height="5.74"/><rect class="cls-43" x="-4.5" y="705.26" width="2504.5" height="5.74"/><rect class="cls-43" x="-4.5" y="725.48" width="2504.5" height="5.74"/><rect class="cls-43" x="-4.5" y="745.71" width="2504.63" height="5.74"/><rect class="cls-43" x="163.8" y="685.06" width="5.01" height="74.98"/><rect class="cls-43" x="907.14" y="685.04" width="5.01" height="74.98"/><rect class="cls-43" x="1278.8" y="685.03" width="5.01" height="74.98"/><rect class="cls-43" x="1650.47" y="685.03" width="5.01" height="74.98"/><rect class="cls-43" x="2022.14" y="685.02" width="5.01" height="74.98"/><rect class="cls-43" x="2393.81" y="685.01" width="5.01" height="74.98"/><rect class="cls-48" x="-9" y="1222.5" width="2509.01" height="20.84"/><rect class="cls-48" x="-9" y="1279.58" width="2509.01" height="20.84"/><rect class="cls-48" x="-9" y="1336.66" width="2509.01" height="20.84"/><rect class="cls-48" x="130.22" y="1222.53" width="20.57" height="177.02"/><rect class="cls-48" x="605.98" y="1222.51" width="20.57" height="177.02"/><rect class="cls-48" x="1081.73" y="1222.5" width="20.57" height="177.02"/><rect class="cls-48" x="1557.49" y="1222.49" width="20.57" height="177.02"/><rect class="cls-48" x="2033.25" y="1222.48" width="20.57" height="177.02"/><rect class="cls-43" x="-4.51" y="496.49" width="2504.5" height="2.02"/><rect class="cls-43" x="-4.51" y="501.78" width="2504.5" height="2.02"/><rect class="cls-43" x="-4.51" y="507.08" width="2504.5" height="2.02"/><rect class="cls-43" x="42.24" y="496.52" width="1.84" height="18.31"/><rect class="cls-43" x="142.76" y="496.52" width="1.84" height="18.31"/><rect class="cls-43" x="243.27" y="496.51" width="1.84" height="18.31"/><rect class="cls-43" x="343.78" y="496.51" width="1.84" height="18.31"/><rect class="cls-43" x="444.3" y="496.51" width="1.84" height="18.31"/><rect class="cls-43" x="544.81" y="496.51" width="1.84" height="18.31"/><rect class="cls-43" x="645.33" y="496.5" width="1.84" height="18.31"/><rect class="cls-43" x="745.84" y="496.5" width="1.84" height="18.31"/><rect class="cls-43" x="846.35" y="496.5" width="1.84" height="18.31"/><rect class="cls-43" x="946.87" y="496.5" width="1.84" height="18.31"/><rect class="cls-43" x="1047.38" y="496.49" width="1.84" height="18.31"/><rect class="cls-43" x="1147.9" y="496.49" width="1.84" height="18.31"/><rect class="cls-43" x="1248.41" y="496.49" width="1.84" height="18.31"/><rect class="cls-43" x="1348.92" y="496.49" width="1.84" height="18.31"/><rect class="cls-43" x="1449.44" y="496.49" width="1.84" height="18.31"/><rect class="cls-43" x="1549.95" y="496.48" width="1.84" height="18.31"/><rect class="cls-43" x="1650.47" y="496.48" width="1.84" height="18.31"/><rect class="cls-43" x="1750.98" y="496.48" width="1.84" height="18.31"/><rect class="cls-43" x="1851.49" y="496.48" width="1.84" height="18.31"/><rect class="cls-43" x="1952.01" y="496.47" width="1.84" height="18.31"/><rect class="cls-43" x="2052.52" y="496.47" width="1.84" height="18.31"/><rect class="cls-43" x="2153.04" y="496.47" width="1.84" height="18.31"/><rect class="cls-43" x="2253.55" y="496.47" width="1.84" height="18.31"/><rect class="cls-43" x="2354.06" y="496.46" width="1.84" height="18.31"/><rect class="cls-43" x="2454.58" y="496.46" width="1.84" height="18.31"/><polygon class="cls-41" points="857.09 583.38 -4.51 583.39 -4.51 514.82 792.65 514.8 857.09 583.38"/><rect class="cls-43" x="725.53" y="691" width="5" height="74.36"/><polygon class="cls-49" points="325.74 945.96 185.37 945.96 188.26 936.54 328.65 936.54 325.74 945.96"/><path class="cls-50" d="M1515.11,621.43h-3.64a1,1,0,0,1-1-.71l-.7-4.75a1.05,1.05,0,0,1,1.09-1.21h4.94a1.05,1.05,0,0,1,1.09,1.21l-.7,4.75A1,1,0,0,1,1515.11,621.43Z"/><path class="cls-50" d="M1539.92,621.43h-3.64a1,1,0,0,1-1-.71l-.7-4.75a1.05,1.05,0,0,1,1.09-1.21h4.94a1.05,1.05,0,0,1,1.09,1.21l-.7,4.75A1,1,0,0,1,1539.92,621.43Z"/><path class="cls-51" d="M1539.64,603.78c10.7-10.7-11.49-30.67-19.39-22.76"/><path class="cls-50" d="M1543.69,603.22l-1-.33a.94.94,0,0,0-.63,0l-2.47.88-4.06-5a1.88,1.88,0,0,0-1.46-.7h-16.83a1.88,1.88,0,0,0-1.47.7l-4.06,5-2.47-.88a.94.94,0,0,0-.63,0l-1,.33a.94.94,0,0,0-.63.89.64.64,0,0,0,.27.53l1.14.79a.94.94,0,0,0,.54.17h.78a19.21,19.21,0,0,0-1.36,9.73A1.88,1.88,0,0,0,1510,617a109.73,109.73,0,0,0,31.33,0,1.88,1.88,0,0,0,1.59-1.64,19.21,19.21,0,0,0-1.36-9.73h.78a.94.94,0,0,0,.54-.17l1.14-.79a.64.64,0,0,0,.28-.53A.94.94,0,0,0,1543.69,603.22Zm-28.35,1,2.19-2.72a1.56,1.56,0,0,1,1.21-.58h13.89a1.55,1.55,0,0,1,1.21.58l2.2,2.72Z"/><path class="cls-52" d="M1513.77,590.94l-3.67-4a2,2,0,0,1,.12-2.77l1.59-1.46c.79-.73,6-4.32,6.74-3.53l3.67,4c.73.79-3.3,5.69-4.1,6.41l-1.59,1.46A2,2,0,0,1,1513.77,590.94Z"/><rect class="cls-52" x="1512.87" y="588.94" width="1.4" height="4.86" rx="0.66" ry="0.66" transform="translate(926.63 -923.92) rotate(47.49)"/><rect class="cls-52" x="1508.97" y="584.68" width="1.4" height="4.86" rx="0.66" ry="0.66" transform="translate(920.86 -921.9) rotate(47.43)"/><rect class="cls-52" x="1507.58" y="586.31" width="11.07" height="3.12" rx="1.47" ry="1.47" transform="translate(923.77 -924.67) rotate(47.48)"/><rect class="cls-15" x="1289.94" y="609.48" width="196.29" height="5.9"/><rect class="cls-15" x="1289.94" y="591.12" width="196.29" height="5.9"/><path class="cls-41" d="M1382.75,644.07H1271a7.3,7.3,0,0,1-7.3-7.31V578a7.3,7.3,0,0,1,7.3-7.3h60.54Z"/><rect class="cls-53" x="959.76" y="1120.74" width="84.2" height="23.86"/><rect class="cls-54" x="1043.96" y="1120.74" width="84.2" height="23.86"/><rect class="cls-53" x="1128.16" y="1120.74" width="84.2" height="23.86"/><rect class="cls-54" x="1212.36" y="1120.74" width="84.19" height="23.86"/><rect class="cls-53" x="1296.55" y="1120.74" width="84.2" height="23.86"/><rect class="cls-54" x="1380.75" y="1120.74" width="84.2" height="23.86"/><path class="cls-55" d="M1559.89,1202H938.73a8.87,8.87,0,0,1-8-12.76l16.83-34.49a8.87,8.87,0,0,1,8-5h587.5a8.87,8.87,0,0,1,8,5l16.83,34.49A8.87,8.87,0,0,1,1559.89,1202Z"/><polyline class="cls-56" points="1140.18 1071.98 1137.27 1072.11 1137.27 1072.11 1140.18 1071.98"/><path class="cls-55" d="M2407.16,1083.36H1281.92c-11.87,0-19.65-6.84-14.44-12.7L1298,1036.3c2.69-3,8.3-5,14.44-5H2376.68c6.14,0,11.75,1.92,14.44,5l30.48,34.35C2426.81,1076.52,2419,1083.36,2407.16,1083.36Z"/><path class="cls-57" d="M2287.29,971.36l-.35.13Z"/><path class="cls-57" d="M2355,971.08c14.71,5.27,25.89,19,28.11,36v0C2380.85,990,2369.68,976.34,2355,971.08Z"/><path class="cls-57" d="M2289.42,970.62l-.62.2Z"/><path class="cls-57" d="M2285.1,972.27l-.36.17Z"/><path class="cls-57" d="M2283.32,973.12l-.58.31Z"/><path class="cls-57" d="M2281.58,974.07l-.62.37Z"/><path class="cls-57" d="M2297.38,969l-.69.08Z"/><path class="cls-57" d="M2295.37,969.22l-.74.12Z"/><path class="cls-57" d="M2293.38,969.58l-.74.16Z"/><path class="cls-57" d="M2271.59,982l0,0,0,0Z"/><path class="cls-57" d="M2299.4,968.8l-.53,0Z"/><path class="cls-57" d="M2291.41,970l-.71.19Z"/><path class="cls-57" d="M2276.53,977.47l-.46.36Z"/><path class="cls-57" d="M2274.79,978.91l-.23.2Z"/><path class="cls-57" d="M2278.2,976.23l-.56.4Z"/><path class="cls-57" d="M2257.11,1024.51c0,.06,0,.11,0,.17s0-.12,0-.18l.94-5.85h0Z"/><path class="cls-57" d="M2279.88,975.1l-.61.4Z"/><path class="cls-24" d="M1312.93,968.1,1308,981.93a12,12,0,0,0,5.9,1.54h7.69V968.11Z"/><path class="cls-24" d="M2261,1001.74c.07-.27.15-.54.22-.81,0,.18-.11.35-.16.53S2261,1001.64,2261,1001.74Z"/><polygon class="cls-24" points="1556.8 990.07 2025.68 990.07 2025.68 968.68 1556.8 968.48 1556.8 990.07"/><path class="cls-24" d="M1552,990.07h40.14V968.48l-209-.29v15.28h41.08a53.8,53.8,0,0,1,82.52,35.18h35.15v-18.45A10.13,10.13,0,0,1,1552,990.07Z"/><path class="cls-24" d="M2260.88,1002.06c-.3,1.21-.56,2.43-.76,3.68l-2.07,12.91h0l2.08-12.91C2260.33,1004.49,2260.58,1003.27,2260.88,1002.06Z"/><path class="cls-24" d="M2091.63,939.49a12.11,12.11,0,0,0-7.13,2.33l-14.16,10.35v16.57l-44.66-.06v21.39h38.4a10.13,10.13,0,0,1,10.13,10.13v18.45h19.39V939.49Z"/><path class="cls-24" d="M2270,983.87l-.29.36Z"/><path class="cls-24" d="M2268.14,986.22l0,.07Z"/><path class="cls-24" d="M2271.55,982.07l0-.05h0Z"/><path class="cls-24" d="M2261.95,998.36c-.09.27-.18.55-.26.83C2261.77,998.91,2261.85,998.63,2261.95,998.36Z"/><path class="cls-24" d="M2265.25,990.79l-.08.15Z"/><path class="cls-24" d="M2264.07,993.1l-.33.7Z"/><path class="cls-24" d="M2266.77,988.26l-.33.53Z"/><path class="cls-24" d="M2263,995.59l-.23.54C2262.82,995.95,2262.9,995.77,2263,995.59Z"/><rect class="cls-58" x="1321.59" y="983.47" width="61.57" height="19.79"/><polygon class="cls-58" points="1321.59 968.11 1321.59 983.47 1383.16 983.47 1383.16 968.19 1321.59 968.11"/><path class="cls-59" d="M2048.33,943.77a3.9,3.9,0,0,1,3.9,3.9v2.22a3.9,3.9,0,0,1-3.9,3.9h-22.65v5.49h31a12.07,12.07,0,0,0,7.14-2.33l6-4.39.53-.39V641.41l-44.66-.08V943.77Z"/><rect class="cls-59" x="1556.8" y="953.79" width="468.88" height="5.49"/><path class="cls-59" d="M1301.79,971.38a12.1,12.1,0,0,1,12.1-12.1h278.28v-5.49H1294.7a3.9,3.9,0,0,1-3.9-3.9v-2.22a3.9,3.9,0,0,1,3.9-3.9h297.47V641l-327.77-.61V851.67h14.23a3.42,3.42,0,0,1,3.42,3.42v23a3.42,3.42,0,0,1-3.42,3.42H1264.4v12.6h14.23a3.42,3.42,0,0,1,3.42,3.42v23a3.42,3.42,0,0,1-3.42,3.42H1264.4v71.65a5.42,5.42,0,0,1,3.27-1.09h28.6a5.45,5.45,0,0,1,5.43,5.1l6.29-17.63h0A12.06,12.06,0,0,1,1301.79,971.38Z"/><polygon class="cls-59" points="2025.68 943.77 2025.68 641.32 1556.8 641.05 1556.8 943.77 2025.68 943.77"/><polygon class="cls-59" points="1556.8 959.28 1556.8 968.48 2025.68 968.68 2025.68 959.28 1556.8 959.28"/><path class="cls-59" d="M1321.59,968.11v-8.82h61.57v8.91l209,.29v-9.19H1313.89a12.09,12.09,0,0,0-5.9,22.65h0l4.94-13.84Z"/><path class="cls-59" d="M2063.8,957a12.07,12.07,0,0,1-7.14,2.33h-31v9.4l44.66.06V952.18l-.53.39Z"/><polygon class="cls-59" points="1321.59 959.29 1321.59 968.11 1383.16 968.19 1383.16 959.29 1321.59 959.29"/><path class="cls-20" d="M1321.59,1009.86v-6.6h-4.47a4.33,4.33,0,0,0-4.33,4.33v11.14a4.33,4.33,0,0,0,4.33,4.33h70.51a4.33,4.33,0,0,0,4.33-4.33v-11.14a4.33,4.33,0,0,0-4.33-4.33h-4.47v6.6Z"/><rect class="cls-20" x="1321.59" y="1003.26" width="61.57" height="6.6"/><path class="cls-60" d="M2048.33,953.79a3.9,3.9,0,0,0,3.9-3.9v-2.22a3.9,3.9,0,0,0-3.9-3.9h-22.65v10Z"/><path class="cls-60" d="M1294.7,943.77a3.9,3.9,0,0,0-3.9,3.9v2.22a3.9,3.9,0,0,0,3.9,3.9h297.47v-10Z"/><rect class="cls-60" x="1556.8" y="943.77" width="468.88" height="10.02"/><path class="cls-20" d="M1541.9,1018.65v9.18A10.13,10.13,0,0,0,1552,1038h40.14v-19.31Z"/><rect class="cls-20" x="1556.8" y="1018.65" width="468.88" height="19.31"/><path class="cls-20" d="M2025.68,1038h38.4a10.13,10.13,0,0,0,10.13-10.13v-9.18h-48.53Z"/><rect class="cls-20" x="1556.8" y="990.07" width="468.88" height="28.58"/><path class="cls-20" d="M1592.17,990.07H1552a10.13,10.13,0,0,0-10.13,10.13v18.45h50.27Z"/><path class="cls-20" d="M2064.08,990.07h-38.4v28.58h48.53v-18.45A10.13,10.13,0,0,0,2064.08,990.07Z"/><path class="cls-20" d="M1264.4,1005.48v-9.91a5.44,5.44,0,0,0-2.19,4.36v17.68a5.45,5.45,0,0,0,5.45,5.45h28.6a5.45,5.45,0,0,0,5.45-5.45V999.92c0-.12,0-.24,0-.36l-2.11,5.91Z"/><path class="cls-20" d="M1296.27,994.47h-28.6a5.42,5.42,0,0,0-3.27,1.09v9.91h35.19l2.11-5.91A5.45,5.45,0,0,0,1296.27,994.47Z"/><path class="cls-61" d="M1263.49,894.09c-1.89,0-1.89,29.82,0,29.82h.91V894.09Z"/><path class="cls-61" d="M1282.06,920.49v-23a3.42,3.42,0,0,0-3.42-3.42H1264.4v29.82h14.23A3.42,3.42,0,0,0,1282.06,920.49Z"/><path class="cls-62" d="M1263.49,851.67c-1.89,0-1.89,29.82,0,29.82h.91V851.67Z"/><path class="cls-62" d="M1282.06,878.07v-23a3.42,3.42,0,0,0-3.42-3.42H1264.4v29.82h14.23A3.42,3.42,0,0,0,1282.06,878.07Z"/><path class="cls-63" d="M2104.2,939.49h6.34c.11-22.51.19-42,.17-45.34l-.58-74.89a17.42,17.42,0,0,1,4.4-12,16.67,16.67,0,0,1,12.43-5.48h64.82a16.76,16.76,0,0,1,11.57,4.61l80.42,76.17a16.42,16.42,0,0,1,4.44,7.28h1.7a15.12,15.12,0,0,1,14.5,9.94h0l0,.15q.17.53.3,1.07c0,.13.06.27.08.4q.09.45.15.91c0,.13,0,.26,0,.39,0,.43.07.87.07,1.31,0,7.84-6.8,14.19-15.2,14.19h-3.7c-2.87,19.33-7.79,43.42-13.41,45.56-.41.16-.8.33-1.2.5V982l0,0q1.41-1.52,3-2.89l.23-.2q.63-.55,1.28-1.08l.46-.36c.36-.29.73-.57,1.11-.84l.56-.4,1.07-.73.61-.4,1.08-.67.62-.37,1.16-.64.58-.31c.47-.24.94-.47,1.42-.69l.36-.17q.91-.41,1.84-.77l.35-.13c.5-.19,1-.37,1.51-.55l.62-.2,1.28-.39.71-.19,1.23-.3.74-.16,1.25-.24.74-.12,1.32-.18.69-.08c.5-.05,1-.09,1.5-.12l.53,0c.69,0,1.37-.06,2.07-.06h40.09a39.7,39.7,0,0,1,13.41,2.33c14.7,5.26,25.88,19,28.11,36l0-1.05,23.49.54V970.66h0v8.21l-20-7.85a6.9,6.9,0,0,1-4.38-6.42V941.73a6.9,6.9,0,0,1,6.9-6.9h17.47s0,0,0,0v4.91h0v-4.92a20,20,0,0,0-1.52-7.66l-.06-.14-.06-.12c-.56-1.1-3.62-5.56-17-8.73-15.34-3.65-77.17-22.2-77.17-22.2l-32.28-30.75,22.28,20.12-22.28-20.12-69.57-62.83a27,27,0,0,0-17.55-6.94l-77.86-1.5a9.16,9.16,0,0,0-9.32,9.16v1h0Z"/><polygon class="cls-63" points="2314.59 891.73 2304.31 888.57 2304.31 888.58 2314.59 891.73"/><path class="cls-63" d="M2284.06,918.22h-7.54c-1.69,0-3-1.91-2.65-4l1.35-8.81a11.3,11.3,0,0,1-2.72.34h-145a11.75,11.75,0,0,1-11.75-11.66l-.59-75.4a11.75,11.75,0,0,1,11.75-11.84h64.82a11.75,11.75,0,0,1,8.08,3.22l80.42,76.17a11.3,11.3,0,0,1,2.54,3.59h3.11a14.23,14.23,0,0,0-3.65-5.7L2201.84,808a14.59,14.59,0,0,0-10.08-4h-64.82a14.52,14.52,0,0,0-10.83,4.78,15.26,15.26,0,0,0-3.83,10.51l.58,74.89c0,3.36-.05,22.64-.16,45.36h146.78a12.1,12.1,0,0,1,12.1,12.1v10.34l.43-.18C2276.28,960.13,2281.13,937.23,2284.06,918.22Zm-161.18-2.37a1.09,1.09,0,0,1,0-2.17h149.84a1.09,1.09,0,1,1,0,2.17Z"/><path class="cls-63" d="M2257.08,1024.68c0-.06,0-.11,0-.17l.94-5.86h-26.71a14,14,0,0,1-4.68.8H2120.17a10,10,0,0,1-3.93-.8h-12v2.52h0v14.54H2244a13.3,13.3,0,0,0,13-10.68h0Z"/><path class="cls-63" d="M2260.88,1002.06l.08-.33c0-.09,0-.19.07-.28s.11-.35.16-.53q.24-.88.51-1.74c.09-.28.17-.55.26-.83.25-.75.52-1.49.8-2.23l.23-.54q.37-.91.77-1.79l.33-.7c.35-.73.71-1.45,1.09-2.16l.08-.15c.38-.68.77-1.35,1.18-2l.33-.53c.43-.67.87-1.33,1.33-2l0-.07c.49-.68,1-1.35,1.54-2l.29-.36c.51-.62,1-1.22,1.57-1.8l0-.05V964.28c-20.33,8.52-28.44,31.47-31.48,44.56a13.65,13.65,0,0,1-8.77,9.82h26.71l2.07-12.91C2260.32,1004.49,2260.58,1003.27,2260.88,1002.06Z"/><path class="cls-63" d="M2259.49,939.49H2112.71c-.12,24.56-.28,53.13-.37,69.93a7.82,7.82,0,0,0,7.83,7.86h106.49a11.55,11.55,0,0,0,11.34-8.93c3.17-13.68,11.76-37.8,33.59-46.42V951.59A12.1,12.1,0,0,0,2259.49,939.49Z"/><path class="cls-63" d="M2110.17,1009.41c.08-13.56.24-43.76.37-69.91h-6.34v79.16h12a10,10,0,0,1-6.07-9.25Z"/><path d="M2259.49,1018.65h-1.44l-.94,5.85c0,.06,0,.12,0,.18s0,.24-.07.35h10.57a53.64,53.64,0,0,1,2.12-12A12.08,12.08,0,0,1,2259.49,1018.65Z"/><path d="M2355,971.08a39.72,39.72,0,0,0-13.42-2.33h-40.09c-.69,0-1.38,0-2.07.06l-.53,0c-.5,0-1,.07-1.5.12l-.69.08-1.32.18-.74.12-1.25.24-.74.16-1.23.3-.71.19-1.28.39-.62.2c-.51.17-1,.35-1.51.55l-.35.13q-.93.36-1.84.77l-.36.17c-.48.22-1,.45-1.42.69l-.58.31-1.16.64-.62.37-1.08.67-.61.4-1.07.73-.56.4c-.37.27-.74.56-1.11.84l-.46.36q-.65.53-1.28,1.08l-.23.2q-1.54,1.37-3,2.89l0,0v24.55a12.16,12.16,0,0,1-.08,1.34A53.81,53.81,0,0,1,2375,1025h8.45l-.33-17.92C2380.87,990.05,2369.69,976.34,2355,971.08Z"/><path d="M2270,983.87l-.29.36c-.53.65-1,1.31-1.54,2l0,.07c-.46.64-.9,1.3-1.33,2l-.33.53c-.41.66-.81,1.33-1.18,2l-.08.15c-.39.7-.75,1.43-1.09,2.16l-.33.7q-.4.88-.77,1.79c-.07.18-.15.36-.23.54-.29.73-.55,1.47-.8,2.23-.09.27-.18.55-.26.83q-.27.86-.51,1.74c-.07.27-.15.54-.22.81l-.08.33c-.29,1.21-.55,2.43-.75,3.68l-2.08,12.91h1.44a12.08,12.08,0,0,0,10.21-5.61,53.42,53.42,0,0,1,1.81-5.13,12.16,12.16,0,0,0,.08-1.34V982l0,.05C2271,982.65,2270.48,983.25,2270,983.87Z"/><path d="M2277.64,976.63c-.37.27-.74.56-1.11.84C2276.9,977.19,2277.27,976.9,2277.64,976.63Z"/><path d="M2276.07,977.83q-.65.53-1.28,1.08Q2275.42,978.36,2276.07,977.83Z"/><path d="M2279.27,975.5l-1.07.73Z"/><path d="M2298.88,968.84c-.5,0-1,.07-1.5.12C2297.87,968.91,2298.37,968.87,2298.88,968.84Z"/><path d="M2290.7,970.24l-1.28.39Z"/><path d="M2288.8,970.82c-.51.17-1,.35-1.51.55C2287.79,971.17,2288.29,971,2288.8,970.82Z"/><path d="M2292.64,969.74l-1.23.3Z"/><path d="M2286.94,971.49q-.93.36-1.84.77Q2286,971.86,2286.94,971.49Z"/><path d="M2282.74,973.43l-1.16.64Z"/><path d="M2284.75,972.44c-.48.22-1,.45-1.42.69C2283.79,972.88,2284.27,972.66,2284.75,972.44Z"/><path d="M2281,974.43l-1.08.67Z"/><path d="M2296.69,969l-1.32.18Z"/><path d="M2294.63,969.34l-1.25.24Z"/><path d="M2271.61,982q1.41-1.52,3-2.89Q2273,980.48,2271.61,982Z"/><path d="M2301.47,968.74c-.69,0-1.38,0-2.07.06.69,0,1.38-.06,2.07-.06h40.09a39.72,39.72,0,0,1,13.42,2.33,39.7,39.7,0,0,0-13.41-2.33Z"/><path d="M2257,1025h0c0-.12.05-.23.07-.35Z"/><path d="M2271.55,982.07c-.54.58-1.06,1.19-1.57,1.8C2270.48,983.25,2271,982.65,2271.55,982.07Z"/><path d="M2265.17,990.94c-.38.7-.75,1.43-1.09,2.16C2264.42,992.37,2264.78,991.64,2265.17,990.94Z"/><path d="M2266.43,988.78c-.41.66-.81,1.33-1.18,2C2265.63,990.11,2266,989.44,2266.43,988.78Z"/><path d="M2268.09,986.29c-.46.64-.9,1.3-1.33,2C2267.19,987.59,2267.63,986.93,2268.09,986.29Z"/><path d="M2262.75,996.13c-.29.73-.55,1.47-.8,2.23C2262.2,997.6,2262.46,996.86,2262.75,996.13Z"/><path d="M2269.68,984.22c-.53.65-1,1.31-1.54,2C2268.63,985.54,2269.15,984.87,2269.68,984.22Z"/><path d="M2263.75,993.8q-.4.88-.77,1.79Q2263.34,994.68,2263.75,993.8Z"/><path d="M2261.68,999.18q-.27.86-.51,1.74Q2261.41,1000,2261.68,999.18Z"/><path d="M2261,1001.74l-.08.33Z"/><path class="cls-64" d="M2098.9,800.28c-2.93,0-5.3,1.73-5.3,3.86V939.49h5.3Z"/><path class="cls-64" d="M2098.9,1018.65V1025h0c2.93,0,5.3-1.73,5.3-3.86v-2.52Z"/><path class="cls-64" d="M2104.2,939.49V804.14c0-2.13-2.37-3.86-5.3-3.86h0V939.49Z"/><path class="cls-64" d="M2093.6,1018.65v2.52c0,2.13,2.37,3.86,5.3,3.86v-6.38Z"/><rect class="cls-64" x="2093.6" y="939.49" width="5.3" height="79.16"/><rect class="cls-64" x="2098.9" y="939.49" width="5.3" height="79.16"/><polygon class="cls-64" points="2104.2 939.49 2104.2 804.14 2104.2 804.14 2104.2 939.49 2104.2 939.49"/><polygon class="cls-64" points="2104.2 1018.65 2104.2 1018.65 2104.2 1021.18 2104.2 1021.18 2104.2 1018.65"/><rect class="cls-64" x="2104.2" y="939.49" height="79.16"/><path class="cls-64" d="M2272,961.75l-.43.18v2.35c.4-.17.79-.34,1.2-.5,5.61-2.14,10.53-26.23,13.41-45.56h-2.14C2281.13,937.23,2276.28,960.13,2272,961.75Z"/><path class="cls-64" d="M2112.88,894.13l-.58-74.89a15.26,15.26,0,0,1,3.83-10.51,14.52,14.52,0,0,1,10.83-4.78h64.82a14.59,14.59,0,0,1,10.08,4l80.42,76.17a14.23,14.23,0,0,1,3.65,5.7h2.28a16.42,16.42,0,0,0-4.44-7.28l-80.42-76.17a16.76,16.76,0,0,0-11.57-4.61h-64.82a16.67,16.67,0,0,0-12.43,5.48,17.42,17.42,0,0,0-4.4,12l.58,74.89c0,3.32-.06,22.83-.17,45.34h2.17C2112.82,916.78,2112.9,897.49,2112.88,894.13Z"/><path class="cls-64" d="M2120.17,1019.45h106.49a14,14,0,0,0,4.68-.8h-115.1A10,10,0,0,0,2120.17,1019.45Z"/><path class="cls-64" d="M2240.11,1008.84c3-13.09,11.15-36,31.48-44.56v-2.35c-21.84,8.61-30.42,32.74-33.59,46.42a11.55,11.55,0,0,1-11.34,8.93H2120.17a7.82,7.82,0,0,1-7.83-7.86c.09-16.8.25-45.37.37-69.93h-2.17c-.13,26.16-.29,56.36-.37,69.91a10,10,0,0,0,6.07,9.25h115.1A13.65,13.65,0,0,0,2240.11,1008.84Z"/><path class="cls-34" d="M2279.83,889.84h3a11.3,11.3,0,0,0-2.54-3.59l-80.42-76.17a11.75,11.75,0,0,0-8.08-3.22h-64.82a11.75,11.75,0,0,0-11.75,11.84l.59,75.4a11.75,11.75,0,0,0,11.75,11.66h145a11.3,11.3,0,0,0,2.72-.34l2-12.86A2.93,2.93,0,0,1,2279.83,889.84Z"/><polygon class="cls-34" points="2213.61 833.76 2182.2 898.85 2160.18 898.85 2198.5 819.45 2213.61 833.76"/><path class="cls-34" d="M2189.21,813.82l-41,85h-14.92a10.11,10.11,0,0,1-10.11-10v-.3l36.07-74.74h29.28C2188.73,813.78,2189,813.8,2189.21,813.82Z"/><path class="cls-65" d="M2321.27,1060.4a32,32,0,0,0,32-32,32.33,32.33,0,0,0-.18-3.37h-63.61a32.33,32.33,0,0,0-.18,3.37A32,32,0,0,0,2321.27,1060.4Z"/><path class="cls-65" d="M2321.27,996.43a32,32,0,0,0-31.8,28.61h63.61A32,32,0,0,0,2321.27,996.43Z"/><path class="cls-20" d="M2358.92,1028.41a37.65,37.65,0,1,1-75.3,0c0-1.14.06-2.26.16-3.37h-16.21c-.07,1.12-.12,2.24-.12,3.37a53.82,53.82,0,1,0,107.63,0c0-1.13,0-2.26-.12-3.37h-16.21C2358.86,1026.15,2358.92,1027.27,2358.92,1028.41Z"/><path class="cls-20" d="M2321.27,974.6a53.83,53.83,0,0,0-49.76,33.31,12,12,0,0,1-1.81,5.13,53.64,53.64,0,0,0-2.12,12h16.21a37.64,37.64,0,0,1,75,0H2375A53.81,53.81,0,0,0,2321.27,974.6Z"/><path class="cls-20" d="M2271.51,1007.91a53.42,53.42,0,0,0-1.81,5.13A12,12,0,0,0,2271.51,1007.91Z"/><path class="cls-65" d="M2353.26,1028.41a32,32,0,1,1-64,0,32.33,32.33,0,0,1,.18-3.37H2287c-.11,1.11-.17,2.24-.17,3.37a34.44,34.44,0,1,0,68.88,0c0-1.14-.06-2.26-.17-3.37h-2.47A32.33,32.33,0,0,1,2353.26,1028.41Z"/><path class="cls-65" d="M2321.27,994A34.44,34.44,0,0,0,2287,1025h2.47a32,32,0,0,1,63.61,0h2.47A34.44,34.44,0,0,0,2321.27,994Z"/><path class="cls-65" d="M2321.27,1066.06a37.65,37.65,0,0,0,37.65-37.65c0-1.14-.06-2.26-.16-3.37h-3.22c.11,1.11.17,2.24.17,3.37a34.44,34.44,0,1,1-68.88,0c0-1.14.06-2.26.17-3.37h-3.22c-.1,1.11-.16,2.24-.16,3.37A37.65,37.65,0,0,0,2321.27,1066.06Z"/><path class="cls-65" d="M2321.27,994a34.44,34.44,0,0,1,34.27,31.06h3.22a37.64,37.64,0,0,0-75,0H2287A34.44,34.44,0,0,1,2321.27,994Z"/><circle class="cls-65" cx="1453.84" cy="1028.41" r="31.98"/><path class="cls-20" d="M1498,1016l-16.1-12.74a37.54,37.54,0,1,1-10.12-8l-11.65-9.21a12.08,12.08,0,0,0-7.5-2.61h-28.38a53.83,53.83,0,1,0,82.52,35.18h-1.26A12.11,12.11,0,0,1,1498,1016Z"/><path class="cls-20" d="M1453.84,974.6a53.55,53.55,0,0,0-29.6,8.88h28.38a12.08,12.08,0,0,1,7.5,2.61l11.65,9.21a37.8,37.8,0,0,1,10.12,8L1498,1016a12.11,12.11,0,0,0,7.51,2.61h1.26A53.82,53.82,0,0,0,1453.84,974.6Z"/><path class="cls-65" d="M1419.4,1028.41A34.44,34.44,0,1,0,1453.84,994,34.44,34.44,0,0,0,1419.4,1028.41Zm66.42,0a32,32,0,1,1-32-32A32,32,0,0,1,1485.82,1028.41Z"/><path class="cls-65" d="M1416.19,1028.41a37.65,37.65,0,1,0,65.7-25.11l-10.12-8a37.66,37.66,0,0,0-55.57,33.11Zm72.09,0A34.44,34.44,0,1,1,1453.84,994,34.44,34.44,0,0,1,1488.27,1028.41Z"/><path class="cls-65" d="M1471.76,995.3l10.12,8A37.8,37.8,0,0,0,1471.76,995.3Z"/><path class="cls-64" d="M2273.81,914.76a1.09,1.09,0,0,0-1.09-1.09H2122.88a1.09,1.09,0,0,0,0,2.17h149.84A1.09,1.09,0,0,0,2273.81,914.76Z"/><path class="cls-15" d="M2304.74,901c0,.13.06.27.08.4C2304.8,901.28,2304.77,901.15,2304.74,901Z"/><path class="cls-15" d="M2305,902.33c0,.13,0,.26,0,.39C2305,902.59,2305,902.46,2305,902.33Z"/><path class="cls-15" d="M2283.8,894.46a11.31,11.31,0,0,1-8.59,11l-1.35,8.81.83-5.41a2.43,2.43,0,0,0,1.83.89h8.76a145.39,145.39,0,0,0,1.43-15.26,14.17,14.17,0,0,0-.79-4.62h-3.11A11.3,11.3,0,0,1,2283.8,894.46Z"/><path class="cls-15" d="M2287.38,909.72h2.52a15.12,15.12,0,0,0,14.5-9.94,15.12,15.12,0,0,0-14.5-9.94h-1.7a16.31,16.31,0,0,1,.68,4.62C2288.88,896.4,2288.34,902.22,2287.38,909.72Z"/><path class="cls-15" d="M2304.4,899.79l0,.15Z"/><path class="cls-15" d="M2286.71,894.46a145.39,145.39,0,0,1-1.43,15.26h2.1c1-7.49,1.5-13.31,1.5-15.26a16.31,16.31,0,0,0-.68-4.62h-2.28A14.17,14.17,0,0,1,2286.71,894.46Z"/><path class="cls-15" d="M2283.8,894.46a11.3,11.3,0,0,0-1-4.62h-3a2.93,2.93,0,0,0-2.65,2.73l-2,12.86A11.31,11.31,0,0,0,2283.8,894.46Z"/><path class="cls-65" d="M2304.83,901.41q.09.45.15.91Q2304.92,901.87,2304.83,901.41Z"/><polygon class="cls-65" points="2304.4 899.78 2304.4 899.78 2304.4 899.79 2304.4 899.78"/><path class="cls-65" d="M2305,902.72c0,.43.07.87.07,1.31C2305.1,903.59,2305.07,903.15,2305,902.72Z"/><path class="cls-65" d="M2304.45,899.94q.17.53.3,1.07Q2304.62,900.47,2304.45,899.94Z"/><path class="cls-65" d="M2289.9,909.72h-2.52c-.34,2.66-.74,5.52-1.18,8.5h3.7c8.39,0,15.2-6.35,15.2-14.19,0-.44,0-.88-.07-1.31,0-.13,0-.26,0-.39q-.06-.46-.15-.91c0-.13-.05-.27-.08-.4q-.13-.54-.3-1.07l0-.15h0A15.12,15.12,0,0,1,2289.9,909.72Z"/><path class="cls-65" d="M2274.69,908.83l-.83,5.41c-.32,2.07,1,4,2.65,4h7.54c.46-3,.86-5.83,1.21-8.5h-8.76A2.43,2.43,0,0,1,2274.69,908.83Z"/><path class="cls-65" d="M2285.27,909.72c-.35,2.68-.76,5.54-1.21,8.5h2.14c.44-3,.84-5.85,1.18-8.5Z"/><path class="cls-66" d="M2402.72,971.45l-9.62-2.82-4.45-1.31a3.05,3.05,0,0,1-2.48-2.72V941.72c0-1.61,1.75-2.91,3.89-2.91h13.84a4.15,4.15,0,0,1,2.65,1v-4.91s0,0,0,0h-17.47a6.9,6.9,0,0,0-6.9,6.9v22.88a6.9,6.9,0,0,0,4.38,6.42l20,7.85v-8.21A4.16,4.16,0,0,1,2402.72,971.45Z"/><path class="cls-15" d="M2408.09,967.43V943a4.16,4.16,0,0,0-1.53-3.21v30.87A4.16,4.16,0,0,0,2408.09,967.43Z"/><polygon class="cls-15" points="2406.55 970.67 2406.56 970.66 2406.56 939.79 2406.55 939.79 2406.55 970.67"/><path class="cls-15" d="M2403.9,938.82H2393.1v29.82l9.62,2.82a4.16,4.16,0,0,0,3.84-.79V939.79A4.15,4.15,0,0,0,2403.9,938.82Z"/><path class="cls-17" d="M2383.18,1007.73c0-.22-.06-.43-.09-.65v0c0,.2.06.41.09.61l2,17.31h-1.79l.2,10.67h2.84l-.92-7.83Z"/><path class="cls-17" d="M2423.25,1022.68a16.1,16.1,0,0,0-16.1-16.1h-.59v10.64a18.46,18.46,0,0,1-18.34,18.5h35Z"/><path class="cls-17" d="M2383.09,1007.09c0,.22.06.43.09.65l2.36,20.14c2.49,1.27,4.85,2.61,7,4,1,.64,2,1.36,3.14,2.16a18.52,18.52,0,0,0,10.83-16.85v-10.64l-23.49-.54Z"/><path class="cls-17" d="M2383.18,1007.73c0-.21-.06-.41-.09-.61l.33,17.92h1.79Z"/><path class="cls-62" d="M2386.17,941.72V964.6a3.05,3.05,0,0,0,2.48,2.72l4.45,1.31V938.82h-3C2387.92,938.82,2386.17,940.12,2386.17,941.72Z"/><path class="cls-64" d="M2404.93,927l.06.12a20.21,20.21,0,0,0-13.88-11.84l-76.52-23.5,76.51,23.5A20.18,20.18,0,0,1,2404.93,927Z"/><polygon class="cls-64" points="2304.31 888.57 2300.78 885.38 2304.31 888.57 2304.31 888.57"/><path class="cls-64" d="M2310.78,896s61.84,18.55,77.17,22.2c13.35,3.17,16.4,7.63,17,8.73a20.18,20.18,0,0,0-13.82-11.72l-76.51-23.5-10.28-3.16h0l-3.53-3.19-22.28-20.12Z"/><path class="cls-63" d="M2386.46,1035.71h0Z"/><path class="cls-67" d="M2386.46,1035.71h0Z"/><path class="cls-17" d="M2392.59,1031.89c-2.2-1.41-4.56-2.75-7-4l.92,7.83h1.76a18.36,18.36,0,0,0,7.51-1.65C2394.63,1033.25,2393.58,1032.53,2392.59,1031.89Z"/><path class="cls-67" d="M2392.59,1031.89c-2.2-1.41-4.56-2.75-7-4l.92,7.83h1.76a18.36,18.36,0,0,0,7.51-1.65C2394.63,1033.25,2393.58,1032.53,2392.59,1031.89Z"/><polygon points="1514.72 1161.99 1542.36 1161.99 1551.15 1126.99 1514.72 1126.99 1514.72 1161.99"/><path class="cls-68" d="M1534.58,1140.61c-2.83,4.34-6.23,16.2-1.51,16.2h15.24c3.58,0,3.39,5.47.75,10.54s-6,5.28-11.86,5.28h-442c-19.75,0-78.43-15.39-85.82-15.39H964.89c-6.41,0-18.72-5-23.5-19.7-.26-.81-.51-1.62-.74-2.41-3.95-13.49-3.34-23.47-2.51-25.85s6.79-3.27,6.79-10.29c0-.37,0-.83,0-1.38.1-2.37.42-6.28.86-10.88.18-1.79.37-3.69.57-5.64.28-2.83,1.84-5.37,2.15-8.32.59-5.34,0-11,.5-15.4.57-4.75,1-8.39,1.27-9.86a45.08,45.08,0,0,1,1.28-7.45c1.39-4.31,4.77-8.24,14.42-8.24,15.45,0,35,.51,42.82-1.63,5-1.38,33.2-14.74,56.71-25.69,13-6.05,24.56-11.37,30-13.51,15.31-6,44.24-6.44,57.68-6.44l75.72,0c12.55,0,41.18-1.76,72.57,15.82s72.52,47.76,85.1,51.13c5.35,1.43,19,2.39,35.27,3.8q4,.33,8.17.72c20.23,1.87,42.93,4.57,58.55,9.64,17.22,5.6,33.42,10.89,45.22,18.48,1.29.81,2.67,1.78,4.12,2.86a40.27,40.27,0,0,1,9.89,10.57,30.91,30.91,0,0,1,4.06,10.17c.32,1.56.62,3,.87,4.38,3.59,18.95,1.31,21.36-3.38,22.08-1.48.23-3.12.5-4.78.88C1540.62,1136,1536.57,1137.55,1534.58,1140.61Z"/><path class="cls-69" d="M945.83,1086.73h25.06a9.93,9.93,0,0,0,9.93-9.93V1050a9.93,9.93,0,0,0-9.93-9.93H951.61a45.33,45.33,0,0,0-1.28,7.46c-.23,1.46-.69,5.11-1.27,9.85-.53,4.37.09,10.07-.5,15.4-.32,3-1.87,5.5-2.15,8.33C946.21,1083.05,946,1085,945.83,1086.73Z"/><path class="cls-70" d="M937.77,1120.21a79.52,79.52,0,0,0,3.63,17.33,31.33,31.33,0,0,0,4.51,8.89c5.79,7.9,14.1,10.82,19,10.82h44.45c7.4,0,66.07,15.38,85.83,15.38h442c5.83,0,9.22-.18,11.86-5.27s2.83-10.55-.75-10.55h-15.25c-3.21,0-2.67-5.5-1.08-10.38a25.25,25.25,0,0,1,2.59-5.82c2.82-4.32,9.79-5.58,14.81-6.36,3.92-.62,6.16-2.4,4.69-14Z"/><g class="cls-11"><path class="cls-71" d="M1068.87,1048.48c-3.13,4-4.34,13.14-2.54,19.08,1.37,4.51,8.47,11.37,18.3,20.88,3.3,3.19,7,6.81,11,10.71,13.22,13.21,20.63,34.79,23.8,44,.58,1.68,1,3,1.37,3.84,2.25,5.63,5,6.79,8.52,6.79h94.93a744.07,744.07,0,0,0-6-95l1.12-.16a745.17,745.17,0,0,1,6,95.18h140.32a5.4,5.4,0,0,0,5.29-3.95c.55-2.26,5.08-35,6.2-52.26,1.09-16.78-.68-22.2-10-30.56-9.08-8.16-43.64-29.11-44-29.32l.59-1c.35.21,35,21.22,44.16,29.45,9.64,8.65,11.48,14.24,10.36,31.47s-5.68,50.18-6.23,52.46a6.54,6.54,0,0,1-6.39,4.81H1129.25c-4.66,0-7.44-2.17-9.57-7.5-.34-.87-.8-2.2-1.39-3.89-3.14-9.14-10.49-30.54-23.53-43.57-3.9-3.9-7.64-7.51-10.94-10.7-10-9.62-17.15-16.58-18.6-21.37-1.92-6.34-.64-15.73,2.73-20.1Z"/><path class="cls-72" d="M997.1,1067.72a10.36,10.36,0,1,0,10.36-10.36A10.37,10.37,0,0,0,997.1,1067.72Zm1.13,0a9.23,9.23,0,1,1,9.23,9.23A9.24,9.24,0,0,1,998.23,1067.72Z"/></g><path class="cls-13" d="M1078.78,1061.94h257.66c7,0,9.79-4.52,9.3-7.77s-29.89-26.62-50-38.42c-2.17-1.28-4.37-2.5-6.63-3.65h0A166.09,166.09,0,0,0,1252,998.17c-2.55-.59-4.93-1-7.05-1.34a40.26,40.26,0,0,0-5.44-.44h-95.68c-22.1,0-75,28.13-83,39.69C1055.44,1043.83,1072.49,1061.94,1078.78,1061.94Z"/><path class="cls-68" d="M1234.4,1061.95h-27.07l-7.79-65.55h14.58Z"/><path class="cls-13" d="M1386.63,1051.54c-5.17,1.33-9.25,2.81-12.15,2.81-5.09,0-9.79-1.32-11.49-2.64s-61.78-43.32-67.24-46.9-2.64-7.16,0-7.16h.54c1.74.87,3.48,1.78,5.24,2.76,31.39,17.58,72.52,47.74,85.1,51.12Z"/><path class="cls-13" d="M1094.63,991.36c.92,1,.81,2.65-1.41,4.41-3.64,2.89-53.49,27.25-59.39,30.26-5.62,2.87-12.75,3.12-22.19,3.13C1025.92,1023.49,1079.19,997.63,1094.63,991.36Z"/><path class="cls-73" d="M1495.52,1099.07c8.66,6.6,23.76,10.49,37.13,12,8.6,1,15.79,1.91,20.13,1.13-.26-1.37-.56-2.82-.87-4.37-1.78-8.6-6.78-15.25-14-20.75-1.45-1.08-2.83-2-4.11-2.86a24.82,24.82,0,0,0-3.42-1.85c-8.17-3.47-32.23-7.08-42.57-8.66C1469.65,1070.89,1486.86,1092.47,1495.52,1099.07Z"/><path class="cls-74" d="M1488.62,1078.27c7.88,1.2,26.18,4,32.4,6.59s21.28,16.45,20.34,20.28-8.48,2.7-18.65,1.57-21.66-4.08-28.25-9.1S1474.78,1076.16,1488.62,1078.27Z"/><path class="cls-15" d="M975.94,1053.22v20.34a7.53,7.53,0,0,1-7.53,7.53h-21c.82-8,.81-17,1.62-23.74.57-4.74,1-8.4,1.26-9.85.09-.57.16-1.18.24-1.82h17.84A7.53,7.53,0,0,1,975.94,1053.22Z"/><path class="cls-75" d="M975.94,1073.56a7.53,7.53,0,0,1-7.53,7.53h-22c.82-8,1.85-17,2.66-23.73h26.88Z"/><path class="cls-70" d="M945.91,1146.43c5.79,7.9,14.1,10.82,19,10.82h44.45c7.4,0,66.07,15.38,85.83,15.38h442c5.83,0,9.22-.18,11.86-5.27s2.83-10.55-.75-10.55h-15.25c-3.21,0-2.67-5.5-1.08-10.38Z"/><path d="M1003.32,1150a52.36,52.36,0,0,1,104.72,0v22.66h-12.87c-19.76,0-78.43-15.38-85.83-15.38h-6Z"/><path class="cls-73" d="M1381.35,1152.83v19.8h124.88v-19.8a62.44,62.44,0,0,0-124.88,0Z"/><path class="cls-73" d="M1084.78,1097.61h-58.22a62.29,62.29,0,0,1,58.22,0Z"/><path class="cls-73" d="M1118.12,1152.83v19.8h-23c-19.75,0-78.42-15.38-85.82-15.38H993.24v-4.42a62.11,62.11,0,0,1,2.56-17.7h119.76A62.11,62.11,0,0,1,1118.12,1152.83Z"/><path d="M1496.16,1150v22.67H1391.43V1150a52.15,52.15,0,0,1,2.15-14.84H1494A52.15,52.15,0,0,1,1496.16,1150Z"/><path class="cls-17" d="M1444,1178.15a27.31,27.31,0,1,1,27.31-27.31A27.31,27.31,0,0,1,1444,1178.15Z"/><path class="cls-76" d="M1415.88,1156.59a28.47,28.47,0,0,0,3.71,9.32l3.68-1.95,14.48-7.64a8.86,8.86,0,0,0,4.06,2.79l-2.12,15.88-.55,4.13a28.47,28.47,0,0,0,4.86.41,28.83,28.83,0,0,0,5.06-.45l-.37-4.16-1.42-15.74a8.9,8.9,0,0,0,4.2-2.78l13.53,7.14,3.67,1.94a28.53,28.53,0,0,0,3.49-9.17l-4-1.09-14.58-3.93c0-.21,0-.43,0-.66a8.89,8.89,0,0,0-1.93-5.53l9.19-12.07,2.53-3.33a29,29,0,0,0-8.32-5.32l-1.73,3.79L1447,1142a8.59,8.59,0,0,0-2.35-.32,8.85,8.85,0,0,0-3,.54l-7.45-13.85-2-3.67a28.66,28.66,0,0,0-8.26,5.65l2.74,3.14,10.56,12.15a8.9,8.9,0,0,0-1.52,5c0,.2,0,.4,0,.61l-15.82,4.26Z"/><path class="cls-77" d="M1419.91,1155.5a24.3,24.3,0,0,0,3.36,8.46l14.48-7.64a8.86,8.86,0,0,0,4.06,2.79l-2.12,15.88a24.28,24.28,0,0,0,4.31.38,23.85,23.85,0,0,0,4.68-.45l-1.42-15.74a8.9,8.9,0,0,0,4.2-2.78l13.53,7.14a24.23,24.23,0,0,0,3.14-8.32l-14.58-3.93c0-.21,0-.43,0-.66a8.89,8.89,0,0,0-1.93-5.53l9.19-12.07a24.54,24.54,0,0,0-7.51-4.87L1447,1142a8.59,8.59,0,0,0-2.35-.32,8.85,8.85,0,0,0-3,.54l-7.45-13.85a24.62,24.62,0,0,0-7.5,5.12l10.56,12.15a8.9,8.9,0,0,0-1.52,5c0,.2,0,.4,0,.61Z"/><circle class="cls-70" cx="1444.35" cy="1150.65" r="5.88"/><circle class="cls-20" cx="1444.35" cy="1146.23" r="1.73"/><circle class="cls-20" cx="1444.35" cy="1155.07" r="1.73"/><circle class="cls-20" cx="1448.77" cy="1150.65" r="1.73"/><circle class="cls-20" cx="1439.93" cy="1150.65" r="1.73"/><path class="cls-20" d="M1398,1150.84A45.94,45.94,0,1,0,1444,1104.9,45.94,45.94,0,0,0,1398,1150.84Zm16.54,0a29.4,29.4,0,1,1,29.41,29.4A29.4,29.4,0,0,1,1414.59,1150.84Z"/><g class="cls-21"><path class="cls-12" d="M1408.45,1150.84A35.54,35.54,0,1,0,1444,1115.3,35.54,35.54,0,0,0,1408.45,1150.84Zm6.14,0a29.4,29.4,0,1,1,29.41,29.4A29.4,29.4,0,0,1,1414.59,1150.84Z"/></g><path class="cls-65" d="M1411.85,1150.84A32.14,32.14,0,1,0,1444,1118.7,32.14,32.14,0,0,0,1411.85,1150.84Zm4.84,0a27.3,27.3,0,1,1,27.31,27.31A27.3,27.3,0,0,1,1416.69,1150.84Z"/><path class="cls-70" d="M1414.16,1150.84A29.83,29.83,0,1,0,1444,1121,29.83,29.83,0,0,0,1414.16,1150.84Zm2.52,0a27.3,27.3,0,1,1,27.31,27.31A27.3,27.3,0,0,1,1416.69,1150.84Z"/><path class="cls-17" d="M1055.68,1178.15a27.31,27.31,0,1,1,27.31-27.31A27.31,27.31,0,0,1,1055.68,1178.15Z"/><path class="cls-76" d="M1027.57,1156.59a28.48,28.48,0,0,0,3.71,9.32L1035,1164l14.48-7.64a8.86,8.86,0,0,0,4.06,2.79l-2.12,15.88-.55,4.13a28.47,28.47,0,0,0,4.86.41,28.83,28.83,0,0,0,5.06-.45l-.37-4.16-1.42-15.74a8.9,8.9,0,0,0,4.2-2.78l13.53,7.14,3.67,1.94a28.54,28.54,0,0,0,3.49-9.17l-4-1.09-14.58-3.93c0-.21,0-.43,0-.66a8.89,8.89,0,0,0-1.93-5.53l9.19-12.07,2.53-3.33a29,29,0,0,0-8.32-5.32l-1.73,3.79-6.33,13.86a8.59,8.59,0,0,0-2.35-.32,8.85,8.85,0,0,0-3,.54l-7.45-13.85-2-3.67a28.66,28.66,0,0,0-8.26,5.65l2.74,3.14,10.56,12.15a8.9,8.9,0,0,0-1.52,5c0,.2,0,.4,0,.61l-15.82,4.26Z"/><path class="cls-77" d="M1031.6,1155.5A24.3,24.3,0,0,0,1035,1164l14.48-7.64a8.86,8.86,0,0,0,4.06,2.79l-2.12,15.88a24.28,24.28,0,0,0,4.31.38,23.85,23.85,0,0,0,4.68-.45l-1.42-15.74a8.9,8.9,0,0,0,4.2-2.78l13.53,7.14a24.23,24.23,0,0,0,3.14-8.32l-14.58-3.93c0-.21,0-.43,0-.66a8.89,8.89,0,0,0-1.93-5.53l9.19-12.07a24.54,24.54,0,0,0-7.51-4.87l-6.33,13.86a8.59,8.59,0,0,0-2.35-.32,8.85,8.85,0,0,0-3,.54l-7.45-13.85a24.62,24.62,0,0,0-7.5,5.12l10.56,12.15a8.9,8.9,0,0,0-1.52,5c0,.2,0,.4,0,.61Z"/><circle class="cls-70" cx="1056.04" cy="1150.65" r="5.88"/><circle class="cls-20" cx="1056.04" cy="1146.23" r="1.73"/><circle class="cls-20" cx="1056.04" cy="1155.07" r="1.73"/><circle class="cls-20" cx="1060.46" cy="1150.65" r="1.73"/><circle class="cls-20" cx="1051.63" cy="1150.65" r="1.73"/><path class="cls-20" d="M1009.74,1150.84a45.94,45.94,0,1,0,45.95-45.95A45.94,45.94,0,0,0,1009.74,1150.84Zm16.54,0a29.4,29.4,0,1,1,29.41,29.4A29.4,29.4,0,0,1,1026.28,1150.84Z"/><g class="cls-21"><path class="cls-12" d="M1020.14,1150.84a35.54,35.54,0,1,0,35.55-35.55A35.54,35.54,0,0,0,1020.14,1150.84Zm6.14,0a29.4,29.4,0,1,1,29.41,29.4A29.4,29.4,0,0,1,1026.28,1150.84Z"/></g><path class="cls-65" d="M1023.54,1150.84a32.14,32.14,0,1,0,32.15-32.15A32.14,32.14,0,0,0,1023.54,1150.84Zm4.84,0a27.3,27.3,0,1,1,27.31,27.31A27.3,27.3,0,0,1,1028.38,1150.84Z"/><path class="cls-70" d="M1025.86,1150.84a29.83,29.83,0,1,0,29.83-29.83A29.83,29.83,0,0,0,1025.86,1150.84Zm2.52,0a27.3,27.3,0,1,1,27.31,27.31A27.3,27.3,0,0,1,1028.38,1150.84Z"/><path class="cls-78" d="M945,1097.61h81.59a62.68,62.68,0,0,0-30.77,37.51H940.65c-3.95-13.49-3.34-23.47-2.51-25.85s6.79-3.27,6.79-10.29C944.93,1098.61,944.94,1098.15,945,1097.61Z"/><path class="cls-78" d="M1443.8,1097.61a52.45,52.45,0,0,0-50.22,37.51h-278a62.7,62.7,0,0,0-30.78-37.51"/><path class="cls-78" d="M1550.21,1102.26l.15.36Z"/><path class="cls-78" d="M1551.18,1105l.05.18Z"/><path class="cls-78" d="M1547.87,1097.66l0,0h0Z"/><path class="cls-78" d="M1549.05,1099.75l.17.32Z"/><path class="cls-78" d="M1552.77,1112.16c-4.34.78-11.52-.17-20.12-1.13-13.37-1.48-28.46-5.36-37.13-12-.56-.43-1.16-.92-1.78-1.46h-50a52.45,52.45,0,0,1,50.22,37.51h50.6c1.66-.38,3.3-.65,4.78-.88C1554.08,1133.52,1556.37,1131.11,1552.77,1112.16Z"/><path class="cls-79" d="M1016.7,1057a12.85,12.85,0,1,0-15.22,20.34C1008.59,1077.35,1014.61,1068.83,1016.7,1057Z"/><path class="cls-80" d="M1016.7,1057c-2.09,11.81-8.11,20.33-15.22,20.34A12.86,12.86,0,0,0,1016.7,1057Z"/><path class="cls-81" d="M2188.49,813.78h-29.29l-36.07,74.74v.3a10.11,10.11,0,0,0,10.11,10h14.92l41-85C2189,813.8,2188.73,813.78,2188.49,813.78Z"/><polygon class="cls-81" points="2160.18 898.85 2182.2 898.85 2213.61 833.76 2198.5 819.45 2160.18 898.85"/><polygon points="703.61 996.81 731.58 996.81 740.47 961.4 703.61 961.4 703.61 996.81"/><path class="cls-82" d="M123.52,972.06C128.35,986.93,140.8,992,147.28,992h45c7.49,0,66.85,15.57,86.84,15.57H726.37c5.9,0,9.33-.18,12-5.34s2.87-10.67-.76-10.67H722.18c-4.77,0-1.34-12,1.52-16.39s9.91-5.64,15-6.43c4.74-.73,7.06-3.17,3.43-22.35-.26-1.39-.56-2.85-.88-4.42-1.8-8.71-6.86-15.43-14.12-21-1.46-1.1-2.87-2.07-4.16-2.9-11.94-7.67-28.33-13-45.75-18.69-15.81-5.14-38.77-7.87-59.25-9.76-2.81-.26-5.56-.5-8.26-.73-16.47-1.42-30.28-2.39-35.69-3.84-12.73-3.42-54.34-33.94-86.11-51.73s-60.72-16-73.42-16l-76.61,0c-13.6,0-42.87.41-58.36,6.51s-79.87,37.49-87.76,39.65-27.69,1.65-43.31,1.65c-9.77,0-13.19,4-14.59,8.34a45.82,45.82,0,0,0-1.3,7.55c-.23,1.48-.7,5.17-1.28,10-.53,4.42.09,10.18-.5,15.58-.32,3-1.89,5.56-2.18,8.43-.2,2-.4,3.9-.58,5.7-.55,5.73-.91,10.38-.91,12.41,0,7.1-6,7.87-6.86,10.41S118.7,957.2,123.52,972.06Z"/><path class="cls-69" d="M128,920.66h25.35a10,10,0,0,0,10-10V883.48a10,10,0,0,0-10-10H133.84a45.81,45.81,0,0,0-1.3,7.55c-.23,1.48-.7,5.17-1.28,10-.53,4.42.09,10.18-.5,15.58-.32,3-1.89,5.56-2.18,8.43C128.38,916.94,128.18,918.86,128,920.66Z"/><path class="cls-70" d="M119.84,954.54a80.45,80.45,0,0,0,3.67,17.53,31.69,31.69,0,0,0,4.56,9c5.85,8,14.27,10.95,19.21,10.95h45c7.49,0,66.85,15.57,86.84,15.57H726.37c5.9,0,9.33-.18,12-5.34s2.87-10.67-.76-10.67H722.18c-3.25,0-2.7-5.56-1.1-10.5a25.57,25.57,0,0,1,2.62-5.88c2.85-4.38,9.91-5.64,15-6.43,4-.63,6.24-2.42,4.74-14.21Z"/><g class="cls-11"><path class="cls-71" d="M252.49,882c-3.17,4.1-4.39,13.3-2.57,19.3,1.38,4.56,8.57,11.51,18.52,21.13,3.34,3.23,7.13,6.89,11.08,10.84,13.38,13.37,20.88,35.2,24.08,44.52.58,1.7,1,3,1.38,3.89,2.28,5.7,5.09,6.87,8.62,6.87h96a753,753,0,0,0-6.09-96.14l1.13-.16a753.93,753.93,0,0,1,6.1,96.31h142a5.46,5.46,0,0,0,5.35-4c.56-2.29,5.14-35.45,6.27-52.88,1.1-17-.69-22.47-10.1-30.92-9.19-8.25-44.16-29.45-44.51-29.67l.59-1c.35.21,35.41,21.47,44.68,29.79,9.75,8.76,11.61,14.41,10.48,31.84s-5.74,50.77-6.3,53.08a6.61,6.61,0,0,1-6.46,4.87H313.59c-4.72,0-7.52-2.2-9.68-7.59-.35-.88-.81-2.23-1.4-3.94-3.18-9.25-10.62-30.9-23.8-44.08-3.94-3.94-7.73-7.6-11.07-10.83-10.07-9.74-17.35-16.77-18.82-21.62-1.94-6.41-.65-15.91,2.76-20.33Z"/><path class="cls-71" d="M179.87,901.43A10.48,10.48,0,1,0,190.35,891,10.49,10.49,0,0,0,179.87,901.43Zm1.14,0a9.34,9.34,0,1,1,9.34,9.34A9.35,9.35,0,0,1,181,901.43Z"/></g><path class="cls-13" d="M262.52,895.58H523.22c7.12,0,9.91-4.57,9.41-7.87s-30.25-26.94-50.57-38.88c-2.2-1.3-4.42-2.53-6.71-3.69v0h0a168,168,0,0,0-37.55-14.07c-2.58-.59-5-1.05-7.13-1.36a40.71,40.71,0,0,0-5.5-.44H328.33c-22.37,0-75.85,28.46-84,40.16C238.9,877.26,256.16,895.58,262.52,895.58Z"/><path class="cls-8" d="M420,895.59H392.59l-7.88-66.32h14.75Z"/><path class="cls-13" d="M574,885.06c-5.23,1.35-9.36,2.84-12.29,2.84-5.15,0-9.91-1.33-11.63-2.67s-62.51-43.83-68-47.45-2.67-7.24,0-7.24h.54c1.76.88,3.52,1.8,5.3,2.8,31.76,17.79,73.38,48.31,86.11,51.72Z"/><path class="cls-13" d="M278.55,824.17c.93,1,.82,2.69-1.43,4.46C273.44,831.56,223,856.2,217,859.25c-5.69,2.9-12.9,3.15-22.45,3.17C209,856.68,262.93,830.51,278.55,824.17Z"/><path class="cls-73" d="M684.19,933.15c8.77,6.68,24,10.61,37.57,12.11,8.71,1,16,1.94,20.37,1.14-.26-1.39-.56-2.85-.88-4.42-1.8-8.71-6.86-15.43-14.12-21-1.46-1.1-2.87-2.07-4.16-2.9a25.11,25.11,0,0,0-3.46-1.88c-8.26-3.51-32.61-7.17-43.07-8.77C658,904.64,675.42,926.47,684.19,933.15Z"/><path class="cls-15" d="M677.2,912.11c8,1.21,26.49,4,32.78,6.67s21.54,16.64,20.58,20.52S722,942,711.7,940.88s-21.92-4.13-28.59-9.21S663.2,910,677.2,912.11Z"/><path class="cls-83" d="M683.11,931.67c-6.67-5.08-19.91-21.7-5.91-19.57,2.29.35,5.45.83,8.93,1.4,5.13,3.77,17.5,13.95,21.31,26.81C698.34,938.89,688.88,936.06,683.11,931.67Z"/><path class="cls-15" d="M158.46,886.76v20.58a7.62,7.62,0,0,1-7.62,7.62H129.62c.83-8.08.82-17.17,1.64-24,.58-4.8,1-8.5,1.28-10,.09-.57.16-1.19.24-1.84h18.06A7.62,7.62,0,0,1,158.46,886.76Z"/><path class="cls-83" d="M158.46,907.34a7.62,7.62,0,0,1-7.62,7.62H128.58c.83-8.08,1.87-17.16,2.69-24h27.2Z"/><path class="cls-70" d="M128.08,981.07c5.85,8,14.27,10.95,19.21,10.95h45c7.49,0,66.85,15.57,86.84,15.57H726.37c5.9,0,9.33-.18,12-5.34s2.87-10.67-.76-10.67H722.18c-3.25,0-2.7-5.56-1.1-10.5Z"/><path d="M186.17,984.65a53,53,0,0,1,106,0v22.93h-13c-20,0-79.35-15.56-86.85-15.56h-6.09Z"/><path class="cls-73" d="M568.67,987.55v20H695v-20a63.18,63.18,0,1,0-126.36,0Z"/><path class="cls-73" d="M176,987.55V992h16.3c7.49,0,66.85,15.57,86.84,15.57h23.22v-20a63.18,63.18,0,1,0-126.36,0Z"/><path d="M578.87,984.65a53,53,0,0,1,106,0v22.93h-106Z"/><path class="cls-17" d="M632,1013.17a27.63,27.63,0,1,1,27.63-27.63A27.63,27.63,0,0,1,632,1013.17Z"/><path class="cls-76" d="M603.6,991.35a28.81,28.81,0,0,0,3.75,9.43l3.73-2,14.65-7.73a9,9,0,0,0,4.11,2.82L627.69,1010l-.55,4.18a28.81,28.81,0,0,0,4.91.42,29.17,29.17,0,0,0,5.12-.46l-.38-4.21L635.35,994a9,9,0,0,0,4.25-2.81l13.69,7.22,3.72,2a28.87,28.87,0,0,0,3.53-9.28l-4.08-1.1-14.75-4c0-.21,0-.44,0-.66a9,9,0,0,0-2-5.6l9.3-12.22,2.56-3.37a29.3,29.3,0,0,0-8.42-5.38l-1.75,3.83-6.4,14a8.7,8.7,0,0,0-2.38-.33,9,9,0,0,0-3.06.54l-7.54-14-2-3.72a29,29,0,0,0-8.36,5.72l2.77,3.18,10.68,12.29a9,9,0,0,0-1.54,5c0,.2,0,.41,0,.61l-16,4.31Z"/><path class="cls-77" d="M607.68,990.25a24.6,24.6,0,0,0,3.4,8.56l14.65-7.73a9,9,0,0,0,4.11,2.82L627.69,1010a24.58,24.58,0,0,0,4.36.39,24.12,24.12,0,0,0,4.74-.46L635.35,994a9,9,0,0,0,4.25-2.81l13.69,7.22a24.53,24.53,0,0,0,3.18-8.42l-14.75-4c0-.21,0-.44,0-.66a9,9,0,0,0-2-5.6l9.3-12.22a24.83,24.83,0,0,0-7.6-4.92l-6.4,14a8.7,8.7,0,0,0-2.38-.33,9,9,0,0,0-3.06.54l-7.54-14a24.92,24.92,0,0,0-7.59,5.18l10.68,12.29a9,9,0,0,0-1.54,5c0,.2,0,.41,0,.61Z"/><circle class="cls-70" cx="632.41" cy="985.34" r="5.95"/><circle class="cls-20" cx="632.41" cy="980.87" r="1.75"/><circle class="cls-20" cx="632.41" cy="989.81" r="1.75"/><circle class="cls-20" cx="636.88" cy="985.34" r="1.75"/><circle class="cls-20" cx="627.94" cy="985.34" r="1.75"/><path class="cls-20" d="M585.56,985.54A46.48,46.48,0,1,0,632.05,939,46.48,46.48,0,0,0,585.56,985.54Zm16.73,0a29.75,29.75,0,1,1,29.76,29.75A29.75,29.75,0,0,1,602.29,985.54Z"/><g class="cls-21"><path class="cls-12" d="M596.08,985.54a36,36,0,1,0,36-36A36,36,0,0,0,596.08,985.54Zm6.21,0a29.75,29.75,0,1,1,29.76,29.75A29.75,29.75,0,0,1,602.29,985.54Z"/></g><path class="cls-65" d="M599.53,985.54A32.52,32.52,0,1,0,632.05,953,32.52,32.52,0,0,0,599.53,985.54Zm4.89,0a27.63,27.63,0,1,1,27.63,27.63A27.62,27.62,0,0,1,604.42,985.54Z"/><path class="cls-70" d="M601.86,985.54a30.18,30.18,0,1,0,30.19-30.19A30.19,30.19,0,0,0,601.86,985.54Zm2.55,0a27.63,27.63,0,1,1,27.63,27.63A27.62,27.62,0,0,1,604.42,985.54Z"/><path class="cls-17" d="M239.15,1013.17a27.63,27.63,0,1,1,27.63-27.63A27.63,27.63,0,0,1,239.15,1013.17Z"/><path class="cls-76" d="M210.7,991.35a28.81,28.81,0,0,0,3.75,9.43l3.73-2,14.65-7.73a9,9,0,0,0,4.11,2.82L234.79,1010l-.55,4.18a28.81,28.81,0,0,0,4.91.42,29.17,29.17,0,0,0,5.12-.46l-.38-4.21L242.45,994a9,9,0,0,0,4.25-2.81l13.69,7.22,3.72,2a28.87,28.87,0,0,0,3.53-9.28l-4.08-1.1-14.75-4c0-.21,0-.44,0-.66a9,9,0,0,0-2-5.6l9.3-12.22,2.56-3.37a29.3,29.3,0,0,0-8.42-5.38l-1.75,3.83-6.4,14a8.7,8.7,0,0,0-2.38-.33,9,9,0,0,0-3.06.54l-7.54-14-2-3.72a29,29,0,0,0-8.36,5.72l2.77,3.18,10.69,12.29a9,9,0,0,0-1.54,5c0,.2,0,.41,0,.61l-16,4.31Z"/><path class="cls-77" d="M214.78,990.25a24.59,24.59,0,0,0,3.4,8.56l14.65-7.73a9,9,0,0,0,4.11,2.82L234.79,1010a24.58,24.58,0,0,0,4.36.39,24.12,24.12,0,0,0,4.74-.46L242.45,994a9,9,0,0,0,4.25-2.81l13.69,7.22a24.53,24.53,0,0,0,3.18-8.42l-14.75-4c0-.21,0-.44,0-.66a9,9,0,0,0-2-5.6l9.3-12.22a24.84,24.84,0,0,0-7.6-4.92l-6.4,14a8.7,8.7,0,0,0-2.38-.33,9,9,0,0,0-3.06.54l-7.54-14a24.92,24.92,0,0,0-7.59,5.18l10.69,12.29a9,9,0,0,0-1.54,5c0,.2,0,.41,0,.61Z"/><circle class="cls-70" cx="239.51" cy="985.34" r="5.95"/><circle class="cls-20" cx="239.51" cy="980.87" r="1.75"/><circle class="cls-20" cx="239.51" cy="989.81" r="1.75"/><circle class="cls-20" cx="243.99" cy="985.34" r="1.75"/><circle class="cls-20" cx="235.04" cy="985.34" r="1.75"/><path class="cls-20" d="M192.66,985.54A46.48,46.48,0,1,0,239.15,939,46.48,46.48,0,0,0,192.66,985.54Zm16.73,0a29.75,29.75,0,1,1,29.76,29.75A29.75,29.75,0,0,1,209.4,985.54Z"/><g class="cls-21"><path class="cls-12" d="M203.19,985.54a36,36,0,1,0,36-36A36,36,0,0,0,203.19,985.54Zm6.21,0a29.75,29.75,0,1,1,29.76,29.75A29.75,29.75,0,0,1,209.4,985.54Z"/></g><path class="cls-65" d="M206.63,985.54A32.52,32.52,0,1,0,239.15,953,32.52,32.52,0,0,0,206.63,985.54Zm4.89,0a27.63,27.63,0,1,1,27.63,27.63A27.62,27.62,0,0,1,211.52,985.54Z"/><path class="cls-70" d="M209,985.54a30.18,30.18,0,1,0,30.19-30.19A30.19,30.19,0,0,0,209,985.54Zm2.55,0a27.63,27.63,0,1,1,27.63,27.63A27.62,27.62,0,0,1,211.52,985.54Z"/><path class="cls-79" d="M199.22,893.34a12.14,12.14,0,1,0-14.37,19.2C191.57,912.53,197.25,904.48,199.22,893.34Z"/><path class="cls-80" d="M199.22,893.34c-2,11.15-7.65,19.19-14.37,19.2a12.14,12.14,0,0,0,14.37-19.2Z"/><path class="cls-84" d="M1191.73,1172.57h-97.79c-19.67,0-78.11-15.33-85.47-15.33H964.2c-6.38,0-18.64-5-23.4-19.62-.26-.81-.51-1.61-.74-2.4-3.93-13.43-3.33-23.37-2.5-25.74s6.76-3.26,6.76-10.25c0-.37,0-.83,0-1.37.1-2.36.42-6.25.86-10.84.18-1.78.37-3.67.57-5.62.28-2.82,1.83-5.35,2.14-8.29.59-5.32,0-11,.5-15.34.57-4.73,1-8.36,1.26-9.82a44.91,44.91,0,0,1,1.27-7.42c1.38-4.29,4.75-8.21,14.36-8.21,15.39,0,34.89.51,42.64-1.62,5-1.37,33.06-14.68,56.48-25.58Z"/><path class="cls-84" d="M379.24,1007.57H279.68c-20,0-79.52-15.57-87-15.57H147.59c-6.5,0-19-5.07-23.82-19.93-.26-.82-.52-1.64-.75-2.44-4-13.64-3.39-23.74-2.55-26.15s6.88-3.31,6.88-10.41c0-.38,0-.84,0-1.39.1-2.4.43-6.35.88-11,.18-1.81.38-3.73.58-5.71.28-2.86,2.15-19.59,2.69-24,.58-4.81,1-8.49,1.28-10a45.53,45.53,0,0,1,1.29-7.54c1.4-4.36,4.84-8.34,14.62-8.34,15.67,0,35.52.52,43.41-1.65,5.08-1.39,33.66-14.91,57.5-26Z"/></g></g></svg>