<?xml version="1.0" encoding="utf-8"?>
<!-- Generator: Adobe Illustrator 19.2.1, SVG Export Plug-In . SVG Version: 6.00 Build 0)  -->
<svg version="1.1" xmlns="http://www.w3.org/2000/svg" xmlns:xlink="http://www.w3.org/1999/xlink" x="0px" y="0px"
	 viewBox="0 0 1400 980" style="enable-background:new 0 0 1400 980;" xml:space="preserve">
<style type="text/css">
	.st0{fill:#1F90A6;}
	.st1{fill:#FFFABE;}
	.st2{fill:#959542;}
	.st3{fill:#C7C796;}
	.st4{fill:#CBE8F6;}
	.st5{fill:#B7B779;}
	.st6{fill:#D6D7B4;}
	.st7{fill:#EFECD6;}
	.st8{fill:#46BC96;}
	.st9{fill:#97665C;}
	.st10{fill:#9CC065;}
	.st11{fill:#AD6650;}
	.st12{fill:#51AA5B;}
	.st13{fill:#4C5966;}
	.st14{fill:#D4BB98;}
	.st15{fill:#C7A87E;}
	.st16{fill:#E3CFB7;}
	.st17{fill:#ECF4E0;}
	.st18{fill:#81CBEB;}
	.st19{fill:#9F856F;}
	.st20{fill:#826D5A;}
	.st21{fill:#E68272;}
	.st22{fill:#D16B61;}
	.st23{fill:#F1DE92;}
	.st24{fill:#D8746A;}
	.st25{fill:#BA9767;}
	.st26{fill:#5C787C;}
	.st27{fill:#3B4752;}
	.st28{fill:#E8E5E2;}
	.st29{fill:#F5F3E9;}
	.st30{fill:#586775;}
	.st31{fill:#F2EE84;}
	.st32{fill:#FFFEF9;}
	.st33{fill:#DDB490;}
	.st34{fill:#B16D29;}
	.st35{fill:#935724;}
	.st36{fill:#445C5F;}
	.st37{fill:#5CA2BF;}
</style>
<g id="Layer_2">
</g>
<g id="Layer_3">
	<path class="st0" d="M1225.2,519.1c-23.2-14.6-49.8-19.8-61.4-44.2c-12.9-27,6.8-55.4,5.4-84.3c-1.9-38.3-40.2-68.2-77.6-82.4
		c-37.4-14.2-78-19.3-112.5-40.2c-25-15.1-44.8-37.5-68-55.3c-50.7-39-116.5-54.9-177.4-49.5c-60.9,5.4-117.1,30.8-164.3,66
		c-20.4,15.3-52.7,11.7-79.2,5.4C450.8,225.2,410,218,371.1,224c-38.9,6-75.8,27.2-90.7,62.3c-18.8,44.3,0.4,100.8-20.6,144
		c-16.8,34.7-55.3,52.5-81.1,80.9c-27.5,30.3-39.7,73.7-32.7,115.9c7,42.3,33,82.8,69.7,108.2l1028.5-58.9
		c23.8-17.3,24-47.2,24-77.7C1268.1,566.9,1252.2,536.1,1225.2,519.1z"/>
	<circle class="st1" cx="556.1" cy="372.1" r="59.2"/>
	<g>
		<path class="st2" d="M698.4,323.3l414.1,348.9H182.9l460.7-350.2C660,309.5,682.7,310,698.4,323.3z"/>
		<path class="st3" d="M594.7,381.2c13,0.2,25.6-5,38.6-5.5c15.4-0.7,30.3,5.1,45.1,9.6c14.8,4.5,31.1,7.6,45.4,1.8
			c10.6-4.3,19.1-13.1,29.5-17.6l-54.9-46.3c-15.7-13.2-38.5-13.8-54.8-1.4L575,374.1C580.3,378.5,587.8,381.1,594.7,381.2z"/>
	</g>
	<path class="st4" d="M1007.9,319.2h3.7c4.7,0,8.5-3.8,8.5-8.4v0c0-4.6-3.8-8.4-8.5-8.4H820.8c-4.7,0-8.5,3.8-8.5,8.4v0
		c0,4.6,3.8,8.4,8.5,8.4h59.6c4.7,0,8.5,3.8,8.5,8.4v0c0,4.6-3.8,8.4-8.5,8.4h-49.1c-4.7,0-8.5,3.8-8.5,8.4v0c0,4.6,3.8,8.4,8.5,8.4
		h16.9c4.7,0,8.5,3.8,8.5,8.4v0c0,4.6-3.8,8.4-8.5,8.4h-48c-4.7,0-8.5,3.8-8.5,8.4l0,0c0,4.6,3.8,8.4,8.5,8.4h273.1
		c4.7,0,8.5-3.8,8.5-8.4l0,0c0-4.6-3.8-8.4-8.5-8.4h-21.8c-4.7,0-8.5-3.8-8.5-8.4v0c0-4.6,3.8-8.4,8.5-8.4h48.9
		c4.7,0,8.5-3.8,8.5-8.4v0c0-4.6-3.8-8.4-8.5-8.4h-92.5c-4.7,0-8.5-3.8-8.5-8.4v0C999.5,323,1003.3,319.2,1007.9,319.2z"/>
	<path class="st4" d="M715.8,358.8L715.8,358.8c0-4.6-3.8-8.4-8.4-8.4H574.5c-4.6,0-8.4,3.8-8.4,8.4v0c0,4.6,3.8,8.4,8.4,8.4h20.1
		c4.6,0,8.4,3.8,8.4,8.4v0c0,4.6-3.8,8.4-8.4,8.4h-33.5c-4.6,0-8.4,3.8-8.4,8.4v0c0,4.6,3.8,8.4,8.4,8.4h106.5
		c4.6,0,8.4-3.8,8.4-8.4v0c0-4.6-3.8-8.4-8.4-8.4H664c-4.6,0-8.4-3.8-8.4-8.4v0c0-4.6,3.8-8.4,8.4-8.4h43.3
		C712,367.2,715.8,363.5,715.8,358.8z"/>
	<g>
		<path class="st5" d="M462.3,319.5l625.1,352.6H147.7l258.1-340.9C419,313.7,443.2,308.7,462.3,319.5z"/>
		<path class="st6" d="M357.6,436.1c8.6-1.9,16.2-6.9,23.2-12.3s13.7-11.3,21.5-15.4c13.4-7.1,29.8-8.2,44.1-3.1
			c12,4.3,22.1,12.7,33.2,19.1c11.1,6.4,24.5,11,36.6,6.9c11.1-3.8,18.6-14,29-19.4c15-7.7,32.9-4.2,49.7-3.3c7.2,0.4,14.9-0.1,22-2
			l-154.5-87.2c-19.1-10.8-43.3-5.8-56.6,11.7l-73.4,97c0.3,0.4,0.6,0.8,0.9,1.2C339.1,436,349,437.9,357.6,436.1z"/>
	</g>
	<g>
		<path class="st6" d="M916.8,302.3L655.4,672.1H1249l-247.7-368.8C981.2,273.5,937.5,273,916.8,302.3z"/>
		<path class="st7" d="M863.2,397.6c10.3,3.2,18.8,10.4,27.4,16.8c8.6,6.4,18.4,12.5,29.1,12.8c15.3,0.4,28.2-10.7,40.2-20.2
			c12-9.5,27.5-18.4,41.9-13.2c11.6,4.2,18.3,16.2,28.5,23.1c13.3,9,31.9,8.1,45.8-0.2c0.3-0.2,0.6-0.4,0.9-0.6l-75.8-112.9
			c-20-29.8-63.7-30.4-84.5-1l-66.5,94C854.6,395.9,859.1,396.3,863.2,397.6z"/>
	</g>
	<g>
		<path class="st8" d="M1169.8,398.8l42.3,234.1c0.5,2.5-1.5,4.9-4.1,4.9h-90.5c-2.6,0-4.6-2.4-4.1-5l48.1-234.1
			C1162.5,394.3,1168.9,394.3,1169.8,398.8z"/>
		<g>
			<path class="st9" d="M1159.7,505.4v165.1h6.2V505.4c0-1.7-1.4-3.1-3.1-3.1l0,0C1161.1,502.3,1159.7,503.7,1159.7,505.4z"/>
			<path class="st9" d="M1169.6,570.8h-6.9c-1.4,0-2.5-1.1-2.5-2.5c0-1.4,1.1-2.5,2.5-2.5h6.9c5,0,9.1-4.1,9.1-9.1v-17
				c0-1.4,1.1-2.5,2.5-2.5s2.5,1.1,2.5,2.5v17C1183.8,564.4,1177.4,570.8,1169.6,570.8z"/>
			<path class="st9" d="M1169.6,626.7h-6.9c-1.4,0-2.5-1.1-2.5-2.5c0-1.4,1.1-2.5,2.5-2.5h6.9c5,0,9.1-4.1,9.1-9.1v-17
				c0-1.4,1.1-2.5,2.5-2.5s2.5,1.1,2.5,2.5v17C1183.8,620.3,1177.4,626.7,1169.6,626.7z"/>
			<path class="st9" d="M1162.8,547.8h-6.9c-7.8,0-14.2-6.3-14.2-14.2v-17c0-1.4,1.1-2.5,2.5-2.5s2.5,1.1,2.5,2.5v17
				c0,5,4.1,9.1,9.1,9.1h6.9c1.4,0,2.5,1.1,2.5,2.5C1165.3,546.6,1164.2,547.8,1162.8,547.8z"/>
			<path class="st9" d="M1162.8,603.6h-6.9c-7.8,0-14.2-6.3-14.2-14.2v-17c0-1.4,1.1-2.5,2.5-2.5s2.5,1.1,2.5,2.5v17
				c0,5,4.1,9.1,9.1,9.1h6.9c1.4,0,2.5,1.1,2.5,2.5C1165.3,602.5,1164.2,603.6,1162.8,603.6z"/>
		</g>
	</g>
	<g>
		<path class="st8" d="M244.2,398.8l42.3,234.1c0.5,2.5-1.5,4.9-4.1,4.9H192c-2.6,0-4.6-2.4-4.1-5L236,398.7
			C237,394.3,243.4,394.3,244.2,398.8z"/>
		<g>
			<path class="st9" d="M234.1,505.4v165.1h6.2V505.4c0-1.7-1.4-3.1-3.1-3.1h0C235.5,502.3,234.1,503.7,234.1,505.4z"/>
			<path class="st9" d="M244.1,570.8h-6.9c-1.4,0-2.5-1.1-2.5-2.5c0-1.4,1.1-2.5,2.5-2.5h6.9c5,0,9.1-4.1,9.1-9.1v-17
				c0-1.4,1.1-2.5,2.5-2.5s2.5,1.1,2.5,2.5v17C258.2,564.4,251.9,570.8,244.1,570.8z"/>
			<path class="st9" d="M244.1,626.7h-6.9c-1.4,0-2.5-1.1-2.5-2.5c0-1.4,1.1-2.5,2.5-2.5h6.9c5,0,9.1-4.1,9.1-9.1v-17
				c0-1.4,1.1-2.5,2.5-2.5s2.5,1.1,2.5,2.5v17C258.2,620.3,251.9,626.7,244.1,626.7z"/>
			<path class="st9" d="M237.2,547.8h-6.9c-7.8,0-14.2-6.3-14.2-14.2v-17c0-1.4,1.1-2.5,2.5-2.5s2.5,1.1,2.5,2.5v17
				c0,5,4.1,9.1,9.1,9.1h6.9c1.4,0,2.5,1.1,2.5,2.5C239.7,546.6,238.6,547.8,237.2,547.8z"/>
			<path class="st9" d="M237.2,603.6h-6.9c-7.8,0-14.2-6.3-14.2-14.2v-17c0-1.4,1.1-2.5,2.5-2.5s2.5,1.1,2.5,2.5v17
				c0,5,4.1,9.1,9.1,9.1h6.9c1.4,0,2.5,1.1,2.5,2.5C239.7,602.5,238.6,603.6,237.2,603.6z"/>
		</g>
	</g>
	<g>
		<path class="st10" d="M928.7,401.7L928.7,401.7c25.5,0,46.1,20.7,46.1,46.1v176.3c0,6.8-5.5,12.3-12.3,12.3h-67.6
			c-6.8,0-12.3-5.5-12.3-12.3V447.9C882.5,422.4,903.2,401.7,928.7,401.7z"/>
		<path class="st11" d="M953.6,570.8l-20.1,20.1V548l25.7-25.7c1.5-1.5,1.5-4,0-5.6c-1.5-1.5-4-1.5-5.6,0l-20.1,20.1v-63.8
			c0-2.7-2.2-4.8-4.8-4.8s-4.8,2.2-4.8,4.8v35L903,487.3c-1.5-1.5-4-1.5-5.6,0c-1.5,1.5-1.5,4,0,5.6l26.4,26.4v42.9L903,541.3
			c-1.5-1.5-4-1.5-5.6,0c-1.5,1.5-1.5,4,0,5.6l26.4,26.4v100.1h9.6V602l25.7-25.7c1.5-1.5,1.5-4,0-5.6
			C957.6,569.2,955.1,569.2,953.6,570.8z"/>
	</g>
	<g>
		<path class="st10" d="M471.3,401.7L471.3,401.7c25.5,0,46.1,20.7,46.1,46.1v176.3c0,6.8-5.5,12.3-12.3,12.3h-67.6
			c-6.8,0-12.3-5.5-12.3-12.3V447.9C425.2,422.4,445.9,401.7,471.3,401.7z"/>
		<path class="st11" d="M496.2,570.8l-20.1,20.1V548l25.7-25.7c1.5-1.5,1.5-4,0-5.6c-1.5-1.5-4-1.5-5.6,0l-20.1,20.1v-63.8
			c0-2.7-2.2-4.8-4.8-4.8s-4.8,2.2-4.8,4.8v35l-20.8-20.8c-1.5-1.5-4-1.5-5.6,0c-1.5,1.5-1.5,4,0,5.6l26.4,26.4v42.9l-20.8-20.8
			c-1.5-1.5-4-1.5-5.6,0c-1.5,1.5-1.5,4,0,5.6l26.4,26.4v100.1h9.6V602l25.7-25.7c1.5-1.5,1.5-4,0-5.6
			C500.3,569.2,497.8,569.2,496.2,570.8z"/>
	</g>
	<g>
		<path class="st12" d="M744.3,574.9c-12.6-25.5-12.2-29-6-51.1h0c1-3.4,1.5-7,1.5-10.7c0-6.9-1.8-13.5-4.9-19.2
			c-10.6-19.8-10.2-22.5-6.3-38.8h0c0.5-2.2,0.8-4.4,0.8-6.8c0-16.2-13.1-29.3-29.3-29.3s-29.3,13.1-29.3,29.3
			c0,2.3,0.3,4.6,0.8,6.8h0c3.9,16.3,4.3,19-6.3,38.8c-3.1,5.7-4.9,12.2-4.9,19.2c0,3.7,0.5,7.3,1.5,10.7h0
			c6.2,22.1,6.6,25.6-6,51.1c-3.3,6.6-5.1,14.1-5.1,21.9c0,27.3,22.1,49.4,49.4,49.4s49.4-22.1,49.4-49.4
			C749.4,589,747.5,581.5,744.3,574.9z"/>
		<path class="st9" d="M718.9,513.4c-1.4,0-2.5,1.1-2.5,2.5v35.5h-13.8v-75c0-1.5-1.2-2.6-2.6-2.6h0c-1.5,0-2.6,1.2-2.6,2.6V599
			h-12.6V521c0-1.4-1.1-2.5-2.5-2.5c-1.4,0-2.5,1.1-2.5,2.5v80.6c0,1.4,1.1,2.5,2.5,2.5h15.1v66.4h5.3v-74.9h10.5
			c1.4,0,2.5-1.1,2.5-2.5v-25.3c0-1.4-1.1-2.5-2.5-2.5c-1.4,0-2.5,1.1-2.5,2.5v22.8h-8v-34h16.3c1.4,0,2.5-1.1,2.5-2.5v-38
			C721.4,514.6,720.3,513.4,718.9,513.4z"/>
	</g>
	<g>
		<rect x="127.7" y="672.1" class="st13" width="1144.7" height="23.5"/>
		<path class="st14" d="M167.4,721.5l-13.3-25.9h1091.8l-13.3,25.9c-7.3,14.2-21.9,23.2-37.9,23.2H205.3
			C189.3,744.7,174.6,735.7,167.4,721.5z"/>
		<path class="st15" d="M1127.2,717.6h-17c-3.7,0-6.8,3-6.8,6.8c0,3.7,3,6.8,6.8,6.8h17c3.7,0,6.8-3,6.8-6.8
			C1134,720.7,1130.9,717.6,1127.2,717.6z"/>
		<path class="st15" d="M304.6,720.9h-17c-3.7,0-6.8,3-6.8,6.8c0,3.7,3,6.8,6.8,6.8h17c3.7,0,6.8-3,6.8-6.8
			C311.4,724,308.3,720.9,304.6,720.9z"/>
		<path class="st16" d="M851.3,713.4h-17c-3.7,0-6.8,3-6.8,6.8c0,3.7,3,6.8,6.8,6.8h17c3.7,0,6.8-3,6.8-6.8
			C858,716.4,855,713.4,851.3,713.4z"/>
		<path class="st15" d="M798.6,714.2h-17c-3.7,0-6.8,3-6.8,6.8c0,3.7,3,6.8,6.8,6.8h17c3.7,0,6.8-3,6.8-6.8
			C805.4,717.2,802.4,714.2,798.6,714.2z"/>
		<path class="st15" d="M943.6,717.6h-17c-3.7,0-6.8,3-6.8,6.8c0,3.7,3,6.8,6.8,6.8h17c3.7,0,6.8-3,6.8-6.8
			C950.3,720.7,947.3,717.6,943.6,717.6z"/>
		<path class="st15" d="M598,706.6h-38.7c-3.7,0-6.8,3-6.8,6.8c0,3.7,3,6.8,6.8,6.8H598c3.7,0,6.8-3,6.8-6.8
			C604.7,709.6,601.7,706.6,598,706.6z"/>
		<path class="st15" d="M394.4,700.6h-17c-3.7,0-6.8,3-6.8,6.8c0,3.7,3,6.8,6.8,6.8h17c3.7,0,6.8-3,6.8-6.8
			C401.2,703.7,398.2,700.6,394.4,700.6z"/>
		<path class="st15" d="M999.6,707.4h-7.8c-3.7,0-6.8,3-6.8,6.8c0,3.7,3,6.8,6.8,6.8h7.8c3.7,0,6.8-3,6.8-6.8
			C1006.4,710.4,1003.4,707.4,999.6,707.4z"/>
		<path class="st15" d="M222.9,710.9h-7.8c-3.7,0-6.8,3-6.8,6.8c0,3.7,3,6.8,6.8,6.8h7.8c3.7,0,6.8-3,6.8-6.8
			C229.7,713.9,226.7,710.9,222.9,710.9z"/>
		<path class="st16" d="M1190.2,719.2h-17c-3.7,0-6.8,3-6.8,6.8c0,3.7,3,6.8,6.8,6.8h17c3.7,0,6.8-3,6.8-6.8
			C1197,722.2,1193.9,719.2,1190.2,719.2z"/>
		<path class="st16" d="M673.2,717.6h-17c-3.7,0-6.8,3-6.8,6.8c0,3.7,3,6.8,6.8,6.8h17c3.7,0,6.8-3,6.8-6.8
			C680,720.7,676.9,717.6,673.2,717.6z"/>
		<path class="st16" d="M418.5,724.4h-17c-3.7,0-6.8,3-6.8,6.8c0,3.7,3,6.8,6.8,6.8h17c3.7,0,6.8-3,6.8-6.8
			C425.2,727.4,422.2,724.4,418.5,724.4z"/>
		<polygon class="st15" points="161.2,709.5 1238.8,709.5 1245.9,695.6 154.1,695.6 		"/>
	</g>
	<g>
		<g>
			<g>
				<path class="st17" d="M632.8,478.6c-21.9,7.7-37.8,13.3-61.3,15.9c-2.3,0.2-4.6,0.5-7.1,0.7c-2.7,0.2-5.6,0.4-8.6,0.6
					c-2.2,0.1-4.5,0.2-6.9,0.3c-4,0.1-8.3,0.2-12.8,0.2c-56,0-109.6-5.2-139.2-13.9c-6.4-1.9-6.4-10,0-11.8
					c29.6-8.8,83.1-13.9,139.2-13.9c12.4,0,22.8,0.5,32.1,1.4c2.2,0.2,4.3,0.5,6.4,0.7c2.7,0.3,5.2,0.7,7.7,1.1
					c2.1,0.3,4.1,0.7,6.1,1.1c15.1,3,28.1,7.6,44.3,13.3C635,475,635,477.8,632.8,478.6z"/>
				<path class="st18" d="M582.4,459.8l-18,35.4c2.4-0.2,4.8-0.4,7.1-0.7l17.1-33.6C586.5,460.5,584.5,460.1,582.4,459.8z
					 M568.3,457.9L549,496c2.4-0.1,4.6-0.2,6.9-0.3l18.8-37.1C572.6,458.4,570.5,458.1,568.3,457.9z"/>
			</g>
			<g>
				<path class="st19" d="M474,454.7v38.5c0,1.9,1.6,3.5,3.5,3.5H534c1.9,0,3.5-1.6,3.5-3.5v-38.5c0-1.9-1.6-3.5-3.5-3.5h-56.6
					C475.5,451.2,474,452.8,474,454.7z"/>
				<g>
					<rect x="525.5" y="451.2" class="st20" width="3.8" height="45.4"/>
					<rect x="482.2" y="451.2" class="st20" width="3.8" height="45.4"/>
				</g>
			</g>
			<g>
				<rect x="482.1" y="469.8" class="st21" width="38.6" height="26.9"/>
				<rect x="515.1" y="475.8" class="st22" width="3.7" height="1"/>
				<rect x="505.7" y="475.8" class="st22" width="1.8" height="1"/>
				<rect x="496.4" y="475.8" class="st22" width="3.7" height="1"/>
				<rect x="497.2" y="482.2" class="st22" width="2.1" height="1"/>
				<rect x="503.1" y="482.2" class="st22" width="3.7" height="1"/>
				<rect x="484.4" y="482.2" class="st22" width="3.7" height="1"/>
				<rect x="511.7" y="479" class="st22" width="3.7" height="1"/>
				<rect x="502.3" y="479" class="st22" width="1.8" height="1"/>
				<rect x="492.9" y="479" class="st22" width="3.7" height="1"/>
				<rect x="514" y="482.2" class="st22" width="3.7" height="1"/>
				<rect x="510.5" y="485.3" class="st22" width="3.7" height="1"/>
				<rect x="501.2" y="485.3" class="st22" width="3.7" height="1"/>
				<rect x="487" y="475.8" class="st22" width="3.7" height="1"/>
				<rect x="508.7" y="491.1" class="st22" width="3.7" height="1"/>
				<rect x="499.3" y="491.1" class="st22" width="3.7" height="1"/>
				<rect x="514.6" y="494.3" class="st22" width="3.7" height="1"/>
				<rect x="490" y="491.1" class="st22" width="3.7" height="1"/>
				<rect x="482.1" y="469.8" class="st23" width="38.6" height="3.3"/>
				<rect x="480.4" y="462.6" class="st24" width="42" height="7.2"/>
			</g>
			<g>
				<rect x="408.4" y="462.1" class="st16" width="68.1" height="34.6"/>
				<g>
					<rect x="408.4" y="465.5" class="st14" width="68.1" height="1.4"/>
					<rect x="408.4" y="472.1" class="st14" width="68.1" height="1.4"/>
					<rect x="408.4" y="478.6" class="st14" width="68.1" height="1.4"/>
					<rect x="408.4" y="485.2" class="st14" width="68.1" height="1.4"/>
					<rect x="408.4" y="491.8" class="st14" width="68.1" height="1.4"/>
				</g>
				<rect x="404.1" y="456.4" class="st25" width="76.7" height="5.7"/>
			</g>
		</g>
		<g>
			<polygon class="st26" points="391.8,502.2 387.5,499.3 397.1,485.3 552.8,485.3 552.8,500.8 547.6,500.8 547.6,490.5 
				399.8,490.5 			"/>
			<rect x="361.3" y="578.2" class="st27" width="478.7" height="65.6"/>
			<path class="st28" d="M874.5,589.9L862,637.2c-1.7,6.4-7.5,10.9-14.2,10.9H825v-18.3c0-16.8-13.6-30.5-30.5-30.5h-44.4
				c-16.8,0-30.5,13.6-30.5,30.5v18.3H509.3v-18.3c0-16.8-13.6-30.5-30.5-30.5h-44.4c-16.8,0-30.5,13.6-30.5,30.5v18.3h-95
				l-20.3-35.6c-1.4-2.4-2.1-5.1-2.3-7.8c-0.1-2.8,0.4-5.5,1.6-8.1l14.3-30.7c2.6-5.7,8.3-9.3,14.6-9.3h0.7l52.5-53.9
				c3.8-3.9,8.9-6,14.3-6h248.1c5.1,0,10,0.9,14.7,2.6c5.4,2,10.4,5,14.7,8.9l48.8,45h121.9c9.5,0,24.7,3.8,31.4,10.6l4.9,5
				c3.8,3.9,6,8.9,6.3,14.2C875.3,585.2,875.1,587.6,874.5,589.9z"/>
			<g>
				<circle class="st27" cx="764.8" cy="639" r="35.3"/>
				<circle class="st27" cx="448.9" cy="639" r="35.3"/>
			</g>
			<g>
				<g>
					<circle class="st13" cx="772.4" cy="635.6" r="39.1"/>
					<circle class="st29" cx="772.4" cy="635.6" r="24.1"/>
					<circle class="st30" cx="772.4" cy="635.6" r="19.8"/>
					<circle class="st29" cx="772.4" cy="635.6" r="10.8"/>
				</g>
				<g>
					<circle class="st13" cx="456.6" cy="635.6" r="39.1"/>
					<circle class="st29" cx="456.6" cy="635.6" r="24.1"/>
					<circle class="st30" cx="456.6" cy="635.6" r="19.8"/>
					<circle class="st29" cx="456.6" cy="635.6" r="10.8"/>
				</g>
			</g>
			<path class="st26" d="M874.5,589.9l-3.3,12.4l-9.2,34.9c-1.7,6.4-7.5,10.9-14.2,10.9h-4.5l14.8-65.2h17.1
				C875.3,585.2,875.1,587.6,874.5,589.9z"/>
			<path class="st31" d="M874.5,589.9l-3.3,12.4h-17.5l4.4-19.4h17.1C875.3,585.2,875.1,587.6,874.5,589.9z"/>
			<g>
				<path class="st32" d="M794.6,596.3h-44.4c-18.5,0-33.6,15.1-33.6,33.6V645v3.1h3.1v-18.3c0-16.8,13.6-30.5,30.5-30.5h44.4
					c16.8,0,30.5,13.6,30.5,30.5v18.3h3.1V645v-15.2C828.1,611.4,813.1,596.3,794.6,596.3z"/>
				<path class="st32" d="M512.4,648.1V645h0v-15.2c0-18.5-15.1-33.6-33.6-33.6h-44.4c-18.5,0-33.5,15-33.6,33.4v18.4h3.1v-18.3
					c0-16.8,13.6-30.5,30.5-30.5h44.4c16.8,0,30.5,13.6,30.5,30.5v18.3H512.4z"/>
			</g>
			<path class="st26" d="M329.5,648.1h-20.6l-20.3-35.6c-1.4-2.4-2.1-5.1-2.3-7.8h7.4c7.1,0,13.6,3.8,17.1,10L329.5,648.1z"/>
			<g>
				<path class="st33" d="M851.5,583.3c0-0.1,0-0.2,0-0.4H307.8l-7.6,16.3c-0.8,1.6-1.1,3.4-1,5.2c0,0.4,0.1,0.7,0.1,1.1
					c4.8,1.4,9,4.7,11.5,9.2l4.2,7.5h83.6c3.5-16.6,18.3-29,35.9-29h44.4c17.6,0,32.3,12.5,35.9,29h199.6c3.5-16.6,18.3-29,35.9-29
					h44.4c17.6,0,32.3,12.5,35.9,29h11.7l9-33.9C851.5,586.7,851.7,585,851.5,583.3z"/>
				<path class="st34" d="M832,620.2c-4.4-16.9-19.9-29-37.5-29h-44.4c-17.6,0-33.1,12.1-37.5,29H516.3c-4.4-16.9-19.9-29-37.5-29
					h-44.4c-17.6,0-33.1,12.1-37.5,29h-80.8l-3.6-6.4c-2.5-4.5-6.5-7.9-11.3-9.7c0-1.4,0.3-2.7,0.8-3.9l7-15.1h540.4
					c0,1-0.2,1.9-0.4,2.8l-8.5,32.4H832z"/>
				<g>
					<path class="st35" d="M352.7,615.9c-0.2,0-0.3,0-0.5,0c-7.9,0-15.6,1.5-22.4,4.3h2.9c6.1-2.1,12.7-3.3,19.5-3.3
						c0.2,0,0.3,0,0.5,0c6.8,0.1,13.8,1.1,21.2,3.3h3.5C368.7,617.3,360.6,615.9,352.7,615.9z"/>
					<path class="st35" d="M602.8,620.2c0.1-0.5,0.2-1.1,0.1-1.7c-0.4-2.6-3-4.4-7.3-5.1c-17.4-2.7-35.8-0.2-52,6.8h2.7
						c15.5-6.2,32.7-8.3,49.1-5.8c2.3,0.3,6.1,1.4,6.5,4.2c0.1,0.6,0,1.1-0.2,1.6H602.8z"/>
					<path class="st35" d="M566.8,586.1c8,1.2,16.3,2.5,24.4,3.7c17.9,2.5,37.1,4.6,56.5,4.6c21,0,42.2-2.4,62.5-9.4H707
						c-38,12.3-79.6,8.9-115.6,3.8c-8.1-1.1-16.4-2.4-24.4-3.7c-0.2,0-0.5-0.1-0.7-0.1h-6.7C562,585.3,564.4,585.7,566.8,586.1z"/>
					<path class="st35" d="M408.4,601.3c-18.9-3.2-38.3-5.4-57.3-2.6c-5.6,0.8-11.1,2.1-16.5,3.4c-4.9,1.1-10,2.3-15.1,3.2
						c-4.9,0.8-9.4,1.2-13.6,1.2c0.5,0.3,0.9,0.7,1.4,1c3.9-0.1,8-0.4,12.4-1.2c5.1-0.8,10.2-2,15.1-3.2c5.4-1.2,10.9-2.5,16.4-3.4
						c18.7-2.8,37.6-0.7,56.2,2.4C407.7,601.9,408.1,601.6,408.4,601.3z"/>
					<path class="st35" d="M848.6,589.4l0.3-1.2c-6,1.7-10.9,6.2-15.6,10.6c-1.9,1.7-3.8,3.5-5.7,5.1c-0.9,0.7-1.8,1.4-2.7,2
						c0.2,0.3,0.4,0.5,0.6,0.8c0.9-0.6,1.9-1.3,2.8-2c2-1.6,3.9-3.4,5.8-5.1C838.5,595.4,843.1,591.2,848.6,589.4z"/>
					<path class="st35" d="M715.8,612c-7.5-0.3-15.1-0.2-22.6,1c-7.7,1.2-15.3,3.7-22.4,7.2h2.4c6.4-2.9,13.2-5,20.1-6.1
						c7.2-1.1,14.6-1.3,21.9-1C715.5,612.7,715.6,612.3,715.8,612z"/>
					<path class="st35" d="M516.6,585c-8.9,1.8-18.4,4.9-26.8,7.8c0.6,0.2,1.1,0.3,1.7,0.5c9.9-3.3,21.2-6.9,30.9-8.3H516.6z"/>
					<path class="st35" d="M527.5,620.2c4.1-4.5,9.3-7.8,14.2-10c11.5-5,24.1-5.8,36.4-6.5l103-6.2c7.9-0.5,16-1,23.7-3.1
						c5.2-1.4,12-4.2,17.5-9.4h-1.5c-5.2,4.6-11.5,7.1-16.3,8.4c-7.7,2.1-15.7,2.6-23.5,3.1l-103,6.2c-11.8,0.7-25.1,1.5-36.7,6.6
						c-5.3,2.3-10.8,6-15.2,10.9H527.5z"/>
					<path class="st35" d="M654,605c7.5-0.9,15.2-0.9,22.7-1c8.1,0,16.4-0.1,24.6-1.2c15.2-2.2,29.8-8.5,42-17.8h-1.7
						c-11.8,8.8-25.8,14.7-40.4,16.8c-8.1,1.2-16.4,1.2-24.4,1.2c-7.5,0-15.2,0-22.8,1c-15.3,1.9-30,7.5-42.7,16.2h1.9
						C625.3,612.1,639.4,606.8,654,605z"/>
					<path class="st35" d="M305.7,592.3c20.1,1.1,40.3,1.6,60.5,1.6c19.6,0,39.2-0.5,58.7-1.5c3.1-0.8,6.2-1.2,9.5-1.2h10.3
						c21.2-1.5,42.4-3.5,63.5-6.2h-8.5c-64.1,7.6-129.1,9.7-193.5,6.3L305.7,592.3z"/>
					<path class="st35" d="M535.2,600.7c4.5-1.4,10.1-3.2,11.6-6.2c0.5-1,0.5-2.1,0-3.2c-1.2-3.1-3.4-5.1-6.4-6.4h-3.2
						c4.1,1,7.2,3.1,8.7,6.8c0.3,0.8,0.3,1.6,0,2.3c-1.3,2.7-6.6,4.3-11,5.7c-1.1,0.3-2,0.6-2.9,0.9c-7.2,2.5-14.6,4.5-22.1,6.1
						c0.2,0.3,0.5,0.6,0.7,0.9c7.4-1.5,14.7-3.5,21.8-6C533.2,601.4,534.1,601.1,535.2,600.7z"/>
					<path class="st35" d="M832.4,585c-7.6,2.6-15,6-22.2,9.5c0.4,0.2,0.8,0.4,1.2,0.6c7.9-3.8,15.9-7.5,24.3-10.1H832.4z"/>
				</g>
			</g>
			<g>
				<path class="st36" d="M372.8,511.3l-40.7,41.8h151.6l35.6-46.1H383.1C379.2,507,375.5,508.5,372.8,511.3z"/>
				<path class="st36" d="M660.6,507h-18.4l46,46.1h22.5l-48.8-45C661.5,507.7,661,507.4,660.6,507z"/>
				<g>
					<polygon class="st36" points="597.2,553.1 676,553.1 635.5,507 583.9,507 					"/>
					<polygon class="st36" points="576.9,507 532.7,507 495.7,553.1 590.2,553.1 					"/>
				</g>
				<polygon class="st26" points="511.7,510.4 482.8,548 367.8,548 400.5,510.8 				"/>
				<polygon class="st26" points="576.9,507 562,507 568.2,548 588.7,548 				"/>
				<polygon class="st26" points="562,548 556.5,507 537.9,507 509.7,548 				"/>
				<polygon class="st26" points="595.7,548 650.1,548 632.2,507 583.9,507 				"/>
				<polygon class="st26" points="655.3,548 671.4,548 635.5,507 				"/>
			</g>
		</g>
		<rect x="439.8" y="455" class="st37" width="3.3" height="35.5"/>
		<rect x="500.6" y="450.5" class="st37" width="3.3" height="39.9"/>
	</g>
</g>
</svg>
