<svg xmlns="http://www.w3.org/2000/svg" viewBox="0 0 2500 1400"><defs><style>.cls-1,.cls-4{isolation:isolate;}.cls-2{fill:#d9dada;}.cls-3{fill:#7ad5c3;}.cls-4,.cls-45,.cls-54{fill:#fff;}.cls-4{opacity:0.37;}.cls-5{fill:#637f3e;}.cls-6{fill:#b8c76c;}.cls-7{fill:#8ba451;}.cls-8{fill:#4b3a35;}.cls-9{fill:#bec65a;}.cls-10{fill:#9eadb1;}.cls-11{fill:#2b9d62;}.cls-12{fill:#3cb97f;}.cls-13{fill:#7b6a5b;}.cls-14{fill:#a47b65;}.cls-15{fill:#c29e6a;}.cls-16{fill:#b98c58;}.cls-17{fill:#b68d61;}.cls-18{fill:#a78259;}.cls-19,.cls-28,.cls-29,.cls-55{fill:none;}.cls-19{stroke:#a78259;}.cls-19,.cls-28,.cls-55{stroke-miterlimit:10;}.cls-20{fill:#cff0f8;}.cls-21{fill:#c29e6c;}.cls-22{fill:#907156;}.cls-23{fill:#979a9e;}.cls-24{fill:#aeb1b7;}.cls-25{fill:#efa500;}.cls-26{fill:#ce8a02;}.cls-27{fill:#3b56a3;}.cls-28,.cls-55{stroke:#f27139;}.cls-28{stroke-width:2px;}.cls-30{fill:#88c348;}.cls-31{fill:#f27139;}.cls-32{fill:#e66c54;}.cls-33{fill:#ff876c;}.cls-34{fill:#a5a5a5;opacity:0.75;}.cls-34,.cls-37,.cls-38,.cls-39,.cls-43,.cls-51{mix-blend-mode:multiply;}.cls-35{fill:#c4bcb0;}.cls-36{fill:#e0dcdc;}.cls-37,.cls-38,.cls-43,.cls-52{fill:#bcbcbc;}.cls-37{opacity:0.79;}.cls-38{opacity:0.46;}.cls-40{fill:#bdbdbd;}.cls-41{fill:#2f302d;}.cls-42{fill:#1c1c1c;}.cls-43{opacity:0.77;}.cls-44{fill:#ffcf8f;}.cls-46{fill:#d14e4e;}.cls-47{fill:#231f20;}.cls-48{fill:#9e9e9e;}.cls-49{fill:#e6e7e8;}.cls-50{fill:#333;}.cls-51{opacity:0.67;}.cls-53{fill:#d1d3d4;}.cls-54{mix-blend-mode:soft-light;}.cls-55{stroke-width:7px;}.cls-56{fill:#88c449;}.cls-57{fill:#7da84c;}</style></defs><title>Artboard 1</title><g class="cls-1"><g id="Layer_1" data-name="Layer 1"><g id="Layer_1-2" data-name="Layer 1"><ellipse class="cls-2" cx="1764.27" cy="1123" rx="529.9" ry="33.4"/><path class="cls-3" d="M2499.1-163.3H-37.7V1181.4c0,28.1,27.25,51,60.81,51h2476Z"/><path class="cls-4" d="M4.5-5.3,1.4,388.5l311-46.5a1177.14,1177.14,0,0,1,341.5-1l235.8,33.9a706.75,706.75,0,0,0,105.7,7.2l402-38.8a929.72,929.72,0,0,1,152-2.2L1977.3,370a986.53,986.53,0,0,0,154.7-1.6l351.4-30.9c10.1-.9,17.8-10.4,17.8-21.8l-2-321.2H4.5Z"/><path class="cls-5" d="M1520.25,722.34a67.93,67.93,0,0,0-38.9-61.4,126.79,126.79,0,0,0,13.6-57.4c0-68.4-53.3-123.8-120.3-127a136,136,0,0,0,2.6-25.8c0-70.3-56.4-127.3-126.2-127.3s-126.2,56.9-126.2,127.3a130.46,130.46,0,0,0,9,47.3,126.42,126.42,0,0,0-34.3-5c-65,0-118.6,49.7-125.4,113.5a42.47,42.47,0,0,0,2.3,79.1,94.48,94.48,0,0,0-11.5,44.9c0,51.5,41.4,93.4,92.6,93.4,44,0,80.7-31.1,90.1-72.7,18.9,33.3,54.2,55.6,94.8,55.6,3.4,0,6.9-.2,10.3-.5,19.4,45.2,63.8,76.8,115.9,76.8,62.8,0,114.9-46.5,124.4-107.1A66,66,0,0,0,1520.25,722.34Z"/><path class="cls-6" d="M1495,603.54c0-68.4-53.3-123.8-120.3-127a136,136,0,0,0,2.6-25.8c0-70.3-56.4-127.3-126.2-127.3S1125,380.34,1125,450.74a130.46,130.46,0,0,0,9,47.3,126.42,126.42,0,0,0-34.3-5c-64,0-116.7,48.2-124.9,110.4-.5,0-.8-.2-1.3-.2a25.5,25.5,0,0,0,0,51,23.15,23.15,0,0,0,4.6-.5c14.6,54,63.3,93.7,121.6,93.7a125.64,125.64,0,0,0,80.6-29.3,125.2,125.2,0,0,0,54,12.4,119.92,119.92,0,0,0,24.8-2.5c18.7,32.1,51.4,53.3,88.8,53.3,46.6,0,86.2-33.1,99.9-79C1476.65,679.54,1495,643.74,1495,603.54Z"/><path class="cls-7" d="M1356.85,529a114.67,114.67,0,0,0,20.5-65.5c0-63.2-50.9-114.5-113.6-114.5s-113.6,51.3-113.6,114.5a113.91,113.91,0,0,0,8.9,44.4,124.85,124.85,0,0,0-18.7,19.7,109,109,0,0,0-38.4-7c-51.5,0-94.8,35.4-107.6,83.4a25.49,25.49,0,1,0-3.9,50.7c.7,0,1.3-.2,2-.2,9.8,52.1,55.1,91.5,109.6,91.5a110.83,110.83,0,0,0,77.5-31.6,122.5,122.5,0,0,0,58.9,15.1,119,119,0,0,0,15.9-1.2,124.29,124.29,0,0,0,64.7,46,96.87,96.87,0,0,0,31,5.1c.7,0,1.3-.2,2-.2s1.5.2,2.1.2c68.4,0,124.1-55.9,124.1-125.1C1478.25,585.84,1424.15,530.54,1356.85,529Z"/><polygon class="cls-8" points="1066.25 756.34 1200.75 892.04 1200.75 993.84 1200.15 1138.34 1233.55 1158.04 1234.45 993.84 1234.45 908.94 1385.75 790.24 1234.45 874.94 1234.45 841.04 1318.45 739.24 1234.45 806.74 1234.45 637.44 1217.55 722.34 1167.15 671.34 1217.55 739.24 1200.75 858.14 1167.15 824.14 1152.85 759.44 1150.25 807.14 1066.25 756.34"/><ellipse class="cls-9" cx="1051.82" cy="744.03" rx="22.91" ry="23.09"/><circle class="cls-9" cx="1051.82" cy="682.56" r="7.61"/><path class="cls-5" d="M2632,824.29a59.23,59.23,0,0,0-33.92-53.54A110.56,110.56,0,0,0,2610,720.7c0-59.64-46.48-107.95-104.9-110.74a118.55,118.55,0,0,0,2.27-22.5c0-61.3-49.18-111-110-111s-110,49.61-110,111a113.76,113.76,0,0,0,7.85,41.24,110.23,110.23,0,0,0-29.91-4.36c-56.68,0-103.42,43.34-109.34,99a37,37,0,0,0,2,69,82.39,82.39,0,0,0-10,39.15c0,44.91,36.1,81.44,80.74,81.44,38.37,0,70.37-27.12,78.56-63.39,16.48,29,47.26,48.48,82.66,48.48,3,0,6-.17,9-.44,16.92,39.41,55.63,67,101.06,67,54.76,0,100.19-40.55,108.47-93.39A57.39,57.39,0,0,0,2632,824.29Z"/><path class="cls-6" d="M2610.15,720.79c0-59.64-46.48-107.95-104.9-110.74a118.55,118.55,0,0,0,2.27-22.5c0-61.3-49.18-111-110-111s-110,49.61-110,111a113.76,113.76,0,0,0,7.85,41.24,110.23,110.23,0,0,0-29.91-4.36c-55.81,0-101.76,42-108.91,96.27-.44,0-.7-.17-1.13-.17a22.24,22.24,0,0,0,0,44.47,20.18,20.18,0,0,0,4-.44c12.73,47.09,55.2,81.7,106,81.7a109.55,109.55,0,0,0,70.28-25.55,109.17,109.17,0,0,0,47.09,10.81,104.57,104.57,0,0,0,21.62-2.18c16.31,28,44.82,46.48,77.43,46.48,40.63,0,75.16-28.86,87.11-68.89A109.43,109.43,0,0,0,2610.15,720.79Z"/><path class="cls-7" d="M2489.73,655.91a100,100,0,0,0,17.88-57.11c0-55.11-44.38-99.84-99.06-99.84s-99.06,44.73-99.06,99.84a99.32,99.32,0,0,0,7.76,38.72,108.87,108.87,0,0,0-16.31,17.18,95.05,95.05,0,0,0-33.48-6.1c-44.91,0-82.66,30.87-93.82,72.72a22.22,22.22,0,1,0-3.4,44.21c.61,0,1.13-.17,1.74-.17,8.55,45.43,48,79.78,95.57,79.78a96.64,96.64,0,0,0,67.58-27.55,106.82,106.82,0,0,0,51.36,13.17,103.75,103.75,0,0,0,13.86-1,108.38,108.38,0,0,0,56.42,40.11,84.47,84.47,0,0,0,27,4.45c.61,0,1.13-.17,1.74-.17s1.31.17,1.83.17c59.64,0,108.21-48.74,108.21-109.08C2595.41,705.36,2548.24,657.14,2489.73,655.91Z"/><polygon class="cls-8" points="2232.59 847.53 2349.87 965.86 2349.87 1054.62 2330.07 1334.78 2378.82 1334.26 2379.25 1054.62 2379.25 980.68 2511.18 877.09 2379.25 951.12 2379.25 921.56 2452.67 832.79 2379.25 891.65 2379.25 744.03 2364.6 817.88 2320.57 773.59 2364.6 832.79 2349.87 936.3 2320.57 906.65 2308.1 850.23 2306.01 891.91 2232.59 847.53"/><path class="cls-7" d="M2499.1,1232.4H59.8c-32.3,0-58.5-22.5-58.5-50.3V1106c0-27.8,26.2-50.3,58.5-50.3H2499.1Z"/><path class="cls-10" d="M2499.1,1400H-37.7V1157.6H2499.2V1400Z"/><path class="cls-11" d="M1180.4,1096.3c3.9,4.6,10,7.9,16.9,9.6,3.1-4.8,2.8-10.8-1.6-16.1-3.9-4.6-10-7.9-16.9-9.6C1175.6,1085.1,1176,1091,1180.4,1096.3Z"/><path class="cls-11" d="M1216.8,1097.3c-4.3,4.5-10.7,7.4-17.6,8.6-2.6-5-1.8-10.9,3-16.1,4.3-4.5,10.7-7.4,17.6-8.6C1222.6,1086.2,1221.8,1092.2,1216.8,1097.3Z"/><path class="cls-12" d="M1188.9,1091.5c.5,6,4.1,11.4,9.4,15.2,5.9-3.8,9.4-9.9,8.7-16.9-.5-6-4.1-11.4-9.4-15.2C1191.7,1078.6,1188.3,1084.8,1188.9,1091.5Z"/><path class="cls-11" d="M1195.3,1099.3a19.41,19.41,0,0,0,3,7.4c.8-2,.8-5,.2-8.4a19.41,19.41,0,0,0-3-7.4C1194.7,1092.9,1194.7,1096,1195.3,1099.3Z"/><path class="cls-11" d="M19.61,1362c3.9,4.6,10,7.9,16.9,9.6,3.1-4.8,2.8-10.8-1.6-16.1-3.9-4.6-10-7.9-16.9-9.6C14.81,1350.78,15.21,1356.68,19.61,1362Z"/><path class="cls-11" d="M56,1363c-4.3,4.5-10.7,7.4-17.6,8.6-2.6-5-1.8-10.9,3-16.1,4.3-4.5,10.7-7.4,17.6-8.6C61.81,1351.88,61,1357.88,56,1363Z"/><path class="cls-12" d="M28.11,1357.18c.5,6,4.1,11.4,9.4,15.2,5.9-3.8,9.4-9.9,8.7-16.9-.5-6-4.1-11.4-9.4-15.2C30.91,1344.28,27.51,1350.48,28.11,1357.18Z"/><path class="cls-11" d="M34.51,1365a19.41,19.41,0,0,0,3,7.4c.8-2,.8-5,.2-8.4a19.41,19.41,0,0,0-3-7.4C33.91,1358.58,33.91,1361.68,34.51,1365Z"/><polygon class="cls-13" points="1099.62 378.09 518.01 378.09 516.29 -77.58 1099.62 378.09"/><polygon class="cls-14" points="1057.88 378.09 518.01 378.09 516.29 -44.9 1057.88 378.09"/><polygon class="cls-15" points="1000.39 378.09 518.01 378.09 516.29 0.1 959.83 346.4 1000.39 378.09"/><polygon class="cls-16" points="1000.39 378.09 518.01 378.09 516.29 346.4 959.83 346.4 1000.39 378.09"/><polygon class="cls-14" points="1099.62 378.09 1090.11 404.43 1078.8 436.03 517.56 444 518.01 378.09 1099.62 378.09"/><polygon class="cls-15" points="1090.11 404.43 1078.8 436.03 517.56 444 517.83 404.43 1090.11 404.43"/><rect class="cls-17" x="517.56" y="436.03" width="561.32" height="875.3"/><rect class="cls-15" x="516.29" y="815.83" width="562.5" height="50.07"/><rect class="cls-18" x="517.56" y="436.03" width="561.32" height="15.84"/><line class="cls-19" x1="517.56" y1="894.87" x2="1078.8" y2="894.87"/><line class="cls-19" x1="517.56" y1="926.55" x2="1078.8" y2="926.55"/><line class="cls-19" x1="517.56" y1="952.9" x2="1078.8" y2="952.9"/><line class="cls-19" x1="517.56" y1="979.25" x2="1078.8" y2="979.25"/><line class="cls-19" x1="516.29" y1="478.31" x2="1078.8" y2="478.31"/><line class="cls-19" x1="516.29" y1="509.91" x2="1078.8" y2="509.91"/><line class="cls-19" x1="516.29" y1="536.34" x2="1078.8" y2="536.34"/><line class="cls-19" x1="516.29" y1="562.69" x2="1078.8" y2="562.69"/><line class="cls-19" x1="516.29" y1="594.29" x2="1078.8" y2="594.29"/><line class="cls-19" x1="516.29" y1="625.88" x2="1078.8" y2="625.88"/><line class="cls-19" x1="516.29" y1="652.32" x2="1078.8" y2="652.32"/><line class="cls-19" x1="516.29" y1="678.67" x2="1078.8" y2="678.67"/><line class="cls-19" x1="516.29" y1="710.26" x2="1078.8" y2="710.26"/><line class="cls-19" x1="517.56" y1="741.95" x2="1078.8" y2="741.95"/><line class="cls-19" x1="517.56" y1="768.3" x2="1078.8" y2="768.3"/><line class="cls-19" x1="517.56" y1="794.64" x2="1078.8" y2="794.64"/><line class="cls-19" x1="516.29" y1="1010.93" x2="1078.8" y2="1010.93"/><line class="cls-19" x1="516.29" y1="1037.28" x2="1078.8" y2="1037.28"/><line class="cls-19" x1="516.29" y1="1068.88" x2="1078.8" y2="1068.88"/><line class="cls-19" x1="516.29" y1="1100.47" x2="1078.8" y2="1100.47"/><line class="cls-19" x1="516.29" y1="1126.91" x2="1078.8" y2="1126.91"/><line class="cls-19" x1="516.29" y1="1158.51" x2="1078.8" y2="1158.51"/><line class="cls-19" x1="516.29" y1="1190.11" x2="1078.8" y2="1190.11"/><line class="cls-19" x1="516.29" y1="1216.54" x2="1078.8" y2="1216.54"/><line class="cls-19" x1="516.29" y1="1248.14" x2="1078.8" y2="1248.14"/><line class="cls-19" x1="516.29" y1="1279.74" x2="1078.8" y2="1279.74"/><line class="cls-19" x1="775.59" y1="1306.08" x2="1078.8" y2="1306.08"/><rect class="cls-18" x="775.59" y="478.31" width="151.56" height="200.36"/><rect class="cls-20" x="791.16" y="509.91" width="47.08" height="42.28"/><rect class="cls-20" x="848.74" y="610.22" width="47.08" height="42.28"/><rect class="cls-20" x="791.16" y="562.69" width="47.08" height="89.63"/><rect class="cls-20" x="848.74" y="509.91" width="47.08" height="89.63"/><path class="cls-11" d="M1291.27,1333.38a13.69,13.69,0,0,0,7.7,4.3,6.42,6.42,0,0,0-.8-7.4,13.69,13.69,0,0,0-7.7-4.3C1289.07,1328.08,1289.27,1330.88,1291.27,1333.38Z"/><polygon class="cls-21" points="927.15 680.48 775.59 680.48 733.67 680.48 749.42 714.97 775.59 714.97 927.15 714.97 953.31 714.97 969.07 680.48 927.15 680.48"/><polygon class="cls-18" points="775.77 1005.23 775.59 1005.23 695.28 1005.23 695.28 1311.51 775.59 1311.51 775.77 1311.51 856.17 1311.51 856.17 1005.23 775.77 1005.23"/><path class="cls-20" d="M820.5,1080.92c.18-33.23-19.37-60.39-43.91-61.66v-.09h-1.81v.09c-24.54,1.27-44.09,28.52-43.91,61.66,0,33.23,19.47,60.3,43.73,61.66v.09h2.17v-.09C801,1141.13,820.5,1114.15,820.5,1080.92Z"/><circle class="cls-22" cx="827.01" cy="1156.61" r="11.77"/><path class="cls-22" d="M778.58,1220.44h48.71c-.18-26.53-21.37-48-47.71-48h-1Z"/><rect class="cls-22" x="778.85" y="1225.96" width="48.17" height="67.18"/><path class="cls-22" d="M772.69,1172.45h-1c-26.26,0-47.53,21.46-47.71,48h48.71Z"/><rect class="cls-22" x="724.26" y="1225.96" width="48.17" height="67.18"/></g><g id="Layer_2" data-name="Layer 2"><path class="cls-23" d="M885,1154.62a30.4,30.4,0,0,0-4.16,14.85c0,26,36.4,47.08,81.21,47.08,41.19,0,75.24-17.75,80.49-40.83"/><path class="cls-23" d="M1042.58,1175.71c-54.05,58.21-161.88,25.35-157.53-21.09"/><path class="cls-24" d="M1042.58,1175.71a29.4,29.4,0,0,0,.72-6.25c0-26-36.4-47.08-81.21-47.08-35.94,0-66.36,13.49-77,32.23C880.7,1201.06,988.62,1233.92,1042.58,1175.71Z"/><path class="cls-25" d="M945.8,1168.38l-1.72,28.7,11.77,23.54v15.75h19v-15.75l12.58-23.54-1.72-27.52C973.23,1173.18,959.92,1173.72,945.8,1168.38Z"/><path class="cls-26" d="M985.72,1169.55l-1-12.68-38.12.18-.81,11.32C959.83,1177.34,973.14,1176.71,985.72,1169.55Z"/><circle class="cls-27" cx="964.09" cy="1158.51" r="29.7"/><path class="cls-28" d="M978.12,1161.22c10.77-10.77-11.5-30.78-19.47-22.82"/><path class="cls-29" d="M972.32,1158.87a1.46,1.46,0,0,0-1.18-.54H957.21a1.46,1.46,0,0,0-1.18.54l-2.17,2.72h20.73Z"/><path class="cls-30" d="M948.24,1174.44l.54,3.8a1.12,1.12,0,0,0,1.09.72h3.62a1,1,0,0,0,1.09-.72l.45-3c-2.17-.18-4.35-.45-6.61-.72A.28.28,0,0,0,948.24,1174.44Z"/><path class="cls-30" d="M973.23,1175.17l.45,3a1.12,1.12,0,0,0,1.09.72h3.62a1,1,0,0,0,1.09-.72l.54-3.8h-.18A54.9,54.9,0,0,1,973.23,1175.17Z"/><path class="cls-30" d="M982.19,1160.68l-1-.36a.77.77,0,0,0-.63,0l-2.44.91-4.07-5.07a1.89,1.89,0,0,0-1.45-.72H955.76a1.89,1.89,0,0,0-1.45.72l-4.07,5.07-2.44-.91a.77.77,0,0,0-.63,0l-1,.36a.9.9,0,0,0-.63.91.78.78,0,0,0,.27.54l1.18.81a1.29,1.29,0,0,0,.54.18h.81a19.86,19.86,0,0,0-1.36,9.78,1.83,1.83,0,0,0,1.45,1.63h.18c2.17.27,4.35.54,6.61.72a102.83,102.83,0,0,0,18.29,0c2.17-.18,4.35-.45,6.61-.72h.18a1.94,1.94,0,0,0,1.45-1.63,19.86,19.86,0,0,0-1.36-9.78h.81a1.29,1.29,0,0,0,.54-.18l1.18-.81a.65.65,0,0,0,.27-.54C982.83,1161.13,982.56,1160.77,982.19,1160.68Zm-28.52.91,2.17-2.72a1.46,1.46,0,0,1,1.18-.54H971a1.46,1.46,0,0,1,1.18.54l2.17,2.72Z"/><path class="cls-31" d="M960.65,1140.49l-3.71-4c-.72-.81-6,2.81-6.79,3.53l-.72.63-.36-.36a.34.34,0,0,0-.54,0l-1.72,1.63a.34.34,0,0,0,0,.54l1.09,1.18-2,1.81a.17.17,0,0,0,0,.27l.72.81a.17.17,0,0,0,.27,0l2-1.81,3,3.26-2,1.81a.17.17,0,0,0,0,.27l.72.81a.17.17,0,0,0,.27,0l2-1.81,1.09,1.18a.34.34,0,0,0,.54,0l1.72-1.63a.34.34,0,0,0,0-.54l-.36-.36.72-.63C957.3,1146.2,961.37,1141.31,960.65,1140.49Z"/></g><rect class="cls-32" x="1341.34" y="1162.02" width="154.02" height="43.64"/><rect class="cls-33" x="1495.37" y="1162.02" width="154.02" height="43.64"/><rect class="cls-32" x="1649.39" y="1162.02" width="154.03" height="43.64"/><rect class="cls-33" x="1803.41" y="1162.02" width="154.01" height="43.64"/><rect class="cls-32" x="1957.43" y="1162.02" width="154.02" height="43.64"/><rect class="cls-33" x="2111.45" y="1162.02" width="154.03" height="43.64"/><path class="cls-34" d="M2439.14,1310.61H1302.87a16.22,16.22,0,0,1-14.58-23.34l30.78-63.1a16.22,16.22,0,0,1,14.58-9.11H2408.36a16.22,16.22,0,0,1,14.58,9.11l30.78,63.1A16.22,16.22,0,0,1,2439.14,1310.61Z"/><polyline class="cls-35" points="1671.38 1072.84 1666.05 1073.08 1666.05 1073.08 1671.38 1072.84"/><polygon points="2356.51 1237.49 2407.08 1237.49 2423.16 1173.47 2356.51 1173.47 2356.51 1237.49"/><path class="cls-36" d="M2392.84,1198.38c-5.18,7.94-11.39,29.63-2.76,29.63H2418c6.56,0,6.21,10,1.38,19.29s-11,9.66-21.69,9.66H1589c-36.13,0-143.47-28.16-157-28.16h-81.32c-11.72,0-34.24-9.17-43-36-.48-1.49-.94-3-1.36-4.41-7.22-24.67-6.12-42.93-4.59-47.28,1.6-4.61,12.42-6,12.42-18.83,0-.68,0-1.52.07-2.52.18-4.33.77-11.48,1.58-19.91.33-3.27.68-6.74,1-10.32.51-5.18,3.36-9.83,3.93-15.23,1.08-9.77-.06-20.19.92-28.18,1-8.69,1.89-15.36,2.31-18,.61-3.86.79-8.87,2.33-13.63,2.53-7.88,8.72-15.08,26.38-15.08,28.27,0,64.09.94,78.32-3,9.17-2.52,60.72-27,103.74-47,23.77-11.08,44.93-20.79,54.9-24.71,28-11,80.93-11.77,105.51-11.77s138.51.07,138.51.07c23,0,75.33-3.21,132.75,28.95s132.65,87.36,155.67,93.53c9.79,2.61,34.77,4.37,64.53,6.94q7.33.61,15,1.32c37,3.42,78.52,8.36,107.1,17.63,31.5,10.25,61.13,19.93,82.71,33.8,2.35,1.49,4.89,3.25,7.53,5.24a73.67,73.67,0,0,1,18.09,19.34,56.55,56.55,0,0,1,7.42,18.61c.59,2.85,1.14,5.49,1.6,8,6.58,34.66,2.39,39.07-6.19,40.39-2.7.42-5.71.92-8.74,1.62C2403.9,1190,2396.48,1192.79,2392.84,1198.38Z"/><path class="cls-37" d="M1315.87,1099.82h45.84a18.16,18.16,0,0,0,18.16-18.16v-49.06a18.16,18.16,0,0,0-18.16-18.16h-35.28c-1.54,4.77-1.74,9.78-2.34,13.64-.41,2.67-1.27,9.34-2.32,18-1,8,.17,18.41-.91,28.17-.58,5.4-3.42,10.06-3.94,15.24C1316.55,1093.09,1316.2,1096.56,1315.87,1099.82Z"/><path class="cls-38" d="M1301.12,1161.06a145.46,145.46,0,0,0,6.64,31.7A57.31,57.31,0,0,0,1316,1209c10.58,14.44,25.8,19.79,34.73,19.79H1432c13.53,0,120.86,28.14,157,28.14h808.62c10.67,0,16.87-.33,21.69-9.65s5.18-19.29-1.38-19.29h-27.89c-5.87,0-4.88-10.06-2-19a46.19,46.19,0,0,1,4.74-10.64c5.15-7.91,17.92-10.2,27.09-11.63,7.17-1.13,11.27-4.38,8.57-25.69Z"/><g class="cls-39"><path class="cls-40" d="M1540.92,1029.85c-5.73,7.41-7.94,24-4.65,34.9,2.5,8.24,15.49,20.81,33.48,38.2,6,5.84,12.89,12.46,20,19.6,24.19,24.17,37.74,63.64,43.53,80.49,1.05,3.07,1.89,5.49,2.5,7,4.12,10.31,9.21,12.42,15.58,12.42H1825c-.08-97.53-10.9-173.06-11-173.82l2-.3c.11.75,11,76.42,11,174.11h256.69a9.87,9.87,0,0,0,9.68-7.22c1-4.14,9.29-64.1,11.34-95.6,2-30.69-1.25-40.62-18.27-55.9-16.62-14.92-79.83-53.25-80.47-53.63l1.07-1.77c.64.39,64,38.81,80.78,53.86,17.63,15.83,21,26.05,18.94,57.57s-10.38,91.79-11.4,96a12,12,0,0,1-11.68,8.8h-432.4c-8.53,0-13.6-4-17.5-13.71-.63-1.58-1.47-4-2.54-7.12-5.74-16.72-19.19-55.87-43-79.7-7.13-7.13-14-13.74-20-19.58-18.21-17.61-31.37-30.32-34-39.08-3.51-11.59-1.18-28.77,5-36.76Z"/><path class="cls-41" d="M1409.64,1065.05a18.95,18.95,0,1,0,18.95-18.95A19,19,0,0,0,1409.64,1065.05Zm2.07,0a16.88,16.88,0,1,1,16.88,16.88A16.9,16.9,0,0,1,1411.71,1065.05Z"/></g><path class="cls-42" d="M1559.06,1054.48h471.33c12.87,0,17.92-8.27,17-14.22S1992.71,991.55,1956,970c-4-2.34-8-4.58-12.13-6.67v0h0c-23.24-12-48.46-21-67.89-25.44-4.66-1.07-9-1.9-12.9-2.45a73.65,73.65,0,0,0-10-.8H1678c-40.44,0-137.13,51.46-151.82,72.6C1516.36,1021.34,1547.56,1054.48,1559.06,1054.48Z"/><path class="cls-36" d="M1843.74,1054.49h-49.53L1780,934.59h26.67Z"/><path class="cls-42" d="M2122.21,1035.45c-9.46,2.44-16.91,5.14-22.23,5.14-9.3,0-17.92-2.41-21-4.82S1966,956.52,1956,950s-4.82-13.09,0-13.09h1c3.18,1.58,6.37,3.26,9.58,5.05,57.42,32.16,132.66,87.34,155.68,93.51Z"/><path class="cls-42" d="M1588,925.37c1.69,1.86,1.48,4.86-2.58,8.07-6.66,5.28-97.85,49.84-108.64,55.36-10.28,5.25-23.32,5.7-40.59,5.73C1462.37,984.14,1559.81,936.84,1588,925.37Z"/><path class="cls-43" d="M2321.4,1122.39c15.85,12.07,43.47,19.18,67.92,21.89,15.74,1.76,28.89,3.5,36.82,2.07-.47-2.51-1-5.15-1.6-8-3.25-15.74-12.4-27.89-25.52-38-2.65-2-5.18-3.75-7.52-5.24a45.41,45.41,0,0,0-6.26-3.39c-14.94-6.34-59-13-77.87-15.85C2274.07,1070.85,2305.55,1110.32,2321.4,1122.39Z"/><path class="cls-44" d="M2308.77,1084.35c14.41,2.2,47.89,7.24,59.26,12.06s38.93,30.09,37.21,37.09-15.5,4.94-34.11,2.87-39.62-7.47-51.68-16.65S2283.45,1080.48,2308.77,1084.35Z"/><path class="cls-45" d="M1370.94,1038.52v37.21a13.78,13.78,0,0,1-13.78,13.78H1318.8c1.51-14.61,1.48-31,3-43.42,1-8.68,1.9-15.36,2.31-18,.16-1,.3-2.16.43-3.33h32.64A13.78,13.78,0,0,1,1370.94,1038.52Z"/><path class="cls-46" d="M1370.94,1075.73a13.78,13.78,0,0,1-13.78,13.78H1316.9c1.51-14.62,3.38-31,4.86-43.41h49.17Z"/><path class="cls-38" d="M1316,1209c10.58,14.44,25.8,19.79,34.73,19.79H1432c13.53,0,120.86,28.14,157,28.14h808.62c10.67,0,16.87-.33,21.69-9.65s5.18-19.29-1.38-19.29h-27.89c-5.87,0-4.88-10.06-2-19Z"/><path d="M1421,1215.5a95.78,95.78,0,0,1,191.56,0V1257h-23.54c-36.16,0-143.46-28.14-157-28.14h-11Z"/><path class="cls-43" d="M2112.55,1220.74V1257H2341v-36.22a114.22,114.22,0,0,0-228.44,0Z"/><path class="cls-43" d="M1570,1119.72h-106.5a114,114,0,0,1,106.5,0Z"/><path class="cls-43" d="M1631,1220.73V1257h-42c-36.13,0-143.45-28.14-157-28.14h-29.46v-8.08a113.61,113.61,0,0,1,4.68-32.38h219.08A113.62,113.62,0,0,1,1631,1220.73Z"/><path d="M2322.56,1215.49V1257H2131v-41.47a95.4,95.4,0,0,1,3.93-27.15h183.72A95.4,95.4,0,0,1,2322.56,1215.49Z"/><path class="cls-47" d="M2227.13,1267.06a49.95,49.95,0,1,1,49.95-49.95A49.95,49.95,0,0,1,2227.13,1267.06Z"/><path class="cls-48" d="M2175.71,1227.61a52.09,52.09,0,0,0,6.78,17l6.74-3.56,26.48-14a16.21,16.21,0,0,0,7.42,5.1l-3.88,29.05-1,7.55a52.08,52.08,0,0,0,8.88.76,52.74,52.74,0,0,0,9.25-.83l-.68-7.61-2.6-28.79a16.28,16.28,0,0,0,7.68-5.08l24.75,13.06,6.72,3.55a52.2,52.2,0,0,0,6.39-16.77l-7.37-2-26.67-7.18c0-.39.06-.79.06-1.2a16.26,16.26,0,0,0-3.53-10.12l16.81-22.09,4.64-6.09a53,53,0,0,0-15.22-9.73l-3.16,6.93L2232.63,1201a15.72,15.72,0,0,0-4.3-.59,16.18,16.18,0,0,0-5.54,1L2209.15,1176l-3.62-6.72a52.43,52.43,0,0,0-15.11,10.34l5,5.74,19.32,22.22a16.28,16.28,0,0,0-2.79,9.12c0,.37,0,.74.06,1.11l-28.94,7.79Z"/><path class="cls-49" d="M2183.08,1225.62a44.45,44.45,0,0,0,6.15,15.48l26.48-14a16.21,16.21,0,0,0,7.42,5.1l-3.88,29.05a44.41,44.41,0,0,0,7.89.7,43.63,43.63,0,0,0,8.57-.83l-2.6-28.79a16.28,16.28,0,0,0,7.68-5.08l24.75,13.06a44.33,44.33,0,0,0,5.74-15.22l-26.67-7.18c0-.39.06-.79.06-1.2a16.26,16.26,0,0,0-3.53-10.12l16.81-22.09a44.89,44.89,0,0,0-13.74-8.9L2232.63,1201a15.72,15.72,0,0,0-4.3-.59,16.18,16.18,0,0,0-5.54,1L2209.15,1176a45,45,0,0,0-13.72,9.36l19.32,22.22a16.28,16.28,0,0,0-2.79,9.12c0,.37,0,.74.06,1.11Z"/><circle class="cls-38" cx="2227.79" cy="1216.75" r="10.76"/><circle class="cls-50" cx="2227.79" cy="1208.67" r="3.17"/><circle class="cls-50" cx="2227.79" cy="1224.84" r="3.17"/><circle class="cls-50" cx="2235.88" cy="1216.75" r="3.17"/><circle class="cls-50" cx="2219.71" cy="1216.75" r="3.17"/><path class="cls-50" d="M2143.09,1217.1a84,84,0,1,0,84-84A84,84,0,0,0,2143.09,1217.1Zm30.25,0a53.79,53.79,0,1,1,53.8,53.78A53.79,53.79,0,0,1,2173.34,1217.1Z"/><g class="cls-51"><path class="cls-52" d="M2162.11,1217.1a65,65,0,1,0,65-65A65,65,0,0,0,2162.11,1217.1Zm11.23,0a53.79,53.79,0,1,1,53.8,53.78A53.79,53.79,0,0,1,2173.34,1217.1Z"/></g><path class="cls-53" d="M2168.34,1217.1a58.79,58.79,0,1,0,58.8-58.8A58.79,58.79,0,0,0,2168.34,1217.1Zm8.85,0a49.95,49.95,0,1,1,50,50A49.94,49.94,0,0,1,2177.18,1217.1Z"/><path class="cls-38" d="M2172.57,1217.1a54.56,54.56,0,1,0,54.57-54.57A54.57,54.57,0,0,0,2172.57,1217.1Zm4.62,0a49.95,49.95,0,1,1,50,50A49.94,49.94,0,0,1,2177.18,1217.1Z"/><path class="cls-47" d="M1516.81,1267.06a49.95,49.95,0,1,1,49.95-49.95A49.95,49.95,0,0,1,1516.81,1267.06Z"/><path class="cls-48" d="M1465.38,1227.61a52.09,52.09,0,0,0,6.78,17l6.74-3.56,26.48-14a16.21,16.21,0,0,0,7.42,5.1l-3.88,29.05-1,7.55a52.09,52.09,0,0,0,8.88.76,52.74,52.74,0,0,0,9.25-.83l-.68-7.61-2.6-28.79a16.28,16.28,0,0,0,7.68-5.08l24.75,13.06,6.72,3.55a52.2,52.2,0,0,0,6.39-16.77l-7.37-2-26.67-7.18c0-.39.06-.79.06-1.2a16.26,16.26,0,0,0-3.53-10.12l16.81-22.09,4.64-6.09a53,53,0,0,0-15.22-9.73l-3.16,6.93L1522.3,1201a15.71,15.71,0,0,0-4.3-.59,16.18,16.18,0,0,0-5.54,1L1498.83,1176l-3.62-6.72a52.42,52.42,0,0,0-15.11,10.34l5,5.74,19.32,22.22a16.28,16.28,0,0,0-2.79,9.12c0,.37,0,.74.06,1.11l-28.94,7.79Z"/><path class="cls-49" d="M1472.75,1225.62a44.45,44.45,0,0,0,6.15,15.48l26.48-14a16.21,16.21,0,0,0,7.42,5.1l-3.88,29.05a44.42,44.42,0,0,0,7.89.7,43.63,43.63,0,0,0,8.57-.83l-2.6-28.79a16.28,16.28,0,0,0,7.68-5.08l24.75,13.06a44.33,44.33,0,0,0,5.74-15.22l-26.67-7.18c0-.39.06-.79.06-1.2a16.26,16.26,0,0,0-3.53-10.12l16.81-22.09a44.89,44.89,0,0,0-13.74-8.9L1522.3,1201a15.71,15.71,0,0,0-4.3-.59,16.18,16.18,0,0,0-5.54,1L1498.83,1176a45,45,0,0,0-13.72,9.36l19.32,22.22a16.28,16.28,0,0,0-2.79,9.12c0,.37,0,.74.06,1.11Z"/><circle class="cls-38" cx="1517.47" cy="1216.75" r="10.76"/><circle class="cls-50" cx="1517.47" cy="1208.67" r="3.17"/><circle class="cls-50" cx="1517.47" cy="1224.84" r="3.17"/><circle class="cls-50" cx="1525.55" cy="1216.75" r="3.17"/><circle class="cls-50" cx="1509.39" cy="1216.75" r="3.17"/><path class="cls-50" d="M1432.77,1217.1a84,84,0,1,0,84-84A84,84,0,0,0,1432.77,1217.1Zm30.25,0a53.79,53.79,0,1,1,53.8,53.78A53.79,53.79,0,0,1,1463,1217.1Z"/><g class="cls-51"><path class="cls-52" d="M1451.79,1217.1a65,65,0,1,0,65-65A65,65,0,0,0,1451.79,1217.1Zm11.23,0a53.79,53.79,0,1,1,53.8,53.78A53.79,53.79,0,0,1,1463,1217.1Z"/></g><path class="cls-53" d="M1458,1217.1a58.79,58.79,0,1,0,58.8-58.8A58.79,58.79,0,0,0,1458,1217.1Zm8.85,0a49.95,49.95,0,1,1,50,50A49.94,49.94,0,0,1,1466.86,1217.1Z"/><path class="cls-38" d="M1462.24,1217.1a54.56,54.56,0,1,0,54.57-54.57A54.57,54.57,0,0,0,1462.24,1217.1Zm4.62,0a49.95,49.95,0,1,1,50,50A49.94,49.94,0,0,1,1466.86,1217.1Z"/><path class="cls-54" d="M1314.29,1119.72h149.26a114.66,114.66,0,0,0-56.28,68.62H1306.39c-7.22-24.67-6.12-42.93-4.59-47.28,1.6-4.61,12.42-6,12.42-18.83C1314.21,1121.56,1314.23,1120.71,1314.29,1119.72Z"/><path class="cls-54" d="M2226.78,1119.72a96,96,0,0,0-91.86,68.62H1626.34a114.69,114.69,0,0,0-56.3-68.62"/><path class="cls-54" d="M2421.44,1128.23l.27.66Z"/><path class="cls-54" d="M2423.22,1133.21l.09.33Z"/><path class="cls-54" d="M2417.16,1119.81l-.05-.09h0Z"/><path class="cls-54" d="M2419.32,1123.64l.31.59Z"/><path class="cls-54" d="M2426.13,1146.35c-7.94,1.43-21.08-.31-36.81-2.07-24.45-2.7-52.07-9.81-67.92-21.89-1-.78-2.12-1.68-3.25-2.67h-91.37a96,96,0,0,1,91.86,68.62h92.56c3-.7,6-1.19,8.74-1.62C2428.51,1185.41,2432.7,1181,2426.13,1146.35Z"/><ellipse class="cls-9" cx="1051.82" cy="744.03" rx="22.91" ry="23.09"/><circle class="cls-9" cx="1051.82" cy="682.56" r="7.61"/><polygon class="cls-13" points="1100.25 378.09 518.65 378.09 516.93 -77.58 1100.25 378.09"/><polygon class="cls-14" points="1057.88 378.09 518.01 378.09 516.29 -44.9 1057.88 378.09"/><polygon class="cls-15" points="1001.66 378.09 519.28 378.09 517.56 0.1 961.1 346.4 1001.66 378.09"/><polygon class="cls-14" points="1099.62 378.09 1090.11 404.43 1078.8 436.03 517.56 444 518.01 378.09 1099.62 378.09"/><polygon class="cls-15" points="1090.11 404.43 1078.8 436.03 517.56 444 517.83 404.43 1090.11 404.43"/><rect class="cls-17" x="517.56" y="436.03" width="561.32" height="875.3"/><rect class="cls-15" x="516.29" y="815.83" width="562.5" height="50.07"/><rect class="cls-18" x="517.56" y="436.03" width="561.32" height="15.84"/><line class="cls-19" x1="517.56" y1="894.87" x2="1078.8" y2="894.87"/><line class="cls-19" x1="517.56" y1="926.55" x2="1078.8" y2="926.55"/><line class="cls-19" x1="517.56" y1="952.9" x2="1078.8" y2="952.9"/><line class="cls-19" x1="517.56" y1="979.25" x2="1078.8" y2="979.25"/><line class="cls-19" x1="516.29" y1="478.31" x2="1078.8" y2="478.31"/><line class="cls-19" x1="516.29" y1="509.91" x2="1078.8" y2="509.91"/><line class="cls-19" x1="516.29" y1="536.34" x2="1078.8" y2="536.34"/><line class="cls-19" x1="516.29" y1="562.69" x2="1078.8" y2="562.69"/><line class="cls-19" x1="516.29" y1="594.29" x2="1078.8" y2="594.29"/><line class="cls-19" x1="516.29" y1="625.88" x2="1078.8" y2="625.88"/><line class="cls-19" x1="516.29" y1="652.32" x2="1078.8" y2="652.32"/><line class="cls-19" x1="516.29" y1="678.67" x2="1078.8" y2="678.67"/><line class="cls-19" x1="516.29" y1="710.26" x2="1078.8" y2="710.26"/><line class="cls-19" x1="517.56" y1="741.95" x2="1078.8" y2="741.95"/><line class="cls-19" x1="517.56" y1="768.3" x2="1078.8" y2="768.3"/><line class="cls-19" x1="517.56" y1="794.64" x2="1078.8" y2="794.64"/><line class="cls-19" x1="516.29" y1="1010.93" x2="1078.8" y2="1010.93"/><line class="cls-19" x1="516.29" y1="1037.28" x2="1078.8" y2="1037.28"/><line class="cls-19" x1="516.29" y1="1068.88" x2="1078.8" y2="1068.88"/><line class="cls-19" x1="516.29" y1="1100.47" x2="1078.8" y2="1100.47"/><line class="cls-19" x1="516.29" y1="1126.91" x2="1078.8" y2="1126.91"/><line class="cls-19" x1="516.29" y1="1158.51" x2="1078.8" y2="1158.51"/><line class="cls-19" x1="516.29" y1="1190.11" x2="1078.8" y2="1190.11"/><line class="cls-19" x1="516.29" y1="1216.54" x2="1078.8" y2="1216.54"/><line class="cls-19" x1="516.29" y1="1248.14" x2="1078.8" y2="1248.14"/><line class="cls-19" x1="516.29" y1="1279.74" x2="1078.8" y2="1279.74"/><line class="cls-19" x1="775.59" y1="1306.08" x2="1078.8" y2="1306.08"/><rect class="cls-18" x="775.59" y="478.31" width="151.56" height="200.36"/><rect class="cls-20" x="799.04" y="507.19" width="47.08" height="42.28"/><rect class="cls-20" x="856.62" y="607.51" width="47.08" height="42.28"/><rect class="cls-20" x="799.04" y="559.97" width="47.08" height="89.63"/><rect class="cls-20" x="856.62" y="507.19" width="47.08" height="89.63"/><polygon class="cls-21" points="927.15 680.48 775.59 680.48 733.67 680.48 749.42 714.97 775.59 714.97 927.15 714.97 953.31 714.97 969.07 680.48 927.15 680.48"/><polygon class="cls-18" points="775.77 1005.23 775.59 1005.23 695.28 1005.23 695.28 1311.51 775.59 1311.51 775.77 1311.51 856.17 1311.51 856.17 1005.23 775.77 1005.23"/><path class="cls-20" d="M820.5,1080.92c.18-33.23-19.37-60.39-43.91-61.66v-.09h-1.81v.09c-24.54,1.27-44.09,28.52-43.91,61.66,0,33.23,19.47,60.3,43.73,61.66v.09h2.17v-.09C801,1141.13,820.5,1114.15,820.5,1080.92Z"/><circle class="cls-22" cx="827.01" cy="1156.61" r="11.77"/><path class="cls-22" d="M778.58,1220.44h48.71c-.18-26.53-21.37-48-47.71-48h-1Z"/><rect class="cls-22" x="778.85" y="1225.96" width="48.17" height="67.18"/><path class="cls-22" d="M772.69,1172.45h-1c-26.26,0-47.53,21.46-47.71,48h48.71Z"/><rect class="cls-22" x="724.26" y="1225.96" width="48.17" height="67.18"/><g id="Layer_2-2" data-name="Layer 2"><path class="cls-23" d="M885,1154.62a30.4,30.4,0,0,0-4.16,14.85c0,26,36.4,47.08,81.21,47.08,41.19,0,75.24-17.75,80.49-40.83"/><path class="cls-23" d="M1042.58,1175.71c-54.05,58.21-161.88,25.35-157.53-21.09"/><path class="cls-24" d="M1042.58,1175.71a29.4,29.4,0,0,0,.72-6.25c0-26-36.4-47.08-81.21-47.08-35.94,0-66.36,13.49-77,32.23C880.7,1201.06,988.62,1233.92,1042.58,1175.71Z"/><path class="cls-25" d="M945.8,1168.38l-1.72,28.7,11.77,23.54v15.75h19v-15.75l12.58-23.54-1.72-27.52C973.23,1173.18,959.92,1173.72,945.8,1168.38Z"/><path class="cls-26" d="M985.72,1169.55l-1-12.68-38.12.18-.81,11.32C959.83,1177.34,973.14,1176.71,985.72,1169.55Z"/><circle class="cls-27" cx="964.09" cy="1158.51" r="29.7"/><path class="cls-28" d="M978.12,1161.22c10.77-10.77-11.5-30.78-19.47-22.82"/><path class="cls-29" d="M972.32,1158.87a1.46,1.46,0,0,0-1.18-.54H957.21a1.46,1.46,0,0,0-1.18.54l-2.17,2.72h20.73Z"/><path class="cls-30" d="M948.24,1174.44l.54,3.8a1.12,1.12,0,0,0,1.09.72h3.62a1,1,0,0,0,1.09-.72l.45-3c-2.17-.18-4.35-.45-6.61-.72A.28.28,0,0,0,948.24,1174.44Z"/><path class="cls-30" d="M973.23,1175.17l.45,3a1.12,1.12,0,0,0,1.09.72h3.62a1,1,0,0,0,1.09-.72l.54-3.8h-.18A54.9,54.9,0,0,1,973.23,1175.17Z"/><path class="cls-30" d="M982.19,1160.68l-1-.36a.77.77,0,0,0-.63,0l-2.44.91-4.07-5.07a1.89,1.89,0,0,0-1.45-.72H955.76a1.89,1.89,0,0,0-1.45.72l-4.07,5.07-2.44-.91a.77.77,0,0,0-.63,0l-1,.36a.9.9,0,0,0-.63.91.78.78,0,0,0,.27.54l1.18.81a1.29,1.29,0,0,0,.54.18h.81a19.86,19.86,0,0,0-1.36,9.78,1.83,1.83,0,0,0,1.45,1.63h.18c2.17.27,4.35.54,6.61.72a102.83,102.83,0,0,0,18.29,0c2.17-.18,4.35-.45,6.61-.72h.18a1.94,1.94,0,0,0,1.45-1.63,19.86,19.86,0,0,0-1.36-9.78h.81a1.29,1.29,0,0,0,.54-.18l1.18-.81a.65.65,0,0,0,.27-.54C982.83,1161.13,982.56,1160.77,982.19,1160.68Zm-28.52.91,2.17-2.72a1.46,1.46,0,0,1,1.18-.54H971a1.46,1.46,0,0,1,1.18.54l2.17,2.72Z"/><path class="cls-31" d="M960.65,1140.49l-3.71-4c-.72-.81-6,2.81-6.79,3.53l-.72.63-.36-.36a.34.34,0,0,0-.54,0l-1.72,1.63a.34.34,0,0,0,0,.54l1.09,1.18-2,1.81a.17.17,0,0,0,0,.27l.72.81a.17.17,0,0,0,.27,0l2-1.81,3,3.26-2,1.81a.17.17,0,0,0,0,.27l.72.81a.17.17,0,0,0,.27,0l2-1.81,1.09,1.18a.34.34,0,0,0,.54,0l1.72-1.63a.34.34,0,0,0,0-.54l-.36-.36.72-.63C957.3,1146.2,961.37,1141.31,960.65,1140.49Z"/></g><ellipse class="cls-9" cx="-10.72" cy="744.03" rx="22.91" ry="23.09"/><polygon class="cls-13" points="517.56 -77.58 515.84 378.09 -65.76 378.09 517.56 -77.58"/><polygon class="cls-14" points="517.56 -44.9 515.84 378.09 -24.03 378.09 517.56 -44.9"/><polygon class="cls-15" points="67.44 346.4 517.56 0.1 540.43 378.09 26.28 378.09 67.44 346.4"/><polygon class="cls-16" points="68.3 346.4 527.75 346.4 525.97 378.09 26.28 378.09 68.3 346.4"/><polygon class="cls-14" points="523.09 378.09 523.54 444 -37.7 436.03 -49.01 404.43 -58.52 378.09 523.09 378.09"/><polygon class="cls-15" points="523.27 404.43 523.54 444 -37.7 436.03 -49.01 404.43 523.27 404.43"/><rect class="cls-17" x="-37.79" y="436.03" width="561.32" height="875.3"/><rect class="cls-15" x="-37.7" y="815.83" width="562.5" height="50.07"/><rect class="cls-18" x="-37.79" y="436.03" width="561.32" height="15.84"/><line class="cls-19" x1="-37.7" y1="894.87" x2="523.54" y2="894.87"/><line class="cls-19" x1="-37.7" y1="926.55" x2="523.54" y2="926.55"/><line class="cls-19" x1="-37.7" y1="952.9" x2="523.54" y2="952.9"/><line class="cls-19" x1="-37.7" y1="979.25" x2="523.54" y2="979.25"/><line class="cls-19" x1="-37.7" y1="478.31" x2="524.81" y2="478.31"/><line class="cls-19" x1="-37.7" y1="509.91" x2="524.81" y2="509.91"/><line class="cls-19" x1="-37.7" y1="536.34" x2="524.81" y2="536.34"/><line class="cls-19" x1="-37.7" y1="562.69" x2="524.81" y2="562.69"/><line class="cls-19" x1="-37.7" y1="594.29" x2="524.81" y2="594.29"/><line class="cls-19" x1="-37.7" y1="625.88" x2="524.81" y2="625.88"/><line class="cls-19" x1="-37.7" y1="652.32" x2="524.81" y2="652.32"/><line class="cls-19" x1="-37.7" y1="678.67" x2="524.81" y2="678.67"/><line class="cls-19" x1="-37.7" y1="710.26" x2="524.81" y2="710.26"/><line class="cls-19" x1="-37.7" y1="741.95" x2="523.54" y2="741.95"/><line class="cls-19" x1="-37.7" y1="768.3" x2="523.54" y2="768.3"/><line class="cls-19" x1="-37.7" y1="794.64" x2="523.54" y2="794.64"/><line class="cls-19" x1="-37.7" y1="1010.93" x2="524.81" y2="1010.93"/><line class="cls-19" x1="-37.7" y1="1037.28" x2="524.81" y2="1037.28"/><line class="cls-19" x1="-37.7" y1="1068.88" x2="524.81" y2="1068.88"/><line class="cls-19" x1="-37.7" y1="1100.47" x2="524.81" y2="1100.47"/><line class="cls-19" x1="-37.7" y1="1126.91" x2="524.81" y2="1126.91"/><line class="cls-19" x1="-37.7" y1="1158.51" x2="524.81" y2="1158.51"/><line class="cls-19" x1="-37.7" y1="1190.11" x2="524.81" y2="1190.11"/><line class="cls-19" x1="-37.7" y1="1216.54" x2="524.81" y2="1216.54"/><line class="cls-19" x1="-37.7" y1="1248.14" x2="524.81" y2="1248.14"/><line class="cls-19" x1="-37.7" y1="1279.74" x2="524.81" y2="1279.74"/><line class="cls-19" x1="-37.7" y1="1306.08" x2="265.51" y2="1306.08"/><rect class="cls-18" x="113.95" y="478.31" width="151.56" height="200.36"/><rect class="cls-20" x="194.98" y="507.19" width="47.08" height="42.28"/><rect class="cls-20" x="137.4" y="607.51" width="47.08" height="42.28"/><rect class="cls-20" x="194.98" y="559.97" width="47.08" height="89.63"/><rect class="cls-20" x="137.4" y="507.19" width="47.08" height="89.63"/><polygon class="cls-21" points="72.03 680.48 87.79 714.97 113.95 714.97 265.51 714.97 291.68 714.97 307.43 680.48 265.51 680.48 113.95 680.48 72.03 680.48"/><path class="cls-11" d="M352.49,1307.45a14.06,14.06,0,0,1-7.9,4.1,6.57,6.57,0,0,1,1.3-7.4,14.06,14.06,0,0,1,7.9-4.1C355,1302.35,354.69,1305.05,352.49,1307.45Z"/><path class="cls-12" d="M339.89,1304.85a9.64,9.64,0,0,0,4.3,7,8.28,8.28,0,0,0,3.9-7.8,9.64,9.64,0,0,0-4.3-7A8.19,8.19,0,0,0,339.89,1304.85Z"/><path class="cls-11" d="M342.69,1308.45a14.23,14.23,0,0,0,1.3,3.5,8.85,8.85,0,0,0,0-4,14.23,14.23,0,0,0-1.3-3.5A10.67,10.67,0,0,0,342.69,1308.45Z"/><path class="cls-11" d="M313.69,1290.15c3.9,10.9,10,18.5,16.9,22.2,3.1-11.1,2.8-24.8-1.6-37.4-3.9-10.9-10-18.5-16.9-22.2A62.53,62.53,0,0,0,313.69,1290.15Z"/><path class="cls-11" d="M350.09,1292.25c-4.3,10.4-10.7,17.4-17.6,20a64.3,64.3,0,0,1,3-37.1c4.3-10.4,10.7-17.4,17.6-20A65.08,65.08,0,0,1,350.09,1292.25Z"/><path class="cls-12" d="M322,1278.85c.5,13.9,4.1,26.5,9.4,35.3,5.9-8.9,9.4-23.2,8.7-39.1-.5-13.9-4.1-26.5-9.4-35.3C325,1248.75,321.49,1263,322,1278.85Z"/><path class="cls-11" d="M328.39,1297.05c.7,7,1.6,12.9,3,17.2.8-4.6.8-11.8.2-19.5-.7-7-1.6-12.9-3-17.2C327.89,1282.05,327.79,1289.15,328.39,1297.05Z"/><path class="cls-11" d="M1307.33,1333.48a14.06,14.06,0,0,1-7.9,4.1,6.57,6.57,0,0,1,1.3-7.4,14.06,14.06,0,0,1,7.9-4.1C1309.83,1328.38,1309.53,1331.08,1307.33,1333.48Z"/><path class="cls-12" d="M1294.73,1330.88a9.64,9.64,0,0,0,4.3,7,8.28,8.28,0,0,0,3.9-7.8,9.64,9.64,0,0,0-4.3-7A8.19,8.19,0,0,0,1294.73,1330.88Z"/><path class="cls-11" d="M1297.53,1334.48a14.23,14.23,0,0,0,1.3,3.5,8.85,8.85,0,0,0,0-4,14.23,14.23,0,0,0-1.3-3.5A10.67,10.67,0,0,0,1297.53,1334.48Z"/><path class="cls-11" d="M1268.53,1316.18c3.9,10.9,10,18.5,16.9,22.2,3.1-11.1,2.8-24.8-1.6-37.4-3.9-10.9-10-18.5-16.9-22.2A62.53,62.53,0,0,0,1268.53,1316.18Z"/><path class="cls-11" d="M1304.93,1318.28c-4.3,10.4-10.7,17.4-17.6,20a64.3,64.3,0,0,1,3-37.1c4.3-10.4,10.7-17.4,17.6-20A65.08,65.08,0,0,1,1304.93,1318.28Z"/><path class="cls-12" d="M1276.83,1304.88c.5,13.9,4.1,26.5,9.4,35.3,5.9-8.9,9.4-23.2,8.7-39.1-.5-13.9-4.1-26.5-9.4-35.3C1279.83,1274.78,1276.33,1289,1276.83,1304.88Z"/><path class="cls-11" d="M1283.23,1323.08c.7,7,1.6,12.9,3,17.2.8-4.6.8-11.8.2-19.5-.7-7-1.6-12.9-3-17.2C1282.73,1308.08,1282.63,1315.18,1283.23,1323.08Z"/><path class="cls-11" d="M2433.55,1324.55a13.69,13.69,0,0,0,7.7,4.3,6.42,6.42,0,0,0-.8-7.4,13.69,13.69,0,0,0-7.7-4.3C2431.35,1319.25,2431.55,1322.05,2433.55,1324.55Z"/><path class="cls-11" d="M2410.8,1307.35c3.9,10.9,10,18.5,16.9,22.2,3.1-11.1,2.8-24.8-1.6-37.4-3.9-10.9-10-18.5-16.9-22.2A62.53,62.53,0,0,0,2410.8,1307.35Z"/><path class="cls-11" d="M2447.2,1309.45c-4.3,10.4-10.7,17.4-17.6,20a64.3,64.3,0,0,1,3-37.1c4.3-10.4,10.7-17.4,17.6-20A65.08,65.08,0,0,1,2447.2,1309.45Z"/><path class="cls-12" d="M2419.1,1296.05c.5,13.9,4.1,26.5,9.4,35.3,5.9-8.9,9.4-23.2,8.7-39.1-.5-13.9-4.1-26.5-9.4-35.3C2422.1,1266,2418.6,1280.15,2419.1,1296.05Z"/><path class="cls-11" d="M2425.5,1314.25c.7,7,1.6,12.9,3,17.2.8-4.6.8-11.8.2-19.5-.7-7-1.6-12.9-3-17.2C2425,1299.25,2424.9,1306.35,2425.5,1314.25Z"/><path class="cls-11" d="M1045.15,1304.78c3.9,4.6,10,7.9,16.9,9.6,3.1-4.8,2.8-10.8-1.6-16.1-3.9-4.6-10-7.9-16.9-9.6C1040.35,1293.58,1040.75,1299.48,1045.15,1304.78Z"/><path class="cls-11" d="M1081.55,1305.78c-4.3,4.5-10.7,7.4-17.6,8.6-2.6-5-1.8-10.9,3-16.1,4.3-4.5,10.7-7.4,17.6-8.6C1087.35,1294.68,1086.55,1300.68,1081.55,1305.78Z"/><path class="cls-12" d="M1053.65,1300c.5,6,4.1,11.4,9.4,15.2,5.9-3.8,9.4-9.9,8.7-16.9-.5-6-4.1-11.4-9.4-15.2C1056.45,1287.08,1053,1293.28,1053.65,1300Z"/><path class="cls-11" d="M1060,1307.78a19.41,19.41,0,0,0,3,7.4c.8-2,.8-5,.2-8.4a19.41,19.41,0,0,0-3-7.4C1059.45,1301.38,1059.45,1304.48,1060,1307.78Z"/><circle class="cls-41" cx="1428.59" cy="1065.05" r="16.88"/><path class="cls-55" d="M965.91,1219.92s-17.87,156.7,49.27,155.2c215-4.8,285.54,14.78,394.46-9.73,63.11-14.2-74.05-319.17,18.95-300.34"/><path class="cls-56" d="M1444.68,1052a15.67,15.67,0,0,0-11.91-5.72c-9.17,0-16.61,8.43-16.61,18.82,0,7.21,3.58,13.47,8.84,16.63C1434.2,1081.68,1442,1069.21,1444.68,1052Z"/><path class="cls-57" d="M1444.68,1052c-2.7,17.26-10.48,29.72-19.68,29.73a15,15,0,0,0,7.77,2.19c9.17,0,16.61-8.43,16.61-18.82A20.11,20.11,0,0,0,1444.68,1052Z"/><path class="cls-11" d="M2449.6,1324.65a14.06,14.06,0,0,1-7.9,4.1,6.57,6.57,0,0,1,1.3-7.4,14.06,14.06,0,0,1,7.9-4.1C2452.1,1319.55,2451.8,1322.25,2449.6,1324.65Z"/><path class="cls-12" d="M2437,1322.05a9.64,9.64,0,0,0,4.3,7,8.28,8.28,0,0,0,3.9-7.8,9.64,9.64,0,0,0-4.3-7A8.19,8.19,0,0,0,2437,1322.05Z"/><path class="cls-11" d="M2439.8,1325.65a14.23,14.23,0,0,0,1.3,3.5,8.85,8.85,0,0,0,0-4,14.23,14.23,0,0,0-1.3-3.5A10.67,10.67,0,0,0,2439.8,1325.65Z"/><polygon class="cls-16" points="1000.39 378.09 518.01 378.09 516.29 346.4 959.83 346.4 1000.39 378.09"/></g></g></svg>