<svg id="Layer_1" data-name="Layer 1" xmlns="http://www.w3.org/2000/svg" viewBox="0 0 800 1280"><defs><style>.cls-1{fill:#89c449;}</style></defs><title>Artboard 4</title><path class="cls-1" d="M774.32,1129.38H516.76L578.06,237.5c2.11-30.75,19.58-54.14,40.44-54.14h54.1c20.85,0,38.32,23.39,40.44,54.14Z"/><path class="cls-1" d="M497.61,545.86l-179.85,76c-20.43,8.64-34.52,36.31-34.52,67.8V595.32c0-33.71-22-57.85-43.72-48.07l-180,80.92c-20.09,9-33.82,36.48-33.82,67.59v433.62H540.8V594.16C540.8,560.8,519.26,536.71,497.61,545.86ZM139,1044.37H97.78v-108H139Zm0-181.83H97.78v-108H139Zm187.21,181.83H285v-108h41.21Zm0-181.83H285v-108h41.21ZM513.4,1044.37H472.2v-108H513.4Zm0-181.83H472.2v-108H513.4Z"/></svg>