<svg id="Layer_1" data-name="Layer 1" xmlns="http://www.w3.org/2000/svg" viewBox="0 0 1278.1 1830.81"><defs><style>.cls-1{fill:#3b56a3;}.cls-2{fill:#213469;}.cls-3{fill:#6b933e;}.cls-4{fill:#89c449;}.cls-5{fill:#f37139;}.cls-6{fill:#e0f2f6;}.cls-7{fill:none;stroke:#f37139;stroke-miterlimit:10;stroke-width:5px;}</style></defs><title>Artboard 2</title><rect class="cls-1" x="473.13" y="1714.04" width="673.45" height="51.71" rx="25.59" ry="25.59"/><path class="cls-2" d="M1096.74,1732.38H530.83V151.81a97.52,97.52,0,0,1,97.52-97.52H999.22a97.52,97.52,0,0,1,97.52,97.52Z"/><path class="cls-3" d="M1096.74,151.81a97.52,97.52,0,0,0-97.52-97.52H817.71V1732.38h279Z"/><path class="cls-4" d="M628.34,54.29a97.52,97.52,0,0,0-97.52,97.52V1732.38H817.71V54.29Z"/><circle class="cls-5" cx="673.61" cy="1093.11" r="69.76"/><rect class="cls-5" x="530.83" y="675.22" width="565.91" height="31.44"/><circle class="cls-5" cx="824.59" cy="356.57" r="194.21"/><circle class="cls-5" cx="673.61" cy="875.65" r="69.76"/><circle class="cls-6" cx="673.61" cy="875.65" r="42.31"/><circle class="cls-6" cx="673.61" cy="1093.11" r="42.31"/><path class="cls-1" d="M876,499.62H784.63A21.65,21.65,0,0,1,763,478V238.45a21.65,21.65,0,0,1,21.63-21.63h19.83a21.67,21.67,0,0,1,21.16-17.12H835a21.67,21.67,0,0,1,21.16,17.12H876a21.65,21.65,0,0,1,21.63,21.63V478A21.66,21.66,0,0,1,876,499.62ZM784.63,231.5a7,7,0,0,0-6.94,6.94V478a7,7,0,0,0,6.94,6.95H876A7,7,0,0,0,883,478V238.45A7,7,0,0,0,876,231.5H842V221.33a7,7,0,0,0-6.95-6.95h-9.41a7,7,0,0,0-6.95,6.95V231.5Z"/><rect class="cls-1" x="786.43" y="346.99" width="86.47" height="18.49"/><rect class="cls-1" x="786.43" y="374.48" width="86.47" height="18.49"/><rect class="cls-1" x="786.43" y="401.98" width="86.47" height="18.49"/><rect class="cls-1" x="786.43" y="429.47" width="86.47" height="18.49"/><rect class="cls-1" x="786.43" y="456.96" width="86.47" height="18.49"/><path class="cls-1" d="M1019.41,1013.63H905.94c-25.5,0-46.17-16.15-46.17-36.07V831.71c0-19.92,20.67-36.07,46.17-36.07h113.48c25.5,0,46.17,16.15,46.17,36.07V977.56C1065.58,997.48,1044.91,1013.63,1019.41,1013.63Z"/><path class="cls-5" d="M357.93,1683.6h-1.42A90.72,90.72,0,0,1,265.9,1593V1235.66a78.55,78.55,0,0,0-78.46-78.46H116.84a20.51,20.51,0,1,1,0-41h70.59a119.62,119.62,0,0,1,119.48,119.48V1593a49.65,49.65,0,0,0,49.59,49.59h1.42A49.65,49.65,0,0,0,407.52,1593V1007.33c0-83.92,68.28-152.19,152.2-152.19h110a20.51,20.51,0,0,1,0,41h-110a111.3,111.3,0,0,0-111.17,111.17V1593A90.71,90.71,0,0,1,357.93,1683.6Z"/><path class="cls-4" d="M915.52,1003.22H899.3c-2.28,0-4.36-1.4-4.62-3.18l-3.12-21.16a4.68,4.68,0,0,1,4.84-5.37h22a4.68,4.68,0,0,1,4.84,5.37L920.14,1000C919.88,1001.82,917.8,1003.22,915.52,1003.22Z"/><path class="cls-4" d="M1026,1003.22h-16.22c-2.28,0-4.36-1.4-4.62-3.18l-3.12-21.16a4.68,4.68,0,0,1,4.84-5.37h22a4.68,4.68,0,0,1,4.84,5.37l-3.12,21.16C1030.39,1001.82,1028.31,1003.22,1026,1003.22Z"/><path class="cls-7" d="M1024.77,924.57c47.65-47.65-51.17-136.6-86.39-101.38"/><path class="cls-4" d="M1042.84,922.12l-4.29-1.49a4.19,4.19,0,0,0-2.79,0l-11,3.94-18.1-22.4a8.37,8.37,0,0,0-6.51-3.11h-75a8.39,8.39,0,0,0-6.53,3.12l-18.09,22.39-11-3.94a4.18,4.18,0,0,0-2.78,0l-4.28,1.49a4.21,4.21,0,0,0-2.83,4,2.85,2.85,0,0,0,1.22,2.34L886,932a4.2,4.2,0,0,0,2.4.75h3.49a85.59,85.59,0,0,0-6.07,43.35,8.37,8.37,0,0,0,7.09,7.3,488.82,488.82,0,0,0,139.54,0,8.38,8.38,0,0,0,7.1-7.31,85.58,85.58,0,0,0-6.07-43.34h3.5a4.18,4.18,0,0,0,2.39-.75l5.08-3.53a2.87,2.87,0,0,0,1.23-2.36A4.19,4.19,0,0,0,1042.84,922.12Zm-126.27,4.35,9.78-12.1a6.93,6.93,0,0,1,5.39-2.57h61.87a6.91,6.91,0,0,1,5.37,2.57l9.78,12.11Z"/><path class="cls-4" d="M1018.46,951.88V954c0,1.44-2.34,2.61-5.22,2.61h-11.82c-2.34,0-3.25-1.51-1.31-2.15l12.46-4.18C1015.09,949.47,1018.46,950.37,1018.46,951.88Z"/><path class="cls-4" d="M923.91,956.64H912.09c-2.89,0-5.23-1.17-5.23-2.61v-2.15c0-1.51,3.37-2.41,5.89-1.57l12.47,4.18C927.16,955.14,926.24,956.64,923.91,956.64Z"/><path class="cls-5" d="M909.57,867.4l-16.33-17.81a8.75,8.75,0,0,1,.53-12.32l7.09-6.5c3.54-3.24,26.8-19.25,30-15.71l16.33,17.81c3.24,3.54-14.72,25.33-18.25,28.57l-7.09,6.5A8.75,8.75,0,0,1,909.57,867.4Z"/><rect class="cls-5" x="897.83" y="866.18" width="21.66" height="6.24" rx="1.59" ry="1.59" transform="translate(-348.57 842.69) rotate(-42.52)"/><rect class="cls-5" x="880.44" y="847.22" width="21.66" height="6.24" rx="1.59" ry="1.59" transform="translate(-340.33 825.96) rotate(-42.52)"/><rect class="cls-5" x="899.66" y="829.06" width="13.91" height="49.31" rx="3.54" ry="3.54" transform="translate(-338.58 837.22) rotate(-42.52)"/></svg>