<svg xmlns="http://www.w3.org/2000/svg" viewBox="0 0 800 1280"><defs><style>.cls-1{fill:#89c449;}</style></defs><title>Artboard 1</title><g id="home"><path class="cls-1" d="M771,535.11,453.67,206.39a74.06,74.06,0,0,0-107.34,0L29,535.11q-2.5,2.59-4.72,5.35c-16,19.94-2,50.24,23,50.24H752.69c25,0,39.07-30.3,23-50.24Q773.51,537.7,771,535.11Z"/><rect class="cls-1" x="605.15" y="264.99" width="95.15" height="244.09" rx="10.3" ry="10.3"/><path class="cls-1" d="M659.71,507.37V684.66l-.16,11.94H605.15v43c0,11.5-9,20.83-20.11,20.83H525.67c-11.11,0-20.11-9.33-20.11-20.83V653.64c0-11.5,9-20.83,20.11-20.83H585c11.11,0,20.11,9.33,20.11,20.83v31h41.49V507.25H143.22c-24,0-43.52,20.18-43.52,45.08v532c0,24.89,19.48,45.08,43.52,45.08H656.78c24,0,43.52-20.18,43.52-45.08v-532C700.3,528.46,682.38,508.93,659.71,507.37Zm-19,507.41c0,25.47-19.93,46.11-44.52,46.11H548.68c-24.59,0-44.52-20.65-44.52-46.11V877.09c0-25.47,19.93-46.11,44.52-46.11h47.46c24.59,0,44.52,20.65,44.52,46.11Z"/><rect class="cls-1" x="568.58" y="684.66" width="36.57" height="11.94"/><path class="cls-1" d="M659.71,507.37V461.79H646.63v45.46h10.15C657.77,507.25,658.74,507.3,659.71,507.37Z"/></g></svg>