<?xml version="1.0" encoding="utf-8"?>
<!-- Generator: Adobe Illustrator 21.0.0, SVG Export Plug-In . SVG Version: 6.00 Build 0)  -->
<svg version="1.1" xmlns="http://www.w3.org/2000/svg" xmlns:xlink="http://www.w3.org/1999/xlink" x="0px" y="0px"
	 viewBox="0 0 1260 787.5" style="enable-background:new 0 0 1260 787.5;" xml:space="preserve">
<style type="text/css">
	.st0{display:none;}
	.st1{display:inline;fill:url(#SVGID_1_);}
	.st2{display:inline;fill:#CFEDFC;}
	.st3{display:inline;}
	.st4{fill:#6A8C9C;}
	.st5{display:inline;fill:url(#SVGID_2_);}
	.st6{fill:url(#SVGID_3_);}
	.st7{fill:url(#SVGID_4_);}
	.st8{fill:url(#SVGID_5_);}
	.st9{display:inline;fill:#9CCC50;}
	.st10{display:inline;fill:#58873F;}
	.st11{display:inline;fill:#AAE0FA;}
	.st12{fill:#D7DDCE;}
	.st13{fill:url(#SVGID_6_);}
	.st14{fill:url(#SVGID_7_);}
	.st15{fill:url(#SVGID_8_);}
	.st16{fill:url(#SVGID_9_);}
	.st17{fill:url(#SVGID_10_);}
	.st18{fill:url(#SVGID_11_);}
	.st19{display:inline;fill:url(#SVGID_12_);}
	.st20{fill:#757575;}
	.st21{display:inline;fill:#E36E25;}
	.st22{display:inline;fill:#F7EC1A;}
	.st23{display:inline;fill:#47301D;}
	.st24{display:inline;fill:#1E443F;}
	.st25{fill:url(#SVGID_13_);}
	.st26{fill:url(#SVGID_14_);}
	.st27{fill:url(#SVGID_15_);}
	.st28{fill:url(#SVGID_16_);}
	.st29{fill:url(#SVGID_17_);}
	.st30{fill:url(#SVGID_18_);}
	.st31{fill:url(#SVGID_19_);}
	.st32{fill:url(#SVGID_20_);}
	.st33{fill:#669966;}
	.st34{opacity:0.34;}
	.st35{opacity:0.59;}
	.st36{fill:#575858;}
	.st37{fill:#999965;}
	.st38{fill:#CCCC98;}
	.st39{fill:#FFFFFF;}
	.st40{fill:#9CD1E9;}
	.st41{fill:#1291D0;}
	.st42{fill:#A7E0F9;}
	.st43{fill:#CBCCCE;}
	.st44{fill:#99CA3C;}
	.st45{fill:#F26739;}
	.st46{fill:#DFE0E0;}
	.st47{fill:#6FC067;}
	.st48{fill:#349946;}
	.st49{fill:#666633;}
	.st50{fill:#F3E4D4;}
	.st51{fill:#E6D7C7;}
	.st52{fill:#ECDDCC;}
	.st53{fill:#6F6860;}
	.st54{fill:#D4C7B8;}
	.st55{fill:#AA917D;}
	.st56{font-family:'Prototype';}
	.st57{font-size:12px;}
	.st58{letter-spacing:2;}
	.st59{fill:none;stroke:#F3723A;stroke-width:2;stroke-miterlimit:10;}
	.st60{fill:#7F7F7F;}
	.st61{fill:#666766;}
	.st62{fill:#333333;}
	.st63{fill:#EEA620;}
	.st64{fill:#CD8B2A;}
	.st65{fill:#3C57A3;}
	.st66{fill:none;stroke:#F37239;stroke-miterlimit:10;}
	.st67{fill:#89C348;}
	.st68{fill:#F37239;}
</style>
<g id="Layer_1" class="st0">
	<linearGradient id="SVGID_1_" gradientUnits="userSpaceOnUse" x1="1934.5533" y1="107.8016" x2="1934.5533" y2="-139.2005">
		<stop  offset="0" style="stop-color:#C5E9FB"/>
		<stop  offset="1" style="stop-color:#26B9EC"/>
	</linearGradient>
	<rect x="1513.6" y="-166" class="st1" width="841.9" height="329.2"/>
	<path class="st2" d="M2339.3,60.2c18.1,0.1-46.2-2.8-43.3-3.7c5.4-1.7,3.6-2.4-20.7-2.7c-24.4-0.3-98.3,2.4-55,3.7
		c43.3,1.4,46,3.7-4.5,3.1c-50.5-0.7-154.2,0.7-159.6,0.3c-5.4-0.3-28.9-2,8.1-3.1c37-1,82.1-4.4,18-3.4c-64,1-107.3,0.7-110.9,1
		c-3.6,0.3-2.7,0.3,31.6,1.7c34.3,1.4,23.5,1.7-19.8,2.4s-142.5,1.4-49.6,1.7c92.9,0.3,67.6,2,126.3,2c58.6,0,116.4-1.4,164.2,0
		c47.8,1.4,47.8-2.7,47.8-2.7s-44.2-5.8-15.3-4.8C2285.2,56.8,2250,59.9,2339.3,60.2z"/>
	<path class="st2" d="M2356.3,46.8c12.3,0.1-31.4-2.8-29.4-3.7c3.7-1.7,2.5-2.4-14.1-2.7c-16.5-0.3-66.8,2.4-37.4,3.7
		c29.4,1.4,31.3,3.7-3.1,3.1c-34.3-0.7-104.8,0.7-108.5,0.3c-3.7-0.3-19.6-2,5.5-3.1c25.1-1,55.8-4.4,12.3-3.4
		c-43.5,1-72.9,0.7-75.4,1c-2.5,0.3-1.8,0.3,21.4,1.7c23.3,1.4,15.9,1.7-13.5,2.4c-29.4,0.7-96.8,1.4-33.7,1.7c63.1,0.3,46,2,85.8,2
		c39.8,0,79.1-1.4,111.5,0c32.5,1.4,32.5-2.7,32.5-2.7s-30-5.8-10.4-4.8C2319.6,43.4,2295.7,46.5,2356.3,46.8z"/>
	<path class="st2" d="M1548.2,48.5c-18.1,0.1,46.2-2.8,43.3-3.7c-5.4-1.7-3.6-2.4,20.7-2.7c24.4-0.3,98.3,2.4,55,3.7
		c-43.3,1.4-46,3.7,4.5,3.1c50.5-0.7,154.2,0.7,159.6,0.3c5.4-0.3,28.9-2-8.1-3.1c-37-1-82.1-4.4-18-3.4c64,1,107.3,0.7,110.9,1
		c3.6,0.3,2.7,0.3-31.6,1.7c-34.3,1.4-23.5,1.7,19.8,2.4c43.3,0.7,142.5,1.4,49.6,1.7c-92.9,0.3-67.6,2-126.3,2s-116.4-1.4-164.2,0
		c-47.8,1.4-47.8-2.7-47.8-2.7s44.2-5.8,15.3-4.8S1637.5,48.1,1548.2,48.5z"/>
	<g class="st3">
		<path class="st4" d="M1877.7,103.3V39.5h-3.8l-1.7-2c0,0-2.2-0.4-1.9,0c0.3,0.4,0,8.8,0,8.8h-2.1v26h-9.9v-3.1h-3.1v9.1h-2.1
			c0.1-5.2-0.1-20.7-0.1-20.7h-4.3c0,0-1,3.6,0,3.6c-0.8,0-6.2,0-6.2,0v-2.4h-2.9v7.6h-10.7v4h-6.4v11.4h-2.7v-10h-2.5V61h-6.6
			c0,0,0,3.8,0,6.4c0,2.6-2.9,0-3.5,0s0,0,0-1.8c0-1.8-4.4,0-4.4,0s-2.6,3.2-3.8,4.6c0,0-5.3,0-5.6,0c-0.4,0,0-2.1,0-2.1h-2.5
			l-1.8,2.2h-1.9l-1.5-1.8h-2.9v-3.6h-4.9v16.4c0,0-4.9,0-6,0h-4.1c-0.6,0,0,2.6,0,2.6h-3.7V72.5h-8.9V79l-1.5,1.8
			c0,0-0.9-1.1-1.6-1.9c-0.7-0.8-4.1,1.9-5.6,0c0,0-3.7,0-5.6,0c-0.8,0-2.9,1.7-4.3,0V73h-10.8l-1.3,1.5h-4.9v-1.9
			c0,0-2.4-0.8-3.1,0c-0.7,0.8,0,5.7,0,5.7l-1.4,1.7v-6.9l-1.9-2.4l-2.5,3.1h-3.1V71h-3.3v2.4h-5.1V66h-6.2v7.6h-7v-6h-3.5v5h-3.1
			V57.4h-7.4v-2.1h-2.5v2.4h-8.8v-1.5h-2.4l-0.9,1.1h-2.7v16.7h-2.3l0.2-31h-2.3l0.4-1h-10.1v29.7h-7.9l-1.9,2.3v-16h-3.5v-6h-7.4
			v5.7h-4.6V64l-2.3,2.9l-2.4,3h-3.7v8.1c0,0-5.1,0-5.8,0c-0.8,0,0-3.3,0-3.3h-5.3c0,0-3.3,0-4.3,0c-1,0-1.2-1.4-1.2-1.4h-1.9v-4.5
			h-2.6v2.3l-1.9-2.3c0,0-2.3-0.2-2.3,0c0,0.2,0,4.5,0,4.5h-19.7v-3.1h-4.1v-8.3h-6.2v7.6H1536V58.9h-3.8v12l-0.7,0.8v-7.4l-1.2-1.4
			h-5v8.2l-1.7,2h-10.1v30.1H1877.7z"/>
		<path class="st4" d="M1753,103.3V39.5h3.8l1.7-2c0,0,2.2-0.4,1.9,0c-0.3,0.4,0,8.8,0,8.8h2.1v26h9.9v-3.1h3.1v9.1h2.1
			c-0.1-5.2,0.1-20.7,0.1-20.7h4.3c0,0,1,3.6,0,3.6c0.8,0,6.2,0,6.2,0v-2.4h2.9v7.6h10.7v4h6.4v11.4h2.7v-10h2.5V61h6.6
			c0,0,0,3.8,0,6.4c0,2.6,2.9,0,3.5,0s0,0,0-1.8c0-1.8,4.4,0,4.4,0s2.6,3.2,3.8,4.6c0,0,5.3,0,5.6,0c0.4,0,0-2.1,0-2.1h2.5l1.8,2.2
			h1.8l1.5-1.8h2.9v-3.6h4.9v16.4c0,0,4.9,0,6,0h4.1c0.6,0,0,2.6,0,2.6h3.7V72.5h8.9V79l1.5,1.8c0,0,0.9-1.1,1.6-1.9
			c0.7-0.8,4.1,1.9,5.6,0c0,0,3.7,0,5.6,0c0.8,0,2.9,1.7,4.3,0V73h10.8l1.3,1.5h4.9v-1.9c0,0,2.4-0.8,3.1,0s0,5.7,0,5.7l1.4,1.7
			v-6.9l1.9-2.4l2.5,3.1h3.1V71h3.3v2.4h5.1V66h6.2v7.6h7v-6h3.5v5h3.1V57.4h7.4v-2.1h2.5v2.4h8.8v-1.5h2.4l0.9,1.1h2.7v16.7h2.3
			l-0.2-31h2.3l-0.4-1h10.1v29.7h7.9l1.9,2.3v-16h3.5v-6h7.4v5.7h4.6V64l2.3,2.9l2.4,3h3.7v8.1c0,0,5.1,0,5.8,0s0-3.3,0-3.3h5.3
			c0,0,3.3,0,4.3,0c1,0,1.2-1.4,1.2-1.4h1.9v-4.5h2.6v2.3l1.9-2.3c0,0,2.3-0.2,2.3,0c0,0.2,0,4.5,0,4.5h19.7v-3.1h4.1v-8.3h6.2v7.6
			h15.2V58.9h3.8v12l0.7,0.8v-7.4l1.2-1.4h5v8.2l1.7,2h10.1v30.1H1753z"/>
	</g>
	<g class="st3">
		<path class="st4" d="M2198.9,103.3V39.5h-3.8l-1.7-2c0,0-2.2-0.4-1.9,0c0.3,0.4,0,8.8,0,8.8h-2.1v26h-9.9v-3.1h-3.1v9.1h-2.1
			c0.1-5.2-0.1-20.7-0.1-20.7h-4.3c0,0-1,3.6,0,3.6c-0.8,0-6.2,0-6.2,0v-2.4h-2.9v7.6H2150v4h-6.4v11.4h-2.7v-10h-2.5V61h-6.6
			c0,0,0,3.8,0,6.4c0,2.6-2.9,0-3.5,0c-0.6,0,0,0,0-1.8c0-1.8-4.4,0-4.4,0s-2.6,3.2-3.8,4.6c0,0-5.3,0-5.6,0c-0.4,0,0-2.1,0-2.1
			h-2.5l-1.8,2.2h-1.8l-1.5-1.8h-2.9v-3.6h-4.9v16.4c0,0-4.9,0-6,0h-4.1c-0.6,0,0,2.6,0,2.6h-3.7V72.5h-8.9V79l-1.5,1.8
			c0,0-0.9-1.1-1.6-1.9c-0.7-0.8-4.1,1.9-5.6,0c0,0-3.7,0-5.6,0c-0.8,0-2.9,1.7-4.3,0V73h-10.8l-1.3,1.5h-4.9v-1.9
			c0,0-2.4-0.8-3.1,0c-0.7,0.8,0,5.7,0,5.7l-1.4,1.7v-6.9l-1.9-2.4l-2.5,3.1h-3.1V71h-3.3v2.4h-5.1V66h-6.2v7.6h-7v-6h-3.5v5h-3.1
			V57.4h-7.4v-2.1h-2.5v2.4h-8.8v-1.5h-2.4l-0.9,1.1h-2.7v16.7h-2.3l0.2-31h-2.3l0.4-1h-10.1v29.7h-7.9l-1.9,2.3v-16h-3.5v-6h-7.4
			v5.7h-4.6V64l-2.3,2.9l-2.4,3h-3.7v8.1c0,0-5.1,0-5.8,0c-0.8,0,0-3.3,0-3.3h-5.3c0,0-3.3,0-4.3,0c-1,0-1.2-1.4-1.2-1.4h-1.9v-4.5
			h-2.6v2.3l-1.9-2.3c0,0-2.3-0.2-2.3,0c0,0.2,0,4.5,0,4.5h-19.7v-3.1h-4.1v-8.3h-6.2v7.6h-15.2V58.9h-3.8v12l-0.7,0.8v-7.4
			l-1.2-1.4h-5v8.2l-1.7,2h-10.1v30.1H2198.9z"/>
		<path class="st4" d="M2356.7,74.6c-0.1,0-0.1,0-0.1,0h-5.3c0,0,0.8,3.3,0,3.3s-5.8,0-5.8,0v-8.1h-3.7l-2.4-3l-2.3-2.9v-6.3h-4.6
			V52h-7.4v6h-3.5v16l-1.9-2.3h-7.9V42h-10.1l0.4,1h-2.3l0.2,31h-2.3V57.2h-2.7l-0.9-1.1h-2.4v1.5h-8.8v-2.4h-2.5v2.1h-7.4v15.2
			h-3.1v-5h-3.5v6h-7V66h-6.2v7.4h-5.1V71h-3.3v2.9h-3.1l-2.5-3.1l-1.9,2.4v6.9l-1.4-1.7c0,0,0.7-4.9,0-5.7c-0.7-0.8-3.1,0-3.1,0
			v1.9h-4.9l-1.3-1.5h-10.8v5.8c-1.4,1.7-3.5,0-4.3,0c-1.9,0-5.6,0-5.6,0c-1.6,1.9-5-0.8-5.6,0c-0.7,0.8-1.6,1.9-1.6,1.9l-1.5-1.8
			v-6.5h-8.9v11.7h-3.7c0,0,0.6-2.6,0-2.6h-4.1c-1.2,0-6,0-6,0V65.1h-4.9v3.6h-2.9l-1.5,1.8h-1.8l-1.8-2.2h-2.5c0,0,0.4,2.1,0,2.1
			c-0.4,0-5.6,0-5.6,0c-1.2-1.4-3.8-4.6-3.8-4.6s-4.4-1.8-4.4,0c0,1.8,0.6,1.8,0,1.8c-0.6,0-3.5,2.6-3.5,0c0-2.6,0-6.4,0-6.4h-6.6
			v10.7h-2.5v10h-2.7V70.3h-6.4v-4h-10.7v-7.6h-2.9V61c0,0-5.5,0-6.2,0c1,0,0-3.6,0-3.6h-4.3c0,0-0.1,15.5-0.1,20.7h-2.1v-9.1h-3.1
			v3.1h-9.9v-26h-2.1c0,0-0.3-8.5,0-8.8c0.3-0.4-1.9,0-1.9,0l-1.7,2h-3.8v74h282.4V74.6z"/>
	</g>
	<linearGradient id="SVGID_2_" gradientUnits="userSpaceOnUse" x1="1733.6376" y1="166.3763" x2="1733.6376" y2="22.3999">
		<stop  offset="0" style="stop-color:#707274"/>
		<stop  offset="0.1065" style="stop-color:#5C5C5D"/>
		<stop  offset="0.2215" style="stop-color:#4A494A"/>
		<stop  offset="0.3439" style="stop-color:#3C3A3B"/>
		<stop  offset="0.474" style="stop-color:#312E2F"/>
		<stop  offset="0.6154" style="stop-color:#292627"/>
		<stop  offset="0.7765" style="stop-color:#252122"/>
		<stop  offset="1" style="stop-color:#231F20"/>
	</linearGradient>
	<path class="st5" d="M1786,67l0.2,31h-2.8V81.3h-3.3l-1.1-1.1h-2.9v1.5h-4.5h-6.1v-2.4h-3.1v2.1h-8.9v15.2h-3.8v-5h-4.2v6h-3.5
		h-4.9v-7.6h-7.5v7.4h-6.1v-2.4h-4v2.9h-3.8l-3.1-3.1l-2.4,2.4v6.9l-1.6-1.7c0,0,0.8-4.9,0-5.7c-0.8-0.8-3.8,0-3.8,0v1.9h-5.9
		l-1.5-1.5h-3.2h-5.7h-4.2v5.8c-1.6,1.7-4.2,0-5.2,0c-2.4,0-6.8,0-6.8,0c-1.9,1.9-6-0.8-6.8,0c-0.8,0.8-1.9,1.9-1.9,1.9l-1.8-1.8
		v-6.5h-10.7v11.7h-4.5c0,0,0.7-2.6,0-2.6c-0.7,0-3.5,0-4.9,0s-7.3,0-7.3,0V92.9v-3.8h-5.9v3.6h-3.5l-1.8,1.8h-2.2l-2.2-2.2h-3
		c0,0,0.5,2.1,0,2.1s-6.8,0-6.8,0c-1.4-1.4-4.6-4.6-4.6-4.6s-5.3-1.8-5.3,0c0,1.8,0.7,1.8,0,1.8s-4.2,2.6-4.2,0c0-2.6,0-6.4,0-6.4
		h-6.1h-1.9v10.7h-3.1v10h-3.3V94.4h-4h-3.8v-4h-13v-7.6h-3.5v2.4c0,0-8.7,0-7.5,0c1.2,0,0-3.6,0-3.6h-5.2c0,0-0.2,22.4,0,22.4
		s0-1.7,0-1.7h-2.6v-9.1h-3.8v3.1h-12v-26h-2.6c0,0-0.4-8.5,0-8.8c0.4-0.4-2.4,0-2.4,0l-2,2h-4.6v47.8v50.2h224.6h215.4V97.2h-12.2
		l-2-2V87h-6l-1.4,1.4v7.4l-0.8-0.8v-12h-4.6v10.5h-18.4v-7.6h-7.5v8.3h-4.9v3.1h-4.2h-5.9h-8.5h-5.2c0,0,0-4.3,0-4.5
		c0-0.2-2.8,0-2.8,0l-2.2,2.3v-2.3h-3.2v4.5h-2.4c0,0-0.2,1.4-1.4,1.4c-1.2,0-5.2,0-5.2,0h-6.4c0,0,0.9,3.3,0,3.3
		c-0.9,0-7.1,0-7.1,0v-8.1h-4.5l-2.9-3l-2.8-2.9v-6.3h-5.5V76h-8.9v6h-4.2v16l-2.2-2.3h-9.5V71v-5h-12.2l0.5,1H1786z"/>
	<g class="st3">
		<linearGradient id="SVGID_3_" gradientUnits="userSpaceOnUse" x1="1934.9576" y1="8.6728" x2="1934.9576" y2="133.7068">
			<stop  offset="0" style="stop-color:#707274"/>
			<stop  offset="1" style="stop-color:#231F20"/>
		</linearGradient>
		<path class="st6" d="M1513.6,117.6h841.9c0,0,1.8-5.9,0-7.7l-22.8-9.8l-1.7-22.6l-10.7,4.9v25.3c-1.7-0.3-3.4-0.6-5.1-0.8V77.5
			l-10.8,11l0.1,17.4c-7-0.4-14.3-0.2-23.4,0.3V77.5h-25.5V65.3h-14.6v43.9h1.2c-17.8,1.5-37.8,2.8-56,3.5v-62h-14.6v62.4
			c-7.8,0.1-15,0.1-21.2-0.2h11.5V66.5l-14.6,7.3v38.8c-11.3-0.7-18.7-2.3-19.5-5.1c0-0.1-0.1-0.2-0.1-0.4V77.5H2096v7.3h-18.7V99
			c-0.7,0-1.4-0.1-2.1-0.1V48.2h-14.6v50h0V66.5l-14.6,7.3v24.1c-2.4-0.1-4.9-0.1-7.3-0.1V48.2H2024v49.3c-52.4-0.5-109.6,1-132.4,2
			c-2.4,0.1-4.9,0.2-7.6,0.4V48.2h-14.6V101c-2.4,0.2-4.8,0.4-7.3,0.6V73.8l-14.6-7.3v36.3c0,0,0,0,0,0V48.2h-14.6v55.9
			c-0.7,0.1-1.4,0.1-2.1,0.2V84.8H1812v-7.3h-31.4v31.4c-2.1,0.2-4.2,0.3-6.2,0.5V89.7h-13.4V73.8l-14.6-7.3v44.8
			c-3.5,0.2-6.8,0.3-9.8,0.4v-61h-14.6v60.6c-1.3-0.2-2.4-0.4-3.2-0.6c-1.4-0.5-2.8-1.1-4.1-1.7V28.7L1700,49.5v48.8
			c-3-2.5-5.7-4.7-8.5-5.9v-7.5h-14.6v11.8c-1.9,1.7-4.3,3.3-9.7,4.4V65.3h-14.6v12.2H1627v11h-12.2v10c-3.9-1-7.7-2-11.1-2.7l0-7.3
			l-10.8-11v16.8c-1.9,0-3.6,0.1-5.1,0.5V82.4l-10.7-4.9v23.1h-63.4V117.6z"/>
		<linearGradient id="SVGID_4_" gradientUnits="userSpaceOnUse" x1="2200.7017" y1="8.6728" x2="2200.7017" y2="133.7065">
			<stop  offset="0" style="stop-color:#707274"/>
			<stop  offset="1" style="stop-color:#231F20"/>
		</linearGradient>
		<polygon class="st7" points="2208,49.5 2193.4,28.7 2193.4,109.2 2208,109.2 		"/>
		<linearGradient id="SVGID_5_" gradientUnits="userSpaceOnUse" x1="2223.8557" y1="8.6741" x2="2223.8557" y2="133.7064">
			<stop  offset="0" style="stop-color:#707274"/>
			<stop  offset="1" style="stop-color:#231F20"/>
		</linearGradient>
		<rect x="2216.5" y="84.8" class="st8" width="14.6" height="24.4"/>
	</g>
	<path class="st9" d="M2355.5,358.6V114.1c-10.1,2.1-52.9-2.1-62.9-3.1s-33-2-51.7-1.4c-18.7,0.6-232.3,8.4-324.3-3.6
		c-92-12-186-3-211,3c-31-14-45,0-59-0.4c-14-0.4-25,4.4-62,1.4s-71,4.1-71,4.1v244.5v664.6H2356V358.6H2355.5z"/>
	<path class="st10" d="M1758.5,122.2c0,0,16.2-7,26.5-7.6c9.7-0.5,6.5,3.8,9.7,2.7c3.2-1.1,4.9-2.2,8.1-2.2s18.9-1.1,18.9-1.1h-15.2
		v-7.6h-6.5l-2.2,2.2l-7-3.2h-9.7c0,4.9-3.8,3.8-3.8,3.8l-4.1-4.1h-7.8v10.6h-21.1l3,3C1747.5,118.7,1755.3,120,1758.5,122.2z"/>
	<path class="st10" d="M1699,120.6v-10.3h-7.6l-3.2,3.2h-6v3.2v3.8C1682.2,120.6,1690.9,117.8,1699,120.6z"/>
	<path class="st10" d="M1688.7,124.9l-2.7-2.7l-2.7-2.7h-9.2v-4.3h-9.2c0,0-1.6,7-8.7,7s-15.7,0.5-15.7,0.5l4.6,4.6
		c0,0,14.3-4.1,21.9-2.4c7.6,1.6,24.9,3.2,34.6,2.7C1711.5,127.1,1698.5,124.3,1688.7,124.9z"/>
	<path class="st10" d="M1737.4,114.6C1737.4,114.6,1737.4,118.4,1737.4,114.6c0-3.8,10.3,0,10.3,0l5.1-5.1c0,0,0.2-6.1,3.1-3.1
		c3,3,0,8.8,0,8.8h-15.3L1737.4,114.6z"/>
	<path class="st10" d="M1513.6,122.3c0,0,8.3-7.8,11.2-6.3c7.2,3.6,1.8,6.3,7.2,3.6c5.4-2.7,0.9-5.4,5.4-2.7
		c4.5,2.7,4.5,2.7,4.5,2.7s-9.9,4.5,0,0c9.9-4.5,9.9-4.5,9.9-4.5s-9.9-5.4,0,0c9.9,5.4,9,3.6,14.4,5.4c5.4,1.8,12.6-6.3,12.6-6.3
		h13.5c0,4.5-4.5,4.5,0,4.5s-9,0,0,0s2.7-11.7,8.6-8.6c5.9,3.2,2.3-0.5,5.9,3.2c3.6,3.6,7.2,4.5,9.9,3.6c2.7-0.9-3.6,3.6-17.1,3.6
		s-19.8,4.5-27.1,2.7c-7.2-1.8-9-0.9-14.4-0.9s-18.9,0.9-21.6,0.9s-9,0.9-9,0.9L1513.6,122.3z"/>
	<path class="st10" d="M1639.3,111.5c3.1-1.8,8.1,0,8.1,0c8.1-1.8,13.3-8.8,16.1-6.7s3.7,0.3,8.2,1.2c4.5,0.9,9.9,1.8,9.9,1.8
		s6.1,1.2,9.7,2.4c3.8,1.2-12.4,0.3-18.7,1.2C1666.4,112.4,1626.7,118.7,1639.3,111.5z"/>
	<path class="st10" d="M1806.5,110.3c-7.6,0.3,19.2-2.6,27.4-1.4c8.2,1.2,10.9,1.1,19.1,1.4c8.2,0.3,7.9-4.2,15.2-2.8
		c7.3,1.3,3.6-0.2,12.7,0.9c9.1,1.2-9.8,1.6,12.7,0c22.5-1.5,22.5-1.5,22.5-1.5s3.2-5.6,0,0c-3.2,5.6-6.8,5.9-9.5,6.1
		c-2.7,0.2-67.9-0.8-76-0.2C1822.5,113.3,1822.4,109.6,1806.5,110.3z"/>
	<path class="st10" d="M2247.3,121.4c3.6-0.9,31.6-4.5,31.6-4.5h14.4c0,0,8.1-1.8,10.8-1.8s2.7,0,7.2,0c4.5,0,16.2,0,16.2,0
		c4.5,2.7-0.9-2.7,4.5,2.7c5.4,5.4,0.9,9.9,5.4,5.4c4.5-4.5,8.1-6.3,8.1-6.3c6.3-1.8,9.9-3.3,9.9-3.3v14.1c0,0,0-5.4-12.6-4.5
		c-15.1,1.1-31.6-3.6-36.1-2.7c-4.5,0.9-1.8,1.8-10.8,1.8c-9,0,0,1.8-14.4,0.9c-14.4-0.9-25.3,0-25.3,0L2247.3,121.4z"/>
	<path class="st10" d="M2239.1,116.9l34.3-4.5c0,0-19.8-1.8-26.2-1.8C2240.9,110.6,2236.4,113.3,2239.1,116.9z"/>
	<path class="st10" d="M2310.4,146.7c2.3,1.5,6.1,1.1,10.8-0.9c10.8-4.5,4.5-10.8,14.4-10.8c9.9,0,19.8,3.6,19.8,3.6v17.1
		c0,0,2.7-13.5-9-10.8c-11.7,2.7-10.8,7.2-13.5,7.2c-2.7,0-40.6,1.8-40.6,1.8S2307.7,144.9,2310.4,146.7z"/>
	<path class="st10" d="M1778.5,131.5c0,0,12.4-3.7,14.3-2.5c1.9,1.2,3.1,3.7,5,2.5c1.9-1.2,8.7-3.7,8.7-3.7s3.7-1.2,6.8,0.6
		c3.1,1.9,4.3,0,7.4-0.6c3.1-0.6,18,0,16.1,0.6c-16.7,5.6-20.8,8.9-24.2,6.8C1807.6,132.1,1771.6,137,1778.5,131.5z"/>
	<path class="st11" d="M1553.6-3.1c-9.6,0,36,1.4,46.7-0.7c10.8-2.2,21.6-5,23.7-5c2.2,0,6.5-2.2,33.8,2.2s33.8,5.8,43.9,5.8
		s-12.9,0.7,23-2.2c36-2.9,39.5-5,54.6-4.3c15.1,0.7,41.7-4.3,5-5.8c-36.7-1.4-18-5,18-5s69,2.9,51.8,0.7
		c-17.3-2.2-23-14.4-32.4-10.8c-9.3,3.6-6.5,7.2-30.2,3.6c-23.7-3.6-41-7.2-53.2-3.6c-12.2,3.6,7.2,11.5-23,11.5
		c-30.2,0-56.1-12.2-82.7-7.2s-25.9,9.3-37.4,9.3s-13.7,0-17.3,0S1599.6-3.1,1553.6-3.1z"/>
	<path class="st11" d="M2324.6,13.6c4-0.2-15.9,1.8-20.3,0.6c-4.5-1.2-10.4,2.3-11.4,2.3c-1,0,0.7-2.7-13.5,1
		c-14.7,3.9-20.3,1.1-25.6,1.5c-5.5,0.3,6.8,0.1-12.3-0.9c-20.6-1.1-22.5-2.7-31.9-1.7c-9.6,1.1-68-0.8-43.7-3
		c22.7-2.1,52.8-6.1,29.7-5.3c-24.8,0.9-34.3,1.4-21.4-1c12.6-2.4,13.3-6.2,19.8-3.1c6.3,3-7,1.9,9.2-1.6
		c15.6-3.5,26.7-6.7,33.6-3.9c6.7,2.8-5.7,9.5,11.8,8.9c27.5-1,33.8-2.8,39.2-1.3c11.7,3.3,15.8,0.7,21.1,0.5
		c5.2-0.2,6.1-0.2,7.7-0.3C2318.1,6.2,2304.5,14.7,2324.6,13.6z"/>
	<path class="st11" d="M1890.5-51.3c19.4-1.4,29.8,19.8,47.8,9c18-10.8-45.1-19.8,34.3-15.3c79.4,4.5,72.2,4.5,90.2,0.9
		c18-3.6,16.2-10.8,16.2-10.8l-13.5-3.6l-13.5,4.5l-28.9,1.8c0,0,0.9-50.5-51.4-35.2s-26.2,31.6-26.2,31.6s-22.5,2.7-26.2,4.5
		c-3.6,1.8-28,1.8-30.7-0.9c-2.7-2.7-7.2-34.3-43.3-23.5c-36.1,10.8-18.9,25.3-18.9,25.3s-17.1,1.8-20.7,5.4
		c-3.6,3.6-1.8,5.4-8.1,5.4c-6.3,0-20.7,2.7-15.3,2.7c5.4,0,50.5-3.6,56.8-3.6c6.3,0-0.9-7.2,10.8-4.5
		C1861.7-54.9,1852.7-48.6,1890.5-51.3z"/>
	<g class="st3">
		<path class="st12" d="M2190.1,795.8c0,0-370.3-103.4,16.4-197.9c220.2-53.8,139.6-335.7-513.2-326.4
			c-120.8,1.7-97.7-55.5-0.3-89.5c55.7-19.4,84.3-63,16.2-70.2c49.2,12.6,18.8,48.3-54.8,59.9c-111.3,17.6-173.2,138.7,5.7,154.3
			c473.5,41.1,409.4,133.3,217.5,183.4c-589.6,154.1-192.8,350.1-192.8,350.1L2190.1,795.8z"/>
		<g>
			<g>
				<radialGradient id="SVGID_6_" cx="2292.1602" cy="841.0355" r="587.9258" gradientUnits="userSpaceOnUse">
					<stop  offset="0" style="stop-color:#DCDDDE"/>
					<stop  offset="1" style="stop-color:#898A8C"/>
				</radialGradient>
				<path class="st13" d="M1514.1,887c0,0,457.2-112.4,841.9-88.4c0,72.4,0,192.7,0,192.7h-841.9V887z"/>
				<g>
					<linearGradient id="SVGID_7_" gradientUnits="userSpaceOnUse" x1="2457.2109" y1="962.1319" x2="1777.7439" y2="803.1396">
						<stop  offset="0" style="stop-color:#707274"/>
						<stop  offset="0.2581" style="stop-color:#5F5F61"/>
						<stop  offset="0.526" style="stop-color:#515153"/>
						<stop  offset="0.7792" style="stop-color:#4A494B"/>
						<stop  offset="1" style="stop-color:#474648"/>
					</linearGradient>
					<path class="st14" d="M2156.6,883.3c-22.9-4.1-49.5-6.1-71-9.4l-21.7,4.8c21.9,3.4,43.1,6.9,63.2,10.4L2156.6,883.3z"/>
					<linearGradient id="SVGID_8_" gradientUnits="userSpaceOnUse" x1="2450.9543" y1="988.8544" x2="1771.4918" y2="829.8632">
						<stop  offset="0" style="stop-color:#707274"/>
						<stop  offset="0.2581" style="stop-color:#5F5F61"/>
						<stop  offset="0.526" style="stop-color:#515153"/>
						<stop  offset="0.7792" style="stop-color:#4A494B"/>
						<stop  offset="1" style="stop-color:#474648"/>
					</linearGradient>
					<path class="st15" d="M1819.8,851c21.3,1.3,42.9,3,64.6,5l20.7-4.7c-23.6-2-47.1-3.2-66.5-4.3L1819.8,851z"/>
					<linearGradient id="SVGID_9_" gradientUnits="userSpaceOnUse" x1="2454.6406" y1="973.1042" x2="1775.1763" y2="814.1127">
						<stop  offset="0" style="stop-color:#707274"/>
						<stop  offset="0.2581" style="stop-color:#5F5F61"/>
						<stop  offset="0.526" style="stop-color:#515153"/>
						<stop  offset="0.7792" style="stop-color:#4A494B"/>
						<stop  offset="1" style="stop-color:#474648"/>
					</linearGradient>
					<path class="st16" d="M2035.3,865.9c-27.6-3.7-48.2-5.8-72.8-8.4l-22.9,4.3c24.5,2.8,48.7,5.9,72.4,9.2L2035.3,865.9z"/>
					<linearGradient id="SVGID_10_" gradientUnits="userSpaceOnUse" x1="2458.238" y1="957.7342" x2="1778.7742" y2="798.7427">
						<stop  offset="0" style="stop-color:#707274"/>
						<stop  offset="0.2581" style="stop-color:#5F5F61"/>
						<stop  offset="0.526" style="stop-color:#515153"/>
						<stop  offset="0.7792" style="stop-color:#4A494B"/>
						<stop  offset="1" style="stop-color:#474648"/>
					</linearGradient>
					<path class="st17" d="M2293.1,911.5c-24.4-5.5-53.1-10.9-76.3-15.5l-26.6,6.5c28.9,5.4,54.6,10.4,76,14.8L2293.1,911.5z"/>
					<linearGradient id="SVGID_11_" gradientUnits="userSpaceOnUse" x1="2446.041" y1="1009.8707" x2="1766.5731" y2="850.8782">
						<stop  offset="0" style="stop-color:#707274"/>
						<stop  offset="0.2581" style="stop-color:#5F5F61"/>
						<stop  offset="0.526" style="stop-color:#515153"/>
						<stop  offset="0.7792" style="stop-color:#4A494B"/>
						<stop  offset="1" style="stop-color:#474648"/>
					</linearGradient>
					<path class="st18" d="M1768.9,848.7l18.6-5.3c-41.2-1.3-56.1,0.1-56.1,0.1s-13.4,1.8-27.6,5
						C1725.6,847.9,1745.8,848,1768.9,848.7z"/>
				</g>
			</g>
		</g>
	</g>
	<linearGradient id="SVGID_12_" gradientUnits="userSpaceOnUse" x1="1935.0306" y1="1024.5286" x2="1935.0306" y2="965.8587">
		<stop  offset="0" style="stop-color:#7EB241"/>
		<stop  offset="1" style="stop-color:#4F7737"/>
	</linearGradient>
	<path class="st19" d="M2356,1023.2V936c0,0-90.4,25.7-292.9,16c-169.5-8.1-311-29-549,26c0,43.2,0,45.3,0,45.3H2356z"/>
	<g class="st3">
		<path class="st20" d="M1668.9,282.1c-0.1,0-0.3,0-0.4-0.1l-20.9-8.6c-0.5-0.2-0.8-0.8-0.5-1.3c0.2-0.5,0.8-0.8,1.3-0.5l20.9,8.6
			c0.5,0.2,0.8,0.8,0.5,1.3C1669.7,281.9,1669.3,282.1,1668.9,282.1z"/>
		<path class="st20" d="M1623.3,264.1c-0.2,0-0.3,0-0.5-0.1c-0.5-0.3-12.8-6.9-15.7-10.9c-0.3-0.4-0.2-1.1,0.2-1.4
			c0.4-0.3,1.1-0.2,1.4,0.2c2.7,3.6,14.9,10.2,15.1,10.3c0.5,0.3,0.7,0.9,0.4,1.4C1624,263.9,1623.6,264.1,1623.3,264.1z"/>
		<path class="st20" d="M1594,240.6c-0.3,0-0.6-0.1-0.8-0.3c-0.1-0.2-3.6-4.2-1.6-12c0.1-0.5,0.7-0.9,1.2-0.7
			c0.5,0.1,0.9,0.7,0.7,1.2c-1.7,6.8,1.1,10.2,1.2,10.2c0.4,0.4,0.3,1-0.1,1.4C1594.5,240.5,1594.3,240.6,1594,240.6z"/>
		<path class="st20" d="M1595.9,216.1c-0.1,0-0.2,0-0.3,0c-0.5-0.2-0.8-0.7-0.7-1.2c0.1-0.2,1.6-5,6.9-8.4c0.5-0.3,1.1-0.2,1.4,0.3
			c0.3,0.5,0.2,1.1-0.3,1.4c-4.7,3-6,7.3-6,7.3C1596.7,215.8,1596.3,216.1,1595.9,216.1z"/>
		<path class="st20" d="M1613,201.3c-0.4,0-0.7-0.2-0.9-0.6c-0.2-0.5,0-1.1,0.5-1.3l10.2-4.6c0.5-0.2,1.1,0,1.3,0.5
			c0.2,0.5,0,1.1-0.5,1.3l-10.2,4.6C1613.2,201.3,1613.1,201.3,1613,201.3z"/>
		<path class="st20" d="M1634.2,192.5c-0.4,0-0.7-0.2-0.9-0.6c-0.2-0.5,0-1.1,0.5-1.3l9.2-4.2c0.5-0.2,1.1,0,1.3,0.5
			c0.2,0.5,0,1.1-0.5,1.3l-9.2,4.2C1634.5,192.5,1634.4,192.5,1634.2,192.5z"/>
		<path class="st20" d="M1653.2,184.7c-0.4,0-0.8-0.2-0.9-0.6c-0.2-0.5,0.1-1.1,0.6-1.3l6-2.3c0.5-0.2,1.1,0.1,1.3,0.6
			c0.2,0.5-0.1,1.1-0.6,1.3l-6,2.3C1653.4,184.6,1653.3,184.7,1653.2,184.7z"/>
		<path class="st20" d="M1666.6,179.8c-0.3,0-0.6-0.2-0.7-0.5c-0.1-0.4,0-0.8,0.4-1l6-2.3c0.4-0.1,0.8,0,1,0.4c0.1,0.4,0,0.8-0.4,1
			l-6,2.3C1666.7,179.8,1666.6,179.8,1666.6,179.8z"/>
		<path class="st20" d="M1678.6,175.2c-0.3,0-0.6-0.2-0.7-0.5c-0.1-0.4,0.1-0.8,0.5-0.9l5.5-1.8c0.4-0.1,0.8,0.1,0.9,0.5
			c0.1,0.4-0.1,0.8-0.5,0.9l-5.5,1.8C1678.7,175.2,1678.6,175.2,1678.6,175.2z"/>
		<path class="st20" d="M1690.6,170.8c-0.3,0-0.6-0.2-0.7-0.5c-0.2-0.4,0-0.8,0.4-1l5.4-2.2c0.4-0.2,0.8,0,1,0.4
			c0.2,0.4,0,0.8-0.4,1l-5.4,2.2C1690.8,170.8,1690.7,170.8,1690.6,170.8z"/>
		<path class="st20" d="M1701.5,166.2c-0.2,0-0.4-0.1-0.5-0.3c-0.1-0.3,0-0.5,0.2-0.7l5.4-2.5c0.2-0.1,0.5,0,0.7,0.2
			c0.1,0.3,0,0.5-0.2,0.7l-5.4,2.5C1701.6,166.2,1701.5,166.2,1701.5,166.2z"/>
		<path class="st20" d="M1712,161.5c-0.2,0-0.3-0.1-0.4-0.3c-0.1-0.2-0.1-0.5,0.2-0.7l5.1-2.9c0.2-0.1,0.5-0.1,0.7,0.2
			c0.1,0.2,0.1,0.5-0.2,0.7l-5.1,2.9C1712.2,161.5,1712.1,161.5,1712,161.5z"/>
		<path class="st20" d="M1721.7,156.1c-0.2,0-0.3-0.1-0.4-0.2c-0.2-0.2-0.1-0.5,0.1-0.7l4.2-3.1c0.2-0.2,0.5-0.1,0.7,0.1
			s0.1,0.5-0.1,0.7l-4.2,3.1C1721.9,156.1,1721.8,156.1,1721.7,156.1z"/>
		<path class="st20" d="M1729.3,149.6c-0.1,0-0.1,0-0.2-0.1c-0.1-0.1-0.1-0.3,0-0.4l3.4-2.8c0.1-0.1,0.3-0.1,0.4,0
			c0.1,0.1,0.1,0.3,0,0.4l-3.4,2.8C1729.4,149.6,1729.4,149.6,1729.3,149.6z"/>
		<path class="st20" d="M1735,143.9c-0.1,0-0.1,0-0.2-0.1c-0.1-0.1-0.1-0.2,0-0.4c0.7-0.9,1.9-2.5,2-2.9c0-0.1,0.2-0.2,0.3-0.2
			c0.1,0,0.2,0.2,0.2,0.3c-0.2,0.7-1.9,2.9-2.1,3.1C1735.2,143.9,1735.1,143.9,1735,143.9z"/>
		<path class="st20" d="M1738.5,137.9c0,0-0.1,0-0.1,0c-0.1-0.1-0.2-0.2-0.1-0.3c0.3-0.5,1.1-2,1.1-2.7c0-0.1,0.1-0.2,0.2-0.2
			s0.2,0.1,0.2,0.2c0,1.1-1.2,2.9-1.2,3C1738.7,137.8,1738.6,137.9,1738.5,137.9z"/>
		<path class="st20" d="M1740.2,132.1C1740.2,132.1,1740.2,132.1,1740.2,132.1c-0.2,0-0.3-0.2-0.2-0.3c0.1-0.4,0.2-1.7-0.1-2.3
			c-0.1-0.1,0-0.3,0.1-0.3c0.1-0.1,0.3,0,0.3,0.1c0.5,0.9,0.2,2.6,0.2,2.7C1740.4,132.1,1740.3,132.1,1740.2,132.1z"/>
		<path class="st20" d="M1739,126.8c-0.1,0-0.1,0-0.1-0.1c0,0-0.5-1.2-1.1-1.8c-0.1-0.1-0.1-0.2,0-0.2c0.1-0.1,0.2-0.1,0.2,0
			c0.7,0.7,1.2,1.8,1.2,1.9C1739.2,126.7,1739.2,126.8,1739,126.8C1739.1,126.8,1739.1,126.8,1739,126.8z"/>
		<path class="st20" d="M1736.4,123.1C1736.3,123.1,1736.3,123.1,1736.4,123.1l-1.8-1.4c-0.1-0.1-0.1-0.1,0-0.2
			c0.1-0.1,0.1-0.1,0.2,0l1.7,1.3c0.1,0.1,0.1,0.1,0,0.2C1736.4,123.1,1736.4,123.1,1736.4,123.1z"/>
		<path class="st20" d="M1732.8,120.5C1732.8,120.5,1732.8,120.4,1732.8,120.5l-1.6-1c-0.1,0-0.1-0.1,0-0.2c0-0.1,0.1-0.1,0.2,0
			l1.5,1c0.1,0,0.1,0.1,0,0.2C1732.9,120.4,1732.9,120.5,1732.8,120.5z"/>
		<path class="st20" d="M1729.5,118.3C1729.4,118.3,1729.4,118.3,1729.5,118.3l-1.6-0.9c-0.1,0-0.1-0.1-0.1-0.2
			c0-0.1,0.1-0.1,0.2-0.1l1.5,0.8c0.1,0,0.1,0.1,0.1,0.2C1729.6,118.2,1729.5,118.3,1729.5,118.3z"/>
		<path class="st20" d="M1726.4,116.8C1726.4,116.8,1726.4,116.8,1726.4,116.8l-1.4-0.5c-0.1,0-0.1-0.1-0.1-0.2
			c0-0.1,0.1-0.1,0.2-0.1l1.3,0.5c0.1,0,0.1,0.1,0.1,0.2C1726.6,116.7,1726.5,116.8,1726.4,116.8z"/>
		<path class="st20" d="M1723.4,115.7C1723.4,115.7,1723.4,115.7,1723.4,115.7l-1.7-0.5c-0.1,0-0.1-0.1-0.1-0.2
			c0-0.1,0.1-0.1,0.2-0.1l1.7,0.5c0.1,0,0.1,0.1,0.1,0.2C1723.5,115.7,1723.5,115.7,1723.4,115.7z"/>
	</g>
	<rect class="st21" width="1260" height="635.3"/>
	<rect x="1.5" y="558.6" class="st22" width="1257" height="228.9"/>
	<rect x="1.5" class="st23" width="250.6" height="787.5"/>
	<rect x="1028.5" class="st24" width="230.1" height="787.5"/>
	<rect x="-8" class="st22" width="1266.5" height="230.5"/>
</g>
<g id="Layer_2">
	<g>
		<linearGradient id="SVGID_13_" gradientUnits="userSpaceOnUse" x1="630" y1="-117.1223" x2="630" y2="458.9792">
			<stop  offset="0" style="stop-color:#D25A27"/>
			<stop  offset="9.687500e-02" style="stop-color:#FCB12B"/>
			<stop  offset="0.6333" style="stop-color:#E8E73B;stop-opacity:0.7"/>
			<stop  offset="1" style="stop-color:#2484C6"/>
		</linearGradient>
		<rect class="st25" width="1260" height="409.8"/>
	</g>
	<g>
		<path class="st4" d="M364.1,374.9v-63.8h-3.8l-1.7-2c0,0-2.2-0.4-1.9,0c0.3,0.4,0,8.8,0,8.8h-2.1v26h-9.9v-3.1h-3.1v9.1h-2.1
			c0.1-5.2-0.1-20.7-0.1-20.7H335c0,0-1,3.6,0,3.6c-0.8,0-6.2,0-6.2,0v-2.4h-2.9v7.6h-10.7v4h-6.4v11.4H306v-10h-2.5v-10.7h-6.6
			c0,0,0,3.8,0,6.4c0,2.6-2.9,0-3.5,0c-0.6,0,0,0,0-1.8s-4.4,0-4.4,0s-2.6,3.2-3.8,4.6c0,0-5.3,0-5.6,0c-0.4,0,0-2.1,0-2.1H277
			l-1.8,2.2h-1.9l-1.5-1.8H269v-3.6h-4.9v16.4c0,0-4.9,0-6,0H254c-0.6,0,0,2.6,0,2.6h-3.7V344h-8.9v6.5l-1.5,1.8
			c0,0-0.9-1.1-1.6-1.9c-0.7-0.8-4.1,1.9-5.6,0c0,0-3.7,0-5.6,0c-0.8,0-2.9,1.7-4.3,0v-5.8H212l-1.3,1.5h-4.9v-1.9
			c0,0-2.4-0.8-3.1,0c-0.7,0.8,0,5.7,0,5.7l-1.4,1.7v-6.9l-1.9-2.4l-2.5,3.1h-3.1v-2.9h-3.3v2.4h-5.1v-7.4h-6.2v7.6h-7v-6h-3.5v5
			h-3.1V329h-7.4v-2.1h-2.5v2.4h-8.8v-1.5h-2.4l-0.9,1.1h-2.7v16.7h-2.3l0.2-31h-2.3l0.4-1h-10.1v29.7h-7.9l-1.9,2.3v-16h-3.5v-6
			H106v5.7h-4.6v6.3l-2.3,2.9l-2.4,3h-3.7v8.1c0,0-5.1,0-5.8,0c-0.8,0,0-3.3,0-3.3h-5.3c0,0-3.3,0-4.3,0c-1,0-1.2-1.4-1.2-1.4h-1.9
			v-4.5h-2.6v2.3l-1.9-2.3c0,0-2.3-0.2-2.3,0c0,0.2,0,4.5,0,4.5H47.9v-3.1h-4.1v-8.3h-6.2v7.6H22.4v-10.5h-3.8v12l-0.7,0.8v-7.4
			l-1.2-1.4h-5v8.2l-1.7,2H0v30.1H364.1z"/>
		<path class="st4" d="M239.4,374.9v-63.8h3.8l1.7-2c0,0,2.2-0.4,1.9,0c-0.3,0.4,0,8.8,0,8.8h2.1v26h9.9v-3.1h3.1v9.1h2.1
			c-0.1-5.2,0.1-20.7,0.1-20.7h4.3c0,0,1,3.6,0,3.6c0.8,0,6.2,0,6.2,0v-2.4h2.9v7.6h10.7v4h6.4v11.4h2.7v-10h2.5v-10.7h6.6
			c0,0,0,3.8,0,6.4c0,2.6,2.9,0,3.5,0c0.6,0,0,0,0-1.8s4.4,0,4.4,0s2.6,3.2,3.8,4.6c0,0,5.3,0,5.6,0c0.4,0,0-2.1,0-2.1h2.5l1.8,2.2
			h1.8l1.5-1.8h2.9v-3.6h4.9v16.4c0,0,4.9,0,6,0h4.1c0.6,0,0,2.6,0,2.6h3.7V344h8.9v6.5l1.5,1.8c0,0,0.9-1.1,1.6-1.9
			c0.7-0.8,4.1,1.9,5.6,0c0,0,3.7,0,5.6,0c0.8,0,2.9,1.7,4.3,0v-5.8h10.8l1.3,1.5h4.9v-1.9c0,0,2.4-0.8,3.1,0c0.7,0.8,0,5.7,0,5.7
			l1.4,1.7v-6.9l1.9-2.4l2.5,3.1h3.1v-2.9h3.3v2.4h5.1v-7.4h6.2v7.6h7v-6h3.5v5h3.1V329h7.4v-2.1h2.5v2.4h8.8v-1.5h2.4l0.9,1.1h2.7
			v16.7h2.3l-0.2-31h2.3l-0.4-1h10.1v29.7h7.9l1.9,2.3v-16h3.5v-6h7.4v5.7h4.6v6.3l2.3,2.9l2.4,3h3.7v8.1c0,0,5.1,0,5.8,0
			s0-3.3,0-3.3h5.3c0,0,3.3,0,4.3,0c1,0,1.2-1.4,1.2-1.4h1.9v-4.5h2.6v2.3l1.9-2.3c0,0,2.3-0.2,2.3,0c0,0.2,0,4.5,0,4.5h19.7v-3.1
			h4.1v-8.3h6.2v7.6h15.2v-10.5h3.8v12l0.7,0.8v-7.4l1.2-1.4h5v8.2l1.7,2h10.1v30.1H239.4z"/>
	</g>
	<g>
		<path class="st4" d="M685.3,374.9v-63.8h-3.8l-1.7-2c0,0-2.2-0.4-1.9,0c0.3,0.4,0,8.8,0,8.8h-2.1v26h-9.9v-3.1h-3.1v9.1h-2.1
			c0.1-5.2-0.1-20.7-0.1-20.7h-4.3c0,0-1,3.6,0,3.6c-0.8,0-6.2,0-6.2,0v-2.4h-2.9v7.6h-10.7v4H630v11.4h-2.7v-10h-2.5v-10.7h-6.6
			c0,0,0,3.8,0,6.4c0,2.6-2.9,0-3.5,0s0,0,0-1.8s-4.4,0-4.4,0s-2.6,3.2-3.8,4.6c0,0-5.3,0-5.6,0c-0.4,0,0-2.1,0-2.1h-2.5l-1.8,2.2
			h-1.8l-1.5-1.8h-2.9v-3.6h-4.9v16.4c0,0-4.9,0-6,0h-4.1c-0.6,0,0,2.6,0,2.6h-3.7V344h-8.9v6.5l-1.5,1.8c0,0-0.9-1.1-1.6-1.9
			c-0.7-0.8-4.1,1.9-5.6,0c0,0-3.7,0-5.6,0c-0.8,0-2.9,1.7-4.3,0v-5.8h-10.8l-1.3,1.5h-4.9v-1.9c0,0-2.4-0.8-3.1,0
			c-0.7,0.8,0,5.7,0,5.7l-1.4,1.7v-6.9l-1.9-2.4l-2.5,3.1h-3.1v-2.9h-3.3v2.4h-5.1v-7.4h-6.2v7.6h-7v-6h-3.5v5h-3.1V329h-7.4v-2.1
			h-2.5v2.4h-8.8v-1.5h-2.4l-0.9,1.1h-2.7v16.7h-2.3l0.2-31h-2.3l0.4-1h-10.1v29.7H440l-1.9,2.3v-16h-3.5v-6h-7.4v5.7h-4.6v6.3
			l-2.3,2.9l-2.4,3h-3.7v8.1c0,0-5.1,0-5.8,0c-0.8,0,0-3.3,0-3.3h-5.3c0,0-3.3,0-4.3,0c-1,0-1.2-1.4-1.2-1.4h-1.9v-4.5H393v2.3
			l-1.9-2.3c0,0-2.3-0.2-2.3,0c0,0.2,0,4.5,0,4.5h-19.7v-3.1h-4.1v-8.3h-6.2v7.6h-15.2v-10.5h-3.8v12l-0.7,0.8v-7.4l-1.2-1.4h-5v8.2
			l-1.7,2h-10.1v30.1H685.3z"/>
		<path class="st4" d="M843,346.2c-0.1,0-0.1,0-0.1,0h-5.3c0,0,0.8,3.3,0,3.3c-0.8,0-5.8,0-5.8,0v-8.1h-3.7l-2.4-3l-2.3-2.9v-6.3
			h-4.6v-5.7h-7.4v6h-3.5v16l-1.9-2.3h-7.9v-29.7H788l0.4,1H786l0.2,31h-2.3v-16.7h-2.7l-0.9-1.1h-2.4v1.5h-8.8v-2.4h-2.5v2.1h-7.4
			v15.2H756v-5h-3.5v6h-7v-7.6h-6.2v7.4h-5.1v-2.4h-3.3v2.9h-3.1l-2.5-3.1l-1.9,2.4v6.9l-1.4-1.7c0,0,0.7-4.9,0-5.7
			c-0.7-0.8-3.1,0-3.1,0v1.9H714l-1.3-1.5h-10.8v5.8c-1.4,1.7-3.5,0-4.3,0c-1.9,0-5.6,0-5.6,0c-1.6,1.9-5-0.8-5.6,0
			c-0.7,0.8-1.6,1.9-1.6,1.9l-1.5-1.8V344h-8.9v11.7h-3.7c0,0,0.6-2.6,0-2.6h-4.1c-1.2,0-6,0-6,0v-16.4h-4.9v3.6h-2.9l-1.5,1.8h-1.8
			l-1.8-2.2h-2.5c0,0,0.4,2.1,0,2.1c-0.4,0-5.6,0-5.6,0c-1.2-1.4-3.8-4.6-3.8-4.6s-4.4-1.8-4.4,0s0.6,1.8,0,1.8s-3.5,2.6-3.5,0
			c0-2.6,0-6.4,0-6.4h-6.6v10.7h-2.5v10H616v-11.4h-6.4v-4h-10.7v-7.6h-2.9v2.4c0,0-5.5,0-6.2,0c1,0,0-3.6,0-3.6h-4.3
			c0,0-0.1,15.5-0.1,20.7h-2.1v-9.1h-3.1v3.1h-9.9v-26h-2.1c0,0-0.3-8.5,0-8.8c0.3-0.4-1.9,0-1.9,0l-1.7,2h-3.8v74H843V346.2z"/>
	</g>
	<g>
		<path class="st4" d="M1206.6,384.3v-63.8h-3.8l-1.7-2c0,0-2.2-0.4-1.9,0c0.3,0.4,0,8.8,0,8.8h-2.1v26h-9.9v-3.1h-3.1v9.1h-2.1
			c0.1-5.2-0.1-20.7-0.1-20.7h-4.3c0,0-1,3.6,0,3.6c-0.8,0-6.2,0-6.2,0v-2.4h-2.9v7.6h-10.7v4h-6.4v11.4h-2.7v-10h-2.5v-10.7h-6.6
			c0,0,0,3.8,0,6.4c0,2.6-2.9,0-3.5,0s0,0,0-1.8s-4.4,0-4.4,0s-2.6,3.2-3.8,4.6c0,0-5.3,0-5.6,0s0-2.1,0-2.1h-2.5l-1.8,2.2h-1.8
			l-1.5-1.8h-2.9v-3.6h-4.9v16.4c0,0-4.9,0-6,0h-4.1c-0.6,0,0,2.6,0,2.6h-3.7v-11.7h-8.9v6.5l-1.5,1.8c0,0-0.9-1.1-1.6-1.9
			c-0.7-0.8-4.1,1.9-5.6,0c0,0-3.7,0-5.6,0c-0.8,0-2.9,1.7-4.3,0v-5.8h-10.8l-1.3,1.5h-4.9v-1.9c0,0-2.4-0.8-3.1,0
			c-0.7,0.8,0,5.7,0,5.7l-1.4,1.7v-6.9l-1.9-2.4l-2.5,3.1h-3.1v-2.9h-3.3v2.4h-5.1v-7.4h-6.2v7.6h-7v-6h-3.5v5h-3.1v-15.2h-7.4v-2.1
			h-2.5v2.4h-8.8v-1.5H987l-0.9,1.1h-2.7v16.7h-2.3l0.2-31h-2.3l0.4-1h-10.1v29.7h-7.9l-1.9,2.3v-16h-3.5v-6h-7.4v5.7H944v6.3
			l-2.3,2.9l-2.4,3h-3.7v8.1c0,0-5.1,0-5.8,0c-0.8,0,0-3.3,0-3.3h-5.3c0,0-3.3,0-4.3,0c-1,0-1.2-1.4-1.2-1.4H917v-4.5h-2.6v2.3
			l-1.9-2.3c0,0-2.3-0.2-2.3,0c0,0.2,0,4.5,0,4.5h-19.7v-3.1h-4.1v-8.3h-6.2v7.6H865v-10.5h-3.8v12l-0.7,0.8v-7.4l-1.2-1.4h-5v8.2
			l-1.7,2h-10.1v30.1H1206.6z"/>
		<path class="st4" d="M1260.6,354.4h-5.1v-2.4h-3.3v2.9h-3.1l-2.5-3.1l-1.9,2.4v6.9l-1.4-1.7c0,0,0.7-4.9,0-5.7
			c-0.7-0.8-3.1,0-3.1,0v1.9h-4.9l-1.3-1.5h-10.8v5.8c-1.4,1.7-3.5,0-4.3,0c-1.9,0-5.6,0-5.6,0c-1.6,1.9-5-0.8-5.6,0
			c-0.7,0.8-1.6,1.9-1.6,1.9l-1.5-1.8v-6.5h-8.9v11.7h-3.7c0,0,0.6-2.6,0-2.6h-4.1c-1.2,0-6,0-6,0v-16.4h-4.9v3.6h-2.9l-1.5,1.8
			h-1.8l-1.8-2.2h-2.5c0,0,0.4,2.1,0,2.1c-0.4,0-5.6,0-5.6,0c-1.2-1.4-3.8-4.6-3.8-4.6s-4.4-1.8-4.4,0s0.6,1.8,0,1.8s-3.5,2.6-3.5,0
			c0-2.6,0-6.4,0-6.4h-6.6v10.7h-2.5v10h-2.7v-11.4h-6.4v-4h-10.7v-7.6h-2.9v2.4c0,0-5.5,0-6.2,0c1,0,0-3.6,0-3.6h-4.3
			c0,0-0.1,15.5-0.1,20.7h-2.1v-9.1h-3.1v3.1h-9.9v-26h-2.1c0,0-0.3-8.5,0-8.8c0.3-0.4-1.9,0-1.9,0l-1.7,2h-3.8v74h178L1260.6,354.4
			z"/>
	</g>
	<linearGradient id="SVGID_14_" gradientUnits="userSpaceOnUse" x1="220.0293" y1="437.9673" x2="220.0293" y2="293.9908">
		<stop  offset="0" style="stop-color:#707274"/>
		<stop  offset="0.1065" style="stop-color:#5C5C5D"/>
		<stop  offset="0.2215" style="stop-color:#4A494A"/>
		<stop  offset="0.3439" style="stop-color:#3C3A3B"/>
		<stop  offset="0.474" style="stop-color:#312E2F"/>
		<stop  offset="0.6154" style="stop-color:#292627"/>
		<stop  offset="0.7765" style="stop-color:#252122"/>
		<stop  offset="1" style="stop-color:#231F20"/>
	</linearGradient>
	<path class="st26" d="M272.4,338.6l0.2,31h-2.8v-16.7h-3.3l-1.1-1.1h-2.9v1.5h-4.5h-6.1V351h-3.1v2.1h-8.9v15.2h-3.8v-5h-4.2v6
		h-3.5h-4.9v-7.6h-7.5v7.4h-6.1v-2.4h-4v2.9H202l-3.1-3.1l-2.4,2.4v6.9l-1.6-1.7c0,0,0.8-4.9,0-5.7c-0.8-0.8-3.8,0-3.8,0v1.9h-5.9
		l-1.5-1.5h-3.2h-5.7h-4.2v5.8c-1.6,1.7-4.2,0-5.2,0c-2.4,0-6.8,0-6.8,0c-1.9,1.9-6-0.8-6.8,0c-0.8,0.8-1.9,1.9-1.9,1.9l-1.8-1.8
		v-6.5h-10.7v11.7H133c0,0,0.7-2.6,0-2.6c-0.7,0-3.5,0-4.9,0c-1.4,0-7.3,0-7.3,0v-12.6v-3.8h-5.9v3.6h-3.5l-1.8,1.8h-2.2l-2.2-2.2
		h-3c0,0,0.5,2.1,0,2.1s-6.8,0-6.8,0c-1.4-1.4-4.6-4.6-4.6-4.6s-5.3-1.8-5.3,0s0.7,1.8,0,1.8c-0.7,0-4.2,2.6-4.2,0
		c0-2.6,0-6.4,0-6.4h-6.1h-1.9v10.7h-3.1v10h-3.3V366h-4h-3.8v-4h-13v-7.6h-3.5v2.4c0,0-8.7,0-7.5,0c1.2,0,0-3.6,0-3.6h-5.2
		c0,0-0.2,22.4,0,22.4s0-1.7,0-1.7h-2.6v-9.1h-3.8v3.1h-12v-26H8.9c0,0-0.4-8.5,0-8.8c0.4-0.4-2.4,0-2.4,0l-2,2H0v47.8V433h224.6
		h215.4v-64.2h-12.2l-2-2v-8.2h-6l-1.4,1.4v7.4l-0.8-0.8v-12H413V365h-18.4v-7.6h-7.5v8.3h-4.9v3.1h-4.2H372h-8.5h-5.2
		c0,0,0-4.3,0-4.5c0-0.2-2.8,0-2.8,0l-2.2,2.3v-2.3h-3.2v4.5h-2.4c0,0-0.2,1.4-1.4,1.4c-1.2,0-5.2,0-5.2,0h-6.4c0,0,0.9,3.3,0,3.3
		c-0.9,0-7.1,0-7.1,0v-8.1h-4.5l-2.9-3l-2.8-2.9v-6.3H312v-5.7H303v6h-4.2v16l-2.2-2.3H287v-24.7v-5h-12.2l0.5,1H272.4z"/>
	<g>
		<linearGradient id="SVGID_15_" gradientUnits="userSpaceOnUse" x1="421.3494" y1="280.2637" x2="421.3494" y2="405.2978">
			<stop  offset="0" style="stop-color:#707274"/>
			<stop  offset="1" style="stop-color:#231F20"/>
		</linearGradient>
		<path class="st27" d="M0,389.2h841.9c0,0,1.8-5.9,0-7.7l-22.8-9.8l-1.7-22.6l-10.7,4.9v25.3c-1.7-0.3-3.4-0.6-5.1-0.8v-29.4
			l-10.8,11l0.1,17.4c-7-0.4-14.3-0.2-23.4,0.3v-28.6h-25.5v-12.2h-14.6v43.9h1.2c-17.8,1.5-37.8,2.8-56,3.5v-62h-14.6v62.4
			c-7.8,0.1-15,0.1-21.2-0.2h11.5v-46.3l-14.6,7.3v38.8c-11.3-0.7-18.7-2.3-19.5-5.1c0-0.1-0.1-0.2-0.1-0.4v-29.7h-31.4v7.3h-18.7
			v14.2c-0.7,0-1.4-0.1-2.1-0.1v-50.6H547v50h0v-31.8l-14.6,7.3v24.1c-2.4-0.1-4.9-0.1-7.3-0.1v-49.5h-14.6v49.3
			c-52.4-0.5-109.6,1-132.4,2c-2.4,0.1-4.9,0.2-7.6,0.4v-51.7h-14.6v52.8c-2.4,0.2-4.8,0.4-7.3,0.6v-27.8l-14.6-7.3v36.3
			c0,0,0,0,0,0v-54.6h-14.6v55.9c-0.7,0.1-1.4,0.1-2.1,0.2v-19.6h-18.7v-7.3h-31.4v31.4c-2.1,0.2-4.2,0.3-6.2,0.5v-19.7h-13.4v-15.8
			l-14.6-7.3v44.8c-3.5,0.2-6.8,0.3-9.8,0.4v-61h-14.6v60.6c-1.3-0.2-2.4-0.4-3.2-0.6c-1.4-0.5-2.8-1.1-4.1-1.7v-80.2l-14.6,20.7
			v48.8c-3-2.5-5.7-4.7-8.5-5.9v-7.5h-14.6v11.8c-1.9,1.7-4.3,3.3-9.7,4.4v-35.7h-14.6v12.2h-25.5v11h-12.2v10
			c-3.9-1-7.7-2-11.1-2.7l0-7.3l-10.8-11v16.8c-1.9,0-3.6,0.1-5.1,0.5V354l-10.7-4.9v23.1H0V389.2z"/>
		<linearGradient id="SVGID_16_" gradientUnits="userSpaceOnUse" x1="687.0933" y1="280.2638" x2="687.0933" y2="405.2974">
			<stop  offset="0" style="stop-color:#707274"/>
			<stop  offset="1" style="stop-color:#231F20"/>
		</linearGradient>
		<polygon class="st28" points="694.4,321.1 679.8,300.3 679.8,380.8 694.4,380.8 		"/>
		<linearGradient id="SVGID_17_" gradientUnits="userSpaceOnUse" x1="710.2475" y1="280.2651" x2="710.2475" y2="405.2974">
			<stop  offset="0" style="stop-color:#707274"/>
			<stop  offset="1" style="stop-color:#231F20"/>
		</linearGradient>
		<rect x="702.9" y="356.4" class="st29" width="14.6" height="24.4"/>
	</g>
	<g>
		
			<linearGradient id="SVGID_18_" gradientUnits="userSpaceOnUse" x1="1488.0311" y1="304.168" x2="1488.0311" y2="401.7577" gradientTransform="matrix(-1 0 0 1 2514 0)">
			<stop  offset="0" style="stop-color:#707274"/>
			<stop  offset="1" style="stop-color:#231F20"/>
		</linearGradient>
		<path class="st30" d="M792.7,389.2c0,0-1.8-5.9,0-7.7l22.8-9.8l1.7-22.6L828,354v25.3c1.7-0.3,3.4-0.6,5.1-0.8v-29.4l10.8,11
			l-0.1,17.4c7-0.4,14.3-0.2,23.4,0.3v-28.6l25.5-12.2l0.3,43.9c17.8,1.5,50.9,2.8,69.2,3.5v-62h14.6v62.4c7.8,0.1,15,0.1,21.2-0.2
			h-11.5v-46.3l14.6,7.3v38.8c11.3-0.7,18.7-2.3,19.5-5.1c0-0.1,0.1-0.2,0.1-0.4v-29.7h31.4v7.3h18.7v14.2c0.7,0,1.4-0.1,2.1-0.1
			v-50.6h14.6v50h0v-31.8l14.6,7.3v24.1c2.4-0.1,4.9-0.1,7.3-0.1v-49.5h14.6v49.3c52.4-0.5,135.8,2.1,135.8,2.1V385L792.7,389.2z"/>
		
			<linearGradient id="SVGID_19_" gradientUnits="userSpaceOnUse" x1="1589.6115" y1="270.4598" x2="1589.6115" y2="411.5962" gradientTransform="matrix(-1 0 0 1 2514 0)">
			<stop  offset="0" style="stop-color:#707274"/>
			<stop  offset="1" style="stop-color:#231F20"/>
		</linearGradient>
		<rect x="917.1" y="356.4" class="st31" width="14.6" height="27.5"/>
		
			<linearGradient id="SVGID_20_" gradientUnits="userSpaceOnUse" x1="1565.1113" y1="249.5678" x2="1565.1113" y2="416.696" gradientTransform="matrix(-1 0 0 1 2514 0)">
			<stop  offset="0" style="stop-color:#707274"/>
			<stop  offset="1" style="stop-color:#231F20"/>
		</linearGradient>
		<rect x="941.6" y="351.3" class="st32" width="14.6" height="32.6"/>
	</g>
	<path class="st33" d="M1260,384.7v448.4H0V386c26.7-4,91.1,7.4,220,0.8c76-3.9,121.2,2.6,201.4-2
		C584.2,375.3,956.2,383.7,1260,384.7z"/>
</g>
<g id="clouds">
	<g class="st34">
		
			<image style="overflow:visible;" width="1993" height="691" xlink:href="5548D315B5F4A2E0.png"  transform="matrix(0.24 0 0 0.24 385.1693 155.2673)">
		</image>
	</g>
	<g class="st35">
		
			<image style="overflow:visible;" width="1253" height="1029" xlink:href="5548D315B5F4A2E1.png"  transform="matrix(0.24 0 0 0.24 -1.2307 23.4673)">
		</image>
	</g>
	<g class="st34">
		
			<image style="overflow:visible;" width="777" height="713" xlink:href="5548D315B5F4A2E7.png"  transform="matrix(0.24 0 0 0.24 791.2493 75.5873)">
		</image>
	</g>
	<g class="st35">
		
			<image style="overflow:visible;" width="1174" height="684" xlink:href="5548D315B5F4A2E2.png"  transform="matrix(0.24 0 0 0.24 958.7693 18.1073)">
		</image>
	</g>
	<g class="st35">
		
			<image style="overflow:visible;" width="1774" height="629" xlink:href="5548D315B5F4A2E3.png"  transform="matrix(0.24 0 0 0.24 254.4962 22.6337)">
		</image>
	</g>
	<g>
		<path class="st36" d="M1228.2,163.1c0,0-49.9,12.1-56.1,40.5c0,0-19.6-34.3-43.6-37c0,0,17.8-9.3,41.8,14.7
			C1170.3,181.3,1182.3,161.7,1228.2,163.1z"/>
		<path class="st36" d="M1248.7,11.9c0,0-36,8.7-40.5,29.3c0,0-14.2-24.7-31.6-26.7c0,0,12.9-6.7,30.2,10.6
			C1206.9,25.1,1215.6,10.9,1248.7,11.9z"/>
		<path class="st36" d="M1088.5,103c0,0-19.3,4.7-21.7,15.7c0,0-7.6-13.3-16.9-14.3c0,0,6.9-3.6,16.2,5.7
			C1066.1,110,1070.7,102.5,1088.5,103z"/>
	</g>
</g>
<g id="path">
	<rect x="903.1" y="550.6" class="st37" width="357.5" height="236.9"/>
	<g>
		<path class="st38" d="M1240,632.8c-9.4-93.4-371.3-78.8-1032-114c-75-4-107.5-31.9-45.1-61.4c120.3-57,1127.3-24.2,950.5-73.4
			c109.8,44.9-849.7-22.8-1002.1,41.1C16.1,465.1-4.9,572.7,66,604.2c192.4,85.6,834.6,40.6,834.6,82.6c0,70.3-804.6-18-813.2,137.7
			l861.5,13.7C1231,820.2,1243,662.8,1240,632.8z"/>
	</g>
</g>
<g id="solar">
	<g>
		<g>
			<g>
				<polygon class="st39" points="152.8,390.4 152.8,377.8 159.1,377.8 159.1,390.4 167.3,390.4 167.3,393 144.6,393 144.6,390.4 
									"/>
			</g>
			<g>
				<polygon class="st40" points="152.8,390.4 152.8,377.8 154.2,377.8 154.2,393 144.6,393 144.6,390.4 				"/>
			</g>
			<g>
				<polygon class="st39" points="167.5,357.8 185.4,375.7 141.2,375.7 123.4,357.8 				"/>
			</g>
			<g>
				<polygon class="st41" points="153.8,375.7 153.8,377.8 141.2,377.8 132.8,369.4 132.8,367.3 145.4,367.3 				"/>
			</g>
			<g>
				<polygon class="st41" points="136,357.8 143.3,365.2 130.7,365.2 130.7,367.3 123.4,359.9 123.4,357.8 				"/>
			</g>
			<g>
				<polyline class="st42" points="141.2,375.7 123.4,357.8 123.4,359.9 141.2,377.8 141.2,375.7 				"/>
			</g>
			<g>
				<polygon class="st41" points="146.5,365.2 139.1,357.8 151.7,357.8 159.1,365.2 				"/>
			</g>
			<g>
				<polygon class="st41" points="161.2,367.3 169.6,375.7 169.6,377.8 157,377.8 157,375.7 148.6,367.3 				"/>
			</g>
			<g>
				<polygon class="st41" points="154.9,357.8 167.5,357.8 174.8,365.2 162.2,365.2 				"/>
			</g>
			<g>
				<polygon class="st41" points="176.9,367.3 185.4,375.7 185.4,377.8 172.7,377.8 172.7,375.7 164.3,367.3 				"/>
			</g>
			<g>
				
					<rect x="141.2" y="375.7" transform="matrix(-1 -4.489665e-11 4.489665e-11 -1 326.5847 753.4385)" class="st42" width="44.1" height="2.1"/>
			</g>
		</g>
	</g>
	<g>
		<g>
			<g>
				<polygon class="st39" points="89.4,390.4 89.4,377.8 95.7,377.8 95.7,390.4 103.9,390.4 103.9,393 81.1,393 81.1,390.4 				"/>
			</g>
			<g>
				<polygon class="st40" points="89.4,390.4 89.4,377.8 90.8,377.8 90.8,393 81.1,393 81.1,390.4 				"/>
			</g>
			<g>
				<polygon class="st39" points="104.1,357.8 121.9,375.7 77.8,375.7 60,357.8 				"/>
			</g>
			<g>
				<polygon class="st41" points="90.4,375.7 90.4,377.8 77.8,377.8 69.4,369.4 69.4,367.3 82,367.3 				"/>
			</g>
			<g>
				<polygon class="st41" points="72.6,357.8 79.9,365.2 67.3,365.2 67.3,367.3 60,359.9 60,357.8 				"/>
			</g>
			<g>
				<polyline class="st42" points="77.8,375.7 60,357.8 60,359.9 77.8,377.8 77.8,375.7 				"/>
			</g>
			<g>
				<polygon class="st41" points="83.1,365.2 75.7,357.8 88.3,357.8 95.7,365.2 				"/>
			</g>
			<g>
				<polygon class="st41" points="97.8,367.3 106.2,375.7 106.2,377.8 93.6,377.8 93.6,375.7 85.2,367.3 				"/>
			</g>
			<g>
				<polygon class="st41" points="91.5,357.8 104.1,357.8 111.4,365.2 98.8,365.2 				"/>
			</g>
			<g>
				<polygon class="st41" points="113.5,367.3 121.9,375.7 121.9,377.8 109.3,377.8 109.3,375.7 100.9,367.3 				"/>
			</g>
			<g>
				
					<rect x="77.8" y="375.7" transform="matrix(-1 -4.489665e-11 4.489665e-11 -1 199.7423 753.4385)" class="st42" width="44.1" height="2.1"/>
			</g>
		</g>
	</g>
	<g>
		<g>
			<g>
				<polygon class="st39" points="27.7,390.4 27.7,377.8 34,377.8 34,390.4 42.3,390.4 42.3,393 19.5,393 19.5,390.4 				"/>
			</g>
			<g>
				<polygon class="st40" points="27.7,390.4 27.7,377.8 29.2,377.8 29.2,393 19.5,393 19.5,390.4 				"/>
			</g>
			<g>
				<polygon class="st39" points="42.4,357.8 60.3,375.7 16.2,375.7 -1.7,357.8 				"/>
			</g>
			<g>
				<polygon class="st41" points="28.8,375.7 28.8,377.8 16.2,377.8 7.8,369.4 7.8,367.3 20.4,367.3 				"/>
			</g>
			<g>
				<polygon class="st41" points="10.9,357.8 18.3,365.2 5.7,365.2 5.7,367.3 -1.7,359.9 -1.7,357.8 				"/>
			</g>
			<g>
				<polyline class="st42" points="16.2,375.7 -1.7,357.8 -1.7,359.9 16.2,377.8 16.2,375.7 				"/>
			</g>
			<g>
				<polygon class="st41" points="21.4,365.2 14.1,357.8 26.7,357.8 34,365.2 				"/>
			</g>
			<g>
				<polygon class="st41" points="36.1,367.3 44.5,375.7 44.5,377.8 31.9,377.8 31.9,375.7 23.5,367.3 				"/>
			</g>
			<g>
				<polygon class="st41" points="29.8,357.8 42.4,357.8 49.8,365.2 37.2,365.2 				"/>
			</g>
			<g>
				<polygon class="st41" points="51.9,367.3 60.3,375.7 60.3,377.8 47.7,377.8 47.7,375.7 39.3,367.3 				"/>
			</g>
			<g>
				
					<rect x="16.2" y="375.7" transform="matrix(-1 -4.489665e-11 4.489665e-11 -1 76.4926 753.4385)" class="st42" width="44.1" height="2.1"/>
			</g>
		</g>
	</g>
	<g>
		<g>
			<g>
				<polygon class="st39" points="50.5,438.3 50.5,422.7 58.3,422.7 58.3,438.3 68.5,438.3 68.5,441.6 40.3,441.6 40.3,438.3 				
					"/>
			</g>
			<g>
				<polygon class="st40" points="50.5,438.3 50.5,422.7 52.2,422.7 52.2,441.6 40.3,441.6 40.3,438.3 				"/>
			</g>
			<g>
				<polygon class="st39" points="68.7,397.9 90.8,420.1 36.2,420.1 14,397.9 				"/>
			</g>
			<g>
				<polygon class="st41" points="51.8,420.1 51.8,422.7 36.2,422.7 25.8,412.2 25.8,409.6 41.4,409.6 				"/>
			</g>
			<g>
				<polygon class="st41" points="29.7,397.9 38.8,407 23.1,407 23.1,409.6 14,400.5 14,397.9 				"/>
			</g>
			<g>
				<polyline class="st42" points="36.2,420.1 14,397.9 14,400.5 36.2,422.7 36.2,420.1 				"/>
			</g>
			<g>
				<polygon class="st41" points="42.7,407 33.6,397.9 49.2,397.9 58.3,407 				"/>
			</g>
			<g>
				<polygon class="st41" points="60.9,409.6 71.3,420.1 71.3,422.7 55.7,422.7 55.7,420.1 45.3,409.6 				"/>
			</g>
			<g>
				<polygon class="st41" points="53.1,397.9 68.7,397.9 77.8,407 62.2,407 				"/>
			</g>
			<g>
				<polygon class="st41" points="80.4,409.6 90.8,420.1 90.8,422.7 75.2,422.7 75.2,420.1 64.8,409.6 				"/>
			</g>
			<g>
				
					<rect x="36.2" y="420.1" transform="matrix(-1 -4.488644e-11 4.488644e-11 -1 126.9345 842.7054)" class="st42" width="54.6" height="2.6"/>
			</g>
		</g>
	</g>
</g>
<g id="Layer_4">
	<g>
		
			<rect x="1160.6" y="293.8" transform="matrix(0.8663 -0.4995 0.4995 0.8663 8.1411 620.5035)" class="st39" width="5.1" height="2.5"/>
		<polygon class="st39" points="1165.9,294.7 1166.9,292.8 1171.5,295.6 1170.5,297.5 		"/>
		<g>
			<g>
				<polygon class="st39" points="1164.8,292.7 1159.8,406.8 1166.2,406.8 1166.2,292.7 				"/>
			</g>
			<g>
				<polygon class="st43" points="1167,292.7 1166.2,292.7 1166.2,406.8 1172.1,406.8 				"/>
			</g>
			<g>
				<rect x="1164.7" y="287.7" class="st39" width="2.5" height="5.1"/>
			</g>
			<g>
				<circle class="st44" cx="1165.9" cy="293.5" r="4.4"/>
			</g>
			<g>
				<circle class="st45" cx="1165.9" cy="293.5" r="2.5"/>
			</g>
			<g>
				<g>
					<path class="st46" d="M1164.8,287.7L1164.8,287.7l3.2-28.2l-6.7,23.5C1160.7,285.3,1162.4,287.7,1164.8,287.7z"/>
				</g>
				<g>
					<path class="st39" d="M1168.1,259.5l-3.2,28.2h2.7c1.1,0,2-0.9,2-2v-26.1H1168.1z"/>
				</g>
			</g>
			<g>
				<g>
					<path class="st39" d="M1161.7,297.3l-0.2-0.4l-26,11.3l23.9-5.6C1161.8,302,1162.9,299.4,1161.7,297.3z"/>
				</g>
				<g>
					<path class="st46" d="M1135.5,308.2l26-11.3l-1.3-2.3c-0.6-1-1.8-1.3-2.8-0.7l-22.6,13.1L1135.5,308.2z"/>
				</g>
			</g>
			<g>
				<g>
					<path class="st46" d="M1171.7,295.2l-0.2,0.4l22.8,16.9l-16.7-17.9C1175.9,292.8,1173,293.2,1171.7,295.2z"/>
				</g>
				<g>
					<path class="st39" d="M1194.3,312.6l-22.8-16.9l-1.3,2.3c-0.6,1-0.2,2.2,0.7,2.8l22.6,13.1L1194.3,312.6z"/>
				</g>
			</g>
		</g>
	</g>
	<g>
		
			<rect x="1211.6" y="338.7" transform="matrix(0.8663 -0.4995 0.4995 0.8663 -7.5516 652.3182)" class="st39" width="6.4" height="3.1"/>
		<polygon class="st39" points="1218.2,339.8 1219.5,337.5 1225.3,341 1224,343.3 		"/>
		<g>
			<g>
				<polygon class="st39" points="1216.9,337.3 1210.6,480.4 1218.6,480.4 1218.6,337.3 				"/>
			</g>
			<g>
				<polygon class="st43" points="1219.6,337.3 1218.6,337.3 1218.6,480.4 1226,480.4 				"/>
			</g>
			<g>
				<rect x="1216.7" y="331" class="st39" width="3.1" height="6.4"/>
			</g>
			<g>
				<circle class="st44" cx="1218.2" cy="338.3" r="5.6"/>
			</g>
			<g>
				<circle class="st45" cx="1218.2" cy="338.3" r="3.1"/>
			</g>
			<g>
				<g>
					<path class="st46" d="M1216.9,331L1216.9,331l4.1-35.3l-8.5,29.5C1211.6,328.1,1213.8,331,1216.9,331z"/>
				</g>
				<g>
					<path class="st39" d="M1220.9,295.7l-4.1,35.3h3.3c1.4,0,2.6-1.1,2.6-2.6v-32.8H1220.9z"/>
				</g>
			</g>
			<g>
				<g>
					<path class="st39" d="M1212.9,343l-0.3-0.4l-32.6,14.1l30-7C1213,349,1214.4,345.7,1212.9,343z"/>
				</g>
				<g>
					<path class="st46" d="M1180.1,356.7l32.6-14.1l-1.7-2.9c-0.7-1.2-2.3-1.6-3.5-0.9l-28.4,16.4L1180.1,356.7z"/>
				</g>
			</g>
			<g>
				<g>
					<path class="st46" d="M1225.5,340.5l-0.3,0.5l28.6,21.2l-21-22.5C1230.7,337.5,1227.1,337.9,1225.5,340.5z"/>
				</g>
				<g>
					<path class="st39" d="M1253.8,362.2l-28.6-21.2l-1.7,2.9c-0.7,1.2-0.3,2.8,0.9,3.5l28.4,16.4L1253.8,362.2z"/>
				</g>
			</g>
		</g>
	</g>
	<g>
		<polygon class="st39" points="1074.5,236.8 1077.7,242.5 1066.1,249.2 1062.8,243.5 		"/>
		<polygon class="st39" points="1077.7,242 1080.3,237.1 1092.5,244.5 1089.8,249.4 		"/>
		<g>
			<g>
				<polygon class="st39" points="1074.8,236.8 1061.4,538.9 1078.4,538.9 1078.4,236.8 				"/>
			</g>
			<g>
				<polygon class="st43" points="1080.6,236.8 1078.4,236.8 1078.4,538.9 1094,538.9 				"/>
			</g>
			<g>
				<rect x="1074.4" y="223.4" class="st39" width="6.5" height="13.4"/>
			</g>
			<g>
				<path class="st44" d="M1089.4,238.8c0,6.5-5.3,11.7-11.7,11.7c-6.5,0-11.7-5.3-11.7-11.7c0-6.5,5.2-11.7,11.7-11.7
					C1084.1,227.1,1089.4,232.3,1089.4,238.8z"/>
			</g>
			<g>
				<circle class="st45" cx="1077.7" cy="238.8" r="6.5"/>
			</g>
			<g>
				<g>
					<path class="st46" d="M1074.8,223.4L1074.8,223.4l8.6-74.6l-17.8,62.3C1063.7,217.3,1068.4,223.4,1074.8,223.4z"/>
				</g>
				<g>
					<path class="st39" d="M1083.3,148.8l-8.6,74.6h7c3,0,5.4-2.4,5.4-5.4v-69.2H1083.3z"/>
				</g>
			</g>
			<g>
				<g>
					<path class="st39" d="M1066.5,248.8l-0.5-0.9l-68.9,29.8l63.2-14.8C1066.5,261.5,1069.6,254.4,1066.5,248.8z"/>
				</g>
				<g>
					<path class="st46" d="M997.1,277.7l68.9-29.8l-3.5-6.1c-1.5-2.6-4.8-3.5-7.4-2l-59.9,34.6L997.1,277.7z"/>
				</g>
			</g>
			<g>
				<g>
					<path class="st46" d="M1093,243.5l-0.6,1.1l60.3,44.7l-44.3-47.5C1104,237.2,1096.3,238,1093,243.5z"/>
				</g>
				<g>
					<path class="st39" d="M1152.7,289.4l-60.3-44.7l-3.5,6.1c-1.5,2.6-0.6,5.9,2,7.4l59.9,34.6L1152.7,289.4z"/>
				</g>
			</g>
		</g>
	</g>
	<g>
		<polygon class="st39" points="111.2,301 115.6,308.7 99.7,317.9 95.3,310.2 		"/>
		<polygon class="st39" points="115.5,308 119.2,301.4 135.8,311.5 132.2,318.2 		"/>
		<g>
			<g>
				<polygon class="st39" points="111.6,301 93.4,713.7 116.5,713.7 116.5,301 				"/>
			</g>
			<g>
				<polygon class="st43" points="119.5,301 116.5,301 116.5,713.7 137.9,713.7 				"/>
			</g>
			<g>
				<rect x="111.1" y="282.7" class="st39" width="8.9" height="18.4"/>
			</g>
			<g>
				<path class="st44" d="M131.6,303.7c0,8.8-7.2,16-16,16c-8.8,0-16-7.2-16-16c0-8.8,7.2-16,16-16
					C124.4,287.7,131.6,294.9,131.6,303.7z"/>
			</g>
			<g>
				<path class="st45" d="M124.5,303.7c0,4.9-4,8.9-8.9,8.9c-4.9,0-8.9-4-8.9-8.9c0-4.9,4-8.9,8.9-8.9
					C120.5,294.8,124.5,298.8,124.5,303.7z"/>
			</g>
			<g>
				<g>
					<path class="st46" d="M111.6,282.7L111.6,282.7l11.7-101.9l-24.4,85.1C96.5,274.3,102.8,282.7,111.6,282.7z"/>
				</g>
				<g>
					<path class="st39" d="M123.3,180.8l-11.7,101.9h9.6c4.1,0,7.4-3.3,7.4-7.4v-94.5H123.3z"/>
				</g>
			</g>
			<g>
				<g>
					<path class="st39" d="M100.3,317.4l-0.7-1.3L5.4,356.9l86.4-20.2C100.4,334.7,104.6,325.1,100.3,317.4z"/>
				</g>
				<g>
					<path class="st46" d="M5.4,356.9l94.1-40.8l-4.8-8.3c-2-3.5-6.6-4.7-10.1-2.7L2.8,352.3L5.4,356.9z"/>
				</g>
			</g>
			<g>
				<g>
					<path class="st46" d="M136.5,310.2l-0.9,1.5l82.4,61.1l-60.5-64.9C151.5,301.4,141,302.6,136.5,310.2z"/>
				</g>
				<g>
					<path class="st39" d="M218,372.8l-82.4-61.1l-4.8,8.3c-2,3.5-0.8,8.1,2.7,10.1l81.8,47.3L218,372.8z"/>
				</g>
			</g>
		</g>
	</g>
</g>
<g id="grass">
	<path class="st47" d="M1221.7,550.6c0-0.4,0.1-0.8,0.1-1.3c0-9.8-7.9-17.7-17.7-17.7c0,0,0,0-0.1,0c-0.7-16.8-14.5-30.3-31.5-30.3
		c-1.9,0-3.7,0.2-5.5,0.5c-8-15.3-24-25.7-42.5-25.7c-20.6,0-38.2,13-45,31.3c-2.6-0.6-5.2-1-8-1c-18.1,0-32.8,14.7-32.8,32.8
		c0,4,0.8,7.8,2.1,11.4H1221.7z"/>
	<g>
		<g>
			<polygon class="st47" points="7.6,719.1 66.7,719.1 66.7,450.7 			"/>
		</g>
		<g>
			<polygon class="st48" points="67.8,445.6 66.7,450.7 66.7,719.1 128,719.1 			"/>
		</g>
		<g>
			<rect x="59.9" y="719.1" class="st49" width="15.9" height="43.5"/>
		</g>
	</g>
	<g>
		<g>
			<polygon class="st47" points="242.7,472.4 282.6,472.4 282.6,290.6 			"/>
		</g>
		<g>
			<polygon class="st48" points="283.4,287.1 282.6,290.6 282.6,472.4 324.2,472.4 			"/>
		</g>
		<g>
			<rect x="278" y="472.4" class="st49" width="10.8" height="29.4"/>
		</g>
	</g>
	<g>
		<g>
			<polygon class="st47" points="1136.7,444.8 1152.4,444.8 1152.4,373.7 			"/>
		</g>
		<g>
			<polygon class="st48" points="1152.7,372.3 1152.4,373.7 1152.4,444.8 1168.6,444.8 			"/>
		</g>
		<g>
			<rect x="1150.6" y="444.8" class="st49" width="4.2" height="11.5"/>
		</g>
	</g>
</g>
<g id="ev">
	<g>
		<path class="st50" d="M1060.6,490.9c0,4.3,3.5,7.8,7.8,7.8h161.2c4.3,0,7.8-3.5,7.8-7.8v0L1060.6,490.9L1060.6,490.9z"/>
		<path class="st50" d="M1229.7,467.4h-161.2c-4.3,0-7.8,3.5-7.8,7.8h176.9C1237.5,470.9,1234,467.4,1229.7,467.4z"/>
	</g>
	<g>
		<rect x="1071.1" y="478.9" class="st51" width="14.6" height="67.5"/>
		<rect x="1141.7" y="478.9" class="st51" width="14.6" height="67.5"/>
		<rect x="1212.4" y="478.9" class="st51" width="14.6" height="67.5"/>
		<g>
			<circle class="st52" cx="1074.7" cy="483.1" r="1.7"/>
			<circle class="st52" cx="1082.1" cy="483.1" r="1.7"/>
		</g>
		<g>
			<circle class="st52" cx="1216" cy="483.1" r="1.7"/>
			<circle class="st52" cx="1223.4" cy="483.1" r="1.7"/>
		</g>
		<path class="st53" d="M1092.4,554.2h-28.1c-0.2,0-0.3-0.1-0.3-0.3v-5.7c0-1,0.8-1.9,1.9-1.9h25c1,0,1.9,0.8,1.9,1.9v5.7
			C1092.8,554.1,1092.6,554.2,1092.4,554.2z"/>
		<path class="st53" d="M1162.5,554.2h-26.8c-0.5,0-1-0.4-1-1v-4.4c0-1.4,1.1-2.5,2.5-2.5h23.7c1.4,0,2.5,1.1,2.5,2.5v4.4
			C1163.4,553.8,1163,554.2,1162.5,554.2z"/>
		<path class="st53" d="M1233.7,554.2h-28c-0.2,0-0.4-0.2-0.4-0.4v-5.6c0-1.1,0.9-1.9,1.9-1.9h24.9c1.1,0,1.9,0.9,1.9,1.9v5.6
			C1234.1,554.1,1233.9,554.2,1233.7,554.2z"/>
	</g>
	<path class="st54" d="M1236.6,487.3C1236.6,487.2,1236.6,487.2,1236.6,487.3c-0.2-0.3-0.3-0.6-0.5-0.8c0-0.1-0.1-0.1-0.1-0.2
		c-0.2-0.2-0.3-0.4-0.5-0.6c0-0.1-0.1-0.1-0.1-0.2c-0.2-0.2-0.5-0.5-0.7-0.7c0,0,0,0,0,0c-0.2-0.2-0.5-0.4-0.7-0.5
		c-0.1,0-0.1-0.1-0.2-0.1c-0.2-0.1-0.5-0.3-0.7-0.4c-0.1,0-0.1-0.1-0.2-0.1c-0.3-0.1-0.6-0.2-0.9-0.3c-0.1,0-0.1,0-0.2-0.1
		c-0.2-0.1-0.5-0.1-0.8-0.2c-0.1,0-0.2,0-0.3,0c-0.3,0-0.7-0.1-1-0.1c0.3,0,0.7,0,1-0.1c0.1,0,0.2,0,0.3,0c0.3,0,0.5-0.1,0.8-0.2
		c0.1,0,0.1,0,0.2-0.1c0.3-0.1,0.6-0.2,0.9-0.3c0.1,0,0.1-0.1,0.2-0.1c0.2-0.1,0.5-0.2,0.7-0.4c0.1,0,0.1-0.1,0.2-0.1
		c0.3-0.2,0.5-0.3,0.7-0.5c0,0,0,0,0,0c0.2-0.2,0.5-0.4,0.7-0.7c0-0.1,0.1-0.1,0.1-0.2c0.2-0.2,0.3-0.4,0.5-0.6
		c0-0.1,0.1-0.1,0.1-0.2c0.2-0.3,0.4-0.5,0.5-0.8c0,0,0,0,0,0h0c0.6-1.1,0.9-2.3,0.9-3.7h-176.9c0,1.3,0.3,2.6,0.9,3.7h0
		c0,0,0,0,0,0c0.2,0.3,0.3,0.6,0.5,0.8c0,0.1,0.1,0.1,0.1,0.2c0.2,0.2,0.3,0.4,0.5,0.6c0,0.1,0.1,0.1,0.1,0.2
		c0.2,0.2,0.5,0.5,0.7,0.7c0,0,0,0,0,0c0.2,0.2,0.5,0.4,0.7,0.5c0.1,0,0.1,0.1,0.2,0.1c0.2,0.1,0.5,0.3,0.7,0.4
		c0.1,0,0.1,0.1,0.2,0.1c0.3,0.1,0.6,0.2,0.9,0.3c0.1,0,0.1,0,0.2,0.1c0.2,0.1,0.5,0.1,0.8,0.2c0.1,0,0.2,0,0.3,0
		c0.3,0,0.7,0.1,1,0.1c-0.3,0-0.7,0-1,0.1c-0.1,0-0.2,0-0.3,0c-0.3,0-0.5,0.1-0.8,0.2c-0.1,0-0.1,0-0.2,0.1
		c-0.3,0.1-0.6,0.2-0.9,0.3c-0.1,0-0.1,0.1-0.2,0.1c-0.2,0.1-0.5,0.2-0.7,0.4c-0.1,0-0.1,0.1-0.2,0.1c-0.3,0.2-0.5,0.3-0.7,0.5
		c0,0,0,0,0,0c-0.2,0.2-0.5,0.4-0.7,0.7c0,0.1-0.1,0.1-0.1,0.2c-0.2,0.2-0.3,0.4-0.5,0.6c0,0.1-0.1,0.1-0.1,0.2
		c-0.2,0.3-0.4,0.5-0.5,0.8c0,0,0,0,0,0h0c-0.6,1.1-0.9,2.3-0.9,3.7h176.9C1237.5,489.6,1237.2,488.3,1236.6,487.3L1236.6,487.3z"/>
	<g>
		<circle class="st55" cx="1145.4" cy="491.9" r="1.7"/>
		<circle class="st55" cx="1152.8" cy="491.9" r="1.7"/>
	</g>
	<g>
		<circle class="st55" cx="1145.4" cy="474.2" r="1.7"/>
		<circle class="st55" cx="1152.8" cy="474.2" r="1.7"/>
	</g>
	<g>
		<circle class="st55" cx="1074.7" cy="491.9" r="1.7"/>
		<circle class="st55" cx="1082.1" cy="491.9" r="1.7"/>
	</g>
	<g>
		<circle class="st55" cx="1074.7" cy="474.2" r="1.7"/>
		<circle class="st55" cx="1082.1" cy="474.2" r="1.7"/>
	</g>
	<g>
		<circle class="st55" cx="1216" cy="491.9" r="1.7"/>
		<circle class="st55" cx="1223.4" cy="491.9" r="1.7"/>
	</g>
	<g>
		<circle class="st55" cx="1216" cy="474.2" r="1.7"/>
		<circle class="st55" cx="1223.4" cy="474.2" r="1.7"/>
	</g>
	<text transform="matrix(1 0 0 1 1074.6897 487.2673)" class="st53 st56 st57 st58">EV CHARGING POINT</text>
	<path class="st59" d="M1210.6,718.6c0,0-7.2,37.4,33.8,28.5c13.7,0,3.4-64,3.4-64v48.2l2.2-46l1.3,43.7l2.2-46v48.2"/>
	<g>
		<g>
			<g>
				<path class="st60" d="M1237.6,758.4h-54.1V653.6c0-2.2,1.7-3.9,3.9-3.9h46.3c2.2,0,3.9,1.7,3.9,3.9V758.4z"/>
				<path class="st61" d="M1187.4,649.7c-2.2,0-3.9,1.7-3.9,3.9v104.9h26.5V649.7H1187.4z"/>
			</g>
			<path class="st61" d="M1242,769.3h-62.9v-6.5c0-2.4,2-4.4,4.4-4.4h54.2c2.4,0,4.4,2,4.4,4.4V769.3z"/>
			<rect x="1179.1" y="764" class="st62" width="62.9" height="5.3"/>
		</g>
	</g>
	<g>
		<path class="st61" d="M1255.9,668.1L1255.9,668.1c-1.2,0-2.2,1-2.2,2.2v12.8c0,1.2-1,2.2-2.2,2.2h-1.3c-1.2,0-2.2-1-2.2-2.2v-12.8
			c0-1.2-1-2.2-2.2-2.2h-5.8c-1.2,0-2.2,1-2.2,2.2v70.4c0,1.2,1,2.2,2.2,2.2h5.8c1.2,0,2.2-1,2.2-2.2v-9.4c0-1.2,1-2.2,2.2-2.2h1.3
			c1.2,0,2.2,1,2.2,2.2v9.4c0,1.2,1,2.2,2.2,2.2l0,0c1.2,0,2.2-1,2.2-2.2v-70.4C1258.1,669.1,1257.1,668.1,1255.9,668.1z"/>
	</g>
	<path class="st59" d="M1244.4,747c13.7,0,3.4-64,3.4-64v48.2l2.2-46l1.3,43.7l2.2-46v48.2"/>
	<g>
		<g>
			<g>
				<path class="st60" d="M1237.6,568.4h-54.1V463.5c0-2.2,1.7-3.9,3.9-3.9h46.3c2.2,0,3.9,1.7,3.9,3.9V568.4z"/>
				<path class="st61" d="M1187.4,459.6c-2.2,0-3.9,1.7-3.9,3.9v104.9h26.5V459.6H1187.4z"/>
			</g>
			<path class="st61" d="M1242,579.2h-62.9v-6.5c0-2.4,2-4.4,4.4-4.4h54.2c2.4,0,4.4,2,4.4,4.4V579.2z"/>
			<rect x="1179.1" y="574" class="st62" width="62.9" height="5.3"/>
		</g>
	</g>
	<g>
		<path class="st61" d="M1255.9,478L1255.9,478c-1.2,0-2.2,1-2.2,2.2V493c0,1.2-1,2.2-2.2,2.2h-1.3c-1.2,0-2.2-1-2.2-2.2v-12.8
			c0-1.2-1-2.2-2.2-2.2h-5.8c-1.2,0-2.2,1-2.2,2.2v70.4c0,1.2,1,2.2,2.2,2.2h5.8c1.2,0,2.2-1,2.2-2.2v-9.4c0-1.2,1-2.2,2.2-2.2h1.3
			c1.2,0,2.2,1,2.2,2.2v9.4c0,1.2,1,2.2,2.2,2.2l0,0c1.2,0,2.2-1,2.2-2.2v-70.4C1258.1,479,1257.1,478,1255.9,478z"/>
	</g>
	<path class="st59" d="M1210.6,528.5c0,0-7.2,37.4,33.8,28.5c13.7,0,3.4-64,3.4-64v48.2l2.2-46l1.3,43.7l2.2-46v48.2"/>
	<g>
		<path class="st63" d="M1200.1,500.2l-0.9,14.9c0,0,0,0,0,0l6.1,12.3c0,0,0,0,0,0v8.1c0,0.1,0,0.1,0.1,0.1h9.8c0.1,0,0.1,0,0.1-0.1
			v-8.1c0,0,0,0,0,0l6.6-12.2c0,0,0,0,0,0l-0.9-14.3c0-0.1-0.1-0.1-0.1-0.1c-6.5,1.9-13.4,2.1-20.6-0.6
			C1200.2,500.1,1200.1,500.1,1200.1,500.2z"/>
		<path class="st64" d="M1221,500.6l-0.5-7.9c0,0,0-0.1-0.1-0.1l-19.7,0.1c0,0-0.1,0-0.1,0.1l-0.4,7.2c0,0,0,0.1,0,0.1
			C1207.5,504.7,1214.4,504.4,1221,500.6C1221,500.7,1221,500.7,1221,500.6z"/>
	</g>
	<circle class="st65" cx="1210.6" cy="491.3" r="13.6"/>
	<g>
		<path class="st66" d="M1217,492.6c4.9-4.9-5.3-14.1-8.9-10.4"/>
	</g>
	<g>
		<path class="st67" d="M1203.3,498.6l0.3,1.7c0,0.2,0.2,0.3,0.5,0.3h1.7c0.2,0,0.4-0.1,0.5-0.3l0.2-1.3c0-0.1,0-0.1-0.1-0.1
			C1205.3,498.9,1204.4,498.8,1203.3,498.6C1203.4,498.6,1203.4,498.6,1203.3,498.6z"/>
	</g>
	<g>
		<path class="st67" d="M1214.9,499c-0.1,0-0.1,0.1-0.1,0.1l0.2,1.3c0,0.2,0.2,0.3,0.5,0.3h1.7c0.2,0,0.4-0.1,0.5-0.3l0.3-1.7
			c0,0,0,0-0.1,0C1216.8,498.8,1215.8,498.9,1214.9,499z"/>
	</g>
	<g>
		<g>
			<path class="st67" d="M1218.9,492.3l-0.4-0.1c-0.1,0-0.2,0-0.3,0l-1,0.4c0,0-0.1,0-0.1,0l-1.8-2.2c-0.2-0.2-0.5-0.4-0.7-0.4h-3.8
				h-3.8c-0.3,0-0.6,0.1-0.7,0.4l-1.8,2.2c0,0-0.1,0-0.1,0l-1-0.4c-0.1,0-0.2,0-0.3,0l-0.4,0.1c0,0-0.1,0-0.1,0.1
				c-0.2,0.2-0.2,0.5,0,0.6l0.4,0.3c0.1,0.1,0.2,0.1,0.3,0.1h0.2c0.1,0,0.1,0.1,0.1,0.1c-0.2,0.5-0.8,2.2-0.6,4.3
				c0,0.4,0.3,0.7,0.7,0.7c0,0,0,0,0.1,0c1,0.1,2,0.3,3,0.3c2.8,0.2,5.6,0.2,8.4,0c1-0.1,2-0.2,3-0.3c0,0,0,0,0.1,0
				c0.4-0.1,0.6-0.4,0.7-0.7c0.3-2.2-0.4-3.9-0.6-4.3c0-0.1,0-0.1,0.1-0.1h0.2c0.1,0,0.2,0,0.3-0.1l0.4-0.3c0.2-0.2,0.3-0.5,0-0.6
				C1218.9,492.3,1218.9,492.3,1218.9,492.3z M1206,492.6l0.9-1.1c0.2-0.2,0.4-0.3,0.6-0.3h3.1h3.1c0.2,0,0.5,0.1,0.6,0.3l0.9,1.1
				c0,0.1,0,0.2-0.1,0.2h-9.1C1206,492.8,1205.9,492.7,1206,492.6z"/>
		</g>
	</g>
	<g>
		<path class="st68" d="M1209,483.1l-1.7-1.8c-0.3-0.4-2.7,1.3-3.1,1.6l-0.3,0.2c0,0-0.1,0-0.1,0l0,0c-0.1-0.1-0.3-0.1-0.4,0
			l-0.7,0.6c-0.1,0.1-0.1,0.3,0,0.4l0.4,0.4c0,0,0,0.1,0,0.1l-0.8,0.7c-0.1,0.1-0.1,0.2,0,0.2l0.2,0.2c0.1,0.1,0.2,0.1,0.2,0
			l0.8-0.7c0,0,0.1,0,0.1,0l1.2,1.3c0,0,0,0.1,0,0.1l-0.8,0.7c-0.1,0.1-0.1,0.2,0,0.2l0.2,0.2c0.1,0.1,0.2,0.1,0.2,0l0.8-0.7
			c0,0,0.1,0,0.1,0l0.4,0.4c0.1,0.1,0.3,0.1,0.4,0l0.7-0.6c0.1-0.1,0.1-0.3,0-0.4l0,0c0,0,0-0.1,0-0.1l0.3-0.2
			C1207.5,485.7,1209.3,483.5,1209,483.1z"/>
	</g>
</g>
</svg>
