<svg id="Layer_1" data-name="Layer 1" xmlns="http://www.w3.org/2000/svg" xmlns:xlink="http://www.w3.org/1999/xlink" viewBox="0 0 311.54 1337.03"><defs><style>.cls-1{fill:#848484;}.cls-2{fill:#1d535f;}.cls-3{fill:url(#linear-gradient);}.cls-4,.cls-8{fill:none;stroke-miterlimit:10;}.cls-4{stroke:#f37139;stroke-width:15px;}.cls-5{fill:#efa500;}.cls-6{fill:#ce8a02;}.cls-7{fill:#3b56a3;}.cls-8{stroke:#f27139;stroke-width:2px;}.cls-9{fill:#88c348;}.cls-10{fill:#f27139;}</style><linearGradient id="linear-gradient" x1="120.44" y1="1043.67" x2="120.44" y2="1314.05" gradientTransform="matrix(1, 0, 0, -1, 0, 1321.96)" gradientUnits="userSpaceOnUse"><stop offset="0.1" stop-color="#fff33b"/><stop offset="0.22" stop-color="#fef45e" stop-opacity="0.87"/><stop offset="0.37" stop-color="#fef682" stop-opacity="0.74"/><stop offset="0.52" stop-color="#fef79d" stop-opacity="0.63"/><stop offset="0.68" stop-color="#fdf7b1" stop-opacity="0.56"/><stop offset="0.83" stop-color="#fdf8bd" stop-opacity="0.51"/><stop offset="1" stop-color="#fdf8c1" stop-opacity="0.5"/></linearGradient></defs><title>lamp8</title><g id="lamppost_and_chargwr" data-name="lamppost and chargwr"><path class="cls-1" d="M300,920.34h0a11.55,11.55,0,0,0-11.55,11.55v65.85a11.55,11.55,0,0,1-11.55,11.55h-6.84a11.55,11.55,0,0,1-11.53-11.56V931.88A11.55,11.55,0,0,0,247,920.34H217.05a11.55,11.55,0,0,0-11.51,11.54V1295a11.55,11.55,0,0,0,11.55,11.55H247A11.55,11.55,0,0,0,258.54,1295v-48.7a11.55,11.55,0,0,1,11.55-11.55h6.84a11.55,11.55,0,0,1,11.55,11.55h0V1295A11.55,11.55,0,0,0,300,1306.52h0A11.55,11.55,0,0,0,311.54,1295V931.88A11.55,11.55,0,0,0,300,920.34Z"/><path class="cls-2" d="M146.64,805.83c.33-1.31,1.08-2.45,1.08-3.71V292.58c0-10.33-12.19-18.82-27.27-18.82s-27.19,8.5-27.19,18.82l1,513.24c0,1.26-.33-1.31,0,0L0,913.82v413.67H240.9V913.86Z"/><polygon class="cls-3" points="4.18 0 44.73 292.58 196.16 292.58 236.7 0 4.18 0"/><path class="cls-4" d="M120.15,1053.86s-27.39,307.4,120.75,271.67c70.66,0,17.64-329.8,17.64-329.8v248.54l11.55-237,6.84,225.45,11.55-237v248.54"/><path class="cls-5" d="M66.54,964.19l-4.62,77.45L93.64,1105v42.5h51.24V1105l34-63.4-4.75-74.23C140.46,977.15,104.54,978.34,66.54,964.19Z"/><path class="cls-6" d="M174.17,967.4l-2.63-41.56-102.66.43-2.34,37.92C104.32,988.25,140.22,986.53,174.17,967.4Z"/><circle class="cls-7" cx="120.44" cy="919.09" r="69.96"/><path class="cls-8" d="M153.43,925.42c25.31-25.31-27.18-72.56-45.89-53.85"/><path class="cls-9" d="M83,956.58l1.32,8.93a2.38,2.38,0,0,0,2.45,1.69h8.61a2.38,2.38,0,0,0,2.45-1.69l1-7.1q-7.76-.65-15.52-1.76Z"/><path class="cls-9" d="M142,958.41l1,7.1a2.38,2.38,0,0,0,2.45,1.69H154a2.38,2.38,0,0,0,2.45-1.69l1.32-8.93-.37.07Q149.74,957.76,142,958.41Z"/><path class="cls-9" d="M163,924.12l-2.28-.79a2.23,2.23,0,0,0-1.48,0l-5.84,2.09-9.61-11.9a4.45,4.45,0,0,0-3.46-1.65H100.54a4.46,4.46,0,0,0-3.47,1.66l-9.61,11.89-5.85-2.08a2.22,2.22,0,0,0-1.48,0l-2.27.79a2.24,2.24,0,0,0-1.5,2.11,1.51,1.51,0,0,0,.65,1.24l2.7,1.88a2.23,2.23,0,0,0,1.27.4h1.85a45.46,45.46,0,0,0-3.23,23,4.45,4.45,0,0,0,3.4,3.81l.37.07q7.76,1.11,15.52,1.76a258.77,258.77,0,0,0,43.08,0q7.76-.65,15.52-1.76l.37-.07a4.46,4.46,0,0,0,3.4-3.81,45.46,45.46,0,0,0-3.23-23h1.86a2.22,2.22,0,0,0,1.27-.4l2.7-1.87a1.52,1.52,0,0,0,.66-1.25A2.23,2.23,0,0,0,163,924.12ZM96,926.43l5.19-6.43a3.68,3.68,0,0,1,2.86-1.37h32.87a3.67,3.67,0,0,1,2.85,1.36l5.2,6.43Z"/><path class="cls-10" d="M103.62,867.34h0a4.71,4.71,0,0,0-6.64-.29L85.92,877.14l-.77-.84a.91.91,0,0,0-1.28-.06L79.76,880a.91.91,0,0,0-.06,1.28L82.2,884l-4.74,4.32a.41.41,0,0,0,0,.57l1.69,1.85a.41.41,0,0,0,.57,0l4.71-4.32,7,7.63-4.71,4.32a.41.41,0,0,0,0,.57l1.69,1.85a.41.41,0,0,0,.57,0l4.75-4.36,2.5,2.73a.91.91,0,0,0,1.28.06l4.11-3.77a.91.91,0,0,0,.06-1.28l-.77-.84,1.69-1.55A17.46,17.46,0,0,0,103.62,867.34Z"/></g></svg>