<svg id="board_6" data-name="board 6" xmlns="http://www.w3.org/2000/svg" viewBox="0 0 312.43 312.43"><defs><style>.cls-1{fill:#f37139;}.cls-2{fill:none;stroke:#f37139;stroke-miterlimit:10;stroke-width:12px;}</style></defs><title>lhb</title><path class="cls-1" d="M277.71,191.31a3.48,3.48,0,0,0-3.51-3.43l-39,.44-.73-64.73,39-.44a3.48,3.48,0,0,0,3.43-3.51l-.15-13.8a3.48,3.48,0,0,0-3.51-3.43l-39.39.44-.24-21.08a7.76,7.76,0,0,0-7.82-7.65L195,74.47a7.76,7.76,0,0,0-7.65,7.82l.06,5.05-14.35.16c-15.94.18-108.71,14.27-108.53,30.21l.9,80.29c.18,15.94,93.24,27.94,109.19,27.76L189,225.6l.06,5.05a7.76,7.76,0,0,0,7.82,7.65l30.75-.35a7.76,7.76,0,0,0,7.65-7.82L235,209.06l39.39-.44a3.48,3.48,0,0,0,3.43-3.51Z"/><line class="cls-2" x1="19.69" y1="156.22" x2="163.22" y2="156.22"/></svg>