<?xml version="1.0" encoding="utf-8"?>
<!-- Generator: Adobe Illustrator 21.0.0, SVG Export Plug-In . SVG Version: 6.00 Build 0)  -->
<svg version="1.1" id="Layer_1" xmlns="http://www.w3.org/2000/svg" xmlns:xlink="http://www.w3.org/1999/xlink" x="0px" y="0px"
	 width="2500px" height="1400px" viewBox="0 0 2500 1400" enable-background="new 0 0 2500 1400" xml:space="preserve">
<g>
	<linearGradient id="XMLID_2_" gradientUnits="userSpaceOnUse" x1="1250" y1="1072.8578" x2="1250" y2="187.1436">
		<stop  offset="0" style="stop-color:#FFFFFF"/>
		<stop  offset="0.1452" style="stop-color:#CFE3F3"/>
		<stop  offset="0.3814" style="stop-color:#86B9E1"/>
		<stop  offset="0.5935" style="stop-color:#4C98D2"/>
		<stop  offset="0.7738" style="stop-color:#2380C8"/>
		<stop  offset="0.9151" style="stop-color:#0971C1"/>
		<stop  offset="1" style="stop-color:#006CBF"/>
	</linearGradient>
	<rect id="XMLID_1963_" fill="url(#XMLID_2_)" width="2500" height="1400"/>
	<g>
		<polygon fill="#455063" points="2372.3,1034.1 2372.3,810.2 2362.7,810.2 2362.7,838.5 2334.5,838.5 2334.5,827.9 2327.6,827.9 
			2327.6,820.2 2305.6,820.2 2305.6,838.5 2294.9,838.5 2294.9,820.6 2278.4,820.6 2278.4,833.7 2273.2,833.7 2273.2,838.5 
			2263.6,838.5 2263.6,641 2240.9,641 2240.9,615.5 2193.8,615.5 2193.8,636.5 2185.2,636.5 2185.2,612 2137.3,612 2137.3,539.7 
			1950.2,539.7 1950.2,661.7 1924.7,661.7 1924.7,709.6 1875.2,709.6 1875.2,526.9 1866.2,526.9 1866.2,518.3 1861.1,518.3 
			1861.1,483.8 1838.7,483.8 1838.7,504.8 1838.7,517.9 1830.4,517.9 1830.4,534.8 1760.6,534.8 1752.7,534.8 1752.7,517.6 
			1708.3,517.6 1708.3,677.9 1693.2,677.9 1693.2,637.2 1675.6,637.2 1675.6,623.1 1651.5,623.1 1651.5,636.9 1638.1,636.9 
			1638.1,658.6 1615.7,658.6 1615.7,631.7 1482.9,631.7 1372.1,631.7 1372.1,610.3 1314.7,610.3 1314.7,549.7 1282.7,549.7 
			1282.7,627.2 1267.5,627.2 1267.5,701.3 1260.3,701.3 1260.3,723.4 1254.8,723.4 1254.8,773.4 1218.7,773.4 1218.7,718.5 
			1218.7,518.3 1098.6,518.3 1098.6,601.4 1076.2,601.4 1076.2,729.2 1070.1,729.2 1070.1,652.7 1038.7,652.7 1038.7,731.3 
			1029.5,731.3 1029.5,410.1 927.6,410.1 927.6,635.8 914.5,635.8 914.5,569.6 858.8,569.6 858.8,741.3 824.7,741.3 824.7,706.8 
			806.8,706.8 806.8,720.3 753.5,720.3 753.5,536.9 676.1,536.9 676.1,240.8 650.6,240.8 650.6,222.2 621.1,222.2 618,49.2 
			614.9,222.2 614.5,222.2 585.3,222.2 585.3,238.1 562.6,238.1 562.6,669.6 463.8,669.6 463.8,696.5 402.6,696.5 402.6,557.6 
			398.4,557.6 398.4,550 367.8,524.1 335.1,548.3 335.1,556.2 329.6,556.2 329.6,567.6 318.6,567.6 318.6,742.7 281.5,742.7 
			239.5,742.7 239.5,662.7 232.6,662.7 232.6,651.7 223.3,651.7 223.3,631.3 162.4,631.3 162.4,652 156.9,652 156.9,660.6 
			146.9,660.6 146.9,710.3 137,710.3 137,791.6 127.7,791.6 127.7,827.9 127.7,1034.1 		"/>
		<path fill="#556077" d="M2458.3,1034.1V914.9h-18.2v-27h-104.7c0,0,1.3,25.5,0,24.2c-1.3-1.3-135.9,0-135.9,0v-70.4h-79.2V657.2
			h-36.4v-20.9h-60v18.4H1987v162.8h-7.8v-23.1h-23.9V585.6h9.2v-14.8h-175.9v13.6h7.2c0,0,0,113,0,114.4c0,1.4-42.2,0-42.2,0v-17.3
			H1715v17h-22.5v79.9H1658v-85.7v-177h-4.7v-13.9h-152.5v212.4h-42v-96.3h-54.7v139.4h-13.3V695h-5.8v-7h-6.4v-8.9l-8.9-14.2v-15
			h-7.8v14.5l-9.4,13.6v9.5h-5.8v5.6h-8.1v62.1h-13.9v15h-12.8v16.4h-5.8v-76.8h-17.5V724h-7.8v50.1h-11.4v109.7h-8.6v-52.6H1250
			V788h-6.8v-86h-4.4v-23.1h-31.9v7.5h-10.6v-13.9h-24.4v6.4h-3.9v-14.5h-11.7v15h-34.7v69h-6.4v11.1h-35.8v115.2h-13.9V740.7h-73.1
			v39h-3.9v-12.5h-8.1v-9.7H974v-52.6h-7.8v-17.8h-33.1v-12.8h-6.9v-27h-6.1v-5.6h-5.6v-16.7h-20.3v16.7H886v37.9h-19.2V786h-19.7
			v82.4h-4.2V734h-23.3v17h-2.8v-5.3h-3.3v-4.5h-10.3v3.9h-2.8v4.7h-1.9v8.1h-10.3c0,0,0,92.7,0,94.1c0,1.4-18.6,0-18.6,0V688.9
			h-18.3v-14.2l-36.7-13.6h-11.7v54h-17.8v-16.7h-38.6v72.1h-11.7v-8.3h-28.6v91.8h-2.8V710.9h-5v-14.8h-6.1v-10.9h-6.4v-8.6h-20.8
			v9.2h-6.9v8.6h-6.9v14.8h-6.9v146.4h-8.6V746.5h-7.8v-96.9h-6.7v-9.7h-6.7v-9.2l-13.1-17.6h-43.6l-15,14.8v10.9H437v9.2h-10.3
			v95.2H419v101.6h-5.3v-99.1h-30.3V626.3h-10.3v-13.2h-10.1c-4.1-16-18.6-27.7-35.8-27.7c-17.2,0-31.7,11.8-35.8,27.7h-1.6h-7.4
			v12.1h-13.7v203h-18.2h-26.7v-78.7H95.8v120.7H41.7v46.7v117.3H2458.3z"/>
		<polygon fill="#454956" points="2500,1034.1 2500,1002.9 2294.2,1002.9 2294.2,979.5 2187.7,979.5 2187.7,963.8 2060.1,963.8 
			2060.1,949.9 1887.3,949.9 1887.3,995.6 1781.9,995.6 1781.9,982.6 1732.8,982.6 1732.8,975.7 1707.9,975.7 1707.9,981.4 
			1701.8,981.4 1701.8,730 1673.8,730 1673.8,712.7 1637.4,712.7 1637.4,728.8 1583.4,728.8 1583.4,672.4 1561.7,672.4 
			1561.7,656.8 1511.5,656.8 1511.5,673.3 1483.2,673.3 1483.2,700.4 1426.7,700.4 1426.7,913.1 1328.7,913.1 1316.9,924.6 
			1316.9,989.7 1053.6,989.7 1053.6,980.8 1032,980.8 1022.8,974.5 967,974.5 956.1,980.8 857.4,980.8 857.4,962.4 845.3,954.9 
			829.8,954.9 829.8,927.9 806.8,927.9 806.8,957 802.2,957 802.2,928.2 786.9,928.2 786.9,960.9 710.8,960.9 710.8,950.7 
			705.3,938.6 698.6,950.1 698.6,965.3 685.9,965.3 685.9,973.5 672.7,973.5 672.7,898.5 607,898.5 607,922.3 594,922.3 594,894.8 
			575.4,894.8 575.4,963.2 527.5,963.2 527.5,921.3 516.6,921.3 516.6,851.7 438.2,851.7 438.2,863.9 434,863.9 434,874.1 
			419.8,874.1 419.8,947.2 379.6,947.2 379.6,917.7 302.7,917.7 302.7,908.5 279.7,908.5 279.7,916.5 270.9,916.5 270.9,832.3 
			249.8,832.3 249.8,809.8 242.6,809.8 242.6,797.7 238.8,797.7 238.8,787.4 229.3,787.4 229.3,797.7 225.9,797.7 225.9,809.5 
			220.1,809.5 220.1,817.9 218.1,817.9 218.1,825.9 204.6,825.9 204.6,809.5 189.4,809.5 189.4,821.6 160.1,821.6 160.1,878 
			143.4,878 143.4,888.1 138.2,888.1 138.2,969 0,969 0,971 0,1026.3 0,1034.1 		"/>
	</g>
	<g>
		<g>
			<polygon points="250.7,537 258.7,537 261.3,526.8 250.7,526.8 			"/>
			<path fill="#565454" d="M84.9,529.9c1.4,4.3,4.9,5.7,6.8,5.7h12.9c2.1,0,19.1,4.5,24.8,4.5h127.9c1.7,0,2.7-0.1,3.4-1.5
				c0.8-1.5,0.8-3.1-0.2-3.1h-4.4c-1.4,0-0.4-3.4,0.4-4.7c0.8-1.3,2.8-1.6,4.3-1.8c1.4-0.2,2-0.9,1-6.4c-0.1-0.4-0.2-0.8-0.3-1.3
				c-0.5-2.5-2-4.4-4-6c-0.4-0.3-0.8-0.6-1.2-0.8c-3.4-2.2-8.1-3.7-13.1-5.3c-4.5-1.5-11.1-2.2-16.9-2.8c-0.8-0.1-1.6-0.1-2.4-0.2
				c-4.7-0.4-8.7-0.7-10.2-1.1c-3.6-1-15.5-9.7-24.6-14.8c-9.1-5.1-17.4-4.6-21-4.6c0,0-18,0-21.9,0c-3.9,0-12.3,0.1-16.7,1.9
				c-4.4,1.7-22.8,10.7-25.1,11.3c-2.2,0.6-7.9,0.5-12.4,0.5c-2.8,0-3.8,1.1-4.2,2.4c-0.2,0.8-0.3,1.5-0.4,2.2
				c-0.1,0.4-0.2,1.5-0.4,2.9c-0.2,1.3,0,2.9-0.1,4.5c-0.1,0.9-0.5,1.6-0.6,2.4c-0.1,0.6-0.1,1.1-0.2,1.6c-0.2,1.6-0.3,3-0.3,3.5
				c0,2-1.7,2.2-2,3C83.7,522.5,83.5,525.6,84.9,529.9z"/>
			<path opacity="0.79" fill="#BCBCBC" d="M86.1,515.2h7.3c1.6,0,2.9-1.3,2.9-2.9v-7.8c0-1.6-1.3-2.9-2.9-2.9h-5.6
				c-0.2,0.8-0.3,1.5-0.4,2.2c-0.1,0.4-0.2,1.5-0.4,2.9c-0.2,1.3,0,2.9-0.1,4.5c-0.1,0.9-0.5,1.6-0.6,2.4
				C86.2,514.1,86.2,514.7,86.1,515.2z"/>
			<path opacity="0.46" fill="#BCBCBC" d="M83.8,524.9c0.1,1.4,0.4,3.1,1.1,5c0.3,1,0.8,1.9,1.3,2.6c1.7,2.3,4.1,3.1,5.5,3.1h12.9
				c2.1,0,19.1,4.5,24.8,4.5h127.9c1.7,0,2.7-0.1,3.4-1.5c0.8-1.5,0.8-3.1-0.2-3.1h-4.4c-0.9,0-0.8-1.6-0.3-3
				c0.2-0.7,0.5-1.3,0.7-1.7c0.8-1.3,2.8-1.6,4.3-1.8c1.1-0.2,1.8-0.7,1.4-4.1H83.8z"/>
			<g>
				<path fill="#BDBDBD" d="M121.7,504.1c-0.9,1.2-1.3,3.8-0.7,5.5c0.4,1.3,2.5,3.3,5.3,6c1,0.9,2,2,3.2,3.1
					c3.8,3.8,6,10.1,6.9,12.7c0.2,0.5,0.3,0.9,0.4,1.1c0.7,1.6,1.5,2,2.5,2h27.5c0-15.4-1.7-27.4-1.7-27.5l0.3,0
					c0,0.1,1.7,12.1,1.7,27.5h40.6c0.8,0,1.4-0.6,1.5-1.1c0.2-0.7,1.5-10.1,1.8-15.1c0.3-4.9-0.2-6.4-2.9-8.8
					c-2.6-2.4-12.6-8.4-12.7-8.5l0.2-0.3c0.1,0.1,10.1,6.1,12.8,8.5c2.8,2.5,3.3,4.1,3,9.1c-0.3,5-1.6,14.5-1.8,15.2
					c-0.2,0.7-0.9,1.4-1.8,1.4h-68.4c-1.3,0-2.2-0.6-2.8-2.2c-0.1-0.3-0.2-0.6-0.4-1.1c-0.9-2.6-3-8.8-6.8-12.6
					c-1.1-1.1-2.2-2.2-3.2-3.1c-2.9-2.8-5-4.8-5.4-6.2c-0.6-1.8-0.2-4.6,0.8-5.8L121.7,504.1z"/>
				<path fill="#BDBDBD" d="M101,509.7c0,1.7,1.3,3,3,3c1.7,0,3-1.3,3-3c0-1.7-1.3-3-3-3C102.3,506.7,101,508,101,509.7z
					 M101.3,509.7c0-1.5,1.2-2.7,2.7-2.7c1.5,0,2.7,1.2,2.7,2.7c0,1.5-1.2,2.7-2.7,2.7C102.5,512.4,101.3,511.2,101.3,509.7z"/>
			</g>
			<path fill="#1C1C1C" d="M124.6,508h74.6c2,0,2.8-1.3,2.7-2.2c-0.1-0.9-8.7-7.7-14.5-11.1c-0.6-0.4-1.3-0.7-1.9-1.1v0h0
				c-3.7-1.9-7.7-3.3-10.7-4c-0.7-0.2-1.4-0.3-2-0.4c-0.6-0.1-1.1-0.1-1.6-0.1h-27.7c-6.4,0-21.7,8.1-24,11.5
				C117.8,502.8,122.8,508,124.6,508z"/>
			<path fill="#565454" d="M169.6,508c-2.6,0-5.2,0-7.8,0l-2.3-19c1.5,0,2.9,0,4.2,0L169.6,508z"/>
			<g>
				<path fill="#1C1C1C" d="M213.7,505c-1.5,0.4-2.7,0.8-3.5,0.8c-1.5,0-2.8-0.4-3.3-0.8c-0.5-0.4-17.9-12.5-19.5-13.6
					c-1.6-1-0.8-2.1,0-2.1c0,0,0.1,0,0.2,0c0.5,0.3,1,0.5,1.5,0.8C198.1,495.3,210,504,213.7,505L213.7,505z"/>
				<path fill="#1C1C1C" d="M129.2,487.6c0.3,0.3,0.2,0.8-0.4,1.3c-1.1,0.8-15.5,7.9-17.2,8.8c-1.6,0.8-3.7,0.9-6.4,0.9
					C109.3,496.9,124.7,489.4,129.2,487.6z"/>
			</g>
			<path opacity="0.77" fill="#BCBCBC" d="M245.2,518.8c2.5,1.9,6.9,3,10.7,3.5c2.5,0.3,4.6,0.6,5.8,0.3c-0.1-0.4-0.2-0.8-0.3-1.3
				c-0.5-2.5-2-4.4-4-6c-0.4-0.3-0.8-0.6-1.2-0.8c-0.4-0.2-0.7-0.4-1-0.5c-2.4-1-9.3-2-12.3-2.5
				C237.7,510.6,242.7,516.9,245.2,518.8z"/>
			<path fill="#FFFFFF" d="M243.2,512.8c2.3,0.3,7.6,1.1,9.4,1.9c1.8,0.8,6.2,4.8,5.9,5.9c-0.3,1.1-2.5,0.8-5.4,0.5
				c-2.9-0.3-6.3-1.2-8.2-2.6C243,516.9,239.2,512.1,243.2,512.8z"/>
			<path fill="#FFA41F" d="M244.9,518.3c-1.9-1.5-5.7-6.2-1.7-5.6c0.7,0.1,1.6,0.2,2.6,0.4c1.5,1.1,5,4,6.1,7.7
				C249.2,520.4,246.5,519.6,244.9,518.3z"/>
			<path fill="#FFFFFF" d="M94.8,505.5v5.9c0,1.2-1,2.2-2.2,2.2h-6.1c0.2-2.3,0.2-4.9,0.5-6.9c0.2-1.4,0.3-2.4,0.4-2.9
				c0-0.2,0-0.3,0.1-0.5h5.2C93.9,503.3,94.8,504.3,94.8,505.5z"/>
			<path fill="#FFA41F" d="M94.8,511.4c0,1.2-1,2.2-2.2,2.2h-6.4c0.2-2.3,0.5-4.9,0.8-6.9h7.8V511.4z"/>
			<path opacity="0.46" fill="#BCBCBC" d="M86.2,532.5c1.7,2.3,4.1,3.1,5.5,3.1h12.9c2.1,0,19.1,4.5,24.8,4.5h127.9
				c1.7,0,2.7-0.1,3.4-1.5c0.8-1.5,0.8-3.1-0.2-3.1h-4.4c-0.9,0-0.8-1.6-0.3-3H86.2z"/>
			<path d="M102.8,533.5c0-8.4,6.8-15.2,15.2-15.2s15.2,6.8,15.2,15.2v6.6c-2,0-3.2,0-3.7,0c-5.7,0-22.7-4.5-24.8-4.5
				c-0.4,0-1,0-1.7,0V533.5z"/>
			<path opacity="0.77" fill="#BCBCBC" d="M212.2,534.3v5.7h36.1v-5.7c0-10-8.1-18.1-18.1-18.1C220.3,516.3,212.2,524.4,212.2,534.3
				z"/>
			<path opacity="0.77" fill="#BCBCBC" d="M99.9,534.3v1.3h4.7c2.1,0,19.1,4.5,24.8,4.5h6.6v-5.7c0-10-8.1-18.1-18.1-18.1
				C108,516.3,99.9,524.4,99.9,534.3z"/>
			<path d="M215.1,533.5c0-8.4,6.8-15.2,15.2-15.2c8.4,0,15.2,6.8,15.2,15.2v6.6c-7.7,0-18.4,0-30.3,0V533.5z"/>
			<g>
				<path fill="#231F20" d="M230.3,541.7c-4.4,0-7.9-3.5-7.9-7.9c0-4.4,3.5-7.9,7.9-7.9c4.4,0,7.9,3.5,7.9,7.9
					C238.2,538.1,234.6,541.7,230.3,541.7z"/>
				<g>
					<path fill="#9E9E9E" d="M222.1,535.4c0.2,1,0.6,1.9,1.1,2.7l1.1-0.6l4.2-2.2c0.3,0.4,0.7,0.7,1.2,0.8l-0.6,4.6l-0.2,1.2
						c0.5,0.1,0.9,0.1,1.4,0.1c0.5,0,1,0,1.5-0.1l-0.1-1.2l-0.4-4.6c0.5-0.1,0.9-0.4,1.2-0.8l3.9,2.1l1.1,0.6c0.5-0.8,0.8-1.7,1-2.7
						l-1.2-0.3l-4.2-1.1c0-0.1,0-0.1,0-0.2c0-0.6-0.2-1.2-0.6-1.6l2.7-3.5l0.7-1c-0.7-0.6-1.5-1.2-2.4-1.5l-0.5,1.1l-1.8,4
						c-0.2-0.1-0.4-0.1-0.7-0.1c-0.3,0-0.6,0.1-0.9,0.2l-2.2-4l-0.6-1.1c-0.9,0.4-1.7,1-2.4,1.6l0.8,0.9l3.1,3.5
						c-0.3,0.4-0.4,0.9-0.4,1.4c0,0.1,0,0.1,0,0.2l-4.6,1.2L222.1,535.4z"/>
				</g>
				<path fill="#E6E7E8" d="M223.3,535.1c0.2,0.9,0.5,1.7,1,2.4l4.2-2.2c0.3,0.4,0.7,0.7,1.2,0.8l-0.6,4.6c0.4,0.1,0.8,0.1,1.2,0.1
					c0.5,0,0.9,0,1.4-0.1l-0.4-4.6c0.5-0.1,0.9-0.4,1.2-0.8l3.9,2.1c0.4-0.7,0.8-1.5,0.9-2.4l-4.2-1.1c0-0.1,0-0.1,0-0.2
					c0-0.6-0.2-1.2-0.6-1.6l2.7-3.5c-0.6-0.6-1.4-1.1-2.2-1.4l-1.8,4c-0.2-0.1-0.4-0.1-0.7-0.1c-0.3,0-0.6,0.1-0.9,0.2l-2.2-4
					c-0.8,0.4-1.5,0.9-2.2,1.5l3.1,3.5c-0.3,0.4-0.4,0.9-0.4,1.4c0,0.1,0,0.1,0,0.2L223.3,535.1z"/>
				<circle opacity="0.46" fill="#BCBCBC" cx="230.4" cy="533.7" r="1.7"/>
				<g>
					<g>
						<circle fill="#333333" cx="230.4" cy="532.4" r="0.5"/>
						<circle fill="#333333" cx="230.4" cy="535" r="0.5"/>
					</g>
					<g>
						<circle fill="#333333" cx="231.7" cy="533.7" r="0.5"/>
						<circle fill="#333333" cx="229.1" cy="533.7" r="0.5"/>
					</g>
				</g>
				<g>
					<path fill="#333333" d="M217,533.8c0,7.3,6,13.3,13.3,13.3c7.3,0,13.3-6,13.3-13.3c0-7.3-6-13.3-13.3-13.3
						C222.9,520.5,217,526.4,217,533.8z M221.8,533.8c0-4.7,3.8-8.5,8.5-8.5c4.7,0,8.5,3.8,8.5,8.5c0,4.7-3.8,8.5-8.5,8.5
						C225.6,542.3,221.8,538.5,221.8,533.8z"/>
				</g>
				<g opacity="0.67">
					<path fill="#BCBCBC" d="M220,533.8c0,5.7,4.6,10.3,10.3,10.3c5.7,0,10.3-4.6,10.3-10.3c0-5.7-4.6-10.3-10.3-10.3
						C224.6,523.5,220,528.1,220,533.8z M221.8,533.8c0-4.7,3.8-8.5,8.5-8.5c4.7,0,8.5,3.8,8.5,8.5c0,4.7-3.8,8.5-8.5,8.5
						C225.6,542.3,221.8,538.5,221.8,533.8z"/>
				</g>
				<path fill="#D1D3D4" d="M221,533.8c0,5.1,4.2,9.3,9.3,9.3c5.1,0,9.3-4.2,9.3-9.3c0-5.1-4.2-9.3-9.3-9.3
					C225.1,524.4,221,528.6,221,533.8z M222.4,533.8c0-4.4,3.5-7.9,7.9-7.9c4.4,0,7.9,3.5,7.9,7.9c0,4.4-3.5,7.9-7.9,7.9
					C225.9,541.7,222.4,538.1,222.4,533.8z"/>
				<path opacity="0.46" fill="#BCBCBC" d="M221.7,533.8c0,4.8,3.9,8.6,8.6,8.6c4.8,0,8.6-3.9,8.6-8.6s-3.9-8.6-8.6-8.6
					C225.5,525.1,221.7,529,221.7,533.8z M222.4,533.8c0-4.4,3.5-7.9,7.9-7.9c4.4,0,7.9,3.5,7.9,7.9c0,4.4-3.5,7.9-7.9,7.9
					C225.9,541.7,222.4,538.1,222.4,533.8z"/>
			</g>
			<g>
				<path fill="#231F20" d="M117.9,541.7c-4.4,0-7.9-3.5-7.9-7.9c0-4.4,3.5-7.9,7.9-7.9c4.4,0,7.9,3.5,7.9,7.9
					C125.8,538.1,122.3,541.7,117.9,541.7z"/>
				<g>
					<path fill="#9E9E9E" d="M109.8,535.4c0.2,1,0.6,1.9,1.1,2.7l1.1-0.6l4.2-2.2c0.3,0.4,0.7,0.7,1.2,0.8l-0.6,4.6l-0.2,1.2
						c0.5,0.1,0.9,0.1,1.4,0.1c0.5,0,1,0,1.5-0.1l-0.1-1.2l-0.4-4.6c0.5-0.1,0.9-0.4,1.2-0.8l3.9,2.1l1.1,0.6c0.5-0.8,0.8-1.7,1-2.7
						l-1.2-0.3l-4.2-1.1c0-0.1,0-0.1,0-0.2c0-0.6-0.2-1.2-0.6-1.6l2.7-3.5l0.7-1c-0.7-0.6-1.5-1.2-2.4-1.5l-0.5,1.1l-1.8,4
						c-0.2-0.1-0.4-0.1-0.7-0.1c-0.3,0-0.6,0.1-0.9,0.2l-2.2-4l-0.6-1.1c-0.9,0.4-1.7,1-2.4,1.6l0.8,0.9l3.1,3.5
						c-0.3,0.4-0.4,0.9-0.4,1.4c0,0.1,0,0.1,0,0.2l-4.6,1.2L109.8,535.4z"/>
				</g>
				<path fill="#E6E7E8" d="M111,535.1c0.2,0.9,0.5,1.7,1,2.4l4.2-2.2c0.3,0.4,0.7,0.7,1.2,0.8l-0.6,4.6c0.4,0.1,0.8,0.1,1.2,0.1
					c0.5,0,0.9,0,1.4-0.1l-0.4-4.6c0.5-0.1,0.9-0.4,1.2-0.8l3.9,2.1c0.4-0.7,0.8-1.5,0.9-2.4l-4.2-1.1c0-0.1,0-0.1,0-0.2
					c0-0.6-0.2-1.2-0.6-1.6l2.7-3.5c-0.6-0.6-1.4-1.1-2.2-1.4l-1.8,4c-0.2-0.1-0.4-0.1-0.7-0.1c-0.3,0-0.6,0.1-0.9,0.2l-2.2-4
					c-0.8,0.4-1.5,0.9-2.2,1.5l3.1,3.5c-0.3,0.4-0.4,0.9-0.4,1.4c0,0.1,0,0.1,0,0.2L111,535.1z"/>
				<circle opacity="0.46" fill="#BCBCBC" cx="118" cy="533.7" r="1.7"/>
				<g>
					<g>
						<circle fill="#333333" cx="118" cy="532.4" r="0.5"/>
						<circle fill="#333333" cx="118" cy="535" r="0.5"/>
					</g>
					<g>
						<circle fill="#333333" cx="119.3" cy="533.7" r="0.5"/>
						<circle fill="#333333" cx="116.7" cy="533.7" r="0.5"/>
					</g>
				</g>
				<g>
					<path fill="#333333" d="M104.6,533.8c0,7.3,6,13.3,13.3,13.3c7.3,0,13.3-6,13.3-13.3c0-7.3-6-13.3-13.3-13.3
						C110.6,520.5,104.6,526.4,104.6,533.8z M109.4,533.8c0-4.7,3.8-8.5,8.5-8.5c4.7,0,8.5,3.8,8.5,8.5c0,4.7-3.8,8.5-8.5,8.5
						C113.2,542.3,109.4,538.5,109.4,533.8z"/>
				</g>
				<g opacity="0.67">
					<path fill="#BCBCBC" d="M107.6,533.8c0,5.7,4.6,10.3,10.3,10.3c5.7,0,10.3-4.6,10.3-10.3c0-5.7-4.6-10.3-10.3-10.3
						C112.2,523.5,107.6,528.1,107.6,533.8z M109.4,533.8c0-4.7,3.8-8.5,8.5-8.5c4.7,0,8.5,3.8,8.5,8.5c0,4.7-3.8,8.5-8.5,8.5
						C113.2,542.3,109.4,538.5,109.4,533.8z"/>
				</g>
				<path fill="#D1D3D4" d="M108.6,533.8c0,5.1,4.2,9.3,9.3,9.3c5.1,0,9.3-4.2,9.3-9.3c0-5.1-4.2-9.3-9.3-9.3
					C112.8,524.4,108.6,528.6,108.6,533.8z M110,533.8c0-4.4,3.5-7.9,7.9-7.9c4.4,0,7.9,3.5,7.9,7.9c0,4.4-3.5,7.9-7.9,7.9
					C113.6,541.7,110,538.1,110,533.8z"/>
				<path opacity="0.46" fill="#BCBCBC" d="M109.3,533.8c0,4.8,3.9,8.6,8.6,8.6s8.6-3.9,8.6-8.6s-3.9-8.6-8.6-8.6
					S109.3,529,109.3,533.8z M110,533.8c0-4.4,3.5-7.9,7.9-7.9c4.4,0,7.9,3.5,7.9,7.9c0,4.4-3.5,7.9-7.9,7.9
					C113.6,541.7,110,538.1,110,533.8z"/>
			</g>
		</g>
	</g>
	<g>
		<path fill="#3D3D3D" d="M1169,514.3v13.8c0,1.7-1.4,3-3,3h-117.6c-0.7,0-1.3-0.2-1.9-0.7l-9.5-7.5c-0.5-0.4-1.2-0.7-1.9-0.7h-34.7
			c-0.5,0-1-0.1-1.5-0.4c-0.9-0.5-1.6-1.5-1.6-2.6c0-0.8,0.3-1.6,0.9-2.1c0.5-0.5,1.3-0.9,2.1-0.9h114.8c0.6,0,1.3-0.2,1.8-0.6
			l1.5-1.1l3.7-2.7c0.5-0.4,1.1-0.6,1.8-0.6h42C1167.7,511.3,1169,512.7,1169,514.3z"/>
		
			<rect x="1002.4" y="516.3" transform="matrix(-1 -4.484425e-11 4.484425e-11 -1 2020.1304 1045.1974)" fill="#BFBFBF" width="15.4" height="12.7"/>
		<path fill="#545454" d="M1118.5,441.3v73.6c0,2-1.6,3.6-3.6,3.6h-114.7l-1.2,3.5l-2.1,5.9H988v-86.5c0-2.7,2.2-4.9,4.9-4.9h120.7
			C1116.3,436.4,1118.5,438.6,1118.5,441.3z"/>
		<path fill="#333333" d="M1018.9,527.3h-17.7c-0.6,0-1.1,0.5-1.1,1.1v2.8c0,0.6,0.5,1.1,1.1,1.1h17.7c0.6,0,1.1-0.5,1.1-1.1v-2.8
			C1020,527.8,1019.5,527.3,1018.9,527.3z"/>
		<path fill="#333333" d="M995.6,514.9h117.5c0.5,0,1-0.4,1-1v-0.6c0-0.5-0.4-1-1-1H995.6c-0.5,0-1,0.4-1,1v0.6
			C994.7,514.5,995.1,514.9,995.6,514.9z"/>
		<path fill="#333333" d="M1060,536h57c1.4,0,2.5-1.1,2.5-2.5v-6.9c0-1.4-1.1-2.5-2.5-2.5h-57c-1.4,0-2.5,1.1-2.5,2.5v6.9
			C1057.5,534.8,1058.6,536,1060,536z"/>
		<path fill="#333333" d="M996,525.1h-7.2c-0.8,0-1.4,0.6-1.4,1.4v4.4c0,0.8,0.6,1.4,1.4,1.4h7.2c0.8,0,1.4-0.6,1.4-1.4v-4.4
			C997.4,525.7,996.8,525.1,996,525.1z"/>
		<path fill="#3D3D3D" d="M988,441.3v1.2h130.5v-1.2c0-2.7-2.2-4.9-4.9-4.9H992.9C990.2,436.4,988,438.6,988,441.3z"/>
		<path fill="#FCC02E" d="M993.7,440.6h3.8c0.5,0,0.9-0.4,0.9-0.9v-0.5c0-0.5-0.4-0.9-0.9-0.9h-3.8c-0.5,0-0.9,0.4-0.9,0.9v0.5
			C992.9,440.2,993.2,440.6,993.7,440.6z"/>
		<path fill="#DD4747" d="M990.5,523.7h3.8c0.5,0,0.9-0.4,0.9-0.9v-0.5c0-0.5-0.4-0.9-0.9-0.9h-3.8c-0.5,0-0.9,0.4-0.9,0.9v0.5
			C989.7,523.3,990.1,523.7,990.5,523.7z"/>
		<path fill="#FCC02E" d="M1109.2,440.6h3.8c0.5,0,0.9-0.4,0.9-0.9v-0.5c0-0.5-0.4-0.9-0.9-0.9h-3.8c-0.5,0-0.9,0.4-0.9,0.9v0.5
			C1108.4,440.2,1108.7,440.6,1109.2,440.6z"/>
		<path fill="#9B4E4E" d="M1202.8,510.2v20.6c0,1.9-1.1,3.5-2.7,4.2c-0.6,0.3-1.2,0.4-1.9,0.4h-0.4l-0.2-2l-0.6-5
			c-0.7-5.6-5.1-9.8-10.4-9.8h-10c-2.9,0-5.6,1.3-7.5,3.3c-1.2,1.3-2.2,3-2.6,4.9c-0.1,0.4-0.2,0.7-0.2,1.1l-0.5,3.2l-0.2,1.5
			c-0.3,1.6-1.7,2.8-3.3,2.8h-35v-58.2c0-1.3,1.1-2.3,2.3-2.3l19.5,0.4c1.6,0,3.2,0.6,4.4,1.7l17.4,15.7l6.5,5.8l21.7,6.7
			c1.6,0.4,2.9,1.5,3.5,3c0,0,0,0,0,0C1202.7,508.8,1202.8,509.5,1202.8,510.2z"/>
		<path d="M1176.5,518.6h10c5.3,0,9.8,4.2,10.4,9.8l0.5,4.3h-32.1c0,0,0-0.1,0-0.1l0.8-4.7C1167,522.5,1171.4,518.6,1176.5,518.6z"
			/>
		<g>
			<rect x="1125.8" y="476.5" fill="#BCBEC0" width="0" height="56.3"/>
			<path fill="#3D3D3D" d="M1125.8,532.7L1125.8,532.7c-0.7,0-1.3-0.4-1.3-1v-54.3c0-0.5,0.6-1,1.3-1l0,0c0.7,0,1.3,0.4,1.3,1v54.3
				C1127.1,532.3,1126.5,532.7,1125.8,532.7z"/>
		</g>
		<g>
			<path fill="#D1D3D4" d="M1157.8,531.3h-26.7c-0.7,0-1.3-0.3-1.8-0.7c-0.5-0.5-0.7-1.1-0.7-1.8c0-6.3,0.1-27.1,0.1-28.9l-0.1-18.7
				c0-1.2,0.4-2.2,1.1-3c0.8-0.9,1.9-1.4,3.1-1.4h16.2c1.1,0,2.1,0.4,2.9,1.2l20.1,19.1c0.8,0.8,1.3,1.9,1.3,3
				c0,1.8-1.8,16.5-4,17.4c-5.3,2-7.4,7.9-8.2,11.3C1160.8,530.2,1159.4,531.3,1157.8,531.3z M1132.8,477.4c-1,0-2,0.4-2.7,1.2
				c-0.6,0.7-1,1.6-1,2.6l0.1,18.7c0,1.7-0.1,20.8-0.1,28.9c0,0.5,0.2,1,0.6,1.4c0.4,0.4,0.9,0.6,1.4,0.6h26.7
				c1.4,0,2.5-0.9,2.8-2.2c0.8-3.4,3-9.5,8.5-11.7c1.7-0.6,3.7-14.1,3.7-16.8c0-1-0.4-1.9-1.1-2.6l-20.1-19.1c-0.7-0.6-1.6-1-2.5-1
				H1132.8z"/>
		</g>
		<path fill="#010101" d="M1132.8,478.1h16.2c0.8,0,1.5,0.3,2,0.8l20.1,19.1c0.6,0.5,0.9,1.3,0.9,2.1l0,0c0,1.6-1.3,2.8-2.8,2.8
			H1133c-1.6,0-2.9-1.3-2.9-2.9l-0.1-18.9C1129.9,479.4,1131.2,478.1,1132.8,478.1z"/>
		<path fill="#231F20" d="M1173.5,533.6c0-4.4,3.6-8,8-8c4.4,0,8,3.6,8,8c0,4.4-3.6,8-8,8C1177,541.6,1173.5,538,1173.5,533.6z"/>
		<g>
			<path fill="#E6E7E8" d="M1178.7,533.7c0-0.1,0-0.1,0-0.2c0-0.6,0.2-1.2,0.6-1.6l-3.4-4.5c0.7-0.7,1.5-1.2,2.4-1.6l2.4,5.2
				c0.2-0.1,0.5-0.1,0.7-0.1c0.3,0,0.6,0.1,0.9,0.2l2.8-5.1c0.9,0.4,1.7,1,2.4,1.7l-3.9,4.5c0.3,0.4,0.4,0.9,0.4,1.5
				c0,0.1,0,0.1,0,0.2l5.8,1.6c-0.2,1-0.6,1.9-1.1,2.7l-5.3-2.8c-0.3,0.4-0.7,0.7-1.2,0.8l0.8,5.9c-0.5,0.1-0.9,0.1-1.4,0.1
				c-0.5,0-1,0-1.5-0.1l0.5-5.8c-0.5-0.1-0.9-0.4-1.2-0.8l-5,2.7c-0.5-0.8-0.8-1.7-1-2.7L1178.7,533.7z"/>
		</g>
		<g>
			<g>
				<g>
					<circle fill="#333333" cx="1181.4" cy="532.2" r="0.5"/>
					<circle fill="#333333" cx="1181.4" cy="534.8" r="0.5"/>
				</g>
				<g>
					<circle fill="#333333" cx="1180.1" cy="533.5" r="0.5"/>
					<circle fill="#333333" cx="1182.7" cy="533.5" r="0.5"/>
				</g>
			</g>
			<g>
				<path fill="#333333" d="M1168,533.6c0,7.4,6,13.5,13.5,13.5s13.5-6,13.5-13.5c0-7.4-6-13.5-13.5-13.5S1168,526.1,1168,533.6z
					 M1172.8,533.6c0-4.8,3.9-8.6,8.6-8.6s8.6,3.9,8.6,8.6c0,4.8-3.9,8.6-8.6,8.6S1172.8,538.3,1172.8,533.6z"/>
			</g>
		</g>
		<path fill="#D1D3D4" d="M1172,533.6c0,5.2,4.2,9.4,9.4,9.4s9.4-4.2,9.4-9.4s-4.2-9.4-9.4-9.4S1172,528.4,1172,533.6z
			 M1173.5,533.6c0-4.4,3.6-8,8-8c4.4,0,8,3.6,8,8c0,4.4-3.6,8-8,8C1177,541.6,1173.5,538,1173.5,533.6z"/>
		<path fill="#231F20" d="M1027.5,533.6c0-4.4,3.6-8,8-8c4.4,0,8,3.6,8,8c0,4.4-3.6,8-8,8C1031,541.6,1027.5,538,1027.5,533.6z"/>
		<g>
			<path fill="#E6E7E8" d="M1032.7,533.7c0-0.1,0-0.1,0-0.2c0-0.6,0.2-1.2,0.6-1.6l-3.4-4.5c0.7-0.7,1.5-1.2,2.4-1.6l2.4,5.2
				c0.2-0.1,0.5-0.1,0.7-0.1c0.3,0,0.6,0.1,0.9,0.2l2.8-5.1c0.9,0.4,1.7,1,2.4,1.7l-3.9,4.5c0.3,0.4,0.4,0.9,0.4,1.5
				c0,0.1,0,0.1,0,0.2l5.8,1.6c-0.2,1-0.6,1.9-1.1,2.7l-5.3-2.8c-0.3,0.4-0.7,0.7-1.2,0.8l0.8,5.9c-0.5,0.1-0.9,0.1-1.4,0.1
				c-0.5,0-1,0-1.5-0.1l0.5-5.8c-0.5-0.1-0.9-0.4-1.2-0.8l-5,2.7c-0.5-0.8-0.8-1.7-1-2.7L1032.7,533.7z"/>
		</g>
		<g>
			<g>
				<g>
					<circle fill="#333333" cx="1035.4" cy="532.2" r="0.5"/>
					<circle fill="#333333" cx="1035.4" cy="534.8" r="0.5"/>
				</g>
				<g>
					<circle fill="#333333" cx="1034.1" cy="533.5" r="0.5"/>
					<circle fill="#333333" cx="1036.7" cy="533.5" r="0.5"/>
				</g>
			</g>
			<g>
				<path fill="#333333" d="M1022,533.6c0,7.4,6,13.5,13.5,13.5s13.5-6,13.5-13.5c0-7.4-6-13.5-13.5-13.5S1022,526.1,1022,533.6z
					 M1026.8,533.6c0-4.8,3.9-8.6,8.6-8.6s8.6,3.9,8.6,8.6c0,4.8-3.9,8.6-8.6,8.6S1026.8,538.3,1026.8,533.6z"/>
			</g>
		</g>
		<path fill="#D1D3D4" d="M1026,533.6c0,5.2,4.2,9.4,9.4,9.4s9.4-4.2,9.4-9.4s-4.2-9.4-9.4-9.4S1026,528.4,1026,533.6z
			 M1027.5,533.6c0-4.4,3.6-8,8-8c4.4,0,8,3.6,8,8c0,4.4-3.6,8-8,8C1031,541.6,1027.5,538,1027.5,533.6z"/>
		<g>
			<path fill="#D1D3D4" d="M1169.3,505.4h-37.5c-0.2,0-0.3-0.1-0.3-0.3l0,0c0-0.2,0.1-0.3,0.3-0.3h37.5c0.2,0,0.3,0.1,0.3,0.3l0,0
				C1169.6,505.3,1169.5,505.4,1169.3,505.4z"/>
		</g>
		<g>
			<path fill="#3D3D3D" d="M1173.6,506h-3.3c-0.4,0-0.7-0.5-0.7-1l0.8-5.4c0.1-0.4,0.3-0.7,0.7-0.7h2.5c2.1,0,3.8,1.6,3.8,3.6l0,0
				C1177.4,504.4,1175.7,506,1173.6,506z"/>
			<path fill="#D1D3D4" d="M1173.6,503.9h-3.3c-0.2,0-0.3-0.1-0.5-0.2l-0.2,1.4c-0.1,0.5,0.2,1,0.7,1h3.3c2.1,0,3.8-1.6,3.8-3.6l0,0
				c0-0.4-0.1-0.7-0.2-1.1C1176.8,502.8,1175.3,503.9,1173.6,503.9z"/>
		</g>
		<path fill="#828282" d="M1197.8,519.2l5,2v-11c0,0,0,0,0,0h-4.4c-1,0-1.7,0.8-1.7,1.7v5.7C1196.7,518.3,1197.1,518.9,1197.8,519.2
			z"/>
		<path fill="#FFFFFF" d="M1197.7,511.9v5.7c0,0.3,0.2,0.6,0.6,0.7l1.1,0.3l2.4,0.7c0.7,0.2,1.3-0.3,1.3-1v-6.1c0-0.6-0.5-1-1-1
			h-3.5C1198.1,511.1,1197.7,511.5,1197.7,511.9z"/>
		<path fill="#231F20" d="M1207,535.4h-9.9l-0.1-7.4l6,0.1c2.2,0,4,1.8,4,4V535.4z"/>
		<g>
			<path fill="#28211F" d="M1148.2,479.8h-7.3l-9,18.7l0,0.1c0,1.4,1.1,2.5,2.5,2.5h3.7l10.3-21.3
				C1148.3,479.8,1148.3,479.8,1148.2,479.8z"/>
			<polygon fill="#28211F" points="1154.5,484.8 1150.7,481.3 1141.1,501.1 1146.6,501.1 			"/>
		</g>
		<path fill="#DD4747" d="M1197.7,511.9v5.7c0,0.3,0.2,0.6,0.6,0.7l1.1,0.3v-7.5h-0.8C1198.1,511.1,1197.7,511.5,1197.7,511.9z"/>
		<path fill="#333333" d="M1132.1,510.1h11l0,0c0-1.4-1.2-2.6-2.6-2.6h-5.7C1133.3,507.5,1132.1,508.7,1132.1,510.1L1132.1,510.1z"
			/>
		<path fill="#D1D3D4" d="M994.5,450.8h116.6c1.2,0,2.2-1,2.2-2.2v0c0-1.2-1-2.2-2.2-2.2H994.5c-1.2,0-2.2,1-2.2,2.2l0,0
			C992.4,449.8,993.3,450.8,994.5,450.8z"/>
		<path fill="#D1D3D4" d="M994.5,458h116.6c1.2,0,2.2-1,2.2-2.2l0,0c0-1.2-1-2.2-2.2-2.2H994.5c-1.2,0-2.2,1-2.2,2.2l0,0
			C992.4,457.1,993.3,458,994.5,458z"/>
		<path fill="#D1D3D4" d="M994.5,465.3h116.6c1.2,0,2.2-1,2.2-2.2l0,0c0-1.2-1-2.2-2.2-2.2H994.5c-1.2,0-2.2,1-2.2,2.2l0,0
			C992.4,464.4,993.3,465.3,994.5,465.3z"/>
		<path fill="#D1D3D4" d="M994.5,472.6h116.6c1.2,0,2.2-1,2.2-2.2l0,0c0-1.2-1-2.2-2.2-2.2H994.5c-1.2,0-2.2,1-2.2,2.2l0,0
			C992.4,471.6,993.3,472.6,994.5,472.6z"/>
		<path fill="#D1D3D4" d="M994.5,479.9h116.6c1.2,0,2.2-1,2.2-2.2l0,0c0-1.2-1-2.2-2.2-2.2H994.5c-1.2,0-2.2,1-2.2,2.2l0,0
			C992.4,478.9,993.3,479.9,994.5,479.9z"/>
		<path fill="#D1D3D4" d="M994.5,487.2h116.6c1.2,0,2.2-1,2.2-2.2l0,0c0-1.2-1-2.2-2.2-2.2H994.5c-1.2,0-2.2,1-2.2,2.2l0,0
			C992.4,486.2,993.3,487.2,994.5,487.2z"/>
		<path fill="#D1D3D4" d="M994.5,494.5h116.6c1.2,0,2.2-1,2.2-2.2l0,0c0-1.2-1-2.2-2.2-2.2H994.5c-1.2,0-2.2,1-2.2,2.2l0,0
			C992.4,493.5,993.3,494.5,994.5,494.5z"/>
		<path fill="#D1D3D4" d="M994.5,501.7h116.6c1.2,0,2.2-1,2.2-2.2l0,0c0-1.2-1-2.2-2.2-2.2H994.5c-1.2,0-2.2,1-2.2,2.2l0,0
			C992.4,500.8,993.3,501.7,994.5,501.7z"/>
		<path fill="#D1D3D4" d="M994.5,509h116.6c1.2,0,2.2-1,2.2-2.2l0,0c0-1.2-1-2.2-2.2-2.2H994.5c-1.2,0-2.2,1-2.2,2.2l0,0
			C992.4,508.1,993.3,509,994.5,509z"/>
		<path fill="#D1D3D4" d="M1170.8,492.7l8.1,7.7c0,0,15.5,4.6,19.3,5.6c3.5,0.8,4.2,2,4.3,2.2c-0.6-1.5-1.9-2.6-3.5-3l-21.7-6.7
			L1170.8,492.7z"/>
	</g>
	<rect y="522.2" fill="#E0DCDC" width="2500" height="68"/>
	<rect y="556.2" opacity="0.51" fill="#A5A5A5" width="2500" height="34"/>
	<g>
		<rect x="80.3" y="590.2" fill="#383838" width="133.1" height="4.9"/>
		<rect x="80.3" y="595.1" fill="#7C7C7C" width="133.1" height="10"/>
		<polygon fill="#686868" points="213.5,605.1 175.3,627.7 118.5,627.7 80.3,605.1 		"/>
		<rect x="118.5" y="627.7" fill="#E0DCDC" width="56.8" height="144.7"/>
		<polygon opacity="0.32" fill="#A5A5A5" points="146.9,590.2 146.9,772.4 118.5,772.4 118.5,627.7 80.3,605.1 80.3,590.2 		"/>
	</g>
	<g>
		<rect x="454" y="590.2" fill="#383838" width="133.1" height="4.9"/>
		<rect x="454" y="595.1" fill="#7C7C7C" width="133.1" height="10"/>
		<polygon fill="#686868" points="587.2,605.1 549,627.7 492.2,627.7 454,605.1 		"/>
		<rect x="492.2" y="627.7" fill="#E0DCDC" width="56.8" height="144.7"/>
		<polygon opacity="0.32" fill="#A5A5A5" points="520.6,590.2 520.6,772.4 492.2,772.4 492.2,627.7 454,605.1 454,590.2 		"/>
	</g>
	<g>
		<rect x="827.8" y="590.2" fill="#383838" width="133.1" height="4.9"/>
		<rect x="827.8" y="595.1" fill="#7C7C7C" width="133.1" height="10"/>
		<polygon fill="#686868" points="960.9,605.1 922.7,627.7 865.9,627.7 827.8,605.1 		"/>
		<rect x="865.9" y="627.7" fill="#E0DCDC" width="56.8" height="144.7"/>
		<polygon opacity="0.32" fill="#A5A5A5" points="894.3,590.2 894.3,772.4 865.9,772.4 865.9,627.7 827.8,605.1 827.8,590.2 		"/>
	</g>
	<polygon opacity="0.38" fill="#A5A5A5" points="922.7,656.4 922.7,772.4 865.9,772.4 865.9,627.7 827.8,605.1 827.8,590.2 
		860.1,590.2 864.7,595.1 874.2,605.1 895.5,627.7 	"/>
	<g>
		<rect x="1201.5" y="590.2" fill="#383838" width="133.1" height="4.9"/>
		<rect x="1201.5" y="595.1" fill="#7C7C7C" width="133.1" height="10"/>
		<polygon fill="#686868" points="1334.6,605.1 1296.4,627.7 1239.7,627.7 1201.5,605.1 		"/>
		<rect x="1239.7" y="627.7" fill="#E0DCDC" width="56.8" height="144.7"/>
		<polygon opacity="0.32" fill="#A5A5A5" points="1268.1,590.2 1268.1,772.4 1239.7,772.4 1239.7,627.7 1201.5,605.1 1201.5,590.2 
					"/>
	</g>
	<g>
		<rect x="1575.2" y="590.2" fill="#383838" width="133.1" height="4.9"/>
		<rect x="1575.2" y="595.1" fill="#7C7C7C" width="133.1" height="10"/>
		<polygon fill="#686868" points="1708.3,605.1 1670.1,627.7 1613.4,627.7 1575.2,605.1 		"/>
		<rect x="1613.4" y="627.7" fill="#E0DCDC" width="56.8" height="144.7"/>
		<polygon opacity="0.32" fill="#A5A5A5" points="1641.8,590.2 1641.8,772.4 1613.4,772.4 1613.4,627.7 1575.2,605.1 1575.2,590.2 
					"/>
	</g>
	<g>
		<rect x="1948.9" y="590.2" fill="#383838" width="133.1" height="4.9"/>
		<rect x="1948.9" y="595.1" fill="#7C7C7C" width="133.1" height="10"/>
		<polygon fill="#686868" points="2082,605.1 2043.9,627.7 1987.1,627.7 1948.9,605.1 		"/>
		<rect x="1987.1" y="627.7" fill="#E0DCDC" width="56.8" height="144.7"/>
		<polygon opacity="0.32" fill="#A5A5A5" points="2015.5,590.2 2015.5,772.4 1987.1,772.4 1987.1,627.7 1948.9,605.1 1948.9,590.2 
					"/>
	</g>
	<g>
		<rect x="2322.6" y="590.2" fill="#383838" width="133.1" height="4.9"/>
		<rect x="2322.6" y="595.1" fill="#7C7C7C" width="133.1" height="10"/>
		<polygon fill="#686868" points="2455.8,605.1 2417.6,627.7 2360.8,627.7 2322.6,605.1 		"/>
		<rect x="2360.8" y="627.7" fill="#E0DCDC" width="56.8" height="144.7"/>
		<polygon opacity="0.32" fill="#A5A5A5" points="2389.2,590.2 2389.2,772.4 2360.8,772.4 2360.8,627.7 2322.6,605.1 2322.6,590.2 
					"/>
	</g>
	<rect y="852.5" fill="#565656" width="2500" height="547"/>
	<rect y="1212.5" fill="#3F3F3F" width="2500" height="187"/>
	<rect y="1306" fill="#333333" width="2500" height="94"/>
	<rect y="874.5" fill="#FFFFFF" width="2500" height="10"/>
	<rect y="1090.3" fill="#FFFFFF" width="2500" height="10"/>
	<polygon fill="#FFFFFF" points="86.9,930.5 6.5,930.5 1.7,940.5 82.1,940.5 	"/>
	<polygon fill="#FFFFFF" points="270.9,930.5 190.5,930.5 185.7,940.5 266.1,940.5 	"/>
	<polygon fill="#FFFFFF" points="454.9,930.5 374.5,930.5 369.7,940.5 450.1,940.5 	"/>
	<polygon fill="#FFFFFF" points="1201.8,930.5 558.5,930.5 553.7,940.5 1197,940.5 	"/>
	<polygon fill="#FFFFFF" points="1384.1,930.5 1298.2,930.5 1303,940.5 1388.9,940.5 	"/>
	<polygon fill="#FFFFFF" points="1570.1,930.5 1487.7,930.5 1492.5,940.5 1574.9,940.5 	"/>
	<polygon fill="#FFFFFF" points="1756.1,930.5 1673.7,930.5 1678.5,940.5 1760.9,940.5 	"/>
	<polygon fill="#FFFFFF" points="1942.1,930.5 1859.7,930.5 1864.5,940.5 1946.9,940.5 	"/>
	<polygon fill="#FFFFFF" points="2128.1,930.5 2045.7,930.5 2050.5,940.5 2132.9,940.5 	"/>
	<g>
		<polygon fill="#FFFFFF" points="2314.1,930.5 2231.7,930.5 2236.5,940.5 2318.9,940.5 		"/>
		<polygon fill="#FFFFFF" points="2417.7,930.5 2422.5,940.5 2500,940.5 2500,930.5 		"/>
	</g>
	<rect x="1.7" y="904.1" opacity="0.75" fill="#A5A5A5" width="2497.4" height="85.6"/>
	<rect x="1.7" y="1126" opacity="0.75" fill="#A5A5A5" width="2497.4" height="53.5"/>
	<rect y="765.4" fill="#7C7B7A" width="2500" height="87.2"/>
	<rect y="808.9" opacity="0.51" fill="#A5A5A5" width="2500" height="43.6"/>
	<rect x="1492.9" y="632.9" fill="#E0DCDC" width="9.8" height="132.4"/>
	<rect x="1310.4" y="632.9" fill="#E0DCDC" width="9.8" height="132.4"/>
	<rect x="1310.4" y="632.9" fill="#A5A5A5" width="9.8" height="19.1"/>
	<rect x="1492.9" y="632.9" fill="#A5A5A5" width="9.8" height="19.1"/>
	<g>
		<g>
			<path fill="#00A551" d="M1600,613.5l-23.9,15.8l-20.5,13.6c-1.2,0.8-2.6,1.2-4,1.2H1271c-4,0-7.3-3.3-7.3-7.3V578
				c0-4,3.3-7.3,7.3-7.3h280.5c1.4,0,2.8,0.4,4,1.2l44.4,29.4C1604.3,604.2,1604.3,610.6,1600,613.5z"/>
			<g>
				<path fill="#FFFFFF" d="M1545,639.8h-269.3c-4.4,0-8-3.3-8-7.3v-50.3c0-4,3.6-7.3,8-7.3H1545c1.6,0,3.1,0.4,4.4,1.2l42.7,25.2
					c2.3,1.3,3.6,3.6,3.6,6.1s-1.4,4.7-3.6,6.1l-42.7,25.2C1548.1,639.4,1546.6,639.8,1545,639.8z M1275.7,577c-3.3,0-6,2.4-6,5.3
					v50.3c0,2.9,2.7,5.3,6,5.3H1545c1.2,0,2.4-0.3,3.4-0.9l42.7-25.2c1.7-1,2.7-2.6,2.7-4.4s-1-3.4-2.7-4.4l-42.7-25.2
					c-1-0.6-2.2-0.9-3.4-0.9H1275.7z"/>
			</g>
		</g>
		<text transform="matrix(1 0 0 1 1302.0764 623.5267)"><tspan x="0" y="0" fill="#FFFFFF" font-family="'Roboto-Black'" font-size="48.4726px">ONE </tspan><tspan x="106.7" y="0" fill="#FFFFFF" font-family="'Roboto-Black'" font-size="48.4726px" letter-spacing="-1">W</tspan><tspan x="147.8" y="0" fill="#FFFFFF" font-family="'Roboto-Black'" font-size="48.4726px" letter-spacing="-3">A</tspan><tspan x="177.3" y="0" fill="#FFFFFF" font-family="'Roboto-Black'" font-size="48.4726px">Y</tspan></text>
		<path opacity="0.51" fill="#A5A5A5" d="M1576.1,629.3l-20.5,13.6c-1.2,0.8-2.6,1.2-4,1.2H1271c-4,0-7.3-3.3-7.3-7.3v-7.5H1576.1z"
			/>
	</g>
	<rect y="691" fill="#3F3F3F" width="2500" height="5.7"/>
	<rect y="711.1" fill="#3F3F3F" width="2500" height="5.7"/>
	<rect y="731.1" fill="#3F3F3F" width="2500" height="5.7"/>
	<rect y="751.2" fill="#3F3F3F" width="2499.1" height="5.7"/>
	<rect x="168" y="691" fill="#3F3F3F" width="5" height="74.4"/>
	<rect x="539" y="691" fill="#3F3F3F" width="5" height="74.4"/>
	<rect x="910" y="691" fill="#3F3F3F" width="5" height="74.4"/>
	<rect x="1281" y="691" fill="#3F3F3F" width="5" height="74.4"/>
	<rect x="1652" y="691" fill="#3F3F3F" width="5" height="74.4"/>
	<rect x="2023" y="691" fill="#3F3F3F" width="5" height="74.4"/>
	<rect x="2394" y="691" fill="#3F3F3F" width="5" height="74.4"/>
	<path opacity="0.75" fill="#A5A5A5" d="M936,1091.8H34.6c-9.5,0-15.7-6.8-11.6-12.7l24.4-34.4c2.2-3,6.6-5,11.6-5h852.5
		c4.9,0,9.4,1.9,11.6,5l24.4,34.4C951.7,1085,945.5,1091.8,936,1091.8z"/>
	<g>
		<path fill="#3D3D3D" d="M769.4,940.9v55c0,6.7-5.4,12.1-12.1,12.1H287.6c-2.7,0-5.4-0.9-7.5-2.6l-37.9-30
			c-2.1-1.7-4.8-2.6-7.5-2.6H96c-2.1,0-4.2-0.6-5.9-1.5c-3.7-2.1-6.2-6-6.2-10.6c0-3.3,1.3-6.4,3.5-8.6c2.2-2.2,5.2-3.5,8.5-3.5
			h458.5c2.6,0,5.1-0.8,7.1-2.3l6-4.4l14.7-10.7c2.1-1.5,4.6-2.3,7.1-2.3h167.9C764,928.8,769.4,934.2,769.4,940.9z"/>
		
			<rect x="103.7" y="948.6" transform="matrix(-1 -4.487711e-11 4.487711e-11 -1 268.9369 1947.7169)" fill="#BFBFBF" width="61.6" height="50.6"/>
		<path fill="#F1F2F2" d="M567.7,649.2v293.8c0,7.9-6.4,14.3-14.3,14.3H95l-4.9,13.8l-8.4,23.5H46.5V649.2
			c0-10.8,8.7-19.5,19.5-19.5h482.2C558.9,629.7,567.7,638.5,567.7,649.2z"/>
		<path fill="#333333" d="M169.7,992.5H99.2c-2.4,0-4.3,1.9-4.3,4.3v11.1c0,2.4,1.9,4.3,4.3,4.3h70.5c2.4,0,4.3-1.9,4.3-4.3v-11.1
			C174,994.5,172.1,992.5,169.7,992.5z"/>
		<path fill="#333333" d="M76.8,943.1h469.4c2.2,0,3.9-1.7,3.9-3.9V937c0-2.2-1.7-3.9-3.9-3.9H76.8c-2.2,0-3.9,1.7-3.9,3.9v2.2
			C72.9,941.3,74.6,943.1,76.8,943.1z"/>
		<path fill="#333333" d="M334.1,1027.3h227.8c5.6,0,10.1-4.5,10.1-10.1v-27.6c0-5.6-4.5-10.1-10.1-10.1H334.1
			c-5.6,0-10.1,4.5-10.1,10.1v27.6C324,1022.7,328.5,1027.3,334.1,1027.3z"/>
		<path fill="#333333" d="M78.4,983.8H49.8c-3,0-5.5,2.4-5.5,5.5v17.7c0,3,2.4,5.5,5.5,5.5h28.6c3,0,5.5-2.4,5.5-5.5v-17.7
			C83.8,986.2,81.4,983.8,78.4,983.8z"/>
		<path fill="#3D3D3D" d="M567.7,649.2v4.7H46.5v-4.7c0-10.8,8.7-19.5,19.5-19.5h482.2C558.9,629.7,567.7,638.5,567.7,649.2z"/>
		<path fill="#FCC02E" d="M69.1,646.2h15.1c1.9,0,3.4-1.5,3.4-3.4v-2c0-1.9-1.5-3.4-3.4-3.4H69.1c-1.9,0-3.4,1.5-3.4,3.4v2
			C65.7,644.7,67.2,646.2,69.1,646.2z"/>
		<path fill="#DD4747" d="M56.5,978.3h15.1c1.9,0,3.4-1.5,3.4-3.4v-2c0-1.9-1.5-3.4-3.4-3.4H56.5c-1.9,0-3.4,1.5-3.4,3.4v2
			C53.1,976.7,54.6,978.3,56.5,978.3z"/>
		<path fill="#FCC02E" d="M530.5,646.2h15.1c1.9,0,3.4-1.5,3.4-3.4v-2c0-1.9-1.5-3.4-3.4-3.4h-15.1c-1.9,0-3.4,1.5-3.4,3.4v2
			C527.1,644.7,528.6,646.2,530.5,646.2z"/>
		<path fill="#F1F2F2" d="M904.4,924.2v82.3c0,7.5-4.4,13.9-10.8,16.9c-2.3,1.1-4.9,1.7-7.7,1.7h-1.6l-0.9-7.8L881,997
			c-2.6-22.3-20.5-39-41.6-39h-40.1c-11.6,0-22.2,5-29.9,13.3c-4.9,5.3-8.6,12-10.6,19.4c-0.4,1.4-0.7,2.8-0.9,4.3l-2.1,12.9
			l-0.9,5.9c-1,6.5-6.6,11.2-13.1,11.2H602V792.4c0-5.1,4.2-9.3,9.3-9.2l77.9,1.5c6.5,0.1,12.7,2.6,17.6,6.9l69.6,62.8l25.8,23.3
			l86.8,26.7c6.4,1.5,11.5,6,13.9,11.8c0,0.1,0.1,0.1,0.1,0.1C903.9,918.9,904.4,921.5,904.4,924.2z"/>
		<path d="M799.3,958h40.1c21.2,0,39,16.7,41.6,39l2,17.3H754.8c0-0.2,0.1-0.4,0.1-0.5l3-18.8C761.4,973.7,778.9,958,799.3,958z"/>
		<g>
			<rect x="596.7" y="789.6" fill="#BCBEC0" width="0" height="224.8"/>
			<path fill="#D1D3D4" d="M596.7,1014.3L596.7,1014.3c-2.9,0-5.3-1.7-5.3-3.9v-217c0-2.1,2.4-3.9,5.3-3.9l0,0
				c2.9,0,5.3,1.7,5.3,3.9v217C602,1012.6,599.7,1014.3,596.7,1014.3z"/>
		</g>
		<g>
			<path fill="#D1D3D4" d="M724.5,1008.7H618c-2.7,0-5.2-1-7.1-2.9c-1.9-1.9-2.9-4.4-2.9-7.1c0.1-25.2,0.6-108.1,0.5-115.3
				l-0.6-74.9c0-4.6,1.5-8.9,4.4-12c3.2-3.5,7.7-5.5,12.4-5.5h64.8c4.3,0,8.4,1.6,11.6,4.6l80.4,76.2c3.3,3.1,5.1,7.4,5.1,11.9
				c0,7.1-7.2,65.9-16.1,69.3c-21.2,8.1-29.6,31.7-32.7,45.1C736.5,1004.4,731,1008.7,724.5,1008.7z M624.8,793.2
				c-4.2,0-8,1.7-10.8,4.8c-2.5,2.7-3.9,6.5-3.8,10.5l0.6,74.9c0.1,7-0.4,83-0.5,115.3c0,2.1,0.8,4.1,2.3,5.6
				c1.5,1.5,3.5,2.3,5.6,2.3h106.5c5.5,0,10.1-3.7,11.3-8.9c3.2-13.8,11.9-38.1,34-46.6c6.6-2.5,14.7-56.4,14.7-67.3
				c0-3.9-1.6-7.6-4.4-10.3l-80.4-76.2c-2.7-2.6-6.3-4-10.1-4H624.8z"/>
		</g>
		<path fill="#010101" d="M624.8,796.1h64.8c3,0,5.9,1.2,8.1,3.2l80.4,76.2c2.3,2.1,3.5,5.1,3.5,8.2l0,0c0,6.2-5.1,11.3-11.3,11.3
			h-145c-6.5,0-11.7-5.2-11.8-11.7L613,808C613,801.5,618.3,796.1,624.8,796.1z"/>
		<path fill="#231F20" d="M787.1,1017.7c0-17.7,14.3-32,32-32c17.7,0,32,14.3,32,32c0,17.7-14.3,32-32,32
			C801.4,1049.7,787.1,1035.4,787.1,1017.7z"/>
		<g>
			<path fill="#E6E7E8" d="M807.9,1018.2c0-0.3,0-0.5,0-0.8c0-2.5,0.8-4.7,2.3-6.5l-13.7-18c2.8-2.6,6.1-4.7,9.7-6.2l9.4,20.7
				c0.9-0.2,1.8-0.4,2.8-0.4c1.2,0,2.4,0.2,3.5,0.6l11.1-20.5c3.6,1.6,6.9,3.9,9.7,6.6l-15.6,17.9c1.1,1.7,1.8,3.7,1.8,5.8
				c0,0.2,0,0.5,0,0.7l23.2,6.3c-0.8,3.9-2.3,7.6-4.3,10.9l-21.3-11.2c-1.2,1.5-2.9,2.6-4.7,3.3l3.1,23.4c-1.8,0.3-3.7,0.5-5.7,0.5
				c-2,0-4-0.2-5.9-0.5l2.1-23.3c-1.9-0.6-3.6-1.7-4.9-3.3l-20.1,10.6c-1.9-3.3-3.3-6.9-4.1-10.7L807.9,1018.2z"/>
		</g>
		<g>
			<g>
				<g>
					<circle fill="#333333" cx="818.7" cy="1012.3" r="2"/>
					<circle fill="#333333" cx="818.7" cy="1022.6" r="2"/>
				</g>
				<g>
					<circle fill="#333333" cx="813.5" cy="1017.5" r="2"/>
					<circle fill="#333333" cx="823.9" cy="1017.5" r="2"/>
				</g>
			</g>
			<g>
				<path fill="#333333" d="M765.3,1017.7c0,29.7,24.1,53.8,53.8,53.8c29.7,0,53.8-24.1,53.8-53.8c0-29.7-24.1-53.8-53.8-53.8
					C789.4,963.9,765.3,988,765.3,1017.7z M784.7,1017.7c0-19,15.4-34.4,34.4-34.4c19,0,34.4,15.4,34.4,34.4
					c0,19-15.4,34.4-34.4,34.4C800.1,1052.1,784.7,1036.7,784.7,1017.7z"/>
			</g>
		</g>
		<path fill="#D1D3D4" d="M781.5,1017.7c0,20.8,16.9,37.6,37.6,37.6s37.6-16.9,37.6-37.6c0-20.8-16.9-37.6-37.6-37.6
			S781.5,996.9,781.5,1017.7z M787.1,1017.7c0-17.7,14.3-32,32-32c17.7,0,32,14.3,32,32c0,17.7-14.3,32-32,32
			C801.4,1049.7,787.1,1035.4,787.1,1017.7z"/>
		<path fill="#231F20" d="M203.9,1017.7c0-17.7,14.3-32,32-32c17.7,0,32,14.3,32,32c0,17.7-14.3,32-32,32
			C218.3,1049.7,203.9,1035.4,203.9,1017.7z"/>
		<g>
			<path fill="#E6E7E8" d="M224.7,1018.2c0-0.3,0-0.5,0-0.8c0-2.5,0.8-4.7,2.3-6.5l-13.7-18c2.8-2.6,6.1-4.7,9.7-6.2l9.4,20.7
				c0.9-0.2,1.8-0.4,2.8-0.4c1.2,0,2.4,0.2,3.5,0.6l11.1-20.5c3.6,1.6,6.9,3.9,9.7,6.6l-15.6,17.9c1.1,1.7,1.8,3.7,1.8,5.8
				c0,0.2,0,0.5,0,0.7l23.2,6.3c-0.8,3.9-2.3,7.6-4.3,10.9l-21.3-11.2c-1.2,1.5-2.9,2.6-4.7,3.3l3.1,23.4c-1.8,0.3-3.7,0.5-5.7,0.5
				c-2,0-4-0.2-5.9-0.5l2.1-23.3c-1.9-0.6-3.6-1.7-4.9-3.3l-20.1,10.6c-1.9-3.3-3.3-6.9-4.1-10.7L224.7,1018.2z"/>
		</g>
		<g>
			<g>
				<g>
					<circle fill="#333333" cx="235.5" cy="1012.3" r="2"/>
					<circle fill="#333333" cx="235.5" cy="1022.6" r="2"/>
				</g>
				<g>
					<circle fill="#333333" cx="230.3" cy="1017.5" r="2"/>
					<circle fill="#333333" cx="240.7" cy="1017.5" r="2"/>
				</g>
			</g>
			<g>
				<path fill="#333333" d="M182.1,1017.7c0,29.7,24.1,53.8,53.8,53.8c29.7,0,53.8-24.1,53.8-53.8c0-29.7-24.1-53.8-53.8-53.8
					C206.2,963.9,182.1,988,182.1,1017.7z M201.5,1017.7c0-19,15.4-34.4,34.4-34.4s34.4,15.4,34.4,34.4c0,19-15.4,34.4-34.4,34.4
					S201.5,1036.7,201.5,1017.7z"/>
			</g>
		</g>
		<path fill="#D1D3D4" d="M198.3,1017.7c0,20.8,16.9,37.6,37.6,37.6s37.6-16.9,37.6-37.6c0-20.8-16.9-37.6-37.6-37.6
			S198.3,996.9,198.3,1017.7z M203.9,1017.7c0-17.7,14.3-32,32-32c17.7,0,32,14.3,32,32c0,17.7-14.3,32-32,32
			C218.3,1049.7,203.9,1035.4,203.9,1017.7z"/>
		<g>
			<path fill="#D1D3D4" d="M770.6,905.1H620.7c-0.6,0-1.1-0.5-1.1-1.1l0,0c0-0.6,0.5-1.1,1.1-1.1h149.8c0.6,0,1.1,0.5,1.1,1.1l0,0
				C771.7,904.6,771.2,905.1,770.6,905.1z"/>
		</g>
		<g>
			<path fill="#FFFFFF" d="M787.7,907.5h-13.4c-1.7,0-3-1.9-2.7-4l3.3-21.7c0.2-1.6,1.4-2.7,2.7-2.7h10.1c8.4,0,15.2,6.4,15.2,14.2
				l0,0C802.9,901.2,796.1,907.5,787.7,907.5z"/>
			<path fill="#D1D3D4" d="M787.7,899h-13.4c-0.7,0-1.3-0.3-1.8-0.9l-0.8,5.4c-0.3,2.1,1,4,2.7,4h13.4c8.4,0,15.2-6.4,15.2-14.2l0,0
				c0-1.5-0.2-2.9-0.7-4.3C800.3,894.8,794.5,899,787.7,899z"/>
		</g>
		<path fill="#828282" d="M884.4,960.3l20,7.9v-44c0,0,0,0,0,0h-17.5c-3.8,0-6.9,3.1-6.9,6.9v22.9
			C880,956.7,881.8,959.3,884.4,960.3z"/>
		<path fill="#FFFFFF" d="M884,931v22.9c0,1.2,1,2.3,2.5,2.7l4.5,1.3l9.6,2.8c2.7,0.8,5.4-1.2,5.4-4v-24.4c0-2.3-1.9-4.2-4.2-4.2
			h-13.8C885.8,928.1,884,929.4,884,931z"/>
		<path fill="#231F20" d="M921.1,1025h-39.6l-0.5-29.7l24.1,0.5c8.9,0,16.1,7.2,16.1,16.1V1025z"/>
		<g>
			<path fill="#28211F" d="M686.3,803.1H657L621,877.8l0,0.3c0,5.6,4.6,10,10.1,10H646l41-85C686.8,803.1,686.6,803.1,686.3,803.1z"
				/>
			<polygon fill="#28211F" points="711.4,823 696.3,808.7 658,888.1 680,888.1 			"/>
		</g>
		<path fill="#DD4747" d="M884,931v22.9c0,1.2,1,2.3,2.5,2.7l4.5,1.3v-29.8h-3C885.8,928.1,884,929.4,884,931z"/>
		<path fill="#333333" d="M622.1,924.1h43.8l0,0c0-5.8-4.7-10.4-10.4-10.4h-22.9C626.8,913.7,622.1,918.3,622.1,924.1L622.1,924.1z"
			/>
		<path fill="#E2E2E2" d="M72.4,686.9h466c4.8,0,8.7-3.9,8.7-8.7v0c0-4.8-3.9-8.7-8.7-8.7h-466c-4.8,0-8.7,3.9-8.7,8.7l0,0
			C63.7,683,67.6,686.9,72.4,686.9z"/>
		<path fill="#E2E2E2" d="M72.4,716h466c4.8,0,8.7-3.9,8.7-8.7l0,0c0-4.8-3.9-8.7-8.7-8.7h-466c-4.8,0-8.7,3.9-8.7,8.7l0,0
			C63.7,712.1,67.6,716,72.4,716z"/>
		<path fill="#E2E2E2" d="M72.4,745.1h466c4.8,0,8.7-3.9,8.7-8.7l0,0c0-4.8-3.9-8.7-8.7-8.7h-466c-4.8,0-8.7,3.9-8.7,8.7l0,0
			C63.7,741.2,67.6,745.1,72.4,745.1z"/>
		<path fill="#E2E2E2" d="M72.4,774.2h466c4.8,0,8.7-3.9,8.7-8.7l0,0c0-4.8-3.9-8.7-8.7-8.7h-466c-4.8,0-8.7,3.9-8.7,8.7l0,0
			C63.7,770.3,67.6,774.2,72.4,774.2z"/>
		<path fill="#E2E2E2" d="M72.4,803.3h466c4.8,0,8.7-3.9,8.7-8.7l0,0c0-4.8-3.9-8.7-8.7-8.7h-466c-4.8,0-8.7,3.9-8.7,8.7l0,0
			C63.7,799.4,67.6,803.3,72.4,803.3z"/>
		<path fill="#E2E2E2" d="M72.4,832.4h466c4.8,0,8.7-3.9,8.7-8.7l0,0c0-4.8-3.9-8.7-8.7-8.7h-466c-4.8,0-8.7,3.9-8.7,8.7l0,0
			C63.7,828.5,67.6,832.4,72.4,832.4z"/>
		<path fill="#E2E2E2" d="M72.4,861.4h466c4.8,0,8.7-3.9,8.7-8.7v0c0-4.8-3.9-8.7-8.7-8.7h-466c-4.8,0-8.7,3.9-8.7,8.7l0,0
			C63.7,857.6,67.6,861.4,72.4,861.4z"/>
		<path fill="#E2E2E2" d="M72.4,890.5h466c4.8,0,8.7-3.9,8.7-8.7l0,0c0-4.8-3.9-8.7-8.7-8.7h-466c-4.8,0-8.7,3.9-8.7,8.7l0,0
			C63.7,886.7,67.6,890.5,72.4,890.5z"/>
		<path fill="#E2E2E2" d="M72.4,919.6h466c4.8,0,8.7-3.9,8.7-8.7l0,0c0-4.8-3.9-8.7-8.7-8.7h-466c-4.8,0-8.7,3.9-8.7,8.7l0,0
			C63.7,915.7,67.6,919.6,72.4,919.6z"/>
		<path fill="#D1D3D4" d="M776.3,854.5l32.3,30.8c0,0,61.8,18.6,77.2,22.2c13.9,3.3,16.6,8,17,8.9c-2.4-5.8-7.5-10.3-13.9-11.8
			l-86.8-26.7L776.3,854.5z"/>
	</g>
	<path opacity="0.51" fill="#A5A5A5" d="M758.9,990.7c-6.8-0.6-12.1-1.3-15-2.1c-12.5-3.4-53.5-33.4-84.8-50.9
		c-6.9-3.9-13.6-6.8-20.1-9c-14.1-4.8-26.9-6.3-36.9-6.7v6.7h-12.6c-2.6,0-5.1,0.8-7.1,2.3l-14.7,10.7V922c-19.4,0-47.7,0-56.3,0
		c-13.4,0-42.2,0.4-57.4,6.4c-7.4,2.9-26.2,11.7-44.4,20.2c-6.6,3.1-13.1,6.1-18.9,8.8c-11.4,5.3-20.4,9.3-23.1,10
		c-7.7,2.1-27.3,1.6-42.6,1.6c-9.6,0-13,3.9-14.4,8.2c-0.8,2.6-1,5.3-1.3,7.4c-0.2,1.5-0.7,5.1-1.3,9.8c0,0,0,0.1,0,0.1
		c-0.5,3.9-1,8.6-1.5,13.3H602v17.1h139.8c6.5,0,12.1-4.7,13.1-11.2l0.9-5.9h1.4c6.7,0,12.1-5.4,12.1-12.1v-4.2
		C765.6,991.3,762.1,991,758.9,990.7z M890.4,1021.2c-2.2-1.4-4.6-2.8-7-4l0.9,7.8h1.6c2.7,0,5.3-0.6,7.7-1.7
		C892.5,1022.5,891.4,1021.8,890.4,1021.2z"/>
	<g>
		<path opacity="0.75" fill="#A5A5A5" d="M1062.5,1204.6H443.9c-6.5,0-10.8-6.8-7.9-12.7l16.8-34.4c1.5-3,4.6-5,7.9-5h585.1
			c3.4,0,6.5,1.9,7.9,5l16.8,34.4C1073.3,1197.8,1069.1,1204.6,1062.5,1204.6z"/>
		<g>
			<polygon points="1021.6,1159.7 1049.2,1159.7 1057.9,1124.8 1021.6,1124.8 			"/>
			<path fill="#D14E4E" d="M1041.4,1138.4c-2.8,4.3-6.2,16.1-1.5,16.1h15.2c3.6,0,3.4,5.4,0.8,10.5c-2.6,5.1-6,5.3-11.8,5.3H603.8
				c-19.7,0-78.1-15.3-85.5-15.3h-44.3c-6.4,0-18.6-5-23.4-19.6c-4.8-14.6-4.1-25.6-3.3-28.1c0.9-2.5,6.8-3.3,6.8-10.3
				c0-2,0.4-6.6,0.9-12.2c0.2-1.8,0.4-3.7,0.6-5.6c0.3-2.8,1.8-5.4,2.1-8.3c0.6-5.3,0-11,0.5-15.3c0.6-4.7,1-8.4,1.3-9.8
				c0.3-2.1,0.4-4.8,1.3-7.4c1.4-4.3,4.8-8.2,14.4-8.2c15.4,0,34.9,0.5,42.6-1.6c6.4-1.8,50.3-22.9,74.2-33.7
				c5.2-2.3,9.4-4.2,12.2-5.3c15.3-6,44.1-6.4,57.5-6.4C675,983,737,983,737,983c12.5,0,41-1.8,72.3,15.8
				c31.3,17.5,72.2,47.6,84.8,50.9c5.3,1.4,18.9,2.4,35.1,3.8c2.7,0.2,5.4,0.5,8.1,0.7c20.1,1.9,42.8,4.6,58.3,9.6
				c17.1,5.6,33.3,10.8,45,18.4c1.3,0.8,2.7,1.8,4.1,2.9c7.1,5.5,12.1,12.1,13.9,20.7c0.3,1.5,0.6,3,0.9,4.4
				c3.6,18.9,1.3,21.3-3.4,22C1051.2,1132.8,1044.2,1134.1,1041.4,1138.4z"/>
			<path opacity="0.79" fill="#BCBCBC" d="M455.1,1084.7h25c5.5,0,9.9-4.4,9.9-9.9v-26.7c0-5.5-4.4-9.9-9.9-9.9h-19.2
				c-0.8,2.6-0.9,5.3-1.3,7.4c-0.2,1.5-0.7,5.1-1.3,9.8c-0.5,4.4,0.1,10-0.5,15.3c-0.3,2.9-1.9,5.5-2.1,8.3
				C455.5,1081.1,455.3,1083,455.1,1084.7z"/>
			<path opacity="0.46" fill="#BCBCBC" d="M447.1,1118.1c0.4,4.7,1.5,10.6,3.6,17.3c1.1,3.5,2.7,6.4,4.5,8.9
				c5.8,7.9,14,10.8,18.9,10.8h44.3c7.4,0,65.8,15.3,85.5,15.3H1044c5.8,0,9.2-0.2,11.8-5.3c2.6-5.1,2.8-10.5-0.8-10.5h-15.2
				c-3.2,0-2.7-5.5-1.1-10.3c0.7-2.3,1.7-4.4,2.6-5.8c2.8-4.3,9.8-5.6,14.8-6.3c3.9-0.6,6.1-2.4,4.7-14H447.1z"/>
			<g>
				<path fill="#BDBDBD" d="M577.6,1046.6c-3.1,4-4.3,13.1-2.5,19c1.4,4.5,8.4,11.3,18.2,20.8c3.3,3.2,7,6.8,10.9,10.7
					c13.2,13.2,20.5,34.6,23.7,43.8c0.6,1.7,1,3,1.4,3.8c2.2,5.6,5,6.8,8.5,6.8h94.5c0-53.1-5.9-94.2-6-94.6l1.1-0.2
					c0.1,0.4,6,41.6,6,94.8h139.7c2.8,0,4.8-2,5.3-3.9c0.5-2.3,5.1-34.9,6.2-52c1.1-16.7-0.7-22.1-9.9-30.4
					c-9-8.1-43.5-29-43.8-29.2l0.6-1c0.3,0.2,34.9,21.1,44,29.3c9.6,8.6,11.4,14.2,10.3,31.3c-1.1,17.2-5.7,50-6.2,52.2
					c-0.6,2.4-2.9,4.8-6.4,4.8H637.7c-4.6,0-7.4-2.2-9.5-7.5c-0.3-0.9-0.8-2.2-1.4-3.9c-3.1-9.1-10.4-30.4-23.4-43.4
					c-3.9-3.9-7.6-7.5-10.9-10.7c-9.9-9.6-17.1-16.5-18.5-21.3c-1.9-6.3-0.6-15.7,2.7-20L577.6,1046.6z"/>
				<path fill="#BDBDBD" d="M506.1,1065.8c0,5.7,4.6,10.3,10.3,10.3c5.7,0,10.3-4.6,10.3-10.3c0-5.7-4.6-10.3-10.3-10.3
					C510.8,1055.5,506.1,1060.1,506.1,1065.8z M507.3,1065.8c0-5.1,4.1-9.2,9.2-9.2c5.1,0,9.2,4.1,9.2,9.2c0,5.1-4.1,9.2-9.2,9.2
					C511.4,1075,507.3,1070.9,507.3,1065.8z"/>
			</g>
			<path fill="#1C1C1C" d="M587.5,1060h256.6c7,0,9.8-4.5,9.3-7.7c-0.5-3.3-29.8-26.5-49.8-38.3c-2.2-1.3-4.4-2.5-6.6-3.6v0h0
				c-12.6-6.6-26.4-11.4-37-13.9c-2.5-0.6-4.9-1-7-1.3c-2-0.3-3.9-0.4-5.4-0.4h-95.3c-22,0-74.7,28-82.7,39.5
				C564.2,1042,581.2,1060,587.5,1060z"/>
			<path fill="#D14E4E" d="M742.5,1060c-8.9,0-17.9,0-27,0l-7.8-65.3c5.1,0,10,0,14.5,0L742.5,1060z"/>
			<g>
				<path fill="#1C1C1C" d="M894.1,1049.7c-5.1,1.3-9.2,2.8-12.1,2.8c-5.1,0-9.8-1.3-11.4-2.6c-1.7-1.3-61.5-43.1-67-46.7
					c-5.4-3.6-2.6-7.1,0-7.1c0.1,0,0.3,0,0.5,0c1.7,0.9,3.5,1.8,5.2,2.8C840.6,1016.3,881.5,1046.3,894.1,1049.7L894.1,1049.7z"/>
				<path fill="#1C1C1C" d="M603.3,989.8c0.9,1,0.8,2.6-1.4,4.4c-3.6,2.9-53.3,27.1-59.1,30.1c-5.6,2.9-12.7,3.1-22.1,3.1
					C534.8,1021.7,587.9,996,603.3,989.8z"/>
			</g>
			<path opacity="0.77" fill="#BCBCBC" d="M1002.5,1097c8.6,6.6,23.7,10.4,37,11.9c8.6,1,15.7,1.9,20,1.1c-0.3-1.4-0.6-2.8-0.9-4.4
				c-1.8-8.6-6.8-15.2-13.9-20.7c-1.4-1.1-2.8-2-4.1-2.9c-1.3-0.8-2.4-1.4-3.4-1.8c-8.1-3.5-32.1-7.1-42.4-8.6
				C976.8,1069,993.9,1090.4,1002.5,1097z"/>
			<path fill="#FFFFFF" d="M995.6,1076.3c7.8,1.2,26.1,3.9,32.3,6.6c6.2,2.6,21.2,16.4,20.3,20.2c-0.9,3.8-8.4,2.7-18.6,1.6
				c-10.1-1.1-21.6-4.1-28.1-9.1C994.9,1090.6,981.9,1074.2,995.6,1076.3z"/>
			<path fill="#FFA41F" d="M1001.5,1095.6c-6.6-5-19.6-21.4-5.8-19.3c2.2,0.3,5.4,0.8,8.8,1.4c5,3.7,17.2,13.7,21,26.4
				C1016.4,1102.7,1007.1,1099.9,1001.5,1095.6z"/>
			<path fill="#FFFFFF" d="M485.1,1051.4v20.3c0,4.1-3.4,7.5-7.5,7.5h-20.9c0.8-8,0.8-16.9,1.6-23.6c0.6-4.7,1-8.4,1.3-9.8
				c0.1-0.6,0.2-1.2,0.2-1.8h17.8C481.7,1043.9,485.1,1047.2,485.1,1051.4z"/>
			<path fill="#FFA41F" d="M485.1,1071.6c0,4.1-3.4,7.5-7.5,7.5h-21.9c0.8-8,1.8-16.9,2.6-23.6h26.8V1071.6z"/>
			<path opacity="0.46" fill="#BCBCBC" d="M455.2,1144.2c5.8,7.9,14,10.8,18.9,10.8h44.3c7.4,0,65.8,15.3,85.5,15.3H1044
				c5.8,0,9.2-0.2,11.8-5.3c2.6-5.1,2.8-10.5-0.8-10.5h-15.2c-3.2,0-2.7-5.5-1.1-10.3H455.2z"/>
			<path d="M512.3,1147.7c0-28.8,23.4-52.1,52.1-52.1s52.1,23.4,52.1,52.1v22.6c-6.7,0-11.2,0-12.8,0c-19.7,0-78.1-15.3-85.5-15.3
				c-1.3,0-3.4,0-6,0V1147.7z"/>
			<path opacity="0.77" fill="#BCBCBC" d="M888.8,1150.6v19.7h124.4v-19.7c0-34.3-27.9-62.2-62.2-62.2
				C916.7,1088.4,888.8,1116.3,888.8,1150.6z"/>
			<path opacity="0.77" fill="#BCBCBC" d="M502.3,1150.6v4.4h16c7.4,0,65.8,15.3,85.5,15.3h22.9v-19.7c0-34.3-27.9-62.2-62.2-62.2
				C530.2,1088.4,502.3,1116.3,502.3,1150.6z"/>
			<path d="M898.9,1147.7c0-28.8,23.4-52.1,52.1-52.1c28.8,0,52.1,23.4,52.1,52.1v22.6c-26.4,0-63.4,0-104.3,0V1147.7z"/>
			<g>
				<path fill="#231F20" d="M951.2,1175.8c-15,0-27.2-12.2-27.2-27.2c0-15,12.2-27.2,27.2-27.2c15,0,27.2,12.2,27.2,27.2
					C978.4,1163.6,966.2,1175.8,951.2,1175.8z"/>
				<g>
					<path fill="#9E9E9E" d="M923.2,1154.3c0.7,3.3,2,6.5,3.7,9.3l3.7-1.9l14.4-7.6c1,1.3,2.4,2.2,4,2.8l-2.1,15.8l-0.5,4.1
						c1.6,0.3,3.2,0.4,4.8,0.4c1.7,0,3.4-0.2,5-0.5l-0.4-4.1l-1.4-15.7c1.6-0.5,3.1-1.5,4.2-2.8l13.5,7.1l3.7,1.9
						c1.6-2.8,2.8-5.9,3.5-9.1l-4-1.1l-14.5-3.9c0-0.2,0-0.4,0-0.7c0-2.1-0.7-4-1.9-5.5l9.1-12l2.5-3.3c-2.4-2.2-5.2-4-8.3-5.3
						l-1.7,3.8l-6.3,13.8c-0.7-0.2-1.5-0.3-2.3-0.3c-1.1,0-2.1,0.2-3,0.5l-7.4-13.8l-2-3.7c-3.1,1.4-5.9,3.3-8.2,5.6l2.7,3.1
						l10.5,12.1c-1,1.4-1.5,3.1-1.5,5c0,0.2,0,0.4,0,0.6l-15.8,4.2L923.2,1154.3z"/>
				</g>
				<path fill="#E6E7E8" d="M927.2,1153.2c0.6,3,1.7,5.9,3.3,8.4l14.4-7.6c1,1.3,2.4,2.2,4,2.8l-2.1,15.8c1.4,0.3,2.8,0.4,4.3,0.4
					c1.6,0,3.2-0.2,4.7-0.5l-1.4-15.7c1.6-0.5,3.1-1.5,4.2-2.8l13.5,7.1c1.5-2.5,2.6-5.3,3.1-8.3l-14.5-3.9c0-0.2,0-0.4,0-0.7
					c0-2.1-0.7-4-1.9-5.5l9.1-12c-2.2-2-4.7-3.7-7.5-4.8l-6.3,13.8c-0.7-0.2-1.5-0.3-2.3-0.3c-1.1,0-2.1,0.2-3,0.5l-7.4-13.8
					c-2.8,1.2-5.3,3-7.5,5.1l10.5,12.1c-1,1.4-1.5,3.1-1.5,5c0,0.2,0,0.4,0,0.6L927.2,1153.2z"/>
				<circle opacity="0.46" fill="#BCBCBC" cx="951.6" cy="1148.4" r="5.9"/>
				<g>
					<g>
						<circle fill="#333333" cx="951.6" cy="1144" r="1.7"/>
						<circle fill="#333333" cx="951.6" cy="1152.8" r="1.7"/>
					</g>
					<g>
						<circle fill="#333333" cx="956" cy="1148.4" r="1.7"/>
						<circle fill="#333333" cx="947.2" cy="1148.4" r="1.7"/>
					</g>
				</g>
				<g>
					<path fill="#333333" d="M905.4,1148.6c0,25.3,20.5,45.8,45.8,45.8c25.3,0,45.7-20.5,45.7-45.8c0-25.3-20.5-45.8-45.7-45.8
						C925.9,1102.8,905.4,1123.3,905.4,1148.6z M921.9,1148.6c0-16.2,13.1-29.3,29.3-29.3c16.2,0,29.3,13.1,29.3,29.3
						c0,16.2-13.1,29.3-29.3,29.3C935,1177.9,921.9,1164.8,921.9,1148.6z"/>
				</g>
				<g opacity="0.67">
					<path fill="#BCBCBC" d="M915.8,1148.6c0,19.6,15.8,35.4,35.4,35.4c19.5,0,35.4-15.8,35.4-35.4c0-19.5-15.8-35.4-35.4-35.4
						C931.6,1113.2,915.8,1129,915.8,1148.6z M921.9,1148.6c0-16.2,13.1-29.3,29.3-29.3c16.2,0,29.3,13.1,29.3,29.3
						c0,16.2-13.1,29.3-29.3,29.3C935,1177.9,921.9,1164.8,921.9,1148.6z"/>
				</g>
				<path fill="#D1D3D4" d="M919.2,1148.6c0,17.7,14.3,32,32,32c17.7,0,32-14.3,32-32c0-17.7-14.3-32-32-32
					C933.5,1116.6,919.2,1130.9,919.2,1148.6z M924,1148.6c0-15,12.2-27.2,27.2-27.2c15,0,27.2,12.2,27.2,27.2
					c0,15-12.2,27.2-27.2,27.2C936.2,1175.8,924,1163.6,924,1148.6z"/>
				<path opacity="0.46" fill="#BCBCBC" d="M921.5,1148.6c0,16.4,13.3,29.7,29.7,29.7s29.7-13.3,29.7-29.7
					c0-16.4-13.3-29.7-29.7-29.7S921.5,1132.2,921.5,1148.6z M924,1148.6c0-15,12.2-27.2,27.2-27.2c15,0,27.2,12.2,27.2,27.2
					c0,15-12.2,27.2-27.2,27.2C936.2,1175.8,924,1163.6,924,1148.6z"/>
			</g>
			<g>
				<path fill="#231F20" d="M564.5,1175.8c-15,0-27.2-12.2-27.2-27.2c0-15,12.2-27.2,27.2-27.2c15,0,27.2,12.2,27.2,27.2
					C591.7,1163.6,579.5,1175.8,564.5,1175.8z"/>
				<g>
					<path fill="#9E9E9E" d="M536.5,1154.3c0.7,3.3,2,6.5,3.7,9.3l3.7-1.9l14.4-7.6c1,1.3,2.4,2.2,4,2.8l-2.1,15.8l-0.5,4.1
						c1.6,0.3,3.2,0.4,4.8,0.4c1.7,0,3.4-0.2,5-0.5l-0.4-4.1l-1.4-15.7c1.6-0.5,3.1-1.5,4.2-2.8l13.5,7.1l3.7,1.9
						c1.6-2.8,2.8-5.9,3.5-9.1l-4-1.1L574,1149c0-0.2,0-0.4,0-0.7c0-2.1-0.7-4-1.9-5.5l9.1-12l2.5-3.3c-2.4-2.2-5.2-4-8.3-5.3
						l-1.7,3.8l-6.3,13.8c-0.7-0.2-1.5-0.3-2.3-0.3c-1.1,0-2.1,0.2-3,0.5l-7.4-13.8l-2-3.7c-3.1,1.4-5.9,3.3-8.2,5.6l2.7,3.1
						l10.5,12.1c-1,1.4-1.5,3.1-1.5,5c0,0.2,0,0.4,0,0.6l-15.8,4.2L536.5,1154.3z"/>
				</g>
				<path fill="#E6E7E8" d="M540.5,1153.2c0.6,3,1.7,5.9,3.3,8.4l14.4-7.6c1,1.3,2.4,2.2,4,2.8l-2.1,15.8c1.4,0.3,2.8,0.4,4.3,0.4
					c1.6,0,3.2-0.2,4.7-0.5l-1.4-15.7c1.6-0.5,3.1-1.5,4.2-2.8l13.5,7.1c1.5-2.5,2.6-5.3,3.1-8.3L574,1149c0-0.2,0-0.4,0-0.7
					c0-2.1-0.7-4-1.9-5.5l9.1-12c-2.2-2-4.7-3.7-7.5-4.8l-6.3,13.8c-0.7-0.2-1.5-0.3-2.3-0.3c-1.1,0-2.1,0.2-3,0.5l-7.4-13.8
					c-2.8,1.2-5.3,3-7.5,5.1l10.5,12.1c-1,1.4-1.5,3.1-1.5,5c0,0.2,0,0.4,0,0.6L540.5,1153.2z"/>
				<circle opacity="0.46" fill="#BCBCBC" cx="564.8" cy="1148.4" r="5.9"/>
				<g>
					<g>
						<circle fill="#333333" cx="564.8" cy="1144" r="1.7"/>
						<circle fill="#333333" cx="564.8" cy="1152.8" r="1.7"/>
					</g>
					<g>
						<circle fill="#333333" cx="569.2" cy="1148.4" r="1.7"/>
						<circle fill="#333333" cx="560.4" cy="1148.4" r="1.7"/>
					</g>
				</g>
				<g>
					<path fill="#333333" d="M518.7,1148.6c0,25.3,20.5,45.8,45.8,45.8c25.3,0,45.7-20.5,45.7-45.8c0-25.3-20.5-45.8-45.7-45.8
						C539.2,1102.8,518.7,1123.3,518.7,1148.6z M535.2,1148.6c0-16.2,13.1-29.3,29.3-29.3c16.2,0,29.3,13.1,29.3,29.3
						c0,16.2-13.1,29.3-29.3,29.3C548.3,1177.9,535.2,1164.8,535.2,1148.6z"/>
				</g>
				<g opacity="0.67">
					<path fill="#BCBCBC" d="M529.1,1148.6c0,19.6,15.8,35.4,35.4,35.4c19.5,0,35.4-15.8,35.4-35.4c0-19.5-15.8-35.4-35.4-35.4
						C544.9,1113.2,529.1,1129,529.1,1148.6z M535.2,1148.6c0-16.2,13.1-29.3,29.3-29.3c16.2,0,29.3,13.1,29.3,29.3
						c0,16.2-13.1,29.3-29.3,29.3C548.3,1177.9,535.2,1164.8,535.2,1148.6z"/>
				</g>
				<path fill="#D1D3D4" d="M532.5,1148.6c0,17.7,14.3,32,32,32c17.7,0,32-14.3,32-32c0-17.7-14.3-32-32-32
					C546.8,1116.6,532.5,1130.9,532.5,1148.6z M537.3,1148.6c0-15,12.2-27.2,27.2-27.2c15,0,27.2,12.2,27.2,27.2
					c0,15-12.2,27.2-27.2,27.2C549.5,1175.8,537.3,1163.6,537.3,1148.6z"/>
				<path opacity="0.46" fill="#BCBCBC" d="M534.8,1148.6c0,16.4,13.3,29.7,29.7,29.7c16.4,0,29.7-13.3,29.7-29.7
					c0-16.4-13.3-29.7-29.7-29.7C548.1,1118.9,534.8,1132.2,534.8,1148.6z M537.3,1148.6c0-15,12.2-27.2,27.2-27.2
					c15,0,27.2,12.2,27.2,27.2c0,15-12.2,27.2-27.2,27.2C549.5,1175.8,537.3,1163.6,537.3,1148.6z"/>
			</g>
		</g>
	</g>
	<g>
		<path opacity="0.75" fill="#A5A5A5" d="M2010.9,964.6h-618.6c-6.5,0-10.8-6.8-7.9-12.7l16.8-34.4c1.5-3,4.6-5,7.9-5h585.1
			c3.4,0,6.5,1.9,7.9,5l16.8,34.4C2021.7,957.8,2017.5,964.6,2010.9,964.6z"/>
		<polygon points="1970.1,919.6 1997.6,919.6 2006.3,884.8 1970.1,884.8 		"/>
		<path fill="#E0DCDC" d="M1989.8,898.3c-2.8,4.3-6.2,16.1-1.5,16.1h15.2c3.6,0,3.4,5.5,0.8,10.5c-2.6,5.1-6,5.3-11.8,5.3h-440.2
			c-19.7,0-78.1-15.3-85.5-15.3h-44.3c-6.4,0-18.6-5-23.4-19.6c-0.3-0.8-0.5-1.6-0.7-2.4c-3.9-13.4-3.3-23.4-2.5-25.7
			c0.9-2.5,6.8-3.3,6.8-10.3c0-0.4,0-0.8,0-1.4c0.1-2.4,0.4-6.3,0.9-10.8c0.2-1.8,0.4-3.7,0.6-5.6c0.3-2.8,1.8-5.4,2.1-8.3
			c0.6-5.3,0-11,0.5-15.3c0.6-4.7,1-8.4,1.3-9.8c0.3-2.1,0.4-4.8,1.3-7.4c1.4-4.3,4.8-8.2,14.4-8.2c15.4,0,34.9,0.5,42.6-1.6
			c5-1.4,33.1-14.7,56.5-25.6c12.9-6,24.5-11.3,29.9-13.5c15.3-6,44.1-6.4,57.4-6.4c13.4,0,75.4,0,75.4,0c12.5,0,41-1.8,72.3,15.8
			c31.3,17.5,72.2,47.6,84.8,50.9c5.3,1.4,18.9,2.4,35.1,3.8c2.7,0.2,5.4,0.5,8.1,0.7c20.2,1.9,42.8,4.5,58.3,9.6
			c17.1,5.6,33.3,10.8,45,18.4c1.3,0.8,2.7,1.8,4.1,2.8c4,3.1,7.4,6.6,9.9,10.5c1.9,3.1,3.3,6.4,4,10.1c0.3,1.6,0.6,3,0.9,4.4
			c3.6,18.9,1.3,21.3-3.4,22c-1.5,0.2-3.1,0.5-4.8,0.9C1995.8,893.8,1991.8,895.3,1989.8,898.3z"/>
		<path opacity="0.79" fill="#BCBCBC" d="M1403.5,844.7h25c5.5,0,9.9-4.4,9.9-9.9v-26.7c0-5.5-4.4-9.9-9.9-9.9h-19.2
			c-0.8,2.6-0.9,5.3-1.3,7.4c-0.2,1.5-0.7,5.1-1.3,9.8c-0.5,4.4,0.1,10-0.5,15.3c-0.3,2.9-1.9,5.5-2.1,8.3
			C1403.9,841,1403.7,842.9,1403.5,844.7z"/>
		<path opacity="0.46" fill="#BCBCBC" d="M1395.5,878c0.4,4.7,1.5,10.6,3.6,17.3c1.1,3.5,2.7,6.4,4.5,8.9c5.8,7.9,14,10.8,18.9,10.8
			h44.3c7.4,0,65.8,15.3,85.5,15.3h440.2c5.8,0,9.2-0.2,11.8-5.3c2.6-5.1,2.8-10.5-0.8-10.5h-15.2c-3.2,0-2.7-5.5-1.1-10.3
			c0.7-2.3,1.7-4.4,2.6-5.8c2.8-4.3,9.8-5.6,14.8-6.3c3.9-0.6,6.1-2.4,4.7-14H1395.5z"/>
		<g>
			<path fill="#BDBDBD" d="M1526,806.6c-3.1,4-4.3,13.1-2.5,19c1.4,4.5,8.4,11.3,18.2,20.8c3.3,3.2,7,6.8,10.9,10.7
				c13.2,13.2,20.5,34.6,23.7,43.8c0.6,1.7,1,3,1.4,3.8c2.2,5.6,5,6.8,8.5,6.8h94.5c0-53.1-5.9-94.2-6-94.6l1.1-0.2
				c0.1,0.4,6,41.6,6,94.8h139.7c2.8,0,4.8-2,5.3-3.9c0.5-2.3,5.1-34.9,6.2-52c1.1-16.7-0.7-22.1-9.9-30.4c-9-8.1-43.5-29-43.8-29.2
				l0.6-1c0.3,0.2,34.9,21.1,44,29.3c9.6,8.6,11.4,14.2,10.3,31.3c-1.1,17.2-5.7,50-6.2,52.2c-0.6,2.4-2.9,4.8-6.4,4.8h-235.4
				c-4.6,0-7.4-2.2-9.5-7.5c-0.3-0.9-0.8-2.2-1.4-3.9c-3.1-9.1-10.4-30.4-23.4-43.4c-3.9-3.9-7.6-7.5-10.9-10.7
				c-9.9-9.6-17.1-16.5-18.5-21.3c-1.9-6.3-0.6-15.7,2.7-20L1526,806.6z"/>
			<path fill="#BDBDBD" d="M1454.6,825.8c0,5.7,4.6,10.3,10.3,10.3c5.7,0,10.3-4.6,10.3-10.3c0-5.7-4.6-10.3-10.3-10.3
				C1459.2,815.4,1454.6,820.1,1454.6,825.8z M1455.7,825.8c0-5.1,4.1-9.2,9.2-9.2c5.1,0,9.2,4.1,9.2,9.2c0,5.1-4.1,9.2-9.2,9.2
				C1459.8,834.9,1455.7,830.8,1455.7,825.8z"/>
		</g>
		<path fill="#1C1C1C" d="M1535.9,820h256.6c7,0,9.8-4.5,9.3-7.7c-0.5-3.3-29.8-26.5-49.8-38.3c-2.2-1.3-4.4-2.5-6.6-3.6v0h0
			c-12.6-6.6-26.4-11.4-37-13.9c-2.5-0.6-4.9-1-7-1.3c-2-0.3-3.9-0.4-5.4-0.4h-95.3c-22,0-74.7,28-82.7,39.5
			C1512.7,802,1529.6,820,1535.9,820z"/>
		<path fill="#E0DCDC" d="M1690.9,820c-8.9,0-17.9,0-27,0l-7.8-65.3c5.1,0,10,0,14.5,0L1690.9,820z"/>
		<g>
			<path fill="#1C1C1C" d="M1842.5,809.6c-5.1,1.3-9.2,2.8-12.1,2.8c-5.1,0-9.8-1.3-11.4-2.6c-1.7-1.3-61.5-43.1-67-46.7
				c-5.4-3.6-2.6-7.1,0-7.1c0.1,0,0.3,0,0.5,0c1.7,0.9,3.5,1.8,5.2,2.8C1789,776.2,1830,806.3,1842.5,809.6L1842.5,809.6z"/>
			<path fill="#1C1C1C" d="M1551.7,749.7c0.9,1,0.8,2.6-1.4,4.4c-3.6,2.9-53.3,27.1-59.1,30.1c-5.6,2.9-12.7,3.1-22.1,3.1
				C1483.3,781.7,1536.3,756,1551.7,749.7z"/>
		</g>
		<path opacity="0.77" fill="#BCBCBC" d="M1950.9,857c8.6,6.6,23.7,10.4,37,11.9c8.6,1,15.7,1.9,20,1.1c-0.3-1.4-0.6-2.8-0.9-4.4
			c-1.8-8.6-6.8-15.2-13.9-20.7c-1.4-1.1-2.8-2-4.1-2.9c-1.3-0.8-2.4-1.4-3.4-1.8c-8.1-3.5-32.1-7.1-42.4-8.6
			C1925.2,828.9,1942.3,850.4,1950.9,857z"/>
		<path fill="#FFCF8F" d="M1944.1,836.3c7.8,1.2,26.1,3.9,32.3,6.6c6.2,2.6,21.2,16.4,20.3,20.2c-0.9,3.8-8.4,2.7-18.6,1.6
			c-10.1-1.1-21.6-4.1-28.1-9.1C1943.3,850.5,1930.3,834.2,1944.1,836.3z"/>
		<path fill="#FFFFFF" d="M1433.5,811.3v20.3c0,4.1-3.4,7.5-7.5,7.5h-20.9c0.8-8,0.8-16.9,1.6-23.6c0.6-4.7,1-8.4,1.3-9.8
			c0.1-0.6,0.2-1.2,0.2-1.8h17.8C1430.1,803.8,1433.5,807.2,1433.5,811.3z"/>
		<path fill="#D14E4E" d="M1433.5,831.6c0,4.1-3.4,7.5-7.5,7.5h-21.9c0.8-8,1.8-16.9,2.6-23.6h26.8V831.6z"/>
		<path opacity="0.46" fill="#BCBCBC" d="M1403.6,904.1c5.8,7.9,14,10.8,18.9,10.8h44.3c7.4,0,65.8,15.3,85.5,15.3h440.2
			c5.8,0,9.2-0.2,11.8-5.3c2.6-5.1,2.8-10.5-0.8-10.5h-15.2c-3.2,0-2.7-5.5-1.1-10.3H1403.6z"/>
		<path d="M1460.8,907.7c0-28.8,23.4-52.1,52.1-52.1s52.1,23.4,52.1,52.1v22.6c-6.7,0-11.2,0-12.8,0c-19.7,0-78.1-15.3-85.5-15.3
			c-1.3,0-3.4,0-6,0V907.7z"/>
		<path opacity="0.77" fill="#BCBCBC" d="M1837.2,910.5v19.7h124.4v-19.7c0-34.3-27.9-62.2-62.2-62.2
			C1865.1,848.3,1837.2,876.2,1837.2,910.5z"/>
		<path opacity="0.77" fill="#BCBCBC" d="M1541.9,855.5h-58c8.7-4.6,18.5-7.2,29-7.2S1533.2,850.9,1541.9,855.5z"/>
		<path opacity="0.77" fill="#BCBCBC" d="M1575.1,910.5v19.7h-22.9c-19.7,0-78.1-15.3-85.5-15.3h-16v-4.4c0-6.1,0.9-12,2.5-17.6
			h119.3C1574.2,898.5,1575.1,904.4,1575.1,910.5z"/>
		<path d="M1951.6,907.7v22.6h-104.3v-22.6c0-5.1,0.8-10.1,2.1-14.8h100C1950.8,897.6,1951.6,902.5,1951.6,907.7z"/>
		<g>
			<path fill="#231F20" d="M1899.6,935.7c-15,0-27.2-12.2-27.2-27.2c0-15,12.2-27.2,27.2-27.2c15,0,27.2,12.2,27.2,27.2
				C1926.8,923.6,1914.6,935.7,1899.6,935.7z"/>
			<g>
				<path fill="#9E9E9E" d="M1871.6,914.3c0.7,3.3,2,6.5,3.7,9.3l3.7-1.9l14.4-7.6c1,1.3,2.4,2.2,4,2.8l-2.1,15.8l-0.5,4.1
					c1.6,0.3,3.2,0.4,4.8,0.4c1.7,0,3.4-0.2,5-0.5l-0.4-4.1l-1.4-15.7c1.6-0.5,3.1-1.5,4.2-2.8l13.5,7.1l3.7,1.9
					c1.6-2.8,2.8-5.9,3.5-9.1l-4-1.1l-14.5-3.9c0-0.2,0-0.4,0-0.7c0-2.1-0.7-4-1.9-5.5l9.1-12l2.5-3.3c-2.4-2.2-5.2-4-8.3-5.3
					l-1.7,3.8l-6.3,13.8c-0.7-0.2-1.5-0.3-2.3-0.3c-1.1,0-2.1,0.2-3,0.5l-7.4-13.8l-2-3.7c-3.1,1.4-5.9,3.3-8.2,5.6l2.7,3.1
					l10.5,12.1c-1,1.4-1.5,3.1-1.5,5c0,0.2,0,0.4,0,0.6l-15.8,4.2L1871.6,914.3z"/>
			</g>
			<path fill="#E6E7E8" d="M1875.6,913.2c0.6,3,1.7,5.9,3.3,8.4l14.4-7.6c1,1.3,2.4,2.2,4,2.8l-2.1,15.8c1.4,0.3,2.8,0.4,4.3,0.4
				c1.6,0,3.2-0.2,4.7-0.5l-1.4-15.7c1.6-0.5,3.1-1.5,4.2-2.8l13.5,7.1c1.5-2.5,2.6-5.3,3.1-8.3l-14.5-3.9c0-0.2,0-0.4,0-0.7
				c0-2.1-0.7-4-1.9-5.5l9.1-12c-2.2-2-4.7-3.7-7.5-4.8l-6.3,13.8c-0.7-0.2-1.5-0.3-2.3-0.3c-1.1,0-2.1,0.2-3,0.5l-7.4-13.8
				c-2.8,1.2-5.3,3-7.5,5.1l10.5,12.1c-1,1.4-1.5,3.1-1.5,5c0,0.2,0,0.4,0,0.6L1875.6,913.2z"/>
			<circle opacity="0.46" fill="#BCBCBC" cx="1900" cy="908.3" r="5.9"/>
			<g>
				<g>
					<circle fill="#333333" cx="1900" cy="903.9" r="1.7"/>
					<circle fill="#333333" cx="1900" cy="912.7" r="1.7"/>
				</g>
				<g>
					<circle fill="#333333" cx="1904.4" cy="908.3" r="1.7"/>
					<circle fill="#333333" cx="1895.6" cy="908.3" r="1.7"/>
				</g>
			</g>
			<g>
				<path fill="#333333" d="M1853.9,908.5c0,25.3,20.5,45.8,45.8,45.8c25.3,0,45.7-20.5,45.7-45.8c0-25.3-20.5-45.8-45.7-45.8
					C1874.3,862.8,1853.9,883.3,1853.9,908.5z M1870.3,908.5c0-16.2,13.1-29.3,29.3-29.3c16.2,0,29.3,13.1,29.3,29.3
					c0,16.2-13.1,29.3-29.3,29.3C1883.4,937.8,1870.3,924.7,1870.3,908.5z"/>
			</g>
			<g opacity="0.67">
				<path fill="#BCBCBC" d="M1864.2,908.5c0,19.6,15.8,35.4,35.4,35.4c19.5,0,35.4-15.8,35.4-35.4c0-19.5-15.8-35.4-35.4-35.4
					C1880.1,873.1,1864.2,889,1864.2,908.5z M1870.3,908.5c0-16.2,13.1-29.3,29.3-29.3c16.2,0,29.3,13.1,29.3,29.3
					c0,16.2-13.1,29.3-29.3,29.3C1883.4,937.8,1870.3,924.7,1870.3,908.5z"/>
			</g>
			<path fill="#D1D3D4" d="M1867.6,908.5c0,17.7,14.3,32,32,32c17.7,0,32-14.3,32-32c0-17.7-14.3-32-32-32
				C1881.9,876.5,1867.6,890.9,1867.6,908.5z M1872.4,908.5c0-15,12.2-27.2,27.2-27.2c15,0,27.2,12.2,27.2,27.2
				c0,15-12.2,27.2-27.2,27.2C1884.6,935.7,1872.4,923.6,1872.4,908.5z"/>
			<path opacity="0.46" fill="#BCBCBC" d="M1869.9,908.5c0,16.4,13.3,29.7,29.7,29.7c16.4,0,29.7-13.3,29.7-29.7
				s-13.3-29.7-29.7-29.7C1883.2,878.8,1869.9,892.1,1869.9,908.5z M1872.4,908.5c0-15,12.2-27.2,27.2-27.2
				c15,0,27.2,12.2,27.2,27.2c0,15-12.2,27.2-27.2,27.2C1884.6,935.7,1872.4,923.6,1872.4,908.5z"/>
		</g>
		<g>
			<path fill="#231F20" d="M1512.9,935.7c-15,0-27.2-12.2-27.2-27.2c0-15,12.2-27.2,27.2-27.2c15,0,27.2,12.2,27.2,27.2
				C1540.1,923.6,1527.9,935.7,1512.9,935.7z"/>
			<g>
				<path fill="#9E9E9E" d="M1484.9,914.3c0.7,3.3,2,6.5,3.7,9.3l3.7-1.9l14.4-7.6c1,1.3,2.4,2.2,4,2.8l-2.1,15.8l-0.5,4.1
					c1.6,0.3,3.2,0.4,4.8,0.4c1.7,0,3.4-0.2,5-0.5l-0.4-4.1l-1.4-15.7c1.6-0.5,3.1-1.5,4.2-2.8l13.5,7.1l3.7,1.9
					c1.6-2.8,2.8-5.9,3.5-9.1l-4-1.1l-14.5-3.9c0-0.2,0-0.4,0-0.7c0-2.1-0.7-4-1.9-5.5l9.1-12l2.5-3.3c-2.4-2.2-5.2-4-8.3-5.3
					l-1.7,3.8l-6.3,13.8c-0.7-0.2-1.5-0.3-2.3-0.3c-1.1,0-2.1,0.2-3,0.5l-7.4-13.8l-2-3.7c-3.1,1.4-5.9,3.3-8.2,5.6l2.7,3.1
					l10.5,12.1c-1,1.4-1.5,3.1-1.5,5c0,0.2,0,0.4,0,0.6l-15.8,4.2L1484.9,914.3z"/>
			</g>
			<path fill="#E6E7E8" d="M1488.9,913.2c0.6,3,1.7,5.9,3.3,8.4l14.4-7.6c1,1.3,2.4,2.2,4,2.8l-2.1,15.8c1.4,0.3,2.8,0.4,4.3,0.4
				c1.6,0,3.2-0.2,4.7-0.5l-1.4-15.7c1.6-0.5,3.1-1.5,4.2-2.8l13.5,7.1c1.5-2.5,2.6-5.3,3.1-8.3l-14.5-3.9c0-0.2,0-0.4,0-0.7
				c0-2.1-0.7-4-1.9-5.5l9.1-12c-2.2-2-4.7-3.7-7.5-4.8l-6.3,13.8c-0.7-0.2-1.5-0.3-2.3-0.3c-1.1,0-2.1,0.2-3,0.5l-7.4-13.8
				c-2.8,1.2-5.3,3-7.5,5.1l10.5,12.1c-1,1.4-1.5,3.1-1.5,5c0,0.2,0,0.4,0,0.6L1488.9,913.2z"/>
			<circle opacity="0.46" fill="#BCBCBC" cx="1513.3" cy="908.3" r="5.9"/>
			<g>
				<g>
					<circle fill="#333333" cx="1513.3" cy="903.9" r="1.7"/>
					<circle fill="#333333" cx="1513.3" cy="912.7" r="1.7"/>
				</g>
				<g>
					<circle fill="#333333" cx="1517.7" cy="908.3" r="1.7"/>
					<circle fill="#333333" cx="1508.9" cy="908.3" r="1.7"/>
				</g>
			</g>
			<g>
				<path fill="#333333" d="M1467.1,908.5c0,25.3,20.5,45.8,45.8,45.8c25.3,0,45.7-20.5,45.7-45.8c0-25.3-20.5-45.8-45.7-45.8
					C1487.6,862.8,1467.1,883.3,1467.1,908.5z M1483.6,908.5c0-16.2,13.1-29.3,29.3-29.3c16.2,0,29.3,13.1,29.3,29.3
					c0,16.2-13.1,29.3-29.3,29.3C1496.7,937.8,1483.6,924.7,1483.6,908.5z"/>
			</g>
			<g opacity="0.67">
				<path fill="#BCBCBC" d="M1477.5,908.5c0,19.6,15.8,35.4,35.4,35.4c19.5,0,35.4-15.8,35.4-35.4c0-19.5-15.8-35.4-35.4-35.4
					C1493.3,873.1,1477.5,889,1477.5,908.5z M1483.6,908.5c0-16.2,13.1-29.3,29.3-29.3c16.2,0,29.3,13.1,29.3,29.3
					c0,16.2-13.1,29.3-29.3,29.3C1496.7,937.8,1483.6,924.7,1483.6,908.5z"/>
			</g>
			<path fill="#D1D3D4" d="M1480.9,908.5c0,17.7,14.3,32,32,32c17.7,0,32-14.3,32-32c0-17.7-14.3-32-32-32
				C1495.2,876.5,1480.9,890.9,1480.9,908.5z M1485.7,908.5c0-15,12.2-27.2,27.2-27.2c15,0,27.2,12.2,27.2,27.2
				c0,15-12.2,27.2-27.2,27.2C1497.9,935.7,1485.7,923.6,1485.7,908.5z"/>
			<path opacity="0.46" fill="#BCBCBC" d="M1483.2,908.5c0,16.4,13.3,29.7,29.7,29.7c16.4,0,29.7-13.3,29.7-29.7
				s-13.3-29.7-29.7-29.7C1496.5,878.8,1483.2,892.1,1483.2,908.5z M1485.7,908.5c0-15,12.2-27.2,27.2-27.2
				c15,0,27.2,12.2,27.2,27.2c0,15-12.2,27.2-27.2,27.2C1497.9,935.7,1485.7,923.6,1485.7,908.5z"/>
		</g>
		<path fill="#FFFFFF" d="M1402.6,855.5h81.3c-14.7,7.8-25.9,21.2-30.6,37.4h-54.9c-3.9-13.4-3.3-23.4-2.5-25.7
			c0.9-2.5,6.8-3.3,6.8-10.3C1402.6,856.5,1402.6,856.1,1402.6,855.5z"/>
		<path fill="#FFFFFF" d="M1541.9,855.5h357.5c-23.6,0-43.6,15.8-50,37.4h-276.9C1567.7,876.7,1556.5,863.3,1541.9,855.5z"/>
		<g>
			<path fill="#FFFFFF" d="M2005.4,860.1c0,0.1,0.1,0.2,0.1,0.4C2005.5,860.4,2005.4,860.3,2005.4,860.1z"/>
			<path fill="#FFFFFF" d="M2006.4,862.9c0,0.1,0,0.1,0.1,0.2C2006.4,863,2006.4,862.9,2006.4,862.9z"/>
			<path fill="#FFFFFF" d="M2003.1,855.6C2003.1,855.6,2003.1,855.5,2003.1,855.6L2003.1,855.6
				C2003,855.5,2003.1,855.6,2003.1,855.6z"/>
			<path fill="#FFFFFF" d="M2004.2,857.7c0.1,0.1,0.1,0.2,0.2,0.3C2004.4,857.9,2004.3,857.8,2004.2,857.7z"/>
			<path fill="#FFFFFF" d="M2008,870c-4.3,0.8-11.5-0.2-20-1.1c-13.3-1.5-28.3-5.3-37-11.9c-0.6-0.4-1.2-0.9-1.8-1.5h-49.7
				c23.6,0,43.6,15.8,50,37.4h50.4c1.7-0.4,3.3-0.6,4.8-0.9C2009.3,891.3,2011.5,888.9,2008,870z"/>
		</g>
	</g>
	<rect x="-4.5" y="1224" fill="#161616" width="2504.5" height="20.7"/>
	<rect x="-4.5" y="1280.6" fill="#161616" width="2504.5" height="20.7"/>
	<rect x="-4.5" y="1337.2" fill="#161616" width="2504.5" height="20.7"/>
	<rect x="134.5" y="1224" fill="#161616" width="20.5" height="175.5"/>
	<rect x="609.4" y="1224" fill="#161616" width="20.5" height="175.5"/>
	<rect x="1084.3" y="1224" fill="#161616" width="20.5" height="175.5"/>
	<rect x="1559.2" y="1224" fill="#161616" width="20.5" height="175.5"/>
	<rect x="2034.1" y="1224" fill="#161616" width="20.5" height="175.5"/>
	<rect y="504" fill="#3F3F3F" width="2500" height="2"/>
	<rect y="509.3" fill="#3F3F3F" width="2500" height="2"/>
	<rect y="514.5" fill="#3F3F3F" width="2500" height="2"/>
	<rect x="46.7" y="504" fill="#3F3F3F" width="1.8" height="18.2"/>
	<rect x="147" y="504" fill="#3F3F3F" width="1.8" height="18.2"/>
	<rect x="247.3" y="504" fill="#3F3F3F" width="1.8" height="18.2"/>
	<rect x="347.7" y="504" fill="#3F3F3F" width="1.8" height="18.2"/>
	<rect x="448" y="504" fill="#3F3F3F" width="1.8" height="18.2"/>
	<rect x="548.3" y="504" fill="#3F3F3F" width="1.8" height="18.2"/>
	<rect x="648.7" y="504" fill="#3F3F3F" width="1.8" height="18.2"/>
	<rect x="749" y="504" fill="#3F3F3F" width="1.8" height="18.2"/>
	<rect x="849.3" y="504" fill="#3F3F3F" width="1.8" height="18.2"/>
	<rect x="949.7" y="504" fill="#3F3F3F" width="1.8" height="18.2"/>
	<rect x="1050" y="504" fill="#3F3F3F" width="1.8" height="18.2"/>
	<rect x="1150.3" y="504" fill="#3F3F3F" width="1.8" height="18.2"/>
	<rect x="1250.7" y="504" fill="#3F3F3F" width="1.8" height="18.2"/>
	<rect x="1351" y="504" fill="#3F3F3F" width="1.8" height="18.2"/>
	<rect x="1451.3" y="504" fill="#3F3F3F" width="1.8" height="18.2"/>
	<rect x="1551.7" y="504" fill="#3F3F3F" width="1.8" height="18.2"/>
	<rect x="1652" y="504" fill="#3F3F3F" width="1.8" height="18.2"/>
	<rect x="1752.3" y="504" fill="#3F3F3F" width="1.8" height="18.2"/>
	<rect x="1852.7" y="504" fill="#3F3F3F" width="1.8" height="18.2"/>
	<rect x="1953" y="504" fill="#3F3F3F" width="1.8" height="18.2"/>
	<rect x="2053.3" y="504" fill="#3F3F3F" width="1.8" height="18.2"/>
	<rect x="2153.7" y="504" fill="#3F3F3F" width="1.8" height="18.2"/>
	<rect x="2254" y="504" fill="#3F3F3F" width="1.8" height="18.2"/>
	<rect x="2354.3" y="504" fill="#3F3F3F" width="1.8" height="18.2"/>
	<rect x="2454.7" y="504" fill="#3F3F3F" width="1.8" height="18.2"/>
	<g>
		<path opacity="0.58" fill="#FFFFFF" d="M561.3,279c-226.2-1.9-456.5-8-561.3-11.1v34.6h561.3V279z"/>
		<path opacity="0.58" fill="#FFFFFF" d="M2227.6,186.8c-139.8,46-87,61.3-265,68.9c-178,7.6-737.7-46.7-830.4,0
			c-37,18.6-233.8,24.1-457.1,23.8v22.9H2500V165.7C2432.6,159.9,2319.1,156.7,2227.6,186.8z"/>
	</g>
	<path opacity="0.38" fill="#A5A5A5" d="M775.1,1170.3H603.8c-19.7,0-78.1-15.3-85.5-15.3h-44.3c-6.4,0-18.6-5-23.4-19.6
		c-4.8-14.6-4.1-25.6-3.3-28.1c0.9-2.5,6.8-3.3,6.8-10.3c0-2,0.4-6.6,0.9-12.2c0.2-1.8,0.4-3.7,0.6-5.6c0.3-2.8,1.8-5.4,2.1-8.3
		c0.6-5.3,0-11,0.5-15.3c0.6-4.7,1-8.4,1.3-9.8c0.3-2.1,0.4-4.8,1.3-7.4c1.4-4.3,4.8-8.2,14.4-8.2c15.4,0,34.9,0.5,42.6-1.6
		c6.4-1.8,50.3-22.9,74.2-33.7L775.1,1170.3z"/>
	<path opacity="0.38" fill="#A5A5A5" d="M451.4,957.4H95l-4.9,13.8l-8.4,23.5H46.5V649.2c0-10.8,8.7-19.5,19.5-19.5h100.7l21.1,24.2
		L451.4,957.4z"/>
	<path opacity="0.38" fill="#A5A5A5" d="M1650,930.2h-97.8c-19.7,0-78.1-15.3-85.5-15.3h-44.3c-6.4,0-18.6-5-23.4-19.6
		c-0.3-0.8-0.5-1.6-0.7-2.4c-3.9-13.4-3.3-23.4-2.5-25.7c0.9-2.5,6.8-3.3,6.8-10.3c0-0.4,0-0.8,0-1.4c0.1-2.4,0.4-6.3,0.9-10.8
		c0.2-1.8,0.4-3.7,0.6-5.6c0.3-2.8,1.8-5.4,2.1-8.3c0.6-5.3,0-11,0.5-15.3c0.6-4.7,1-8.4,1.3-9.8c0.3-2.1,0.4-4.8,1.3-7.4
		c1.4-4.3,4.8-8.2,14.4-8.2c15.4,0,34.9,0.5,42.6-1.6c5-1.4,33.1-14.7,56.5-25.6L1650,930.2z"/>
	<path opacity="0.38" fill="#A5A5A5" d="M1382.8,644.1H1271c-4,0-7.3-3.3-7.3-7.3V578c0-4,3.3-7.3,7.3-7.3h60.5L1382.8,644.1z"/>
	<polygon opacity="0.38" fill="#A5A5A5" points="860,590.2 0,590.2 0,522.2 795.7,522.2 	"/>
</g>
</svg>
